<?xml version="1.0" encoding="UTF-8" standalone="no"?>
<!-- Created with Inkscape (http://www.inkscape.org/) -->

<svg
   xmlns:dc="http://purl.org/dc/elements/1.1/"
   xmlns:cc="http://creativecommons.org/ns#"
   xmlns:rdf="http://www.w3.org/1999/02/22-rdf-syntax-ns#"
   xmlns:svg="http://www.w3.org/2000/svg"
   xmlns="http://www.w3.org/2000/svg"
   xmlns:xlink="http://www.w3.org/1999/xlink"
   xmlns:sodipodi="http://sodipodi.sourceforge.net/DTD/sodipodi-0.dtd"
   xmlns:inkscape="http://www.inkscape.org/namespaces/inkscape"
   width="96"
   height="96"
   id="svg2"
   version="1.1"
   inkscape:version="0.48.4 r9939"
   sodipodi:docname="emblem-camera1.svg">
  <defs
     id="defs4">
    <linearGradient
       id="linearGradient3772">
      <stop
         style="stop-color:#00a8fd;stop-opacity:1;"
         offset="0"
         id="stop3774" />
      <stop
         id="stop3782"
         offset="0.5"
         style="stop-color:#0093dd;stop-opacity:1;" />
      <stop
         id="stop3780"
         offset="0.5"
         style="stop-color:#007ebd;stop-opacity:1;" />
      <stop
         style="stop-color:#00547e;stop-opacity:1;"
         offset="1"
         id="stop3776" />
    </linearGradient>
    <linearGradient
       inkscape:collect="always"
       xlink:href="#linearGradient3772"
       id="linearGradient3778"
       x1="15"
       y1="972.36218"
       x2="80"
       y2="1037.3622"
       gradientUnits="userSpaceOnUse" />
  </defs>
  <sodipodi:namedview
     id="base"
     pagecolor="#ffffff"
     bordercolor="#666666"
     borderopacity="1.0"
     inkscape:pageopacity="0.0"
     inkscape:pageshadow="2"
     inkscape:zoom="5.90625"
     inkscape:cx="18.407693"
     inkscape:cy="48"
     inkscape:document-units="px"
     inkscape:current-layer="layer1"
     showgrid="true"
     inkscape:snap-page="true"
     inkscape:snap-global="true"
     inkscape:snap-center="true"
     inkscape:snap-object-midpoints="true"
     showguides="true"
     inkscape:guide-bbox="true"
     inkscape:snap-bbox="true"
     inkscape:object-paths="true"
     inkscape:object-nodes="false"
     inkscape:window-width="1305"
     inkscape:window-height="744"
     inkscape:window-x="61"
     inkscape:window-y="24"
     inkscape:window-maximized="1"
     inkscape:snap-midpoints="true"
     inkscape:snap-grids="false"
     inkscape:snap-to-guides="false">
    <inkscape:grid
       type="xygrid"
       id="grid3002"
       empspacing="5"
       visible="true"
       enabled="true"
       snapvisiblegridlinesonly="true" />
    <sodipodi:guide
       orientation="0,1"
       position="0,24.000119"
       id="guide3765" />
    <sodipodi:guide
       orientation="0,1"
       position="4.3680784,0.00011945312"
       id="guide3767" />
    <sodipodi:guide
       orientation="1,0"
       position="24,20.131144"
       id="guide3769" />
  </sodipodi:namedview>
  <metadata
     id="metadata7">
    <rdf:RDF>
      <cc:Work
         rdf:about="">
        <dc:format>image/svg+xml</dc:format>
        <dc:type
           rdf:resource="http://purl.org/dc/dcmitype/StillImage" />
        <dc:title />
      </cc:Work>
    </rdf:RDF>
  </metadata>
  <g
     inkscape:label="Layer 1"
     inkscape:groupmode="layer"
     id="layer1"
     transform="translate(0,-956.36218)">
    <rect
       style="fill:#ffffff;fill-opacity:0;fill-rule:nonzero;stroke:none"
       id="rect3775"
       width="96"
       height="96"
       x="0"
       y="956.36206"
       ry="0" />
    <path
       sodipodi:nodetypes="scscscscs"
       inkscape:connector-curvature="0"
       id="path3788"
       d="m 48,960.36262 c -13.853086,0 -26.768342,2.376 -37.714286,6.2864 C 6.376,977.59382 4,990.51022 4,1004.3626 c 0,13.8516 2.376,26.7688 6.285714,37.7136 10.945944,3.9104 23.8612,6.2864 37.714286,6.2864 13.851824,0 26.768336,-2.376 37.714288,-6.2864 C 89.623824,1031.1314 92,1018.215 92,1004.3626 92,990.51102 89.623824,977.59382 85.714288,966.64902 74.768336,962.73862 61.851824,960.36262 48,960.36262 z"
       style="fill:#cccccc;fill-opacity:0.99215686;fill-rule:evenodd;stroke:none" />
    <path
       style="fill:url(#linearGradient3778);fill-opacity:1;fill-rule:evenodd;stroke:none"
       d="m 48,968.36262 c -11.334343,0 -21.901372,1.944 -30.857143,5.1432 C 13.944,982.46102 12,993.02822 12,1004.3626 c 0,11.3336 1.944,21.9016 5.142857,30.8568 8.955771,3.1992 19.5228,5.1432 30.857143,5.1432 11.333312,0 21.901368,-1.944 30.857144,-5.1432 C 82.055856,1026.2642 84,1015.697 84,1004.3626 84,993.02942 82.055856,982.46102 78.857144,973.50582 69.901368,970.30662 59.333312,968.36262 48,968.36262 z"
       id="path3776"
       inkscape:connector-curvature="0"
       sodipodi:nodetypes="scscscscs" />
    <path
       style="fill:#000000;fill-opacity:0.56621004;fill-rule:evenodd;stroke:none"
       d="m 48,968.36254 c -11.334343,0 -21.919229,1.9258 -30.875,5.125 -3.198857,8.9552 -5.125,19.5406 -5.125,30.87496 0,0.3377 -0.0034,0.6638 0,1 0.09969,-10.99435 2.010786,-21.28172 5.125,-29.99996 8.955771,-3.1992 19.540657,-5.125 30.875,-5.125 11.333312,0 21.919224,1.9258 30.875,5.125 3.114072,8.71824 5.025308,19.00666 5.125,29.99996 0.0034,-0.3362 0,-0.6623 0,-1 0,-11.33316 -1.926288,-21.91976 -5.125,-30.87496 -8.955776,-3.1992 -19.541688,-5.125 -30.875,-5.125 z"
       id="path3797"
       inkscape:connector-curvature="0" />
    <path
       style="fill:#ffffff;fill-opacity:0.90867579;fill-rule:evenodd;stroke:none"
       d="m 12,1005.1182 c -0.0034,0.336 0,0.6624 0,1 0,11.3336 1.926143,21.9196 5.125,30.8748 8.955771,3.1992 19.540657,5.1252 30.875,5.1252 11.333312,0 21.919224,-1.926 30.875,-5.1252 3.198712,-8.9552 5.125,-19.5404 5.125,-30.8748 0,-0.336 0.0034,-0.664 0,-1 -0.09968,10.9944 -2.010928,21.2816 -5.125,30 -8.955776,3.1992 -19.541688,5.1248 -30.875,5.1248 -11.334343,0 -21.919229,-1.9256 -30.875,-5.1248 -3.114214,-8.7184 -5.025314,-19.0064 -5.125,-30 z"
       id="path3802"
       inkscape:connector-curvature="0" />
    <path
       inkscape:connector-curvature="0"
       style="fill:#000000;fill-opacity:0.71689501;fill-rule:evenodd;stroke:none"
       d="m 22.304954,977.60777 c -1.360333,0 -2.459457,1.09913 -2.459457,2.45946 l 0,2.87343 c 0,1.36033 1.099124,2.45945 2.459457,2.45945 l 6.769595,0 c 1.360333,0 2.459457,-1.09912 2.459457,-2.45945 l 0,-2.87343 c 0,-1.36033 -1.099124,-2.45946 -2.459457,-2.45946 l -6.769595,0 z m 26.761817,3.89617 c -11.834874,0 -21.428934,9.59409 -21.428934,21.42896 0,11.8348 9.59406,21.4289 21.428934,21.4289 11.834874,0 21.428934,-9.5941 21.428934,-21.4289 0,-11.83487 -9.59406,-21.42896 -21.428934,-21.42896 z m 0,3.89617 c 9.683078,0 17.532764,7.84972 17.532764,17.53279 0,9.683 -7.849686,17.5327 -17.532764,17.5327 -9.683079,0 -17.532765,-7.8497 -17.532765,-17.5327 0,-9.68307 7.849686,-17.53279 17.532765,-17.53279 z m 0,3.89617 c -7.531283,0 -13.636595,6.10535 -13.636595,13.63662 0,7.5313 6.105312,13.6366 13.636595,13.6366 7.531283,0 13.636595,-6.1053 13.636595,-13.6366 0,-7.53127 -6.105312,-13.63662 -13.636595,-13.63662 z m -1.948085,3.89615 c 2.151795,0 3.89617,1.7444 3.89617,3.8962 0,2.15183 -1.744375,3.89617 -3.89617,3.89617 -2.151795,0 -3.89617,-1.74434 -3.89617,-3.89617 0,-2.1518 1.744375,-3.8962 3.89617,-3.8962 z"
       id="path3765" />
    <path
       inkscape:connector-curvature="0"
       style="fill:#000000;fill-opacity:0.71689501;fill-rule:evenodd;stroke:none"
       d="m 22.304954,977.60777 c -1.360333,0 -2.459457,1.09913 -2.459457,2.45946 l 0,1.55847 c 0,-1.36033 1.099124,-2.45946 2.459457,-2.45946 l 6.769595,0 c 1.360333,0 2.459457,1.09913 2.459457,2.45946 l 0,-1.55847 c 0,-1.36033 -1.099124,-2.45946 -2.459457,-2.45946 l -6.769595,0 z m 26.761817,3.89617 c -11.834874,0 -21.428934,9.59409 -21.428934,21.42896 0,0.263 0.01495,0.5184 0.02435,0.7792 0.413457,-11.47087 9.832759,-20.64969 21.404583,-20.64969 11.571824,0 20.991126,9.17882 21.404583,20.64969 0.0094,-0.2608 0.02435,-0.5162 0.02435,-0.7792 0,-11.83487 -9.59406,-21.42896 -21.428934,-21.42896 z m 0,7.79234 c -7.531283,0 -13.636595,6.10535 -13.636595,13.63662 0,0.2644 0.03386,0.5185 0.0487,0.7792 0.408052,-7.16467 6.321002,-12.85737 13.587893,-12.85737 7.266891,0 13.179841,5.6927 13.587892,12.85737 0.01485,-0.2607 0.0487,-0.5148 0.0487,-0.7792 0,-7.53127 -6.105312,-13.63662 -13.636595,-13.63662 z m -5.771202,8.57165 c -0.0519,0.2536 -0.07305,0.5102 -0.07305,0.7792 0,2.15177 1.744375,3.89617 3.89617,3.89617 2.151795,0 3.89617,-1.7444 3.89617,-3.89617 0,-0.269 -0.02116,-0.5256 -0.07305,-0.7792 -0.363303,1.77543 -1.940296,3.11687 -3.823117,3.11687 -1.882821,0 -3.459814,-1.34144 -3.823117,-3.11687 z m -11.737211,5.96587 c -0.0081,0.2189 -0.02435,0.4366 -0.02435,0.6575 0,9.6831 7.849686,17.5328 17.532765,17.5328 9.683078,0 17.532764,-7.8497 17.532764,-17.5328 0,-0.2209 -0.01625,-0.4386 -0.02435,-0.6575 -0.469582,9.2639 -8.127931,16.6318 -17.508413,16.6318 -9.380483,0 -17.038832,-7.3679 -17.508413,-16.6318 z"
       id="path3779" />
    <path
       style="fill:#f6f6f6;fill-opacity:0.84931503;fill-rule:evenodd;stroke:none"
       d="m 19.845497,982.94902 0,1.04709 c 0,1.36034 1.099124,2.45946 2.459457,2.45946 l 6.769595,0 c 1.360333,0 2.459457,-1.09912 2.459457,-2.45946 l 0,-1.04709 c 0,1.36033 -1.099124,2.45945 -2.459457,2.45945 l -6.769595,0 c -1.360333,0 -2.459457,-1.09912 -2.459457,-2.45945 z m 29.221274,2.45945 c -9.683079,0 -17.532765,7.84966 -17.532765,17.53273 0,0.1718 0.01944,0.3408 0.02435,0.5113 0.28439,-9.43397 8.005346,-16.99693 17.508413,-16.99693 9.503067,0 17.224023,7.56296 17.508413,16.99693 0.0049,-0.1705 0.02435,-0.3395 0.02435,-0.5113 0,-9.68307 -7.849686,-17.53273 -17.532764,-17.53273 z m -2.337702,7.79236 c -1.964668,0.1995 -3.506553,1.8788 -3.506553,3.8962 0,0.1769 0.02586,0.3407 0.0487,0.5114 0.265347,-1.8935 1.880851,-3.3605 3.847468,-3.3605 1.966617,0 3.582121,1.467 3.847468,3.3605 0.02284,-0.1707 0.0487,-0.3345 0.0487,-0.5114 0,-2.1518 -1.744375,-3.8962 -3.89617,-3.8962 -0.134487,0 -0.258639,-0.013 -0.389617,0 z m -19.091232,10.25167 c -0.0044,0.1797 0,0.3551 0,0.5358 0,11.8348 9.59406,21.4289 21.428934,21.4289 11.834874,0 21.428934,-9.5941 21.428934,-21.4289 0,-0.1807 0.0044,-0.3561 0,-0.5358 -0.274072,11.5965 -9.766567,20.9176 -21.428934,20.9176 -11.662367,0 -21.154862,-9.3211 -21.428934,-20.9176 z m 7.81669,0 c -0.007,0.18 -0.02435,0.3542 -0.02435,0.5358 0,7.5313 6.105312,13.6366 13.636595,13.6366 7.531283,0 13.636595,-6.1053 13.636595,-13.6366 0,-0.1816 -0.01731,-0.3558 -0.02435,-0.5358 -0.272198,7.2915 -6.254332,13.1252 -13.612243,13.1252 -7.357911,0 -13.340045,-5.8337 -13.612244,-13.1252 z"
       id="path3784"
       inkscape:connector-curvature="0" />
  </g>
</svg>
