<?xml version="1.0" encoding="UTF-8" standalone="no"?>
<!-- Created with Inkscape (http://www.inkscape.org/) -->

<svg
   xmlns:dc="http://purl.org/dc/elements/1.1/"
   xmlns:cc="http://creativecommons.org/ns#"
   xmlns:rdf="http://www.w3.org/1999/02/22-rdf-syntax-ns#"
   xmlns:svg="http://www.w3.org/2000/svg"
   xmlns="http://www.w3.org/2000/svg"
   xmlns:xlink="http://www.w3.org/1999/xlink"
   xmlns:sodipodi="http://sodipodi.sourceforge.net/DTD/sodipodi-0.dtd"
   xmlns:inkscape="http://www.inkscape.org/namespaces/inkscape"
   width="96"
   height="96"
   id="svg2"
   version="1.1"
   inkscape:version="0.48.4 r9939"
   sodipodi:docname="emblem-photos.svg">
  <defs
     id="defs4">
    <linearGradient
       id="linearGradient3780">
      <stop
         style="stop-color:#d95a03;stop-opacity:1;"
         offset="0"
         id="stop3782" />
      <stop
         id="stop3790"
         offset="0.5"
         style="stop-color:#bb4e02;stop-opacity:1;" />
      <stop
         id="stop3788"
         offset="0.5"
         style="stop-color:#9e4202;stop-opacity:1;" />
      <stop
         style="stop-color:#642a01;stop-opacity:1;"
         offset="1"
         id="stop3784" />
    </linearGradient>
    <linearGradient
       id="linearGradient3763">
      <stop
         style="stop-color:#00c913;stop-opacity:1;"
         offset="0"
         id="stop3765" />
      <stop
         id="stop3773"
         offset="0.5"
         style="stop-color:#00ad10;stop-opacity:1;" />
      <stop
         id="stop3771"
         offset="0.5"
         style="stop-color:#00910e;stop-opacity:1;" />
      <stop
         style="stop-color:#005a09;stop-opacity:1;"
         offset="1"
         id="stop3767" />
    </linearGradient>
    <linearGradient
       inkscape:collect="always"
       xlink:href="#linearGradient3763"
       id="linearGradient3774"
       gradientUnits="userSpaceOnUse"
       x1="15"
       y1="972.36218"
       x2="80"
       y2="1037.3622"
       gradientTransform="matrix(0.77777778,0,0,0.77777778,10.666667,223.19169)" />
    <linearGradient
       inkscape:collect="always"
       xlink:href="#linearGradient3780"
       id="linearGradient3786"
       x1="15"
       y1="972.36218"
       x2="80"
       y2="1037.3622"
       gradientUnits="userSpaceOnUse" />
  </defs>
  <sodipodi:namedview
     id="base"
     pagecolor="#ffffff"
     bordercolor="#666666"
     borderopacity="1.0"
     inkscape:pageopacity="0.0"
     inkscape:pageshadow="2"
     inkscape:zoom="5.90625"
     inkscape:cx="23.364421"
     inkscape:cy="48"
     inkscape:document-units="px"
     inkscape:current-layer="layer1"
     showgrid="true"
     inkscape:snap-page="true"
     inkscape:snap-global="true"
     inkscape:snap-center="true"
     inkscape:snap-object-midpoints="true"
     showguides="true"
     inkscape:guide-bbox="true"
     inkscape:snap-bbox="true"
     inkscape:object-paths="true"
     inkscape:object-nodes="true"
     inkscape:window-width="1305"
     inkscape:window-height="744"
     inkscape:window-x="61"
     inkscape:window-y="24"
     inkscape:window-maximized="1"
     inkscape:snap-midpoints="false"
     inkscape:snap-grids="false"
     inkscape:snap-to-guides="false">
    <inkscape:grid
       type="xygrid"
       id="grid3002"
       empspacing="5"
       visible="true"
       enabled="true"
       snapvisiblegridlinesonly="true" />
  </sodipodi:namedview>
  <metadata
     id="metadata7">
    <rdf:RDF>
      <cc:Work
         rdf:about="">
        <dc:format>image/svg+xml</dc:format>
        <dc:type
           rdf:resource="http://purl.org/dc/dcmitype/StillImage" />
        <dc:title />
      </cc:Work>
    </rdf:RDF>
  </metadata>
  <g
     inkscape:label="Layer 1"
     inkscape:groupmode="layer"
     id="layer1"
     transform="translate(0,-956.36218)">
    <rect
       style="fill:#ffffff;fill-opacity:0;fill-rule:nonzero;stroke:none"
       id="rect3775"
       width="96"
       height="96"
       x="0"
       y="956.36206"
       ry="0" />
    <path
       sodipodi:nodetypes="scscscscs"
       inkscape:connector-curvature="0"
       id="path3788"
       d="m 48,960.36262 c -13.853086,0 -26.768342,2.376 -37.714286,6.2864 C 6.376,977.59382 4,990.51022 4,1004.3626 c 0,13.8516 2.376,26.7688 6.285714,37.7136 10.945944,3.9104 23.8612,6.2864 37.714286,6.2864 13.851824,0 26.768336,-2.376 37.714288,-6.2864 C 89.623824,1031.1314 92,1018.215 92,1004.3626 92,990.51102 89.623824,977.59382 85.714288,966.64902 74.768336,962.73862 61.851824,960.36262 48,960.36262 z"
       style="fill:#cccccc;fill-opacity:0.99215686;fill-rule:evenodd;stroke:none" />
    <path
       style="fill:url(#linearGradient3786);fill-opacity:1;fill-rule:evenodd;stroke:none"
       d="m 48,968.36262 c -11.334343,0 -21.901372,1.944 -30.857143,5.1432 C 13.944,982.46102 12,993.02822 12,1004.3626 c 0,11.3336 1.944,21.9016 5.142857,30.8568 8.955771,3.1992 19.5228,5.1432 30.857143,5.1432 11.333312,0 21.901368,-1.944 30.857144,-5.1432 C 82.055856,1026.2642 84,1015.697 84,1004.3626 84,993.02942 82.055856,982.46102 78.857144,973.50582 69.901368,970.30662 59.333312,968.36262 48,968.36262 z"
       id="path3776"
       inkscape:connector-curvature="0"
       sodipodi:nodetypes="scscscscs" />
    <path
       style="fill:#000000;fill-opacity:0.56621004;fill-rule:evenodd;stroke:none"
       d="m 48,968.36254 c -11.334343,0 -21.919229,1.9258 -30.875,5.125 -3.198857,8.9552 -5.125,19.5406 -5.125,30.87496 0,0.3377 -0.0034,0.6638 0,1 0.09969,-10.99435 2.010786,-21.28172 5.125,-29.99996 8.955771,-3.1992 19.540657,-5.125 30.875,-5.125 11.333312,0 21.919224,1.9258 30.875,5.125 3.114072,8.71824 5.025308,19.00666 5.125,29.99996 0.0034,-0.3362 0,-0.6623 0,-1 0,-11.33316 -1.926288,-21.91976 -5.125,-30.87496 -8.955776,-3.1992 -19.541688,-5.125 -30.875,-5.125 z"
       id="path3797"
       inkscape:connector-curvature="0" />
    <path
       style="fill:#ffffff;fill-opacity:0.90867579;fill-rule:evenodd;stroke:none"
       d="m 12,1005.1182 c -0.0034,0.336 0,0.6624 0,1 0,11.3336 1.926143,21.9196 5.125,30.8748 8.955771,3.1992 19.540657,5.1252 30.875,5.1252 11.333312,0 21.919224,-1.926 30.875,-5.1252 3.198712,-8.9552 5.125,-19.5404 5.125,-30.8748 0,-0.336 0.0034,-0.664 0,-1 -0.09968,10.9944 -2.010928,21.2816 -5.125,30 -8.955776,3.1992 -19.541688,5.1248 -30.875,5.1248 -11.334343,0 -21.919229,-1.9256 -30.875,-5.1248 -3.114214,-8.7184 -5.025314,-19.0064 -5.125,-30 z"
       id="path3802"
       inkscape:connector-curvature="0" />
    <path
       style="fill:#ffffff;fill-opacity:0.51598173;fill-rule:evenodd;stroke:none"
       d="M 52.5 21 C 48.357864 21 45 24.357864 45 28.5 C 45 32.642136 48.357864 36 52.5 36 C 56.642136 36 60 32.642136 60 28.5 C 60 24.357864 56.642136 21 52.5 21 z M 65 36 L 50 51 L 40 41 L 35 41 L 20.03125 48.5 C 20.044635 50.528745 20.114531 52.544111 20.28125 54.5 C 20.461875 56.619027 20.718 58.673794 21.0625 60.6875 C 21.407 62.701206 21.820875 64.674711 22.3125 66.5625 C 22.804125 68.450289 23.378 70.258725 24 72 C 25.7414 72.622075 27.549706 73.195833 29.4375 73.6875 C 31.325294 74.179167 33.298825 74.592981 35.3125 74.9375 C 37.326175 75.282019 39.380956 75.53812 41.5 75.71875 C 43.619044 75.89938 45.7961 76 48 76 C 50.203699 76 52.380994 75.89938 54.5 75.71875 C 56.619006 75.53812 58.673775 75.282019 60.6875 74.9375 C 62.701225 74.592981 64.674643 74.179167 66.5625 73.6875 C 68.450357 73.195833 70.258599 72.622075 72 72 C 72.621972 70.258725 73.19588 68.450242 73.6875 66.5625 C 74.17912 64.674758 74.592993 62.701169 74.9375 60.6875 C 75.282007 58.673831 75.538116 56.619055 75.71875 54.5 C 75.899384 52.380945 76 50.2039 76 48 C 76 45.870351 75.887715 43.769652 75.71875 41.71875 L 70 36 L 65 36 z "
       transform="translate(0,956.36218)"
       id="rect3767" />
  </g>
</svg>
