<?xml version="1.0" encoding="UTF-8" standalone="no"?>
<!-- Created with Inkscape (http://www.inkscape.org/) -->

<svg
   xmlns:dc="http://purl.org/dc/elements/1.1/"
   xmlns:cc="http://creativecommons.org/ns#"
   xmlns:rdf="http://www.w3.org/1999/02/22-rdf-syntax-ns#"
   xmlns:svg="http://www.w3.org/2000/svg"
   xmlns="http://www.w3.org/2000/svg"
   xmlns:xlink="http://www.w3.org/1999/xlink"
   xmlns:sodipodi="http://sodipodi.sourceforge.net/DTD/sodipodi-0.dtd"
   xmlns:inkscape="http://www.inkscape.org/namespaces/inkscape"
   width="96"
   height="96"
   id="svg2"
   version="1.1"
   inkscape:version="0.48.4 r9939"
   sodipodi:docname="emblem-web.svg">
  <defs
     id="defs4">
    <linearGradient
       id="linearGradient3782">
      <stop
         style="stop-color:#8300d1;stop-opacity:1;"
         offset="0"
         id="stop3784" />
      <stop
         id="stop3792"
         offset="0.5"
         style="stop-color:#6e00af;stop-opacity:1;" />
      <stop
         id="stop3790"
         offset="0.5"
         style="stop-color:#59008d;stop-opacity:1;" />
      <stop
         style="stop-color:#2f004a;stop-opacity:1;"
         offset="1"
         id="stop3786" />
    </linearGradient>
    <linearGradient
       inkscape:collect="always"
       xlink:href="#linearGradient3782"
       id="linearGradient3788"
       x1="15"
       y1="972.36218"
       x2="80"
       y2="1037.3622"
       gradientUnits="userSpaceOnUse" />
  </defs>
  <sodipodi:namedview
     id="base"
     pagecolor="#ffffff"
     bordercolor="#666666"
     borderopacity="1.0"
     inkscape:pageopacity="0.0"
     inkscape:pageshadow="2"
     inkscape:zoom="5.90625"
     inkscape:cx="24.820476"
     inkscape:cy="48"
     inkscape:document-units="px"
     inkscape:current-layer="layer1"
     showgrid="true"
     inkscape:snap-page="true"
     inkscape:snap-global="true"
     inkscape:snap-center="true"
     inkscape:snap-object-midpoints="true"
     showguides="true"
     inkscape:guide-bbox="true"
     inkscape:snap-bbox="true"
     inkscape:object-paths="true"
     inkscape:object-nodes="false"
     inkscape:window-width="1305"
     inkscape:window-height="744"
     inkscape:window-x="61"
     inkscape:window-y="24"
     inkscape:window-maximized="1"
     inkscape:snap-midpoints="true"
     inkscape:snap-grids="true"
     inkscape:snap-to-guides="false">
    <inkscape:grid
       type="xygrid"
       id="grid3002"
       empspacing="5"
       visible="true"
       enabled="true"
       snapvisiblegridlinesonly="true" />
  </sodipodi:namedview>
  <metadata
     id="metadata7">
    <rdf:RDF>
      <cc:Work
         rdf:about="">
        <dc:format>image/svg+xml</dc:format>
        <dc:type
           rdf:resource="http://purl.org/dc/dcmitype/StillImage" />
        <dc:title />
      </cc:Work>
    </rdf:RDF>
  </metadata>
  <g
     inkscape:label="Layer 1"
     inkscape:groupmode="layer"
     id="layer1"
     transform="translate(0,-956.36218)">
    <rect
       style="fill:#ffffff;fill-opacity:0;fill-rule:nonzero;stroke:none"
       id="rect3775"
       width="96"
       height="96"
       x="0"
       y="956.36206"
       ry="0" />
    <path
       sodipodi:nodetypes="scscscscs"
       inkscape:connector-curvature="0"
       id="path3788"
       d="m 48,960.36262 c -13.853086,0 -26.768342,2.376 -37.714286,6.2864 C 6.376,977.59382 4,990.51022 4,1004.3626 c 0,13.8516 2.376,26.7688 6.285714,37.7136 10.945944,3.9104 23.8612,6.2864 37.714286,6.2864 13.851824,0 26.768336,-2.376 37.714288,-6.2864 C 89.623824,1031.1314 92,1018.215 92,1004.3626 92,990.51102 89.623824,977.59382 85.714288,966.64902 74.768336,962.73862 61.851824,960.36262 48,960.36262 z"
       style="fill:#cccccc;fill-opacity:0.99215686;fill-rule:evenodd;stroke:none" />
    <path
       style="fill:url(#linearGradient3788);fill-opacity:1;fill-rule:evenodd;stroke:none"
       d="m 48,968.36262 c -11.334343,0 -21.901372,1.944 -30.857143,5.1432 C 13.944,982.46102 12,993.02822 12,1004.3626 c 0,11.3336 1.944,21.9016 5.142857,30.8568 8.955771,3.1992 19.5228,5.1432 30.857143,5.1432 11.333312,0 21.901368,-1.944 30.857144,-5.1432 C 82.055856,1026.2642 84,1015.697 84,1004.3626 84,993.02942 82.055856,982.46102 78.857144,973.50582 69.901368,970.30662 59.333312,968.36262 48,968.36262 z"
       id="path3776"
       inkscape:connector-curvature="0"
       sodipodi:nodetypes="scscscscs" />
    <path
       style="fill:#000000;fill-opacity:0.56621004;fill-rule:evenodd;stroke:none"
       d="m 48,968.36254 c -11.334343,0 -21.919229,1.9258 -30.875,5.125 -3.198857,8.9552 -5.125,19.5406 -5.125,30.87496 0,0.3377 -0.0034,0.6638 0,1 0.09969,-10.99435 2.010786,-21.28172 5.125,-29.99996 8.955771,-3.1992 19.540657,-5.125 30.875,-5.125 11.333312,0 21.919224,1.9258 30.875,5.125 3.114072,8.71824 5.025308,19.00666 5.125,29.99996 0.0034,-0.3362 0,-0.6623 0,-1 0,-11.33316 -1.926288,-21.91976 -5.125,-30.87496 -8.955776,-3.1992 -19.541688,-5.125 -30.875,-5.125 z"
       id="path3797"
       inkscape:connector-curvature="0" />
    <path
       style="fill:#ffffff;fill-opacity:0.90867579;fill-rule:evenodd;stroke:none"
       d="m 12,1005.1182 c -0.0034,0.336 0,0.6624 0,1 0,11.3336 1.926143,21.9196 5.125,30.8748 8.955771,3.1992 19.540657,5.1252 30.875,5.1252 11.333312,0 21.919224,-1.926 30.875,-5.1252 3.198712,-8.9552 5.125,-19.5404 5.125,-30.8748 0,-0.336 0.0034,-0.664 0,-1 -0.09968,10.9944 -2.010928,21.2816 -5.125,30 -8.955776,3.1992 -19.541688,5.1248 -30.875,5.1248 -11.334343,0 -21.919229,-1.9256 -30.875,-5.1248 -3.114214,-8.7184 -5.025314,-19.0064 -5.125,-30 z"
       id="path3802"
       inkscape:connector-curvature="0" />
    <path
       style="fill:#ffffff;fill-opacity:0.73972601;fill-rule:evenodd;stroke:none"
       d="m 47.746032,977.36218 c -14.864813,0 -26.915126,12.05001 -26.915126,26.91532 0,14.8642 12.050313,26.9154 26.915126,26.9154 14.864813,0 26.915126,-12.0512 26.915126,-26.9154 0,-14.86531 -12.050313,-26.91532 -26.915126,-26.91532 z m 0,5.38362 c 0.643519,0 1.26331,0.07 1.892468,0.1238 -1.290355,0.18303 -2.757473,-0.0539 -4.079319,0 0.72384,-0.07 1.443611,-0.1238 2.186851,-0.1238 z m -3.61672,0.33375 c -0.326805,0.0969 -0.651215,0.2207 -0.925209,0.41987 1.389516,0.78808 -3.797046,0.40374 -0.883151,0.75794 0.272113,0.0539 2.57047,0.11842 0.756988,-0.20994 0.94607,0.37143 5.219529,-1.6892 2.649456,-0.41987 -0.858826,0.19379 2.082091,1.00555 1.051373,1.76617 -1.026008,1.00825 0.42338,3.43978 1.303699,1.13583 1.897312,-0.3499 3.431353,-2.20652 4.205487,-3.32243 4.686486,1.00824 8.809634,3.55175 11.81743,7.06528 -0.193844,0 -0.391887,-0.0539 -0.546715,-0.12381 -1.138617,0.37143 -2.153907,1.11915 -2.77562,1.17728 0.997026,2.84011 -0.608007,-1.90238 -0.714942,0.58944 -1.479381,1.2322 0.660578,3.92211 0,4.20526 -2.543135,-0.83653 1.144027,5.57853 -1.135478,2.64954 -1.38924,-1.65959 -1.689052,0.33913 -3.490556,-0.12919 -1.139154,1.84158 2.49732,0.29607 1.093432,2.64958 0.915612,1.2204 1.482094,6.3385 3.658772,3.6589 1.662049,-0.4737 0.820492,-3.1201 -0.420526,-2.1032 -1.79392,-2.7266 1.572168,0.6869 2.691508,-0.054 1.732094,0.2584 1.005811,4.4357 2.649456,3.7004 -0.09103,-2.1462 2.030904,-4.1735 2.775625,-1.4718 0.453523,0.4522 0.732006,2.1544 1.051373,3.07 -1.811215,10.0594 -10.614717,17.7055 -21.195666,17.7055 -11.891851,0 -21.532097,-9.6406 -21.532097,-21.5323 0,-3.7375 0.974714,-7.24025 2.649462,-10.30321 2.127831,0.27991 1.025421,3.12433 0.672878,5.1306 0.02099,1.13311 1.58876,5.82711 0.883147,2.43911 0.347908,-0.6638 0.938141,3.9791 2.649462,3.5743 1.171684,0.1669 3.438582,3.6325 2.060688,0.9253 0.486468,-1.2434 -1.589545,-0.9017 -0.462621,-2.3975 -1.940506,2.1505 -2.450972,-2.0564 -0.294401,-2.1867 1.002312,-0.7606 1.277382,0.3015 1.808363,1.0513 0.364003,-2.2802 2.133876,-4.39199 3.995208,-4.79411 1.796481,-0.37143 -1.828323,-1.33176 0.546709,-1.42974 1.569935,-1.14067 -0.189592,1.70051 1.429873,0.58837 -0.345646,-0.94796 -0.237177,-3.16094 -1.38781,-3.06889 -1.327691,-2.22106 -2.282228,4.24186 -3.154119,1.05023 -1.856853,-1.87599 2.029574,-1.44857 2.060689,-2.5225 0.928633,-0.80638 1.190014,-0.60075 1.471926,-0.16687 -1.507766,0.56575 -0.397379,0.87528 0.46262,1.38775 -0.654237,-1.20796 1.870913,-0.67073 0.462621,-2.01865 -1.185222,-1.35169 -2.438299,-0.60829 -2.901793,0.6309 -0.0436,-1.18805 0.748328,-1.97506 -0.630819,-0.75687 -0.977702,0.7671 -2.282311,0.7967 -0.799048,-0.12381 -0.0047,-0.53292 -1.623363,-0.39296 -2.060683,-0.58944 -1.233956,0.69765 0.660982,0.62444 0.462621,1.2198 1.217581,0.39835 -1.664817,-0.4145 -2.355077,-0.33375 -1.064912,0.11843 -2.197925,-0.19379 -3.280271,-0.17226 3.237384,-4.32907 8.073411,-7.38233 13.625774,-8.32653 z m 9.210022,7.61166 c -1.045102,0.16149 -2.840782,1.53955 -2.607409,2.69153 0.970438,0.18841 0.907446,0.78216 0.210263,0.63036 -0.132801,1.51372 -2.433176,1.59339 -2.060688,2.90201 -2.276018,0.7434 0.111697,3.59319 0.841098,1.00933 0.771244,-1.93198 2.927896,0.57598 2.270956,0.84191 1.640546,-0.30146 -1.381063,-2.7389 0.336444,-1.43028 0.538613,1.17296 1.439029,2.35617 1.303704,0.63089 0.977861,0.0808 0.770026,-2.25227 2.018635,-0.96733 1.046173,0.0539 2.524096,1.8846 1.976578,-0.63089 0.05862,-1.62893 2.886042,-0.6309 0.925199,-2.18662 0.07962,-1.4405 0.141791,-4.30107 -0.925199,-2.98598 -0.396355,-0.0646 -1.43053,0.253 -2.102741,0.506 -0.492497,-0.83652 -1.469841,-0.71325 -2.186856,-1.00932 z m -1.556037,9.29441 c -2.484481,-0.23687 -4.655054,2.16768 -4.794259,5.25648 -0.468489,3.1152 2.639686,3.2063 4.289597,3.0695 1.245497,2.27 0.851521,5.1085 1.135489,7.7387 0.110568,2.7464 2.381373,3.1 3.364393,0.6304 0.71696,-2.1086 1.799032,-3.7445 1.556025,-6.3499 0.936649,-0.9319 3.285999,-4.1816 0.714936,-3.6163 -1.44888,-1.643 -1.804314,-7.02765 -4.541924,-4.9627 -1.091326,-0.4252 -1.314055,-1.0416 -1.724257,-1.76618 z m -14.508926,5.92948 c -1.755647,0.555 -0.868004,2.2242 -1.808363,3.6588 0.13926,3.0264 3.169881,4.8943 2.228904,8.453 0.492659,2.0015 -0.02853,2.74 1.093431,4.5417 0.598963,1.0998 2.359906,0.7547 0.925204,-0.2099 -0.450024,-1.8045 -0.219575,-2.8385 0.799048,-3.9114 -0.307158,-0.4252 1.307101,-1.3543 1.177531,-2.6075 2.06726,-1.2538 3.119344,-6.4947 -0.126126,-6.4763 -0.88881,-1.9697 -2.647927,-2.9269 -4.289592,-3.4479 z m 31.667322,0.253 c 0.05114,-0.054 0.117728,0.054 0.210209,0.081 -0.03607,0.4037 -0.06853,0.7875 -0.126126,1.1778 -0.189,-0.5835 -0.269153,-1.1449 -0.08408,-1.2623 z m -9.630568,6.1818 c -1.30055,0.5169 -1.508438,5.0548 -0.168221,2.2712 0.156648,-0.6384 0.671597,-1.8674 0.168221,-2.2712 z"
       id="path3002"
       inkscape:connector-curvature="0" />
  </g>
</svg>
