<?xml version="1.0" encoding="UTF-8" standalone="no"?>
<!-- Created with Inkscape (http://www.inkscape.org/) -->

<svg
   xmlns:dc="http://purl.org/dc/elements/1.1/"
   xmlns:cc="http://creativecommons.org/ns#"
   xmlns:rdf="http://www.w3.org/1999/02/22-rdf-syntax-ns#"
   xmlns:svg="http://www.w3.org/2000/svg"
   xmlns="http://www.w3.org/2000/svg"
   xmlns:xlink="http://www.w3.org/1999/xlink"
   xmlns:sodipodi="http://sodipodi.sourceforge.net/DTD/sodipodi-0.dtd"
   xmlns:inkscape="http://www.inkscape.org/namespaces/inkscape"
   width="96"
   height="96"
   id="svg2"
   version="1.1"
   inkscape:version="0.48.4 r9939"
   sodipodi:docname="emblem-ubuntuone-syncronized.svg">
  <defs
     id="defs4">
    <linearGradient
       id="linearGradient3787">
      <stop
         style="stop-color:#ff8300;stop-opacity:1;"
         offset="0"
         id="stop3789" />
      <stop
         id="stop3797"
         offset="0.5"
         style="stop-color:#e77200;stop-opacity:1;" />
      <stop
         id="stop3795"
         offset="0.5"
         style="stop-color:#cf6100;stop-opacity:1;" />
      <stop
         style="stop-color:#9f3f00;stop-opacity:1;"
         offset="1"
         id="stop3791" />
    </linearGradient>
    <linearGradient
       inkscape:collect="always"
       xlink:href="#linearGradient3787"
       id="linearGradient3793"
       x1="15"
       y1="972.36218"
       x2="80"
       y2="1037.3622"
       gradientUnits="userSpaceOnUse" />
  </defs>
  <sodipodi:namedview
     id="base"
     pagecolor="#ffffff"
     bordercolor="#666666"
     borderopacity="1.0"
     inkscape:pageopacity="0.0"
     inkscape:pageshadow="2"
     inkscape:zoom="5.90625"
     inkscape:cx="17.862434"
     inkscape:cy="48"
     inkscape:document-units="px"
     inkscape:current-layer="layer1"
     showgrid="true"
     inkscape:snap-page="true"
     inkscape:snap-global="true"
     inkscape:snap-center="false"
     inkscape:snap-object-midpoints="false"
     showguides="true"
     inkscape:guide-bbox="true"
     inkscape:snap-bbox="true"
     inkscape:object-paths="true"
     inkscape:object-nodes="true"
     inkscape:window-width="1305"
     inkscape:window-height="744"
     inkscape:window-x="61"
     inkscape:window-y="24"
     inkscape:window-maximized="1"
     inkscape:snap-midpoints="false"
     inkscape:snap-grids="true"
     inkscape:snap-to-guides="false">
    <inkscape:grid
       type="xygrid"
       id="grid3002"
       empspacing="5"
       visible="true"
       enabled="true"
       snapvisiblegridlinesonly="true" />
  </sodipodi:namedview>
  <metadata
     id="metadata7">
    <rdf:RDF>
      <cc:Work
         rdf:about="">
        <dc:format>image/svg+xml</dc:format>
        <dc:type
           rdf:resource="http://purl.org/dc/dcmitype/StillImage" />
        <dc:title />
      </cc:Work>
    </rdf:RDF>
  </metadata>
  <g
     inkscape:label="Layer 1"
     inkscape:groupmode="layer"
     id="layer1"
     transform="translate(0,-956.36218)">
    <rect
       style="fill:#ffffff;fill-opacity:0;fill-rule:nonzero;stroke:none"
       id="rect3775"
       width="96"
       height="96"
       x="0"
       y="956.36206"
       ry="0" />
    <path
       sodipodi:nodetypes="scscscscs"
       inkscape:connector-curvature="0"
       id="path3788"
       d="m 48,960.36262 c -13.853086,0 -26.768342,2.376 -37.714286,6.2864 C 6.376,977.59382 4,990.51022 4,1004.3626 c 0,13.8516 2.376,26.7688 6.285714,37.7136 10.945944,3.9104 23.8612,6.2864 37.714286,6.2864 13.851824,0 26.768336,-2.376 37.714288,-6.2864 C 89.623824,1031.1314 92,1018.215 92,1004.3626 92,990.51102 89.623824,977.59382 85.714288,966.64902 74.768336,962.73862 61.851824,960.36262 48,960.36262 z"
       style="fill:#cccccc;fill-opacity:0.99215686;fill-rule:evenodd;stroke:none" />
    <path
       style="fill:url(#linearGradient3793);fill-opacity:1;fill-rule:evenodd;stroke:none"
       d="m 48,968.36262 c -11.334343,0 -21.901372,1.944 -30.857143,5.1432 C 13.944,982.46102 12,993.02822 12,1004.3626 c 0,11.3336 1.944,21.9016 5.142857,30.8568 8.955771,3.1992 19.5228,5.1432 30.857143,5.1432 11.333312,0 21.901368,-1.944 30.857144,-5.1432 C 82.055856,1026.2642 84,1015.697 84,1004.3626 84,993.02942 82.055856,982.46102 78.857144,973.50582 69.901368,970.30662 59.333312,968.36262 48,968.36262 z"
       id="path3776"
       inkscape:connector-curvature="0"
       sodipodi:nodetypes="scscscscs" />
    <path
       style="fill:#000000;fill-opacity:0.56621004;fill-rule:evenodd;stroke:none"
       d="m 48,968.36254 c -11.334343,0 -21.919229,1.9258 -30.875,5.125 -3.198857,8.9552 -5.125,19.5406 -5.125,30.87496 0,0.3377 -0.0034,0.6638 0,1 0.09969,-10.99435 2.010786,-21.28172 5.125,-29.99996 8.955771,-3.1992 19.540657,-5.125 30.875,-5.125 11.333312,0 21.919224,1.9258 30.875,5.125 3.114072,8.71824 5.025308,19.00666 5.125,29.99996 0.0034,-0.3362 0,-0.6623 0,-1 0,-11.33316 -1.926288,-21.91976 -5.125,-30.87496 -8.955776,-3.1992 -19.541688,-5.125 -30.875,-5.125 z"
       id="path3797"
       inkscape:connector-curvature="0" />
    <path
       style="fill:#ffffff;fill-opacity:0.90867579;fill-rule:evenodd;stroke:none"
       d="m 12,1005.1182 c -0.0034,0.336 0,0.6624 0,1 0,11.3336 1.926143,21.9196 5.125,30.8748 8.955771,3.1992 19.540657,5.1252 30.875,5.1252 11.333312,0 21.919224,-1.926 30.875,-5.1252 3.198712,-8.9552 5.125,-19.5404 5.125,-30.8748 0,-0.336 0.0034,-0.664 0,-1 -0.09968,10.9944 -2.010928,21.2816 -5.125,30 -8.955776,3.1992 -19.541688,5.1248 -30.875,5.1248 -11.334343,0 -21.919229,-1.9256 -30.875,-5.1248 -3.114214,-8.7184 -5.025314,-19.0064 -5.125,-30 z"
       id="path3802"
       inkscape:connector-curvature="0" />
    <path
       style="fill:#000000;fill-opacity:0.69444442;stroke:none"
       d="M 53.34375 25.96875 L 53.34375 28 L 65 28.03125 L 65 26 L 53.34375 25.96875 z M 30 26 L 30 28.03125 L 43.4375 28.03125 L 45 26 L 30 26 z M 38.84375 36.0625 L 37.28125 38.09375 L 41.65625 38.09375 L 41.65625 36.0625 L 38.84375 36.0625 z M 41.65625 60.09375 L 41.65625 62.125 L 53.34375 62.125 L 53.34375 60.09375 L 41.65625 60.09375 z "
       transform="translate(0,956.36218)"
       id="path3805" />
    <path
       style="fill:#ffffff;fill-opacity:1;stroke:none"
       d="m 43.4375,983.03942 -6.15625,8.03125 1.5625,0 6.15625,-8.03125 -1.5625,0 z M 30,995.72692 l 0,2.03125 c 0,12.23173 0.394146,15.15263 0.84375,17.15623 1.690256,7.5326 6.234611,11.8642 13.5625,12.9062 3.966742,0.5643 11.980558,-0.1017 18.28125,-1.5 l 2.3125,-0.5 0,-2.0312 -2.3125,0.5 c -6.300692,1.3983 -14.314508,2.0643 -18.28125,1.5 -7.327889,-1.042 -11.872244,-5.3737 -13.5625,-12.9063 C 30.394146,1010.8795 30,1007.9588 30,995.72692 z"
       id="path3810"
       inkscape:connector-curvature="0" />
    <path
       style="fill:#5bbf21;fill-opacity:1;fill-rule:evenodd;stroke:none"
       d="m 45,26 -7.71875,10.0625 4.375,0 0,24.03125 11.6875,0 0,-34.09375 z"
       transform="translate(0,956.36218)"
       id="rect2999"
       inkscape:connector-curvature="0"
       sodipodi:nodetypes="ccccccc" />
    <path
       style="fill:#ffffff;fill-opacity:0.6574074;stroke:none"
       id="path3865-0"
       inkscape:connector-curvature="0"
       d="m 30,982.36218 0,14.71025 c 0,12.23177 0.403822,15.15987 0.853426,17.16347 1.690256,7.5326 6.237457,11.8505 13.565346,12.8925 3.966742,0.5643 11.978298,-0.091 18.27899,-1.4893 L 65,1025.1359 l 0,-42.77372 -11.666655,-0.0317 0,34.13692 -11.666671,0 0,-24.05106 -4.375006,0 L 45,982.36218 z"
       sodipodi:nodetypes="cssccccccccccc" />
  </g>
</svg>
