<?xml version="1.0" encoding="UTF-8" standalone="no"?>
<!-- Created with Inkscape (http://www.inkscape.org/) -->

<svg
   xmlns:dc="http://purl.org/dc/elements/1.1/"
   xmlns:cc="http://creativecommons.org/ns#"
   xmlns:rdf="http://www.w3.org/1999/02/22-rdf-syntax-ns#"
   xmlns:svg="http://www.w3.org/2000/svg"
   xmlns="http://www.w3.org/2000/svg"
   xmlns:xlink="http://www.w3.org/1999/xlink"
   xmlns:sodipodi="http://sodipodi.sourceforge.net/DTD/sodipodi-0.dtd"
   xmlns:inkscape="http://www.inkscape.org/namespaces/inkscape"
   width="96"
   height="96"
   id="svg2"
   version="1.1"
   inkscape:version="0.48.4 r9939"
   sodipodi:docname="emblem-package.svg">
  <defs
     id="defs4">
    <linearGradient
       id="linearGradient3789">
      <stop
         style="stop-color:#ff036b;stop-opacity:1;"
         offset="0"
         id="stop3791" />
      <stop
         id="stop3799"
         offset="0.5"
         style="stop-color:#dd025d;stop-opacity:1;" />
      <stop
         id="stop3797"
         offset="0.5"
         style="stop-color:#bb024f;stop-opacity:1;" />
      <stop
         style="stop-color:#780133;stop-opacity:1;"
         offset="1"
         id="stop3793" />
    </linearGradient>
    <linearGradient
       inkscape:collect="always"
       xlink:href="#linearGradient3789"
       id="linearGradient3795"
       x1="4"
       y1="1032.3622"
       x2="20"
       y2="1048.3622"
       gradientUnits="userSpaceOnUse"
       gradientTransform="matrix(4,0,0,4,0,-3157.0862)" />
  </defs>
  <sodipodi:namedview
     id="base"
     pagecolor="#ffffff"
     bordercolor="#666666"
     borderopacity="1.0"
     inkscape:pageopacity="0.0"
     inkscape:pageshadow="2"
     inkscape:zoom="5.90625"
     inkscape:cx="48"
     inkscape:cy="48"
     inkscape:document-units="px"
     inkscape:current-layer="layer1"
     showgrid="true"
     inkscape:snap-page="true"
     inkscape:snap-global="true"
     inkscape:snap-center="true"
     inkscape:snap-object-midpoints="true"
     showguides="true"
     inkscape:guide-bbox="true"
     inkscape:snap-bbox="true"
     inkscape:object-paths="true"
     inkscape:object-nodes="true"
     inkscape:window-width="1305"
     inkscape:window-height="744"
     inkscape:window-x="61"
     inkscape:window-y="24"
     inkscape:window-maximized="1"
     inkscape:snap-midpoints="false"
     inkscape:snap-grids="true"
     inkscape:snap-to-guides="false">
    <inkscape:grid
       type="xygrid"
       id="grid3002"
       empspacing="5"
       visible="true"
       enabled="true"
       snapvisiblegridlinesonly="true" />
  </sodipodi:namedview>
  <metadata
     id="metadata7">
    <rdf:RDF>
      <cc:Work
         rdf:about="">
        <dc:format>image/svg+xml</dc:format>
        <dc:type
           rdf:resource="http://purl.org/dc/dcmitype/StillImage" />
        <dc:title />
      </cc:Work>
    </rdf:RDF>
  </metadata>
  <g
     inkscape:label="Layer 1"
     inkscape:groupmode="layer"
     id="layer1"
     transform="translate(0,-956.36218)">
    <rect
       style="fill:#ffffff;fill-opacity:0;fill-rule:nonzero;stroke:none"
       id="rect3775"
       width="96"
       height="96"
       x="0"
       y="956.36206"
       ry="0" />
    <path
       sodipodi:nodetypes="scscscscs"
       inkscape:connector-curvature="0"
       id="path3788"
       d="m 48,960.36262 c -13.853086,0 -26.768342,2.376 -37.714286,6.2864 C 6.376,977.59382 4,990.51022 4,1004.3626 c 0,13.8516 2.376,26.7688 6.285714,37.7136 10.945944,3.9104 23.8612,6.2864 37.714286,6.2864 13.851824,0 26.768336,-2.376 37.714288,-6.2864 C 89.623824,1031.1314 92,1018.215 92,1004.3626 92,990.51102 89.623824,977.59382 85.714288,966.64902 74.768336,962.73862 61.851824,960.36262 48,960.36262 z"
       style="fill:#cccccc;fill-opacity:0.99215686;fill-rule:evenodd;stroke:none" />
    <path
       style="fill:url(#linearGradient3795);fill-opacity:1;fill-rule:evenodd;stroke:none"
       d="m 48,968.36262 c -11.334343,0 -21.901372,1.944 -30.857143,5.1432 C 13.944,982.46102 12,993.02822 12,1004.3626 c 0,11.3336 1.944,21.9016 5.142857,30.8568 8.955771,3.1992 19.5228,5.1432 30.857143,5.1432 11.333312,0 21.901368,-1.944 30.857144,-5.1432 C 82.055856,1026.2642 84,1015.697 84,1004.3626 84,993.02942 82.055856,982.46102 78.857144,973.50582 69.901368,970.30662 59.333312,968.36262 48,968.36262 z"
       id="path3776"
       inkscape:connector-curvature="0"
       sodipodi:nodetypes="scscscscs" />
    <path
       style="fill:#000000;fill-opacity:0.56621004;fill-rule:evenodd;stroke:none"
       d="m 48,968.36262 c -11.334343,0 -21.919229,1.9256 -30.875,5.1248 -3.198857,8.9552 -5.125,19.5408 -5.125,30.87518 0,0.336 -0.0034,0.6636 0,1 0.09969,-10.99438 2.010786,-21.28198 5.125,-29.99998 8.955771,-3.1992 19.540657,-5.1252 30.875,-5.1252 11.333312,0 21.919224,1.926 30.875,5.1252 3.114072,8.718 5.025308,19.0064 5.125,29.99998 0.0034,-0.336 0,-0.6624 0,-1 0,-11.33318 -1.926288,-21.91998 -5.125,-30.87518 -8.955776,-3.1992 -19.541688,-5.1248 -30.875,-5.1248 z"
       id="path3797"
       inkscape:connector-curvature="0" />
    <path
       style="fill:#ffffff;fill-opacity:0.90867579;fill-rule:evenodd;stroke:none"
       d="m 12,1005.1182 c -0.0034,0.336 0,0.6624 0,1 0,11.3336 1.926143,21.9196 5.125,30.8748 8.955771,3.1992 19.540657,5.1252 30.875,5.1252 11.333312,0 21.919224,-1.926 30.875,-5.1252 3.198712,-8.9552 5.125,-19.5404 5.125,-30.8748 0,-0.336 0.0034,-0.664 0,-1 -0.09968,10.9944 -2.010928,21.2816 -5.125,30 -8.955776,3.1992 -19.541688,5.1248 -30.875,5.1248 -11.334343,0 -21.919229,-1.9256 -30.875,-5.1248 -3.114214,-8.7184 -5.025314,-19.0064 -5.125,-30 z"
       id="path3802"
       inkscape:connector-curvature="0" />
    <rect
       style="fill:#fbfbfb;fill-opacity:0.90740746;fill-rule:evenodd;stroke:none"
       id="rect2995"
       width="4"
       height="16.00001"
       x="20"
       y="1008.3625" />
    <rect
       style="fill:#fbfbfb;fill-opacity:0.90740746;fill-rule:evenodd;stroke:none"
       id="rect2997"
       width="4"
       height="8"
       x="24"
       y="1008.3625" />
    <rect
       style="fill:#fbfbfb;fill-opacity:0.90740746;fill-rule:evenodd;stroke:none"
       id="rect2999"
       width="4"
       height="8"
       x="28"
       y="1016.3625" />
    <rect
       y="1008.3625"
       x="32"
       height="8"
       width="4"
       id="rect3001"
       style="fill:#fbfbfb;fill-opacity:0.90740746;fill-rule:evenodd;stroke:none" />
    <rect
       y="1016.3625"
       x="36"
       height="8"
       width="4"
       id="rect3003"
       style="fill:#fbfbfb;fill-opacity:0.90740746;fill-rule:evenodd;stroke:none" />
    <rect
       style="fill:#fbfbfb;fill-opacity:0.90740746;fill-rule:evenodd;stroke:none"
       id="rect3005"
       width="4"
       height="8"
       x="40"
       y="1008.3625" />
    <rect
       style="fill:#fbfbfb;fill-opacity:0.90740746;fill-rule:evenodd;stroke:none"
       id="rect3007"
       width="4"
       height="8"
       x="44"
       y="1016.3625" />
    <rect
       y="1008.3625"
       x="48"
       height="8"
       width="4"
       id="rect3009"
       style="fill:#fbfbfb;fill-opacity:0.90740746;fill-rule:evenodd;stroke:none" />
    <rect
       y="1016.3625"
       x="52"
       height="8"
       width="4"
       id="rect3011"
       style="fill:#fbfbfb;fill-opacity:0.90740746;fill-rule:evenodd;stroke:none" />
    <rect
       style="fill:#fbfbfb;fill-opacity:0.90740746;fill-rule:evenodd;stroke:none"
       id="rect3013"
       width="4"
       height="8"
       x="56"
       y="1008.3625" />
    <rect
       style="fill:#fbfbfb;fill-opacity:0.90740746;fill-rule:evenodd;stroke:none"
       id="rect3015"
       width="4"
       height="8"
       x="60"
       y="1016.3625" />
    <rect
       y="1008.3625"
       x="64"
       height="8"
       width="4"
       id="rect3017"
       style="fill:#fbfbfb;fill-opacity:0.90740746;fill-rule:evenodd;stroke:none" />
    <rect
       y="1008.3625"
       x="68"
       height="16.00001"
       width="8"
       id="rect3019"
       style="fill:#fbfbfb;fill-opacity:0.90740746;fill-rule:evenodd;stroke:none" />
  </g>
</svg>
