<?xml version="1.0" encoding="UTF-8" standalone="no"?>
<!-- Created with Inkscape (http://www.inkscape.org/) -->

<svg
   xmlns:dc="http://purl.org/dc/elements/1.1/"
   xmlns:cc="http://creativecommons.org/ns#"
   xmlns:rdf="http://www.w3.org/1999/02/22-rdf-syntax-ns#"
   xmlns:svg="http://www.w3.org/2000/svg"
   xmlns="http://www.w3.org/2000/svg"
   xmlns:xlink="http://www.w3.org/1999/xlink"
   xmlns:sodipodi="http://sodipodi.sourceforge.net/DTD/sodipodi-0.dtd"
   xmlns:inkscape="http://www.inkscape.org/namespaces/inkscape"
   width="96"
   height="96"
   id="svg2"
   version="1.1"
   inkscape:version="0.48.4 r9939"
   sodipodi:docname="emblem-people.svg">
  <defs
     id="defs4">
    <linearGradient
       id="linearGradient3767">
      <stop
         style="stop-color:#ff6000;stop-opacity:1;"
         offset="0"
         id="stop3769" />
      <stop
         id="stop3779"
         offset="0.51318491"
         style="stop-color:#e05302;stop-opacity:1;" />
      <stop
         id="stop3776"
         offset="0.51318491"
         style="stop-color:#c24605;stop-opacity:1;" />
      <stop
         style="stop-color:#852c0b;stop-opacity:1;"
         offset="1"
         id="stop3772" />
    </linearGradient>
    <linearGradient
       inkscape:collect="always"
       xlink:href="#linearGradient3767"
       id="linearGradient3774"
       x1="15"
       y1="972.36218"
       x2="80"
       y2="1037.3622"
       gradientUnits="userSpaceOnUse" />
  </defs>
  <sodipodi:namedview
     id="base"
     pagecolor="#ffffff"
     bordercolor="#666666"
     borderopacity="1.0"
     inkscape:pageopacity="0.0"
     inkscape:pageshadow="2"
     inkscape:zoom="5.90625"
     inkscape:cx="47.318137"
     inkscape:cy="56.525133"
     inkscape:document-units="px"
     inkscape:current-layer="layer1"
     showgrid="true"
     inkscape:snap-page="false"
     inkscape:snap-global="true"
     inkscape:snap-center="true"
     inkscape:snap-object-midpoints="true"
     showguides="true"
     inkscape:guide-bbox="true"
     inkscape:snap-bbox="true"
     inkscape:object-paths="true"
     inkscape:object-nodes="false"
     inkscape:window-width="1305"
     inkscape:window-height="744"
     inkscape:window-x="61"
     inkscape:window-y="24"
     inkscape:window-maximized="1"
     inkscape:snap-midpoints="false"
     inkscape:snap-grids="true"
     inkscape:snap-to-guides="false">
    <inkscape:grid
       type="xygrid"
       id="grid3002"
       empspacing="5"
       visible="true"
       enabled="true"
       snapvisiblegridlinesonly="true" />
    <sodipodi:guide
       orientation="0,1"
       position="0,24.000119"
       id="guide3765" />
    <sodipodi:guide
       orientation="0,1"
       position="4.3680784,0.00011945312"
       id="guide3767" />
    <sodipodi:guide
       orientation="1,0"
       position="24,20.131144"
       id="guide3769" />
  </sodipodi:namedview>
  <metadata
     id="metadata7">
    <rdf:RDF>
      <cc:Work
         rdf:about="">
        <dc:format>image/svg+xml</dc:format>
        <dc:type
           rdf:resource="http://purl.org/dc/dcmitype/StillImage" />
        <dc:title />
      </cc:Work>
    </rdf:RDF>
  </metadata>
  <g
     inkscape:label="Layer 1"
     inkscape:groupmode="layer"
     id="layer1"
     transform="translate(0,-956.36218)">
    <rect
       style="fill:#ffffff;fill-opacity:0;fill-rule:nonzero;stroke:none"
       id="rect3775"
       width="96"
       height="96"
       x="0"
       y="956.36206"
       ry="0" />
    <path
       sodipodi:nodetypes="scscscscs"
       inkscape:connector-curvature="0"
       id="path3788"
       d="m 48,960.36262 c -13.853086,0 -26.768342,2.376 -37.714286,6.2864 C 6.376,977.59382 4,990.51022 4,1004.3626 c 0,13.8516 2.376,26.7688 6.285714,37.7136 10.945944,3.9104 23.8612,6.2864 37.714286,6.2864 13.851824,0 26.768336,-2.376 37.714288,-6.2864 C 89.623824,1031.1314 92,1018.215 92,1004.3626 92,990.51102 89.623824,977.59382 85.714288,966.64902 74.768336,962.73862 61.851824,960.36262 48,960.36262 z"
       style="fill:#cccccc;fill-opacity:0.99215686;fill-rule:evenodd;stroke:none" />
    <path
       style="fill:url(#linearGradient3774);fill-opacity:1;fill-rule:evenodd;stroke:none"
       d="m 48,968.36262 c -11.334343,0 -21.901372,1.944 -30.857143,5.1432 C 13.944,982.46102 12,993.02822 12,1004.3626 c 0,11.3336 1.944,21.9016 5.142857,30.8568 8.955771,3.1992 19.5228,5.1432 30.857143,5.1432 11.333312,0 21.901368,-1.944 30.857144,-5.1432 C 82.055856,1026.2642 84,1015.697 84,1004.3626 84,993.02942 82.055856,982.46102 78.857144,973.50582 69.901368,970.30662 59.333312,968.36262 48,968.36262 z"
       id="path3776"
       inkscape:connector-curvature="0"
       sodipodi:nodetypes="scscscscs" />
    <path
       style="fill:#000000;fill-opacity:0.56621004;fill-rule:evenodd;stroke:none"
       d="m 48,968.36254 c -11.334343,0 -21.919229,1.9258 -30.875,5.125 -3.198857,8.9552 -5.125,19.5406 -5.125,30.87496 0,0.3377 -0.0034,0.6638 0,1 0.09969,-10.99435 2.010786,-21.28172 5.125,-29.99996 8.955771,-3.1992 19.540657,-5.125 30.875,-5.125 11.333312,0 21.919224,1.9258 30.875,5.125 3.114072,8.71824 5.025308,19.00666 5.125,29.99996 0.0034,-0.3362 0,-0.6623 0,-1 0,-11.33316 -1.926288,-21.91976 -5.125,-30.87496 -8.955776,-3.1992 -19.541688,-5.125 -30.875,-5.125 z"
       id="path3797"
       inkscape:connector-curvature="0" />
    <path
       style="fill:#ffffff;fill-opacity:0.90867579;fill-rule:evenodd;stroke:none"
       d="m 12,1005.1182 c -0.0034,0.336 0,0.6624 0,1 0,11.3336 1.926143,21.9196 5.125,30.8748 8.955771,3.1992 19.540657,5.1252 30.875,5.1252 11.333312,0 21.919224,-1.926 30.875,-5.1252 3.198712,-8.9552 5.125,-19.5404 5.125,-30.8748 0,-0.336 0.0034,-0.664 0,-1 -0.09968,10.9944 -2.010928,21.2816 -5.125,30 -8.955776,3.1992 -19.541688,5.1248 -30.875,5.1248 -11.334343,0 -21.919229,-1.9256 -30.875,-5.1248 -3.114214,-8.7184 -5.025314,-19.0064 -5.125,-30 z"
       id="path3802"
       inkscape:connector-curvature="0" />
    <path
       style="fill:#f1f1f1;fill-opacity:0.58796297;fill-rule:nonzero;stroke:none"
       d="M 35.78125 31 C 25.197531 31 25.1875 35.6551 25.1875 44.03125 C 25.1875 55.19905 33.13532 60.78125 35.78125 60.78125 C 38.42718 60.78125 46.34375 55.19905 46.34375 44.03125 C 46.34375 35.6551 46.365035 31 35.78125 31 z M 63.3125 46 C 55.919594 46 55.9375 49.24285 55.9375 55.09375 C 55.9375 62.89465 61.464273 66.8125 63.3125 66.8125 C 65.160726 66.8125 70.71875 62.89465 70.71875 55.09375 C 70.71875 49.24285 70.705444 46 63.3125 46 z M 30.46875 52.15625 L 41.0625 52.15625 C 37.534594 58.03615 33.996658 58.03615 30.46875 52.15625 z M 59.625 60.78125 L 67.03125 60.78125 C 64.566949 64.88845 62.089303 64.88845 59.625 60.78125 z "
       transform="translate(0,956.36218)"
       id="path3789" />
    <path
       style="fill:#f1f1f1;fill-opacity:0.58796297;fill-rule:nonzero;stroke:none"
       d="M 17.4375 63.46875 C 17.795941 65.41942 18.175958 67.343236 18.65625 69.1875 C 19.218115 71.344995 19.851633 73.44745 20.5625 75.4375 C 22.552699 76.14845 24.654992 76.781841 26.8125 77.34375 C 28.970008 77.905659 31.198626 78.387513 33.5 78.78125 C 35.801374 79.174987 38.171952 79.481066 40.59375 79.6875 C 43.015548 79.893934 45.481223 80 48 80 C 50.518548 80 52.984496 79.893934 55.40625 79.6875 C 57.828004 79.481066 60.198568 79.174988 62.5 78.78125 C 64.801432 78.387512 67.02992 77.905659 69.1875 77.34375 C 71.204732 76.818392 73.159662 76.218683 75.03125 75.5625 L 75.75 72.8125 C 77.111489 65.6914 75.118086 63.3554 71.71875 61.375 C 71.086977 62.9567 70.275608 64.2891 69.375 65.375 C 68.412365 66.536 67.370193 67.4401 66.375 68.0625 C 65.37981 68.6848 64.508799 69.09375 63.3125 69.09375 C 62.116202 69.09375 61.245191 68.6848 60.25 68.0625 C 59.254808 67.4401 58.212635 66.536 57.25 65.375 C 56.349391 64.2891 55.538021 62.9567 54.90625 61.375 C 54.612595 61.546079 54.365009 61.726986 54.09375 61.90625 C 53.627652 57.229913 51.225173 54.988205 47.8125 53 C 46.908051 55.2644 45.726815 57.1953 44.4375 58.75 C 43.059387 60.4121 41.580972 61.6715 40.15625 62.5625 C 38.731531 63.4534 37.493878 64.09375 35.78125 64.09375 C 34.068625 64.09375 32.83097 63.4534 31.40625 62.5625 C 29.981529 61.6715 28.471864 60.4121 27.09375 58.75 C 25.804435 57.1953 24.623197 55.2644 23.71875 53 C 19.962892 55.188143 17.507237 57.758821 17.4375 63.46875 z "
       id="path3939"
       transform="translate(0,956.36218)" />
  </g>
</svg>
