<?xml version="1.0" encoding="UTF-8" standalone="no"?>
<!-- Created with Inkscape (http://www.inkscape.org/) -->

<svg
   xmlns:dc="http://purl.org/dc/elements/1.1/"
   xmlns:cc="http://creativecommons.org/ns#"
   xmlns:rdf="http://www.w3.org/1999/02/22-rdf-syntax-ns#"
   xmlns:svg="http://www.w3.org/2000/svg"
   xmlns="http://www.w3.org/2000/svg"
   xmlns:xlink="http://www.w3.org/1999/xlink"
   xmlns:sodipodi="http://sodipodi.sourceforge.net/DTD/sodipodi-0.dtd"
   xmlns:inkscape="http://www.inkscape.org/namespaces/inkscape"
   width="96"
   height="96"
   id="svg2"
   version="1.1"
   inkscape:version="0.48.4 r9939"
   sodipodi:docname="audio-headset.svg">
  <defs
     id="defs4">
    <linearGradient
       id="linearGradient3765">
      <stop
         style="stop-color:#232323;stop-opacity:0.25384617;"
         offset="0"
         id="stop3767" />
      <stop
         style="stop-color:#232323;stop-opacity:0.56153846;"
         offset="1"
         id="stop3769" />
    </linearGradient>
    <radialGradient
       inkscape:collect="always"
       xlink:href="#linearGradient3765"
       id="radialGradient3771"
       cx="50"
       cy="1007.7636"
       fx="50"
       fy="1007.7636"
       r="32.000142"
       gradientTransform="matrix(1,0,0,0.96771789,0,32.131326)"
       gradientUnits="userSpaceOnUse" />
  </defs>
  <sodipodi:namedview
     id="base"
     pagecolor="#ffffff"
     bordercolor="#666666"
     borderopacity="1.0"
     inkscape:pageopacity="0.0"
     inkscape:pageshadow="2"
     inkscape:zoom="4.6826668"
     inkscape:cx="17.369989"
     inkscape:cy="44.767285"
     inkscape:document-units="px"
     inkscape:current-layer="layer1"
     showgrid="true"
     inkscape:snap-page="true"
     inkscape:snap-global="true"
     inkscape:snap-center="true"
     inkscape:snap-object-midpoints="false"
     showguides="true"
     inkscape:guide-bbox="true"
     inkscape:snap-bbox="true"
     inkscape:object-paths="true"
     inkscape:object-nodes="true"
     inkscape:window-width="1305"
     inkscape:window-height="744"
     inkscape:window-x="61"
     inkscape:window-y="24"
     inkscape:window-maximized="1"
     inkscape:snap-midpoints="true"
     inkscape:snap-grids="true"
     inkscape:snap-to-guides="false">
    <inkscape:grid
       type="xygrid"
       id="grid3002"
       empspacing="5"
       visible="true"
       enabled="true"
       snapvisiblegridlinesonly="true" />
  </sodipodi:namedview>
  <metadata
     id="metadata7">
    <rdf:RDF>
      <cc:Work
         rdf:about="">
        <dc:format>image/svg+xml</dc:format>
        <dc:type
           rdf:resource="http://purl.org/dc/dcmitype/StillImage" />
        <dc:title />
      </cc:Work>
    </rdf:RDF>
  </metadata>
  <g
     inkscape:label="Layer 1"
     inkscape:groupmode="layer"
     id="layer1"
     transform="translate(0,-956.36218)">
    <rect
       style="fill:#ffffff;fill-opacity:0;fill-rule:nonzero;stroke:none"
       id="rect3775"
       width="96"
       height="96"
       x="0"
       y="956.36218"
       ry="0" />
    <path
       style="fill:#000000;fill-opacity:0.09589041;fill-rule:nonzero;stroke:none"
       d="m 3.353015,956.30662 c -1.884176,0 -3.4111555,1.43156 -3.4111555,3.19799 l 0,83.65949 c 0,1.7665 1.5269795,3.1981 3.4111555,3.1981 l 89.23583,0 c 1.884174,0 3.411155,-1.4316 3.411155,-3.1981 l 0,-83.65949 c 0,-1.76643 -1.526981,-3.19799 -3.411155,-3.19799 z"
       id="rect3772"
       inkscape:connector-curvature="0"
       sodipodi:nodetypes="sssssssss" />
    <path
       style="fill:#000000;fill-opacity:0.18721463;fill-rule:nonzero;stroke:none"
       d="m 1.0459761,1041.8066 0,7.4219 c 0,1.7392 1.461916,3.1337 3.2852054,3.1337 l 86.3836135,0 c 1.823288,0 3.285205,-1.3945 3.285205,-3.1337 l 0,-7.4219 -92.9540239,0 z"
       id="rect3785"
       inkscape:connector-curvature="0" />
    <path
       style="fill:#000000;fill-opacity:0.38356168;fill-rule:nonzero;stroke:none"
       d="m 1.0459761,1041.8066 0,5.3807 c 0,1.762 1.461916,3.1749 3.2852054,3.1749 l 86.3836135,0 c 1.823288,0 3.285205,-1.4129 3.285205,-3.1749 l 0,-5.3807 -92.9540239,0 z"
       id="rect3783"
       inkscape:connector-curvature="0" />
    <rect
       style="fill:#f99b0c;fill-opacity:1;fill-rule:nonzero;stroke:none"
       id="rect2985"
       width="92.954025"
       height="89"
       x="1.045977"
       y="957.36218"
       ry="3.1511393" />
    <path
       style="fill:#000000;fill-opacity:0.38356168;fill-rule:nonzero;stroke:none"
       d="m 1,1042.3622 0.045976,2.7457 c 0.03024,1.8058 1.461916,3.2543 3.2852054,3.2543 l 86.3836136,0 c 1.823288,0 3.285205,-1.4481 3.285205,-3.2543 l -0.04598,-2.7457 z"
       id="rect3781"
       inkscape:connector-curvature="0"
       sodipodi:nodetypes="csssscc" />
    <rect
       style="fill:#ffffff;fill-opacity:0.30000001;fill-rule:nonzero;stroke:none"
       id="rect3770"
       width="92.954033"
       height="2.000005"
       x="1.045976"
       y="1040.3622" />
    <path
       style="fill:url(#radialGradient3771);fill-opacity:1;stroke:none"
       d="m 45.829899,964.36218 c 0,0 -27.014718,0.64351 -27.405681,25.70527 -0.182855,0.1519 -0.33328,0.31932 -0.412805,0.52729 -0.370405,0.96842 0.06392,3.70417 0.137601,4.13041 -0.03247,0.0263 -0.04587,0.0219 -0.04587,0.0219 0,0 -1.744447,2.26246 -2.33923,7.00855 -0.0026,0.021 0.0026,0.045 0,0.066 -0.03705,0.3025 -0.06481,0.5999 -0.09173,0.9227 -0.02884,0.3398 -0.05278,0.6924 -0.0688,1.0545 -0.02664,0.6173 -0.04051,1.25 -0.02293,1.9335 0.01267,0.5266 0.04809,1.0589 0.09173,1.6258 0.01611,0.2078 0.02525,0.424 0.04587,0.6371 0.107216,1.1168 0.278665,2.3119 0.527473,3.5811 0,0 0.03772,0.1517 0.114669,0.4395 0.0205,0.077 0.01794,0.052 0.04587,0.1538 0.09606,0.353 0.240985,0.8608 0.435739,1.472 0.12794,0.4005 0.26404,0.8163 0.435739,1.2962 1.196424,3.351 3.47287,8.3396 7.063556,10.8535 l 0,0 c 0,0 2.953309,-0.1047 2.843769,-1.538 l 0.0688,-0.3516 c 0,0 0.435312,0.043 4.265654,-0.1318 3.830344,-0.1752 3.050172,-3.9546 3.050172,-3.9546 0,0 -4.521192,-21.95449 -5.068331,-24.54087 -0.547138,-2.5862 -3.508844,-1.5379 -3.508844,-1.5379 l -4.563791,1.69173 -0.183469,-0.41745 c -0.190704,-0.36573 -0.436845,-0.59197 -0.733876,-0.70305 0.0021,-0.43469 0.0133,-2.67725 0,-3.88875 -0.0046,-0.41489 -0.209906,-0.64382 -0.50454,-0.74698 0.267081,-4.17435 2.865271,-21.29191 27.405681,-22.212 0,0 25.520499,-0.29134 27.474482,22.47564 -0.280596,0.10815 -0.50012,0.34448 -0.504539,0.74698 -0.01439,1.32768 0,4.24028 0,4.24028 -0.18763,0.12695 -0.344995,0.30939 -0.481606,0.57121 l -0.183469,0.4394 -4.563792,-1.69169 c 0,0 -2.961519,-1.04844 -3.508844,1.53794 -0.546951,2.5861 -5.068331,24.54071 -5.068331,24.54071 0,0 -0.780171,3.7573 3.050172,3.9328 3.830343,0.1751 4.265654,0.1536 4.265654,0.1536 l 0.0688,0.3516 c -0.109353,1.4338 2.843769,1.5379 2.843769,1.5379 l 0,0 c 3.601694,-2.5214 5.893034,-7.5462 7.08649,-10.8972 0.237116,-0.665 0.397517,-1.1689 0.550407,-1.6698 0.137229,-0.4457 0.222229,-0.7755 0.298137,-1.0545 0.02698,-0.098 0.02582,-0.078 0.04587,-0.1538 0.07695,-0.2878 0.114668,-0.4614 0.114668,-0.4614 0.141656,-0.7228 0.250268,-1.4143 0.344004,-2.0872 0.0021,-0.015 -0.0021,-0.029 0,-0.043 0.06653,-0.4818 0.116235,-0.9495 0.160535,-1.4061 0.02155,-0.2213 0.05209,-0.4436 0.0688,-0.6591 0.04363,-0.5668 0.07907,-1.0991 0.09173,-1.6258 0.01739,-0.6768 0.0031,-1.3217 -0.02293,-1.9334 -0.01601,-0.3622 -0.03997,-0.7147 -0.0688,-1.0545 -0.452988,-5.43653 -2.430964,-7.99717 -2.430964,-7.99717 0,0 -0.07871,-0.088 -0.321071,-0.19777 0.04335,-0.24568 0.567801,-3.191 0.183469,-4.19631 -0.09316,-0.24349 -0.299537,-0.45069 -0.527473,-0.61517 0.0045,-1.9743 -0.53809,-25.88102 -30.547588,-25.88102 z"
       id="path122"
       inkscape:connector-curvature="0"
       sodipodi:nodetypes="ccccccccccccccccccccccccccccscccccccccccccccccccccccccccccccc" />
    <path
       style="fill:#232323;fill-opacity:0.70319633;stroke:none"
       d="M 45.84375 8 C 45.84375 8 18.828463 8.65699 18.4375 33.71875 C 18.254645 33.87065 18.079525 34.01078 18 34.21875 C 17.85317 34.602635 17.872766 35.283387 17.90625 35.96875 C 17.927914 35.710507 17.9347 35.483226 18 35.3125 C 18.079525 35.10453 18.254645 34.93315 18.4375 34.78125 C 18.828463 9.71949 45.84375 9.0625 45.84375 9.0625 C 75.853248 9.0625 76.3795 32.9632 76.375 34.9375 C 76.602936 35.10198 76.81309 35.31901 76.90625 35.5625 C 76.954291 35.688164 76.977643 35.854023 77 36.03125 C 77.025956 35.416988 77.038111 34.844914 76.90625 34.5 C 76.81309 34.25651 76.602936 34.03948 76.375 33.875 C 76.3795 31.9007 75.853248 8 45.84375 8 z M 20.09375 33.34375 C 20.048623 33.733413 20.017988 34.093857 20 34.375 C 20.294634 34.47816 20.4954 34.71011 20.5 35.125 C 20.499345 34.696303 20.503647 34.394685 20.5 34.0625 C 20.495876 33.69053 20.340266 33.460145 20.09375 33.34375 z M 74.75 33.65625 C 74.539266 33.783313 74.378654 33.979663 74.375 34.3125 C 74.371403 34.64442 74.375675 34.915239 74.375 35.375 C 74.379419 34.9725 74.594404 34.7644 74.875 34.65625 C 74.845817 34.31622 74.789533 33.986071 74.75 33.65625 z M 26.96875 37.1875 C 26.419285 37.23539 26 37.375 26 37.375 L 21.4375 39.0625 L 21.25 38.65625 C 21.059296 38.29052 20.797031 38.04858 20.5 37.9375 C 20.498749 38.270005 20.500576 38.880811 20.5 39 C 20.797031 39.11108 21.059296 39.35302 21.25 39.71875 L 21.4375 40.125 L 26 38.4375 C 26 38.4375 28.952862 37.38255 29.5 39.96875 C 30.047139 42.55513 34.5625 64.53125 34.5625 64.53125 C 34.5625 64.53125 34.58081 64.718654 34.59375 64.8125 C 34.6919 64.070452 34.5625 63.4375 34.5625 63.4375 C 34.5625 63.4375 30.047139 41.49263 29.5 38.90625 C 29.158039 37.289875 27.884526 37.107684 26.96875 37.1875 z M 67.59375 37.6875 C 66.784955 37.748688 65.929913 38.11306 65.65625 39.40625 C 65.109299 41.99235 60.5625 63.96875 60.5625 63.96875 C 60.5625 63.96875 60.453703 64.521194 60.53125 65.21875 C 60.538396 65.174994 60.5625 65.03125 60.5625 65.03125 C 60.5625 65.03125 65.109299 43.0861 65.65625 40.5 C 66.203575 37.91362 69.15625 38.9375 69.15625 38.9375 L 73.71875 40.625 L 73.90625 40.1875 C 74.042861 39.92568 74.18737 39.75195 74.375 39.625 C 74.375 39.625 74.376124 38.856301 74.375 38.5625 C 74.18737 38.68945 74.042861 38.86318 73.90625 39.125 L 73.71875 39.5625 L 69.15625 37.875 C 69.15625 37.875 68.402545 37.626312 67.59375 37.6875 z M 18 38.5 C 17.773249 38.814717 16.300228 41.015688 15.75 45.40625 C 15.7474 45.42725 15.7526 45.44775 15.75 45.46875 C 15.71295 45.77125 15.71442 46.0522 15.6875 46.375 C 15.65866 46.7148 15.60977 47.0754 15.59375 47.4375 C 15.579141 47.776019 15.597598 48.14638 15.59375 48.5 C 15.60977 48.1379 15.65866 47.7773 15.6875 47.4375 C 15.71442 47.1147 15.71295 46.83375 15.75 46.53125 C 15.7526 46.51025 15.7474 46.48975 15.75 46.46875 C 16.344783 41.72241 18.09375 39.4375 18.09375 39.4375 C 18.09375 39.4375 18.12378 39.4638 18.15625 39.4375 C 18.133944 39.30846 18.056078 38.939261 18 38.5 z M 76.875 38.78125 C 76.806468 39.277376 76.732938 39.66959 76.71875 39.75 C 76.961111 39.85977 77.03125 39.96875 77.03125 39.96875 C 77.03125 39.96875 79.015762 42.53197 79.46875 47.96875 C 79.49758 48.30855 79.51524 48.6378 79.53125 49 C 79.545947 49.345384 79.558878 49.727431 79.5625 50.09375 C 79.564983 50.022812 79.560801 49.945667 79.5625 49.875 C 79.57989 49.1982 79.55728 48.5492 79.53125 47.9375 C 79.51524 47.5753 79.49758 47.2148 79.46875 46.875 C 79.015762 41.43847 77.03125 38.90625 77.03125 38.90625 C 77.03125 38.90625 76.978194 38.843436 76.875 38.78125 z "
       transform="translate(0,956.36218)"
       id="path3890" />
    <path
       style="fill:#ffffff;fill-opacity:0.25570777;stroke:none"
       d="M 47.40625,967.46118 C 22.86584,968.38127 20.267081,985.50558 20,989.67993 c 0.03048,0.0107 0.06531,0.0178 0.09375,0.0312 0.624912,-5.39596 4.424892,-20.32937 27.3125,-21.1875 0,0 24.746621,-0.26988 27.34375,21.5 0.04411,-0.0266 0.07644,-0.075 0.125,-0.0937 -1.953983,-22.76698 -27.46875,-22.46875 -27.46875,-22.46875 z m -29.5,24.875 c -0.06099,0.76155 -0.002,1.78129 0.09375,2.53125 0.01836,-0.0255 0.09375,-0.125 0.09375,-0.125 0,0 0.03003,-0.005 0.0625,-0.0312 -0.04447,-0.25727 -0.199015,-1.33141 -0.25,-2.375 z M 77,992.49243 c -0.05773,1.1518 -0.253528,2.40539 -0.28125,2.5625 0.06399,0.029 0.08226,0.069 0.125,0.0937 0.111276,-0.80004 0.235512,-1.87262 0.15625,-2.65625 z m -61.40625,13.25017 c -0.0062,0.3501 -0.0096,0.6877 0,1.0625 0.01267,0.5266 0.05011,1.0581 0.09375,1.625 0.01611,0.2078 0.01063,0.4119 0.03125,0.625 0.107216,1.1168 0.282442,2.3246 0.53125,3.5938 0,0 0.04805,0.1497 0.125,0.4375 0.0205,0.077 0.0033,0.054 0.03125,0.1562 0.09606,0.353 0.242746,0.8576 0.4375,1.4688 0.12794,0.4005 0.265801,0.8013 0.4375,1.2812 1.196424,3.351 3.471814,8.3611 7.0625,10.875 0,0 2.95329,-0.098 2.84375,-1.5312 l 0.0625,-0.375 c 0,0 0.450908,0.05 4.28125,-0.125 3.376474,-0.1545 3.158762,-2.9894 3.0625,-3.6875 -0.139972,1.1071 -0.756016,2.5195 -3.0625,2.625 -3.830342,0.1748 -4.28125,0.125 -4.28125,0.125 l -0.0625,0.3437 c 0.10954,1.4333 -2.84375,1.5625 -2.84375,1.5625 -3.590686,-2.5139 -5.866076,-7.524 -7.0625,-10.875 -0.171699,-0.4799 -0.30956,-0.8807 -0.4375,-1.2812 -0.194754,-0.6112 -0.34144,-1.1158 -0.4375,-1.4688 -0.02793,-0.1018 -0.01075,-0.079 -0.03125,-0.1562 -0.07695,-0.2878 -0.125,-0.4375 -0.125,-0.4375 -0.248808,-1.2692 -0.424034,-2.477 -0.53125,-3.5938 -0.02062,-0.2131 -0.01514,-0.4172 -0.03125,-0.625 -0.04364,-0.5669 -0.08108,-1.0984 -0.09375,-1.625 z m 63.96875,0.7188 c -0.01603,0.4578 -0.05597,0.9155 -0.09375,1.4062 -0.01671,0.2155 -0.04095,0.435 -0.0625,0.6563 -0.0443,0.4566 -0.08972,0.9244 -0.15625,1.4062 -0.0021,0.014 0.0021,0.016 0,0.031 -0.09374,0.6729 -0.202094,1.3709 -0.34375,2.0937 0,0 -0.04805,0.181 -0.125,0.4688 -0.02005,0.076 -0.0043,0.058 -0.03125,0.1562 -0.07591,0.279 -0.175271,0.6168 -0.3125,1.0625 -0.15289,0.5009 -0.294134,0.9913 -0.53125,1.6563 -1.193456,3.351 -3.492056,8.3848 -7.09375,10.9062 0,0 -2.953103,-0.097 -2.84375,-1.5312 l -0.0625,-0.375 c 0,0 -0.450907,0.019 -4.28125,-0.1563 -2.351831,-0.1077 -2.970398,-1.5466 -3.09375,-2.6562 -0.0828,0.5069 -0.432264,3.5884 3.09375,3.75 3.830343,0.1751 4.28125,0.125 4.28125,0.125 l 0.0625,0.375 c -0.109353,1.4338 2.84375,1.5312 2.84375,1.5312 3.601694,-2.5214 5.900294,-7.5552 7.09375,-10.9062 0.237116,-0.665 0.37836,-1.1554 0.53125,-1.6563 0.137229,-0.4457 0.236592,-0.7835 0.3125,-1.0625 0.02698,-0.098 0.0112,-0.08 0.03125,-0.1562 0.07695,-0.2878 0.125,-0.4688 0.125,-0.4688 0.141656,-0.7228 0.250014,-1.3896 0.34375,-2.0625 0.0021,-0.015 -0.0021,-0.048 0,-0.062 0.06653,-0.4818 0.11195,-0.9496 0.15625,-1.4062 0.02155,-0.2213 0.04579,-0.4408 0.0625,-0.6563 0.04363,-0.5668 0.08109,-1.0983 0.09375,-1.625 0.0076,-0.2946 0.0028,-0.5613 0,-0.8437 z"
       id="path3895"
       inkscape:connector-curvature="0" />
  </g>
</svg>
