<?xml version="1.0" encoding="UTF-8" standalone="no"?>
<!-- Created with Inkscape (http://www.inkscape.org/) -->

<svg
   xmlns:dc="http://purl.org/dc/elements/1.1/"
   xmlns:cc="http://creativecommons.org/ns#"
   xmlns:rdf="http://www.w3.org/1999/02/22-rdf-syntax-ns#"
   xmlns:svg="http://www.w3.org/2000/svg"
   xmlns="http://www.w3.org/2000/svg"
   xmlns:xlink="http://www.w3.org/1999/xlink"
   xmlns:sodipodi="http://sodipodi.sourceforge.net/DTD/sodipodi-0.dtd"
   xmlns:inkscape="http://www.inkscape.org/namespaces/inkscape"
   width="96"
   height="96"
   id="svg2"
   version="1.1"
   inkscape:version="0.48.4 r9939"
   sodipodi:docname="computer.svg">
  <defs
     id="defs4">
    <linearGradient
       id="linearGradient3953">
      <stop
         style="stop-color:#00137b;stop-opacity:1;"
         offset="0"
         id="stop3955" />
      <stop
         id="stop3963"
         offset="0.33544752"
         style="stop-color:#000e5c;stop-opacity:1;" />
      <stop
         id="stop3961"
         offset="0.65846825"
         style="stop-color:#000a47;stop-opacity:1;" />
      <stop
         style="stop-color:#000000;stop-opacity:1;"
         offset="1"
         id="stop3957" />
    </linearGradient>
    <linearGradient
       id="linearGradient3828">
      <stop
         id="stop3830"
         offset="0"
         style="stop-color:#676767;stop-opacity:1;" />
      <stop
         style="stop-color:#cccccc;stop-opacity:1;"
         offset="0.05555536"
         id="stop3832" />
      <stop
         style="stop-color:#b3b3b3;stop-opacity:1;"
         offset="0.11111114"
         id="stop3834" />
      <stop
         style="stop-color:#ffffff;stop-opacity:1;"
         offset="0.92222226"
         id="stop3836" />
      <stop
         style="stop-color:#aeaeae;stop-opacity:1;"
         offset="0.9666667"
         id="stop3838" />
      <stop
         id="stop3840"
         offset="1"
         style="stop-color:#494949;stop-opacity:1;" />
    </linearGradient>
    <linearGradient
       inkscape:collect="always"
       xlink:href="#linearGradient3828"
       id="linearGradient3909"
       x1="40"
       y1="1047.3622"
       x2="40"
       y2="957.36218"
       gradientUnits="userSpaceOnUse" />
    <radialGradient
       inkscape:collect="always"
       xlink:href="#linearGradient3953"
       id="radialGradient3855"
       cx="26.1875"
       cy="43.4375"
       fx="26.1875"
       fy="43.4375"
       r="14.46875"
       gradientTransform="matrix(-1.2118132,-0.9927627,0.17418264,1.9123479,47.057,943.11953)"
       gradientUnits="userSpaceOnUse" />
  </defs>
  <sodipodi:namedview
     id="base"
     pagecolor="#ffffff"
     bordercolor="#666666"
     borderopacity="1.0"
     inkscape:pageopacity="0.0"
     inkscape:pageshadow="2"
     inkscape:zoom="9.6560822"
     inkscape:cx="7.3043936"
     inkscape:cy="53.079614"
     inkscape:document-units="px"
     inkscape:current-layer="layer1"
     showgrid="true"
     inkscape:snap-page="true"
     inkscape:snap-global="false"
     inkscape:snap-center="true"
     inkscape:snap-object-midpoints="false"
     showguides="true"
     inkscape:guide-bbox="true"
     inkscape:snap-bbox="true"
     inkscape:object-paths="true"
     inkscape:object-nodes="true"
     inkscape:window-width="1305"
     inkscape:window-height="744"
     inkscape:window-x="61"
     inkscape:window-y="24"
     inkscape:window-maximized="1"
     inkscape:snap-midpoints="true"
     inkscape:snap-grids="true"
     inkscape:snap-to-guides="false">
    <inkscape:grid
       type="xygrid"
       id="grid3002"
       empspacing="5"
       visible="true"
       enabled="true"
       snapvisiblegridlinesonly="true" />
  </sodipodi:namedview>
  <metadata
     id="metadata7">
    <rdf:RDF>
      <cc:Work
         rdf:about="">
        <dc:format>image/svg+xml</dc:format>
        <dc:type
           rdf:resource="http://purl.org/dc/dcmitype/StillImage" />
        <dc:title />
      </cc:Work>
    </rdf:RDF>
  </metadata>
  <g
     inkscape:label="Layer 1"
     inkscape:groupmode="layer"
     id="layer1"
     transform="translate(0,-956.36218)">
    <rect
       style="fill:#ffffff;fill-opacity:0;fill-rule:nonzero;stroke:none"
       id="rect3775"
       width="96"
       height="96"
       x="0"
       y="956.36218"
       ry="0" />
    <path
       style="fill:#000000;fill-opacity:0.09589041;fill-rule:nonzero;stroke:none"
       d="m 3.353015,956.30662 c -1.884176,0 -3.4111555,1.43156 -3.4111555,3.19799 l 0,83.65949 c 0,1.7665 1.5269795,3.1981 3.4111555,3.1981 l 89.23583,0 c 1.884174,0 3.411155,-1.4316 3.411155,-3.1981 l 0,-83.65949 c 0,-1.76643 -1.526981,-3.19799 -3.411155,-3.19799 z"
       id="rect3772"
       inkscape:connector-curvature="0"
       sodipodi:nodetypes="sssssssss" />
    <path
       style="fill:#000000;fill-opacity:0.18721463;fill-rule:nonzero;stroke:none"
       d="m 1.0459761,1041.8066 0,7.4219 c 0,1.7392 1.461916,3.1337 3.2852054,3.1337 l 86.3836135,0 c 1.823288,0 3.285205,-1.3945 3.285205,-3.1337 l 0,-7.4219 -92.9540239,0 z"
       id="rect3785"
       inkscape:connector-curvature="0" />
    <path
       style="fill:#000000;fill-opacity:0.38356168;fill-rule:nonzero;stroke:none"
       d="m 1.0459761,1041.8066 0,5.3807 c 0,1.762 1.461916,3.1749 3.2852054,3.1749 l 86.3836135,0 c 1.823288,0 3.285205,-1.4129 3.285205,-3.1749 l 0,-5.3807 -92.9540239,0 z"
       id="rect3783"
       inkscape:connector-curvature="0" />
    <path
       style="fill:#000000;fill-opacity:0.38356168;fill-rule:nonzero;stroke:none"
       d="m 1,1042.3622 0.045976,2.7457 c 0.03024,1.8058 1.461916,3.2543 3.2852054,3.2543 l 86.3836136,0 c 1.823288,0 3.285205,-1.4481 3.285205,-3.2543 l -0.04598,-2.7457 z"
       id="rect3781"
       inkscape:connector-curvature="0"
       sodipodi:nodetypes="csssscc" />
    <rect
       style="fill:url(#linearGradient3909);fill-opacity:1;fill-rule:nonzero;stroke:none"
       id="rect2985"
       width="92.954025"
       height="89"
       x="1.0459771"
       y="957.36218"
       ry="3.1511393" />
    <path
       style="fill:#ffffff;fill-opacity:0.87214613;fill-rule:nonzero;stroke:none"
       d="M 57.96875 1 C 57.095884 1 56.288318 1.3366816 55.71875 1.90625 C 55.149182 2.4758184 54.8125 3.2833844 54.8125 4.15625 L 54.8125 86.84375 C 54.8125 87.716616 55.149182 88.524182 55.71875 89.09375 C 56.288318 89.663318 57.095884 90 57.96875 90 L 90.84375 90 C 92.589481 90 94 88.589481 94 86.84375 L 94 4.15625 C 94 2.4105189 92.589481 1 90.84375 1 L 57.96875 1 z "
       id="path3863"
       transform="translate(0,956.36218)" />
    <path
       style="fill:#343434;fill-opacity:1;fill-rule:nonzero;stroke:none"
       d="m 90.84375,959.23718 c 0.394187,0 0.730672,0.13692 0.9375,0.34375 0.206828,0.20683 0.34375,0.54331 0.34375,0.9375 l 0,82.68747 c 0,0.3942 -0.136922,0.7307 -0.34375,0.9375 -0.206828,0.2069 -0.543313,0.3438 -0.9375,0.3438 l -32.875,0 c -0.743024,0 -1.28125,-0.5382 -1.28125,-1.2813 l 0,-82.68747 c 0,-0.74302 0.538225,-1.28125 1.28125,-1.28125 l 32.875,0 z"
       id="path3825"
       inkscape:connector-curvature="0" />
    <rect
       style="fill:#000000;fill-opacity:0.65296804;fill-rule:evenodd;stroke:none"
       id="rect3865"
       width="37"
       height="3.9999974"
       x="55"
       y="967.36218" />
    <rect
       y="982.36218"
       x="55"
       height="3.9999974"
       width="37"
       id="rect3867"
       style="fill:#000000;fill-opacity:0.65296804;fill-rule:evenodd;stroke:none" />
    <rect
       style="fill:#000000;fill-opacity:0.65296804;fill-rule:evenodd;stroke:none"
       id="rect3869"
       width="37"
       height="3.9999974"
       x="55"
       y="997.36218" />
    <rect
       y="1012.3622"
       x="55"
       height="3.9999974"
       width="37"
       id="rect3871"
       style="fill:#000000;fill-opacity:0.65296804;fill-rule:evenodd;stroke:none" />
    <rect
       style="fill:#000000;fill-opacity:0.65296804;fill-rule:evenodd;stroke:none"
       id="rect3873"
       width="37"
       height="3.9999974"
       x="55"
       y="1027.3622" />
    <path
       sodipodi:type="arc"
       style="fill:#0100ff;fill-opacity:0.23744293;fill-rule:evenodd;stroke:none"
       id="path3879"
       sodipodi:cx="62.5"
       sodipodi:cy="58"
       sodipodi:rx="4.5"
       sodipodi:ry="2"
       d="m 67,58 c 0,1.104569 -2.014719,2 -4.5,2 -2.485281,0 -4.5,-0.895431 -4.5,-2 0,-1.104569 2.014719,-2 4.5,-2 2.485281,0 4.5,0.895431 4.5,2 z"
       transform="matrix(2,0,0,1,-58,956.36218)" />
    <path
       transform="matrix(1.6954173,0,0,0.84770863,-38.963579,965.19508)"
       d="m 67,58 c 0,1.104569 -2.014719,2 -4.5,2 -2.485281,0 -4.5,-0.895431 -4.5,-2 0,-1.104569 2.014719,-2 4.5,-2 2.485281,0 4.5,0.895431 4.5,2 z"
       sodipodi:ry="2"
       sodipodi:rx="4.5"
       sodipodi:cy="58"
       sodipodi:cx="62.5"
       id="path3881"
       style="fill:#0100ff;fill-opacity:0.23744293;fill-rule:evenodd;stroke:none"
       sodipodi:type="arc" />
    <path
       sodipodi:type="arc"
       style="fill:#0100ff;fill-opacity:0.23744293;fill-rule:evenodd;stroke:none"
       id="path3883"
       sodipodi:cx="62.5"
       sodipodi:cy="58"
       sodipodi:rx="4.5"
       sodipodi:ry="2"
       d="m 67,58 c 0,1.104569 -2.014719,2 -4.5,2 -2.485281,0 -4.5,-0.895431 -4.5,-2 0,-1.104569 2.014719,-2 4.5,-2 2.485281,0 4.5,0.895431 4.5,2 z"
       transform="matrix(1.4060637,0,0,0.70303183,-20.878978,973.58633)" />
    <path
       transform="matrix(1.1471683,0,0,0.57358417,-4.6980202,981.09429)"
       d="m 67,58 c 0,1.104569 -2.014719,2 -4.5,2 -2.485281,0 -4.5,-0.895431 -4.5,-2 0,-1.104569 2.014719,-2 4.5,-2 2.485281,0 4.5,0.895431 4.5,2 z"
       sodipodi:ry="2"
       sodipodi:rx="4.5"
       sodipodi:cy="58"
       sodipodi:cx="62.5"
       id="path3885"
       style="fill:#0100ff;fill-opacity:0.23744293;fill-rule:evenodd;stroke:none"
       sodipodi:type="arc" />
    <path
       sodipodi:type="arc"
       style="fill:#0078ff;fill-opacity:1;fill-rule:evenodd;stroke:none"
       id="path3887"
       sodipodi:cx="62.5"
       sodipodi:cy="58"
       sodipodi:rx="4.5"
       sodipodi:ry="2"
       d="m 67,58 c 0,1.104569 -2.014719,2 -4.5,2 -2.485281,0 -4.5,-0.895431 -4.5,-2 0,-1.104569 2.014719,-2 4.5,-2 2.485281,0 4.5,0.895431 4.5,2 z"
       transform="matrix(0.91873128,0,0,0.45936564,9.5792957,987.71896)" />
    <path
       transform="matrix(2,0,0,1,-58,941.33682)"
       d="m 67,58 c 0,1.104569 -2.014719,2 -4.5,2 -2.485281,0 -4.5,-0.895431 -4.5,-2 0,-1.104569 2.014719,-2 4.5,-2 2.485281,0 4.5,0.895431 4.5,2 z"
       sodipodi:ry="2"
       sodipodi:rx="4.5"
       sodipodi:cy="58"
       sodipodi:cx="62.5"
       id="path3899"
       style="fill:#0100ff;fill-opacity:0.23744291;fill-rule:evenodd;stroke:none"
       sodipodi:type="arc" />
    <path
       sodipodi:type="arc"
       style="fill:#0100ff;fill-opacity:0.23744291;fill-rule:evenodd;stroke:none"
       id="path3901"
       sodipodi:cx="62.5"
       sodipodi:cy="58"
       sodipodi:rx="4.5"
       sodipodi:ry="2"
       d="m 67,58 c 0,1.104569 -2.014719,2 -4.5,2 -2.485281,0 -4.5,-0.895431 -4.5,-2 0,-1.104569 2.014719,-2 4.5,-2 2.485281,0 4.5,0.895431 4.5,2 z"
       transform="matrix(1.6954173,0,0,0.84770863,-38.963579,950.16972)" />
    <path
       transform="matrix(1.4060637,0,0,0.70303183,-20.878978,958.56097)"
       d="m 67,58 c 0,1.104569 -2.014719,2 -4.5,2 -2.485281,0 -4.5,-0.895431 -4.5,-2 0,-1.104569 2.014719,-2 4.5,-2 2.485281,0 4.5,0.895431 4.5,2 z"
       sodipodi:ry="2"
       sodipodi:rx="4.5"
       sodipodi:cy="58"
       sodipodi:cx="62.5"
       id="path3903"
       style="fill:#0100ff;fill-opacity:0.23744291;fill-rule:evenodd;stroke:none"
       sodipodi:type="arc" />
    <path
       sodipodi:type="arc"
       style="fill:#0100ff;fill-opacity:0.23744291;fill-rule:evenodd;stroke:none"
       id="path3905"
       sodipodi:cx="62.5"
       sodipodi:cy="58"
       sodipodi:rx="4.5"
       sodipodi:ry="2"
       d="m 67,58 c 0,1.104569 -2.014719,2 -4.5,2 -2.485281,0 -4.5,-0.895431 -4.5,-2 0,-1.104569 2.014719,-2 4.5,-2 2.485281,0 4.5,0.895431 4.5,2 z"
       transform="matrix(1.1471683,0,0,0.57358417,-4.6980202,966.06893)" />
    <path
       transform="matrix(0.91873128,0,0,0.45936564,9.5792957,972.6936)"
       d="m 67,58 c 0,1.104569 -2.014719,2 -4.5,2 -2.485281,0 -4.5,-0.895431 -4.5,-2 0,-1.104569 2.014719,-2 4.5,-2 2.485281,0 4.5,0.895431 4.5,2 z"
       sodipodi:ry="2"
       sodipodi:rx="4.5"
       sodipodi:cy="58"
       sodipodi:cx="62.5"
       id="path3907"
       style="fill:#0078ff;fill-opacity:1;fill-rule:evenodd;stroke:none"
       sodipodi:type="arc" />
    <path
       sodipodi:type="arc"
       style="fill:#0100ff;fill-opacity:0.23744291;fill-rule:evenodd;stroke:none"
       id="path3909"
       sodipodi:cx="62.5"
       sodipodi:cy="58"
       sodipodi:rx="4.5"
       sodipodi:ry="2"
       d="m 67,58 c 0,1.104569 -2.014719,2 -4.5,2 -2.485281,0 -4.5,-0.895431 -4.5,-2 0,-1.104569 2.014719,-2 4.5,-2 2.485281,0 4.5,0.895431 4.5,2 z"
       transform="matrix(2,0,0,1,-58,926.36218)" />
    <path
       transform="matrix(1.6954173,0,0,0.84770863,-38.963579,935.19508)"
       d="m 67,58 c 0,1.104569 -2.014719,2 -4.5,2 -2.485281,0 -4.5,-0.895431 -4.5,-2 0,-1.104569 2.014719,-2 4.5,-2 2.485281,0 4.5,0.895431 4.5,2 z"
       sodipodi:ry="2"
       sodipodi:rx="4.5"
       sodipodi:cy="58"
       sodipodi:cx="62.5"
       id="path3911"
       style="fill:#0100ff;fill-opacity:0.23744291;fill-rule:evenodd;stroke:none"
       sodipodi:type="arc" />
    <path
       sodipodi:type="arc"
       style="fill:#0100ff;fill-opacity:0.23744291;fill-rule:evenodd;stroke:none"
       id="path3913"
       sodipodi:cx="62.5"
       sodipodi:cy="58"
       sodipodi:rx="4.5"
       sodipodi:ry="2"
       d="m 67,58 c 0,1.104569 -2.014719,2 -4.5,2 -2.485281,0 -4.5,-0.895431 -4.5,-2 0,-1.104569 2.014719,-2 4.5,-2 2.485281,0 4.5,0.895431 4.5,2 z"
       transform="matrix(1.4060637,0,0,0.70303183,-20.878978,943.58633)" />
    <path
       transform="matrix(1.1471683,0,0,0.57358417,-4.6980202,951.09429)"
       d="m 67,58 c 0,1.104569 -2.014719,2 -4.5,2 -2.485281,0 -4.5,-0.895431 -4.5,-2 0,-1.104569 2.014719,-2 4.5,-2 2.485281,0 4.5,0.895431 4.5,2 z"
       sodipodi:ry="2"
       sodipodi:rx="4.5"
       sodipodi:cy="58"
       sodipodi:cx="62.5"
       id="path3915"
       style="fill:#0100ff;fill-opacity:0.23744291;fill-rule:evenodd;stroke:none"
       sodipodi:type="arc" />
    <path
       sodipodi:type="arc"
       style="fill:#0078ff;fill-opacity:1;fill-rule:evenodd;stroke:none"
       id="path3917"
       sodipodi:cx="62.5"
       sodipodi:cy="58"
       sodipodi:rx="4.5"
       sodipodi:ry="2"
       d="m 67,58 c 0,1.104569 -2.014719,2 -4.5,2 -2.485281,0 -4.5,-0.895431 -4.5,-2 0,-1.104569 2.014719,-2 4.5,-2 2.485281,0 4.5,0.895431 4.5,2 z"
       transform="matrix(0.91873128,0,0,0.45936564,9.5792957,957.71896)" />
    <path
       transform="matrix(2,0,0,1,-58,911.26571)"
       d="m 67,58 c 0,1.104569 -2.014719,2 -4.5,2 -2.485281,0 -4.5,-0.895431 -4.5,-2 0,-1.104569 2.014719,-2 4.5,-2 2.485281,0 4.5,0.895431 4.5,2 z"
       sodipodi:ry="2"
       sodipodi:rx="4.5"
       sodipodi:cy="58"
       sodipodi:cx="62.5"
       id="path3919"
       style="fill:#0100ff;fill-opacity:0.23744291;fill-rule:evenodd;stroke:none"
       sodipodi:type="arc" />
    <path
       sodipodi:type="arc"
       style="fill:#0100ff;fill-opacity:0.23744291;fill-rule:evenodd;stroke:none"
       id="path3921"
       sodipodi:cx="62.5"
       sodipodi:cy="58"
       sodipodi:rx="4.5"
       sodipodi:ry="2"
       d="m 67,58 c 0,1.104569 -2.014719,2 -4.5,2 -2.485281,0 -4.5,-0.895431 -4.5,-2 0,-1.104569 2.014719,-2 4.5,-2 2.485281,0 4.5,0.895431 4.5,2 z"
       transform="matrix(1.6954173,0,0,0.84770863,-38.963579,920.09861)" />
    <path
       transform="matrix(1.4060637,0,0,0.70303183,-20.878978,928.48986)"
       d="m 67,58 c 0,1.104569 -2.014719,2 -4.5,2 -2.485281,0 -4.5,-0.895431 -4.5,-2 0,-1.104569 2.014719,-2 4.5,-2 2.485281,0 4.5,0.895431 4.5,2 z"
       sodipodi:ry="2"
       sodipodi:rx="4.5"
       sodipodi:cy="58"
       sodipodi:cx="62.5"
       id="path3923"
       style="fill:#0100ff;fill-opacity:0.23744291;fill-rule:evenodd;stroke:none"
       sodipodi:type="arc" />
    <path
       sodipodi:type="arc"
       style="fill:#0100ff;fill-opacity:0.23744291;fill-rule:evenodd;stroke:none"
       id="path3925"
       sodipodi:cx="62.5"
       sodipodi:cy="58"
       sodipodi:rx="4.5"
       sodipodi:ry="2"
       d="m 67,58 c 0,1.104569 -2.014719,2 -4.5,2 -2.485281,0 -4.5,-0.895431 -4.5,-2 0,-1.104569 2.014719,-2 4.5,-2 2.485281,0 4.5,0.895431 4.5,2 z"
       transform="matrix(1.1471683,0,0,0.57358417,-4.6980202,935.99782)" />
    <path
       transform="matrix(0.91873128,0,0,0.45936564,9.5792957,942.62249)"
       d="m 67,58 c 0,1.104569 -2.014719,2 -4.5,2 -2.485281,0 -4.5,-0.895431 -4.5,-2 0,-1.104569 2.014719,-2 4.5,-2 2.485281,0 4.5,0.895431 4.5,2 z"
       sodipodi:ry="2"
       sodipodi:rx="4.5"
       sodipodi:cy="58"
       sodipodi:cx="62.5"
       id="path3927"
       style="fill:#0078ff;fill-opacity:1;fill-rule:evenodd;stroke:none"
       sodipodi:type="arc" />
    <path
       transform="matrix(2,0,0,1,-58,971.33682)"
       d="m 67,58 c 0,1.104569 -2.014719,2 -4.5,2 -2.485281,0 -4.5,-0.895431 -4.5,-2 0,-1.104569 2.014719,-2 4.5,-2 2.485281,0 4.5,0.895431 4.5,2 z"
       sodipodi:ry="2"
       sodipodi:rx="4.5"
       sodipodi:cy="58"
       sodipodi:cx="62.5"
       id="path3929"
       style="fill:#0100ff;fill-opacity:0.23744291;fill-rule:evenodd;stroke:none"
       sodipodi:type="arc" />
    <path
       sodipodi:type="arc"
       style="fill:#0100ff;fill-opacity:0.23744291;fill-rule:evenodd;stroke:none"
       id="path3931"
       sodipodi:cx="62.5"
       sodipodi:cy="58"
       sodipodi:rx="4.5"
       sodipodi:ry="2"
       d="m 67,58 c 0,1.104569 -2.014719,2 -4.5,2 -2.485281,0 -4.5,-0.895431 -4.5,-2 0,-1.104569 2.014719,-2 4.5,-2 2.485281,0 4.5,0.895431 4.5,2 z"
       transform="matrix(1.6954173,0,0,0.84770863,-38.963579,980.16972)" />
    <path
       transform="matrix(1.4060637,0,0,0.70303183,-20.878978,988.56097)"
       d="m 67,58 c 0,1.104569 -2.014719,2 -4.5,2 -2.485281,0 -4.5,-0.895431 -4.5,-2 0,-1.104569 2.014719,-2 4.5,-2 2.485281,0 4.5,0.895431 4.5,2 z"
       sodipodi:ry="2"
       sodipodi:rx="4.5"
       sodipodi:cy="58"
       sodipodi:cx="62.5"
       id="path3933"
       style="fill:#0100ff;fill-opacity:0.23744291;fill-rule:evenodd;stroke:none"
       sodipodi:type="arc" />
    <path
       sodipodi:type="arc"
       style="fill:#0100ff;fill-opacity:0.23744291;fill-rule:evenodd;stroke:none"
       id="path3935"
       sodipodi:cx="62.5"
       sodipodi:cy="58"
       sodipodi:rx="4.5"
       sodipodi:ry="2"
       d="m 67,58 c 0,1.104569 -2.014719,2 -4.5,2 -2.485281,0 -4.5,-0.895431 -4.5,-2 0,-1.104569 2.014719,-2 4.5,-2 2.485281,0 4.5,0.895431 4.5,2 z"
       transform="matrix(1.1471683,0,0,0.57358417,-4.6980202,996.06893)" />
    <path
       transform="matrix(0.91873128,0,0,0.45936564,9.5792957,1002.6934)"
       d="m 67,58 c 0,1.104569 -2.014719,2 -4.5,2 -2.485281,0 -4.5,-0.895431 -4.5,-2 0,-1.104569 2.014719,-2 4.5,-2 2.485281,0 4.5,0.895431 4.5,2 z"
       sodipodi:ry="2"
       sodipodi:rx="4.5"
       sodipodi:cy="58"
       sodipodi:cx="62.5"
       id="path3937"
       style="fill:#0078ff;fill-opacity:1;fill-rule:evenodd;stroke:none"
       sodipodi:type="arc" />
    <rect
       style="fill:#000000;fill-opacity:1;fill-rule:evenodd;stroke:none"
       id="rect3965"
       width="10"
       height="5"
       x="80"
       y="1037.3622" />
    <path
       style="fill:url(#radialGradient3855);fill-opacity:1;fill-rule:evenodd;stroke:none"
       d="m 15.088042,976.70116 c -5.4146289,-0.12428 -8.610694,5.97135 -8.0696175,15.76179 l 2.8225563,1.38735 c -0.08157,-10.13701 4.3544172,-15.40513 11.1454812,-12.06221 5.663306,2.78778 11.422242,10.83217 15.126008,20.23211 l 0.506613,0.2312 C 32.732293,991.04802 25.90535,981.09219 19.17713,977.78021 c -1.468079,-0.72267 -2.839559,-1.05037 -4.089088,-1.07905 z m -2.533064,17.57305 0,10.01969 2.207384,0 c 0.486451,0 0.956003,-0.1093 1.411278,-0.3082 0.461504,-0.1991 0.867384,-0.5865 1.266532,-1.1562 0.130963,-0.1809 0.255839,-0.3928 0.361866,-0.6551 0.106016,-0.2714 0.214647,-0.5404 0.289493,-0.8478 0.07484,-0.3166 0.137271,-0.6674 0.180933,-1.002 0.04365,-0.34367 0.03618,-0.65834 0.03619,-1.00199 -7e-6,-0.48834 -0.0325,-1.04883 -0.144746,-1.61857 -0.112266,-0.56973 -0.293341,-1.0736 -0.5428,-1.58003 -0.130973,-0.26226 -0.295806,-0.50612 -0.470426,-0.73221 -0.17463,-0.22608 -0.384423,-0.45381 -0.615172,-0.6166 -0.230759,-0.16277 -0.466804,-0.25639 -0.759919,-0.34684 -0.286888,-0.0995 -0.61532,-0.15414 -0.977039,-0.15415 l -2.243571,0 z m 16.935339,0 0,10.01969 0.977039,0 0,-3.8922 0,-6.12749 -0.977039,0 z m 0.977039,6.12749 2.098824,3.8922 1.194159,0 -2.171198,-3.9693 1.881705,-3.54546 -1.157972,0 -1.845518,3.62256 z m -16.899153,-4.81722 1.194159,0 c 0.473979,10e-6 0.876088,0.14121 1.194159,0.38538 0.324299,0.24417 0.596529,0.55412 0.796105,0.92489 0.199567,0.36175 0.346921,0.76059 0.43424,1.19466 0.08731,0.4341 0.14474,0.85338 0.144746,1.2332 -6e-6,0.69639 -0.09739,1.26399 -0.253306,1.73419 -0.149683,0.4612 -0.335764,0.8372 -0.578986,1.1176 -0.243232,0.2803 -0.526704,0.49 -0.832293,0.6166 -0.299359,0.1175 -0.599075,0.1541 -0.904665,0.1541 l -1.194159,0 0,-7.36062 z m 8.250551,1.00198 c -0.367962,0 -0.725112,0.10934 -1.049413,0.30829 -0.318068,0.19896 -0.589066,0.45661 -0.832292,0.80929 -0.236992,0.3527 -0.435545,0.7834 -0.578985,1.27174 -0.137207,0.4793 -0.217121,0.9808 -0.217121,1.54152 0,0.5335 0.07991,1.0621 0.217121,1.5414 0.137203,0.4794 0.341993,0.8716 0.578985,1.2333 0.23699,0.3617 0.514224,0.6693 0.832292,0.8864 0.324301,0.2079 0.645264,0.3082 1.013226,0.3082 0.199568,0 0.414366,-0.025 0.651359,-0.1156 0.243224,-0.081 0.499211,-0.234 0.723732,-0.4239 0.230749,-0.1989 0.451783,-0.4451 0.65136,-0.7707 0.199565,-0.3256 0.345688,-0.7449 0.470425,-1.2332 l -0.977039,0 c -0.118499,0.3255 -0.287103,0.624 -0.542798,0.8863 -0.249468,0.2532 -0.579134,0.3853 -0.940852,0.3853 -0.162155,0 -0.331991,-0.043 -0.506613,-0.1155 -0.174627,-0.081 -0.344464,-0.2227 -0.506612,-0.3854 -0.155917,-0.1718 -0.273324,-0.3633 -0.398054,-0.6166 -0.118497,-0.2623 -0.227128,-0.6017 -0.289493,-0.9634 l 4.306208,0 c 0.0062,-0.045 -0.0062,-0.1161 0,-0.2698 0.0062,-0.1538 0.03618,-0.2973 0.03619,-0.4239 -5e-6,-0.55165 -0.07368,-1.07124 -0.217118,-1.54151 -0.143447,-0.47024 -0.335764,-0.88953 -0.578987,-1.23318 -0.243232,-0.34365 -0.550417,-0.58084 -0.868478,-0.77076 -0.318071,-0.19895 -0.627793,-0.30829 -0.977039,-0.30829 z m 5.029941,0 c -0.243231,0 -0.48174,0.0661 -0.687547,0.19268 -0.199572,0.11758 -0.363172,0.25446 -0.506613,0.46245 -0.137205,0.19897 -0.244604,0.43142 -0.325679,0.69367 -0.07484,0.25323 -0.10856,0.52895 -0.10856,0.80929 0,0.39792 0.04496,0.73972 0.144746,1.00197 0.09979,0.25323 0.218424,0.44478 0.361868,0.61658 0.149675,0.1628 0.302035,0.3244 0.470425,0.424 0.168387,0.09 0.326982,0.1588 0.470426,0.2311 0.12473,0.063 0.249605,0.1204 0.361866,0.1928 0.112256,0.063 0.208416,0.1407 0.289494,0.2311 0.08107,0.081 0.137273,0.1908 0.180933,0.3084 0.04989,0.1175 0.07237,0.2611 0.07237,0.4239 -1e-6,0.3165 -0.07368,0.5808 -0.21712,0.7707 -0.137207,0.1809 -0.288333,0.2697 -0.506611,0.2697 -0.274413,0 -0.501684,-0.1411 -0.651359,-0.3853 -0.143444,-0.2442 -0.2346,-0.5769 -0.253308,-1.002 l -0.940852,0 c 0,0.5155 0.04996,0.9281 0.180933,1.2718 0.130968,0.3437 0.283329,0.6398 0.470426,0.8478 0.187098,0.199 0.403128,0.3425 0.615173,0.4239 0.212043,0.081 0.380647,0.1156 0.5428,0.1156 0.274407,0 0.511685,-0.066 0.723731,-0.1927 0.218278,-0.1266 0.429305,-0.284 0.578987,-0.5009 0.149675,-0.2171 0.250836,-0.4814 0.32568,-0.7708 0.08106,-0.2894 0.108557,-0.5903 0.10856,-0.9249 -3e-6,-0.4431 -0.0562,-0.8282 -0.180934,-1.1176 -0.124735,-0.2984 -0.259618,-0.5128 -0.434239,-0.6937 -0.168391,-0.1898 -0.368178,-0.33343 -0.5428,-0.42387 -0.174626,-0.0904 -0.298268,-0.186 -0.398052,-0.23122 -0.106025,-0.0452 -0.189709,-0.0703 -0.289494,-0.11562 -0.09354,-0.0542 -0.178468,-0.12033 -0.253306,-0.19268 -0.07484,-0.0723 -0.137279,-0.17028 -0.180933,-0.26976 -0.04366,-0.10852 -0.07238,-0.23164 -0.07237,-0.38538 -10e-7,-0.23512 0.06867,-0.43336 0.180933,-0.57806 0.112257,-0.15373 0.253376,-0.23121 0.434239,-0.23122 0.180859,10e-6 0.321979,0.0775 0.43424,0.23122 0.118493,0.1447 0.185934,0.38621 0.217119,0.69367 l 0.97704,0 c -0.0062,-0.41599 -0.06868,-0.76015 -0.180934,-1.0405 -0.112262,-0.28034 -0.235904,-0.52184 -0.398053,-0.69367 -0.155917,-0.17182 -0.325753,-0.27449 -0.506613,-0.34684 -0.180863,-0.0723 -0.356937,-0.11561 -0.506611,-0.11561 z m -5.066128,1.27173 c 0.230751,10e-6 0.451786,0.0661 0.651359,0.19268 0.199567,0.12662 0.393117,0.293 0.542799,0.50099 0.149674,0.19896 0.27455,0.46091 0.361867,0.73221 0.08731,0.26227 0.132268,0.49945 0.144746,0.77073 l -3.365356,0 c 0.01247,-0.27128 0.05743,-0.50846 0.144746,-0.77073 0.08732,-0.2713 0.212187,-0.53325 0.361867,-0.73221 0.149675,-0.20799 0.313274,-0.37437 0.506613,-0.50099 0.199568,-0.1266 0.414365,-0.19267 0.651359,-0.19268 z m -12.6291321,0.26976 c 3.8868001,11.20345 10.7137311,21.15925 17.4419521,24.47125 7.829759,3.8542 12.824653,-2.6329 12.158705,-14.6827 l -2.822555,-1.3874 c 0.08157,10.137 -4.354413,15.4051 -11.14548,12.0622 -5.663305,-2.7877 -11.422254,-10.8322 -15.1260093,-20.23212 l -0.5066128,-0.23123 z"
       id="path3073"
       inkscape:connector-curvature="0" />
    <path
       style="fill:#000000;fill-opacity:1;fill-rule:evenodd;stroke:none"
       d="m 15.088042,976.70116 c -5.056504,-0.11605 -8.192637,5.19688 -8.1419908,13.87346 0.1227948,-10.41406 4.9644408,-15.71631 12.2310788,-12.13928 6.571889,3.23504 13.223174,12.81697 17.152459,23.70056 l 0.289494,0.1155 C 32.732293,991.04802 25.90535,981.09219 19.17713,977.78021 c -1.468079,-0.72267 -2.839559,-1.05037 -4.089088,-1.07905 z m -5.9346071,21.42679 c 0.090306,0.26032 0.1960241,0.51186 0.2894938,0.77074 l 0.217119,0.11562 c 3.7037553,9.40019 9.4627043,17.40589 15.1260093,20.19359 6.516884,3.2079 10.839607,-1.4858 11.109292,-10.829 -0.446913,8.9172 -4.742667,13.3465 -11.109292,10.2124 -5.663305,-2.7877 -11.422254,-10.8322 -15.1260093,-20.23212 l -0.5066128,-0.23123 z m 26.7781021,8.40115 c 0.0018,0.2243 0.0025,0.4356 0,0.6551 l 2.822555,1.3873 c 0.03505,0.6344 0.06823,1.2472 0.07237,1.8499 0.0094,-0.8053 -0.02459,-1.6404 -0.07237,-2.5049 l -2.822555,-1.3874 z"
       id="path3857"
       inkscape:connector-curvature="0" />
    <path
       style="fill:#ffffff;fill-opacity:1;fill-rule:evenodd;stroke:none"
       d="m 17.440172,980.80808 c -4.507023,-0.19372 -7.346013,4.31328 -7.5630041,11.83098 0.4469111,-8.91718 4.7426711,-13.3464 11.1092941,-10.21242 5.663306,2.78778 11.422242,10.83217 15.126008,20.23226 l 0.506613,0.2313 c -0.0903,-0.2603 -0.196025,-0.5118 -0.289494,-0.7708 l -0.217119,-0.1159 c -3.703766,-9.39995 -9.462702,-17.44458 -15.126008,-20.23236 -1.273326,-0.62679 -2.451822,-0.91639 -3.54629,-0.96343 z m -10.4941208,9.78849 c -0.00938,0.80523 0.024595,1.6404 0.072373,2.50493 l 2.8225568,1.38735 c -0.00188,-0.22429 -0.00263,-0.43567 0,-0.65514 l -2.8225568,-1.38735 c -0.035052,-0.63433 -0.068228,-1.24713 -0.072373,-1.84979 z m 2.2073837,8.16993 c 3.8868001,11.2037 10.7137311,21.1594 17.4419521,24.4714 7.408997,3.6471 12.294246,-1.9736 12.231079,-12.7944 -0.122788,10.4141 -4.964442,15.7164 -12.231079,12.1393 -6.571892,-3.2351 -13.223164,-12.8173 -17.1524583,-23.70068 l -0.2894938,-0.11555 z"
       id="path3866"
       inkscape:connector-curvature="0" />
  </g>
</svg>
