<?xml version="1.0" encoding="UTF-8" standalone="no"?>
<!-- Created with Inkscape (http://www.inkscape.org/) -->

<svg
   xmlns:dc="http://purl.org/dc/elements/1.1/"
   xmlns:cc="http://creativecommons.org/ns#"
   xmlns:rdf="http://www.w3.org/1999/02/22-rdf-syntax-ns#"
   xmlns:svg="http://www.w3.org/2000/svg"
   xmlns="http://www.w3.org/2000/svg"
   xmlns:sodipodi="http://sodipodi.sourceforge.net/DTD/sodipodi-0.dtd"
   xmlns:inkscape="http://www.inkscape.org/namespaces/inkscape"
   width="16"
   height="16"
   id="svg2"
   version="1.1"
   inkscape:version="0.48.4 r9939"
   sodipodi:docname="drive-harddisk-symbolic.svg">
  <defs
     id="defs4" />
  <sodipodi:namedview
     id="base"
     pagecolor="#ffffff"
     bordercolor="#666666"
     borderopacity="1.0"
     inkscape:pageopacity="0.0"
     inkscape:pageshadow="2"
     inkscape:zoom="23.625"
     inkscape:cx="3.6165275"
     inkscape:cy="6.6927189"
     inkscape:document-units="px"
     inkscape:current-layer="layer1"
     showgrid="true"
     inkscape:snap-page="true"
     inkscape:snap-global="true"
     inkscape:snap-center="true"
     inkscape:snap-object-midpoints="false"
     showguides="true"
     inkscape:guide-bbox="true"
     inkscape:snap-bbox="true"
     inkscape:object-paths="true"
     inkscape:object-nodes="true"
     inkscape:window-width="1305"
     inkscape:window-height="744"
     inkscape:window-x="61"
     inkscape:window-y="24"
     inkscape:window-maximized="1"
     inkscape:snap-midpoints="false"
     inkscape:snap-grids="true"
     inkscape:snap-to-guides="false"
     fit-margin-top="0"
     fit-margin-left="0"
     fit-margin-right="0"
     fit-margin-bottom="0">
    <inkscape:grid
       type="xygrid"
       id="grid3856"
       empspacing="5"
       visible="true"
       enabled="true"
       snapvisiblegridlinesonly="true"
       originx="-2px"
       originy="-2.0000321px" />
    <sodipodi:guide
       orientation="0,1"
       position="-5,17.999969"
       id="guide2994" />
    <sodipodi:guide
       orientation="0,1"
       position="-4,1.9999678"
       id="guide2996" />
  </sodipodi:namedview>
  <metadata
     id="metadata7">
    <rdf:RDF>
      <cc:Work
         rdf:about="">
        <dc:format>image/svg+xml</dc:format>
        <dc:type
           rdf:resource="http://purl.org/dc/dcmitype/StillImage" />
        <dc:title />
      </cc:Work>
    </rdf:RDF>
  </metadata>
  <g
     inkscape:label="Layer 1"
     inkscape:groupmode="layer"
     id="layer1"
     transform="translate(-2,-1035.3622)">
    <path
       style="fill:#262626;fill-opacity:1;fill-rule:evenodd;stroke:none"
       d="M 2,4 2,16 18,16 18,4 2,4 z m 8,1 c 2.761406,0 5,2.2386 5,5 0,0.715725 -0.166605,1.384393 -0.4375,2 L 14,12 l 0,-1 -1,0 -1,0 0,1 1,0 0,1 0.96875,0 C 13.055413,14.199547 11.624024,15 10,15 7.238594,15 5,12.7614 5,10 5,7.2386 7.238594,5 10,5 z m 0,3.34375 C 9.0795318,8.34375 8.34375,9.0795 8.34375,10 c 0,0.9205 0.7357818,1.65625 1.65625,1.65625 0.920468,0 1.65625,-0.73575 1.65625,-1.65625 C 11.65625,9.0795 10.920468,8.34375 10,8.34375 z M 2,17 l 0,3 16,0 0,-3 -16,0 z m 1,1 8,0 0,1 -8,0 0,-1 z m 10,0 4,0 0,1 -4,0 0,-1 z"
       transform="translate(0,1031.3622)"
       id="rect3789"
       inkscape:connector-curvature="0" />
  </g>
</svg>
