<?xml version="1.0" encoding="UTF-8" standalone="no"?>
<!-- Created with Inkscape (http://www.inkscape.org/) -->

<svg
   xmlns:dc="http://purl.org/dc/elements/1.1/"
   xmlns:cc="http://creativecommons.org/ns#"
   xmlns:rdf="http://www.w3.org/1999/02/22-rdf-syntax-ns#"
   xmlns:svg="http://www.w3.org/2000/svg"
   xmlns="http://www.w3.org/2000/svg"
   xmlns:xlink="http://www.w3.org/1999/xlink"
   xmlns:sodipodi="http://sodipodi.sourceforge.net/DTD/sodipodi-0.dtd"
   xmlns:inkscape="http://www.inkscape.org/namespaces/inkscape"
   width="96"
   height="96"
   id="svg2"
   version="1.1"
   inkscape:version="0.48.4 r9939"
   sodipodi:docname="drive-harddisk-ieee1394.svg">
  <defs
     id="defs4">
    <linearGradient
       id="linearGradient3839">
      <stop
         style="stop-color:#f9f70c;stop-opacity:1;"
         offset="0"
         id="stop3841" />
      <stop
         style="stop-color:#f99b0c;stop-opacity:0;"
         offset="1"
         id="stop3843" />
    </linearGradient>
    <linearGradient
       inkscape:collect="always"
       xlink:href="#linearGradient3839"
       id="linearGradient3849"
       gradientUnits="userSpaceOnUse"
       x1="80"
       y1="84"
       x2="80"
       y2="80"
       gradientTransform="matrix(1,0,0,1.6666609,-30,903.02929)" />
    <linearGradient
       inkscape:collect="always"
       xlink:href="#linearGradient3839"
       id="linearGradient3867"
       gradientUnits="userSpaceOnUse"
       gradientTransform="matrix(1,0,0,1.6666609,-46,903.02926)"
       x1="80"
       y1="84"
       x2="80"
       y2="80" />
    <linearGradient
       inkscape:collect="always"
       xlink:href="#linearGradient3839"
       id="linearGradient3869"
       gradientUnits="userSpaceOnUse"
       gradientTransform="matrix(1,0,0,1.6666609,-46,903.02926)"
       x1="80"
       y1="84"
       x2="80"
       y2="80" />
    <linearGradient
       inkscape:collect="always"
       xlink:href="#linearGradient3839"
       id="linearGradient3871"
       gradientUnits="userSpaceOnUse"
       gradientTransform="matrix(1,0,0,1.6666609,-46,903.02926)"
       x1="80"
       y1="84"
       x2="80"
       y2="80" />
    <linearGradient
       inkscape:collect="always"
       xlink:href="#linearGradient3839"
       id="linearGradient3873"
       gradientUnits="userSpaceOnUse"
       gradientTransform="matrix(1,0,0,1.6666609,-46,903.02926)"
       x1="80"
       y1="84"
       x2="80"
       y2="80" />
    <linearGradient
       inkscape:collect="always"
       xlink:href="#linearGradient3839"
       id="linearGradient3875"
       gradientUnits="userSpaceOnUse"
       gradientTransform="matrix(1,0,0,1.6666609,-30,903.02929)"
       x1="80"
       y1="84"
       x2="80"
       y2="80" />
    <linearGradient
       inkscape:collect="always"
       xlink:href="#linearGradient3839"
       id="linearGradient3877"
       gradientUnits="userSpaceOnUse"
       gradientTransform="matrix(1,0,0,1.6666609,-30,903.02929)"
       x1="80"
       y1="84"
       x2="80"
       y2="80" />
    <linearGradient
       inkscape:collect="always"
       xlink:href="#linearGradient3839"
       id="linearGradient3879"
       gradientUnits="userSpaceOnUse"
       gradientTransform="matrix(1,0,0,1.6666609,-30,903.02929)"
       x1="80"
       y1="84"
       x2="80"
       y2="80" />
    <linearGradient
       inkscape:collect="always"
       xlink:href="#linearGradient3839"
       id="linearGradient3893"
       gradientUnits="userSpaceOnUse"
       gradientTransform="matrix(1,0,0,1.6666667,-2,903.02885)"
       x1="80"
       y1="84"
       x2="80"
       y2="80" />
    <linearGradient
       id="linearGradient3828">
      <stop
         id="stop3830"
         offset="0"
         style="stop-color:#676767;stop-opacity:1;" />
      <stop
         style="stop-color:#cccccc;stop-opacity:1;"
         offset="0.05555536"
         id="stop3832" />
      <stop
         style="stop-color:#b3b3b3;stop-opacity:1;"
         offset="0.11111114"
         id="stop3834" />
      <stop
         style="stop-color:#ffffff;stop-opacity:1;"
         offset="0.92222226"
         id="stop3836" />
      <stop
         style="stop-color:#aeaeae;stop-opacity:1;"
         offset="0.9666667"
         id="stop3838" />
      <stop
         id="stop3840"
         offset="1"
         style="stop-color:#494949;stop-opacity:1;" />
    </linearGradient>
    <linearGradient
       inkscape:collect="always"
       xlink:href="#linearGradient3828"
       id="linearGradient3841"
       x1="1.045977"
       y1="-1001.8622"
       x2="94"
       y2="-1001.8622"
       gradientUnits="userSpaceOnUse"
       gradientTransform="translate(-95.045979,0)" />
  </defs>
  <sodipodi:namedview
     id="base"
     pagecolor="#ffffff"
     bordercolor="#666666"
     borderopacity="1.0"
     inkscape:pageopacity="0.0"
     inkscape:pageshadow="2"
     inkscape:zoom="5.90625"
     inkscape:cx="18.317905"
     inkscape:cy="37.975267"
     inkscape:document-units="px"
     inkscape:current-layer="layer1"
     showgrid="true"
     inkscape:snap-page="true"
     inkscape:snap-global="true"
     inkscape:snap-center="true"
     inkscape:snap-object-midpoints="false"
     showguides="true"
     inkscape:guide-bbox="true"
     inkscape:snap-bbox="true"
     inkscape:object-paths="true"
     inkscape:object-nodes="true"
     inkscape:window-width="1305"
     inkscape:window-height="744"
     inkscape:window-x="61"
     inkscape:window-y="24"
     inkscape:window-maximized="1"
     inkscape:snap-midpoints="false"
     inkscape:snap-grids="true"
     inkscape:snap-to-guides="false">
    <inkscape:grid
       type="xygrid"
       id="grid3002"
       empspacing="5"
       visible="true"
       enabled="true"
       snapvisiblegridlinesonly="true" />
  </sodipodi:namedview>
  <metadata
     id="metadata7">
    <rdf:RDF>
      <cc:Work
         rdf:about="">
        <dc:format>image/svg+xml</dc:format>
        <dc:type
           rdf:resource="http://purl.org/dc/dcmitype/StillImage" />
        <dc:title />
      </cc:Work>
    </rdf:RDF>
  </metadata>
  <g
     inkscape:label="Layer 1"
     inkscape:groupmode="layer"
     id="layer1"
     transform="translate(0,-956.36218)">
    <rect
       style="fill:#ffffff;fill-opacity:0;fill-rule:nonzero;stroke:none"
       id="rect3775"
       width="96"
       height="96"
       x="0"
       y="956.36218"
       ry="0" />
    <path
       style="fill:#000000;fill-opacity:0.09589041;fill-rule:nonzero;stroke:none"
       d="m 3.353015,956.30662 c -1.884176,0 -3.4111555,1.43156 -3.4111555,3.19799 l 0,83.65949 c 0,1.7665 1.5269795,3.1981 3.4111555,3.1981 l 89.23583,0 c 1.884174,0 3.411155,-1.4316 3.411155,-3.1981 l 0,-83.65949 c 0,-1.76643 -1.526981,-3.19799 -3.411155,-3.19799 z"
       id="rect3772"
       inkscape:connector-curvature="0"
       sodipodi:nodetypes="sssssssss" />
    <path
       style="fill:#000000;fill-opacity:0.18721463;fill-rule:nonzero;stroke:none"
       d="m 1.0459761,1041.8066 0,7.4219 c 0,1.7392 1.461916,3.1337 3.2852054,3.1337 l 86.3836135,0 c 1.823288,0 3.285205,-1.3945 3.285205,-3.1337 l 0,-7.4219 -92.9540239,0 z"
       id="rect3785"
       inkscape:connector-curvature="0" />
    <path
       style="fill:#000000;fill-opacity:0.38356168;fill-rule:nonzero;stroke:none"
       d="m 1.0459761,1041.8066 0,5.3807 c 0,1.762 1.461916,3.1749 3.2852054,3.1749 l 86.3836135,0 c 1.823288,0 3.285205,-1.4129 3.285205,-3.1749 l 0,-5.3807 -92.9540239,0 z"
       id="rect3783"
       inkscape:connector-curvature="0" />
    <rect
       style="fill:url(#linearGradient3841);fill-opacity:1;fill-rule:nonzero;stroke:none"
       id="rect2985"
       width="92.954025"
       height="89"
       x="-94"
       y="-1046.3622"
       ry="3.1511393"
       transform="scale(-1,-1)" />
    <path
       inkscape:connector-curvature="0"
       style="fill:#000000;fill-opacity:0.26027395"
       d="m 61.94328,972.43645 -8.74782,7.84738 6.96022,6.20313 8.74784,-7.76573 -6.96024,-6.28478 z m -26.61624,0.30778 -7.97194,7.15073 2.65478,2.38202 7.97196,-7.19278 -2.6548,-2.33997 z m 5.30956,4.72816 -7.97192,7.14438 2.66236,2.38838 7.96434,-7.15149 -2.65478,-2.38127 z M 48,983.56601 c -4.71526,0 -8.53484,3.43334 -8.53484,7.66294 0,4.22904 3.81958,7.65661 8.53484,7.65661 4.71526,0 8.54246,-3.42719 8.54246,-7.65661 0,-4.22997 -3.82774,-7.66294 -8.54246,-7.66294 z m 0,3.37074 c 2.64166,0 4.7847,1.92401 4.7847,4.2922 0,2.36931 -2.14304,4.28585 -4.7847,4.28585 -2.64056,0 -4.77756,-1.91654 -4.77708,-4.28585 0,-2.36819 2.13652,-4.2922 4.77708,-4.2922 z m -5.63664,15.31995 0,3.3702 11.27328,0 0,-3.3702 -11.27328,0 z m 0,6.7346 0,3.3709 11.27328,0 0,-3.3709 -11.27328,0 z"
       id="path9" />
    <path
       style="fill:#333333;fill-opacity:1"
       d="m 61.9375,972.28942 -8.75,7.85435 0.4375,0.37957 8.3125,-7.44556 6.53125,5.89806 0.4375,-0.37959 -6.96875,-6.30683 z m -26.625,0.32118 -7.96875,7.15359 0.4375,0.37958 7.53125,-6.77401 2.21875,1.95629 0.4375,-0.37958 -2.65625,-2.33587 z m 5.3125,4.73012 -7.96875,7.15359 0.4375,0.37959 7.53125,-6.77402 2.21875,2.01469 0.4375,-0.37958 -2.65625,-2.39427 z M 48,983.44318 c -4.71526,0 -8.53125,3.42036 -8.53125,7.64995 0,0.1271 -0.0068,0.25401 0,0.37959 0.228175,-4.047 3.963124,-7.27039 8.53125,-7.27039 4.567603,0 8.302598,3.22308 8.53125,7.27039 0.0068,-0.12559 0,-0.25248 0,-0.37959 0,-4.22997 -3.81653,-7.64995 -8.53125,-7.64995 z m -4.75,8.02954 c -0.01306,0.12931 -0.03125,0.24723 -0.03125,0.37957 -4.8e-4,2.36932 2.14069,4.29216 4.78125,4.29216 2.64166,0 4.78125,-1.92284 4.78125,-4.29216 0,-0.13234 -0.01815,-0.25026 -0.03125,-0.37957 -0.214571,2.19092 -2.251103,3.91257 -4.75,3.91257 -2.497856,0 -4.536423,-1.72165 -4.75,-3.91257 z m -0.875,10.65738 0,0.7592 11.25,0 0,-0.7592 -11.25,0 z m 0,6.7156 0,0.7883 11.25,0 0,-0.7883 -11.25,0 z"
       id="path3270"
       inkscape:connector-curvature="0" />
    <path
       style="fill:#000000;fill-opacity:0.42922375;fill-rule:nonzero;stroke:none"
       d="m 94,1035.4872 c 0,-0.8729 -0.336682,-1.6492 -0.90625,-2.2188 -0.569568,-0.5695 -1.377134,-0.9375 -2.25,-0.9375 l -86.65625,0 c -0.8728656,0 -1.6491816,0.368 -2.21875,0.9375 -0.5695684,0.5696 -0.9375,1.3459 -0.9375,2.2188 l 0,9.7187 c 0,1.7458 1.4105189,3.1563 3.15625,3.1563 l 86.65625,0 c 1.745731,0 3.15625,-1.4105 3.15625,-3.1563 l 0,-9.7187 z"
       id="path3848"
       inkscape:connector-curvature="0" />
    <rect
       style="fill:#010101;fill-opacity:1;fill-rule:evenodd;stroke:none"
       id="rect3824"
       width="38"
       height="5.9999948"
       x="-64"
       y="1036.3622"
       transform="scale(-1,1)" />
    <rect
       style="fill:#010101;fill-opacity:1;fill-rule:evenodd;stroke:none"
       id="rect3895"
       width="66"
       height="9.9999952"
       x="24"
       y="1036.3622" />
    <rect
       transform="scale(-1,1)"
       y="1038.3622"
       x="-64"
       height="5"
       width="2"
       id="rect3812"
       style="fill:#424242;fill-opacity:1;fill-rule:evenodd;stroke:none" />
    <rect
       transform="scale(-1,1)"
       y="1042.3622"
       x="-64"
       height="2.0000052"
       width="38"
       id="rect3814"
       style="fill:#424242;fill-opacity:1;fill-rule:evenodd;stroke:none" />
    <rect
       y="1036.3622"
       x="68"
       height="5.9999976"
       width="20"
       id="rect3820"
       style="fill:#010101;fill-opacity:1;fill-rule:evenodd;stroke:none" />
    <rect
       style="fill:#1c1c1c;fill-opacity:1;fill-rule:evenodd;stroke:none"
       id="rect3822"
       width="2"
       height="1.9999974"
       x="68"
       y="1036.3622" />
    <rect
       style="fill:#424242;fill-opacity:1;fill-rule:evenodd;stroke:none"
       id="rect3808"
       width="2"
       height="4.9999952"
       x="68"
       y="1038.3622" />
    <rect
       style="fill:#424242;fill-opacity:1;fill-rule:evenodd;stroke:none"
       id="rect3810"
       width="20"
       height="2.0000052"
       x="68"
       y="1042.3622" />
    <rect
       y="1036.3622"
       x="62"
       height="1.9999974"
       width="2"
       id="rect3826"
       style="fill:#1c1c1c;fill-opacity:1;fill-rule:evenodd;stroke:none" />
    <path
       style="fill:url(#linearGradient3893);fill-opacity:1;fill-rule:evenodd;stroke:none"
       d="m 72,1036.3622 0,5 2,0 0,-5 -2,0 z m 4,0 0,5 2,0 0,-5 -2,0 z m 4,0 0,5 2,0 0,-5 -2,0 z m 4,0 0,5 2,0 0,-5 -2,0 z"
       id="rect3828"
       inkscape:connector-curvature="0" />
    <path
       style="fill:url(#linearGradient3849);fill-opacity:1;fill-rule:evenodd;stroke:none"
       d="m 44,1036.3622 0,5 2,0 0,-5 -2,0 z"
       id="path3857"
       inkscape:connector-curvature="0" />
    <path
       style="fill:url(#linearGradient3879);fill-opacity:1;fill-rule:evenodd;stroke:none"
       d="m 48,1036.3622 0,5 2,0 0,-5 -2,0 z"
       id="path3855"
       inkscape:connector-curvature="0" />
    <path
       style="fill:url(#linearGradient3877);fill-opacity:1;fill-rule:evenodd;stroke:none"
       d="m 52,1036.3622 0,5 2,0 0,-5 -2,0 z"
       id="path3853"
       inkscape:connector-curvature="0" />
    <path
       style="fill:url(#linearGradient3875);fill-opacity:1;fill-rule:evenodd;stroke:none"
       d="m 56,1036.3622 0,5 2,0 0,-5 -2,0 z"
       id="path3847"
       inkscape:connector-curvature="0" />
    <path
       id="path3859"
       d="m 28,1036.3622 0,5 2,0 0,-5 -2,0 z"
       style="fill:url(#linearGradient3867);fill-opacity:1;fill-rule:evenodd;stroke:none"
       inkscape:connector-curvature="0" />
    <path
       id="path3861"
       d="m 32,1036.3622 0,5 2,0 0,-5 -2,0 z"
       style="fill:url(#linearGradient3869);fill-opacity:1;fill-rule:evenodd;stroke:none"
       inkscape:connector-curvature="0" />
    <path
       id="path3863"
       d="m 36,1036.3622 0,5 2,0 0,-5 -2,0 z"
       style="fill:url(#linearGradient3871);fill-opacity:1;fill-rule:evenodd;stroke:none"
       inkscape:connector-curvature="0" />
    <path
       id="path3865"
       d="m 40,1036.3622 0,5 2,0 0,-5 -2,0 z"
       style="fill:url(#linearGradient3873);fill-opacity:1;fill-rule:evenodd;stroke:none"
       inkscape:connector-curvature="0" />
    <path
       style="fill:#ffffff;fill-opacity:0.84931505;fill-rule:nonzero;stroke:none"
       d="m 4.1875,1030.3309 c -0.8728656,0 -1.6491816,0.368 -2.21875,0.9375 -0.5695684,0.5696 -0.9375,1.3459 -0.9375,2.2188 l 0,2 c 0,-0.8729 0.3679316,-1.6492 0.9375,-2.2188 0.5695684,-0.5695 1.3458844,-0.9375 2.21875,-0.9375 l 86.65625,0 c 0.872866,0 1.680432,0.368 2.25,0.9375 0.569568,0.5696 0.90625,1.3459 0.90625,2.2188 l 0,-2 c 0,-0.8729 -0.336682,-1.6492 -0.90625,-2.2188 -0.569568,-0.5695 -1.377134,-0.9375 -2.25,-0.9375 l -86.65625,0 z"
       id="path3850"
       inkscape:connector-curvature="0" />
  </g>
</svg>
