<?xml version="1.0" encoding="UTF-8" standalone="no"?>
<!-- Created with Inkscape (http://www.inkscape.org/) -->

<svg
   xmlns:dc="http://purl.org/dc/elements/1.1/"
   xmlns:cc="http://creativecommons.org/ns#"
   xmlns:rdf="http://www.w3.org/1999/02/22-rdf-syntax-ns#"
   xmlns:svg="http://www.w3.org/2000/svg"
   xmlns="http://www.w3.org/2000/svg"
   xmlns:xlink="http://www.w3.org/1999/xlink"
   xmlns:sodipodi="http://sodipodi.sourceforge.net/DTD/sodipodi-0.dtd"
   xmlns:inkscape="http://www.inkscape.org/namespaces/inkscape"
   width="96"
   height="96"
   id="svg2"
   version="1.1"
   inkscape:version="0.48.4 r9939"
   sodipodi:docname="drive-harddisk-system.svg">
  <defs
     id="defs4">
    <linearGradient
       id="linearGradient3839">
      <stop
         style="stop-color:#f9f70c;stop-opacity:1;"
         offset="0"
         id="stop3841" />
      <stop
         style="stop-color:#f99b0c;stop-opacity:0;"
         offset="1"
         id="stop3843" />
    </linearGradient>
    <linearGradient
       inkscape:collect="always"
       xlink:href="#linearGradient3839"
       id="linearGradient3849"
       gradientUnits="userSpaceOnUse"
       x1="80"
       y1="84"
       x2="80"
       y2="80"
       gradientTransform="matrix(1,0,0,1.6666609,-30,903.02929)" />
    <linearGradient
       inkscape:collect="always"
       xlink:href="#linearGradient3839"
       id="linearGradient3867"
       gradientUnits="userSpaceOnUse"
       gradientTransform="matrix(1,0,0,1.6666609,-46,903.02926)"
       x1="80"
       y1="84"
       x2="80"
       y2="80" />
    <linearGradient
       inkscape:collect="always"
       xlink:href="#linearGradient3839"
       id="linearGradient3869"
       gradientUnits="userSpaceOnUse"
       gradientTransform="matrix(1,0,0,1.6666609,-46,903.02926)"
       x1="80"
       y1="84"
       x2="80"
       y2="80" />
    <linearGradient
       inkscape:collect="always"
       xlink:href="#linearGradient3839"
       id="linearGradient3871"
       gradientUnits="userSpaceOnUse"
       gradientTransform="matrix(1,0,0,1.6666609,-46,903.02926)"
       x1="80"
       y1="84"
       x2="80"
       y2="80" />
    <linearGradient
       inkscape:collect="always"
       xlink:href="#linearGradient3839"
       id="linearGradient3873"
       gradientUnits="userSpaceOnUse"
       gradientTransform="matrix(1,0,0,1.6666609,-46,903.02926)"
       x1="80"
       y1="84"
       x2="80"
       y2="80" />
    <linearGradient
       inkscape:collect="always"
       xlink:href="#linearGradient3839"
       id="linearGradient3875"
       gradientUnits="userSpaceOnUse"
       gradientTransform="matrix(1,0,0,1.6666609,-30,903.02929)"
       x1="80"
       y1="84"
       x2="80"
       y2="80" />
    <linearGradient
       inkscape:collect="always"
       xlink:href="#linearGradient3839"
       id="linearGradient3877"
       gradientUnits="userSpaceOnUse"
       gradientTransform="matrix(1,0,0,1.6666609,-30,903.02929)"
       x1="80"
       y1="84"
       x2="80"
       y2="80" />
    <linearGradient
       inkscape:collect="always"
       xlink:href="#linearGradient3839"
       id="linearGradient3879"
       gradientUnits="userSpaceOnUse"
       gradientTransform="matrix(1,0,0,1.6666609,-30,903.02929)"
       x1="80"
       y1="84"
       x2="80"
       y2="80" />
    <linearGradient
       inkscape:collect="always"
       xlink:href="#linearGradient3839"
       id="linearGradient3893"
       gradientUnits="userSpaceOnUse"
       gradientTransform="matrix(1,0,0,1.6666667,-2,903.02885)"
       x1="80"
       y1="84"
       x2="80"
       y2="80" />
    <linearGradient
       id="linearGradient3828">
      <stop
         id="stop3830"
         offset="0"
         style="stop-color:#676767;stop-opacity:1;" />
      <stop
         style="stop-color:#cccccc;stop-opacity:1;"
         offset="0.05555536"
         id="stop3832" />
      <stop
         style="stop-color:#b3b3b3;stop-opacity:1;"
         offset="0.11111114"
         id="stop3834" />
      <stop
         style="stop-color:#ffffff;stop-opacity:1;"
         offset="0.92222226"
         id="stop3836" />
      <stop
         style="stop-color:#aeaeae;stop-opacity:1;"
         offset="0.9666667"
         id="stop3838" />
      <stop
         id="stop3840"
         offset="1"
         style="stop-color:#494949;stop-opacity:1;" />
    </linearGradient>
    <linearGradient
       inkscape:collect="always"
       xlink:href="#linearGradient3828"
       id="linearGradient3841"
       x1="1.045977"
       y1="-1001.8622"
       x2="94"
       y2="-1001.8622"
       gradientUnits="userSpaceOnUse"
       gradientTransform="translate(-95.045979,0)" />
  </defs>
  <sodipodi:namedview
     id="base"
     pagecolor="#ffffff"
     bordercolor="#666666"
     borderopacity="1.0"
     inkscape:pageopacity="0.0"
     inkscape:pageshadow="2"
     inkscape:zoom="5.2325684"
     inkscape:cx="44.90953"
     inkscape:cy="44.698413"
     inkscape:document-units="px"
     inkscape:current-layer="layer1"
     showgrid="true"
     inkscape:snap-page="true"
     inkscape:snap-global="false"
     inkscape:snap-center="true"
     inkscape:snap-object-midpoints="false"
     showguides="true"
     inkscape:guide-bbox="true"
     inkscape:snap-bbox="true"
     inkscape:object-paths="true"
     inkscape:object-nodes="true"
     inkscape:window-width="1305"
     inkscape:window-height="744"
     inkscape:window-x="61"
     inkscape:window-y="24"
     inkscape:window-maximized="1"
     inkscape:snap-midpoints="false"
     inkscape:snap-grids="false"
     inkscape:snap-to-guides="false">
    <inkscape:grid
       type="xygrid"
       id="grid3002"
       empspacing="5"
       visible="true"
       enabled="true"
       snapvisiblegridlinesonly="true" />
  </sodipodi:namedview>
  <metadata
     id="metadata7">
    <rdf:RDF>
      <cc:Work
         rdf:about="">
        <dc:format>image/svg+xml</dc:format>
        <dc:type
           rdf:resource="http://purl.org/dc/dcmitype/StillImage" />
        <dc:title />
      </cc:Work>
    </rdf:RDF>
  </metadata>
  <g
     inkscape:label="Layer 1"
     inkscape:groupmode="layer"
     id="layer1"
     transform="translate(0,-956.36218)">
    <rect
       style="fill:#ffffff;fill-opacity:0;fill-rule:nonzero;stroke:none"
       id="rect3775"
       width="96"
       height="96"
       x="0"
       y="956.36218"
       ry="0" />
    <path
       style="fill:#000000;fill-opacity:0.09589041;fill-rule:nonzero;stroke:none"
       d="m 3.353015,956.30662 c -1.884176,0 -3.4111555,1.43156 -3.4111555,3.19799 l 0,83.65949 c 0,1.7665 1.5269795,3.1981 3.4111555,3.1981 l 89.23583,0 c 1.884174,0 3.411155,-1.4316 3.411155,-3.1981 l 0,-83.65949 c 0,-1.76643 -1.526981,-3.19799 -3.411155,-3.19799 z"
       id="rect3772"
       inkscape:connector-curvature="0"
       sodipodi:nodetypes="sssssssss" />
    <path
       style="fill:#000000;fill-opacity:0.18721463;fill-rule:nonzero;stroke:none"
       d="m 1.0459761,1041.8066 0,7.4219 c 0,1.7392 1.461916,3.1337 3.2852054,3.1337 l 86.3836135,0 c 1.823288,0 3.285205,-1.3945 3.285205,-3.1337 l 0,-7.4219 -92.9540239,0 z"
       id="rect3785"
       inkscape:connector-curvature="0" />
    <path
       style="fill:#000000;fill-opacity:0.38356168;fill-rule:nonzero;stroke:none"
       d="m 1.0459761,1041.8066 0,5.3807 c 0,1.762 1.461916,3.1749 3.2852054,3.1749 l 86.3836135,0 c 1.823288,0 3.285205,-1.4129 3.285205,-3.1749 l 0,-5.3807 -92.9540239,0 z"
       id="rect3783"
       inkscape:connector-curvature="0" />
    <rect
       style="fill:url(#linearGradient3841);fill-opacity:1;fill-rule:nonzero;stroke:none"
       id="rect2985"
       width="92.954025"
       height="89"
       x="-94"
       y="-1046.3622"
       ry="3.1511393"
       transform="scale(-1,-1)" />
    <path
       style="fill:#000000;fill-opacity:0.42922375;fill-rule:nonzero;stroke:none"
       d="m 94,1035.4872 c 0,-0.8729 -0.336682,-1.6492 -0.90625,-2.2188 -0.569568,-0.5695 -1.377134,-0.9375 -2.25,-0.9375 l -86.65625,0 c -0.8728656,0 -1.6491816,0.368 -2.21875,0.9375 -0.5695684,0.5696 -0.9375,1.3459 -0.9375,2.2188 l 0,9.7187 c 0,1.7458 1.4105189,3.1563 3.15625,3.1563 l 86.65625,0 c 1.745731,0 3.15625,-1.4105 3.15625,-3.1563 l 0,-9.7187 z"
       id="path3848"
       inkscape:connector-curvature="0" />
    <rect
       style="fill:#010101;fill-opacity:1;fill-rule:evenodd;stroke:none"
       id="rect3824"
       width="38"
       height="5.9999948"
       x="-64"
       y="1036.3622"
       transform="scale(-1,1)" />
    <rect
       style="fill:#010101;fill-opacity:1;fill-rule:evenodd;stroke:none"
       id="rect3895"
       width="66"
       height="9.9999952"
       x="24"
       y="1036.3622" />
    <rect
       transform="scale(-1,1)"
       y="1038.3622"
       x="-64"
       height="5"
       width="2"
       id="rect3812"
       style="fill:#424242;fill-opacity:1;fill-rule:evenodd;stroke:none" />
    <rect
       transform="scale(-1,1)"
       y="1042.3622"
       x="-64"
       height="2.0000052"
       width="38"
       id="rect3814"
       style="fill:#424242;fill-opacity:1;fill-rule:evenodd;stroke:none" />
    <rect
       y="1036.3622"
       x="68"
       height="5.9999976"
       width="20"
       id="rect3820"
       style="fill:#010101;fill-opacity:1;fill-rule:evenodd;stroke:none" />
    <rect
       style="fill:#1c1c1c;fill-opacity:1;fill-rule:evenodd;stroke:none"
       id="rect3822"
       width="2"
       height="1.9999974"
       x="68"
       y="1036.3622" />
    <rect
       style="fill:#424242;fill-opacity:1;fill-rule:evenodd;stroke:none"
       id="rect3808"
       width="2"
       height="4.9999952"
       x="68"
       y="1038.3622" />
    <rect
       style="fill:#424242;fill-opacity:1;fill-rule:evenodd;stroke:none"
       id="rect3810"
       width="20"
       height="2.0000052"
       x="68"
       y="1042.3622" />
    <rect
       y="1036.3622"
       x="62"
       height="1.9999974"
       width="2"
       id="rect3826"
       style="fill:#1c1c1c;fill-opacity:1;fill-rule:evenodd;stroke:none" />
    <path
       style="fill:url(#linearGradient3893);fill-opacity:1;fill-rule:evenodd;stroke:none"
       d="m 72,1036.3622 0,5 2,0 0,-5 -2,0 z m 4,0 0,5 2,0 0,-5 -2,0 z m 4,0 0,5 2,0 0,-5 -2,0 z m 4,0 0,5 2,0 0,-5 -2,0 z"
       id="rect3828"
       inkscape:connector-curvature="0" />
    <path
       style="fill:url(#linearGradient3849);fill-opacity:1;fill-rule:evenodd;stroke:none"
       d="m 44,1036.3622 0,5 2,0 0,-5 -2,0 z"
       id="path3857"
       inkscape:connector-curvature="0" />
    <path
       style="fill:url(#linearGradient3879);fill-opacity:1;fill-rule:evenodd;stroke:none"
       d="m 48,1036.3622 0,5 2,0 0,-5 -2,0 z"
       id="path3855"
       inkscape:connector-curvature="0" />
    <path
       style="fill:url(#linearGradient3877);fill-opacity:1;fill-rule:evenodd;stroke:none"
       d="m 52,1036.3622 0,5 2,0 0,-5 -2,0 z"
       id="path3853"
       inkscape:connector-curvature="0" />
    <path
       style="fill:url(#linearGradient3875);fill-opacity:1;fill-rule:evenodd;stroke:none"
       d="m 56,1036.3622 0,5 2,0 0,-5 -2,0 z"
       id="path3847"
       inkscape:connector-curvature="0" />
    <path
       id="path3859"
       d="m 28,1036.3622 0,5 2,0 0,-5 -2,0 z"
       style="fill:url(#linearGradient3867);fill-opacity:1;fill-rule:evenodd;stroke:none"
       inkscape:connector-curvature="0" />
    <path
       id="path3861"
       d="m 32,1036.3622 0,5 2,0 0,-5 -2,0 z"
       style="fill:url(#linearGradient3869);fill-opacity:1;fill-rule:evenodd;stroke:none"
       inkscape:connector-curvature="0" />
    <path
       id="path3863"
       d="m 36,1036.3622 0,5 2,0 0,-5 -2,0 z"
       style="fill:url(#linearGradient3871);fill-opacity:1;fill-rule:evenodd;stroke:none"
       inkscape:connector-curvature="0" />
    <path
       id="path3865"
       d="m 40,1036.3622 0,5 2,0 0,-5 -2,0 z"
       style="fill:url(#linearGradient3873);fill-opacity:1;fill-rule:evenodd;stroke:none"
       inkscape:connector-curvature="0" />
    <path
       style="fill:#ffffff;fill-opacity:0.84931505;fill-rule:nonzero;stroke:none"
       d="m 4.1875,1030.3309 c -0.8728656,0 -1.6491816,0.368 -2.21875,0.9375 -0.5695684,0.5696 -0.9375,1.3459 -0.9375,2.2188 l 0,2 c 0,-0.8729 0.3679316,-1.6492 0.9375,-2.2188 0.5695684,-0.5695 1.3458844,-0.9375 2.21875,-0.9375 l 86.65625,0 c 0.872866,0 1.680432,0.368 2.25,0.9375 0.569568,0.5696 0.90625,1.3459 0.90625,2.2188 l 0,-2 c 0,-0.8729 -0.336682,-1.6492 -0.90625,-2.2188 -0.569568,-0.5695 -1.377134,-0.9375 -2.25,-0.9375 l -86.65625,0 z"
       id="path3850"
       inkscape:connector-curvature="0" />
    <path
       style="fill:#000000;fill-opacity:0.27843137;stroke:none"
       d="m 47.178507,967.37775 c -0.281708,0.003 -0.559906,0.008 -0.861126,0.0313 -9.516756,0.69665 -6.988309,9.84475 -7.130129,12.90732 -0.208391,2.68635 -0.90482,4.67897 -3.547842,7.55015 -0.3232,0.36264 -0.614066,0.74003 -0.895572,1.12781 -0.0315,0.0435 -0.07235,0.0817 -0.103335,0.12533 -2.588373,3.31045 -5.22033,7.82425 -4.546748,11.77938 0.385462,-0.3133 0.831135,-0.5603 1.412247,-0.6265 0.226529,-0.026 0.473665,-0.039 0.757792,0 1.095589,0.1509 1.983116,0.8372 2.755605,1.7857 0.772489,0.9486 1.449066,2.1682 2.135594,3.5088 0.357114,0.6783 1.110112,1.5466 1.894479,2.4437 2.98834,0.066 2.658859,-3.0791 -2.996721,-6.2345 -5.495799,-3.11113 -1.781684,-8.97019 0.103335,-11.7794 0.02836,-0.0422 0.07585,-0.0844 0.103335,-0.12531 0.343142,-0.29568 0.26544,0.0964 -0.826681,1.94236 -0.896022,1.54249 -2.552796,5.0835 -0.275561,7.86334 0.07176,-1.97213 0.611788,-3.97724 1.481138,-5.85833 1.269546,-2.61798 3.881391,-7.15846 4.098963,-10.77696 -0.592618,-0.41035 -0.982781,-0.85316 -1.136687,-1.3158 -0.205208,-0.61685 0.04029,-1.23361 0.620011,-1.62908 0.28441,-0.194 0.42312,-0.28125 0.620011,-0.40727 -0.410834,-0.52149 -0.704375,-1.2563 -0.757791,-2.099 -0.101792,-1.60593 0.694488,-2.93098 1.756698,-2.9762 1.06221,-0.0453 1.999355,1.21364 2.101149,2.81956 0.0074,0.11625 0.0018,0.23141 0,0.34461 0.33571,-0.0872 0.695177,-0.13199 1.102242,-0.12532 0.163294,0.003 0.341647,0.006 0.516676,0.0313 0.01058,10e-4 0.02383,-0.002 0.03444,0 a 2.8879949,3.7037075 0 0 1 2.858941,-3.6341 2.8879949,3.7037075 0 0 1 2.92783,3.69677 2.8933851,3.7106202 0 0 1 -0.447786,2.00501 c 0.280409,0.19092 0.484527,0.41558 0.620012,0.65791 0.2289,0.40938 0.24421,0.88802 0.06889,1.31578 -0.0825,0.2013 -0.191935,0.41024 -0.344451,0.59523 0.82035,2.90605 2.653708,7.02009 3.857847,9.05393 0.644031,1.08783 1.918538,3.41551 2.480045,6.20305 0.02266,0 0.04617,0 0.06889,0 0.356221,-0.0341 0.730677,-0.0241 1.102242,0.031 1.355461,-3.38883 -1.232983,-7.0048 -2.445599,-8.02006 -1.406844,-1.2408 0.980914,-0.53658 2.548935,1.28446 1.364378,1.5179 2.757565,4.63296 2.893385,7.86342 0.545996,0.28853 0.992384,0.57495 1.308913,0.97123 0.390168,0.48846 0.486493,1.13206 0.34445,1.72296 0.201115,0.024 0.415066,0.063 0.620011,0.1254 1.836187,-4.86762 -1.018055,-9.66375 -3.720067,-12.93863 -2.144982,-2.80939 -5.004025,-4.9888 -4.960089,-8.67799 0.05371,-4.43648 0.535014,-12.68666 -8.197926,-12.56269 z m 1.205577,8.67798 c -0.558367,0.0868 -1.095751,0.72575 -1.240022,1.56643 -0.03188,0.18569 -0.04352,0.35928 -0.03444,0.53257 0.265207,0.11651 0.546221,0.24331 0.826682,0.40727 0.324902,0.19231 0.649569,0.31009 1.067797,0.4386 0.218545,-0.28343 0.409114,-0.63912 0.482231,-1.06517 0.164882,-0.96077 -0.21813,-1.78842 -0.861127,-1.8797 -0.08038,-0.0118 -0.161348,-0.0124 -0.241116,0 z m -6.579007,0.4386 c -0.509173,0.0723 -0.819467,0.74295 -0.688901,1.50377 0.08518,0.49638 0.321263,0.88954 0.620011,1.09649 0.258837,-0.22612 0.647647,-0.62307 1.240022,-0.93986 0.0062,-0.13939 -0.009,-0.29053 -0.03444,-0.43859 -0.130566,-0.76082 -0.627514,-1.2941 -1.136687,-1.22181 z m 3.237836,1.6604 c -0.42761,-0.008 -0.803258,0.0522 -1.136687,0.15664 -0.889142,0.27857 -1.477646,0.86104 -1.860034,1.19048 -0.08658,0.0745 -0.180652,0.12716 -0.41334,0.28196 -0.232689,0.15481 -0.565242,0.37778 -1.067797,0.72055 -0.427516,0.29165 -0.560284,0.6548 -0.413341,1.0965 0.146943,0.44172 0.624177,0.95219 1.515583,1.40979 0.572473,0.30554 0.945989,0.7177 1.377802,1.03383 0.431814,0.31614 0.891629,0.55294 1.687808,0.59525 0.936685,0.0485 1.62524,-0.18246 2.23893,-0.50127 0.61369,-0.31881 1.134768,-0.72507 1.756698,-0.90852 1.219235,-0.34642 2.11249,-1.04708 2.37671,-1.69173 0.13211,-0.32234 0.120635,-0.63116 -0.03444,-0.90853 -0.15508,-0.27736 -0.470886,-0.54168 -1.033352,-0.75189 l -0.03444,0 c -1.189485,-0.46325 -1.696881,-0.50615 -2.37671,-0.90852 -0.820074,-0.47951 -1.522798,-0.6971 -2.135594,-0.78321 -0.153198,-0.0213 -0.305249,-0.0283 -0.447786,-0.0313 z m 5.09787,2.66293 a 0.27558808,0.25065249 0 0 1 0.03444,0 0.27558808,0.25065249 0 0 1 0.03445,0 0.27558808,0.25065249 0 0 1 0.103335,0.0313 0.27558808,0.25065249 0 0 1 0.03444,0.0313 0.27558808,0.25065249 0 0 1 0.03444,0.0627 0.27558808,0.25065249 0 0 1 0.03444,0.0625 0.27558808,0.25065249 0 0 1 0,0.0627 0.27558808,0.25065249 0 0 1 0,0.0627 0.27558808,0.25065249 0 0 1 -0.03444,0.094 0.27558808,0.25065249 0 0 1 -0.06889,0.0626 0.27558808,0.25065249 0 0 1 -0.06889,0.0313 0.27558808,0.25065249 0 0 1 -0.06889,0 c -0.15867,0.007 -0.453472,0.12389 -0.826682,0.31328 -0.373209,0.18939 -0.820344,0.43285 -1.308912,0.68924 -0.977135,0.5127 -2.165435,1.03383 -3.410062,1.03383 -1.242272,0 -2.227219,-0.49834 -2.92783,-1.00252 -0.350306,-0.25209 -0.615338,-0.50949 -0.826682,-0.68923 -0.105672,-0.09 -0.215279,-0.17708 -0.27556,-0.21929 -0.01809,-0.0126 -0.02397,-0.0264 -0.03444,-0.0313 a 0.27558808,0.25065249 0 0 1 -0.03445,0 0.27558808,0.25065249 0 0 1 -0.13778,-0.0627 0.27558808,0.25065249 0 0 1 -0.03444,-0.0625 0.27558808,0.25065249 0 0 1 -0.03444,-0.0627 0.27558808,0.25065249 0 0 1 0,-0.0627 0.27558808,0.25065249 0 0 1 0.03444,-0.094 0.27558808,0.25065249 0 0 1 0.03444,-0.0626 0.27558808,0.25065249 0 0 1 0.03444,-0.0313 0.27558808,0.25065249 0 0 1 0.06889,-0.0313 0.27558808,0.25065249 0 0 1 0.06889,-0.0313 0.27558808,0.25065249 0 0 1 0.03444,0 c 0.182304,0 0.252865,0.0926 0.34445,0.15665 0.09159,0.0641 0.201435,0.12698 0.310006,0.2193 0.217138,0.18466 0.467353,0.4241 0.792236,0.6579 0.649768,0.46758 1.510686,0.90851 2.58338,0.90851 1.07034,0 2.182515,-0.47164 3.134501,-0.97117 0.475994,-0.24977 0.914184,-0.48892 1.308913,-0.68922 0.394728,-0.20032 0.721928,-0.35751 1.067797,-0.37596 z m 7.95681,17.54389 c -1.00961,-0.0301 -1.720318,0.3645 -1.894479,1.4098 -0.300171,1.48515 0.396088,3.47035 1.928924,3.82205 1.502226,0.3588 3.758847,-1.0124 4.305633,-1.8797 0.645974,-1.1493 -0.02212,-1.93772 -2.238929,-2.8509 -0.773231,-0.30939 -1.495383,-0.48321 -2.101149,-0.50125 z m -26.212695,2.16175 c -0.115645,0 -0.240558,0.019 -0.344451,0.031 -1.4545,0.1664 -2.074914,1.6214 -2.99672,2.5063 -1.068502,0.9718 -2.854612,0.6413 -3.685622,2.099 -0.710226,1.1997 0.402144,3.0314 -0.03445,4.2607 -2.179885,5.4038 3.827588,3.0239 7.956811,5.0126 4.057035,1.9287 8.163773,1.3228 8.439041,-1.9738 0.233917,-2.1446 -3.331001,-4.8505 -4.340078,-6.7669 -1.36807,-2.6716 -2.691353,-4.868 -4.650084,-5.1379 -0.122428,-0.017 -0.228806,-0.033 -0.344451,-0.031 z m 23.422645,0.3759 c -1.18895,1.037 -1.339353,3.0609 -1.481138,5.6078 -0.142077,2.0965 -2.251907,5.6238 -1.136687,7.5501 1.635502,2.9872 5.861347,2.5912 8.749046,-0.5326 3.028656,-3.3406 9.735462,-2.6567 5.201205,-7.2367 -0.959354,-0.9821 -0.660168,-3.111 -1.825588,-4.0102 -0.476035,-0.3786 -0.979182,-0.516 -1.481138,-0.5639 -0.03804,0.099 -0.08803,0.1884 -0.13778,0.282 -0.0048,0.011 0.005,0.022 0,0.03 a 0.84902225,0.77220153 0 0 1 -0.03444,0.032 c -0.428066,0.6788 -1.17175,1.2314 -2.101149,1.6917 -0.153384,0.077 -0.32046,0.1508 -0.482231,0.2194 -0.816087,0.3444 -1.729773,0.5647 -2.65227,0.3445 -1.098334,-0.2522 -1.841841,-1.042 -2.23893,-1.9109 -0.220125,-0.4817 -0.340063,-0.9849 -0.378895,-1.5038 z m -2.480045,8.3019 c -3.427803,2.259 -8.214242,3.226 -12.262443,0.6267 0.628696,0.8799 1.061359,1.7745 0.964461,2.663 -0.03986,0.4772 -0.159204,0.9065 -0.34445,1.2844 1.330116,0.01 2.789347,-0.5099 5.132315,-0.6267 1.586379,-0.1174 3.5689,0.5329 5.855661,0.4074 -0.271003,-0.9859 -0.02772,-2.1372 0.310005,-3.2896 0.106675,-0.364 0.229088,-0.7078 0.344451,-1.0652 z"
       id="path106"
       inkscape:connector-curvature="0" />
    <path
       style="fill:#000000;fill-opacity:0.61568627;stroke:none"
       d="m 47.1875,967.37794 c -0.281708,0.003 -0.57378,0.0124 -0.875,0.0347 -6.54277,0.47895 -7.374402,4.93433 -7.3125,8.67872 0.137268,-3.47905 1.384266,-7.2033 7.3125,-7.63728 0.30122,-0.0223 0.593292,0.003 0.875,0 7.438034,-0.10558 8.191943,5.83136 8.21875,10.34504 0.05704,-4.57055 -0.165643,-11.53551 -8.21875,-11.42119 z m 1.1875,8.67872 c -0.558367,0.0868 -1.074479,0.72151 -1.21875,1.56217 -0.03188,0.18571 -0.04033,0.34742 -0.03125,0.52073 0.04981,0.0219 0.105436,0.0466 0.15625,0.0695 0.230486,-0.59036 0.650079,-1.00713 1.09375,-1.07615 0.07977,-0.0124 0.16962,-0.0118 0.25,0 0.42491,0.0603 0.697742,0.44264 0.8125,0.97201 0.01584,-0.0604 0.05159,-0.10999 0.0625,-0.17358 0.164882,-0.96075 -0.232003,-1.78333 -0.875,-1.8746 -0.08038,-0.0118 -0.170232,-0.0124 -0.25,0 z m -6.5625,0.45129 c -0.509173,0.0723 -0.818066,0.73193 -0.6875,1.49275 0.01289,0.0751 0.043,0.13816 0.0625,0.20828 0.112831,-0.35224 0.325981,-0.61711 0.625,-0.65958 0.38188,-0.0542 0.750033,0.22674 0.96875,0.69429 0.06434,-0.0392 0.117613,-0.0667 0.1875,-0.10409 0.0062,-0.13941 -0.0058,-0.26851 -0.03125,-0.41658 -0.130566,-0.76082 -0.615827,-1.28731 -1.125,-1.21503 z m -1.6875,1.31917 c -0.03609,0.26479 -0.04955,0.5444 -0.03125,0.83315 0.03128,0.49353 0.141176,0.92084 0.3125,1.31918 0.152864,-0.10157 0.298429,-0.18871 0.4375,-0.27772 -0.370753,-0.47061 -0.629318,-1.13402 -0.71875,-1.87461 z m 5.5,0.38186 a 2.8879949,3.7037075 0 0 0 -0.03125,0.52073 c -0.01061,-0.002 -0.02067,0.001 -0.03125,0 -0.175029,-0.0245 -0.367956,0.003 -0.53125,0 -0.407065,-0.006 -0.75804,0.0171 -1.09375,0.10409 0.0018,-0.1132 0.0074,-0.2309 0,-0.34715 -0.0038,-0.0596 -0.02521,-0.11497 -0.03125,-0.17357 -0.375887,0.11776 -0.693181,0.30169 -0.96875,0.486 0.02199,0.1371 0.03698,0.28783 0.03125,0.41658 -0.592375,0.31679 -0.959913,0.7112 -1.21875,0.93731 -0.101574,-0.0704 -0.197632,-0.16758 -0.28125,-0.27772 -0.20116,0.13429 -0.451567,0.30975 -0.8125,0.55544 0.06563,0.10707 0.11355,0.21856 0.1875,0.31243 -0.07963,0.0509 -0.175921,0.12567 -0.25,0.17357 0.182304,0 0.252165,0.0748 0.34375,0.13886 0.05409,0.0379 0.124695,0.0956 0.1875,0.13886 0.161764,-0.10891 0.390139,-0.27406 0.5,-0.34715 0.232688,-0.15481 0.31967,-0.20317 0.40625,-0.27771 0.382388,-0.32945 0.985858,-0.90174 1.875,-1.18031 0.333429,-0.10441 0.69739,-0.18246 1.125,-0.17358 0.142537,0.003 0.315552,0.0135 0.46875,0.0347 0.612796,0.0861 1.304926,0.28422 2.125,0.76373 0.640289,0.37896 1.170452,0.47513 2.21875,0.86787 0.09989,-0.0266 0.211574,-0.064 0.3125,-0.0695 a 0.27558808,0.25065249 0 0 1 0.03125,0 0.27558808,0.25065249 0 0 1 0.03125,0 0.27558808,0.25065249 0 0 1 0.03125,0 0.27558808,0.25065249 0 0 1 0.0625,0.0347 0.27558808,0.25065249 0 0 1 0.03125,0.0347 0.27558808,0.25065249 0 0 1 0.03125,0.0347 0.27558808,0.25065249 0 0 1 0,0.0347 0.27558808,0.25065249 0 0 1 0.03125,0.0695 0.27558808,0.25065249 0 0 1 0,0.0347 0.27558808,0.25065249 0 0 1 0,0.0347 c 0.31201,0.16473 0.505159,0.3617 0.625,0.55543 0.01724,-0.034 0.04866,-0.0704 0.0625,-0.1041 0.07141,-0.17423 0.106248,-0.35722 0.09375,-0.52073 -0.0768,-0.0705 -0.15653,-0.14464 -0.25,-0.20828 a 2.8933851,3.7106202 0 0 0 0.09375,-0.20829 c -0.162525,-0.26274 -0.464576,-0.52891 -1,-0.72902 l -0.03125,0 c -0.309645,-0.12059 -0.486475,-0.16562 -0.71875,-0.243 -0.07968,0.15963 -0.181321,0.28699 -0.28125,0.41658 -0.418228,-0.1285 -0.737598,-0.22428 -1.0625,-0.41658 -0.280461,-0.16397 -0.547293,-0.30008 -0.8125,-0.41658 -0.0085,-0.16181 0.004,-0.31409 0.03125,-0.48601 -0.57215,-0.28163 -1.070116,-0.44414 -1.53125,-0.52072 z m 5.71875,0.0347 a 2.8933851,3.7106202 0 0 1 -0.40625,1.49275 c 0.106555,0.0725 0.196307,0.16159 0.28125,0.24301 a 2.8933851,3.7106202 0 0 0 0.15625,-1.18032 2.8879949,3.7037075 0 0 0 -0.03125,-0.55544 z m 4.03125,1.97875 c -0.0038,0.25406 0.0028,0.5292 0,0.76374 -0.04394,3.68919 2.823768,5.86935 4.96875,8.67872 1.992949,2.41549 4.065836,5.67578 4.28125,9.16474 0.201115,-3.89176 -2.085865,-7.54534 -4.28125,-10.20618 -2.088691,-2.73566 -4.865591,-4.88437 -4.96875,-8.40102 z m -16.21875,0.31245 c -0.229406,2.57865 -0.95947,4.53106 -3.53125,7.32483 -0.3232,0.36264 -0.593494,0.75781 -0.875,1.14559 -0.0315,0.0435 -0.09401,0.0605 -0.125,0.1041 -2.4266,3.10355 -4.88138,7.27237 -4.625,11.03937 0.208645,-3.4688 2.426217,-7.15102 4.625,-9.9632 0.03099,-0.0437 0.0935,-0.0955 0.125,-0.13886 0.281506,-0.3878 0.5518,-0.74825 0.875,-1.11088 2.643022,-2.87118 3.354109,-4.88149 3.5625,-7.56786 0.01064,-0.22979 -0.01804,-0.54099 -0.03125,-0.83315 z m 1.1875,0.55544 c -0.04515,0.0303 -0.07063,0.0323 -0.125,0.0695 -0.04633,0.0316 -0.083,0.0698 -0.125,0.1041 -2.35e-4,0.0105 -1.63e-4,0.0241 0,0.0347 0.0015,0.10073 0.02576,0.20201 0.0625,0.31243 0.02645,0.0795 0.07666,0.15976 0.125,0.24301 0.07626,-0.10399 0.149152,-0.1876 0.28125,-0.27772 0.04532,-0.0309 0.05115,-0.0404 0.09375,-0.0695 -0.02002,-0.0151 -0.04766,-0.059 -0.0625,-0.0695 -0.01809,-0.0126 -0.02078,-0.0299 -0.03125,-0.0347 a 0.27558808,0.25065249 0 0 1 -0.03125,0 0.27558808,0.25065249 0 0 1 -0.125,-0.0695 0.27558808,0.25065249 0 0 1 -0.0625,-0.0347 0.27558808,0.25065249 0 0 1 -0.03125,-0.0695 0.27558808,0.25065249 0 0 1 0,-0.0695 0.27558808,0.25065249 0 0 1 0.03125,-0.0347 0.27558808,0.25065249 0 0 1 0,-0.0347 z M 51.625,981.6805 c -0.0041,0.0107 0.0044,0.024 0,0.0347 -0.0825,0.20131 -0.191234,0.40516 -0.34375,0.59015 0.05998,0.21247 0.148588,0.47022 0.21875,0.6943 0.03605,-0.0708 0.0962,-0.13802 0.125,-0.20828 0.147305,-0.35941 0.135463,-0.7509 0,-1.11088 z m -11.96875,0.17357 c -0.124812,0.29242 -0.170536,0.61254 -0.0625,0.93731 0.141747,0.42608 0.515104,0.83243 1.03125,1.21501 0.03213,-0.19869 0.04249,-0.39564 0.0625,-0.59015 -0.284653,-0.2592 -0.451984,-0.52545 -0.53125,-0.76372 -0.01642,-0.0494 -0.02184,-0.0915 -0.03125,-0.13886 -0.204907,-0.21221 -0.370776,-0.43588 -0.46875,-0.65959 z m 10.5,0.0347 c -0.345869,0.0184 -0.699022,0.18154 -1.09375,0.38187 -0.394729,0.2003 -0.836506,0.40981 -1.3125,0.65959 -0.951986,0.49952 -2.05466,0.972 -3.125,0.972 -1.072694,0 -1.943982,-0.43498 -2.59375,-0.90258 -0.324883,-0.2338 -0.564112,-0.47492 -0.78125,-0.65959 -0.108571,-0.0923 -0.22091,-0.14418 -0.3125,-0.20828 -0.09159,-0.064 -0.161446,-0.17357 -0.34375,-0.17357 a 0.27558808,0.25065249 0 0 0 -0.03125,0 0.27558808,0.25065249 0 0 0 -0.03125,0.0347 0.27558808,0.25065249 0 0 0 -0.03125,0 0.27558808,0.25065249 0 0 0 -0.0625,0.0347 0.27558808,0.25065249 0 0 0 -0.03125,0.0347 c 0.250082,0.31965 0.648301,0.62843 1.25,0.9373 0.572473,0.30554 0.943187,0.72531 1.375,1.04145 0.07701,0.0564 0.169458,0.0882 0.25,0.13886 0.413578,0.12846 0.845714,0.243 1.34375,0.243 1.244627,0 2.429115,-0.52873 3.40625,-1.04144 0.488568,-0.25638 0.939291,-0.50491 1.3125,-0.6943 0.37321,-0.18939 0.68508,-0.30466 0.84375,-0.31243 a 0.27558808,0.25065249 0 0 0 0.0625,0 0.27558808,0.25065249 0 0 0 0.0625,-0.0347 0.27558808,0.25065249 0 0 0 0.0625,-0.0695 0.27558808,0.25065249 0 0 0 0.03125,-0.0695 0.27558808,0.25065249 0 0 0 0,-0.0347 0.27558808,0.25065249 0 0 0 0,-0.0347 0.27558808,0.25065249 0 0 0 0,-0.0695 0.27558808,0.25065249 0 0 0 -0.03125,-0.0695 0.27558808,0.25065249 0 0 0 -0.03125,-0.0347 0.27558808,0.25065249 0 0 0 -0.03125,-0.0347 0.27558808,0.25065249 0 0 0 -0.0625,-0.0347 0.27558808,0.25065249 0 0 0 -0.03125,0 0.27558808,0.25065249 0 0 0 -0.03125,0 0.27558808,0.25065249 0 0 0 -0.03125,0 z m 5.96875,8.15801 c -0.296331,-0.0381 -0.308816,0.12485 0.21875,0.59015 0.896489,0.75058 2.530384,2.92997 2.78125,5.38081 0.163991,-2.19383 -0.935861,-4.27124 -1.9375,-5.51967 -0.450083,-0.2721 -0.838715,-0.42255 -1.0625,-0.45129 z m -19.6875,0.79843 c -0.0239,-0.024 -0.101714,0.0302 -0.1875,0.1041 -0.02748,0.0409 -0.06539,0.0619 -0.09375,0.1042 -0.471255,0.7023 -1.066343,1.61067 -1.59375,2.60361 -0.0037,0.009 0.0037,0.0248 0,0.0347 -0.360143,0.96589 -0.638528,2.07182 -0.53125,3.22848 0.14226,-1.65502 0.898605,-3.18774 1.40625,-4.06163 0.819091,-1.38446 1.071716,-1.9414 1,-2.01347 z m -3.21875,6.90827 c -0.103876,1.2004 0.122112,2.39209 0.90625,3.43679 0.307128,0.2583 0.632225,0.5313 0.90625,0.8678 0.05306,0.065 0.10406,0.1407 0.15625,0.2083 0.260513,0.1996 0.553757,0.3737 0.875,0.5555 2.889648,1.6122 4.373312,3.2289 4.75,4.4088 0.494024,-1.1195 -0.861789,-3.281 -4.75,-5.4502 -1.917607,-1.0856 -2.699759,-2.51863 -2.84375,-4.02699 z m 24.1875,0.65959 c -0.63398,0.14728 -1.088129,0.56989 -1.21875,1.35387 -0.07923,0.39193 -0.08791,0.82733 -0.03125,1.24973 0.0087,-0.06 0.01942,-0.115 0.03125,-0.1735 0.174161,-1.04539 0.89664,-1.45345 1.90625,-1.42335 0.605766,0.0179 1.320519,0.21135 2.09375,0.52069 1.29993,0.53556 2.061593,1.01456 2.34375,1.56216 0.21035,-0.4839 0.192956,-0.9211 -0.125,-1.3191 -0.0074,0 -0.02382,0 -0.03125,0 -0.185336,-0.1227 -0.374252,-0.2659 -0.59375,-0.38189 -0.0019,-0.0453 0.0024,-0.0937 0,-0.13883 -0.393998,-0.26766 -0.921235,-0.52142 -1.59375,-0.79849 -0.483269,-0.19337 -0.91633,-0.29934 -1.34375,-0.38187 -0.02125,0.0592 -0.03888,0.11453 -0.0625,0.17358 -0.371565,-0.0553 -0.737529,-0.0341 -1.09375,0 l -0.0625,0 c -0.01646,-0.0817 -0.04485,-0.16212 -0.0625,-0.243 -0.05019,0.008 -0.10832,-0.0112 -0.15625,0 z m -2.09375,2.4994 c -1.18895,1.0371 -1.358215,3.0423 -1.5,5.5892 -0.06925,1.0218 -0.597098,2.3987 -1,3.7492 -0.01043,0.035 -0.02101,0.069 -0.03125,0.1042 -0.300482,1.0251 -0.510349,2.0331 -0.375,2.8813 0.186619,-1.8726 1.302875,-4.1332 1.40625,-5.6585 0.141785,-2.5469 0.31105,-4.5869 1.5,-5.6239 0.03883,0.5189 0.154875,1.0111 0.375,1.4927 0.397089,0.869 1.151666,1.6919 2.25,1.9441 0.922497,0.2201 1.808913,0 2.625,-0.3472 0.161771,-0.068 0.346616,-0.1663 0.5,-0.2429 0.929399,-0.4604 1.665684,-0.9875 2.09375,-1.6664 a 0.84902225,0.77220153 0 0 0 0.03125,-0.035 c 0.005,-0.01 -0.0048,-0.023 0,-0.035 0.04975,-0.094 0.11821,-0.1789 0.15625,-0.2777 0.501956,0.047 0.992715,0.1768 1.46875,0.5554 1.16542,0.8993 0.853146,3.0102 1.8125,3.9923 0.802808,0.8108 1.256657,1.4462 1.4375,1.9787 0.323267,-0.6867 -0.02054,-1.589 -1.4375,-3.0202 -0.959354,-0.982 -0.64708,-3.1277 -1.8125,-4.027 -0.173735,-0.1381 -0.351668,-0.2311 -0.53125,-0.3124 -0.06507,0.2235 -0.134308,0.4358 -0.21875,0.6596 -0.204945,-0.062 -0.423885,-0.08 -0.625,-0.1042 0.06016,-0.2501 0.06082,-0.5103 0.03125,-0.7637 -0.04218,-0.011 -0.08282,-0.031 -0.125,-0.035 -0.03804,0.099 -0.1065,0.1842 -0.15625,0.2778 -0.0048,0.01 0.005,0.025 0,0.035 a 0.84902225,0.77220153 0 0 1 -0.03125,0.035 c -0.231573,0.3674 -0.541759,0.7081 -0.9375,1.0068 -0.775491,0.8517 -2.739879,1.9203 -4.09375,1.5969 -0.479011,-0.1099 -0.845511,-0.3999 -1.15625,-0.7638 -0.585527,-0.3734 -1.013442,-0.9066 -1.28125,-1.4927 -0.220125,-0.4817 -0.336168,-0.9739 -0.375,-1.4928 z m -23.4375,0.3819 c -0.125616,0 -0.261736,0.021 -0.375,0.035 -0.581112,0.066 -1.020788,0.3116 -1.40625,0.6249 -0.03396,-0.1994 -0.04491,-0.3882 -0.0625,-0.5901 -0.534006,0.5289 -0.978617,1.2005 -1.5,1.701 -1.068502,0.9718 -2.85649,0.6252 -3.6875,2.0829 -0.266335,0.4499 -0.255973,0.9996 -0.1875,1.5622 0.03841,-0.1674 0.09872,-0.3361 0.1875,-0.4861 0.83101,-1.4576 2.618998,-1.1458 3.6875,-2.1176 0.921806,-0.8849 1.5455,-2.333 3,-2.4994 0.103893,-0.013 0.228105,-0.035 0.34375,-0.035 0.115645,0 0.221322,0.018 0.34375,0.035 1.958731,0.2698 3.28818,2.4663 4.65625,5.1378 0.898283,1.706 3.81507,4.036 4.28125,6.0403 0.01756,-0.1042 0.05332,-0.2025 0.0625,-0.3123 0.01462,-0.1341 0.01351,-0.2785 0,-0.4166 -0.0011,-0.012 0.0013,-0.023 0,-0.035 -0.170775,-0.3776 -0.389054,-0.7716 -0.65625,-1.1455 0.132561,0.085 0.27218,0.1654 0.40625,0.243 -0.302894,-0.6878 -0.852009,-1.3786 -1.4375,-2.083 -0.151946,0.018 -0.293607,0.039 -0.46875,0.035 -0.784367,-0.8971 -1.549136,-1.7519 -1.90625,-2.4301 -0.686528,-1.3406 -1.352511,-2.5576 -2.125,-3.5062 -0.772489,-0.9485 -1.685661,-1.6542 -2.78125,-1.8052 -0.142064,-0.02 -0.249384,-0.036 -0.375,-0.035 z m -7,7.8456 c -0.01663,0.094 -0.03109,0.1893 -0.0625,0.2777 -0.437703,1.085 -0.515997,1.8396 -0.375,2.3953 0.06692,-0.3874 0.164641,-0.7977 0.375,-1.3191 0.139635,-0.3932 0.129451,-0.8779 0.0625,-1.3539 z m 27.9375,0.07 c -3.427803,2.259 -8.201799,3.2242 -12.25,0.6249 0.354334,0.4959 0.611165,0.9913 0.78125,1.4928 0.0011,0 0.03012,0 0.03125,0 3.711247,1.928 7.864987,1.1037 11.03125,-0.8332 0.0226,-0.081 0.03882,-0.1622 0.0625,-0.243 0.106675,-0.3641 0.228387,-0.6841 0.34375,-1.0415 z m -11.34375,3.5756 c -0.0575,0.3599 -0.135313,0.709 -0.28125,1.0068 0.100849,8e-4 0.209838,-0.03 0.3125,-0.035 0.0094,-0.068 0.02531,-0.1372 0.03125,-0.2083 0.02807,-0.2574 -0.0098,-0.5059 -0.0625,-0.7638 z m 10.625,0.2431 c -0.02164,0.1736 -0.02611,0.3517 -0.03125,0.5207 0.04208,0 0.08271,0 0.125,0 -0.04634,-0.1685 -0.07539,-0.3433 -0.09375,-0.5207 z"
       id="path4214"
       inkscape:connector-curvature="0" />
    <path
       style="fill:#ffffff;fill-opacity:0.90867579;stroke:none"
       d="m 48.34375,974.06325 a 2.8879949,3.7037075 0 0 0 -2.75,3.61034 c -0.01061,-0.002 -0.02067,10e-4 -0.03125,0 -0.175029,-0.0245 -0.367956,-0.0314 -0.53125,-0.0346 -0.407065,-0.006 -0.75804,0.0518 -1.09375,0.13886 0.0018,-0.1132 0.0074,-0.23089 0,-0.34714 -0.101794,-1.60592 -1.03154,-2.85713 -2.09375,-2.81191 -1.06221,0.0453 -1.851792,1.37957 -1.75,2.98548 0.0055,0.0869 0.02075,0.15843 0.03125,0.24301 0.15616,-1.22497 0.839363,-2.14961 1.71875,-2.18705 1.015081,-0.0431 1.895721,1.1349 2.0625,2.63834 0.333429,-0.10441 0.69739,-0.14774 1.125,-0.13886 0.142537,0.003 0.315552,0.0136 0.46875,0.0346 0.03974,0.005 0.08449,0.028 0.125,0.0346 a 2.8879949,3.7037075 0 0 1 2.8125,-3.12434 2.8879949,3.7037075 0 0 1 2.90625,3.12434 2.8933851,3.7106202 0 0 0 0.03125,-0.48601 2.8879949,3.7037075 0 0 0 -2.9375,-3.67978 2.8879949,3.7037075 0 0 0 -0.09375,0 z M 39,976.14614 c -0.06229,1.66778 0.102524,3.20714 0.15625,4.37407 0.0064,-0.0715 0.02563,-0.13588 0.03125,-0.20828 0.04401,-0.95045 -0.157001,-2.47761 -0.1875,-4.16579 z m 10.4375,1.97875 c -0.0909,0.34021 -0.253383,0.6291 -0.4375,0.86788 -0.418228,-0.12851 -0.737598,-0.22429 -1.0625,-0.41658 -0.227789,-0.13318 -0.436497,-0.24862 -0.65625,-0.34716 -0.054,0.14398 -0.09732,0.28998 -0.125,0.45129 -0.0021,0.0123 0.0019,0.0225 0,0.0346 0.152533,0.075 0.307333,0.14863 0.46875,0.24301 0.501717,0.29695 0.998885,0.44075 1.65625,0.65959 0.09403,-0.18889 0.179227,-0.39458 0.21875,-0.62488 0.05442,-0.31711 -0.0079,-0.60144 -0.0625,-0.86787 z m -8.25,0.0695 c -0.08487,0.25153 -0.117902,0.54504 -0.0625,0.86787 0.05737,0.33434 0.176427,0.61784 0.34375,0.83316 0.03842,-0.0257 0.122301,-0.0816 0.15625,-0.10409 0.232688,-0.15482 0.31967,-0.20318 0.40625,-0.27772 0.221547,-0.19088 0.527943,-0.4766 0.90625,-0.72902 -0.03264,-0.19021 -0.08334,-0.36486 -0.15625,-0.52072 -0.478816,0.2924 -0.803594,0.63428 -1.03125,0.83316 -0.253525,-0.17563 -0.45316,-0.50949 -0.5625,-0.9026 z m 14.21875,0.59015 c -0.0048,0.39394 -0.02699,0.7936 -0.03125,1.14559 -0.0011,0.092 -0.0025,0.18756 0,0.27772 0.0068,-0.45471 0.0343,-0.9226 0.03125,-1.42331 z m -15,1.21503 c -0.0624,0.0416 -0.105941,0.0485 -0.1875,0.10409 -0.579721,0.39547 -0.830208,1.01474 -0.625,1.63161 0.01231,0.0369 0.04718,0.0675 0.0625,0.10409 0.09089,-0.21292 0.238723,-0.38921 0.4375,-0.55544 0.0053,-0.004 -0.0054,-0.0303 0,-0.0346 0.0076,-0.28705 0.160687,-0.51886 0.46875,-0.72901 0.04532,-0.0308 0.05115,-0.0404 0.09375,-0.0695 -0.0876,-0.14111 -0.179815,-0.28938 -0.25,-0.4513 z m 10.8125,0 a 2.8933851,3.7106202 0 0 1 -0.1875,0.59015 c 0.0082,0.0134 0.02379,0.0215 0.03125,0.0346 0.06668,0.11927 0.11142,0.25238 0.125,0.38187 0.153599,0.14108 0.284677,0.28974 0.375,0.45129 0.03552,0.0636 0.06843,0.14188 0.09375,0.20828 0.14696,-0.40996 0.123075,-0.86194 -0.09375,-1.24974 -0.084,-0.15023 -0.205159,-0.28375 -0.34375,-0.41658 z m -10.6875,0.90258 a 0.27558808,0.25065249 0 0 0 0,0.0346 c 0.01848,-0.012 0.04463,-0.0231 0.0625,-0.0346 a 0.27558808,0.25065249 0 0 0 -0.03125,0 0.27558808,0.25065249 0 0 0 -0.03125,0 z m 0,0.0346 a 0.27558808,0.25065249 0 0 0 -0.03125,0 0.27558808,0.25065249 0 0 0 -0.0625,0.0346 0.27558808,0.25065249 0 0 0 -0.03125,0.0346 c 0.04168,-0.0277 0.08804,-0.0454 0.125,-0.0695 z m -0.125,0.0695 a 0.27558808,0.25065249 0 0 0 -0.03125,0.0346 c 0.01329,-0.008 0.01858,-0.0263 0.03125,-0.0346 z m 9.46875,-0.1041 c -0.250793,0.0627 -0.523077,0.13084 -0.8125,0.27772 -0.394729,0.20031 -0.836506,0.44454 -1.3125,0.6943 -0.951986,0.49953 -2.05466,0.97202 -3.125,0.97202 -1.072694,0 -1.943982,-0.435 -2.59375,-0.90259 -0.324883,-0.23379 -0.564112,-0.47493 -0.78125,-0.65958 -0.05429,-0.0461 -0.103769,-0.0688 -0.15625,-0.1041 -0.145041,0.0978 -0.240762,0.17852 -0.4375,0.31245 0.06222,0.0467 0.134754,0.10209 0.21875,0.17357 0.211344,0.17974 0.462194,0.44221 0.8125,0.6943 0.700611,0.50418 1.695228,1.00673 2.9375,1.00673 1.244627,0 2.429115,-0.52874 3.40625,-1.04145 0.488568,-0.25638 0.939291,-0.5049 1.3125,-0.69429 0.37321,-0.18941 0.68508,-0.30467 0.84375,-0.31245 a 0.27558808,0.25065249 0 0 0 0.0625,0 0.27558808,0.25065249 0 0 0 0.0625,-0.0346 0.27558808,0.25065249 0 0 0 0.0625,-0.0695 0.27558808,0.25065249 0 0 0 0.03125,-0.0695 0.27558808,0.25065249 0 0 0 0,-0.0346 c -0.111127,-0.0586 -0.234383,-0.12101 -0.375,-0.17357 l -0.03125,0 c -0.053,-0.0206 -0.07463,-0.0157 -0.125,-0.0346 z m 1.15625,0.72901 c -0.312026,0.6154 -1.15711,1.2686 -2.3125,1.5969 -0.62193,0.18343 -1.13631,0.58377 -1.75,0.90258 -0.61369,0.31881 -1.313315,0.56927 -2.25,0.52073 -0.689684,-0.0366 -1.114677,-0.23234 -1.5,-0.48602 -0.591555,-0.1924 -1.125332,-0.4716 -1.53125,-0.76372 -0.350306,-0.25209 -0.601156,-0.47985 -0.8125,-0.65959 -0.105672,-0.09 -0.220969,-0.2008 -0.28125,-0.243 -0.01809,-0.0126 -0.02078,-0.0299 -0.03125,-0.0346 a 0.27558808,0.25065249 0 0 1 -0.03125,0 0.27558808,0.25065249 0 0 1 -0.125,-0.0695 0.27558808,0.25065249 0 0 1 -0.0625,-0.0346 0.27558808,0.25065249 0 0 1 -0.03125,-0.0695 0.27558808,0.25065249 0 0 1 0,-0.0695 0.27558808,0.25065249 0 0 1 0.03125,-0.0346 0.27558808,0.25065249 0 0 1 0,-0.0695 0.27558808,0.25065249 0 0 1 0.0625,-0.0346 0.27558808,0.25065249 0 0 1 0,-0.0346 c -0.04631,-0.0593 -0.0897,-0.11554 -0.125,-0.17359 -0.139945,0.19363 -0.204603,0.41607 -0.15625,0.65959 0.171344,0.17598 0.385003,0.35455 0.625,0.52073 -0.0075,0.12495 -0.04943,0.2548 -0.0625,0.38186 0.242835,0.22077 0.559185,0.41463 0.96875,0.62487 0.572473,0.30554 0.943187,0.7253 1.375,1.04144 0.431814,0.31614 0.891321,0.54784 1.6875,0.59015 0.936685,0.0485 1.63631,-0.16719 2.25,-0.486 0.61369,-0.31881 1.12807,-0.71915 1.75,-0.90258 1.219235,-0.34643 2.11078,-1.05638 2.375,-1.70103 0.13211,-0.32234 0.123825,-0.62523 -0.03125,-0.9026 -0.01193,-0.0214 -0.01738,-0.0482 -0.03125,-0.0695 z m 0.46875,1.3886 c -0.06454,0.12319 -0.125945,0.23459 -0.21875,0.34716 0.82035,2.90603 2.639611,7.02675 3.84375,9.06058 0.62713,1.05928 1.855189,3.31533 2.4375,6.00568 0.171366,-0.0277 0.335742,-0.0753 0.53125,-0.0695 0.227162,0.006 0.493548,0.0546 0.75,0.1041 0.290286,-0.81921 0.363091,-1.63049 0.28125,-2.43004 -0.04074,0.52406 -0.134299,1.0385 -0.34375,1.56217 -0.371565,-0.0553 -0.737529,-0.0687 -1.09375,-0.0346 l -0.0625,0 c -0.561507,-2.78753 -1.855969,-5.09143 -2.5,-6.17926 -1.116105,-1.88515 -2.73547,-5.52528 -3.625,-8.36629 z m -10.875,0.97202 c -0.544727,3.43716 -2.837543,7.42716 -4,9.82431 -0.86935,1.88109 -1.39699,3.89469 -1.46875,5.86682 -0.703043,-0.85821 -1.033729,-1.78566 -1.125,-2.70775 -0.09728,1.25051 0.151893,2.56134 1.125,3.74907 0.07176,-1.97201 0.5994,-3.95089 1.46875,-5.83197 1.269546,-2.61798 3.907428,-7.17783 4.125,-10.79633 -0.04682,-0.0324 -0.08073,-0.0714 -0.125,-0.1041 z m 15.5,4.96423 c -0.296331,-0.0381 -0.308816,0.15956 0.21875,0.62486 0.244794,0.20496 0.561834,0.54365 0.875,0.93731 0.537878,0.32832 1.128019,0.80985 1.65625,1.42331 1.349446,1.50128 2.744848,4.549 2.90625,7.74142 0.206391,0.14072 0.399039,0.27271 0.53125,0.41662 0.305722,0.1949 0.57625,0.403 0.78125,0.6596 0.156067,0.1953 0.278162,0.4277 0.34375,0.6595 0.142043,-0.5908 0.04642,-1.2126 -0.34375,-1.70099 -0.316529,-0.39627 -0.766504,-0.6835 -1.3125,-0.97203 -0.13582,-3.23045 -1.541872,-6.36239 -2.90625,-7.88028 -0.980013,-1.13816 -2.256115,-1.84587 -2.75,-1.90932 z m 7.3125,12.46262 c 0.03207,0.1134 0.01955,0.2299 0.03125,0.3471 0.268749,0.035 0.517533,0.093 0.78125,0.2083 0.295978,-1.002 0.417562,-2.00757 0.375,-2.98541 -0.05692,0.85375 -0.235639,1.70241 -0.5625,2.56881 -0.204945,-0.062 -0.423885,-0.1144 -0.625,-0.1388 z m -27,-11.62946 c -0.0239,-0.024 -0.101714,-0.004 -0.1875,0.0695 -0.02748,0.0408 -0.06539,0.0966 -0.09375,0.13886 -1.214166,1.80944 -3.155583,4.88119 -2.9375,7.67199 0.139615,-1.36713 0.690426,-2.75759 1.34375,-3.99221 0.0037,-0.009 -0.0037,-0.0248 0,-0.0346 0.276874,-0.73577 0.609619,-1.38304 0.875,-1.83989 0.819091,-1.38445 1.071716,-1.94139 1,-2.01346 z M 30,1000.2035 c -0.02007,0.3831 -0.0012,0.7695 0.03125,1.1456 0.410116,-0.4062 0.868181,-0.726 1.5,-0.7984 0.103893,-0.013 0.228105,-0.035 0.34375,-0.035 0.115645,0 0.221322,0.018 0.34375,0.035 1.958731,0.2698 3.28818,2.4662 4.65625,5.1377 0.514797,0.9778 1.686067,2.1581 2.6875,3.3674 1.096519,-0.1377 1.568023,-0.8518 1.25,-1.8399 -0.224557,0.5089 -0.816144,0.8193 -1.75,0.7985 -0.784367,-0.897 -1.549136,-1.7519 -1.90625,-2.43 -0.639372,-1.2486 -1.261128,-2.4152 -1.96875,-3.3327 -0.457215,-0.3502 -0.804955,-0.7162 -1.09375,-1.1109 -0.549519,-0.4537 -1.151604,-0.7725 -1.84375,-0.8678 -0.284127,-0.039 -0.523471,-0.026 -0.75,0 -0.581112,0.066 -1.020788,0.3115 -1.40625,0.6249 -0.03834,-0.2252 -0.07621,-0.4659 -0.09375,-0.6944 z m 26.15625,0.7985 c -0.146675,0.9841 0.171345,2.1239 0.8125,2.8813 0.283698,0.1816 0.609369,0.3341 0.96875,0.4165 0.922497,0.2202 1.808913,0 2.625,-0.3471 0.161771,-0.069 0.346616,-0.1316 0.5,-0.2083 0.427432,-0.2116 0.820015,-0.4402 1.15625,-0.6943 0.08498,-0.094 0.164751,-0.1921 0.21875,-0.2777 0.267177,-0.4754 0.292764,-0.8982 0.09375,-1.2844 -0.03249,0.078 -0.04799,0.1616 -0.09375,0.2429 -0.546786,0.8674 -2.810274,2.2334 -4.3125,1.8746 -1.129339,-0.259 -1.811566,-1.4243 -1.96875,-2.6035 z m -31.5,5.6932 c -0.171212,0.7459 0.103189,1.6359 0.21875,2.4647 0.142473,-0.7304 -0.116207,-1.6223 -0.21875,-2.4647 z m 43.40625,2.6384 c -0.711186,1.5105 -4.542799,1.9038 -6.625,4.2004 -2.887699,3.1238 -7.114498,3.5079 -8.75,0.5208 -0.139403,-0.2408 -0.232488,-0.5136 -0.28125,-0.7985 -0.06893,0.6988 -0.0217,1.3514 0.28125,1.8746 1.635502,2.9871 5.862301,2.5683 8.75,-0.5554 2.492421,-2.7491 7.465556,-2.7671 6.625,-5.2419 z m -15.25,0.9372 c -0.130949,0.086 -0.271453,0.1606 -0.40625,0.2431 -0.241137,0.861 -0.385577,1.7212 -0.3125,2.4994 0.07068,-0.5452 0.209385,-1.136 0.375,-1.7011 0.0887,-0.3027 0.183884,-0.5736 0.28125,-0.8678 0.01714,-0.06 0.04476,-0.1138 0.0625,-0.1736 z m -11.84375,0.8679 c 0.131465,0.2993 0.217596,0.5814 0.25,0.8679 0.0013,0.01 -0.0011,0.023 0,0.035 0.115143,0.2579 0.20025,0.5054 0.25,0.7637 0.01697,-0.1031 0.05349,-0.2046 0.0625,-0.3125 0.04192,-0.3844 -0.02695,-0.7606 -0.15625,-1.1455 -0.0011,0 -0.03011,0 -0.03125,0 -0.122954,-0.064 -0.253177,-0.1378 -0.375,-0.2083 z m -16.53125,0.6943 c -0.62654,3.6274 4.612997,1.8483 8.34375,3.645 3.953227,1.8794 7.949445,1.3773 8.40625,-1.701 0.01199,-0.081 0.02421,-0.1586 0.03125,-0.243 0.02687,-0.2463 0.0012,-0.5046 -0.0625,-0.7637 -0.508933,3.0135 -4.453256,3.5307 -8.375,1.6663 -3.300109,-1.5894 -7.782541,-0.3914 -8.34375,-2.6036 z m 21.875,1.3192 c -2.165048,0.1077 -3.561249,0.5306 -4.8125,0.5901 -0.05255,0.4036 -0.151577,0.7826 -0.3125,1.1109 1.330116,0.01 2.782032,-0.5428 5.125,-0.6596 1.586379,-0.1174 3.588239,0.5422 5.875,0.4166 -0.09127,-0.332 -0.134359,-0.6782 -0.125,-1.0414 -2.233323,0.096 -4.192998,-0.5319 -5.75,-0.4166 z"
       id="path4219"
       inkscape:connector-curvature="0" />
  </g>
</svg>
