<?xml version="1.0" encoding="UTF-8" standalone="no"?>
<!-- Created with Inkscape (http://www.inkscape.org/) -->

<svg
   xmlns:dc="http://purl.org/dc/elements/1.1/"
   xmlns:cc="http://creativecommons.org/ns#"
   xmlns:rdf="http://www.w3.org/1999/02/22-rdf-syntax-ns#"
   xmlns:svg="http://www.w3.org/2000/svg"
   xmlns="http://www.w3.org/2000/svg"
   xmlns:xlink="http://www.w3.org/1999/xlink"
   xmlns:sodipodi="http://sodipodi.sourceforge.net/DTD/sodipodi-0.dtd"
   xmlns:inkscape="http://www.inkscape.org/namespaces/inkscape"
   width="96"
   height="96"
   id="svg2"
   version="1.1"
   inkscape:version="0.48.4 r9939"
   sodipodi:docname="hdd_unmount.svg">
  <defs
     id="defs4">
    <linearGradient
       id="linearGradient3839">
      <stop
         style="stop-color:#f9f70c;stop-opacity:1;"
         offset="0"
         id="stop3841" />
      <stop
         style="stop-color:#f99b0c;stop-opacity:0;"
         offset="1"
         id="stop3843" />
    </linearGradient>
    <linearGradient
       inkscape:collect="always"
       xlink:href="#linearGradient3839"
       id="linearGradient3849"
       gradientUnits="userSpaceOnUse"
       x1="80"
       y1="84"
       x2="80"
       y2="80"
       gradientTransform="matrix(1,0,0,1.6666609,-30,903.02929)" />
    <linearGradient
       inkscape:collect="always"
       xlink:href="#linearGradient3839"
       id="linearGradient3867"
       gradientUnits="userSpaceOnUse"
       gradientTransform="matrix(1,0,0,1.6666609,-46,903.02926)"
       x1="80"
       y1="84"
       x2="80"
       y2="80" />
    <linearGradient
       inkscape:collect="always"
       xlink:href="#linearGradient3839"
       id="linearGradient3869"
       gradientUnits="userSpaceOnUse"
       gradientTransform="matrix(1,0,0,1.6666609,-46,903.02926)"
       x1="80"
       y1="84"
       x2="80"
       y2="80" />
    <linearGradient
       inkscape:collect="always"
       xlink:href="#linearGradient3839"
       id="linearGradient3871"
       gradientUnits="userSpaceOnUse"
       gradientTransform="matrix(1,0,0,1.6666609,-46,903.02926)"
       x1="80"
       y1="84"
       x2="80"
       y2="80" />
    <linearGradient
       inkscape:collect="always"
       xlink:href="#linearGradient3839"
       id="linearGradient3873"
       gradientUnits="userSpaceOnUse"
       gradientTransform="matrix(1,0,0,1.6666609,-46,903.02926)"
       x1="80"
       y1="84"
       x2="80"
       y2="80" />
    <linearGradient
       inkscape:collect="always"
       xlink:href="#linearGradient3839"
       id="linearGradient3875"
       gradientUnits="userSpaceOnUse"
       gradientTransform="matrix(1,0,0,1.6666609,-30,903.02929)"
       x1="80"
       y1="84"
       x2="80"
       y2="80" />
    <linearGradient
       inkscape:collect="always"
       xlink:href="#linearGradient3839"
       id="linearGradient3877"
       gradientUnits="userSpaceOnUse"
       gradientTransform="matrix(1,0,0,1.6666609,-30,903.02929)"
       x1="80"
       y1="84"
       x2="80"
       y2="80" />
    <linearGradient
       inkscape:collect="always"
       xlink:href="#linearGradient3839"
       id="linearGradient3879"
       gradientUnits="userSpaceOnUse"
       gradientTransform="matrix(1,0,0,1.6666609,-30,903.02929)"
       x1="80"
       y1="84"
       x2="80"
       y2="80" />
    <linearGradient
       inkscape:collect="always"
       xlink:href="#linearGradient3839"
       id="linearGradient3893"
       gradientUnits="userSpaceOnUse"
       gradientTransform="matrix(1,0,0,1.6666667,-2,903.02885)"
       x1="80"
       y1="84"
       x2="80"
       y2="80" />
    <linearGradient
       id="linearGradient3828">
      <stop
         id="stop3830"
         offset="0"
         style="stop-color:#676767;stop-opacity:1;" />
      <stop
         style="stop-color:#cccccc;stop-opacity:1;"
         offset="0.05555536"
         id="stop3832" />
      <stop
         style="stop-color:#b3b3b3;stop-opacity:1;"
         offset="0.11111114"
         id="stop3834" />
      <stop
         style="stop-color:#ffffff;stop-opacity:1;"
         offset="0.92222226"
         id="stop3836" />
      <stop
         style="stop-color:#aeaeae;stop-opacity:1;"
         offset="0.9666667"
         id="stop3838" />
      <stop
         id="stop3840"
         offset="1"
         style="stop-color:#494949;stop-opacity:1;" />
    </linearGradient>
    <linearGradient
       inkscape:collect="always"
       xlink:href="#linearGradient3828"
       id="linearGradient3841"
       x1="1.045977"
       y1="-1001.8622"
       x2="94"
       y2="-1001.8622"
       gradientUnits="userSpaceOnUse"
       gradientTransform="translate(-95.045979,0)" />
  </defs>
  <sodipodi:namedview
     id="base"
     pagecolor="#ffffff"
     bordercolor="#666666"
     borderopacity="1.0"
     inkscape:pageopacity="0.0"
     inkscape:pageshadow="2"
     inkscape:zoom="5.90625"
     inkscape:cx="22.010582"
     inkscape:cy="48"
     inkscape:document-units="px"
     inkscape:current-layer="layer1"
     showgrid="true"
     inkscape:snap-page="true"
     inkscape:snap-global="true"
     inkscape:snap-center="true"
     inkscape:snap-object-midpoints="false"
     showguides="true"
     inkscape:guide-bbox="true"
     inkscape:snap-bbox="true"
     inkscape:object-paths="true"
     inkscape:object-nodes="true"
     inkscape:window-width="1305"
     inkscape:window-height="744"
     inkscape:window-x="61"
     inkscape:window-y="24"
     inkscape:window-maximized="1"
     inkscape:snap-midpoints="false"
     inkscape:snap-grids="true"
     inkscape:snap-to-guides="false">
    <inkscape:grid
       type="xygrid"
       id="grid3002"
       empspacing="5"
       visible="true"
       enabled="true"
       snapvisiblegridlinesonly="true" />
  </sodipodi:namedview>
  <metadata
     id="metadata7">
    <rdf:RDF>
      <cc:Work
         rdf:about="">
        <dc:format>image/svg+xml</dc:format>
        <dc:type
           rdf:resource="http://purl.org/dc/dcmitype/StillImage" />
        <dc:title />
      </cc:Work>
    </rdf:RDF>
  </metadata>
  <g
     inkscape:label="Layer 1"
     inkscape:groupmode="layer"
     id="layer1"
     transform="translate(0,-956.36218)">
    <rect
       style="fill:#ffffff;fill-opacity:0;fill-rule:nonzero;stroke:none"
       id="rect3775"
       width="96"
       height="96"
       x="0"
       y="956.36218"
       ry="0" />
    <path
       style="fill:#000000;fill-opacity:0.09589041;fill-rule:nonzero;stroke:none"
       d="m 3.353015,956.30662 c -1.884176,0 -3.4111555,1.43156 -3.4111555,3.19799 l 0,83.65949 c 0,1.7665 1.5269795,3.1981 3.4111555,3.1981 l 89.23583,0 c 1.884174,0 3.411155,-1.4316 3.411155,-3.1981 l 0,-83.65949 c 0,-1.76643 -1.526981,-3.19799 -3.411155,-3.19799 z"
       id="rect3772"
       inkscape:connector-curvature="0"
       sodipodi:nodetypes="sssssssss" />
    <path
       style="fill:#000000;fill-opacity:0.18721463;fill-rule:nonzero;stroke:none"
       d="m 1.0459761,1041.8066 0,7.4219 c 0,1.7392 1.461916,3.1337 3.2852054,3.1337 l 86.3836135,0 c 1.823288,0 3.285205,-1.3945 3.285205,-3.1337 l 0,-7.4219 -92.9540239,0 z"
       id="rect3785"
       inkscape:connector-curvature="0" />
    <path
       style="fill:#000000;fill-opacity:0.38356168;fill-rule:nonzero;stroke:none"
       d="m 1.0459761,1041.8066 0,5.3807 c 0,1.762 1.461916,3.1749 3.2852054,3.1749 l 86.3836135,0 c 1.823288,0 3.285205,-1.4129 3.285205,-3.1749 l 0,-5.3807 -92.9540239,0 z"
       id="rect3783"
       inkscape:connector-curvature="0" />
    <rect
       style="fill:url(#linearGradient3841);fill-opacity:1;fill-rule:nonzero;stroke:none"
       id="rect2985"
       width="92.954025"
       height="89"
       x="-94"
       y="-1046.3622"
       ry="3.1511393"
       transform="scale(-1,-1)" />
    <path
       style="fill:#000000;fill-opacity:0.42922375;fill-rule:nonzero;stroke:none"
       d="m 94,1035.4872 c 0,-0.8729 -0.336682,-1.6492 -0.90625,-2.2188 -0.569568,-0.5695 -1.377134,-0.9375 -2.25,-0.9375 l -86.65625,0 c -0.8728656,0 -1.6491816,0.368 -2.21875,0.9375 -0.5695684,0.5696 -0.9375,1.3459 -0.9375,2.2188 l 0,9.7187 c 0,1.7458 1.4105189,3.1563 3.15625,3.1563 l 86.65625,0 c 1.745731,0 3.15625,-1.4105 3.15625,-3.1563 l 0,-9.7187 z"
       id="path3848"
       inkscape:connector-curvature="0" />
    <rect
       style="fill:#010101;fill-opacity:1;fill-rule:evenodd;stroke:none"
       id="rect3824"
       width="38"
       height="5.9999948"
       x="-64"
       y="1036.3622"
       transform="scale(-1,1)" />
    <rect
       style="fill:#010101;fill-opacity:1;fill-rule:evenodd;stroke:none"
       id="rect3895"
       width="66"
       height="9.9999952"
       x="24"
       y="1036.3622" />
    <rect
       transform="scale(-1,1)"
       y="1038.3622"
       x="-64"
       height="5"
       width="2"
       id="rect3812"
       style="fill:#424242;fill-opacity:1;fill-rule:evenodd;stroke:none" />
    <rect
       transform="scale(-1,1)"
       y="1042.3622"
       x="-64"
       height="2.0000052"
       width="38"
       id="rect3814"
       style="fill:#424242;fill-opacity:1;fill-rule:evenodd;stroke:none" />
    <rect
       y="1036.3622"
       x="68"
       height="5.9999976"
       width="20"
       id="rect3820"
       style="fill:#010101;fill-opacity:1;fill-rule:evenodd;stroke:none" />
    <rect
       style="fill:#1c1c1c;fill-opacity:1;fill-rule:evenodd;stroke:none"
       id="rect3822"
       width="2"
       height="1.9999974"
       x="68"
       y="1036.3622" />
    <rect
       style="fill:#424242;fill-opacity:1;fill-rule:evenodd;stroke:none"
       id="rect3808"
       width="2"
       height="4.9999952"
       x="68"
       y="1038.3622" />
    <rect
       style="fill:#424242;fill-opacity:1;fill-rule:evenodd;stroke:none"
       id="rect3810"
       width="20"
       height="2.0000052"
       x="68"
       y="1042.3622" />
    <rect
       y="1036.3622"
       x="62"
       height="1.9999974"
       width="2"
       id="rect3826"
       style="fill:#1c1c1c;fill-opacity:1;fill-rule:evenodd;stroke:none" />
    <path
       style="fill:url(#linearGradient3893);fill-opacity:1;fill-rule:evenodd;stroke:none"
       d="m 72,1036.3622 0,5 2,0 0,-5 -2,0 z m 4,0 0,5 2,0 0,-5 -2,0 z m 4,0 0,5 2,0 0,-5 -2,0 z m 4,0 0,5 2,0 0,-5 -2,0 z"
       id="rect3828"
       inkscape:connector-curvature="0" />
    <path
       style="fill:url(#linearGradient3849);fill-opacity:1;fill-rule:evenodd;stroke:none"
       d="m 44,1036.3622 0,5 2,0 0,-5 -2,0 z"
       id="path3857"
       inkscape:connector-curvature="0" />
    <path
       style="fill:url(#linearGradient3879);fill-opacity:1;fill-rule:evenodd;stroke:none"
       d="m 48,1036.3622 0,5 2,0 0,-5 -2,0 z"
       id="path3855"
       inkscape:connector-curvature="0" />
    <path
       style="fill:url(#linearGradient3877);fill-opacity:1;fill-rule:evenodd;stroke:none"
       d="m 52,1036.3622 0,5 2,0 0,-5 -2,0 z"
       id="path3853"
       inkscape:connector-curvature="0" />
    <path
       style="fill:url(#linearGradient3875);fill-opacity:1;fill-rule:evenodd;stroke:none"
       d="m 56,1036.3622 0,5 2,0 0,-5 -2,0 z"
       id="path3847"
       inkscape:connector-curvature="0" />
    <path
       id="path3859"
       d="m 28,1036.3622 0,5 2,0 0,-5 -2,0 z"
       style="fill:url(#linearGradient3867);fill-opacity:1;fill-rule:evenodd;stroke:none"
       inkscape:connector-curvature="0" />
    <path
       id="path3861"
       d="m 32,1036.3622 0,5 2,0 0,-5 -2,0 z"
       style="fill:url(#linearGradient3869);fill-opacity:1;fill-rule:evenodd;stroke:none"
       inkscape:connector-curvature="0" />
    <path
       id="path3863"
       d="m 36,1036.3622 0,5 2,0 0,-5 -2,0 z"
       style="fill:url(#linearGradient3871);fill-opacity:1;fill-rule:evenodd;stroke:none"
       inkscape:connector-curvature="0" />
    <path
       id="path3865"
       d="m 40,1036.3622 0,5 2,0 0,-5 -2,0 z"
       style="fill:url(#linearGradient3873);fill-opacity:1;fill-rule:evenodd;stroke:none"
       inkscape:connector-curvature="0" />
    <path
       style="fill:#ffffff;fill-opacity:0.84931505;fill-rule:nonzero;stroke:none"
       d="m 4.1875,1030.3309 c -0.8728656,0 -1.6491816,0.368 -2.21875,0.9375 -0.5695684,0.5696 -0.9375,1.3459 -0.9375,2.2188 l 0,2 c 0,-0.8729 0.3679316,-1.6492 0.9375,-2.2188 0.5695684,-0.5695 1.3458844,-0.9375 2.21875,-0.9375 l 86.65625,0 c 0.872866,0 1.680432,0.368 2.25,0.9375 0.569568,0.5696 0.90625,1.3459 0.90625,2.2188 l 0,-2 c 0,-0.8729 -0.336682,-1.6492 -0.90625,-2.2188 -0.569568,-0.5695 -1.377134,-0.9375 -2.25,-0.9375 l -86.65625,0 z"
       id="path3850"
       inkscape:connector-curvature="0" />
    <path
       style="fill:#000000;fill-opacity:0.27853884;fill-rule:evenodd;stroke:none"
       d="m 47,971.36218 c -13.807119,0 -25,8.9543 -25,19.99999 0,11.04573 11.192881,20.00003 25,20.00003 8.457301,0 15.915839,-3.3566 20.4375,-8.5 l -9.40625,-6.22503 a 1.4379827,1.1503856 0 0 1 -0.03125,0 c -9.63e-4,-6.5e-4 -0.186611,-0.12428 -0.1875,-0.125 -8.89e-4,-7.2e-4 -0.155443,-0.14922 -0.15625,-0.15 -8.07e-4,-7.8e-4 -0.15553,-0.17417 -0.15625,-0.175 -7.2e-4,-8.3e-4 -0.124373,-0.17412 -0.125,-0.175 -6.27e-4,-8.8e-4 -0.12447,-0.17408 -0.125,-0.175 -5.3e-4,-8.9e-4 -0.09332,-0.17405 -0.09375,-0.175 -4.28e-4,-8.9e-4 -0.09343,-0.19902 -0.09375,-0.2 -2.84e-4,-8.5e-4 -0.02095,-0.13724 -0.03125,-0.175 -0.0014,-0.005 2.7e-5,-0.0249 0,-0.025 l -0.4375,-1.7 c -1.199343,3.34262 -5.029882,5.79999 -9.59375,5.79999 -5.522847,0 -10,-3.58172 -10,-7.99999 0,-4.41828 4.477153,-8 10,-8 3.162616,0 5.980051,1.16645 7.8125,3 l -1.15625,-4.62499 c -2.82e-4,-8.9e-4 -0.03112,-0.24883 -0.03125,-0.25 -1.34e-4,-8.9e-4 -0.03127,-0.22383 -0.03125,-0.22501 1.6e-5,-8.9e-4 0.03108,-0.24882 0.03125,-0.25 1.66e-4,-8.9e-4 0.03094,-0.22384 0.03125,-0.22499 3.14e-4,-8.9e-4 0.09329,-0.22388 0.09375,-0.22501 4.59e-4,-8.9e-4 0.09315,-0.22392 0.09375,-0.22499 6e-4,-8.9e-4 0.124266,-0.19898 0.125,-0.2 7.34e-4,-8.9e-4 0.18664,-0.19904 0.1875,-0.2 8.6e-4,-8.9e-4 0.155272,-0.19912 0.15625,-0.2 9.78e-4,-8.9e-4 0.217665,-0.1742 0.21875,-0.17501 0.0011,-8.1e-4 0.217569,-0.14929 0.21875,-0.15 0.0012,-7.1e-4 0.248734,-0.12439 0.25,-0.12499 0.0013,-6.2e-4 0.248663,-0.0995 0.25,-0.1 0.0013,-5.2e-4 0.279856,-0.0996 0.28125,-0.1 0.0014,-4e-4 0.279813,-0.0748 0.28125,-0.075 0.0014,-2.9e-4 0.311035,-0.0499 0.3125,-0.05 l 1.28125,-0.125 c 10e-4,-1.1e-4 0.186477,5e-5 0.1875,0 10e-4,-5e-5 0.217725,0 0.21875,0 10e-4,0 0.217728,-7e-5 0.21875,0 10e-4,7e-5 0.186486,0.0249 0.1875,0.025 10e-4,1.3e-4 0.186499,0.0248 0.1875,0.025 10e-4,1.7e-4 0.217767,0.0248 0.21875,0.025 9.83e-4,2.3e-4 0.18654,0.0497 0.1875,0.05 9.6e-4,2.9e-4 0.186568,0.0747 0.1875,0.075 9.32e-4,3.4e-4 0.1866,0.0746 0.1875,0.075 9e-4,3.9e-4 0.186637,0.0746 0.1875,0.075 8.63e-4,4.3e-4 0.155428,0.0995 0.15625,0.1 8.22e-4,4.8e-4 0.155473,0.0995 0.15625,0.1 7.77e-4,5.3e-4 0.155521,0.12442 0.15625,0.12499 7.29e-4,5.8e-4 0.155574,0.0994 0.15625,0.1 6.76e-4,6.2e-4 0.12438,0.12435 0.125,0.12501 6.2e-4,6.5e-4 0.09319,0.14931 0.09375,0.15 l 11.5625,14.09999 C 71.923755,993.12768 72,992.25229 72,991.36217 72,980.31648 60.807119,971.36218 47,971.36218 z m 10.59375,8.625 -1.28125,0.125 a 1.4815625,1.1852494 0 0 0 -1.25,1.4 l 3.375,13.54999 a 1.4815625,1.1852494 0 0 0 0.5,0.7 l 11.40625,7.54993 a 1.4815625,1.1852494 0 0 0 2.03125,-0.1249 l 2.28125,-1.95 a 1.4815625,1.1852494 0 0 0 0.15625,-1.45003 L 59.03125,980.51218 a 1.4815625,1.1852494 0 0 0 -1.4375,-0.525 z m 0.1875,1.175 15.78125,19.27502 -2.28125,1.9749 -11.40625,-7.57493 -3.375,-13.54999 1.28125,-0.125 z"
       id="path3031"
       inkscape:connector-curvature="0" />
    <path
       style="fill:#000000;fill-opacity:0.62100458;fill-rule:evenodd;stroke:none"
       d="M 47 15 C 33.192881 15 22 23.95431 22 35 C 22 35.146305 21.996093 35.291945 22 35.4375 C 22.270661 24.579502 33.362699 15.84375 47 15.84375 C 60.585049 15.84375 71.647928 24.512405 72 35.3125 C 72.002135 35.207191 72 35.105727 72 35 C 72 23.95431 60.807119 15 47 15 z M 57.59375 23.625 L 56.3125 23.75 A 1.4815625 1.1852494 0 0 0 55.0625 25.15625 L 55.125 25.375 A 1.4815625 1.1852494 0 0 1 56.3125 24.59375 L 57.59375 24.46875 A 1.4815625 1.1852494 0 0 1 59.03125 25 L 74.8125 44.28125 A 1.4815625 1.1852494 0 0 1 74.96875 44.46875 A 1.4815625 1.1852494 0 0 0 74.8125 43.4375 L 59.03125 24.15625 A 1.4815625 1.1852494 0 0 0 57.59375 23.625 z M 53.65625 25.375 C 53.647477 25.438316 53.625096 25.499484 53.625 25.5 C 53.62483 25.50118 53.593766 25.74911 53.59375 25.75 C 53.59373 25.75118 53.624866 25.96786 53.625 25.96875 C 53.62513 25.96992 53.655968 26.21786 53.65625 26.21875 L 54.53125 29.75 C 54.624331 29.835434 54.723947 29.911394 54.8125 30 L 53.65625 25.375 z M 56.71875 25.75 L 56.5 25.78125 L 59.875 39.3125 L 71.28125 46.90625 L 73.5625 44.90625 L 73.15625 44.40625 L 71.28125 46.0625 L 59.875 38.46875 L 56.71875 25.75 z M 37.03125 35.4375 C 37.02261 35.573854 37 35.705679 37 35.84375 C 37 40.26202 41.477153 43.84375 47 43.84375 C 51.563868 43.84375 55.394407 41.37387 56.59375 38.03125 L 57.03125 39.75 C 57.031277 39.7501 57.02985 39.77625 57.03125 39.78125 C 57.04155 39.81901 57.062216 39.93665 57.0625 39.9375 C 57.06282 39.93848 57.155822 40.15536 57.15625 40.15625 C 57.15668 40.1572 57.24947 40.31161 57.25 40.3125 C 57.25053 40.31342 57.374373 40.49912 57.375 40.5 C 57.375627 40.50088 57.49928 40.65542 57.5 40.65625 C 57.50072 40.65708 57.655443 40.84297 57.65625 40.84375 C 57.657057 40.84453 57.811611 40.99928 57.8125 41 C 57.813389 41.00072 57.999037 41.12435 58 41.125 A 1.4379827 1.1503856 0 0 0 58.03125 41.125 L 66.9375 47.03125 C 67.105607 46.852963 67.276731 46.682875 67.4375 46.5 L 58.03125 40.28125 A 1.4379827 1.1503856 0 0 1 58 40.28125 C 57.999037 40.2806 57.813389 40.15697 57.8125 40.15625 C 57.811611 40.15553 57.657057 40.00078 57.65625 40 C 57.655443 39.99922 57.50072 39.81333 57.5 39.8125 C 57.49928 39.81167 57.375627 39.65713 57.375 39.65625 C 57.374373 39.65537 57.25053 39.46967 57.25 39.46875 C 57.24947 39.46786 57.15668 39.31345 57.15625 39.3125 C 57.155822 39.31161 57.06282 39.09473 57.0625 39.09375 C 57.062216 39.0929 57.04155 38.97526 57.03125 38.9375 C 57.02985 38.9325 57.031277 38.90635 57.03125 38.90625 L 56.59375 37.1875 C 55.394407 40.53012 51.563868 43 47 43 C 41.66294 43 37.318585 39.649749 37.03125 35.4375 z "
       transform="translate(0,956.36218)"
       id="path3832" />
    <path
       style="fill:#ffffff;fill-opacity:0.80365294;fill-rule:evenodd;stroke:none"
       d="m 57.40625,978.83373 -1.28125,0.125 c -0.0015,1e-4 -0.3111,0.0622 -0.3125,0.0625 -0.0014,2e-4 -0.27985,0.0621 -0.28125,0.0625 -0.0014,4e-4 -0.27995,0.0932 -0.28125,0.0937 -0.0013,5e-4 -0.2487,0.12438 -0.25,0.125 -0.0013,6e-4 -0.2488,0.12429 -0.25,0.125 -0.0012,7.1e-4 -0.21765,0.12419 -0.21875,0.125 -0.0011,8.1e-4 -0.217772,0.18661 -0.21875,0.1875 -9.78e-4,8.8e-4 -0.15539,0.18661 -0.15625,0.1875 -8.6e-4,9.6e-4 -0.186766,0.21786 -0.1875,0.21875 -7.34e-4,0.001 -0.1244,0.18661 -0.125,0.1875 -6e-4,0.001 -0.09329,0.21786 -0.09375,0.21875 -4.6e-4,0.001 -0.09344,0.24911 -0.09375,0.25 -3.1e-4,0.001 -0.03108,0.21786 -0.03125,0.21875 -1.7e-4,0.001 -0.03123,0.24911 -0.03125,0.25 -2e-5,0.001 0.03112,0.21786 0.03125,0.21875 8.2e-5,7.4e-4 0.02211,0.0831 0.03125,0.15625 3.14e-4,-8.9e-4 0.09329,-0.24887 0.09375,-0.25 4.59e-4,-8.9e-4 0.09315,-0.21768 0.09375,-0.21875 6e-4,-8.9e-4 0.124266,-0.18648 0.125,-0.1875 7.34e-4,-8.9e-4 0.18664,-0.21779 0.1875,-0.21875 8.6e-4,-8.9e-4 0.155272,-0.18662 0.15625,-0.1875 9.78e-4,-8.9e-4 0.217665,-0.18669 0.21875,-0.1875 0.0011,-8.1e-4 0.217569,-0.12429 0.21875,-0.125 0.0012,-7.1e-4 0.248734,-0.1244 0.25,-0.125 0.0013,-6.2e-4 0.248663,-0.1245 0.25,-0.125 0.0013,-5.2e-4 0.279856,-0.0933 0.28125,-0.0937 0.0014,-4e-4 0.279813,-0.0623 0.28125,-0.0625 0.0014,-2.9e-4 0.311035,-0.0624 0.3125,-0.0625 l 1.28125,-0.125 c 10e-4,-1.1e-4 0.186477,5e-5 0.1875,0 10e-4,-5e-5 0.217725,0 0.21875,0 10e-4,0 0.217728,-7e-5 0.21875,0 10e-4,7e-5 0.186486,0.0312 0.1875,0.0312 10e-4,1.3e-4 0.186499,0.0311 0.1875,0.0312 10e-4,1.7e-4 0.217767,0.0311 0.21875,0.0312 9.83e-4,2.3e-4 0.18654,0.031 0.1875,0.0312 9.6e-4,2.9e-4 0.186568,0.0935 0.1875,0.0937 9.32e-4,3.4e-4 0.1866,0.0621 0.1875,0.0625 9e-4,3.9e-4 0.186637,0.0621 0.1875,0.0625 8.63e-4,4.3e-4 0.155428,0.1245 0.15625,0.125 8.22e-4,4.8e-4 0.155473,0.0933 0.15625,0.0937 7.77e-4,5.3e-4 0.155521,0.12443 0.15625,0.125 7.29e-4,5.8e-4 0.155574,0.0932 0.15625,0.0937 6.76e-4,6.2e-4 0.12438,0.12434 0.125,0.125 6.2e-4,6.5e-4 0.09319,0.15556 0.09375,0.15625 l 11.5625,14.09375 C 71.923755,993.97424 72,993.09885 72,992.20873 c 0,-0.1672 0.0051,-0.33377 0,-0.5 -0.01717,0.77046 -0.09486,1.53406 -0.21875,2.28125 l -11.5625,-14.09375 c -5.6e-4,-6.9e-4 -0.09313,-0.1556 -0.09375,-0.15625 -6.2e-4,-6.6e-4 -0.124324,-0.12438 -0.125,-0.125 -6.76e-4,-6e-4 -0.155521,-0.0932 -0.15625,-0.0937 -7.29e-4,-5.7e-4 -0.155473,-0.12447 -0.15625,-0.125 -7.77e-4,-5e-4 -0.155428,-0.0933 -0.15625,-0.0937 -8.22e-4,-5e-4 -0.155387,-0.12457 -0.15625,-0.125 -8.63e-4,-4e-4 -0.1866,-0.0621 -0.1875,-0.0625 -9e-4,-4e-4 -0.186568,-0.0622 -0.1875,-0.0625 -9.32e-4,-3e-4 -0.18654,-0.0935 -0.1875,-0.0937 -9.6e-4,-3e-4 -0.186517,-0.031 -0.1875,-0.0312 -9.83e-4,-2e-4 -0.21775,-0.0311 -0.21875,-0.0312 -10e-4,-2e-4 -0.1865,-0.0311 -0.1875,-0.0312 -10e-4,-10e-5 -0.1865,-0.0312 -0.1875,-0.0312 -10e-4,-7e-5 -0.21775,0 -0.21875,0 -10e-4,0 -0.21775,-5e-5 -0.21875,0 -10e-4,5e-5 -0.1865,-1.1e-4 -0.1875,0 z m 0.375,2.34375 -1.28125,0.125 0.21875,0.8125 1.0625,-0.0937 15.375,18.75002 0.40625,-0.3438 -15.78125,-19.24997 z m -2.65625,0.5625 a 1.4815625,1.1852494 0 0 0 -0.0625,0.625 l 3.375,13.53125 a 1.4815625,1.1852494 0 0 0 0.5,0.71875 l 11.40625,7.53122 a 1.4815625,1.1852494 0 0 0 2.03125,-0.125 l 2.28125,-1.9375 a 1.4815625,1.1852494 0 0 0 0.3125,-1.2188 1.4815625,1.1852494 0 0 1 -0.3125,0.375 l -2.28125,1.9375 a 1.4815625,1.1852494 0 0 1 -2.03125,0.125 L 58.9375,995.77123 a 1.4815625,1.1852494 0 0 1 -0.5,-0.71875 l -3.3125,-13.3125 z m -8.125,1.625 c -5.522847,0 -10,3.58172 -10,8 0,0.13807 0.02261,0.2699 0.03125,0.40625 0.287335,-4.21226 4.63169,-7.5625 9.96875,-7.5625 3.162616,0 5.980051,1.16645 7.8125,3 l -0.28125,-1.09375 c -1.833072,-1.68247 -4.521467,-2.75 -7.53125,-2.75 z m -25,8.40625 c -0.0039,0.14556 0,0.2912 0,0.4375 0,11.04567 11.192881,19.99997 25,19.99997 8.457301,0 15.915839,-3.3566 20.4375,-8.5 l -0.5,-0.3125 c -4.559947,4.8361 -11.7809,7.9687 -19.9375,7.9687 -13.637301,0 -24.729339,-8.7356 -25,-19.59367 z"
       id="path3837"
       inkscape:connector-curvature="0" />
    <g
       id="g3182"
       transform="matrix(1.1456397,0,0,1.1456397,136.38158,-134.46636)"
       style="fill:#1a1a1a">
      <path
         inkscape:transform-center-y="-2.3789506"
         inkscape:transform-center-x="-0.0021446802"
         transform="matrix(1,0,0,0.71132487,0,1003.2883)"
         d="m -65.997413,-3.7276993 -23.18399,0.00743 11.585561,-20.0816391 z"
         inkscape:randomized="0"
         inkscape:rounded="0"
         inkscape:flatsided="true"
         sodipodi:arg2="1.5704759"
         sodipodi:arg1="0.52327832"
         sodipodi:r2="6.6926417"
         sodipodi:r1="13.385283"
         sodipodi:cy="-10.416626"
         sodipodi:cx="-77.591553"
         sodipodi:sides="3"
         id="path3178"
         style="fill:#1a1a1a;fill-opacity:1;fill-rule:nonzero;stroke:none"
         sodipodi:type="star" />
      <rect
         y="1003.5298"
         x="-89.85244"
         height="5.1281772"
         width="24.526064"
         id="rect3180"
         style="fill:#1a1a1a;fill-opacity:1;fill-rule:nonzero;stroke:none" />
    </g>
  </g>
</svg>
