<?xml version="1.0" encoding="UTF-8" standalone="no"?>
<!-- Created with Inkscape (http://www.inkscape.org/) -->

<svg
   xmlns:dc="http://purl.org/dc/elements/1.1/"
   xmlns:cc="http://creativecommons.org/ns#"
   xmlns:rdf="http://www.w3.org/1999/02/22-rdf-syntax-ns#"
   xmlns:svg="http://www.w3.org/2000/svg"
   xmlns="http://www.w3.org/2000/svg"
   xmlns:xlink="http://www.w3.org/1999/xlink"
   xmlns:sodipodi="http://sodipodi.sourceforge.net/DTD/sodipodi-0.dtd"
   xmlns:inkscape="http://www.inkscape.org/namespaces/inkscape"
   width="96"
   height="96.000069"
   id="svg2"
   version="1.1"
   inkscape:version="0.48.4 r9939"
   sodipodi:docname="input-keyboard.svg">
  <defs
     id="defs4">
    <linearGradient
       id="linearGradient3764">
      <stop
         style="stop-color:#07001c;stop-opacity:1;"
         offset="0"
         id="stop3766" />
      <stop
         style="stop-color:#36002f;stop-opacity:1;"
         offset="1"
         id="stop3768" />
    </linearGradient>
    <linearGradient
       gradientTransform="translate(-90.05814,14.999951)"
       y2="-957.36218"
       x2="95"
       y1="-1047.3622"
       x1="0"
       gradientUnits="userSpaceOnUse"
       id="linearGradient3019"
       xlink:href="#linearGradient3764"
       inkscape:collect="always" />
    <linearGradient
       inkscape:collect="always"
       xlink:href="#linearGradient3764"
       id="linearGradient3792"
       x1="0"
       y1="1042.3622"
       x2="95"
       y2="957.36218"
       gradientUnits="userSpaceOnUse" />
  </defs>
  <sodipodi:namedview
     id="base"
     pagecolor="#ffffff"
     bordercolor="#666666"
     borderopacity="1.0"
     inkscape:pageopacity="0.0"
     inkscape:pageshadow="2"
     inkscape:zoom="5.9062458"
     inkscape:cx="27.926276"
     inkscape:cy="48.000034"
     inkscape:document-units="px"
     inkscape:current-layer="layer1"
     showgrid="true"
     inkscape:snap-page="true"
     inkscape:snap-global="true"
     inkscape:snap-center="true"
     inkscape:snap-object-midpoints="false"
     showguides="true"
     inkscape:guide-bbox="true"
     inkscape:snap-bbox="true"
     inkscape:object-paths="true"
     inkscape:object-nodes="true"
     inkscape:window-width="1305"
     inkscape:window-height="744"
     inkscape:window-x="61"
     inkscape:window-y="24"
     inkscape:window-maximized="1"
     inkscape:snap-midpoints="false"
     inkscape:snap-grids="true"
     inkscape:snap-to-guides="false"
     fit-margin-top="0"
     fit-margin-left="0"
     fit-margin-right="0"
     fit-margin-bottom="0">
    <inkscape:grid
       type="xygrid"
       id="grid3002"
       empspacing="5"
       visible="true"
       enabled="true"
       snapvisiblegridlinesonly="true"
       originx="0.0581405px"
       originy="3.6022949e-05px" />
  </sodipodi:namedview>
  <metadata
     id="metadata7">
    <rdf:RDF>
      <cc:Work
         rdf:about="">
        <dc:format>image/svg+xml</dc:format>
        <dc:type
           rdf:resource="http://purl.org/dc/dcmitype/StillImage" />
        <dc:title />
      </cc:Work>
    </rdf:RDF>
  </metadata>
  <g
     inkscape:label="Layer 1"
     inkscape:groupmode="layer"
     id="layer1"
     transform="translate(0.0581405,-956.36217)">
    <rect
       style="fill:#ffffff;fill-opacity:0;fill-rule:nonzero;stroke:none"
       id="rect3775"
       width="95.941895"
       height="95.94445"
       x="-3.5185687e-05"
       y="956.41779"
       ry="0" />
    <path
       style="fill:#000000;fill-opacity:0.09589042;fill-rule:nonzero;stroke:none"
       d="m 3.3509503,956.36217 c -1.8830355,0 -3.4090908,1.4308 -3.4090908,3.196 l 0,83.61123 c 0,1.7656 1.5260553,3.1964 3.4090908,3.1964 l 89.1818197,0 c 1.883032,0 3.409088,-1.4308 3.409088,-3.1964 l 0,-83.61123 c 0,-1.7652 -1.526056,-3.196 -3.409088,-3.196 z"
       id="rect3772"
       inkscape:connector-curvature="0"
       sodipodi:nodetypes="sssssssss" />
    <path
       style="fill:#000000;fill-opacity:0.18721463;fill-rule:nonzero;stroke:none"
       d="m 1.0453078,1041.8126 0,7.4176 c 0,1.7384 1.4610312,3.132 3.2832169,3.132 l 86.3313293,0 c 1.822184,0 3.283216,-1.3936 3.283216,-3.132 l 0,-7.4176 -92.8977622,0 z"
       id="rect3785"
       inkscape:connector-curvature="0" />
    <path
       style="fill:#000000;fill-opacity:0.38356168;fill-rule:nonzero;stroke:none"
       d="m 1.0453078,1041.8126 0,5.3776 c 0,1.7612 1.4610312,3.1732 3.2832169,3.1732 l 86.3313293,0 c 1.822184,0 3.283216,-1.412 3.283216,-3.1732 l 0,-5.3776 -92.8977622,0 z"
       id="rect3783"
       inkscape:connector-curvature="0" />
    <rect
       style="fill:url(#linearGradient3792);fill-opacity:1;fill-rule:nonzero;stroke:none"
       id="rect2985"
       width="92.897766"
       height="88.948502"
       x="1.0453087"
       y="957.4173"
       ry="3.1493158" />
    <path
       style="fill:#000000;fill-opacity:0.38356168;fill-rule:nonzero;stroke:none"
       d="m 0.99935954,1042.3678 0.045948,2.7444 c 0.03022,1.8048 1.4610312,3.2524 3.2832172,3.2524 l 86.3313293,0 c 1.822184,0 3.283216,-1.4472 3.283216,-3.2524 l -0.04596,-2.7444 z"
       id="rect3781"
       inkscape:connector-curvature="0"
       sodipodi:nodetypes="csssscc" />
    <rect
       style="fill:#ffffff;fill-opacity:0.3;fill-rule:nonzero;stroke:none"
       id="rect3770"
       width="92.897774"
       height="1.9988477"
       x="1.0453078"
       y="1040.3689" />
    <path
       id="path3808"
       d="m 10.81686,964.42561 c -0.448485,0 -0.8125,0.36402 -0.8125,0.8125 l 0,13.375 c 0,0.44849 0.364015,0.8125 0.8125,0.8125 l 13.374999,0 c 0.448485,0 0.8125,-0.36401 0.8125,-0.8125 l 0,-13.375 c 0,-0.44848 -0.364015,-0.8125 -0.8125,-0.8125 l -13.374999,0 z m 19.999999,0 c -0.448485,0 -0.8125,0.36402 -0.8125,0.8125 l 0,13.375 c 0,0.44849 0.364015,0.8125 0.8125,0.8125 l 13.375,0 c 0.448485,0 0.8125,-0.36401 0.8125,-0.8125 l 0,-13.375 c 0,-0.44848 -0.364015,-0.8125 -0.8125,-0.8125 l -13.375,0 z m 20,0 c -0.448484,0 -0.8125,0.36402 -0.8125,0.8125 l 0,13.375 c 0,0.44849 0.364016,0.8125 0.8125,0.8125 l 13.375001,0 c 0.448485,0 0.8125,-0.36401 0.8125,-0.8125 l 0,-13.375 c 0,-0.44848 -0.364015,-0.8125 -0.8125,-0.8125 l -13.375001,0 z m 20.000001,0 c -0.448485,0 -0.8125,0.36402 -0.8125,0.8125 l 0,13.375 c 0,0.44849 0.364015,0.8125 0.8125,0.8125 l 13.375,0 c 0.448485,0 0.8125,-0.36401 0.8125,-0.8125 l 0,-13.375 c 0,-0.44848 -0.364015,-0.8125 -0.8125,-0.8125 l -13.375,0 z m 1.1875,4 8,0 3,3.5 -3,3.5 -8,0 0,-7 z m 2.71875,1.375 -0.6875,0.71875 1.40625,1.40625 -1.40625,1.40625 0.6875,0.71875 1.4375,-1.40625 1.40625,1.40625 0.71875,-0.71875 -1.4375,-1.40625 1.4375,-1.40625 -0.71875,-0.71875 -1.40625,1.40625 -1.4375,-1.40625 z m -63.90625,14.625 c -0.448485,0 -0.8125,0.36402 -0.8125,0.8125 l 0,13.375 c 0,0.44849 0.364015,0.8125 0.8125,0.8125 l 13.374999,0 c 0.448485,0 0.8125,-0.36401 0.8125,-0.8125 l 0,-13.375 c 0,-0.44848 -0.364015,-0.8125 -0.8125,-0.8125 l -13.374999,0 z m 19.999999,0 c -0.448485,0 -0.8125,0.36402 -0.8125,0.8125 l 0,13.375 c 0,0.44849 0.364015,0.8125 0.8125,0.8125 l 13.375,0 c 0.448485,0 0.8125,-0.36401 0.8125,-0.8125 l 0,-13.375 c 0,-0.44848 -0.364015,-0.8125 -0.8125,-0.8125 l -13.375,0 z m 20,0 c -0.448484,0 -0.8125,0.36402 -0.8125,0.8125 l 0,13.375 c 0,0.44849 0.364016,0.8125 0.8125,0.8125 l 13.375001,0 c 0.448485,0 0.8125,-0.36401 0.8125,-0.8125 l 0,-13.375 c 0,-0.44848 -0.364015,-0.8125 -0.8125,-0.8125 l -13.375001,0 z m 20.000001,0 c -0.448485,0 -0.8125,0.36402 -0.8125,0.8125 l 0,13.375 c 0,0.44849 0.364015,0.8125 0.8125,0.8125 l 13.375,0 c 0.448485,0 0.8125,-0.36401 0.8125,-0.8125 l 0,-13.375 c 0,-0.44848 -0.364015,-0.8125 -0.8125,-0.8125 l -13.375,0 z m 4.1875,4 8,0 0,7 -8,0 -3,-3.5 3,-3.5 z m 2.4375,1.375 -0.71875,0.71875 1.4375,1.40625 -1.4375,1.40625 0.71875,0.71875 1.40625,-1.40625 1.4375,1.40625 0.6875,-0.71875 -1.40625,-1.40625 1.40625,-1.40625 -0.6875,-0.71875 -1.4375,1.40625 -1.40625,-1.40625 z m -66.625,14.62479 c -0.448485,0 -0.8125,0.364 -0.8125,0.8125 l 0,13.375 c 0,0.4485 0.364015,0.8125 0.8125,0.8125 l 13.374999,0 c 0.448485,0 0.8125,-0.364 0.8125,-0.8125 l 0,-13.375 c 0,-0.4485 -0.364015,-0.8125 -0.8125,-0.8125 l -13.374999,0 z m 19.999999,0 c -0.448485,0 -0.8125,0.364 -0.8125,0.8125 l 0,13.375 c 0,0.4485 0.364015,0.8125 0.8125,0.8125 l 13.375,0 c 0.448485,0 0.8125,-0.364 0.8125,-0.8125 l 0,-13.375 c 0,-0.4485 -0.364015,-0.8125 -0.8125,-0.8125 l -13.375,0 z m 20,0 c -0.448484,0 -0.8125,0.364 -0.8125,0.8125 l 0,13.375 c 0,0.4485 0.364016,0.8125 0.8125,0.8125 l 33.375001,0 c 0.448485,0 0.8125,-0.364 0.8125,-0.8125 l 0,-13.375 c 0,-0.4485 -0.364015,-0.8125 -0.8125,-0.8125 l -33.375001,0 z m 24.187501,3 5,0 0,8 -1,0 -8,0 0,2 -7,-3 7,-3 0,2 7,0 0,-4 -3,0 0,-2 z m -64.1875,17 c -0.448485,0 -0.8125,0.364 -0.8125,0.8125 l 0,13.375 c 0,0.4485 0.364015,0.8125 0.8125,0.8125 l 53.375,0 c 0.448485,0 0.8125,-0.364 0.8125,-0.8125 l 0,-13.375 c 0,-0.4485 -0.364015,-0.8125 -0.8125,-0.8125 l -53.375,0 z m 60,0 c -0.448485,0 -0.8125,0.364 -0.8125,0.8125 l 0,13.375 c 0,0.4485 0.364015,0.8125 0.8125,0.8125 l 13.375,0 c 0.448485,0 0.8125,-0.364 0.8125,-0.8125 l 0,-13.375 c 0,-0.4485 -0.364015,-0.8125 -0.8125,-0.8125 l -13.375,0 z m 7.1875,3 4,5 -2,0 0,5 -4,0 0,-5 -2,0 4,-5 z"
       style="fill:#000000;fill-opacity:0.32420092;fill-rule:evenodd;stroke:none"
       inkscape:connector-curvature="0" />
    <path
       id="path3804"
       d="m 10.81686,961.71665 c -0.448485,0 -0.8125,0.36402 -0.8125,0.8125 l 0,13.375 c 0,0.44849 0.364015,0.8125 0.8125,0.8125 l 13.374999,0 c 0.448485,0 0.8125,-0.36401 0.8125,-0.8125 l 0,-13.375 c 0,-0.44848 -0.364015,-0.8125 -0.8125,-0.8125 l -13.374999,0 z m 19.999999,0 c -0.448485,0 -0.8125,0.36402 -0.8125,0.8125 l 0,13.375 c 0,0.44849 0.364015,0.8125 0.8125,0.8125 l 13.375,0 c 0.448485,0 0.8125,-0.36401 0.8125,-0.8125 l 0,-13.375 c 0,-0.44848 -0.364015,-0.8125 -0.8125,-0.8125 l -13.375,0 z m 20,0 c -0.448484,0 -0.8125,0.36402 -0.8125,0.8125 l 0,13.375 c 0,0.44849 0.364016,0.8125 0.8125,0.8125 l 13.375001,0 c 0.448485,0 0.8125,-0.36401 0.8125,-0.8125 l 0,-13.375 c 0,-0.44848 -0.364015,-0.8125 -0.8125,-0.8125 l -13.375001,0 z m 20.000001,0 c -0.448485,0 -0.8125,0.36402 -0.8125,0.8125 l 0,13.375 c 0,0.44849 0.364015,0.8125 0.8125,0.8125 l 13.375,0 c 0.448485,0 0.8125,-0.36401 0.8125,-0.8125 l 0,-13.375 c 0,-0.44848 -0.364015,-0.8125 -0.8125,-0.8125 l -13.375,0 z m 1.1875,4 8,0 3,3.5 -3,3.5 -8,0 0,-7 z m 2.71875,1.375 -0.6875,0.71875 1.40625,1.40625 -1.40625,1.40625 0.6875,0.71875 1.4375,-1.40625 1.40625,1.40625 0.71875,-0.71875 -1.4375,-1.40625 1.4375,-1.40625 -0.71875,-0.71875 -1.40625,1.40625 -1.4375,-1.40625 z m -63.90625,14.625 c -0.448485,0 -0.8125,0.36402 -0.8125,0.8125 l 0,13.375 c 0,0.44849 0.364015,0.8125 0.8125,0.8125 l 13.374999,0 c 0.448485,0 0.8125,-0.36401 0.8125,-0.8125 l 0,-13.375 c 0,-0.44848 -0.364015,-0.8125 -0.8125,-0.8125 l -13.374999,0 z m 19.999999,0 c -0.448485,0 -0.8125,0.36402 -0.8125,0.8125 l 0,13.375 c 0,0.44849 0.364015,0.8125 0.8125,0.8125 l 13.375,0 c 0.448485,0 0.8125,-0.36401 0.8125,-0.8125 l 0,-13.375 c 0,-0.44848 -0.364015,-0.8125 -0.8125,-0.8125 l -13.375,0 z m 20,0 c -0.448484,0 -0.8125,0.36402 -0.8125,0.8125 l 0,13.375 c 0,0.44849 0.364016,0.8125 0.8125,0.8125 l 13.375001,0 c 0.448485,0 0.8125,-0.36401 0.8125,-0.8125 l 0,-13.375 c 0,-0.44848 -0.364015,-0.8125 -0.8125,-0.8125 l -13.375001,0 z m 20.000001,0 c -0.448485,0 -0.8125,0.36402 -0.8125,0.8125 l 0,13.375 c 0,0.44849 0.364015,0.8125 0.8125,0.8125 l 13.375,0 c 0.448485,0 0.8125,-0.36401 0.8125,-0.8125 l 0,-13.375 c 0,-0.44848 -0.364015,-0.8125 -0.8125,-0.8125 l -13.375,0 z m 4.1875,4 8,0 0,7 -8,0 -3,-3.5 3,-3.5 z m 2.4375,1.375 -0.71875,0.71875 1.4375,1.40625 -1.4375,1.40625 0.71875,0.71875 1.40625,-1.40625 1.4375,1.40625 0.6875,-0.71875 -1.40625,-1.40625 1.40625,-1.40625 -0.6875,-0.71875 -1.4375,1.40625 -1.40625,-1.40625 z m -66.625,14.62495 c -0.448485,0 -0.8125,0.364 -0.8125,0.8125 l 0,13.375 c 0,0.4485 0.364015,0.8125 0.8125,0.8125 l 13.374999,0 c 0.448485,0 0.8125,-0.364 0.8125,-0.8125 l 0,-13.375 c 0,-0.4485 -0.364015,-0.8125 -0.8125,-0.8125 l -13.374999,0 z m 19.999999,0 c -0.448485,0 -0.8125,0.364 -0.8125,0.8125 l 0,13.375 c 0,0.4485 0.364015,0.8125 0.8125,0.8125 l 13.375,0 c 0.448485,0 0.8125,-0.364 0.8125,-0.8125 l 0,-13.375 c 0,-0.4485 -0.364015,-0.8125 -0.8125,-0.8125 l -13.375,0 z m 20,0 c -0.448484,0 -0.8125,0.364 -0.8125,0.8125 l 0,13.375 c 0,0.4485 0.364016,0.8125 0.8125,0.8125 l 33.375001,0 c 0.448485,0 0.8125,-0.364 0.8125,-0.8125 l 0,-13.375 c 0,-0.4485 -0.364015,-0.8125 -0.8125,-0.8125 l -33.375001,0 z m 24.187501,3 5,0 0,8 -1,0 -8,0 0,2 -7,-3 7,-3 0,2 7,0 0,-4 -3,0 0,-2 z m -64.1875,17 c -0.448485,0 -0.8125,0.364 -0.8125,0.8125 l 0,13.375 c 0,0.4485 0.364015,0.8125 0.8125,0.8125 l 53.375,0 c 0.448485,0 0.8125,-0.364 0.8125,-0.8125 l 0,-13.375 c 0,-0.4485 -0.364015,-0.8125 -0.8125,-0.8125 l -53.375,0 z m 60,0 c -0.448485,0 -0.8125,0.364 -0.8125,0.8125 l 0,13.375 c 0,0.4485 0.364015,0.8125 0.8125,0.8125 l 13.375,0 c 0.448485,0 0.8125,-0.364 0.8125,-0.8125 l 0,-13.375 c 0,-0.4485 -0.364015,-0.8125 -0.8125,-0.8125 l -13.375,0 z m 7.1875,3 4,5 -2,0 0,5 -4,0 0,-5 -2,0 4,-5 z"
       style="fill:#000000;fill-opacity:0.3242009;fill-rule:evenodd;stroke:none"
       inkscape:connector-curvature="0" />
    <path
       inkscape:connector-curvature="0"
       style="fill:#000000;fill-opacity:0.32420092;fill-rule:evenodd;stroke:none"
       d="m 10.81686,963.07113 c -0.448485,0 -0.8125,0.36402 -0.8125,0.8125 l 0,13.375 c 0,0.44849 0.364015,0.8125 0.8125,0.8125 l 13.374999,0 c 0.448485,0 0.8125,-0.36401 0.8125,-0.8125 l 0,-13.375 c 0,-0.44848 -0.364015,-0.8125 -0.8125,-0.8125 l -13.374999,0 z m 19.999999,0 c -0.448485,0 -0.8125,0.36402 -0.8125,0.8125 l 0,13.375 c 0,0.44849 0.364015,0.8125 0.8125,0.8125 l 13.375,0 c 0.448485,0 0.8125,-0.36401 0.8125,-0.8125 l 0,-13.375 c 0,-0.44848 -0.364015,-0.8125 -0.8125,-0.8125 l -13.375,0 z m 20,0 c -0.448484,0 -0.8125,0.36402 -0.8125,0.8125 l 0,13.375 c 0,0.44849 0.364016,0.8125 0.8125,0.8125 l 13.375001,0 c 0.448485,0 0.8125,-0.36401 0.8125,-0.8125 l 0,-13.375 c 0,-0.44848 -0.364015,-0.8125 -0.8125,-0.8125 l -13.375001,0 z m 20.000001,0 c -0.448485,0 -0.8125,0.36402 -0.8125,0.8125 l 0,13.375 c 0,0.44849 0.364015,0.8125 0.8125,0.8125 l 13.375,0 c 0.448485,0 0.8125,-0.36401 0.8125,-0.8125 l 0,-13.375 c 0,-0.44848 -0.364015,-0.8125 -0.8125,-0.8125 l -13.375,0 z m 1.1875,4 8,0 3,3.5 -3,3.5 -8,0 0,-7 z m 2.71875,1.375 -0.6875,0.71875 1.40625,1.40625 -1.40625,1.40625 0.6875,0.71875 1.4375,-1.40625 1.40625,1.40625 0.71875,-0.71875 -1.4375,-1.40625 1.4375,-1.40625 -0.71875,-0.71875 -1.40625,1.40625 -1.4375,-1.40625 z m -63.90625,14.625 c -0.448485,0 -0.8125,0.36402 -0.8125,0.8125 l 0,13.375 c 0,0.44849 0.364015,0.8125 0.8125,0.8125 l 13.374999,0 c 0.448485,0 0.8125,-0.36401 0.8125,-0.8125 l 0,-13.375 c 0,-0.44848 -0.364015,-0.8125 -0.8125,-0.8125 l -13.374999,0 z m 19.999999,0 c -0.448485,0 -0.8125,0.36402 -0.8125,0.8125 l 0,13.375 c 0,0.44849 0.364015,0.8125 0.8125,0.8125 l 13.375,0 c 0.448485,0 0.8125,-0.36401 0.8125,-0.8125 l 0,-13.375 c 0,-0.44848 -0.364015,-0.8125 -0.8125,-0.8125 l -13.375,0 z m 20,0 c -0.448484,0 -0.8125,0.36402 -0.8125,0.8125 l 0,13.375 c 0,0.44849 0.364016,0.8125 0.8125,0.8125 l 13.375001,0 c 0.448485,0 0.8125,-0.36401 0.8125,-0.8125 l 0,-13.375 c 0,-0.44848 -0.364015,-0.8125 -0.8125,-0.8125 l -13.375001,0 z m 20.000001,0 c -0.448485,0 -0.8125,0.36402 -0.8125,0.8125 l 0,13.375 c 0,0.44849 0.364015,0.8125 0.8125,0.8125 l 13.375,0 c 0.448485,0 0.8125,-0.36401 0.8125,-0.8125 l 0,-13.375 c 0,-0.44848 -0.364015,-0.8125 -0.8125,-0.8125 l -13.375,0 z m 4.1875,4 8,0 0,7 -8,0 -3,-3.5 3,-3.5 z m 2.4375,1.375 -0.71875,0.71875 1.4375,1.40625 -1.4375,1.40625 0.71875,0.71875 1.40625,-1.40625 1.4375,1.40625 0.6875,-0.71875 -1.40625,-1.40625 1.40625,-1.40625 -0.6875,-0.71875 -1.4375,1.40625 -1.40625,-1.40625 z m -66.625,14.62487 c -0.448485,0 -0.8125,0.364 -0.8125,0.8125 l 0,13.375 c 0,0.4485 0.364015,0.8125 0.8125,0.8125 l 13.374999,0 c 0.448485,0 0.8125,-0.364 0.8125,-0.8125 l 0,-13.375 c 0,-0.4485 -0.364015,-0.8125 -0.8125,-0.8125 l -13.374999,0 z m 19.999999,0 c -0.448485,0 -0.8125,0.364 -0.8125,0.8125 l 0,13.375 c 0,0.4485 0.364015,0.8125 0.8125,0.8125 l 13.375,0 c 0.448485,0 0.8125,-0.364 0.8125,-0.8125 l 0,-13.375 c 0,-0.4485 -0.364015,-0.8125 -0.8125,-0.8125 l -13.375,0 z m 20,0 c -0.448484,0 -0.8125,0.364 -0.8125,0.8125 l 0,13.375 c 0,0.4485 0.364016,0.8125 0.8125,0.8125 l 33.375001,0 c 0.448485,0 0.8125,-0.364 0.8125,-0.8125 l 0,-13.375 c 0,-0.4485 -0.364015,-0.8125 -0.8125,-0.8125 l -33.375001,0 z m 24.187501,3 5,0 0,8 -1,0 -8,0 0,2 -7,-3 7,-3 0,2 7,0 0,-4 -3,0 0,-2 z m -64.1875,17 c -0.448485,0 -0.8125,0.364 -0.8125,0.8125 l 0,13.375 c 0,0.4485 0.364015,0.8125 0.8125,0.8125 l 53.375,0 c 0.448485,0 0.8125,-0.364 0.8125,-0.8125 l 0,-13.375 c 0,-0.4485 -0.364015,-0.8125 -0.8125,-0.8125 l -53.375,0 z m 60,0 c -0.448485,0 -0.8125,0.364 -0.8125,0.8125 l 0,13.375 c 0,0.4485 0.364015,0.8125 0.8125,0.8125 l 13.375,0 c 0.448485,0 0.8125,-0.364 0.8125,-0.8125 l 0,-13.375 c 0,-0.4485 -0.364015,-0.8125 -0.8125,-0.8125 l -13.375,0 z m 7.1875,3 4,5 -2,0 0,5 -4,0 0,-5 -2,0 4,-5 z"
       id="path3806" />
    <path
       style="fill:#00c6ff;fill-opacity:1;fill-rule:evenodd;stroke:none"
       d="M 10.875 4 C 10.426515 4 10.0625 4.3640147 10.0625 4.8125 L 10.0625 18.1875 C 10.0625 18.635985 10.426515 19 10.875 19 L 24.25 19 C 24.698485 19 25.0625 18.635985 25.0625 18.1875 L 25.0625 4.8125 C 25.0625 4.3640147 24.698485 4 24.25 4 L 10.875 4 z M 30.875 4 C 30.426515 4 30.0625 4.3640147 30.0625 4.8125 L 30.0625 18.1875 C 30.0625 18.635985 30.426515 19 30.875 19 L 44.25 19 C 44.698485 19 45.0625 18.635985 45.0625 18.1875 L 45.0625 4.8125 C 45.0625 4.3640147 44.698485 4 44.25 4 L 30.875 4 z M 50.875 4 C 50.426515 4 50.0625 4.3640147 50.0625 4.8125 L 50.0625 18.1875 C 50.0625 18.635985 50.426515 19 50.875 19 L 64.25 19 C 64.698485 19 65.0625 18.635985 65.0625 18.1875 L 65.0625 4.8125 C 65.0625 4.3640147 64.698485 4 64.25 4 L 50.875 4 z M 70.875 4 C 70.426515 4 70.0625 4.3640147 70.0625 4.8125 L 70.0625 18.1875 C 70.0625 18.635985 70.426515 19 70.875 19 L 84.25 19 C 84.698485 19 85.0625 18.635985 85.0625 18.1875 L 85.0625 4.8125 C 85.0625 4.3640147 84.698485 4 84.25 4 L 70.875 4 z M 72.0625 8 L 80.0625 8 L 83.0625 11.5 L 80.0625 15 L 72.0625 15 L 72.0625 8 z M 74.78125 9.375 L 74.09375 10.09375 L 75.5 11.5 L 74.09375 12.90625 L 74.78125 13.625 L 76.21875 12.21875 L 77.625 13.625 L 78.34375 12.90625 L 76.90625 11.5 L 78.34375 10.09375 L 77.625 9.375 L 76.21875 10.78125 L 74.78125 9.375 z M 10.875 24 C 10.426515 24 10.0625 24.364015 10.0625 24.8125 L 10.0625 38.1875 C 10.0625 38.635985 10.426515 39 10.875 39 L 24.25 39 C 24.698485 39 25.0625 38.635985 25.0625 38.1875 L 25.0625 24.8125 C 25.0625 24.364015 24.698485 24 24.25 24 L 10.875 24 z M 30.875 24 C 30.426515 24 30.0625 24.364015 30.0625 24.8125 L 30.0625 38.1875 C 30.0625 38.635985 30.426515 39 30.875 39 L 44.25 39 C 44.698485 39 45.0625 38.635985 45.0625 38.1875 L 45.0625 24.8125 C 45.0625 24.364015 44.698485 24 44.25 24 L 30.875 24 z M 50.875 24 C 50.426515 24 50.0625 24.364015 50.0625 24.8125 L 50.0625 38.1875 C 50.0625 38.635985 50.426515 39 50.875 39 L 64.25 39 C 64.698485 39 65.0625 38.635985 65.0625 38.1875 L 65.0625 24.8125 C 65.0625 24.364015 64.698485 24 64.25 24 L 50.875 24 z M 70.875 24 C 70.426515 24 70.0625 24.364015 70.0625 24.8125 L 70.0625 38.1875 C 70.0625 38.635985 70.426515 39 70.875 39 L 84.25 39 C 84.698485 39 85.0625 38.635985 85.0625 38.1875 L 85.0625 24.8125 C 85.0625 24.364015 84.698485 24 84.25 24 L 70.875 24 z M 75.0625 28 L 83.0625 28 L 83.0625 35 L 75.0625 35 L 72.0625 31.5 L 75.0625 28 z M 77.5 29.375 L 76.78125 30.09375 L 78.21875 31.5 L 76.78125 32.90625 L 77.5 33.625 L 78.90625 32.21875 L 80.34375 33.625 L 81.03125 32.90625 L 79.625 31.5 L 81.03125 30.09375 L 80.34375 29.375 L 78.90625 30.78125 L 77.5 29.375 z M 10.875 44 C 10.426515 44 10.0625 44.364015 10.0625 44.8125 L 10.0625 58.1875 C 10.0625 58.635985 10.426515 59 10.875 59 L 24.25 59 C 24.698485 59 25.0625 58.635985 25.0625 58.1875 L 25.0625 44.8125 C 25.0625 44.364015 24.698485 44 24.25 44 L 10.875 44 z M 30.875 44 C 30.426515 44 30.0625 44.364015 30.0625 44.8125 L 30.0625 58.1875 C 30.0625 58.635985 30.426515 59 30.875 59 L 44.25 59 C 44.698485 59 45.0625 58.635985 45.0625 58.1875 L 45.0625 44.8125 C 45.0625 44.364015 44.698485 44 44.25 44 L 30.875 44 z M 50.875 44 C 50.426515 44 50.0625 44.364015 50.0625 44.8125 L 50.0625 58.1875 C 50.0625 58.635985 50.426515 59 50.875 59 L 84.25 59 C 84.698485 59 85.0625 58.635985 85.0625 58.1875 L 85.0625 44.8125 C 85.0625 44.364015 84.698485 44 84.25 44 L 50.875 44 z M 75.0625 47 L 80.0625 47 L 80.0625 55 L 79.0625 55 L 71.0625 55 L 71.0625 57 L 64.0625 54 L 71.0625 51 L 71.0625 53 L 78.0625 53 L 78.0625 49 L 75.0625 49 L 75.0625 47 z M 10.875 64 C 10.426515 64 10.0625 64.364015 10.0625 64.8125 L 10.0625 78.1875 C 10.0625 78.635985 10.426515 79 10.875 79 L 64.25 79 C 64.698485 79 65.0625 78.635985 65.0625 78.1875 L 65.0625 64.8125 C 65.0625 64.364015 64.698485 64 64.25 64 L 10.875 64 z M 70.875 64 C 70.426515 64 70.0625 64.364015 70.0625 64.8125 L 70.0625 78.1875 C 70.0625 78.635985 70.426515 79 70.875 79 L 84.25 79 C 84.698485 79 85.0625 78.635985 85.0625 78.1875 L 85.0625 64.8125 C 85.0625 64.364015 84.698485 64 84.25 64 L 70.875 64 z M 78.0625 67 L 82.0625 72 L 80.0625 72 L 80.0625 77 L 76.0625 77 L 76.0625 72 L 74.0625 72 L 78.0625 67 z "
       transform="translate(-0.0581405,956.36217)"
       id="rect2999" />
    <path
       style="fill:#000000;fill-opacity:0.62557077;fill-rule:evenodd;stroke:none"
       d="M 72.0625 7.15625 L 72.0625 8 L 80.0625 8 L 82.6875 11.0625 L 83.0625 10.65625 L 80.0625 7.15625 L 72.0625 7.15625 z M 74.5 9.65625 L 74.09375 10.09375 L 75.0625 11.0625 L 75.5 10.65625 L 74.5 9.65625 z M 77.90625 9.65625 L 76.90625 10.65625 L 77.34375 11.0625 L 78.34375 10.09375 L 77.90625 9.65625 z M 76.21875 11.375 L 74.78125 12.78125 L 74.5 12.5 L 74.09375 12.90625 L 74.78125 13.625 L 76.21875 12.21875 L 77.625 13.625 L 78.34375 12.90625 L 77.90625 12.5 L 77.625 12.78125 L 76.21875 11.375 z M 10.0625 17.34375 L 10.0625 18.1875 C 10.0625 18.635985 10.426515 19 10.875 19 L 24.25 19 C 24.698485 19 25.0625 18.635985 25.0625 18.1875 L 25.0625 17.34375 C 25.0625 17.79223 24.698485 18.15625 24.25 18.15625 L 10.875 18.15625 C 10.426515 18.15625 10.0625 17.79223 10.0625 17.34375 z M 30.0625 17.34375 L 30.0625 18.1875 C 30.0625 18.635985 30.426515 19 30.875 19 L 44.25 19 C 44.698485 19 45.0625 18.635985 45.0625 18.1875 L 45.0625 17.34375 C 45.0625 17.79223 44.698485 18.15625 44.25 18.15625 L 30.875 18.15625 C 30.426515 18.15625 30.0625 17.79223 30.0625 17.34375 z M 50.0625 17.34375 L 50.0625 18.1875 C 50.0625 18.635985 50.426515 19 50.875 19 L 64.25 19 C 64.698485 19 65.0625 18.635985 65.0625 18.1875 L 65.0625 17.34375 C 65.0625 17.79223 64.698485 18.15625 64.25 18.15625 L 50.875 18.15625 C 50.426516 18.15625 50.0625 17.79223 50.0625 17.34375 z M 70.0625 17.34375 L 70.0625 18.1875 C 70.0625 18.635985 70.426515 19 70.875 19 L 84.25 19 C 84.698485 19 85.0625 18.635985 85.0625 18.1875 L 85.0625 17.34375 C 85.0625 17.79223 84.698485 18.15625 84.25 18.15625 L 70.875 18.15625 C 70.426515 18.15625 70.0625 17.79223 70.0625 17.34375 z M 75.0625 27.15625 L 72.0625 30.65625 L 72.4375 31.0625 L 75.0625 28 L 83.0625 28 L 83.0625 27.15625 L 75.0625 27.15625 z M 77.21875 29.65625 L 76.78125 30.09375 L 77.78125 31.0625 L 78.21875 30.65625 L 77.21875 29.65625 z M 80.625 29.65625 L 79.625 30.65625 L 80.0625 31.0625 L 81.03125 30.09375 L 80.625 29.65625 z M 78.90625 31.375 L 77.5 32.78125 L 77.21875 32.5 L 76.78125 32.90625 L 77.5 33.625 L 78.90625 32.21875 L 80.34375 33.625 L 81.03125 32.90625 L 80.625 32.5 L 80.34375 32.78125 L 78.90625 31.375 z M 10.0625 37.34375 L 10.0625 38.1875 C 10.0625 38.635985 10.426515 39 10.875 39 L 24.25 39 C 24.698485 39 25.0625 38.635985 25.0625 38.1875 L 25.0625 37.34375 C 25.0625 37.79223 24.698485 38.15625 24.25 38.15625 L 10.875 38.15625 C 10.426515 38.15625 10.0625 37.79223 10.0625 37.34375 z M 30.0625 37.34375 L 30.0625 38.1875 C 30.0625 38.635985 30.426515 39 30.875 39 L 44.25 39 C 44.698485 39 45.0625 38.635985 45.0625 38.1875 L 45.0625 37.34375 C 45.0625 37.79223 44.698485 38.15625 44.25 38.15625 L 30.875 38.15625 C 30.426515 38.15625 30.0625 37.79223 30.0625 37.34375 z M 50.0625 37.34375 L 50.0625 38.1875 C 50.0625 38.635985 50.426515 39 50.875 39 L 64.25 39 C 64.698485 39 65.0625 38.635985 65.0625 38.1875 L 65.0625 37.34375 C 65.0625 37.79223 64.698485 38.15625 64.25 38.15625 L 50.875 38.15625 C 50.426516 38.15625 50.0625 37.79223 50.0625 37.34375 z M 70.0625 37.34375 L 70.0625 38.1875 C 70.0625 38.635985 70.426515 39 70.875 39 L 84.25 39 C 84.698485 39 85.0625 38.635985 85.0625 38.1875 L 85.0625 37.34375 C 85.0625 37.79223 84.698485 38.15625 84.25 38.15625 L 70.875 38.15625 C 70.426515 38.15625 70.0625 37.79223 70.0625 37.34375 z M 75.0625 46.15625 L 75.0625 47 L 80.0625 47 L 80.0625 46.15625 L 75.0625 46.15625 z M 71.0625 50.15625 L 64.0625 53.15625 L 65.0625 53.5625 L 71.0625 51 L 71.0625 50.15625 z M 71.0625 52.15625 L 71.0625 53 L 78.0625 53 L 78.0625 52.15625 L 71.0625 52.15625 z M 10.0625 57.34375 L 10.0625 58.1875 C 10.0625 58.635985 10.426515 59 10.875 59 L 24.25 59 C 24.698485 59 25.0625 58.635985 25.0625 58.1875 L 25.0625 57.34375 C 25.0625 57.79215 24.698485 58.15625 24.25 58.15625 L 10.875 58.15625 C 10.426515 58.15625 10.0625 57.79215 10.0625 57.34375 z M 30.0625 57.34375 L 30.0625 58.1875 C 30.0625 58.635985 30.426515 59 30.875 59 L 44.25 59 C 44.698485 59 45.0625 58.635985 45.0625 58.1875 L 45.0625 57.34375 C 45.0625 57.79215 44.698485 58.15625 44.25 58.15625 L 30.875 58.15625 C 30.426515 58.15625 30.0625 57.79215 30.0625 57.34375 z M 50.0625 57.34375 L 50.0625 58.1875 C 50.0625 58.635985 50.426515 59 50.875 59 L 84.25 59 C 84.698485 59 85.0625 58.635985 85.0625 58.1875 L 85.0625 57.34375 C 85.0625 57.79215 84.698485 58.15625 84.25 58.15625 L 50.875 58.15625 C 50.426516 58.15625 50.0625 57.79215 50.0625 57.34375 z M 78.0625 66.15625 L 74.0625 71.15625 L 74.75 71.15625 L 78.0625 67 L 81.375 71.15625 L 82.0625 71.15625 L 78.0625 66.15625 z M 10.0625 77.34375 L 10.0625 78.1875 C 10.0625 78.635985 10.426515 79 10.875 79 L 64.25 79 C 64.698485 79 65.0625 78.635985 65.0625 78.1875 L 65.0625 77.34375 C 65.0625 77.79215 64.698485 78.15625 64.25 78.15625 L 10.875 78.15625 C 10.426515 78.15625 10.0625 77.79215 10.0625 77.34375 z M 70.0625 77.34375 L 70.0625 78.1875 C 70.0625 78.635985 70.426515 79 70.875 79 L 84.25 79 C 84.698485 79 85.0625 78.635985 85.0625 78.1875 L 85.0625 77.34375 C 85.0625 77.79215 84.698485 78.15625 84.25 78.15625 L 70.875 78.15625 C 70.426515 78.15625 70.0625 77.79215 70.0625 77.34375 z "
       transform="translate(-0.0581405,956.36217)"
       id="path3794" />
    <path
       style="fill:#ffffff;fill-opacity:0.50684929;fill-rule:evenodd;stroke:none"
       d="M 10.875 4 C 10.426515 4 10.0625 4.3640147 10.0625 4.8125 L 10.0625 5.65625 C 10.0625 5.20777 10.426515 4.84375 10.875 4.84375 L 24.25 4.84375 C 24.698485 4.84375 25.0625 5.20777 25.0625 5.65625 L 25.0625 4.8125 C 25.0625 4.3640147 24.698485 4 24.25 4 L 10.875 4 z M 30.875 4 C 30.426515 4 30.0625 4.3640147 30.0625 4.8125 L 30.0625 5.65625 C 30.0625 5.20777 30.426515 4.84375 30.875 4.84375 L 44.25 4.84375 C 44.698485 4.84375 45.0625 5.20777 45.0625 5.65625 L 45.0625 4.8125 C 45.0625 4.3640147 44.698485 4 44.25 4 L 30.875 4 z M 50.875 4 C 50.426515 4 50.0625 4.3640147 50.0625 4.8125 L 50.0625 5.65625 C 50.0625 5.20777 50.426516 4.84375 50.875 4.84375 L 64.25 4.84375 C 64.698485 4.84375 65.0625 5.20777 65.0625 5.65625 L 65.0625 4.8125 C 65.0625 4.3640147 64.698485 4 64.25 4 L 50.875 4 z M 70.875 4 C 70.426515 4 70.0625 4.3640147 70.0625 4.8125 L 70.0625 5.65625 C 70.0625 5.20777 70.426515 4.84375 70.875 4.84375 L 84.25 4.84375 C 84.698485 4.84375 85.0625 5.20777 85.0625 5.65625 L 85.0625 4.8125 C 85.0625 4.3640147 84.698485 4 84.25 4 L 70.875 4 z M 74.78125 9.375 L 74.09375 10.09375 L 74.5 10.5 L 74.78125 10.21875 L 76.21875 11.625 L 77.625 10.21875 L 77.90625 10.5 L 78.34375 10.09375 L 77.625 9.375 L 76.21875 10.78125 L 74.78125 9.375 z M 75.0625 11.9375 L 74.09375 12.90625 L 74.5 13.34375 L 75.5 12.34375 L 75.0625 11.9375 z M 77.34375 11.9375 L 76.90625 12.34375 L 77.90625 13.34375 L 78.34375 12.90625 L 77.34375 11.9375 z M 82.6875 11.9375 L 80.0625 15 L 72.0625 15 L 72.0625 15.84375 L 80.0625 15.84375 L 83.0625 12.34375 L 82.6875 11.9375 z M 10.875 24 C 10.426515 24 10.0625 24.364015 10.0625 24.8125 L 10.0625 25.65625 C 10.0625 25.20777 10.426515 24.84375 10.875 24.84375 L 24.25 24.84375 C 24.698485 24.84375 25.0625 25.20777 25.0625 25.65625 L 25.0625 24.8125 C 25.0625 24.364015 24.698485 24 24.25 24 L 10.875 24 z M 30.875 24 C 30.426515 24 30.0625 24.364015 30.0625 24.8125 L 30.0625 25.65625 C 30.0625 25.20777 30.426515 24.84375 30.875 24.84375 L 44.25 24.84375 C 44.698485 24.84375 45.0625 25.20777 45.0625 25.65625 L 45.0625 24.8125 C 45.0625 24.364015 44.698485 24 44.25 24 L 30.875 24 z M 50.875 24 C 50.426515 24 50.0625 24.364015 50.0625 24.8125 L 50.0625 25.65625 C 50.0625 25.20777 50.426516 24.84375 50.875 24.84375 L 64.25 24.84375 C 64.698485 24.84375 65.0625 25.20777 65.0625 25.65625 L 65.0625 24.8125 C 65.0625 24.364015 64.698485 24 64.25 24 L 50.875 24 z M 70.875 24 C 70.426515 24 70.0625 24.364015 70.0625 24.8125 L 70.0625 25.65625 C 70.0625 25.20777 70.426515 24.84375 70.875 24.84375 L 84.25 24.84375 C 84.698485 24.84375 85.0625 25.20777 85.0625 25.65625 L 85.0625 24.8125 C 85.0625 24.364015 84.698485 24 84.25 24 L 70.875 24 z M 77.5 29.375 L 76.78125 30.09375 L 77.21875 30.5 L 77.5 30.21875 L 78.90625 31.625 L 80.34375 30.21875 L 80.625 30.5 L 81.03125 30.09375 L 80.34375 29.375 L 78.90625 30.78125 L 77.5 29.375 z M 72.4375 31.9375 L 72.0625 32.34375 L 75.0625 35.84375 L 83.0625 35.84375 L 83.0625 35 L 75.0625 35 L 72.4375 31.9375 z M 77.78125 31.9375 L 76.78125 32.90625 L 77.21875 33.34375 L 78.21875 32.34375 L 77.78125 31.9375 z M 80.0625 31.9375 L 79.625 32.34375 L 80.625 33.34375 L 81.03125 32.90625 L 80.0625 31.9375 z M 10.875 44 C 10.426515 44 10.0625 44.364015 10.0625 44.8125 L 10.0625 45.65625 C 10.0625 45.20775 10.426515 44.84375 10.875 44.84375 L 24.25 44.84375 C 24.698485 44.84375 25.0625 45.20775 25.0625 45.65625 L 25.0625 44.8125 C 25.0625 44.364015 24.698485 44 24.25 44 L 10.875 44 z M 30.875 44 C 30.426515 44 30.0625 44.364015 30.0625 44.8125 L 30.0625 45.65625 C 30.0625 45.20775 30.426515 44.84375 30.875 44.84375 L 44.25 44.84375 C 44.698485 44.84375 45.0625 45.20775 45.0625 45.65625 L 45.0625 44.8125 C 45.0625 44.364015 44.698485 44 44.25 44 L 30.875 44 z M 50.875 44 C 50.426515 44 50.0625 44.364015 50.0625 44.8125 L 50.0625 45.65625 C 50.0625 45.20775 50.426516 44.84375 50.875 44.84375 L 84.25 44.84375 C 84.698485 44.84375 85.0625 45.20775 85.0625 45.65625 L 85.0625 44.8125 C 85.0625 44.364015 84.698485 44 84.25 44 L 50.875 44 z M 75.0625 49 L 75.0625 49.84375 L 78.0625 49.84375 L 78.0625 49 L 75.0625 49 z M 65.0625 54.4375 L 64.0625 54.84375 L 71.0625 57.84375 L 71.0625 57 L 65.0625 54.4375 z M 71.0625 55 L 71.0625 55.84375 L 79.0625 55.84375 L 80.0625 55.84375 L 80.0625 55 L 79.0625 55 L 71.0625 55 z M 10.875 64 C 10.426515 64 10.0625 64.364015 10.0625 64.8125 L 10.0625 65.65625 C 10.0625 65.20775 10.426515 64.84375 10.875 64.84375 L 64.25 64.84375 C 64.698485 64.84375 65.0625 65.20775 65.0625 65.65625 L 65.0625 64.8125 C 65.0625 64.364015 64.698485 64 64.25 64 L 10.875 64 z M 70.875 64 C 70.426515 64 70.0625 64.364015 70.0625 64.8125 L 70.0625 65.65625 C 70.0625 65.20775 70.426515 64.84375 70.875 64.84375 L 84.25 64.84375 C 84.698485 64.84375 85.0625 65.20775 85.0625 65.65625 L 85.0625 64.8125 C 85.0625 64.364015 84.698485 64 84.25 64 L 70.875 64 z M 74.75 72 L 74.0625 72.84375 L 76.0625 72.84375 L 76.0625 72 L 74.75 72 z M 80.0625 72 L 80.0625 72.84375 L 82.0625 72.84375 L 81.375 72 L 80.0625 72 z M 76.0625 77 L 76.0625 77.84375 L 80.0625 77.84375 L 80.0625 77 L 76.0625 77 z "
       transform="translate(-0.0581405,956.36217)"
       id="path3799" />
  </g>
</svg>
