<?xml version="1.0" encoding="UTF-8" standalone="no"?>
<!-- Created with Inkscape (http://www.inkscape.org/) -->

<svg
   xmlns:dc="http://purl.org/dc/elements/1.1/"
   xmlns:cc="http://creativecommons.org/ns#"
   xmlns:rdf="http://www.w3.org/1999/02/22-rdf-syntax-ns#"
   xmlns:svg="http://www.w3.org/2000/svg"
   xmlns="http://www.w3.org/2000/svg"
   xmlns:sodipodi="http://sodipodi.sourceforge.net/DTD/sodipodi-0.dtd"
   xmlns:inkscape="http://www.inkscape.org/namespaces/inkscape"
   width="96"
   height="96"
   id="svg2"
   version="1.1"
   inkscape:version="0.48.4 r9939"
   sodipodi:docname="media-tape.svg">
  <defs
     id="defs4" />
  <sodipodi:namedview
     id="base"
     pagecolor="#ffffff"
     bordercolor="#666666"
     borderopacity="1.0"
     inkscape:pageopacity="0.0"
     inkscape:pageshadow="2"
     inkscape:zoom="5.90625"
     inkscape:cx="48"
     inkscape:cy="48"
     inkscape:document-units="px"
     inkscape:current-layer="layer1"
     showgrid="true"
     inkscape:snap-page="true"
     inkscape:snap-global="false"
     inkscape:snap-center="true"
     inkscape:snap-object-midpoints="false"
     showguides="true"
     inkscape:guide-bbox="true"
     inkscape:snap-bbox="true"
     inkscape:object-paths="true"
     inkscape:object-nodes="true"
     inkscape:window-width="1305"
     inkscape:window-height="744"
     inkscape:window-x="61"
     inkscape:window-y="24"
     inkscape:window-maximized="1"
     inkscape:snap-midpoints="true"
     inkscape:snap-grids="true"
     inkscape:snap-to-guides="false">
    <inkscape:grid
       type="xygrid"
       id="grid3002"
       empspacing="5"
       visible="true"
       enabled="true"
       snapvisiblegridlinesonly="true" />
  </sodipodi:namedview>
  <metadata
     id="metadata7">
    <rdf:RDF>
      <cc:Work
         rdf:about="">
        <dc:format>image/svg+xml</dc:format>
        <dc:type
           rdf:resource="http://purl.org/dc/dcmitype/StillImage" />
        <dc:title />
      </cc:Work>
    </rdf:RDF>
  </metadata>
  <g
     inkscape:label="Layer 1"
     inkscape:groupmode="layer"
     id="layer1"
     transform="translate(0,-956.36218)">
    <rect
       style="fill:#ffffff;fill-opacity:0;fill-rule:nonzero;stroke:none"
       id="rect3775"
       width="96"
       height="96"
       x="0"
       y="956.36218"
       ry="0" />
    <path
       style="fill:#000000;fill-opacity:0.09589041;fill-rule:nonzero;stroke:none"
       d="m 3.353015,956.30662 c -1.884176,0 -3.4111555,1.43156 -3.4111555,3.19799 l 0,83.65949 c 0,1.7665 1.5269795,3.1981 3.4111555,3.1981 l 89.23583,0 c 1.884174,0 3.411155,-1.4316 3.411155,-3.1981 l 0,-83.65949 c 0,-1.76643 -1.526981,-3.19799 -3.411155,-3.19799 z"
       id="rect3772"
       inkscape:connector-curvature="0"
       sodipodi:nodetypes="sssssssss" />
    <path
       style="fill:#000000;fill-opacity:0.18721463;fill-rule:nonzero;stroke:none"
       d="m 1.0459761,1041.8066 0,7.4219 c 0,1.7392 1.461916,3.1337 3.2852054,3.1337 l 86.3836135,0 c 1.823288,0 3.285205,-1.3945 3.285205,-3.1337 l 0,-7.4219 -92.9540239,0 z"
       id="rect3785"
       inkscape:connector-curvature="0" />
    <path
       style="fill:#000000;fill-opacity:0.38356168;fill-rule:nonzero;stroke:none"
       d="m 1.0459761,1041.8066 0,5.3807 c 0,1.762 1.461916,3.1749 3.2852054,3.1749 l 86.3836135,0 c 1.823288,0 3.285205,-1.4129 3.285205,-3.1749 l 0,-5.3807 -92.9540239,0 z"
       id="rect3783"
       inkscape:connector-curvature="0" />
    <rect
       style="fill:#2c2c2c;fill-opacity:1;fill-rule:nonzero;stroke:none"
       id="rect2985"
       width="92.954025"
       height="89"
       x="1.045977"
       y="957.36218"
       ry="3.1511393" />
    <path
       style="fill:#000000;fill-opacity:0.62100458;fill-rule:nonzero;stroke:none"
       d="m 1,86 0.03125,2.75 C 1.06149,90.5558 2.5204606,92 4.34375,92 l 86.375,0 C 92.542038,92 94,90.5562 94,88.75 L 93.96875,86 72,86 71,83 24,83 23,86 z"
       transform="translate(0,956.36218)"
       id="rect3781"
       inkscape:connector-curvature="0"
       sodipodi:nodetypes="ccssccccccc" />
    <path
       style="fill:#ffffff;fill-opacity:0.15981735;fill-rule:nonzero;stroke:none"
       d="m 1.03125,84 0,2 L 23,86 l 1,-3 47,0 1,3 22,0 0,-2 -21,0 -1,-3 -49,0 -1,3 z"
       transform="translate(0,956.36218)"
       id="rect3770"
       inkscape:connector-curvature="0"
       sodipodi:nodetypes="ccccccccccccc" />
    <rect
       style="fill:#000000;fill-opacity:1;fill-rule:evenodd;stroke:none"
       id="rect3835"
       width="10"
       height="5"
       x="26"
       y="1039.3622" />
    <rect
       y="1039.3622"
       x="40"
       height="5"
       width="15"
       id="rect3837"
       style="fill:#000000;fill-opacity:1;fill-rule:evenodd;stroke:none" />
    <rect
       style="fill:#000000;fill-opacity:1;fill-rule:evenodd;stroke:none"
       id="rect3839"
       width="10"
       height="5"
       x="59"
       y="1039.3622" />
    <path
       style="fill:#380a00;fill-opacity:0.71689501;fill-rule:evenodd;stroke:none"
       d="m 26,1039.3622 0,4 10,0 0,-4 -10,0 z m 14,0 0,4 15,0 0,-4 -15,0 z m 19,0 0,4 10,0 0,-4 -10,0 z"
       id="rect3841"
       inkscape:connector-curvature="0" />
    <rect
       style="fill:#000000;fill-opacity:0.62100459;fill-rule:evenodd;stroke:none"
       id="rect3848"
       width="1"
       height="5"
       x="35"
       y="83"
       transform="translate(0,956.36218)" />
    <rect
       style="fill:#000000;fill-opacity:0.62100459;fill-rule:evenodd;stroke:none"
       id="rect3850"
       width="1"
       height="4"
       x="26"
       y="83"
       transform="translate(0,956.36218)" />
    <rect
       style="fill:#000000;fill-opacity:0.62100459;fill-rule:evenodd;stroke:none"
       id="rect3852"
       width="1"
       height="5"
       x="40"
       y="83"
       transform="translate(0,956.36218)" />
    <rect
       style="fill:#000000;fill-opacity:0.62100459;fill-rule:evenodd;stroke:none"
       id="rect3854"
       width="1"
       height="4"
       x="54"
       y="83"
       transform="translate(0,956.36218)" />
    <rect
       style="fill:#000000;fill-opacity:0.62100459;fill-rule:evenodd;stroke:none"
       id="rect3856"
       width="1"
       height="5"
       x="59"
       y="83"
       transform="translate(0,956.36218)" />
    <rect
       style="fill:#000000;fill-opacity:0.62100459;fill-rule:evenodd;stroke:none"
       id="rect3858"
       width="1"
       height="5"
       x="68"
       y="83"
       transform="translate(0,956.36218)" />
    <path
       style="fill:#7a7a7a;fill-opacity:0.38356167;fill-rule:evenodd;stroke:none"
       d="m 29.276125,1022.365 a 2.6590489,2.1777847 0 0 0 -2.327079,1.6615 l -3.997802,13.0726 a 2.6590489,2.1777847 0 0 0 -0.05966,0.2443 l 49.137159,0 a 2.6590489,2.1777847 0 0 0 -0.02984,-0.2443 l -3.997802,-13.0726 a 2.6590489,2.1777847 0 0 0 -2.595587,-1.6615 l -35.860878,0 a 2.6590489,2.1777847 0 0 0 -0.268509,0 z"
       id="path3806"
       inkscape:connector-curvature="0" />
    <path
       style="fill:#000000;fill-opacity:0.79908675;fill-rule:evenodd;stroke:none"
       d="m 31,1024.3434 c -0.554,0 -1,0.446 -1,1 l 0,3 c 0,0.554 0.446,1 1,1 l 3,0 c 0.554,0 1,-0.446 1,-1 l 0,-3 c 0,-0.554 -0.446,-1 -1,-1 l -3,0 z m 30,0 c -0.554,0 -1,0.446 -1,1 l 0,3 c 0,0.554 0.446,1 1,1 l 3,0 c 0.554,0 1,-0.446 1,-1 l 0,-3 c 0,-0.554 -0.446,-1 -1,-1 l -3,0 z m -21.1875,4 c -0.4432,0 -0.8125,0.3693 -0.8125,0.8125 l 0,2.375 c 0,0.4432 0.3693,0.8125 0.8125,0.8125 l 2.375,0 c 0.4432,0 0.8125,-0.3693 0.8125,-0.8125 l 0,-2.375 c 0,-0.4432 -0.3693,-0.8125 -0.8125,-0.8125 l -2.375,0 z m 13,0 c -0.4432,0 -0.8125,0.3693 -0.8125,0.8125 l 0,2.375 c 0,0.4432 0.3693,0.8125 0.8125,0.8125 l 2.375,0 c 0.4432,0 0.8125,-0.3693 0.8125,-0.8125 l 0,-2.375 c 0,-0.4432 -0.3693,-0.8125 -0.8125,-0.8125 l -2.375,0 z"
       id="rect3814"
       inkscape:connector-curvature="0" />
    <path
       style="fill:#000000;fill-opacity:1;fill-rule:evenodd;stroke:none"
       d="m 31,1024.3434 c -0.554,0 -1,0.446 -1,1 l 0,0.3125 c 0,-0.554 0.446,-1 1,-1 l 3,0 c 0.554,0 1,0.446 1,1 l 0,-0.3125 c 0,-0.554 -0.446,-1 -1,-1 l -3,0 z m 30,0 c -0.554,0 -1,0.446 -1,1 l 0,0.3125 c 0,-0.554 0.446,-1 1,-1 l 3,0 c 0.554,0 1,0.446 1,1 l 0,-0.3125 c 0,-0.554 -0.446,-1 -1,-1 l -3,0 z m -21.1875,4 c -0.4432,0 -0.8125,0.3693 -0.8125,0.8125 l 0,0.3125 c 0,-0.4432 0.3693,-0.8125 0.8125,-0.8125 l 2.375,0 c 0.4432,0 0.8125,0.3693 0.8125,0.8125 l 0,-0.3125 c 0,-0.4432 -0.3693,-0.8125 -0.8125,-0.8125 l -2.375,0 z m 13,0 c -0.4432,0 -0.8125,0.3693 -0.8125,0.8125 l 0,0.3125 c 0,-0.4432 0.3693,-0.8125 0.8125,-0.8125 l 2.375,0 c 0.4432,0 0.8125,0.3693 0.8125,0.8125 l 0,-0.3125 c 0,-0.4432 -0.3693,-0.8125 -0.8125,-0.8125 l -2.375,0 z"
       id="path3823"
       inkscape:connector-curvature="0" />
    <path
       style="fill:#ffffff;fill-opacity:0.79908675;fill-rule:evenodd;stroke:none"
       d="m 30,1028.3464 0,0.3125 c 0,0.554 0.446,1 1,1 l 3,0 c 0.554,0 1,-0.446 1,-1 l 0,-0.3125 c 0,0.554 -0.446,1 -1,1 l -3,0 c -0.554,0 -1,-0.446 -1,-1 z m 30,0 0,0.3125 c 0,0.554 0.446,1 1,1 l 3,0 c 0.554,0 1,-0.446 1,-1 l 0,-0.3125 c 0,0.554 -0.446,1 -1,1 l -3,0 c -0.554,0 -1,-0.446 -1,-1 z m -21,3.1875 0,0.3125 c 0,0.4432 0.3693,0.8125 0.8125,0.8125 l 2.375,0 c 0.4432,0 0.8125,-0.3693 0.8125,-0.8125 l 0,-0.3125 c 0,0.4432 -0.3693,0.8125 -0.8125,0.8125 l -2.375,0 c -0.4432,0 -0.8125,-0.3693 -0.8125,-0.8125 z m 13,0 0,0.3125 c 0,0.4432 0.3693,0.8125 0.8125,0.8125 l 2.375,0 c 0.4432,0 0.8125,-0.3693 0.8125,-0.8125 l 0,-0.3125 c 0,0.4432 -0.3693,0.8125 -0.8125,0.8125 l -2.375,0 c -0.4432,0 -0.8125,-0.3693 -0.8125,-0.8125 z"
       id="path3828"
       inkscape:connector-curvature="0" />
    <path
       sodipodi:type="arc"
       style="fill:#000000;fill-opacity:0.86757992;fill-rule:evenodd;stroke:none"
       id="path3877"
       sodipodi:cx="7.5"
       sodipodi:cy="8.5"
       sodipodi:rx="2.5"
       sodipodi:ry="2.5"
       d="M 10,8.5 C 10,9.8807119 8.8807119,11 7.5,11 6.1192881,11 5,9.8807119 5,8.5 5,7.1192881 6.1192881,6 7.5,6 8.8807119,6 10,7.1192881 10,8.5 z"
       transform="translate(0,956.36218)" />
    <path
       sodipodi:type="arc"
       style="fill:#000000;fill-opacity:0.86757992;fill-rule:evenodd;stroke:none"
       id="path3879"
       sodipodi:cx="87.5"
       sodipodi:cy="8.5"
       sodipodi:rx="2.5"
       sodipodi:ry="2.5"
       d="M 90,8.5 C 90,9.8807119 88.880712,11 87.5,11 86.119288,11 85,9.8807119 85,8.5 85,7.1192881 86.119288,6 87.5,6 88.880712,6 90,7.1192881 90,8.5 z"
       transform="translate(0,956.36218)" />
    <path
       sodipodi:type="arc"
       style="fill:#000000;fill-opacity:0.86757992;fill-rule:evenodd;stroke:none"
       id="path3881"
       sodipodi:cx="87.5"
       sodipodi:cy="78.5"
       sodipodi:rx="2.5"
       sodipodi:ry="2.5"
       d="M 90,78.5 C 90,79.880712 88.880712,81 87.5,81 86.119288,81 85,79.880712 85,78.5 85,77.119288 86.119288,76 87.5,76 c 1.380712,0 2.5,1.119288 2.5,2.5 z"
       transform="translate(0,956.36218)" />
    <path
       sodipodi:type="arc"
       style="fill:#000000;fill-opacity:0.86757992;fill-rule:evenodd;stroke:none"
       id="path3883"
       sodipodi:cx="7.5"
       sodipodi:cy="78.5"
       sodipodi:rx="2.5"
       sodipodi:ry="2.5"
       d="M 10,78.5 C 10,79.880712 8.8807119,81 7.5,81 6.1192881,81 5,79.880712 5,78.5 5,77.119288 6.1192881,76 7.5,76 8.8807119,76 10,77.119288 10,78.5 z"
       transform="translate(0,956.36218)" />
    <path
       style="fill:#1a1a1a;fill-opacity:1;fill-rule:nonzero;stroke:none"
       d="m 19.758865,983.36613 c -5.667286,0 -10.2285935,4.48756 -10.2285935,9.98478 0,5.49719 4.5613075,9.92249 10.2285935,9.92249 5.66728,0 10.292918,-4.4253 10.292918,-9.92249 0,-5.49722 -4.625638,-9.98478 -10.292918,-9.98478 z"
       id="path4146"
       inkscape:connector-curvature="0" />
    <path
       inkscape:connector-curvature="0"
       id="path4034"
       d="m 19.761743,984.25666 c -5.160253,0 -9.313475,4.08614 -9.313475,9.09153 0,5.00541 4.153222,9.03471 9.313475,9.03471 5.160246,0 9.372042,-4.0293 9.372042,-9.03471 0,-5.00539 -4.211796,-9.09153 -9.372042,-9.09153 z"
       style="fill:#ffffff;fill-opacity:1;fill-rule:nonzero;stroke:none" />
    <path
       inkscape:connector-curvature="0"
       style="fill:#000000;fill-opacity:1;fill-rule:nonzero;stroke:none"
       d="m 18.886116,985.79908 c -0.789654,0.0873 -1.55138,0.31585 -2.250053,0.61677 l 0.684801,1.13887 -1.516344,0.85405 -0.684799,-1.13887 c -0.614842,0.44992 -1.159674,1.00888 -1.614167,1.61324 l 1.17394,0.6643 -0.880455,1.47102 -1.17394,-0.6643 c -0.29664,0.66993 -0.499144,1.38313 -0.586971,2.13532 l 1.418511,0 0,1.7083 -1.418511,0 c 0.0895,0.7654 0.280937,1.50552 0.586971,2.18252 l 1.222854,-0.6642 0.880455,1.4709 -1.17394,0.6643 c 0.471994,0.6119 1.023832,1.166 1.663082,1.6134 l 0.684798,-1.1864 1.516342,0.8543 -0.684797,1.1862 c 0.698337,0.2856 1.463723,0.4448 2.250051,0.5219 l 0,-1.3285 1.760913,0 0,1.3285 c 0.792978,-0.097 1.548482,-0.3085 2.25005,-0.6168 l -0.684796,-1.1389 1.516338,-0.854 0.635884,1.0911 c 0.614062,-0.4507 1.210318,-0.9619 1.663084,-1.5655 l -1.17394,-0.6643 0.880454,-1.4712 1.125026,0.6168 c 0.281898,-0.6517 0.50517,-1.35737 0.58697,-2.08765 l -1.320684,0 0,-1.7083 1.320684,0 c -0.09366,-0.75026 -0.332212,-1.46792 -0.635884,-2.13513 l -1.125026,0.61696 -0.880458,-1.47121 1.125028,-0.61697 c -0.451482,-0.58476 -1.011188,-1.12781 -1.614166,-1.5657 l -0.684802,1.09134 -1.516338,-0.85406 0.635884,-1.09133 c -0.69068,-0.29122 -1.425542,-0.53044 -2.201138,-0.61677 l 0,1.32822 -1.760911,0 0,-1.32822 z"
       id="path3244" />
    <rect
       style="fill:#9e9e9e;fill-opacity:1;fill-rule:nonzero;stroke:none"
       id="rect4053"
       width="27.041744"
       height="21.953432"
       x="33.483299"
       y="982.34314" />
    <path
       style="fill:#000000;fill-opacity:1;fill-rule:nonzero;stroke:none"
       d="m 33.504171,982.346 0,21.9479 5.0625,0 c 0.864802,-1.1489 1.855266,-2.1921 2.4375,-3.5165 0.995824,-2.2653 1.5625,-4.7761 1.5625,-7.39681 0,-2.62075 -0.566676,-5.12044 -1.5625,-7.39681 -0.596574,-1.36393 -1.60732,-2.4572 -2.5,-3.63778 l -5,0 z m 19.0625,0 c -0.593186,0.93573 -1.432464,1.70481 -1.875,2.72824 -1.109746,2.56662 -1.75,5.35151 -1.75,8.30635 0,2.95461 0.640254,5.75221 1.75,8.30621 0.427004,0.9826 1.244992,1.7067 1.8125,2.6071 l 8,0 0,-21.9479 -7.9375,0 z"
       id="rect4061"
       inkscape:connector-curvature="0" />
    <path
       style="fill:#ffffff;fill-opacity:0.38356168;fill-rule:nonzero;stroke:none"
       d="m 35.004171,983.80111 0,19.03769 8,0 4,-19.03769 z"
       id="path4084"
       inkscape:connector-curvature="0"
       sodipodi:nodetypes="ccccc" />
    <path
       inkscape:connector-curvature="0"
       id="path4148"
       d="m 74.250885,983.36613 c -5.667286,0 -10.228592,4.48756 -10.228592,9.98478 0,5.49719 4.561306,9.92249 10.228592,9.92249 5.66728,0 10.292918,-4.4253 10.292918,-9.92249 0,-5.49722 -4.625638,-9.98478 -10.292918,-9.98478 z"
       style="fill:#1a1a1a;fill-opacity:1;fill-rule:nonzero;stroke:none" />
    <path
       style="fill:#ffffff;fill-opacity:1;fill-rule:nonzero;stroke:none"
       d="m 74.253763,984.25666 c -5.160252,0 -9.313474,4.08614 -9.313474,9.09153 0,5.00541 4.153222,9.03471 9.313474,9.03471 5.160246,0 9.372042,-4.0293 9.372042,-9.03471 0,-5.00539 -4.211796,-9.09153 -9.372042,-9.09153 z"
       id="path4150"
       inkscape:connector-curvature="0" />
    <path
       id="path4152"
       d="m 73.378137,985.79908 c -0.789654,0.0873 -1.55138,0.31585 -2.250054,0.61677 l 0.684802,1.13887 -1.516344,0.85405 -0.684798,-1.13887 c -0.614844,0.44992 -1.159676,1.00888 -1.614168,1.61324 l 1.17394,0.6643 -0.880456,1.47102 -1.17394,-0.6643 c -0.296638,0.66993 -0.499144,1.38313 -0.58697,2.13532 l 1.418512,0 0,1.7083 -1.418512,0 c 0.0895,0.7654 0.280936,1.50552 0.58697,2.18252 l 1.222854,-0.6642 0.880456,1.4709 -1.17394,0.6643 c 0.471994,0.6119 1.023832,1.166 1.663082,1.6134 l 0.684798,-1.1864 1.516342,0.8543 -0.684798,1.1862 c 0.698338,0.2856 1.463724,0.4448 2.250052,0.5219 l 0,-1.3285 1.760912,0 0,1.3285 c 0.792978,-0.097 1.548482,-0.3085 2.25005,-0.6168 l -0.684796,-1.1389 1.516338,-0.854 0.635884,1.0911 c 0.614062,-0.4507 1.210318,-0.9619 1.663084,-1.5655 l -1.17394,-0.6643 0.880454,-1.4712 1.125026,0.6168 c 0.281898,-0.6517 0.50517,-1.35737 0.58697,-2.08765 l -1.320684,0 0,-1.7083 1.320684,0 c -0.09366,-0.75026 -0.332212,-1.46792 -0.635884,-2.13513 l -1.125026,0.61696 -0.880458,-1.47121 1.125028,-0.61697 c -0.451482,-0.58476 -1.011188,-1.12781 -1.614166,-1.5657 l -0.684802,1.09134 -1.516338,-0.85406 0.635884,-1.09133 c -0.69068,-0.29122 -1.425542,-0.53044 -2.201138,-0.61677 l 0,1.32822 -1.76091,0 0,-1.32822 z"
       style="fill:#000000;fill-opacity:1;fill-rule:nonzero;stroke:none"
       inkscape:connector-curvature="0" />
    <rect
       style="fill:#ffffff;fill-opacity:0.10185188;fill-rule:nonzero;stroke:none"
       id="rect4154"
       width="22.949926"
       height="4.9614964"
       x="34.937202"
       y="997.5199"
       ry="2.4807482" />
    <rect
       ry="1.2085698"
       y="998.79218"
       x="36.51091"
       height="2.4171395"
       width="19.802507"
       id="rect4170"
       style="fill:#ffffff;fill-opacity:0.10185188;fill-rule:nonzero;stroke:none" />
    <text
       xml:space="preserve"
       style="font-size:9.28125095px;font-style:normal;font-variant:normal;font-weight:normal;font-stretch:normal;text-align:end;line-height:125%;letter-spacing:0px;word-spacing:0px;text-anchor:end;fill:#54bc00;fill-opacity:1;stroke:none;font-family:Andale Mono;-inkscape-font-specification:Andale Mono"
       x="41.379124"
       y="1202.7954"
       id="text3887"
       sodipodi:linespacing="125%"
       transform="scale(1.1851851,0.84375006)"><tspan
         sodipodi:role="line"
         id="tspan3889"
         x="41.379124"
         y="1202.7954"
         style="font-style:normal;font-variant:normal;font-weight:bold;font-stretch:normal;fill:#54bc00;fill-opacity:1;font-family:Helvetica Neue LT Com;-inkscape-font-specification:Helvetica Neue LT Com Bold">SIDE: A</tspan></text>
  </g>
</svg>
