<?xml version="1.0" encoding="UTF-8" standalone="no"?>
<!-- Created with Inkscape (http://www.inkscape.org/) -->

<svg
   xmlns:dc="http://purl.org/dc/elements/1.1/"
   xmlns:cc="http://creativecommons.org/ns#"
   xmlns:rdf="http://www.w3.org/1999/02/22-rdf-syntax-ns#"
   xmlns:svg="http://www.w3.org/2000/svg"
   xmlns="http://www.w3.org/2000/svg"
   xmlns:xlink="http://www.w3.org/1999/xlink"
   xmlns:sodipodi="http://sodipodi.sourceforge.net/DTD/sodipodi-0.dtd"
   xmlns:inkscape="http://www.inkscape.org/namespaces/inkscape"
   width="96"
   height="96"
   id="svg4141"
   version="1.1"
   inkscape:version="0.48.4 r9939"
   sodipodi:docname="media-dvd (copy).svg">
  <defs
     id="defs4143">
    <linearGradient
       id="linearGradient3766">
      <stop
         style="stop-color:#999999;stop-opacity:1;"
         offset="0"
         id="stop3768" />
      <stop
         id="stop3774"
         offset="0.13687819"
         style="stop-color:#515151;stop-opacity:1;" />
      <stop
         style="stop-color:#ffffff;stop-opacity:1;"
         offset="1"
         id="stop3770" />
    </linearGradient>
    <style
       id="style2464"
       type="text/css" />
    <linearGradient
       id="linearGradient3778">
      <stop
         style="stop-color:#580050;stop-opacity:1;"
         offset="0"
         id="stop3780" />
      <stop
         id="stop3767"
         offset="0.5"
         style="stop-color:#000c4a;stop-opacity:1;" />
      <stop
         style="stop-color:#000000;stop-opacity:1;"
         offset="1"
         id="stop3782" />
    </linearGradient>
    <linearGradient
       inkscape:collect="always"
       xlink:href="#linearGradient3778"
       id="linearGradient3921"
       x1="70.112"
       y1="990.25897"
       x2="21.069908"
       y2="1038.0762"
       gradientUnits="userSpaceOnUse" />
    <radialGradient
       inkscape:collect="always"
       xlink:href="#linearGradient3766"
       id="radialGradient3776"
       cx="25.669643"
       cy="27.0625"
       fx="25.669643"
       fy="27.0625"
       r="8.3446426"
       gradientUnits="userSpaceOnUse"
       gradientTransform="matrix(3.6919903,3.8501723,-0.72177823,0.6921244,-49.569307,-90.500667)" />
    <radialGradient
       inkscape:collect="always"
       xlink:href="#linearGradient3766"
       id="radialGradient3785"
       cx="25.669643"
       cy="27.0625"
       fx="25.669643"
       fy="27.0625"
       r="8.3834543"
       gradientUnits="userSpaceOnUse"
       gradientTransform="matrix(3.0889574,3.2686041,-0.72679751,0.68685178,-33.953834,-75.429328)" />
  </defs>
  <sodipodi:namedview
     id="base"
     pagecolor="#ffffff"
     bordercolor="#666666"
     borderopacity="1.0"
     inkscape:pageopacity="0.0"
     inkscape:pageshadow="2"
     inkscape:zoom="3.5"
     inkscape:cx="39.428571"
     inkscape:cy="26.147841"
     inkscape:current-layer="g4079"
     showgrid="true"
     inkscape:grid-bbox="true"
     inkscape:document-units="px"
     inkscape:window-width="1305"
     inkscape:window-height="744"
     inkscape:window-x="61"
     inkscape:window-y="24"
     inkscape:window-maximized="1"
     inkscape:snap-page="true"
     inkscape:snap-bbox="false"
     fit-margin-top="0"
     fit-margin-left="0"
     fit-margin-right="0"
     fit-margin-bottom="0"
     inkscape:snap-global="false" />
  <metadata
     id="metadata4146">
    <rdf:RDF>
      <cc:Work
         rdf:about="">
        <dc:format>image/svg+xml</dc:format>
        <dc:type
           rdf:resource="http://purl.org/dc/dcmitype/StillImage" />
        <dc:title />
      </cc:Work>
    </rdf:RDF>
  </metadata>
  <g
     id="layer1"
     inkscape:label="Layer 1"
     inkscape:groupmode="layer"
     transform="translate(-2.0528877e-6,47.999994)">
    <g
       id="g4079"
       transform="matrix(1.2902545,0,0,1.2902545,-10.176612,-1307.9718)">
      <rect
         style="fill:none;stroke:none"
         id="rect3332"
         width="74.403923"
         height="74.403923"
         x="7.8872919"
         y="976.52966" />
      <path
         style="fill:url(#linearGradient3921);fill-opacity:1;stroke:none"
         d="m 45.089257,979.2769 c -19.017661,0 -34.440882,15.4232 -34.440882,34.4408 0,19.0176 15.423221,34.441 34.440882,34.441 19.017659,0 34.440882,-15.4234 34.440882,-34.441 0,-19.0176 -15.423223,-34.4408 -34.440882,-34.4408 z m 0.04844,27.9498 c 3.622332,0 6.587848,2.9656 6.587848,6.588 0,3.6222 -2.965516,6.5394 -6.587848,6.5394 -3.622332,0 -6.539408,-2.9172 -6.539408,-6.5394 0,-3.6224 2.917076,-6.588 6.539408,-6.588 z"
         id="path2985"
         inkscape:connector-curvature="0" />
      <path
         style="fill:#cccccc;fill-opacity:0.53424656000000004;stroke:none"
         d="M 51.001649,1001.5427 61.83585,984.3775 c 3.531788,2.014 6.103774,4.3274 8.781768,7.4712 l -14.936303,13.8502 c -1.44917,-1.8924 -3.064102,-3.1898 -4.679666,-4.1562 z"
         id="path3198"
         inkscape:connector-curvature="0"
         sodipodi:nodetypes="ccccc"
         inkscape:transform-center-x="-7.670158"
         inkscape:transform-center-y="-9.2428144" />
      <path
         inkscape:transform-center-y="9.6868356"
         inkscape:transform-center-x="7.0608935"
         sodipodi:nodetypes="ccccc"
         inkscape:connector-curvature="0"
         id="path3987"
         d="m 39.930483,1027.1847 -9.605075,17.8818 c -3.664166,-1.7614 -6.391908,-3.889 -9.283556,-6.8376 l 13.929344,-14.8622 c 1.578125,1.786 3.280003,2.967 4.959287,3.818 z"
         style="fill:#00ffff;fill-opacity:0.53424656000000004;stroke:none" />
      <path
         style="fill:#0000ff;fill-opacity:0.53424656000000004;stroke:none"
         d="m 38.352733,1026.5725 -11.498501,16.7272 c -3.450132,-2.1506 -5.929512,-4.563 -8.482238,-7.8094 l 15.467554,-13.254 c 1.373878,1.9474 2.936745,3.3072 4.513185,4.3362 z"
         id="path3999"
         inkscape:connector-curvature="0"
         sodipodi:nodetypes="ccccc"
         inkscape:transform-center-x="7.9945275"
         inkscape:transform-center-y="8.9746856" />
      <path
         inkscape:transform-center-y="7.5890356"
         inkscape:transform-center-x="9.3069495"
         sodipodi:nodetypes="ccccc"
         inkscape:connector-curvature="0"
         id="path4003"
         d="m 36.225267,1024.9559 -14.280377,14.4252 c -3.014482,-2.7278 -5.027188,-5.5414 -6.964315,-9.1888 l 17.571233,-10.3036 c 1.007088,2.16 2.304288,3.7752 3.673459,5.0672 z"
         style="fill:#ff00ff;fill-opacity:0.53424656000000004;stroke:none" />
      <path
         transform="matrix(1.6955233,0,0,1.6955233,1.6239856,967.9165)"
         d="m 33.214286,27.0625 c 0,4.166791 -3.377851,7.544643 -7.544643,7.544643 -4.166791,0 -7.544643,-3.377852 -7.544643,-7.544643 0,-4.166791 3.377852,-7.544643 7.544643,-7.544643 4.166792,0 7.544643,3.377852 7.544643,7.544643 z"
         sodipodi:ry="7.5446429"
         sodipodi:rx="7.5446429"
         sodipodi:cy="27.0625"
         sodipodi:cx="25.669643"
         id="path3771"
         style="fill:none;stroke:url(#radialGradient3776);stroke-width:1.60000001999999997;stroke-miterlimit:4;stroke-opacity:1;stroke-dasharray:none"
         sodipodi:type="arc" />
      <path
         sodipodi:type="arc"
         style="fill:none;stroke:url(#radialGradient3785);stroke-width:1.67762256000000010;stroke-miterlimit:4;stroke-opacity:1;stroke-dasharray:none"
         id="path3773"
         sodipodi:cx="25.669643"
         sodipodi:cy="27.0625"
         sodipodi:rx="7.5446429"
         sodipodi:ry="7.5446429"
         d="m 33.214286,27.0625 c 0,4.166791 -3.377851,7.544643 -7.544643,7.544643 -4.166791,0 -7.544643,-3.377852 -7.544643,-7.544643 0,-4.166791 3.377852,-7.544643 7.544643,-7.544643 4.166792,0 7.544643,3.377852 7.544643,7.544643 z"
         transform="matrix(1.0747882,0,0,1.0747882,17.558034,984.7153)" />
      <path
         d="m 42.013014,986.45002 -3.537852,0 -2.661333,0 -0.270829,1.09753 2.015804,0 0.466085,0 c 1.294224,0 2.084891,0.50869 1.864657,1.3998 -0.237786,0.97672 -1.372802,1.40358 -2.569794,1.40358 l -0.446163,0 0.577705,-2.40004 -2.003946,0 -0.856595,3.50536 2.852477,0 c 2.138964,0 4.181645,-1.09519 4.533896,-2.5089 0.07115,-0.25707 0.06324,-0.90189 -0.102764,-1.28718 0,-0.0208 -0.01572,-0.0234 -0.02056,-0.0598 -0.01589,0 -0.01589,-0.0688 0.02056,-0.0766 0.01734,0 0.0506,0.0273 0.06008,0.0351 0.01734,0.0429 0.02689,0.074 0.02689,0.074 l 1.812799,4.98661 4.621482,-5.07195 1.952087,0 0.470195,0 c 1.294066,0 2.083944,0.50856 1.872404,1.3998 -0.246482,0.97672 -1.380708,1.40384 -2.577697,1.40384 l -0.450117,0 0.581656,-2.4003 -2.007897,0 -0.852643,3.50523 2.852478,0 c 2.139278,0 4.190654,-1.09519 4.533892,-2.50877 0.352094,-1.40513 -1.162682,-2.50499 -3.310656,-2.50499 l -4.251049,0 c 0,0 -1.127109,1.29497 -1.33865,1.54347 -1.117625,1.3107 -1.323,1.66221 -1.358413,1.75651 0.01572,-0.0935 -0.03477,-0.44413 -0.510038,-1.7721 -0.131227,-0.35982 -0.533752,-1.52788 -0.533752,-1.52788 l -1.454223,0 0,0 z m 1.83256,6.2043 c -5.422585,0 -9.816559,0.60806 -9.816559,1.35317 0,0.75407 4.393974,1.35343 9.816559,1.35343 5.422588,0 9.820671,-0.59936 9.820671,-1.35343 0,-0.74511 -4.398083,-1.35317 -9.820671,-1.35317 z m -0.354462,0.9345 c 1.241259,0 2.246945,0.19784 2.246945,0.44581 0,0.2485 -1.005686,0.45375 -2.246945,0.45375 -1.241417,0 -2.243154,-0.20525 -2.243154,-0.45375 0,-0.2481 1.001737,-0.44581 2.243154,-0.44581 z"
         inkscape:connector-curvature="0"
         id="path3745"
         style="fill:none;stroke:#999999;stroke-width:0.37300742;stroke-miterlimit:4;stroke-dasharray:none;display:inline" />
      <path
         style="font-size:8.62725449px;font-style:normal;font-variant:normal;font-weight:normal;font-stretch:normal;text-align:end;line-height:125%;letter-spacing:0px;word-spacing:0px;text-anchor:end;fill:#ececec;fill-opacity:1;stroke:none;font-family:Andale Mono;-inkscape-font-specification:Andale Mono"
         d="M 69.5625 46.625 L 68.78125 53.875 L 70.15625 53.875 L 70.5 50.5 L 70.53125 50.5 L 73.28125 53.875 L 74.96875 53.875 L 72.65625 51.15625 C 72.808242 51.156253 73.011456 51.145925 73.3125 51.09375 C 73.621978 51.04158 73.937974 50.937771 74.25 50.78125 C 74.562014 50.624735 74.843995 50.380703 75.09375 50.09375 C 75.352622 49.800283 75.511705 49.420101 75.5625 48.9375 C 75.59475 48.630991 75.548787 48.33777 75.4375 48.03125 C 75.334642 47.724742 75.147206 47.44049 74.875 47.21875 C 74.649327 47.036153 74.368317 46.892124 74 46.78125 C 73.631671 46.67039 73.096146 46.625007 72.4375 46.625 L 69.5625 46.625 z M 76.5625 46.625 L 78.4375 53.875 L 79.625 53.875 L 81.875 48.8125 L 83.0625 53.875 L 84.25 53.875 L 87.65625 46.625 L 86.25 46.625 L 83.84375 52.03125 L 82.625 46.625 L 81.625 46.625 L 79.21875 52.0625 L 78 46.625 L 76.5625 46.625 z M 70.8125 47.59375 L 72.25 47.59375 C 72.63843 47.593756 72.965896 47.633976 73.21875 47.71875 C 73.471594 47.803537 73.66578 47.900824 73.8125 48.03125 C 73.967652 48.161687 74.074598 48.305716 74.125 48.46875 C 74.18452 48.625273 74.203279 48.787509 74.1875 48.9375 C 74.162786 49.172282 74.087233 49.368215 73.96875 49.53125 C 73.850941 49.687772 73.702666 49.833159 73.53125 49.9375 C 73.359823 50.041849 73.177583 50.12881 72.96875 50.1875 C 72.768351 50.246198 72.571958 50.286417 72.375 50.3125 C 72.186477 50.33859 72.013317 50.337232 71.84375 50.34375 C 71.682619 50.350275 71.561633 50.375004 71.46875 50.375 L 70.53125 50.375 L 70.8125 47.59375 z "
         transform="matrix(0.77504089,0,0,0.77504089,7.887292,976.52967)"
         id="text3004" />
    </g>
  </g>
</svg>
