<?xml version="1.0" encoding="UTF-8" standalone="no"?>
<!-- Created with Inkscape (http://www.inkscape.org/) -->

<svg
   xmlns:dc="http://purl.org/dc/elements/1.1/"
   xmlns:cc="http://creativecommons.org/ns#"
   xmlns:rdf="http://www.w3.org/1999/02/22-rdf-syntax-ns#"
   xmlns:svg="http://www.w3.org/2000/svg"
   xmlns="http://www.w3.org/2000/svg"
   xmlns:xlink="http://www.w3.org/1999/xlink"
   xmlns:sodipodi="http://sodipodi.sourceforge.net/DTD/sodipodi-0.dtd"
   xmlns:inkscape="http://www.inkscape.org/namespaces/inkscape"
   width="96"
   height="96"
   id="svg4141"
   version="1.1"
   inkscape:version="0.48.4 r9939"
   sodipodi:docname="media-optical (copy).svg">
  <defs
     id="defs4143">
    <linearGradient
       id="linearGradient3766">
      <stop
         style="stop-color:#999999;stop-opacity:1;"
         offset="0"
         id="stop3768" />
      <stop
         id="stop3774"
         offset="0.13687819"
         style="stop-color:#515151;stop-opacity:1;" />
      <stop
         style="stop-color:#ffffff;stop-opacity:1;"
         offset="1"
         id="stop3770" />
    </linearGradient>
    <style
       id="style2464"
       type="text/css" />
    <linearGradient
       id="linearGradient3778">
      <stop
         style="stop-color:#580050;stop-opacity:1;"
         offset="0"
         id="stop3780" />
      <stop
         id="stop3767"
         offset="0.5"
         style="stop-color:#000c4a;stop-opacity:1;" />
      <stop
         style="stop-color:#000000;stop-opacity:1;"
         offset="1"
         id="stop3782" />
    </linearGradient>
    <linearGradient
       inkscape:collect="always"
       xlink:href="#linearGradient3778"
       id="linearGradient3921"
       x1="70.112"
       y1="990.25897"
       x2="21.069908"
       y2="1038.0762"
       gradientUnits="userSpaceOnUse" />
    <radialGradient
       inkscape:collect="always"
       xlink:href="#linearGradient3766"
       id="radialGradient3776"
       cx="25.669643"
       cy="27.0625"
       fx="25.669643"
       fy="27.0625"
       r="8.3446426"
       gradientUnits="userSpaceOnUse"
       gradientTransform="matrix(3.6919903,3.8501723,-0.72177823,0.6921244,-49.569307,-90.500667)" />
    <radialGradient
       inkscape:collect="always"
       xlink:href="#linearGradient3766"
       id="radialGradient3785"
       cx="25.669643"
       cy="27.0625"
       fx="25.669643"
       fy="27.0625"
       r="8.3834543"
       gradientUnits="userSpaceOnUse"
       gradientTransform="matrix(3.0889574,3.2686041,-0.72679751,0.68685178,-33.953834,-75.429328)" />
  </defs>
  <sodipodi:namedview
     id="base"
     pagecolor="#ffffff"
     bordercolor="#666666"
     borderopacity="1.0"
     inkscape:pageopacity="0.0"
     inkscape:pageshadow="2"
     inkscape:zoom="3.5"
     inkscape:cx="33.284723"
     inkscape:cy="26.147841"
     inkscape:current-layer="g4079"
     showgrid="true"
     inkscape:grid-bbox="true"
     inkscape:document-units="px"
     inkscape:window-width="1305"
     inkscape:window-height="744"
     inkscape:window-x="61"
     inkscape:window-y="24"
     inkscape:window-maximized="1"
     inkscape:snap-page="true"
     inkscape:snap-bbox="false"
     fit-margin-top="0"
     fit-margin-left="0"
     fit-margin-right="0"
     fit-margin-bottom="0"
     inkscape:snap-global="false" />
  <metadata
     id="metadata4146">
    <rdf:RDF>
      <cc:Work
         rdf:about="">
        <dc:format>image/svg+xml</dc:format>
        <dc:type
           rdf:resource="http://purl.org/dc/dcmitype/StillImage" />
        <dc:title />
      </cc:Work>
    </rdf:RDF>
  </metadata>
  <g
     id="layer1"
     inkscape:label="Layer 1"
     inkscape:groupmode="layer"
     transform="translate(-2.0528877e-6,47.999994)">
    <g
       id="g4079"
       transform="matrix(1.2902545,0,0,1.2902545,-10.176612,-1307.9718)">
      <rect
         style="fill:none;stroke:none"
         id="rect3332"
         width="74.403923"
         height="74.403923"
         x="7.8872919"
         y="976.52966" />
      <path
         style="fill:url(#linearGradient3921);fill-opacity:1;stroke:none"
         d="m 45.089257,979.2769 c -19.017661,0 -34.440882,15.4232 -34.440882,34.4408 0,19.0176 15.423221,34.441 34.440882,34.441 19.017659,0 34.440882,-15.4234 34.440882,-34.441 0,-19.0176 -15.423223,-34.4408 -34.440882,-34.4408 z m 0.04844,27.9498 c 3.622332,0 6.587848,2.9656 6.587848,6.588 0,3.6222 -2.965516,6.5394 -6.587848,6.5394 -3.622332,0 -6.539408,-2.9172 -6.539408,-6.5394 0,-3.6224 2.917076,-6.588 6.539408,-6.588 z"
         id="path2985"
         inkscape:connector-curvature="0" />
      <path
         style="fill:#cccccc;fill-opacity:0.53424656000000004;stroke:none"
         d="M 51.001649,1001.5427 61.83585,984.3775 c 3.531788,2.014 6.103774,4.3274 8.781768,7.4712 l -14.936303,13.8502 c -1.44917,-1.8924 -3.064102,-3.1898 -4.679666,-4.1562 z"
         id="path3198"
         inkscape:connector-curvature="0"
         sodipodi:nodetypes="ccccc"
         inkscape:transform-center-x="-7.670158"
         inkscape:transform-center-y="-9.2428144" />
      <path
         inkscape:transform-center-y="9.6868356"
         inkscape:transform-center-x="7.0608935"
         sodipodi:nodetypes="ccccc"
         inkscape:connector-curvature="0"
         id="path3987"
         d="m 39.930483,1027.1847 -9.605075,17.8818 c -3.664166,-1.7614 -6.391908,-3.889 -9.283556,-6.8376 l 13.929344,-14.8622 c 1.578125,1.786 3.280003,2.967 4.959287,3.818 z"
         style="fill:#00ffff;fill-opacity:0.53424656000000004;stroke:none" />
      <path
         style="fill:#0000ff;fill-opacity:0.53424656000000004;stroke:none"
         d="m 38.352733,1026.5725 -11.498501,16.7272 c -3.450132,-2.1506 -5.929512,-4.563 -8.482238,-7.8094 l 15.467554,-13.254 c 1.373878,1.9474 2.936745,3.3072 4.513185,4.3362 z"
         id="path3999"
         inkscape:connector-curvature="0"
         sodipodi:nodetypes="ccccc"
         inkscape:transform-center-x="7.9945275"
         inkscape:transform-center-y="8.9746856" />
      <path
         inkscape:transform-center-y="7.5890356"
         inkscape:transform-center-x="9.3069495"
         sodipodi:nodetypes="ccccc"
         inkscape:connector-curvature="0"
         id="path4003"
         d="m 36.225267,1024.9559 -14.280377,14.4252 c -3.014482,-2.7278 -5.027188,-5.5414 -6.964315,-9.1888 l 17.571233,-10.3036 c 1.007088,2.16 2.304288,3.7752 3.673459,5.0672 z"
         style="fill:#ff00ff;fill-opacity:0.53424656000000004;stroke:none" />
      <path
         transform="matrix(1.6955233,0,0,1.6955233,1.6239856,967.9165)"
         d="m 33.214286,27.0625 c 0,4.166791 -3.377851,7.544643 -7.544643,7.544643 -4.166791,0 -7.544643,-3.377852 -7.544643,-7.544643 0,-4.166791 3.377852,-7.544643 7.544643,-7.544643 4.166792,0 7.544643,3.377852 7.544643,7.544643 z"
         sodipodi:ry="7.5446429"
         sodipodi:rx="7.5446429"
         sodipodi:cy="27.0625"
         sodipodi:cx="25.669643"
         id="path3771"
         style="fill:none;stroke:url(#radialGradient3776);stroke-width:1.60000001999999997;stroke-miterlimit:4;stroke-opacity:1;stroke-dasharray:none"
         sodipodi:type="arc" />
      <path
         sodipodi:type="arc"
         style="fill:none;stroke:url(#radialGradient3785);stroke-width:1.67762256000000010;stroke-miterlimit:4;stroke-opacity:1;stroke-dasharray:none"
         id="path3773"
         sodipodi:cx="25.669643"
         sodipodi:cy="27.0625"
         sodipodi:rx="7.5446429"
         sodipodi:ry="7.5446429"
         d="m 33.214286,27.0625 c 0,4.166791 -3.377851,7.544643 -7.544643,7.544643 -4.166791,0 -7.544643,-3.377852 -7.544643,-7.544643 0,-4.166791 3.377852,-7.544643 7.544643,-7.544643 4.166792,0 7.544643,3.377852 7.544643,7.544643 z"
         transform="matrix(1.0747882,0,0,1.0747882,17.558034,984.7153)" />
      <path
         inkscape:connector-curvature="0"
         style="fill:#ffff00;fill-opacity:1"
         d="m 40.947548,984.94907 c -1.028902,0 -0.937042,0.2612 -0.96903,0.5428 -0.0104,0.092 -10e-4,0.3082 0,0.5426 10e-4,0.2344 -0.0104,0.4898 0,0.5814 0.03196,0.2814 -0.05986,0.5426 0.96903,0.5426 1.0289,0 0.898264,-0.2612 0.930268,-0.5426 0.0062,-0.054 0.0354,-0.188 0.03876,-0.31 l -0.58142,0 c -0.0016,0.062 0.002,0.136 0,0.156 -0.016,0.14 0.0182,0.194 -0.387612,0.194 -0.40572,0 -0.410356,-0.054 -0.426372,-0.194 -0.0052,-0.046 -4.96e-4,-0.3092 0,-0.4264 5e-4,-0.116 -0.0052,-0.3418 0,-0.3876 0.016,-0.14 0.02066,-0.2326 0.426372,-0.2326 0.405742,0 0.371618,0.092 0.387612,0.2326 0.0022,0.02 -0.0016,0.05 0,0.116 l 0.58142,0 c -0.0036,-0.126 -0.03258,-0.2164 -0.03876,-0.2712 -0.03202,-0.2814 0.09864,-0.5426 -0.930268,-0.5426 z m 2.209388,0 c -1.0289,0 -0.89826,0.2612 -0.930268,0.5428 -0.0104,0.092 -0.0398,0.3082 -0.03876,0.5426 10e-4,0.2344 0.0284,0.4898 0.03876,0.5814 0.03204,0.2814 -0.09864,0.5426 0.930268,0.5426 1.028919,0 0.937025,-0.2612 0.969031,-0.5426 0.0104,-0.092 -9.3e-4,-0.347 0,-0.5814 10e-4,-0.2344 0.0104,-0.451 0,-0.5426 -0.03202,-0.2816 0.05988,-0.5428 -0.969031,-0.5428 z m 9.380211,0 c -1.02889,0 -0.89825,0.2612 -0.930258,0.5428 -0.0112,0.092 -0.0398,0.3082 -0.0387,0.5426 0.001,0.2344 0.02832,0.4898 0.0387,0.5814 0.03202,0.2814 -0.09866,0.5426 0.930258,0.5426 1.028926,0 0.937032,-0.2612 0.96904,-0.5426 0.0056,-0.054 -0.0038,-0.188 0,-0.31 l -0.542668,0 c -0.0016,0.062 0.0019,0.136 0,0.156 -0.0166,0.14 -0.02074,0.194 -0.426372,0.194 -0.405714,0 -0.371616,-0.054 -0.38761,-0.194 -0.0056,-0.046 -0.03924,-0.3092 -0.0387,-0.4264 5e-4,-0.116 0.0335,-0.3418 0.0387,-0.3876 0.0166,-0.14 -0.0186,-0.2326 0.38761,-0.2326 0.405748,0 0.410378,0.092 0.426372,0.2326 0.0019,0.02 -0.0016,0.05 0,0.116 l 0.542668,0 c -0.0038,-0.126 0.0056,-0.2164 0,-0.2712 -0.03202,-0.2814 0.0598,-0.5426 -0.96904,-0.5426 z m -15.388197,0.038 c -0.254754,0 -0.426374,0.2104 -0.426374,0.465 l 0,2.0544 c 0,0.108 -0.08698,0.194 -0.1938,0.194 l -1.93806,0 c -0.747676,0 -1.356644,0.609 -1.356644,1.35658 l 0,5.1554 c 0,0.7474 0.608968,1.3564 1.356644,1.3564 l 3.372226,0 0.852746,0 c 0.254754,0 0.426372,-0.2102 0.426372,-0.4652 l 0,-9.65138 c 0,-0.2548 -0.17162,-0.465 -0.426372,-0.465 l -1.666738,8e-4 z m 7.325869,0 0,2.1318 0.542656,0 0,-1.5892 0.542658,1.5892 0.542656,0 0.542656,-1.5892 0,1.5892 0.542658,0 0,-2.1318 -0.813986,0 -0.542656,1.589 -0.542656,-1.589 -0.813986,10e-4 z m 3.139658,0 0,2.1318 0.542656,0 0,-0.504 0.348852,0 c 1.028922,0 0.904298,-0.2606 0.93027,-0.5426 0.0044,-0.048 0.03878,-0.2042 0.03876,-0.2712 0,-0.084 -0.0343,-0.238 -0.03876,-0.2714 -0.03788,-0.2808 0.09866,-0.5426 -0.93027,-0.5426 l -0.891508,10e-4 z m 2.441958,0 -0.62018,2.1318 0.542654,0 0.15514,-0.4652 0.697706,0 0.11626,0.4652 0.542648,0 -0.620174,-2.1318 -0.813998,10e-4 z m 3.566028,0 0,0.5426 0.503902,0 0,1.5892 0.542648,0 0,-1.5892 0.503902,0 0,-0.5426 -1.550452,10e-4 z m -10.465527,0.4262 c 0.405743,0 0.410379,0.092 0.426375,0.2326 0.0052,0.046 -4.96e-4,0.2704 0,0.3876 5e-4,0.116 0.0052,0.3806 0,0.4264 -0.016,0.14 -0.02066,0.194 -0.426375,0.194 -0.405722,0 -0.371614,-0.054 -0.387612,-0.194 -0.0052,-0.046 -4.96e-4,-0.3092 0,-0.4264 5.18e-4,-0.116 -0.0052,-0.3418 0,-0.3876 0.016,-0.14 -0.0182,-0.2316 0.387612,-0.2316 z m -5.81418,0.038 1.27912,0 c 0.10676,0 0.1938,0.086 0.1938,0.194 l 0,9.26398 c 0,0.108 -0.08704,0.194 -0.1938,0.194 l -0.65894,0 -3.372226,0 c -0.49046,0 -0.891508,-0.401 -0.891508,-0.8912 l 0,-5.1554 c 0,-0.49058 0.40105,-0.89158 0.891508,-0.89158 l 2.093104,0 c 0.254754,0 0.465136,-0.2102 0.465136,-0.465 l 0,-2.0544 c 0,-0.106 0.08704,-0.192 0.1938,-0.192 z m 13.140055,0 0.232568,0.8528 -0.503902,0 0.271334,-0.8508 z m -2.325678,0.038 0.348852,0 c 0.405668,0 0.3716,0.054 0.38761,0.194 0.0052,0.046 -4.98e-4,-4e-4 0,0.116 4.96e-4,0.114 0.0052,0.07 0,0.116 -0.016,0.14 0.0182,0.2326 -0.38761,0.2326 l -0.348852,0 0,-0.655 z m -7.791003,2.2094 c -0.254754,0 -0.465136,0.2104 -0.465136,0.465 l 0,6.93818 c 0,0.255 0.210378,0.4652 0.465136,0.4652 l 0.813986,0 0.813986,0 c 0.25481,0 0.465134,-0.2102 0.465134,-0.4652 l 0,-6.93818 c 0,-0.2546 -0.210324,-0.465 -0.465134,-0.465 l -1.627972,0 z m 4.147451,0 c -0.747616,0 -1.317884,0.609 -1.317884,1.35658 l 0,2.3258 c 0,0.7476 0.570268,1.3564 1.317884,1.3564 l 1.860536,0 c 0.16908,0 0.310092,0.14 0.310092,0.3102 0,0.168 -0.14102,0.2714 -0.310092,0.2714 l -2.752044,0 c -0.254774,0 -0.465137,0.2102 -0.465137,0.465 l 0,1.3178 c 0,0.255 0.210377,0.4652 0.465137,0.4652 l 3.914882,-0.038 c 0.747614,0 1.35664,-0.5702 1.35664,-1.3178 l 0,-2.3646 c 0,-0.7476 -0.609006,-1.318 -1.35664,-1.318 l -1.860538,0 c -0.169,0 -0.31009,-0.14 -0.31009,-0.31 0,-0.168 0.1411,-0.31 0.31009,-0.31 l 1.35664,0 1.124076,0 c 0.254736,0 0.465134,-0.2104 0.465134,-0.4652 l 0,-1.27918 c 0,-0.2546 -0.210302,-0.465 -0.465134,-0.465 l -3.643552,0.002 z m 6.356836,0 c -0.747688,0 -1.317878,0.609 -1.317878,1.35658 l 0,5.1554 c 0,0.7474 0.57021,1.3564 1.317878,1.3564 l 2.94585,0 c 0.747668,0 1.356648,-0.609 1.356648,-1.3564 l 0,-1.628 c 0,-0.2548 -0.210298,-0.4652 -0.46514,-0.4652 l -1.472922,0 c -0.254748,0 -0.465138,0.2102 -0.465138,0.4652 l 0,0.8914 c 0,0.2798 -0.14662,0.5038 -0.426372,0.5038 -0.279794,0 -0.38761,-0.224 -0.38761,-0.5038 l 0,-3.6048 c 0,-0.2798 0.10774,-0.5038 0.38761,-0.5038 0.27972,0 0.426372,0.224 0.426372,0.5038 l 0,0.8526 c 0,0.255 0.210374,0.4652 0.465138,0.4652 l 0.697706,0 0.775216,0 c 0.254842,0 0.46514,-0.2102 0.46514,-0.4652 l 0,-1.6666 c 0,-0.74758 -0.60894,-1.35658 -1.356648,-1.35658 l -2.94585,0 z m -2.90709,0.4264 c 0.10678,0 0.1938,0.086 0.1938,0.194 l 0,0.93018 c 0,0.108 -0.08696,0.194 -0.1938,0.194 l -0.93027,0 -1.35664,0 c -0.420406,0 -0.775224,0.3548 -0.775224,0.7752 1.8e-5,0.4206 0.354818,0.7752 0.775224,0.7752 l 1.860538,0 c 0.490398,0 0.891506,0.3626 0.891506,0.8528 l 0,2.3646 c 0,0.4902 -0.401108,0.8912 -0.891506,0.8912 l -3.721078,0 c -0.10676,0 -0.1938,-0.086 -0.1938,-0.194 l 0,-0.8916 c 0,-0.108 0.08704,-0.194 0.1938,-0.194 l 2.55824,-0.038 c 0.420484,0 0.736464,-0.3158 0.736464,-0.7364 1.8e-5,-0.4204 -0.31598,-0.7752 -0.736464,-0.7752 l -1.860536,0 c -0.490402,0 -0.852748,-0.4012 -0.852748,-0.8914 l 0,-2.3258 c 0,-0.49038 0.362346,-0.89158 0.852748,-0.89158 l 3.449746,-0.036 z m -7.403393,0.038 1.240362,0 c 0.10684,0 0.1938,0.086 0.1938,0.194 l 0,6.55078 c 0,0.108 -0.087,0.194 -0.1938,0.194 l -0.62018,0 -0.620182,0 c -0.10688,0 -0.1938,-0.086 -0.1938,-0.194 l 0,-6.55078 c -4e-6,-0.104 0.08698,-0.19 0.1938,-0.19 z m 10.310483,0 2.94585,0 c 0.49048,0 0.891508,0.4012 0.891508,0.89158 l 0,1.4728 c 0,0.108 -0.087,0.194 -0.1938,0.194 l -0.581412,0 -0.503904,0 c -0.10682,0 -0.1938,-0.086 -0.1938,-0.194 l 0,-0.6588 c 0,-0.534 -0.357488,-0.9692 -0.89151,-0.9692 -0.534056,0 -0.852746,0.4352 -0.852746,0.9692 l 0,3.6046 c 0,0.5344 0.31869,0.9692 0.852746,0.9692 0.534004,0 0.89151,-0.4348 0.89151,-0.9692 l 0,-0.6974 c 0,-0.108 0.087,-0.194 0.1938,-0.194 l 1.085316,0 c 0.10682,0 0.1938,0.086 0.1938,0.194 l 0,1.434 c 0,0.4904 -0.401028,0.8914 -0.891508,0.8914 l -2.94585,0 c -0.49048,0 -0.852746,-0.401 -0.852746,-0.8914 l 0,-5.1552 c 0,-0.48678 0.362266,-0.88798 0.852746,-0.88798 z m -14.651737,0.73638 c -0.533982,0 -0.96903,0.4352 -0.96903,0.9692 l 0,3.6046 c 0,0.5344 0.43505,0.9692 0.96903,0.9692 0.534078,0 0.93027,-0.4348 0.93027,-0.9692 l 0,-0.2712 0,-3.3334 c 0,-0.5304 -0.396192,-0.9656 -0.93027,-0.9656 z m 0,0.4652 c 0.279804,0 0.503896,0.2242 0.503896,0.504 l 0,3.3334 0,0.2712 c 0,0.2798 -0.224092,0.504 -0.503896,0.504 -0.279724,0 -0.542658,-0.2242 -0.542658,-0.504 l 0,-3.6046 c 0,-0.2762 0.262952,-0.5004 0.542658,-0.5004 z"
         id="path4044" />
      <path
         style="font-size:8.95251368999999997px;font-style:normal;font-variant:normal;font-weight:normal;font-stretch:normal;text-align:end;line-height:125%;letter-spacing:0px;word-spacing:0px;text-anchor:end;fill:#cccccc;fill-opacity:1;stroke:none;font-family:Andale Mono;-inkscape-font-specification:Andale Mono"
         d="M 71.40625 43.8125 L 71.40625 52.9375 L 73.78125 52.9375 L 73.78125 48.84375 C 74.108375 48.843754 74.299795 48.883441 74.375 49 C 74.453959 49.116567 74.499996 49.417441 74.5 49.90625 L 74.5 52.9375 L 76.71875 52.9375 L 76.71875 50.53125 C 76.718744 49.794274 76.697605 49.349188 76.65625 49.1875 C 76.618643 49.02206 76.505429 48.851779 76.34375 48.65625 C 76.182061 48.460729 75.876257 48.304068 75.40625 48.1875 C 75.925139 48.138624 76.26077 47.994411 76.4375 47.75 C 76.614219 47.505599 76.718744 47.023164 76.71875 46.3125 C 76.718744 45.534167 76.595671 44.978457 76.34375 44.625 C 76.095578 44.267799 75.773566 44.023991 75.375 43.9375 C 74.980186 43.851027 74.214256 43.812509 73.09375 43.8125 L 71.40625 43.8125 z M 77.15625 43.8125 L 78.21875 52.9375 L 81.1875 52.9375 C 81.533425 50.512239 81.749743 48.919554 81.84375 48.15625 C 82.050551 49.9423 82.291768 51.534985 82.5625 52.9375 L 85.53125 52.9375 L 86.5625 43.8125 L 84.25 43.8125 C 83.941665 45.925682 83.725347 48.074077 83.59375 50.28125 L 83.34375 46.8125 C 83.20462 45.071582 83.127585 44.079476 83.09375 43.8125 L 80.625 43.8125 C 80.275308 46.395694 80.055229 48.471983 79.96875 50.0625 L 79.71875 47 L 79.46875 43.8125 L 77.15625 43.8125 z M 73.78125 45.375 C 74.055734 45.375008 74.242224 45.409765 74.34375 45.5 C 74.449029 45.59025 74.499996 45.80423 74.5 46.09375 L 74.5 46.59375 C 74.499996 46.996086 74.452789 47.237304 74.34375 47.3125 C 74.238464 47.383947 74.048214 47.406256 73.78125 47.40625 L 73.78125 45.375 z "
         transform="matrix(0.77504089,0,0,0.77504089,7.887292,976.52967)"
         id="text3004" />
    </g>
  </g>
</svg>
