<?xml version="1.0" encoding="UTF-8" standalone="no"?>
<!-- Created with Inkscape (http://www.inkscape.org/) -->

<svg
   xmlns:dc="http://purl.org/dc/elements/1.1/"
   xmlns:cc="http://creativecommons.org/ns#"
   xmlns:rdf="http://www.w3.org/1999/02/22-rdf-syntax-ns#"
   xmlns:svg="http://www.w3.org/2000/svg"
   xmlns="http://www.w3.org/2000/svg"
   xmlns:sodipodi="http://sodipodi.sourceforge.net/DTD/sodipodi-0.dtd"
   xmlns:inkscape="http://www.inkscape.org/namespaces/inkscape"
   width="16"
   height="16"
   id="svg2"
   sodipodi:version="0.32"
   inkscape:version="0.48.4 r9939"
   version="1.0"
   sodipodi:docname="media-optical-symbolic.svg"
   inkscape:output_extension="org.inkscape.output.svg.inkscape"
   style="display:inline">
  <defs
     id="defs4" />
  <sodipodi:namedview
     id="base"
     pagecolor="#ffffff"
     bordercolor="#e7e7e7"
     borderopacity="1"
     inkscape:pageopacity="0.0"
     inkscape:pageshadow="2"
     inkscape:zoom="23.265729"
     inkscape:cx="0.73075727"
     inkscape:cy="8.9890749"
     inkscape:document-units="px"
     inkscape:current-layer="layer1"
     showgrid="true"
     inkscape:showpageshadow="false"
     showguides="false"
     inkscape:guide-bbox="true"
     inkscape:window-width="1305"
     inkscape:window-height="744"
     inkscape:window-x="61"
     inkscape:window-y="24"
     inkscape:window-maximized="1"
     inkscape:snap-global="true">
    <sodipodi:guide
       orientation="1,0"
       position="0,112"
       id="guide2383" />
    <sodipodi:guide
       orientation="0,1"
       position="26.278146,128"
       id="guide2385" />
    <sodipodi:guide
       orientation="1,0"
       position="128,54.082119"
       id="guide2387" />
    <sodipodi:guide
       orientation="0,1"
       position="78.156291,0"
       id="guide2389" />
    <sodipodi:guide
       orientation="0,1"
       position="60.863576,64.084768"
       id="guide2391" />
    <inkscape:grid
       type="xygrid"
       id="grid3672"
       visible="true"
       enabled="true"
       empspacing="8"
       snapvisiblegridlinesonly="true" />
  </sodipodi:namedview>
  <metadata
     id="metadata7">
    <rdf:RDF>
      <cc:Work
         rdf:about="">
        <dc:format>image/svg+xml</dc:format>
        <dc:type
           rdf:resource="http://purl.org/dc/dcmitype/StillImage" />
        <dc:title />
      </cc:Work>
    </rdf:RDF>
  </metadata>
  <g
     inkscape:label="Icon"
     inkscape:groupmode="layer"
     id="layer1"
     style="display:inline"
     transform="translate(0,-6)">
    <path
       style="opacity:1;color:#000000;fill:#262626;fill-opacity:1;fill-rule:nonzero;stroke:none;stroke-width:0.80000000999999998;marker:none;visibility:visible;display:inline;overflow:visible;enable-background:accumulate"
       d="M 8 0 C 3.581722 8.8817842e-16 -3.006854e-17 3.581722 0 8 C 0 12.418278 3.581722 16 8 16 C 12.418278 16 16 12.418278 16 8 C 16 3.581722 12.418278 -1.8064254e-15 8 0 z M 10.6875 1.53125 C 12.402697 2.241708 13.727043 3.597303 14.4375 5.3125 L 11.71875 6.46875 C 11.327001 5.522984 10.551739 4.7352 9.53125 4.3125 L 10.6875 1.53125 z M 8 5 C 9.6568542 5 11 6.3431458 11 8 C 11 9.6568542 9.6568542 11 8 11 C 6.3431458 11 5 9.6568542 5 8 C 5 6.3431458 6.3431458 5 8 5 z M 8 6 C 6.8954305 6 6 6.8954305 6 8 C 6 9.1045695 6.8954305 10 8 10 C 9.1045695 10 10 9.1045695 10 8 C 10 6.8954305 9.1045695 6 8 6 z M 8 7 C 8.5522847 7 9 7.4477153 9 8 C 9 8.5522847 8.5522847 9 8 9 C 7.4477153 9 7 8.5522847 7 8 C 7 7.4477153 7.4477153 7 8 7 z M 4.28125 9.53125 C 4.6729991 10.477016 5.4482608 11.2648 6.46875 11.6875 L 5.3125 14.46875 C 3.5973034 13.758292 2.2729578 12.402697 1.5625 10.6875 L 4.28125 9.53125 z "
       transform="translate(0,6)"
       id="path3123" />
  </g>
</svg>
