<?xml version="1.0" encoding="UTF-8" standalone="no"?>
<!-- Created with Inkscape (http://www.inkscape.org/) -->

<svg
   xmlns:dc="http://purl.org/dc/elements/1.1/"
   xmlns:cc="http://creativecommons.org/ns#"
   xmlns:rdf="http://www.w3.org/1999/02/22-rdf-syntax-ns#"
   xmlns:svg="http://www.w3.org/2000/svg"
   xmlns="http://www.w3.org/2000/svg"
   xmlns:xlink="http://www.w3.org/1999/xlink"
   xmlns:sodipodi="http://sodipodi.sourceforge.net/DTD/sodipodi-0.dtd"
   xmlns:inkscape="http://www.inkscape.org/namespaces/inkscape"
   width="96"
   height="96"
   id="svg2"
   version="1.1"
   inkscape:version="0.48.4 r9939"
   sodipodi:docname="usbpendrive_unmount.svg">
  <defs
     id="defs4">
    <linearGradient
       id="linearGradient3815">
      <stop
         id="stop3817"
         offset="0"
         style="stop-color:#3e0030;stop-opacity:1;" />
      <stop
         style="stop-color:#e63dbf;stop-opacity:1;"
         offset="0.05263158"
         id="stop3819" />
      <stop
         style="stop-color:#7a0062;stop-opacity:1;"
         offset="0.16319098"
         id="stop3821" />
      <stop
         style="stop-color:#ff67e7;stop-opacity:1;"
         offset="0.4287692"
         id="stop3823" />
      <stop
         style="stop-color:#aa0081;stop-opacity:1;"
         offset="0.84210527"
         id="stop3825" />
      <stop
         id="stop3827"
         offset="1"
         style="stop-color:#280020;stop-opacity:1;" />
    </linearGradient>
    <linearGradient
       inkscape:collect="always"
       xlink:href="#linearGradient3815"
       id="linearGradient3803"
       x1="0"
       y1="26"
       x2="95"
       y2="26"
       gradientUnits="userSpaceOnUse"
       gradientTransform="translate(0,956.36218)" />
    <linearGradient
       id="linearGradient4173">
      <stop
         style="stop-color:#3e0030;stop-opacity:1;"
         offset="0"
         id="stop4175" />
      <stop
         id="stop4187"
         offset="0.10069098"
         style="stop-color:#e63dbf;stop-opacity:1;" />
      <stop
         id="stop4185"
         offset="0.16319098"
         style="stop-color:#7a0062;stop-opacity:1;" />
      <stop
         id="stop4183"
         offset="0.36457297"
         style="stop-color:#ff67e7;stop-opacity:1;" />
      <stop
         id="stop4181"
         offset="0.81746256"
         style="stop-color:#aa0081;stop-opacity:1;" />
      <stop
         style="stop-color:#280020;stop-opacity:1;"
         offset="1"
         id="stop4177" />
    </linearGradient>
    <linearGradient
       y2="48"
       x2="-28"
       y1="48"
       x1="-116"
       gradientTransform="translate(14.366989,940.30169)"
       gradientUnits="userSpaceOnUse"
       id="linearGradient3253"
       xlink:href="#linearGradient4173"
       inkscape:collect="always" />
  </defs>
  <sodipodi:namedview
     id="base"
     pagecolor="#ffffff"
     bordercolor="#666666"
     borderopacity="1.0"
     inkscape:pageopacity="0.0"
     inkscape:pageshadow="2"
     inkscape:zoom="4.667464"
     inkscape:cx="25.164157"
     inkscape:cy="49.102077"
     inkscape:document-units="px"
     inkscape:current-layer="layer1"
     showgrid="true"
     inkscape:snap-page="true"
     inkscape:snap-global="true"
     inkscape:snap-center="true"
     inkscape:snap-object-midpoints="false"
     showguides="true"
     inkscape:guide-bbox="true"
     inkscape:snap-bbox="true"
     inkscape:object-paths="true"
     inkscape:object-nodes="true"
     inkscape:window-width="1305"
     inkscape:window-height="744"
     inkscape:window-x="61"
     inkscape:window-y="24"
     inkscape:window-maximized="1"
     inkscape:snap-midpoints="false"
     inkscape:snap-grids="true"
     inkscape:snap-to-guides="false">
    <inkscape:grid
       type="xygrid"
       id="grid3002"
       empspacing="5"
       visible="true"
       enabled="true"
       snapvisiblegridlinesonly="true" />
  </sodipodi:namedview>
  <metadata
     id="metadata7">
    <rdf:RDF>
      <cc:Work
         rdf:about="">
        <dc:format>image/svg+xml</dc:format>
        <dc:type
           rdf:resource="http://purl.org/dc/dcmitype/StillImage" />
        <dc:title />
      </cc:Work>
    </rdf:RDF>
  </metadata>
  <g
     inkscape:label="Layer 1"
     inkscape:groupmode="layer"
     id="layer1"
     transform="translate(0,-956.36218)">
    <rect
       style="fill:#ffffff;fill-opacity:0;fill-rule:nonzero;stroke:none"
       id="rect3775"
       width="96"
       height="96"
       x="0"
       y="956.36218"
       ry="0" />
    <path
       style="fill:#000000;fill-opacity:0.09589041;fill-rule:nonzero;stroke:none"
       d="m 3.353015,956.30662 c -1.884176,0 -3.4111555,1.43156 -3.4111555,3.19799 l 0,83.65949 c 0,1.7665 1.5269795,3.1981 3.4111555,3.1981 l 89.23583,0 c 1.884174,0 3.411155,-1.4316 3.411155,-3.1981 l 0,-83.65949 c 0,-1.76643 -1.526981,-3.19799 -3.411155,-3.19799 z"
       id="rect3772"
       inkscape:connector-curvature="0"
       sodipodi:nodetypes="sssssssss" />
    <path
       style="fill:#000000;fill-opacity:0.18721463;fill-rule:nonzero;stroke:none"
       d="m 1.0459761,1041.8066 0,7.4219 c 0,1.7392 1.461916,3.1337 3.2852054,3.1337 l 86.3836135,0 c 1.823288,0 3.285205,-1.3945 3.285205,-3.1337 l 0,-7.4219 -92.9540239,0 z"
       id="rect3785"
       inkscape:connector-curvature="0" />
    <path
       style="fill:#000000;fill-opacity:0.38356168;fill-rule:nonzero;stroke:none"
       d="m 1.0459761,1041.8066 0,5.3807 c 0,1.762 1.461916,3.1749 3.2852054,3.1749 l 86.3836135,0 c 1.823288,0 3.285205,-1.4129 3.285205,-3.1749 l 0,-5.3807 -92.9540239,0 z"
       id="rect3783"
       inkscape:connector-curvature="0" />
    <rect
       style="fill:#343434;fill-opacity:1;fill-rule:nonzero;stroke:none"
       id="rect2985-2"
       width="93"
       height="88.999962"
       x="0.9999969"
       y="957.36224"
       ry="3.1511383" />
    <path
       style="fill:#000000;fill-opacity:0.38356168;fill-rule:nonzero;stroke:none"
       d="m 1,1042.3622 0.045976,2.7457 c 0.03024,1.8058 1.461916,3.2543 3.2852054,3.2543 l 86.3836136,0 c 1.823288,0 3.285205,-1.4481 3.285205,-3.2543 l -0.04598,-2.7457 z"
       id="rect3781"
       inkscape:connector-curvature="0"
       sodipodi:nodetypes="csssscc" />
    <rect
       style="fill:#ffffff;fill-opacity:0.30000001;fill-rule:nonzero;stroke:none"
       id="rect3770"
       width="92.954033"
       height="2.000005"
       x="1.045976"
       y="1040.3622" />
    <rect
       style="fill:#efb22d;fill-opacity:1;fill-rule:evenodd;stroke:none"
       id="rect3766"
       width="10"
       height="22.00001"
       x="12.819357"
       y="1015.3622"
       ry="0"
       rx="5" />
    <rect
       rx="5"
       ry="0"
       y="1015.3622"
       x="32.819344"
       height="18.206903"
       width="10"
       id="rect3768"
       style="fill:#efb22d;fill-opacity:1;fill-rule:evenodd;stroke:none" />
    <rect
       style="fill:#efb22d;fill-opacity:1;fill-rule:evenodd;stroke:none"
       id="rect3771"
       width="10"
       height="18.206903"
       x="52.819344"
       y="1015.3622"
       ry="0"
       rx="5" />
    <rect
       rx="5"
       ry="0"
       y="1015.3622"
       x="72.819397"
       height="22.00001"
       width="10"
       id="rect3773"
       style="fill:#efb22d;fill-opacity:1;fill-rule:evenodd;stroke:none" />
    <path
       style="fill:url(#linearGradient3803);fill-opacity:1;fill-rule:nonzero;stroke:none"
       d="M 4.15625,957.36218 C 2.410519,957.36218 1,958.7727 1,960.51843 l 0,47.99997 c 0,-1.7457 1.410519,-3.1562 3.15625,-3.1562 l 86.6875,0 c 1.745731,0 3.15625,1.4105 3.15625,3.1562 l 0,-47.99997 c 0,-1.74573 -1.410519,-3.15625 -3.15625,-3.15625 z"
       id="rect3776"
       inkscape:connector-curvature="0"
       sodipodi:nodetypes="sscsscsss" />
    <path
       sodipodi:nodetypes="csssscc"
       inkscape:connector-curvature="0"
       id="path3781"
       d="m 1,1011.3464 0.045976,-2.7457 c 0.03024,-1.8058 1.461916,-3.2543 3.2852054,-3.2543 l 86.3836136,0 c 1.823288,0 3.285205,1.4481 3.285205,3.2543 l -0.04598,2.7457 z"
       style="fill:#000000;fill-opacity:1;fill-rule:nonzero;stroke:none" />
    <path
       style="fill:#ffffff;fill-opacity:0.35080644;fill-rule:nonzero;stroke:none"
       d="m 4.34375,1004.3277 c -1.8232894,0 -3.28226,1.4755 -3.3125,3.2813 L 1,1010.3277 l 0.03125,0 0,-0.7187 c 0.03024,-1.8058 1.4892106,-3.2813 3.3125,-3.2813 l 86.375,0 c 1.746976,0 3.134595,1.3625 3.25,3.0625 L 94,1007.609 c 0,-1.8062 -1.457962,-3.2813 -3.28125,-3.2813 l -86.375,0 z"
       id="path3783"
       inkscape:connector-curvature="0" />
    <rect
       style="fill:#5a5a5a;fill-opacity:0.31854838;fill-rule:evenodd;stroke:none"
       id="rect3824"
       width="4"
       height="25"
       x="16"
       y="1015.3622" />
    <rect
       y="1015.3622"
       x="36"
       height="25"
       width="4"
       id="rect3826"
       style="fill:#5a5a5a;fill-opacity:0.31854838;fill-rule:evenodd;stroke:none" />
    <rect
       style="fill:#5a5a5a;fill-opacity:0.31854838;fill-rule:evenodd;stroke:none"
       id="rect3828"
       width="4"
       height="25"
       x="56"
       y="1015.3622" />
    <rect
       y="1015.3622"
       x="76"
       height="25"
       width="4"
       id="rect3830"
       style="fill:#5a5a5a;fill-opacity:0.31854838;fill-rule:evenodd;stroke:none" />
    <rect
       y="1015.3622"
       x="18"
       height="21.999998"
       width="1"
       id="rect3832"
       style="fill:#151515;fill-opacity:0.54435486;fill-rule:evenodd;stroke:none" />
    <rect
       style="fill:#0d0d0d;fill-opacity:0.35483871;fill-rule:evenodd;stroke:none"
       id="rect3834"
       width="1"
       height="17.999998"
       x="39"
       y="1015.3622" />
    <rect
       y="1015.3622"
       x="57"
       height="17.999998"
       width="2"
       id="rect3836"
       style="fill:#000000;fill-opacity:0.36693549;fill-rule:evenodd;stroke:none" />
    <rect
       style="fill:#000000;fill-opacity:0.21774194;fill-rule:evenodd;stroke:none"
       id="rect3838"
       width="2"
       height="21.999994"
       x="77"
       y="1015.3622" />
    <rect
       style="fill:#5a5a5a;fill-opacity:0.3185484;fill-rule:evenodd;stroke:none"
       id="rect3840"
       width="10"
       height="6.7930932"
       x="32.819344"
       y="1033.5691" />
    <rect
       y="1037.3622"
       x="12.819357"
       height="2.9999905"
       width="10"
       id="rect3842"
       style="fill:#5a5a5a;fill-opacity:0.3185484;fill-rule:evenodd;stroke:none" />
    <rect
       y="1033.5691"
       x="52.819344"
       height="6.7930965"
       width="10"
       id="rect3844"
       style="fill:#5a5a5a;fill-opacity:0.3185484;fill-rule:evenodd;stroke:none" />
    <rect
       style="fill:#5a5a5a;fill-opacity:0.3185484;fill-rule:evenodd;stroke:none"
       id="rect3846"
       width="10"
       height="2.9999905"
       x="72.819397"
       y="1037.3622" />
    <path
       inkscape:connector-curvature="0"
       style="fill:#000000;fill-opacity:0.60392157;fill-rule:nonzero;stroke:none"
       d="m 47.692735,967.98919 -11.46875,9.78125 22.9375,0 -11.46875,-9.78125 z m -11.46875,13.375 0,4.375 22.9375,0 0,-4.375 -22.9375,0 z"
       id="rect4003" />
  </g>
</svg>
