<?xml version="1.0" encoding="UTF-8" standalone="no"?>
<!-- Created with Inkscape (http://www.inkscape.org/) -->

<svg
   xmlns:dc="http://purl.org/dc/elements/1.1/"
   xmlns:cc="http://creativecommons.org/ns#"
   xmlns:rdf="http://www.w3.org/1999/02/22-rdf-syntax-ns#"
   xmlns:svg="http://www.w3.org/2000/svg"
   xmlns="http://www.w3.org/2000/svg"
   xmlns:xlink="http://www.w3.org/1999/xlink"
   xmlns:sodipodi="http://sodipodi.sourceforge.net/DTD/sodipodi-0.dtd"
   xmlns:inkscape="http://www.inkscape.org/namespaces/inkscape"
   width="96"
   height="96"
   id="svg2"
   version="1.1"
   inkscape:version="0.48.4 r9939"
   sodipodi:docname="align-horizontal-bottom-out (copy).svg">
  <defs
     id="defs4">
    <filter
       id="filter3174"
       color-interpolation-filters="sRGB">
      <feGaussianBlur
         stdDeviation="1.71"
         id="feGaussianBlur3176" />
    </filter>
    <linearGradient
       gradientTransform="scale(1.0058652,0.994169)"
       gradientUnits="userSpaceOnUse"
       id="ButtonShadow"
       y2="7.0165396"
       x2="45.447727"
       y1="92.539597"
       x1="45.447727">
      <stop
         offset="0"
         style="stop-color:#000000;stop-opacity:1"
         id="stop3750" />
      <stop
         offset="1"
         style="stop-color:#000000;stop-opacity:0.58823532"
         id="stop3752" />
    </linearGradient>
    <linearGradient
       id="linearGradient3778">
      <stop
         style="stop-color:#003458;stop-opacity:1;"
         offset="0"
         id="stop3780" />
      <stop
         style="stop-color:#000000;stop-opacity:1;"
         offset="1"
         id="stop3782" />
    </linearGradient>
    <linearGradient
       inkscape:collect="always"
       xlink:href="#linearGradient3778"
       id="linearGradient3800"
       x1="12"
       y1="83"
       x2="6"
       y2="94"
       gradientUnits="userSpaceOnUse"
       gradientTransform="matrix(6,0,0,6,0,476.3621)" />
    <linearGradient
       inkscape:collect="always"
       xlink:href="#linearGradient3778"
       id="linearGradient3003"
       gradientUnits="userSpaceOnUse"
       gradientTransform="matrix(6,0,0,6,0,476.3621)"
       x1="12"
       y1="83"
       x2="6"
       y2="94" />
    <linearGradient
       inkscape:collect="always"
       xlink:href="#linearGradient3778"
       id="linearGradient3007"
       gradientUnits="userSpaceOnUse"
       gradientTransform="matrix(0,6,-6,0,576,956.3621)"
       x1="12"
       y1="83"
       x2="6"
       y2="94" />
  </defs>
  <sodipodi:namedview
     id="base"
     pagecolor="#ffffff"
     bordercolor="#666666"
     borderopacity="1.0"
     inkscape:pageopacity="0.0"
     inkscape:pageshadow="2"
     inkscape:zoom="4.5725806"
     inkscape:cx="61"
     inkscape:cy="52"
     inkscape:document-units="px"
     inkscape:current-layer="layer1"
     showgrid="true"
     inkscape:snap-page="true"
     inkscape:snap-global="true"
     inkscape:snap-object-midpoints="true"
     inkscape:object-nodes="true"
     inkscape:window-width="1305"
     inkscape:window-height="744"
     inkscape:window-x="61"
     inkscape:window-y="24"
     inkscape:window-maximized="1"
     inkscape:snap-nodes="true"
     inkscape:snap-bbox="true"
     inkscape:object-paths="true"
     inkscape:snap-center="true"
     fit-margin-top="0"
     fit-margin-left="0"
     fit-margin-right="0"
     fit-margin-bottom="0">
    <inkscape:grid
       type="xygrid"
       id="grid2998"
       empspacing="5"
       visible="true"
       enabled="true"
       snapvisiblegridlinesonly="true" />
  </sodipodi:namedview>
  <metadata
     id="metadata7">
    <rdf:RDF>
      <cc:Work
         rdf:about="">
        <dc:format>image/svg+xml</dc:format>
        <dc:type
           rdf:resource="http://purl.org/dc/dcmitype/StillImage" />
        <dc:title />
      </cc:Work>
    </rdf:RDF>
  </metadata>
  <g
     inkscape:label="Layer 1"
     inkscape:groupmode="layer"
     id="layer1"
     transform="translate(0,-956.3621)">
    <g
       id="layer2"
       style="display:none"
       transform="translate(68.37696,846.74396)">
      <rect
         width="86"
         height="85"
         rx="6"
         ry="6"
         x="5"
         y="7"
         id="rect3745"
         style="opacity:0.9;fill:url(#ButtonShadow);fill-opacity:1;fill-rule:nonzero;stroke:none;filter:url(#filter3174)" />
    </g>
    <path
       style="fill:#ffffff;fill-opacity:0;fill-rule:nonzero;stroke:none"
       d="m 96,984.46366 c 0,-8.08283 -0.9366,-17.59195 -6.1644,-22.52344 -5.2272,-4.93147 -14.4462,-5.57812 -21.9372,-5.57812 -13.2654,0 -26.5308,0 -39.7968,0 -7.491,0 -16.71,0.64665 -21.9378,5.57812 C 0.9366,966.87171 0,976.38083 0,984.46366 c 0,13.26563 0,26.53124 0,39.79684 0,8.0829 0.9366,17.592 6.1638,22.5235 5.2278,4.9315 14.4468,5.5781 21.9378,5.5781 13.266,0 26.5314,0 39.7968,0 7.491,0 16.71,-0.6466 21.9372,-5.5781 5.2278,-4.9315 6.1644,-14.4406 6.1644,-22.5235 0,-13.2656 0,-26.53121 0,-39.79684 z"
       id="path3763"
       inkscape:connector-curvature="0"
       sodipodi:nodetypes="csccsccsccscc" />
    <path
       style="fill:url(#linearGradient3007);fill-opacity:1;fill-rule:nonzero;stroke:none"
       d="m 90,974.3621 -36,0 0,24 36,0 z m -12,36 -24,0 0,18 24,0 z m -30,-48 -6,0 0,12 6,0 z m 0,18 -6,0 0,12 6,0 z m 0,18 -6,0 0,12 6,0 z m 0,18 -6,0 0,12 6,0 z m 0,18 -6,0 0,12 6,0 z m -12,-24 -24,0 0,18 24,0 z"
       id="rect3000"
       inkscape:connector-curvature="0"
       sodipodi:nodetypes="cccccccccccccccccccccccccccccccccccccccc" />
    <path
       style="fill:#ff8b00;fill-opacity:1;fill-rule:nonzero;stroke:none"
       d="m 42,1004.3621 -6,0 -24,0 -6,0 0,24 0,6 30,0 6,0 0,-30 z m -6,6 0,18 -24,0 0,-18 24,0 z"
       id="rect3016"
       inkscape:connector-curvature="0" />
  </g>
</svg>
