<?xml version="1.0" encoding="UTF-8" standalone="no"?>
<!-- Created with Inkscape (http://www.inkscape.org/) -->

<svg
   xmlns:dc="http://purl.org/dc/elements/1.1/"
   xmlns:cc="http://creativecommons.org/ns#"
   xmlns:rdf="http://www.w3.org/1999/02/22-rdf-syntax-ns#"
   xmlns:svg="http://www.w3.org/2000/svg"
   xmlns="http://www.w3.org/2000/svg"
   xmlns:xlink="http://www.w3.org/1999/xlink"
   xmlns:sodipodi="http://sodipodi.sourceforge.net/DTD/sodipodi-0.dtd"
   xmlns:inkscape="http://www.inkscape.org/namespaces/inkscape"
   width="96"
   height="96.000053"
   id="svg2"
   version="1.1"
   inkscape:version="0.48.4 r9939"
   sodipodi:docname="browser-album-cover.svg">
  <defs
     id="defs4">
    <linearGradient
       inkscape:collect="always"
       id="linearGradient3800">
      <stop
         style="stop-color:#c80000;stop-opacity:1;"
         offset="0"
         id="stop3802" />
      <stop
         style="stop-color:#c80000;stop-opacity:0;"
         offset="1"
         id="stop3804" />
    </linearGradient>
    <filter
       id="filter3174"
       color-interpolation-filters="sRGB">
      <feGaussianBlur
         stdDeviation="1.71"
         id="feGaussianBlur3176" />
    </filter>
    <linearGradient
       gradientTransform="scale(1.0058652,0.994169)"
       gradientUnits="userSpaceOnUse"
       id="ButtonShadow"
       y2="7.0165396"
       x2="45.447727"
       y1="92.539597"
       x1="45.447727">
      <stop
         offset="0"
         style="stop-color:#000000;stop-opacity:1"
         id="stop3750" />
      <stop
         offset="1"
         style="stop-color:#000000;stop-opacity:0.58823532"
         id="stop3752" />
    </linearGradient>
    <linearGradient
       inkscape:collect="always"
       xlink:href="#linearGradient3800"
       id="linearGradient3806"
       x1="15"
       y1="1007.3621"
       x2="70"
       y2="1007.3621"
       gradientUnits="userSpaceOnUse" />
  </defs>
  <sodipodi:namedview
     id="base"
     pagecolor="#ffffff"
     bordercolor="#666666"
     borderopacity="1.0"
     inkscape:pageopacity="0.0"
     inkscape:pageshadow="2"
     inkscape:zoom="5.9062467"
     inkscape:cx="47.665978"
     inkscape:cy="48.000027"
     inkscape:document-units="px"
     inkscape:current-layer="layer1"
     showgrid="true"
     inkscape:snap-page="false"
     inkscape:snap-global="true"
     inkscape:snap-object-midpoints="true"
     inkscape:object-nodes="true"
     inkscape:window-width="1305"
     inkscape:window-height="744"
     inkscape:window-x="61"
     inkscape:window-y="24"
     inkscape:window-maximized="1"
     inkscape:snap-nodes="true"
     inkscape:snap-bbox="true"
     inkscape:object-paths="true"
     inkscape:snap-center="true"
     fit-margin-top="0"
     fit-margin-left="0"
     fit-margin-right="0"
     fit-margin-bottom="0"
     inkscape:snap-grids="true"
     inkscape:snap-to-guides="true">
    <inkscape:grid
       type="xygrid"
       id="grid2995"
       empspacing="5"
       visible="true"
       enabled="true"
       snapvisiblegridlinesonly="true"
       originx="1.0145179px"
       originy="0.9969px" />
  </sodipodi:namedview>
  <metadata
     id="metadata7">
    <rdf:RDF>
      <cc:Work
         rdf:about="">
        <dc:format>image/svg+xml</dc:format>
        <dc:type
           rdf:resource="http://purl.org/dc/dcmitype/StillImage" />
        <dc:title />
      </cc:Work>
    </rdf:RDF>
  </metadata>
  <g
     inkscape:label="Layer 1"
     inkscape:groupmode="layer"
     id="layer1"
     transform="translate(1.0145179,-957.35895)">
    <g
       id="layer2"
       style="display:none"
       transform="translate(68.37696,846.74396)">
      <rect
         width="86"
         height="85"
         rx="6"
         ry="6"
         x="5"
         y="7"
         id="rect3745"
         style="opacity:0.9;fill:url(#ButtonShadow);fill-opacity:1;fill-rule:nonzero;stroke:none;filter:url(#filter3174)" />
    </g>
    <path
       style="fill:#ffffff;fill-opacity:0;fill-rule:nonzero;stroke:none"
       d="m 27.087057,957.3589 c -8.082838,0 -17.5919611,0.9372 -22.5234488,6.1644 -4.93147742,5.2272 -5.5781261,14.4462 -5.5781261,21.9372 0,13.266 0,26.5314 0,39.7974 0,7.4904 0.64664868,16.71 5.5781261,21.9372 4.9314877,5.2272 14.4406108,6.1638 22.5234488,6.1638 13.265634,0 26.531262,0 39.796885,0 8.082798,0 17.591934,-0.9366 22.523412,-6.1638 4.93149,-5.2272 5.578128,-14.4468 5.578128,-21.9372 0,-13.266 0,-26.5314 0,-39.7974 0,-7.491 -0.646638,-16.71 -5.578128,-21.9372 -4.931478,-5.2272 -14.440614,-6.1644 -22.523412,-6.1644 -13.265623,0 -26.531251,0 -39.796885,0 z"
       id="path3763"
       inkscape:connector-curvature="0"
       sodipodi:nodetypes="csccsccsccscc" />
    <path
       style="fill:#cccccc;fill-opacity:1;fill-rule:evenodd;stroke:none"
       d="M 6.09375 6.03125 L 6.09375 90.03125 L 90.09375 90.03125 L 90.09375 6.03125 L 6.09375 6.03125 z M 12.09375 12.03125 L 84.09375 12.03125 L 84.09375 84.03125 L 12.09375 84.03125 L 12.09375 12.03125 z "
       transform="translate(-1.0145179,957.35895)"
       id="rect2993" />
    <path
       style="fill:#262626;fill-opacity:1;fill-rule:evenodd;stroke:none"
       d="m 83.079232,969.3902 0,72 -72,0 0,-72 z"
       id="rect2995"
       inkscape:connector-curvature="0"
       sodipodi:nodetypes="ccccc" />
    <path
       style="fill:url(#linearGradient3806);fill-opacity:1;fill-rule:evenodd;stroke:none"
       d="m 19.772104,997.8557 5.043058,3.3521 5.072979,25.1854 3.352056,-5.0431 25.18535,-5.073 -5.03034,-3.3519 -5.072969,-25.1853 -3.352063,5.04305 z M 29,1000.3621 l 16.802421,-3.3844 3.381993,16.7903 -16.802421,3.3844 z"
       id="rect3013"
       inkscape:connector-curvature="0"
       sodipodi:nodetypes="cccccccccccccc" />
    <path
       style="font-size:14.17291546px;font-style:normal;font-variant:normal;font-weight:normal;font-stretch:normal;text-align:end;line-height:125%;letter-spacing:0px;word-spacing:0px;text-anchor:end;fill:#ffffff;fill-opacity:1;stroke:none;font-family:Andale Mono;-inkscape-font-specification:Andale Mono"
       d="M 76.8125 41 L 74.6875 41.1875 C 74.385974 41.716941 74.11237 42.320786 73.84375 43 L 73.90625 43 C 73.697732 43.242449 73.533122 43.556221 73.375 43.9375 L 73.375 44 L 73.4375 44.125 C 73.346521 44.142993 73.306773 44.159055 73.3125 44.21875 L 73.375 44.25 C 73.165934 44.29321 73.073503 44.445002 73.09375 44.65625 L 73.15625 44.71875 L 73.53125 44.65625 L 73.53125 44.6875 C 73.460594 44.675737 73.344714 44.697867 73.1875 44.75 L 73.09375 44.8125 L 73.09375 44.71875 L 73.0625 44.75 C 72.827995 45.059822 72.706864 45.251009 72.71875 45.375 C 72.778447 45.369287 72.825758 45.409037 72.84375 45.5 L 72.75 45.5625 L 72.71875 45.46875 L 72.625 45.46875 L 71.84375 47.15625 L 72.1875 50.71875 C 72.52545 50.037521 73.051437 48.884797 73.8125 47.25 C 74.296615 46.3045 74.565168 45.762149 74.59375 45.625 L 74.53125 45.625 L 74.5 45.59375 L 74.59375 45.59375 L 74.59375 45.625 L 74.625 45.625 C 74.876045 45.197739 74.995013 44.936927 75 44.84375 L 75.25 44.34375 L 75.25 44.3125 L 75.15625 44.3125 C 75.162841 44.381395 75.106519 44.424307 74.96875 44.4375 L 74.8125 44.375 L 74.75 44.4375 L 74.59375 44.4375 L 74.5625 44.375 C 74.686492 44.363128 74.819422 44.32546 74.90625 44.3125 L 75.0625 44.28125 L 75.0625 44.21875 L 75.15625 44.1875 L 75.15625 44.25 L 75.28125 44.0625 C 75.35013 44.055908 75.388191 44.012783 75.375 43.875 C 75.476028 43.865328 75.64282 43.577666 75.84375 43.0625 C 76.439048 41.874619 76.76164 41.194903 76.8125 41 z M 76.75 41.78125 L 75.875 43.75 L 75.96875 43.75 L 75.90625 43.8125 L 75.84375 43.78125 C 75.285118 44.868306 75.015401 45.522176 75.03125 45.6875 L 75.09375 46.71875 L 75.1875 47.71875 L 75.28125 47.8125 L 75.21875 47.875 L 75.25 48.1875 L 75.53125 48.25 L 75.5625 48.40625 L 75.625 48.5 C 75.48262 48.513644 75.382856 48.601228 75.28125 48.75 L 75.40625 50.125 L 75.46875 51.0625 L 75.5 51.09375 L 75.71875 51.09375 L 75.75 51.0625 L 75.78125 51.09375 L 76.09375 51.0625 L 76.21875 51 L 76.46875 51 L 77.625 50.90625 L 77.6875 50.8125 L 77.6875 50.59375 L 77.5 50.59375 L 77.5 50.53125 C 77.619396 50.519811 77.660639 50.483427 77.65625 50.4375 L 77.4375 47.96875 C 77.433089 47.922829 77.377683 47.897014 77.28125 47.90625 L 77.28125 47.875 C 77.377683 47.865764 77.410639 47.827179 77.40625 47.78125 L 76.84375 41.78125 L 76.75 41.78125 z M 67.4375 41.90625 L 65.34375 42.125 C 65.43068 42.306702 65.877474 42.915509 66.6875 43.96875 C 66.982579 44.436395 67.180212 44.665937 67.28125 44.65625 C 67.294449 44.794032 67.33736 44.850357 67.40625 44.84375 L 67.5625 44.84375 L 67.5625 44.78125 L 67.65625 44.75 L 67.65625 44.84375 L 67.84375 44.84375 C 67.942448 44.954802 68.032248 45.011887 68.15625 45 L 68.1875 45.0625 L 68 45.125 L 67.9375 45.0625 L 67.78125 45.125 C 67.643471 45.138207 67.569099 45.131394 67.5625 45.0625 L 67.5 45.0625 L 67.5 45.09375 L 67.84375 45.5625 L 67.875 45.5625 C 67.925517 45.557666 67.944098 45.506394 67.9375 45.4375 L 68.03125 45.4375 L 68.125 45.5 L 68.375 45.40625 L 68.40625 45.4375 L 68.8125 45.28125 L 69 45.25 L 69 45.1875 L 69.25 45.15625 L 69.25 45.09375 L 69.625 45.0625 L 69.6875 45 C 69.667257 44.788752 69.557206 44.65898 69.34375 44.65625 L 69.375 44.625 C 69.369277 44.565305 69.311479 44.531642 69.21875 44.53125 L 69.28125 44.4375 L 69.28125 44.34375 C 69.053599 43.99943 68.813247 43.729698 68.5625 43.53125 L 68.625 43.53125 C 68.232292 42.915396 67.834055 42.36881 67.4375 41.90625 z M 64.65625 42.125 L 64.125 42.1875 C 64.162862 42.244133 64.247474 42.287651 64.375 42.3125 L 64.375 42.375 L 64.34375 42.375 L 64.125 42.21875 L 64.03125 42.28125 L 64.03125 42.1875 L 63.375 42.25 L 63.375 42.34375 C 63.420921 42.33936 63.459945 42.37691 63.46875 42.46875 L 63.53125 42.5 L 63.5625 42.5 L 63.6875 42.4375 L 63.6875 42.5 C 63.691895 42.545935 63.637965 42.596695 63.5 42.65625 L 63.46875 42.8125 L 63.46875 42.875 L 63.5625 42.84375 L 63.5625 42.875 C 63.489013 42.88205 63.433095 42.922835 63.4375 42.96875 L 63.375 42.96875 L 63.3125 42.75 L 63.40625 42.65625 L 63.40625 42.59375 L 63.25 42.5625 L 63.125 42.5625 L 63.03125 42.40625 L 63.03125 42.375 L 63.09375 42.28125 L 62.78125 42.3125 C 62.773628 42.378125 62.771126 42.456883 62.78125 42.5625 L 62.71875 42.53125 L 62.625 42.53125 L 62.5625 42.625 L 62.59375 42.90625 L 62.6875 42.90625 L 62.65625 42.9375 L 62.6875 42.96875 L 62.71875 43.0625 L 62.625 43.25 L 63.1875 48.90625 C 63.218157 49.371416 63.026376 49.751348 62.65625 50 L 62.65625 50.03125 L 62.71875 50.0625 L 62.75 50.0625 L 62.78125 50 L 62.78125 50.09375 L 62.5 50.09375 L 62.5 50.1875 L 62.125 50.1875 L 62.03125 50.1875 L 62.1875 51.59375 L 62.21875 51.5625 L 62.40625 51.53125 L 62.46875 51.5625 L 62.5 51.53125 L 62.5 51.59375 L 62.21875 51.65625 L 62.25 51.71875 L 62.28125 51.75 L 62.1875 51.84375 L 62.25 52.375 C 62.31058 52.378465 62.405908 52.385368 62.5625 52.375 C 62.631385 52.3684 62.662846 52.318888 62.65625 52.25 L 62.71875 52.25 L 62.75 52.34375 C 63.039329 52.31603 63.321938 52.251363 63.625 52.125 C 64.705548 51.599722 65.317448 50.538691 65.4375 48.9375 L 64.90625 43.34375 L 64.71875 43.375 L 64.5625 43.5 C 64.553254 43.403567 64.498096 43.366209 64.40625 43.375 C 64.393044 43.237234 64.35842 43.15186 64.3125 43.15625 L 64.15625 43.1875 L 64.0625 43.25 L 63.96875 43.15625 L 64 43.125 L 64.21875 43.09375 L 64.1875 43.03125 C 64.297716 43.0207 64.40167 42.966052 64.46875 42.84375 L 64.53125 42.9375 C 64.462355 42.94411 64.433094 42.954085 64.4375 43 L 64.46875 43.21875 L 64.6875 43.21875 L 64.75 43.125 L 64.71875 42.9375 C 64.645262 42.94455 64.629394 42.920935 64.625 42.875 C 64.721438 42.86577 64.786295 42.813515 64.84375 42.6875 L 64.8125 42.28125 L 64.65625 42.125 z M 63.09375 42.28125 L 63.15625 42.28125 L 63.3125 42.3125 L 63.3125 42.25 L 63.09375 42.28125 z M 62.75 42.3125 L 62.53125 42.34375 L 62.53125 42.375 L 62.59375 42.40625 L 62.59375 42.4375 C 62.675532 42.420405 62.7286 42.379445 62.75 42.3125 z M 66.78125 42.4375 L 66.875 42.5 L 66.875 42.53125 L 66.78125 42.46875 L 66.78125 42.4375 z M 64.53125 42.5625 L 64.75 42.5625 L 64.78125 42.65625 L 64.5625 42.65625 L 64.53125 42.5625 z M 59.65625 42.59375 L 59.46875 42.625 C 59.502464 42.686665 59.572702 42.717495 59.65625 42.71875 L 59.625 42.6875 L 59.65625 42.625 L 59.65625 42.59375 z M 59.4375 42.625 L 59.09375 42.65625 L 59.1875 42.71875 L 59.1875 42.75 L 59.125 42.9375 L 59.03125 42.9375 L 58.84375 43 L 58.875 43.0625 L 58.96875 43.15625 L 58.96875 43.375 L 58.90625 43.375 C 58.90185 43.329084 58.854731 43.336719 58.78125 43.34375 L 58.78125 43.28125 L 58.84375 43.28125 L 58.84375 43.25 L 58.78125 43.09375 C 58.634479 43.061475 58.5669 43.014685 58.5625 42.96875 L 58.5625 42.90625 L 58.71875 42.9375 L 58.75 42.9375 L 58.78125 42.90625 C 58.77245 42.81441 58.797824 42.75441 58.84375 42.75 L 58.8125 42.6875 L 58.1875 42.75 L 58.1875 42.8125 L 58.09375 42.78125 L 58 42.84375 L 57.90625 42.96875 L 57.875 43 L 57.84375 42.90625 C 57.90399 42.881945 57.963273 42.871601 58 42.84375 C 58.036727 42.815899 58.049286 42.781396 58.0625 42.75 L 57.5625 42.8125 L 57.4375 42.96875 L 57.46875 43.375 C 57.54908 43.487814 57.653556 43.540499 57.75 43.53125 C 57.754401 43.577184 57.698482 43.617969 57.625 43.625 L 57.65625 43.78125 L 57.71875 43.84375 L 57.9375 43.84375 L 57.9375 43.625 C 57.933101 43.579084 57.881389 43.555909 57.8125 43.5625 L 57.875 43.4375 C 57.964074 43.544842 58.046028 43.604319 58.15625 43.59375 L 58.1875 43.65625 L 58.375 43.65625 L 58.4375 43.6875 L 58.375 43.78125 L 58.25 43.75 L 58.0625 43.75 C 58.016574 43.754409 58.018051 43.830984 58.03125 43.96875 C 57.939399 43.977559 57.897011 44.028566 57.90625 44.125 L 57.71875 44.03125 L 57.53125 44.0625 L 58.0625 49.625 C 58.484381 51.17427 59.276866 52.095694 60.4375 52.40625 C 60.759034 52.472773 61.085664 52.49647 61.375 52.46875 L 61.375 52.375 L 61.4375 52.34375 C 61.444097 52.412638 61.462358 52.4441 61.53125 52.4375 C 61.686955 52.417948 61.784923 52.421155 61.84375 52.40625 L 61.8125 51.875 L 61.71875 51.78125 L 61.75 51.75 L 61.75 51.6875 L 61.46875 51.6875 L 61.46875 51.625 L 61.5 51.65625 L 61.53125 51.59375 L 61.71875 51.59375 L 61.78125 51.625 L 61.65625 50.21875 L 61.5625 50.21875 L 61.1875 50.28125 L 61.1875 50.21875 L 60.90625 50.25 L 60.90625 50.1875 L 60.9375 50.21875 L 60.96875 50.21875 L 61 50.15625 L 61 50.125 C 60.589387 49.951148 60.370715 49.650026 60.3125 49.1875 L 59.75 43.5 L 59.625 43.34375 L 59.65625 43.25 L 59.65625 43.21875 L 59.625 43.1875 L 59.71875 43.15625 L 59.6875 42.875 L 59.625 42.8125 L 59.53125 42.84375 L 59.46875 42.875 C 59.458629 42.769382 59.457437 42.687985 59.4375 42.625 z M 59.03125 42.65625 L 58.875 42.6875 L 58.90625 42.71875 L 59.03125 42.65625 z M 62.96875 42.71875 L 63 42.71875 L 63.125 42.8125 L 63.03125 43 L 63 43 C 62.915321 42.938602 62.845542 42.93135 62.78125 42.9375 L 62.78125 42.875 C 62.854727 42.86797 62.908656 42.81721 62.96875 42.71875 z M 65.4375 42.78125 L 65.375 42.8125 L 65.625 45.25 L 65.65625 45.25 L 65.8125 45.40625 L 65.84375 45.40625 L 65.90625 45.34375 C 66.157276 45.254822 66.28653 45.180117 66.28125 45.125 L 66.28125 45.09375 L 66.59375 45.09375 C 66.57835 44.933019 66.638879 44.826147 66.78125 44.8125 C 66.77465 44.74362 66.797824 44.723157 66.84375 44.71875 L 65.4375 42.78125 z M 64.78125 42.9375 L 64.8125 43 L 64.78125 43.25 L 64.84375 43.28125 L 64.90625 43.28125 L 64.875 42.9375 L 64.78125 42.9375 z M 59.28125 43.0625 L 59.3125 43.0625 C 59.390188 43.14776 59.489017 43.19455 59.5625 43.1875 L 59.5625 43.21875 C 59.498203 43.22492 59.415223 43.267392 59.34375 43.34375 L 59.3125 43.34375 L 59.1875 43.1875 L 59.28125 43.0625 z M 58.28125 43.09375 L 58.65625 43.3125 L 58.6875 43.34375 L 58.59375 43.34375 C 58.572601 43.461652 58.567991 43.527739 58.53125 43.53125 C 58.51893 43.402669 58.439827 43.289984 58.3125 43.21875 L 58.28125 43.09375 z M 54.09375 43.21875 C 53.911742 43.218517 53.729879 43.230971 53.53125 43.25 L 51.5 43.4375 L 51.4375 43.53125 L 51.59375 45.25 L 51.65625 45.3125 L 53.5 45.125 C 53.963851 45.080568 54.322199 45.217143 54.5625 45.5 L 54.59375 45.5 L 54.625 45.4375 L 54.625 45.40625 L 54.5625 45.375 L 54.65625 45.375 L 54.65625 45.65625 L 54.75 45.65625 L 54.71875 45.90625 C 54.764067 46.379285 54.588264 46.718359 54.1875 46.9375 C 53.838461 46.970947 53.676499 47.041444 53.6875 47.15625 L 53.625 47.15625 L 53.59375 47.0625 L 51.84375 47.21875 L 51.78125 47.3125 L 51.9375 48.9375 L 52.03125 49.03125 L 53.5 48.875 C 54.188888 48.809004 54.597718 48.849387 54.71875 49 L 54.8125 48.96875 L 54.84375 48.96875 L 54.84375 49 L 54.8125 49.03125 L 54.96875 49.15625 L 55.21875 49.125 L 55.21875 49.25 L 55.1875 49.28125 L 55.03125 49.21875 L 55.3125 49.71875 L 55.28125 49.75 L 55.3125 50.1875 C 55.230132 50.343703 55.210387 50.475245 55.21875 50.5625 L 55.21875 50.65625 L 55.3125 50.71875 L 55.71875 50.875 L 55.6875 51.0625 L 55.65625 51.0625 C 55.647447 50.970652 55.608423 50.933102 55.5625 50.9375 L 55.5 50.9375 L 55.46875 51.125 L 55.5 51.21875 C 55.504397 51.264677 55.524858 51.287852 55.59375 51.28125 L 55.625 51.4375 L 55.40625 51.4375 C 55.233434 51.37527 55.130717 51.309705 55.125 51.25 L 55.0625 51.28125 L 55.0625 51.15625 L 55 50.9375 L 54.5 51.1875 C 54.334665 51.203342 54.240758 51.24731 54.25 51.34375 L 54.1875 51.34375 C 54.141572 51.348152 54.132038 51.323482 54.125 51.25 L 54 51.25 L 53.8125 51.34375 L 53.8125 51.40625 L 53.8125 51.4375 L 53.65625 51.34375 L 52.25 51.46875 L 52.1875 51.53125 L 52.375 53.25 L 52.4375 53.3125 L 54.40625 53.125 L 54.4375 53.09375 L 54.375 53 C 54.371918 52.967853 54.45773 52.937821 54.59375 52.90625 L 54.5625 52.6875 L 54.59375 52.6875 C 54.604748 52.802313 54.649859 52.850351 54.71875 52.84375 C 54.732387 52.986118 54.766572 53.0669 54.8125 53.0625 L 54.84375 53.0625 L 55.4375 52.96875 C 55.410272 52.781338 55.325843 52.611273 55.15625 52.4375 L 55.15625 52.375 L 55.25 52.46875 L 55.4375 52.4375 L 55.40625 52.53125 L 55.4375 52.65625 L 55.46875 52.6875 L 55.5625 52.625 C 55.663396 52.759008 55.730728 52.848591 55.78125 52.84375 C 56.122556 52.68128 56.284766 52.567991 56.28125 52.53125 C 56.515468 52.508811 56.793475 52.270652 57.125 51.8125 C 56.905321 51.648162 56.76557 51.555022 56.6875 51.5625 L 56.6875 51.5 L 56.75 51.4375 L 56.90625 51.40625 L 57.03125 51.28125 L 57 51.1875 C 56.831582 51.171195 56.755716 51.122205 56.75 51.0625 L 56.75 51 L 56.90625 50.90625 L 56.9375 50.90625 L 56.9375 50.9375 L 56.90625 50.96875 L 56.90625 51.03125 C 56.910205 51.072585 56.971258 51.104295 57.09375 51.125 L 57.1875 51.03125 L 57.25 51.03125 L 57.5 51.03125 L 57.53125 50.875 L 57.46875 50.75 C 57.592745 50.738122 57.641933 50.470058 57.625 49.90625 L 57.59375 49.875 L 57.625 49.84375 C 57.613115 49.719756 57.564557 49.657536 57.46875 49.625 C 57.464345 49.579079 57.493606 49.537854 57.5625 49.53125 C 57.5015 49.184864 57.431004 49.022894 57.34375 49.03125 L 57.375 49 C 57.255575 48.764185 57.113863 48.612853 57 48.46875 L 57 48.53125 L 56.9375 48.65625 L 57.09375 48.84375 L 57.0625 48.84375 C 57.025755 48.847275 56.978967 48.914857 56.9375 49.0625 L 57.0625 49.25 C 57.066015 49.286744 57.007053 49.333351 56.875 49.40625 L 56.875 49.4375 L 56.90625 49.46875 L 56.90625 49.5 L 56.84375 49.5625 L 56.8125 49.59375 L 56.78125 49.5625 L 56.84375 49.78125 L 56.8125 49.96875 L 56.75 49.96875 L 56.71875 49.9375 L 56.71875 49.75 L 56.46875 49.78125 L 56.375 49.90625 L 56.40625 50.03125 L 56.4375 50.0625 L 56.40625 50.125 L 56.40625 50.25 L 56.59375 50.3125 L 56.78125 50.25 L 56.84375 50.34375 L 56.84375 50.40625 L 56.375 50.46875 L 56.3125 50.65625 L 56.3125 50.6875 L 56.34375 50.71875 L 56.40625 50.71875 L 56.4375 50.6875 L 56.71875 50.8125 L 56.6875 50.84375 L 56.5 50.8125 L 56.53125 50.84375 L 56.46875 50.875 L 56.46875 50.90625 L 56.53125 50.9375 C 56.489913 50.941462 56.466491 51.004717 56.46875 51.125 C 56.255919 51.080507 56.130276 51.055112 56.125 51 C 56.113996 50.88519 56.048617 50.830112 55.90625 50.84375 L 55.96875 50.75 C 55.950321 50.65444 55.90345 50.619283 55.84375 50.625 L 55.84375 50.59375 L 55.875 50.5625 L 55.90625 50.59375 C 56.092343 50.55275 56.191896 50.514678 56.1875 50.46875 L 56.1875 50.375 L 56.0625 50.21875 L 56.15625 50.09375 L 56.125 49.96875 L 56.15625 49.75 L 56.25 49.8125 L 56.46875 49.71875 L 56.4375 49.4375 L 56.59375 49.4375 C 56.64641 49.358304 56.694885 49.317784 56.75 49.3125 L 56.75 49.28125 L 56.625 49.1875 C 56.614436 49.077284 56.694692 48.904517 56.84375 48.71875 L 56.84375 48.65625 C 56.738116 48.666375 56.666136 48.66741 56.625 48.625 C 56.617956 48.551525 56.577172 48.495605 56.53125 48.5 L 56.5 48.5 L 56.21875 48.625 L 56.1875 48.5625 C 56.14157 48.566905 56.113556 48.6306 56.125 48.75 L 56.03125 48.78125 C 56.017607 48.638887 55.963154 48.551065 55.84375 48.5625 L 55.875 48.34375 C 55.867077 48.26109 55.953612 48.146195 56.125 48 C 56.232633 48.059213 56.350237 48.070865 56.4375 48.0625 C 56.410263 47.959029 56.340367 47.871468 56.1875 47.8125 C 56.072681 47.823506 56.004836 47.800523 56 47.75 C 55.725211 47.590946 55.521062 47.520256 55.40625 47.53125 L 55.40625 47.40625 L 55.6875 47.375 C 55.698937 47.494411 55.755589 47.573946 55.875 47.5625 L 56.1875 47.34375 L 56.09375 47.25 L 56.09375 47.15625 L 56.1875 47.09375 L 56.125 46.75 L 56.375 46.71875 L 56.25 46.5625 L 56.40625 46.59375 L 56.4375 46.34375 L 56.4375 46.25 C 56.350127 46.063722 56.245971 45.959552 56.125 45.90625 L 56.15625 45.875 L 56.125 45.84375 L 56.09375 45.8125 L 56.09375 45.71875 L 56.125 45.6875 L 56.09375 45.65625 L 56.15625 45.65625 L 56.21875 45.78125 L 56.28125 45.78125 L 56.3125 45.75 L 56.46875 45.875 L 56.46875 45.90625 L 56.4375 45.9375 L 56.4375 46 L 56.53125 46.0625 L 56.5625 46.0625 L 56.59375 46.03125 L 56.75 46 L 56.8125 46.21875 C 56.895162 46.210837 56.941234 45.988538 56.9375 45.5625 C 56.930896 45.49362 56.881384 45.462158 56.8125 45.46875 L 56.8125 45.4375 L 56.90625 45.40625 C 56.878526 45.116931 56.8055 44.872051 56.6875 44.65625 C 56.227872 43.710794 55.367809 43.22038 54.09375 43.21875 z M 57 48.46875 C 56.808664 48.226597 56.644379 48.076927 56.46875 48.09375 C 56.468226 48.08828 56.438338 48.099109 56.4375 48.09375 L 56.3125 48.09375 L 56.28125 48.0625 L 56.09375 48.15625 C 56.136949 48.36531 56.17282 48.473155 56.21875 48.46875 L 56.75 48.40625 C 56.756596 48.475142 56.76657 48.535655 56.8125 48.53125 L 56.84375 48.5 L 56.875 48.46875 L 56.9375 48.5 L 56.96875 48.5 L 57 48.46875 z M 57.75 43.21875 L 57.75 43.28125 L 57.53125 43.34375 L 57.53125 43.25 L 57.75 43.21875 z M 74.53125 43.34375 L 74.5625 43.375 L 74.59375 43.46875 L 74.53125 43.5625 L 74.4375 43.5 L 74.4375 43.4375 L 74.53125 43.34375 z M 62.90625 43.375 L 63 43.375 C 63.005715 43.434712 62.903962 43.481072 62.71875 43.53125 L 62.90625 43.375 z M 52.1875 43.40625 L 52.375 43.53125 L 52.21875 43.59375 L 52.1875 43.40625 z M 63.4375 43.46875 L 63.4375 43.59375 L 63.375 43.625 L 63.375 43.53125 L 63.4375 43.46875 z M 64.0625 43.46875 C 64.275761 43.517847 64.402898 43.585419 64.4375 43.65625 L 64.40625 43.6875 C 64.280429 43.583697 64.142365 43.548869 64 43.5625 L 64.0625 43.46875 z M 53.46875 43.5625 L 53.625 43.5625 L 53.625 43.59375 L 53.5 43.65625 L 53.46875 43.5625 z M 57.5 43.625 L 57.53125 43.96875 L 57.59375 43.96875 L 57.625 43.9375 L 57.5625 43.6875 L 57.5625 43.625 L 57.5 43.625 z M 53.34375 43.65625 L 53.4375 43.71875 L 53.4375 43.78125 L 53.375 43.78125 L 53.34375 43.65625 z M 62.9375 43.65625 L 63.03125 43.65625 L 63.03125 43.8125 L 62.96875 43.8125 L 62.9375 43.65625 z M 64.71875 43.65625 L 64.875 43.6875 L 64.84375 43.875 L 64.8125 43.875 L 64.71875 43.6875 L 64.71875 43.65625 z M 58.75 43.6875 L 58.84375 43.6875 L 58.875 43.8125 L 58.78125 43.8125 L 58.75 43.71875 L 58.75 43.6875 z M 59.40625 43.6875 L 59.53125 43.6875 L 59.71875 43.8125 C 59.527372 43.798402 59.411969 43.747212 59.40625 43.6875 z M 54.21875 43.71875 L 54.25 43.71875 L 54.3125 43.78125 C 54.243609 43.78786 54.213908 43.793242 54.21875 43.84375 L 54.09375 43.875 L 54.09375 43.78125 C 54.16723 43.774219 54.223148 43.764685 54.21875 43.71875 z M 63.625 43.78125 L 63.75 43.78125 L 63.75 43.8125 L 63.71875 43.90625 L 63.65625 43.90625 L 63.625 43.78125 z M 59 43.875 L 59.09375 43.9375 L 59.09375 44 L 59.03125 44.03125 L 59 43.875 z M 53.46875 43.9375 L 53.59375 44.03125 L 53.78125 43.96875 C 53.850137 43.962159 53.870599 43.985334 53.875 44.03125 C 53.755591 44.042699 53.658238 44.072484 53.59375 44.125 L 53.46875 44 L 53.4375 43.96875 L 53.46875 43.9375 z M 59.4375 43.96875 L 59.5 43.96875 L 59.53125 44.15625 L 59.46875 44.15625 L 59.4375 43.96875 z M 68.34375 43.96875 L 68.46875 44.0625 L 68.46875 44.125 L 68.40625 44.1875 L 68.34375 44.125 L 68.3125 44.03125 L 68.34375 43.96875 z M 45.625 44 L 43.53125 44.1875 L 43.46875 44.28125 L 44 49.9375 L 44.125 50.09375 L 44.09375 50.1875 L 44.125 50.21875 L 44.15625 50.28125 L 44.03125 50.28125 L 44.0625 50.5625 L 44.15625 50.625 L 44.25 50.625 L 44.28125 50.5625 C 44.30589 50.819683 44.376898 50.946303 44.46875 50.9375 L 44.4375 51.09375 L 44.53125 51.15625 L 44.78125 51.125 L 44.78125 51.1875 C 44.873101 51.178703 44.90185 51.204078 44.90625 51.25 L 44.625 51.28125 L 44.46875 51.34375 L 44.46875 51.28125 L 44.25 51.25 L 44.21875 51.25 L 44.15625 51.3125 L 44.28125 52.65625 L 44.34375 52.65625 L 44.3125 52.46875 L 44.40625 52.46875 L 44.5 52.6875 L 44.65625 52.71875 L 44.71875 52.75 L 44.59375 52.78125 L 44.5 52.71875 L 44.34375 52.71875 L 44.28125 52.8125 L 44.3125 53.03125 L 44.34375 53.0625 C 44.412639 53.055901 44.46171 53.114021 44.46875 53.1875 L 44.34375 53.40625 L 44.375 53.71875 L 44.4375 53.71875 L 44.46875 53.875 L 44.40625 54 L 44.40625 54.03125 L 44.46875 54.09375 L 44.625 54.09375 L 44.625 54 L 44.53125 54.03125 L 44.53125 53.96875 L 44.75 53.96875 L 44.75 54.0625 L 45.1875 54.03125 L 45.15625 53.84375 L 45.1875 53.84375 L 45.4375 54 L 45.59375 54 C 45.639675 53.9956 45.662849 53.943888 45.65625 53.875 L 45.875 53.84375 C 45.881598 53.912638 45.922823 53.9419 45.96875 53.9375 L 46.1875 53.9375 L 46.25 53.84375 L 46.375 53.90625 L 46.59375 53.90625 L 46.65625 53.8125 L 46.625 53.53125 L 46.53125 53.53125 C 46.540048 53.623101 46.454868 53.67386 46.3125 53.6875 L 46.28125 53.71875 L 46.3125 53.59375 L 46.125 53.40625 L 46.125 53.375 L 46.34375 53.53125 L 46.40625 53.53125 L 46.5 53.40625 L 46.5 53.375 L 46.4375 53.1875 C 46.292048 53.168994 46.222268 53.161741 46.21875 53.125 L 46.21875 53.0625 L 46.4375 53.15625 C 46.483424 53.151851 46.520248 53.197688 46.53125 53.3125 L 46.59375 53.3125 L 46.5 52.34375 L 46.40625 52.375 L 46.34375 52.3125 C 46.412637 52.305902 46.463312 52.257094 46.5 52.15625 L 46.34375 50.625 L 46.28125 50.625 L 46.28125 50.75 L 46.09375 50.78125 L 46.34375 50.46875 L 46.28125 50.0625 C 46.200919 49.949699 46.127693 49.897014 46.03125 49.90625 C 46.026848 49.860329 46.051517 49.819544 46.125 49.8125 L 46.125 49.65625 L 46.03125 49.59375 L 45.8125 49.59375 L 45.84375 49.8125 C 45.848149 49.858429 45.89986 49.881604 45.96875 49.875 L 45.90625 50 C 45.817175 49.892672 45.703971 49.833194 45.59375 49.84375 L 45.59375 49.78125 L 45.375 49.78125 L 45.34375 49.75 L 45.40625 49.65625 L 45.5 49.71875 L 45.6875 49.6875 C 45.733425 49.683104 45.763199 49.60653 45.75 49.46875 C 45.841851 49.459955 45.884238 49.408947 45.875 49.3125 L 46.0625 49.40625 L 46.21875 49.40625 L 45.8125 45 L 45.78125 44.96875 L 45.46875 45.1875 L 45.59375 45.03125 L 45.34375 44.71875 L 45.375 44.71875 L 45.40625 44.6875 L 45.46875 44.6875 L 45.46875 44.75 C 45.596076 44.821234 45.650529 44.877807 45.65625 44.9375 L 45.71875 44.9375 L 45.78125 44.875 L 45.71875 44.0625 L 45.625 44 z M 51.65625 44 L 51.6875 44 L 51.84375 44 L 51.84375 44.0625 L 51.71875 44.09375 L 51.65625 44.03125 L 51.65625 44 z M 54.84375 44 L 54.84375 44.15625 L 54.8125 44.15625 L 54.71875 44.03125 L 54.84375 44 z M 58.375 44 L 58.46875 44.0625 C 58.32638 44.076149 58.197565 44.155446 58.09375 44.28125 L 58.0625 44.25 C 58.083016 44.173889 58.174933 44.088696 58.375 44 z M 73.90625 44.0625 C 74.033955 44.041003 74.049842 44.083603 73.96875 44.15625 L 74.03125 44.15625 L 74.1875 44.1875 C 74.284817 44.187453 74.385635 44.190835 74.46875 44.1875 L 74.46875 44.21875 L 74.25 44.25 C 74.263632 44.392375 74.216844 44.459957 74.125 44.46875 L 74.125 44.375 L 73.9375 44.4375 L 73.875 44.4375 L 73.65625 44.3125 L 73.6875 44.28125 L 73.6875 44.21875 C 73.681773 44.159055 73.628567 44.156203 73.53125 44.15625 L 73.53125 44.09375 L 73.90625 44.0625 z M 63.5 44.09375 L 63.53125 44.21875 C 63.419757 44.312864 63.362675 44.433918 63.375 44.5625 C 63.338254 44.566028 63.293143 44.486741 63.25 44.375 L 63.1875 44.40625 L 63.1875 44.375 L 63.5 44.09375 z M 73.78125 44.15625 L 73.78125 44.28125 L 73.875 44.34375 L 73.90625 44.34375 L 73.96875 44.28125 L 73.78125 44.15625 z M 44.1875 44.25 L 44.25 44.3125 L 44.15625 44.34375 L 44.125 44.34375 L 44.1875 44.25 z M 57.78125 44.3125 L 57.78125 44.34375 L 57.71875 44.53125 L 57.6875 44.53125 L 57.625 44.34375 L 57.78125 44.3125 z M 54.59375 44.375 L 54.6875 44.375 L 54.6875 44.4375 L 54.59375 44.46875 L 54.40625 44.5 L 54.40625 44.4375 L 54.59375 44.375 z M 64.71875 44.40625 L 64.78125 44.40625 L 64.84375 44.5 L 64.78125 44.71875 L 64.75 44.71875 L 64.71875 44.40625 z M 68.375 44.40625 L 68.4375 44.40625 C 68.444978 44.48433 68.563828 44.549703 68.78125 44.59375 L 69.15625 44.5625 L 69.15625 44.59375 C 69.060683 44.612182 69.025527 44.627805 69.03125 44.6875 L 69.03125 44.71875 L 69.0625 44.75 L 68.875 44.9375 L 68.8125 44.9375 L 68.625 44.90625 L 68.625 45.03125 C 68.533146 45.040057 68.482388 44.954875 68.46875 44.8125 L 68.25 44.84375 L 68.25 44.8125 C 68.244278 44.752805 68.310683 44.705932 68.40625 44.6875 L 68.375 44.40625 z M 44.625 44.5 L 44.6875 44.5625 L 44.71875 44.625 L 44.625 44.625 L 44.59375 44.59375 L 44.59375 44.53125 L 44.625 44.5 z M 39.71875 44.5625 L 37.15625 44.8125 L 36.40625 47.9375 L 36.40625 47.96875 L 36.4375 48 C 36.36861 48.006607 36.322015 48.090324 36.3125 48.28125 L 36.34375 48.3125 L 36.40625 48.375 L 36.34375 48.40625 L 36.34375 48.3125 L 36.28125 48.34375 L 35.8125 50.46875 L 35.875 50.46875 L 35.90625 50.5 L 35.84375 50.71875 L 35.9375 50.8125 L 35.9375 50.90625 L 35.84375 50.90625 L 35.8125 50.84375 L 35.6875 50.875 L 35.53125 51.5625 L 35.5625 51.59375 L 35.625 51.5625 C 35.662264 51.322566 35.703175 51.226234 35.78125 51.21875 L 35.875 51.1875 L 35.90625 51.3125 L 35.90625 51.34375 C 35.768472 51.356954 35.71171 51.395274 35.71875 51.46875 L 35.75 51.78125 L 35.6875 51.84375 L 35.65625 51.65625 C 35.587361 51.662853 35.5669 51.639678 35.5625 51.59375 L 35.5 51.59375 L 35.375 52.21875 L 35.46875 52.3125 L 35.46875 52.34375 L 35.4375 52.375 L 35.34375 52.3125 L 35.125 53.25 L 35.09375 53.25 L 35.09375 53.53125 L 35.21875 53.5625 L 35.25 53.53125 L 35.3125 53.53125 L 35.34375 53.625 L 35.34375 53.65625 L 35.25 53.625 L 35.1875 53.625 L 35.125 53.71875 L 35.15625 54.15625 L 35.25 54.15625 L 35.25 54.1875 L 35.21875 54.21875 L 35.1875 54.21875 L 35.21875 54.3125 L 35.1875 54.53125 L 35.25 54.96875 L 35.65625 54.9375 L 35.6875 54.9375 L 35.78125 54.875 L 36 54.90625 L 36.46875 54.84375 L 36.625 54.8125 L 36.75 54.8125 L 36.90625 54.8125 L 37.09375 54.75 L 37.1875 54.78125 L 37.21875 54.78125 L 37.375 54.03125 L 37.28125 53.9375 L 37.28125 53.84375 L 37.34375 53.84375 C 37.416927 53.688431 37.541256 53.140708 37.71875 52.1875 C 38.353168 48.989061 38.651396 47.244308 38.625 46.96875 L 38.6875 46.96875 C 38.989835 47.899165 39.421563 49.070693 40.03125 50.5 L 40.03125 50.5625 L 38.375 50.71875 L 38 52.59375 L 40.75 52.3125 C 40.805106 52.307223 41.073768 53.011249 41.59375 54.375 L 44.15625 54.125 L 39.71875 44.5625 z M 35.8125 50.46875 L 35.75 50.71875 L 35.78125 50.71875 C 35.827175 50.714354 35.828339 50.634084 35.8125 50.46875 z M 55.0625 44.59375 C 55.094645 44.590679 55.141957 44.630429 55.1875 44.71875 L 55.1875 44.75 L 55.09375 44.75 L 55.0625 44.59375 z M 68.90625 44.625 L 68.75 44.78125 L 68.84375 44.84375 L 68.875 44.84375 L 68.9375 44.78125 L 68.90625 44.625 z M 73.625 44.71875 L 73.75 44.71875 L 73.65625 44.78125 L 73.625 44.78125 C 73.622793 44.758295 73.635498 44.731655 73.625 44.71875 z M 54.5625 44.75 L 54.59375 44.75 L 54.6875 44.8125 L 54.875 44.78125 L 54.90625 44.875 C 54.77067 44.911171 54.709508 44.997316 54.71875 45.09375 L 54.6875 45.09375 L 54.5625 44.78125 L 54.5625 44.75 z M 56.5625 44.75 L 56.5625 44.84375 L 56.40625 44.84375 L 56.40625 44.78125 L 56.5625 44.75 z M 74 44.75 L 74.21875 44.8125 L 74.4375 44.84375 L 74.4375 44.8125 L 74.59375 44.8125 L 74.625 44.875 L 74.4375 44.90625 L 74.25 44.96875 L 74.21875 44.8125 L 74.03125 44.875 L 73.84375 44.875 L 73.8125 44.78125 L 74 44.75 z M 74.78125 44.75 L 74.90625 44.75 C 74.909321 44.782155 74.890704 44.826707 74.90625 44.84375 L 74.75 44.8125 L 74.78125 44.75 z M 76.625 44.75 L 76.65625 44.75 L 76.65625 44.8125 L 76.5625 44.8125 L 76.625 44.75 z M 55.53125 44.78125 L 55.59375 44.78125 C 55.729132 44.791461 55.810838 44.862481 55.875 45 L 55.875 45.03125 L 55.84375 45.0625 L 55.8125 45.09375 L 55.78125 45.0625 C 55.691925 44.904218 55.626793 44.806348 55.5625 44.8125 L 55.53125 44.78125 z M 53.78125 44.84375 L 53.8125 44.9375 L 53.75 44.96875 L 53.6875 44.90625 L 53.78125 44.84375 z M 45.15625 44.90625 L 45.09375 45.03125 L 45.09375 45.09375 L 45.15625 45.28125 L 45.125 45.28125 L 45.09375 45.25 L 44.65625 45.125 L 44.65625 45.09375 L 44.875 44.9375 L 45.15625 44.90625 z M 57.90625 45.03125 L 57.9375 45.34375 L 57.90625 45.375 L 57.8125 45.15625 L 57.84375 45.0625 L 57.90625 45.03125 z M 67 45.09375 L 66.90625 45.1875 L 67.03125 45.28125 L 67.09375 45.28125 L 67.21875 45.21875 L 67.09375 45.09375 L 67 45.09375 z M 54.8125 45.125 L 54.84375 45.15625 L 54.90625 45.125 L 54.90625 45.25 L 54.875 45.28125 C 54.838257 45.284778 54.822196 45.245028 54.78125 45.15625 L 54.8125 45.125 z M 56.03125 45.125 L 56.125 45.1875 L 56.125 45.21875 L 56.03125 45.15625 L 56.03125 45.125 z M 55.46875 45.1875 C 55.643265 45.170788 55.811627 45.267623 55.9375 45.46875 L 55.5 45.59375 L 55.46875 45.59375 L 55.5625 45.28125 L 55.46875 45.1875 z M 66.34375 45.21875 L 66.3125 45.25 L 66.28125 45.25 L 66.375 45.4375 L 66.375 45.46875 L 66.15625 45.46875 L 66.21875 45.65625 C 66.060209 45.694619 65.9956 45.735331 66 45.78125 L 65.75 45.78125 L 65.71875 45.75 L 65.75 45.6875 L 65.6875 45.625 L 65.65625 45.65625 L 65.65625 45.8125 L 65.71875 45.84375 L 65.6875 45.875 L 65.71875 46.1875 L 65.78125 46.25 L 65.875 46.25 L 66.125 46.09375 L 66.21875 46.09375 L 66.40625 46.09375 L 66.5 45.96875 C 66.614815 45.957756 66.66109 45.956774 66.65625 45.90625 L 67.0625 45.84375 C 67.104025 45.793431 67.245014 45.766359 67.5 45.71875 L 67.5 45.6875 C 67.486799 45.549731 67.397017 45.426999 67.25 45.34375 L 67.15625 45.34375 C 67.160649 45.389682 67.083317 45.438049 66.96875 45.5 L 66.90625 45.53125 L 66.90625 45.5 L 66.96875 45.375 L 66.90625 45.3125 L 66.84375 45.3125 L 66.75 45.375 L 66.5625 45.40625 C 66.56954 45.479737 66.545926 45.526856 66.5 45.53125 L 66.53125 45.34375 C 66.517665 45.298712 66.453779 45.254562 66.34375 45.21875 z M 45.34375 45.25 L 45.34375 45.34375 L 45.28125 45.34375 L 45.1875 45.28125 L 45.34375 45.25 z M 69.84375 45.25 L 69.875 45.3125 L 69.75 45.3125 C 69.543137 45.378672 69.457747 45.447694 69.46875 45.5625 L 69.4375 45.5625 L 69.3125 45.53125 L 69.125 45.6875 L 68.90625 45.6875 L 68.71875 45.6875 L 68.71875 45.8125 L 68.53125 45.8125 L 68.34375 45.8125 L 68.34375 45.75 L 68.0625 45.78125 C 68.069978 45.859329 68.190057 46.012818 68.375 46.25 L 68.40625 46.25 L 68.40625 46.21875 L 68.46875 46.21875 L 68.46875 46.25 L 68.40625 46.25 C 68.460341 46.379228 68.813906 46.85112 69.46875 47.6875 C 70.526358 49.148056 71.28884 50.176582 71.75 50.78125 L 71.40625 47.21875 L 70.28125 45.71875 L 70.1875 45.71875 L 70.1875 45.8125 L 70.1875 45.84375 L 70.09375 45.8125 C 70.094131 45.719776 70.127792 45.661976 70.1875 45.65625 C 70.175616 45.532259 70.086539 45.390312 69.90625 45.25 L 69.84375 45.25 z M 54.90625 45.3125 L 55.09375 45.3125 L 55.125 45.3125 L 55.09375 45.625 L 54.9375 45.625 L 54.90625 45.59375 L 54.90625 45.3125 z M 56.03125 45.4375 L 56.09375 45.4375 L 56.125 45.625 L 56.09375 45.625 L 56.03125 45.4375 z M 56.5 45.4375 L 56.5 45.625 L 56.4375 45.625 L 56.4375 45.53125 L 56.5 45.4375 z M 43.8125 45.46875 L 43.875 45.53125 L 43.875 45.59375 L 43.84375 45.625 L 43.78125 45.5625 L 43.75 45.5 L 43.8125 45.46875 z M 73.625 45.5 L 73.71875 45.5 L 73.71875 45.5625 L 73.625 45.59375 L 73.625 45.5 z M 73.3125 45.75 L 73.4375 45.78125 L 73.4375 45.8125 L 73.3125 45.875 L 73.28125 45.875 L 73.25 45.84375 L 73.3125 45.75 z M 67.34375 45.875 L 67.125 46 L 67.125 46.03125 L 67.1875 46.0625 L 67.1875 46.125 L 67.03125 46.125 L 67.03125 46.0625 L 66.59375 46.125 L 66.5 46.21875 L 66.5 46.3125 L 66.65625 46.3125 L 66.84375 46.3125 C 66.849029 46.367616 66.899788 46.421548 67 46.5 L 67 46.5625 L 66.9375 46.65625 L 66.90625 46.65625 C 66.89305 46.51848 66.848644 46.419978 66.75 46.40625 L 66.65625 46.46875 C 66.65185 46.422831 66.532999 46.357458 66.3125 46.28125 L 66.25 46.28125 C 66.203881 46.332021 66.110222 46.364446 66 46.375 C 65.866815 46.387766 65.791472 46.477358 65.75 46.625 L 66.25 51.9375 L 66.28125 51.96875 L 66.4375 51.9375 L 66.5625 51.9375 L 68.4375 51.78125 L 67.9375 46.75 L 67.8125 46.78125 L 67.8125 46.71875 L 67.9375 46.6875 L 67.90625 46.4375 L 67.84375 46.25 L 67.8125 46.28125 C 67.697684 46.292256 67.605701 46.209061 67.5625 46 L 67.53125 46 L 67.5 46.03125 L 67.34375 46.03125 L 67.34375 45.875 z M 73.28125 45.90625 L 73.34375 45.90625 L 73.34375 46 L 73.28125 45.9375 L 73.28125 45.90625 z M 67.625 45.9375 C 67.635998 46.052319 67.693284 46.121331 67.8125 46.15625 L 67.84375 46.15625 C 67.831869 46.032258 67.78287 45.965446 67.6875 45.9375 L 67.625 45.9375 z M 69.21875 45.9375 L 69.3125 45.9375 L 69.34375 46 L 69.21875 46.03125 L 69.21875 45.9375 z M 54.90625 46 L 54.96875 46 L 54.96875 46.03125 L 54.8125 46.125 L 54.8125 46.0625 L 54.90625 46 z M 55.40625 46 C 55.378306 46.095377 55.344645 46.153177 55.3125 46.15625 L 55.28125 46.15625 L 55.25 46.03125 L 55.40625 46 z M 72.5625 46 L 72.625 46 C 72.684697 45.994286 72.746382 46.046723 72.8125 46.15625 L 72.6875 46.15625 L 72.5625 46 z M 55.8125 46.03125 L 55.75 46.25 L 55.6875 46.25 L 55.6875 46.21875 L 55.71875 46.1875 L 55.71875 46.15625 L 55.6875 46.125 L 55.8125 46.03125 z M 69.65625 46.125 L 69.75 46.1875 L 69.75 46.21875 L 69.71875 46.21875 L 69.5625 46.21875 L 69.5625 46.15625 L 69.65625 46.125 z M 72.96875 46.125 L 72.96875 46.1875 L 72.84375 46.1875 L 72.84375 46.15625 L 72.96875 46.125 z M 56.53125 46.21875 L 56.46875 46.28125 L 56.46875 46.3125 L 56.53125 46.3125 L 56.53125 46.21875 z M 67.3125 46.21875 L 67.40625 46.28125 C 67.417249 46.396068 67.379188 46.470443 67.3125 46.5 L 67.28125 46.5 L 67.28125 46.40625 L 67.3125 46.21875 z M 70.40625 46.21875 L 70.4375 46.21875 L 70.34375 46.40625 L 70.25 46.40625 C 70.294107 46.286163 70.346542 46.224476 70.40625 46.21875 z M 69.6875 46.25 L 69.75 46.25 L 69.75 46.28125 L 69.6875 46.375 L 69.6875 46.25 z M 56.59375 46.28125 L 56.625 46.4375 L 56.65625 46.5 L 56.625 46.53125 L 56.625 46.5625 L 56.6875 46.5625 C 56.775388 46.512374 56.824375 46.405254 56.8125 46.28125 L 56.65625 46.28125 L 56.59375 46.28125 z M 70.21875 46.40625 L 70.21875 46.46875 L 70.0625 46.46875 L 70.0625 46.4375 L 70.21875 46.40625 z M 56.5625 46.5625 C 56.569536 46.635987 56.52338 46.724296 56.4375 46.84375 L 56.46875 46.96875 L 56.5 46.96875 L 56.71875 46.65625 L 56.5625 46.5625 z M 54.5625 46.78125 L 54.625 46.9375 L 54.59375 46.9375 L 54.5 46.875 L 54.5 46.8125 L 54.5625 46.78125 z M 55.28125 46.78125 C 55.613041 46.809719 55.773767 46.890684 55.78125 46.96875 L 55.71875 46.96875 L 55.59375 46.90625 L 55.4375 46.90625 L 55.4375 47 L 55.15625 47 L 55.09375 46.9375 L 55.0625 46.875 L 55.21875 46.8125 L 55.28125 46.78125 z M 70.78125 46.78125 L 70.84375 46.78125 L 70.84375 46.84375 L 70.78125 46.9375 L 70.75 46.9375 L 70.75 46.90625 L 70.78125 46.78125 z M 72.78125 46.78125 L 72.84375 46.78125 L 72.90625 46.875 L 72.90625 46.90625 L 72.875 46.90625 L 72.78125 46.84375 L 72.78125 46.78125 z M 66.40625 46.84375 C 66.41065 46.88968 66.462361 46.912855 66.53125 46.90625 L 66.53125 46.96875 C 66.476139 46.974035 66.390959 47.024795 66.3125 47.125 L 66.28125 47.125 C 66.27333 47.04234 66.226532 46.96724 66.125 46.875 L 66.40625 46.84375 z M 67.125 46.84375 L 67.1875 46.84375 L 67.1875 46.90625 C 67.11861 46.912855 67.084949 46.970655 67.09375 47.0625 C 66.997305 47.071745 66.895111 47.113512 66.8125 47.21875 L 66.78125 47.21875 L 66.78125 47.0625 C 67.014592 47.03088 67.135119 46.949383 67.125 46.84375 z M 67.71875 47 L 67.8125 47 L 67.84375 47.09375 L 67.8125 47.09375 L 67.71875 47.03125 L 67.71875 47 z M 53.90625 47.09375 L 54.03125 47.125 C 54.040488 47.221449 54.07448 47.254846 54.125 47.25 L 54.125 47.34375 L 54.09375 47.34375 C 54.087588 47.279461 54.020009 47.232671 53.875 47.21875 L 53.875 47.125 L 53.90625 47.09375 z M 67.40625 47.09375 L 67.4375 47.15625 L 67.21875 47.1875 L 67.21875 47.125 L 67.40625 47.09375 z M 75.53125 47.21875 L 75.5625 47.28125 L 75.40625 47.34375 L 75.375 47.3125 L 75.375 47.28125 L 75.53125 47.21875 z M 66.5625 47.25 L 66.65625 47.28125 L 66.65625 47.3125 L 66.53125 47.3125 L 66.53125 47.28125 L 66.5625 47.25 z M 54.90625 47.28125 L 55.03125 47.3125 L 54.96875 47.375 L 54.90625 47.40625 L 54.90625 47.28125 z M 70.84375 47.28125 L 70.875 47.28125 L 70.875 47.34375 L 70.78125 47.375 L 70.84375 47.28125 z M 75.90625 47.34375 L 75.9375 47.34375 L 76.03125 47.40625 L 75.90625 47.4375 L 75.90625 47.34375 z M 67.15625 47.375 L 67.15625 47.40625 L 67.09375 47.46875 L 66.96875 47.5 C 66.964349 47.45408 67.020671 47.411167 67.15625 47.375 z M 72.5 47.59375 L 72.53125 47.59375 L 72.59375 47.65625 L 72.5 47.65625 L 72.5 47.59375 z M 54.03125 47.625 L 54.1875 47.65625 L 54.1875 47.6875 L 54.125 47.75 L 54 47.78125 L 54.03125 47.625 z M 63.5 47.65625 L 63.84375 47.71875 L 63.9375 47.65625 C 63.954214 47.83077 63.857384 47.967887 63.65625 48.09375 L 63.5 47.6875 L 63.5 47.65625 z M 64.46875 47.6875 L 64.46875 47.75 C 64.458541 47.885387 64.349784 47.989987 64.125 48.0625 L 64.0625 48.0625 L 64.03125 48.03125 L 64.03125 48 L 64.0625 47.9375 C 64.308047 47.839825 64.443654 47.78305 64.4375 47.71875 L 64.46875 47.6875 z M 65.15625 47.71875 L 65.1875 47.75 L 65.15625 47.71875 z M 54.9375 47.84375 L 55.09375 48.09375 L 55.0625 48.09375 C 55.011099 48.08941 54.931043 48.038733 54.875 47.9375 L 54.9375 47.84375 z M 36.78125 47.9375 L 36.8125 47.9375 L 36.9375 48 L 36.9375 48.03125 L 36.78125 48 L 36.78125 47.9375 z M 66.21875 47.96875 L 66.34375 47.96875 L 66.34375 48 L 66.3125 48.0625 L 66.3125 48.09375 L 66.25 48.0625 L 66.21875 47.96875 z M 45.8125 48.09375 L 45.84375 48.09375 L 45.9375 48.28125 L 45.9375 48.40625 L 45.84375 48.40625 L 45.8125 48.09375 z M 54.21875 48.15625 C 54.325065 48.201685 54.38675 48.254123 54.40625 48.3125 L 54.375 48.34375 C 54.308694 48.280588 54.242609 48.244725 54.1875 48.25 L 54.1875 48.1875 L 54.21875 48.15625 z M 70.5625 48.15625 L 70.65625 48.15625 L 70.59375 48.21875 L 70.5625 48.21875 L 70.5625 48.15625 z M 63.65625 48.1875 L 63.6875 48.28125 L 63.5 48.28125 L 63.5 48.25 L 63.65625 48.1875 z M 63.9375 48.21875 L 64 48.21875 L 63.9375 48.28125 L 63.875 48.28125 L 63.9375 48.21875 z M 77.21875 48.21875 L 77.28125 48.21875 L 77.28125 48.25 L 77.09375 48.3125 L 77.0625 48.3125 L 77.0625 48.28125 L 77.21875 48.21875 z M 75.40625 48.3125 L 75.28125 48.34375 L 75.25 48.40625 L 75.25 48.59375 L 75.28125 48.625 L 75.28125 48.65625 C 75.374605 48.614866 75.461985 48.555819 75.5 48.46875 L 75.46875 48.375 L 75.40625 48.3125 z M 58.125 48.375 L 58.125 48.4375 L 58.09375 48.40625 L 58.125 48.375 z M 64.4375 48.40625 L 64.5 48.40625 L 64.4375 48.40625 z M 64.21875 48.4375 L 64.25 48.4375 L 64.28125 48.46875 L 64.1875 48.5625 L 64.25 48.75 C 64.256594 48.818891 64.23342 48.870604 64.1875 48.875 C 64.176054 48.755599 64.14627 48.658242 64.09375 48.59375 L 64.21875 48.4375 z M 64.5625 48.46875 L 64.625 48.46875 L 64.65625 48.59375 L 64.625 48.59375 L 64.5625 48.46875 z M 53.40625 48.53125 L 53.46875 48.53125 L 53.53125 48.59375 L 53.3125 48.59375 L 53.40625 48.53125 z M 55.15625 48.71875 L 55.09375 48.78125 L 54.96875 48.8125 L 54.96875 48.75 L 55.15625 48.71875 z M 56.59375 48.71875 L 56.6875 48.75 L 56.6875 48.78125 L 56.59375 48.8125 L 56.59375 48.71875 z M 55.15625 48.78125 L 55.25 48.78125 L 55.25 48.84375 L 55.15625 48.84375 L 55.15625 48.78125 z M 76.4375 48.875 L 76.46875 49 L 76.375 48.9375 L 76.4375 48.875 z M 46.03125 48.90625 L 46.0625 48.90625 L 46.125 49.09375 L 46 49.125 L 46 49.09375 L 46.03125 48.90625 z M 77.1875 49.0625 L 77.28125 49.0625 L 77.28125 49.09375 L 77.125 49.1875 L 77.0625 49.21875 L 77.03125 49.21875 L 77.03125 49.1875 L 77.125 49.1875 C 77.118389 49.118615 77.141563 49.066903 77.1875 49.0625 z M 36.40625 49.09375 L 36.40625 49.125 L 36.25 49.1875 L 36.21875 49.125 L 36.40625 49.09375 z M 63.375 49.09375 L 63.4375 49.21875 L 63.34375 49.25 L 63.3125 49.1875 L 63.375 49.09375 z M 64.34375 49.09375 L 64.40625 49.09375 C 64.413284 49.167234 64.394263 49.182664 64.34375 49.1875 L 64.34375 49.09375 z M 45.6875 49.15625 L 45.71875 49.1875 C 45.698233 49.263625 45.575066 49.348817 45.375 49.4375 L 45.3125 49.375 C 45.454869 49.361365 45.583684 49.282067 45.6875 49.15625 z M 64.5 49.1875 L 64.5 49.21875 L 64.4375 49.28125 C 64.430894 49.212366 64.454068 49.191904 64.5 49.1875 z M 56.15625 49.25 L 56.15625 49.3125 L 56.03125 49.375 L 56.09375 49.46875 L 55.875 49.5 L 55.90625 49.4375 L 55.875 49.40625 L 55.9375 49.28125 L 56.15625 49.25 z M 44.3125 49.28125 L 44.3125 49.46875 L 44.25 49.46875 L 44.25 49.3125 L 44.3125 49.28125 z M 59.15625 49.34375 L 59.1875 49.34375 L 59.34375 49.46875 C 59.304423 49.542041 59.301059 49.661848 59.3125 49.78125 C 59.266573 49.785653 59.225349 49.725141 59.21875 49.65625 L 59.25 49.5 L 59.125 49.40625 L 59.15625 49.34375 z M 58.90625 49.375 L 59 49.375 L 58.90625 49.375 z M 60.125 49.40625 L 60.1875 49.46875 L 60.21875 49.53125 L 60.09375 49.5 L 60.125 49.40625 z M 44.6875 49.4375 L 44.75 49.4375 L 44.75 49.5625 L 44.6875 49.5 L 44.6875 49.4375 z M 57.1875 49.4375 L 57.34375 49.4375 L 57.28125 49.5 L 57.1875 49.4375 z M 46.15625 49.46875 L 46.125 49.5 L 46.1875 49.75 L 46.1875 49.8125 L 46.28125 49.8125 L 46.21875 49.46875 L 46.15625 49.46875 z M 58.78125 49.46875 L 58.84375 49.46875 L 58.84375 49.59375 L 58.8125 49.59375 L 58.78125 49.46875 z M 72.375 49.46875 L 72.46875 49.46875 L 72.46875 49.53125 L 72.4375 49.53125 L 72.375 49.46875 z M 44.0625 49.625 C 44.253877 49.639112 44.33803 49.690302 44.34375 49.75 L 44.25 49.75 L 44.0625 49.625 z M 44.90625 49.625 L 44.96875 49.625 L 45.03125 49.71875 L 45.03125 49.75 L 44.90625 49.75 L 44.90625 49.625 z M 64.125 49.625 L 64.21875 49.625 L 64.25 49.8125 L 64.28125 49.90625 L 64.1875 49.90625 L 64.1875 49.8125 L 64.125 49.625 z M 36.25 49.75 L 36.3125 49.75 L 36.34375 49.875 C 36.247304 49.884245 36.200709 49.999212 36.21875 50.1875 L 36.09375 50.1875 C 36.084509 50.091062 36.11861 50.037855 36.1875 50.03125 L 36.15625 50 L 36.125 49.96875 C 36.221444 49.959515 36.263199 49.88778 36.25 49.75 z M 63.90625 49.75 L 63.90625 49.8125 L 63.84375 49.90625 L 63.875 50.09375 L 63.75 50.125 C 63.713832 49.989428 63.621199 49.951153 63.4375 49.96875 L 63.4375 49.90625 L 63.875 49.78125 L 63.90625 49.75 z M 76 49.8125 L 76.125 49.90625 L 76 49.96875 L 75.96875 49.9375 L 76 49.8125 z M 45.25 49.90625 C 45.262319 50.034844 45.341422 50.147529 45.46875 50.21875 L 45.46875 50.34375 L 45.09375 50.125 L 45.09375 50.09375 L 45.15625 50.09375 C 45.177398 49.975862 45.213258 49.909774 45.25 49.90625 z M 64.625 49.9375 L 64.625 50.0625 L 64.5 50.0625 L 64.5 50.03125 L 64.625 49.9375 z M 76.3125 50 L 76.46875 50 L 76.5 50.0625 L 76.3125 50.0625 L 76.3125 50 z M 59.125 50.03125 L 59.1875 50.03125 L 59.21875 50.125 C 59.168231 50.129843 59.132039 50.104733 59.125 50.03125 z M 44.8125 50.0625 L 44.875 50.0625 C 44.879399 50.108429 44.926518 50.100794 45 50.09375 L 45 50.15625 L 44.90625 50.15625 L 44.90625 50.1875 L 44.96875 50.375 C 45.11552 50.407289 45.183099 50.422829 45.1875 50.46875 L 45.1875 50.53125 L 45.0625 50.5 L 45.03125 50.5 L 45 50.53125 C 45.008799 50.623104 44.983425 50.683103 44.9375 50.6875 L 44.9375 50.90625 L 44.90625 50.90625 L 44.875 50.71875 L 44.6875 50.78125 L 44.65625 50.78125 L 44.59375 50.71875 L 44.5625 50.6875 L 44.625 50.5 L 44.75 50.5 L 44.90625 50.4375 L 44.90625 50.375 L 44.78125 50.28125 L 44.8125 50.0625 z M 76.875 50.0625 L 76.9375 50.0625 L 77.09375 50.15625 L 77.03125 50.15625 L 76.875 50.09375 L 76.875 50.0625 z M 44.40625 50.09375 L 44.4375 50.09375 L 44.5625 50.25 L 44.46875 50.375 L 44.4375 50.375 C 44.359811 50.289754 44.292232 50.242964 44.21875 50.25 L 44.21875 50.21875 C 44.283046 50.212594 44.334776 50.170122 44.40625 50.09375 z M 46.21875 50.09375 L 46.25 50.21875 L 46.03125 50.21875 L 46 50.15625 L 46.21875 50.09375 z M 57.375 50.09375 L 57.4375 50.09375 L 57.4375 50.1875 L 57.375 50.125 L 57.375 50.09375 z M 59.0625 50.15625 C 59.108425 50.151853 59.149649 50.181115 59.15625 50.25 L 59.0625 50.1875 L 59.0625 50.15625 z M 59.8125 50.21875 L 59.875 50.21875 L 59.875 50.375 L 59.875 50.5 L 59.8125 50.5 L 59.78125 50.375 L 59.8125 50.21875 z M 35.90625 50.28125 L 36.03125 50.28125 L 36.03125 50.34375 L 36 50.375 L 35.90625 50.3125 L 35.90625 50.28125 z M 57.15625 50.28125 L 57.15625 50.3125 L 57.09375 50.4375 C 57.105185 50.556908 57.149856 50.600353 57.21875 50.59375 L 57.25 50.6875 C 57.158143 50.696303 57.089345 50.704078 57.09375 50.75 L 57.03125 50.75 L 57.0625 50.59375 L 56.9375 50.34375 L 56.9375 50.3125 L 57.15625 50.28125 z M 60.125 50.28125 L 60.1875 50.28125 L 60.625 50.34375 L 60.625 50.375 C 60.441294 50.392603 60.353511 50.485027 60.34375 50.625 L 60.25 50.59375 L 60.21875 50.4375 L 60.15625 50.3125 L 60.125 50.28125 z M 64.0625 50.28125 C 64.065574 50.3134 64.025826 50.360712 63.9375 50.40625 L 63.90625 50.40625 L 63.875 50.3125 L 64.0625 50.28125 z M 57.46875 50.40625 L 57.53125 50.40625 L 57.53125 50.5 L 57.4375 50.5 L 57.40625 50.46875 L 57.46875 50.40625 z M 60.71875 50.40625 C 60.813679 50.4296 60.840228 50.463262 60.84375 50.5 L 60.8125 50.53125 L 60.71875 50.5625 L 60.71875 50.46875 L 60.6875 50.4375 L 60.71875 50.40625 z M 45.90625 50.4375 L 45.90625 50.53125 C 45.825783 50.562134 45.756783 50.586596 45.71875 50.625 C 45.680717 50.663404 45.683099 50.704077 45.6875 50.75 L 45.59375 50.75 L 45.5625 50.625 L 45.6875 50.65625 L 45.71875 50.625 L 45.875 50.46875 L 45.90625 50.4375 z M 61.1875 50.46875 L 61.21875 50.5 L 61.21875 50.625 L 60.9375 50.75 L 60.9375 50.6875 L 60.90625 50.53125 L 61.1875 50.46875 z M 76.3125 50.5 L 76.4375 50.5 L 76.34375 50.5625 L 76.3125 50.53125 L 76.3125 50.5 z M 63.09375 50.53125 L 63.125 50.53125 L 63.09375 50.59375 L 63.09375 50.65625 L 63 50.65625 L 62.96875 50.625 C 62.965225 50.588262 63.004973 50.5722 63.09375 50.53125 z M 36.96875 50.59375 L 37.03125 50.65625 L 36.9375 50.65625 L 36.9375 50.625 L 36.96875 50.59375 z M 59.46875 50.59375 L 59.59375 50.65625 L 59.59375 50.6875 L 59.46875 50.6875 L 59.46875 50.59375 z M 76.8125 50.59375 L 76.90625 50.65625 L 76.90625 50.71875 L 76.84375 50.75 L 76.8125 50.59375 z M 62.65625 50.65625 L 62.9375 50.65625 L 62.90625 50.84375 L 62.9375 50.875 L 62.625 50.84375 L 62.625 50.6875 L 62.65625 50.65625 z M 55.125 50.6875 L 55 50.8125 C 55.009237 50.908945 55.059923 51.03407 55.1875 51.15625 C 55.329868 51.142612 55.423334 51.094052 55.4375 51 C 55.258964 50.878068 55.163287 50.760983 55.15625 50.6875 L 55.125 50.6875 z M 44.125 50.71875 L 44.125 50.75 L 44.09375 50.8125 L 44.125 51.125 L 44.1875 51.125 C 44.1809 51.056116 44.220896 50.966011 44.3125 50.90625 C 44.30062 50.782256 44.245728 50.721091 44.125 50.71875 z M 60.09375 50.8125 L 60.25 50.8125 L 60.28125 50.90625 L 60.25 50.90625 C 60.154626 50.878312 60.096828 50.844649 60.09375 50.8125 z M 45.96875 50.84375 C 45.971828 50.875901 45.93208 50.891963 45.84375 50.9375 L 45.84375 50.875 L 45.96875 50.84375 z M 45.21875 50.9375 L 45.25 51.03125 L 45.21875 51.03125 L 45.1875 51.09375 L 45.09375 51.09375 L 45.21875 50.9375 z M 61.28125 51.03125 L 61.3125 51.0625 L 61.25 51.5 C 61.028618 51.414614 60.891717 51.268267 60.875 51.09375 L 61 51.15625 L 61.28125 51.03125 z M 45.4375 51.0625 L 45.53125 51.0625 L 45.5625 51.09375 C 45.569099 51.16264 45.61861 51.194103 45.6875 51.1875 L 45.6875 51.25 C 45.518838 51.182738 45.441019 51.130493 45.4375 51.09375 L 45.4375 51.0625 z M 36.625 51.125 L 36.75 51.125 C 36.84625 51.162129 36.913582 51.220461 36.96875 51.3125 L 36.90625 51.4375 L 36.84375 51.46875 L 36.8125 51.25 C 36.757387 51.255284 36.698095 51.210694 36.625 51.125 z M 56.59375 51.1875 L 56.625 51.1875 L 56.6875 51.25 C 56.691456 51.291335 56.648013 51.336007 56.53125 51.375 L 56.53125 51.34375 L 56.59375 51.1875 z M 57.15625 51.25 L 57.09375 51.3125 L 57.09375 51.46875 L 57.1875 51.53125 L 57.25 51.53125 L 57.375 51.375 L 57.375 51.28125 L 57.1875 51.25 L 57.15625 51.25 z M 60.375 51.25 L 60.40625 51.25 C 60.412408 51.314296 60.552865 51.388222 60.8125 51.4375 L 60.84375 51.46875 L 60.84375 51.5 L 60.8125 51.53125 L 60.78125 51.53125 C 60.546778 51.502734 60.410721 51.412234 60.375 51.28125 L 60.375 51.25 z M 45.375 51.28125 C 45.267664 51.370325 45.208629 51.456875 45.21875 51.5625 L 45.15625 51.59375 C 45.147449 51.501903 45.096444 51.459513 45 51.46875 L 45 51.40625 C 44.995599 51.360328 45.120014 51.328855 45.375 51.28125 z M 63.875 51.28125 L 63.9375 51.28125 L 63.96875 51.46875 L 63.875 51.46875 L 63.875 51.28125 z M 45.78125 51.3125 L 45.78125 51.34375 L 45.8125 51.375 L 45.6875 51.40625 L 45.65625 51.34375 L 45.78125 51.3125 z M 62.96875 51.34375 L 63.0625 51.34375 L 63.15625 51.40625 L 62.96875 51.40625 L 62.96875 51.34375 z M 36.28125 51.40625 L 36.21875 51.5 L 36.21875 51.4375 L 36.28125 51.40625 z M 54.03125 51.4375 L 54.125 51.59375 L 54.09375 51.59375 L 54.03125 51.65625 L 53.875 51.59375 C 53.879784 51.546947 53.930019 51.493547 54.03125 51.4375 z M 44.5 51.46875 C 44.599524 51.49166 44.696154 51.546738 44.75 51.625 L 44.625 51.625 C 44.510185 51.636003 44.45731 51.693097 44.46875 51.8125 L 44.4375 51.84375 C 44.4309 51.774865 44.385982 51.742962 44.3125 51.75 L 44.3125 51.625 L 44.34375 51.59375 L 44.46875 51.625 C 44.514676 51.620602 44.5088 51.560603 44.5 51.46875 z M 56.3125 51.53125 L 56.34375 51.5625 L 56.34375 51.65625 L 56.3125 51.65625 L 56.21875 51.59375 L 56.21875 51.5625 L 56.3125 51.53125 z M 46.09375 51.5625 L 46.09375 51.71875 C 45.914637 51.735913 45.812884 51.782272 45.8125 51.875 L 45.78125 51.875 L 45.78125 51.84375 C 45.772449 51.751902 45.889089 51.65163 46.09375 51.5625 z M 51.125 51.5625 L 50.90625 51.59375 L 50.78125 51.71875 C 50.774204 51.645272 50.76467 51.620602 50.71875 51.625 L 50.40625 51.65625 L 50.40625 51.6875 L 50.4375 51.71875 L 50.4375 51.75 L 50.40625 51.78125 L 50.375 51.78125 L 50.21875 51.65625 L 49.03125 51.78125 L 48.9375 51.875 L 48.78125 51.8125 C 48.705812 51.847537 48.663424 51.898545 48.65625 51.96875 L 48.6875 52 L 48.4375 52.15625 L 48.40625 52.09375 C 48.493505 52.085392 48.55078 51.980472 48.5625 51.8125 L 47.96875 51.875 C 47.872302 51.884242 47.715987 51.960634 47.5 52.125 L 47.4375 52.0625 L 47.46875 52.03125 L 47.4375 51.9375 L 47 51.96875 L 46.9375 52.0625 L 46.9375 52.3125 L 47.1875 52.625 L 47.15625 52.625 L 47 52.53125 L 46.96875 52.53125 L 47.03125 53 L 47.0625 53.03125 L 47.03125 53.0625 L 47.03125 53.09375 L 47.125 53.1875 L 47.0625 53.3125 L 47.09375 53.78125 L 47.1875 53.8125 L 48.5625 53.6875 L 48.5625 53.65625 L 48.5 53.625 L 48.4375 53.625 L 48.4375 53.59375 L 48.5 53.59375 L 48.53125 53.59375 L 48.625 53.59375 L 48.625 53.6875 L 49.1875 53.625 L 49.375 53.46875 L 49.25 53.28125 C 49.449869 53.238928 49.574284 53.176206 49.625 53.125 L 49.875 53.21875 L 49.875 53.3125 C 49.806106 53.319101 49.774205 53.364021 49.78125 53.4375 L 49.78125 53.46875 L 49.78125 53.5 L 49.875 53.5625 L 50.34375 53.53125 L 50.34375 53.5 C 50.339344 53.454076 50.318883 53.430901 50.25 53.4375 L 50.34375 53.28125 L 50.5 53.25 L 50.5 53.1875 L 50.71875 53.15625 C 50.730184 53.275656 50.795123 53.326141 50.9375 53.3125 L 51 53.25 L 50.96875 53 L 50.875 53 L 50.90625 52.96875 L 50.875 52.75 L 50.84375 52.71875 L 50.84375 52.6875 C 50.915218 52.611134 50.97154 52.568222 51.03125 52.5625 L 51.03125 52.53125 L 51 52.5 L 51.03125 52.46875 L 51.03125 52.4375 L 50.9375 52.34375 C 50.945551 52.282729 50.997986 52.221042 51.09375 52.15625 L 51.25 52.1875 L 51.25 52.375 C 51.257473 52.453074 51.297744 52.544344 51.375 52.625 L 51.375 52.6875 C 51.380273 52.742611 51.332238 52.787724 51.21875 52.8125 L 51.21875 52.875 L 51.3125 52.875 C 51.319093 52.943889 51.283938 52.990761 51.1875 53 L 51.21875 53.34375 L 51.09375 53.34375 L 51.09375 53.375 L 51.15625 53.4375 L 51.625 53.40625 C 51.618393 53.337363 51.653548 53.290491 51.75 53.28125 L 51.78125 53.25 L 51.75 53.03125 L 51.6875 52.9375 L 51.65625 52.8125 L 51.78125 52.78125 L 51.75 52.5 L 51.5 52.34375 C 51.493393 52.274864 51.466845 52.241202 51.375 52.25 L 51.375 52.1875 L 51.5 52.1875 L 51.40625 51.84375 C 51.360317 51.848152 51.337143 51.868615 51.34375 51.9375 C 51.251891 51.946302 51.196293 51.904352 51.1875 51.8125 L 51.15625 51.78125 L 51.1875 51.75 L 51.21875 51.75 L 51.21875 51.65625 L 51.125 51.5625 z M 53.5 51.5625 L 53.59375 51.5625 C 53.703206 51.552015 53.776688 51.581794 53.8125 51.65625 C 53.63798 51.672972 53.520377 51.661319 53.5 51.59375 L 53.5 51.5625 z M 61.25 51.59375 L 61.40625 51.625 L 61.4375 51.65625 L 61.25 51.65625 L 61.25 51.59375 z M 53.15625 51.71875 L 53.25 51.71875 C 53.257039 51.792232 53.270268 51.819542 53.34375 51.8125 L 53.34375 51.84375 L 53.34375 52.03125 L 53.375 52.0625 C 53.315295 52.068221 53.285787 52.120989 53.28125 52.21875 C 53.127632 52.066621 53.014675 51.995601 52.96875 52 C 53.095527 51.871989 53.161089 51.769269 53.15625 51.71875 z M 54.375 51.71875 L 54.5 51.71875 L 54.5625 51.875 L 54.5625 52 L 54.53125 52 C 54.522448 51.908151 54.463155 51.863561 54.34375 51.875 L 54.375 51.71875 z M 44.90625 51.75 L 44.96875 51.75 L 44.90625 51.8125 L 44.84375 51.8125 L 44.90625 51.75 z M 46.25 51.75 L 46.34375 51.75 L 46.3125 51.90625 L 46.21875 51.90625 L 46.25 51.75 z M 36.71875 51.8125 L 36.78125 51.8125 L 36.8125 51.90625 L 36.78125 51.9375 L 36.75 51.96875 L 36.71875 51.8125 z M 49.90625 51.84375 L 50 51.90625 L 50 51.96875 L 49.9375 51.96875 L 49.90625 51.84375 z M 49.5 51.875 L 49.5625 51.875 L 49.5625 51.90625 L 49.46875 51.9375 L 49.46875 51.90625 L 49.5 51.875 z M 51.625 51.90625 L 51.5625 52 L 51.5625 52.125 L 51.71875 52.125 L 51.6875 51.90625 L 51.625 51.90625 z M 35.53125 51.9375 L 35.6875 51.9375 L 35.71875 52.03125 L 35.53125 51.96875 L 35.53125 51.9375 z M 61.375 51.96875 L 61.5 51.96875 L 61.5 52.03125 L 61.3125 52.0625 L 61.375 51.96875 z M 48.8125 52.03125 L 48.84375 52.03125 L 48.84375 52.21875 L 48.78125 52.15625 L 48.8125 52.03125 z M 54.03125 52.03125 L 54.21875 52.0625 L 54.25 52.1875 L 54.15625 52.21875 L 54 52.1875 L 53.96875 52.1875 L 53.9375 52.15625 L 53.90625 52.125 L 53.90625 52.09375 L 54.03125 52.03125 z M 36.4375 52.0625 L 36.5625 52.15625 L 36.5625 52.1875 L 36.53125 52.1875 L 36.40625 52.125 L 36.40625 52.09375 L 36.4375 52.0625 z M 35.96875 52.09375 L 36.125 52.09375 L 36.125 52.15625 L 36 52.1875 L 35.96875 52.09375 z M 49.28125 52.09375 L 49.40625 52.09375 L 49.34375 52.1875 L 49.28125 52.09375 z M 60.53125 52.09375 L 60.59375 52.09375 L 60.625 52.25 L 60.53125 52.25 L 60.53125 52.09375 z M 45.09375 52.21875 L 45.125 52.21875 L 45.125 52.25 L 45.09375 52.375 L 45 52.375 C 44.995599 52.329077 45.02486 52.287852 45.09375 52.28125 L 45.09375 52.21875 z M 48.90625 52.28125 L 48.96875 52.28125 L 49 52.3125 L 49 52.40625 L 48.96875 52.40625 C 48.962146 52.337364 48.952171 52.308102 48.90625 52.3125 L 48.90625 52.28125 z M 44.90625 52.375 L 44.84375 52.46875 L 44.75 52.46875 L 44.8125 52.40625 L 44.90625 52.375 z M 36.4375 52.40625 L 36.46875 52.40625 L 36.59375 52.4375 L 36.59375 52.46875 L 36.34375 52.5 L 36.34375 52.4375 L 36.4375 52.40625 z M 48.65625 52.4375 L 48.78125 52.53125 L 48.8125 52.53125 L 48.8125 52.59375 L 48.6875 52.59375 L 48.65625 52.4375 z M 49.5 52.4375 L 49.59375 52.4375 L 49.59375 52.65625 L 49.5625 52.6875 L 49.5625 52.71875 L 49.6875 52.71875 C 49.691015 52.755491 49.605835 52.806251 49.46875 52.875 L 49.46875 52.84375 L 49.5 52.78125 L 49.5 52.75 L 49.46875 52.71875 L 49.5625 52.6875 C 49.537277 52.569416 49.497199 52.494282 49.4375 52.5 L 49.5 52.4375 z M 53.28125 52.4375 L 53.3125 52.4375 L 53.34375 52.46875 L 53.28125 52.53125 L 53.28125 52.4375 z M 47.75 52.46875 L 47.8125 52.46875 L 47.8125 52.53125 L 47.8125 52.71875 L 47.78125 52.71875 L 47.71875 52.5 L 47.75 52.46875 z M 49.90625 52.46875 L 50.03125 52.59375 L 50.09375 52.59375 L 50.3125 52.46875 L 50.46875 52.5 L 50.375 52.625 L 50.3125 52.5625 L 50.15625 52.59375 L 49.875 52.90625 L 49.84375 52.875 L 49.84375 52.84375 C 49.940189 52.834511 49.979744 52.771064 49.96875 52.65625 L 49.90625 52.46875 z M 54.6875 52.5 L 54.84375 52.5 L 54.84375 52.625 L 54.71875 52.65625 L 54.6875 52.5 z M 48.84375 52.5625 L 48.875 52.5625 L 48.875 52.59375 L 48.875 52.71875 L 48.84375 52.71875 L 48.84375 52.6875 L 48.84375 52.5625 z M 36.03125 52.59375 L 36.03125 52.65625 C 35.96236 52.662852 35.933099 52.704077 35.9375 52.75 L 35.84375 52.75 L 35.8125 52.625 L 35.875 52.65625 L 36.03125 52.59375 z M 53.78125 52.625 C 53.86222 52.644915 53.891781 52.689093 53.90625 52.71875 L 53.875 52.71875 L 53.84375 52.75 L 53.8125 52.78125 L 53.78125 52.625 z M 47.3125 52.65625 L 47.34375 52.65625 L 47.40625 52.71875 C 47.400444 52.900059 47.384393 53.002991 47.34375 53.0625 L 47.5 53.28125 L 47.4375 53.28125 C 47.433097 53.235326 47.381386 53.212151 47.3125 53.21875 L 47.3125 53.09375 L 47.34375 52.9375 L 47.1875 52.90625 L 47.15625 52.9375 L 47.125 52.90625 L 47.15625 52.78125 L 47.3125 52.78125 L 47.34375 52.75 L 47.3125 52.71875 L 47.3125 52.65625 z M 49.03125 52.6875 L 49.09375 52.6875 L 49.15625 53.21875 C 49.093324 53.336011 49.013828 53.399386 48.90625 53.4375 L 48.90625 53.40625 L 49 53.15625 L 48.9375 53.03125 L 49.0625 52.875 L 49.03125 52.6875 z M 48.46875 52.78125 L 48.53125 52.78125 L 48.53125 52.84375 L 48.5 52.875 L 48.4375 52.90625 L 48.4375 52.875 L 48.46875 52.78125 z M 53.96875 52.8125 L 53.96875 52.96875 L 53.875 52.96875 L 53.84375 52.875 L 53.84375 52.84375 L 53.96875 52.8125 z M 48.125 52.84375 L 48.21875 52.84375 L 48.1875 52.875 L 48.15625 52.90625 C 48.11032 52.910651 48.084946 52.970651 48.09375 53.0625 L 48 53.125 L 47.9375 53.09375 L 47.9375 53 L 48.125 52.84375 z M 48.625 52.875 L 48.6875 52.875 L 48.71875 52.96875 L 48.78125 53.15625 L 48.71875 53.15625 L 48.65625 53.09375 L 48.625 52.875 z M 53.78125 52.9375 L 53.84375 53 L 53.875 53.09375 L 53.59375 53.125 L 53.59375 52.96875 L 53.78125 52.9375 z M 45.375 52.96875 L 45.375 53.0625 C 45.30611 53.069101 45.276409 53.074483 45.28125 53.125 L 45.1875 53.15625 L 45.1875 53.09375 L 45.375 52.96875 z M 45.5625 52.96875 C 45.613897 52.973096 45.693513 53.019181 45.75 53.125 L 45.71875 53.3125 L 45.53125 53.3125 L 45.53125 53.28125 C 45.627693 53.272011 45.662849 53.225138 45.65625 53.15625 L 45.65625 53.09375 L 45.5625 53 L 45.5625 52.96875 z M 44.9375 53.15625 L 45.03125 53.15625 L 44.96875 53.21875 L 44.9375 53.25 L 44.9375 53.15625 z M 35.40625 53.21875 L 35.5625 53.21875 L 35.5625 53.28125 L 35.4375 53.375 L 35.40625 53.375 L 35.3125 53.3125 C 35.381389 53.305902 35.41065 53.264677 35.40625 53.21875 z M 49.6875 53.21875 C 49.558902 53.231071 49.483559 53.320663 49.4375 53.46875 L 49.40625 53.46875 L 49.40625 53.53125 L 49.59375 53.59375 L 49.65625 53.59375 C 49.647005 53.497308 49.698193 53.381901 49.78125 53.28125 L 49.6875 53.21875 z M 35.71875 53.25 L 35.75 53.375 L 35.65625 53.40625 L 35.65625 53.5 L 35.53125 53.5 C 35.52421 53.426521 35.564398 53.383802 35.65625 53.375 L 35.625 53.3125 L 35.6875 53.3125 L 35.71875 53.25 z M 50.59375 53.3125 L 50.46875 53.46875 L 50.46875 53.5 L 50.78125 53.46875 L 50.84375 53.40625 L 50.6875 53.3125 L 50.59375 53.3125 z M 37.15625 53.40625 C 37.2503 53.420414 37.301498 53.478939 37.3125 53.59375 L 37.34375 53.625 L 37.28125 53.71875 L 37.25 53.71875 C 37.242518 53.640679 37.16227 53.573866 37.0625 53.5 C 37.131387 53.493401 37.160648 53.452177 37.15625 53.40625 z M 45.34375 53.46875 L 45.34375 53.5625 L 45.25 53.5625 L 45.15625 53.5 L 45.34375 53.46875 z M 36.53125 53.53125 L 36.65625 53.53125 L 36.65625 53.65625 L 36.59375 53.6875 L 36.53125 53.5625 L 36.53125 53.53125 z M 45.96875 53.625 L 46.0625 53.625 L 46.0625 53.6875 L 45.96875 53.6875 L 45.96875 53.625 z M 45 53.65625 L 45.0625 53.78125 L 44.96875 53.84375 L 44.875 53.75 L 45 53.65625 z M 36.40625 53.84375 L 36.5 53.875 L 36.5 53.90625 L 36.4375 54 L 36.46875 54.15625 L 36.8125 54.375 L 36.75 54.0625 L 36.75 54 L 36.8125 53.9375 L 36.875 53.9375 L 36.875 54.03125 L 36.8125 54.03125 L 36.8125 54.0625 L 36.90625 54.28125 C 36.912848 54.350138 36.881387 54.399651 36.8125 54.40625 L 36.90625 54.625 L 36.78125 54.65625 C 36.73546 54.516963 36.689295 54.43134 36.625 54.4375 L 36.625 54.375 L 36.4375 54.40625 C 36.349607 54.456383 36.307659 54.511983 36.3125 54.5625 L 36.25 54.5625 L 36.21875 54.46875 L 36.4375 54.3125 L 36.34375 54.125 L 36.40625 53.84375 z M 36.03125 54.1875 L 36.1875 54.1875 L 36.25 54.21875 L 36.28125 54.28125 C 36.207767 54.288291 36.151849 54.297826 36.15625 54.34375 L 35.96875 54.3125 L 35.96875 54.25 L 36.03125 54.1875 z M 35.28125 54.5 L 35.4375 54.5 C 35.44102 54.53674 35.405864 54.583613 35.3125 54.625 L 35.28125 54.5 z "
       transform="translate(-1.0145179,957.35895)"
       id="text3786" />
    <path
       style="fill:#ffffff;fill-opacity:0.26484019;fill-rule:evenodd;stroke:none"
       d="M 12.09375 12.03125 L 12.09375 20 L 37.65625 20 C 39.815359 22.995797 43.866884 25 48.5 25 C 53.133116 25 57.184641 22.995797 59.34375 20 L 84.09375 20 L 84.09375 12.03125 L 60.375 12.03125 L 36.65625 12.03125 L 12.09375 12.03125 z "
       transform="translate(-1.0145179,957.35895)"
       id="rect3790" />
    <path
       style="font-size:11px;font-style:normal;font-variant:normal;font-weight:bold;font-stretch:normal;text-align:end;line-height:125%;letter-spacing:0px;word-spacing:0px;text-anchor:end;fill:#ff0000;fill-opacity:1;stroke:none;font-family:Helvetica Neue LT Com;-inkscape-font-specification:Helvetica Neue LT Com Bold"
       d="m 20.877569,1035.7682 c -0.311935,0 -0.588506,0.028 -0.832789,0.074 -0.244287,0.046 -0.455473,0.1081 -0.624592,0.1889 -0.169122,0.081 -0.294167,0.1741 -0.384364,0.2834 -0.0902,0.1092 -0.128122,0.2258 -0.128122,0.3509 0,0.122 0.03793,0.2365 0.128122,0.3442 0.0902,0.1076 0.215242,0.2042 0.384364,0.2834 0.169119,0.079 0.380305,0.143 0.624592,0.1889 0.244283,0.046 0.520854,0.068 0.832789,0.068 0.31193,0 0.588501,-0.022 0.832788,-0.068 0.244283,-0.046 0.455468,-0.1097 0.624592,-0.1889 0.169117,-0.079 0.294164,-0.1758 0.384364,-0.2834 0.09019,-0.1077 0.144132,-0.2222 0.144137,-0.3442 -5e-6,-0.1251 -0.05394,-0.2417 -0.144137,-0.3509 -0.0902,-0.1093 -0.215247,-0.2026 -0.384364,-0.2834 -0.169124,-0.081 -0.380309,-0.143 -0.624592,-0.1889 -0.244287,-0.046 -0.520858,-0.074 -0.832788,-0.074 z m -5.877569,0.04 0,1.7005 0.89685,0 0,-0.5466 0.49647,-0.2159 1.217154,0.7625 1.105046,0 -1.713623,-1.0257 1.569487,-0.6748 -1.105048,0 -1.569486,0.7086 0,-0.7086 -0.89685,0 z m 8.151723,0 0,0.3172 1.201138,0 0,1.3833 0.880835,0 0,-1.3833 1.217152,0 0,-0.3172 -3.299125,0 z m 4.436203,0 -1.521442,1.7005 0.89685,0 0.304289,-0.3779 1.505426,0 0.304288,0.3779 0.92888,0 -1.505426,-1.7005 -0.912865,0 z m 2.914762,0 1.569486,0.6748 -1.713623,1.0257 1.105047,0 1.217153,-0.7625 0.49647,0.2159 0,0.5466 0.89685,0 0,-1.7005 -0.89685,0 0,0.7086 -1.569486,-0.7086 -1.105047,0 z m -9.625119,0.2767 c 0.199184,0 0.373428,0.014 0.512485,0.047 0.139052,0.032 0.249876,0.08 0.336319,0.135 0.08644,0.054 0.154596,0.1125 0.192182,0.1822 0.04134,0.07 0.06406,0.1415 0.06406,0.2159 -3e-6,0.071 -0.02273,0.1412 -0.06406,0.2092 -0.03758,0.066 -0.105746,0.1284 -0.192182,0.1822 -0.08644,0.054 -0.197267,0.095 -0.336319,0.1282 -0.139057,0.032 -0.313301,0.047 -0.512485,0.047 -0.199188,0 -0.357418,-0.015 -0.496471,-0.047 -0.139056,-0.034 -0.249881,-0.074 -0.336318,-0.1282 -0.08644,-0.054 -0.15084,-0.1157 -0.192183,-0.1822 -0.03758,-0.068 -0.06406,-0.138 -0.06406,-0.2092 -1e-6,-0.074 0.02647,-0.1462 0.06406,-0.2159 0.04134,-0.07 0.105742,-0.1283 0.192183,-0.1822 0.08644,-0.055 0.197262,-0.1033 0.336318,-0.135 0.139053,-0.033 0.297283,-0.047 0.496471,-0.047 z m 7.142766,0.1417 0.01601,0 0.512485,0.6276 -1.040986,0 0.512486,-0.6276 z"
       id="path3813"
       inkscape:connector-curvature="0" />
    <path
       inkscape:connector-curvature="0"
       id="path3830"
       d="m 42.877569,1035.7682 c -0.311935,0 -0.588506,0.028 -0.832789,0.074 -0.244287,0.046 -0.455473,0.1081 -0.624592,0.1889 -0.169122,0.081 -0.294167,0.1741 -0.384364,0.2834 -0.0902,0.1092 -0.128122,0.2258 -0.128122,0.3509 0,0.122 0.03793,0.2365 0.128122,0.3442 0.0902,0.1076 0.215242,0.2042 0.384364,0.2834 0.169119,0.079 0.380305,0.143 0.624592,0.1889 0.244283,0.046 0.520854,0.068 0.832789,0.068 0.31193,0 0.588501,-0.022 0.832788,-0.068 0.244283,-0.046 0.455468,-0.1097 0.624592,-0.1889 0.169117,-0.079 0.294164,-0.1758 0.384364,-0.2834 0.09019,-0.1077 0.144132,-0.2222 0.144137,-0.3442 -5e-6,-0.1251 -0.05394,-0.2417 -0.144137,-0.3509 -0.0902,-0.1093 -0.215247,-0.2026 -0.384364,-0.2834 -0.169124,-0.081 -0.380309,-0.143 -0.624592,-0.1889 -0.244287,-0.046 -0.520858,-0.074 -0.832788,-0.074 z m -5.877569,0.04 0,1.7005 0.89685,0 0,-0.5466 0.49647,-0.2159 1.217154,0.7625 1.105046,0 -1.713623,-1.0257 1.569487,-0.6748 -1.105048,0 -1.569486,0.7086 0,-0.7086 -0.89685,0 z m 8.151723,0 0,0.3172 1.201138,0 0,1.3833 0.880835,0 0,-1.3833 1.217152,0 0,-0.3172 -3.299125,0 z m 4.436203,0 -1.521442,1.7005 0.89685,0 0.304289,-0.3779 1.505426,0 0.304288,0.3779 0.92888,0 -1.505426,-1.7005 -0.912865,0 z m 2.914762,0 1.569486,0.6748 -1.713623,1.0257 1.105047,0 1.217153,-0.7625 0.49647,0.2159 0,0.5466 0.89685,0 0,-1.7005 -0.89685,0 0,0.7086 -1.569486,-0.7086 -1.105047,0 z m -9.625119,0.2767 c 0.199184,0 0.373428,0.014 0.512485,0.047 0.139052,0.032 0.249876,0.08 0.336319,0.135 0.08644,0.054 0.154596,0.1125 0.192182,0.1822 0.04134,0.07 0.06406,0.1415 0.06406,0.2159 -3e-6,0.071 -0.02273,0.1412 -0.06406,0.2092 -0.03758,0.066 -0.105746,0.1284 -0.192182,0.1822 -0.08644,0.054 -0.197267,0.095 -0.336319,0.1282 -0.139057,0.032 -0.313301,0.047 -0.512485,0.047 -0.199188,0 -0.357418,-0.015 -0.496471,-0.047 -0.139056,-0.034 -0.249881,-0.074 -0.336318,-0.1282 -0.08644,-0.054 -0.15084,-0.1157 -0.192183,-0.1822 -0.03758,-0.068 -0.06406,-0.138 -0.06406,-0.2092 -10e-7,-0.074 0.02647,-0.1462 0.06406,-0.2159 0.04134,-0.07 0.105742,-0.1283 0.192183,-0.1822 0.08644,-0.055 0.197262,-0.1033 0.336318,-0.135 0.139053,-0.033 0.297283,-0.047 0.496471,-0.047 z m 7.142766,0.1417 0.01601,0 0.512485,0.6276 -1.040986,0 0.512486,-0.6276 z"
       style="font-size:11px;font-style:normal;font-variant:normal;font-weight:bold;font-stretch:normal;text-align:end;line-height:125%;letter-spacing:0px;word-spacing:0px;text-anchor:end;fill:#ff0000;fill-opacity:1;stroke:none;font-family:Helvetica Neue LT Com;-inkscape-font-specification:Helvetica Neue LT Com Bold" />
    <path
       style="font-size:11px;font-style:normal;font-variant:normal;font-weight:bold;font-stretch:normal;text-align:end;line-height:125%;letter-spacing:0px;word-spacing:0px;text-anchor:end;fill:#ff0000;fill-opacity:1;stroke:none;font-family:Helvetica Neue LT Com;-inkscape-font-specification:Helvetica Neue LT Com Bold"
       d="m 64.877569,1035.7682 c -0.311935,0 -0.588506,0.028 -0.832789,0.074 -0.244287,0.046 -0.455473,0.1081 -0.624592,0.1889 -0.169122,0.081 -0.294167,0.1741 -0.384364,0.2834 -0.0902,0.1092 -0.128122,0.2258 -0.128122,0.3509 0,0.122 0.03793,0.2365 0.128122,0.3442 0.0902,0.1076 0.215242,0.2042 0.384364,0.2834 0.169119,0.079 0.380305,0.143 0.624592,0.1889 0.244283,0.046 0.520854,0.068 0.832789,0.068 0.31193,0 0.588501,-0.022 0.832788,-0.068 0.244283,-0.046 0.455468,-0.1097 0.624592,-0.1889 0.169117,-0.079 0.294164,-0.1758 0.384364,-0.2834 0.09019,-0.1077 0.144132,-0.2222 0.144137,-0.3442 -5e-6,-0.1251 -0.05394,-0.2417 -0.144137,-0.3509 -0.0902,-0.1093 -0.215247,-0.2026 -0.384364,-0.2834 -0.169124,-0.081 -0.380309,-0.143 -0.624592,-0.1889 -0.244287,-0.046 -0.520858,-0.074 -0.832788,-0.074 z m -5.877569,0.04 0,1.7005 0.89685,0 0,-0.5466 0.49647,-0.2159 1.217154,0.7625 1.105046,0 -1.713623,-1.0257 1.569487,-0.6748 -1.105048,0 -1.569486,0.7086 0,-0.7086 -0.89685,0 z m 8.151723,0 0,0.3172 1.201138,0 0,1.3833 0.880835,0 0,-1.3833 1.217152,0 0,-0.3172 -3.299125,0 z m 4.436203,0 -1.521442,1.7005 0.89685,0 0.304289,-0.3779 1.505426,0 0.304288,0.3779 0.92888,0 -1.505426,-1.7005 -0.912865,0 z m 2.914762,0 1.569486,0.6748 -1.713623,1.0257 1.105047,0 1.217153,-0.7625 0.49647,0.2159 0,0.5466 0.89685,0 0,-1.7005 -0.89685,0 0,0.7086 -1.569486,-0.7086 -1.105047,0 z m -9.625119,0.2767 c 0.199184,0 0.373428,0.014 0.512485,0.047 0.139052,0.032 0.249876,0.08 0.336319,0.135 0.08644,0.054 0.154596,0.1125 0.192182,0.1822 0.04134,0.07 0.06406,0.1415 0.06406,0.2159 -3e-6,0.071 -0.02273,0.1412 -0.06406,0.2092 -0.03758,0.066 -0.105746,0.1284 -0.192182,0.1822 -0.08644,0.054 -0.197267,0.095 -0.336319,0.1282 -0.139057,0.032 -0.313301,0.047 -0.512485,0.047 -0.199188,0 -0.357418,-0.015 -0.496471,-0.047 -0.139056,-0.034 -0.249881,-0.074 -0.336318,-0.1282 -0.08644,-0.054 -0.15084,-0.1157 -0.192183,-0.1822 -0.03758,-0.068 -0.06406,-0.138 -0.06406,-0.2092 -10e-7,-0.074 0.02647,-0.1462 0.06406,-0.2159 0.04134,-0.07 0.105742,-0.1283 0.192183,-0.1822 0.08644,-0.055 0.197262,-0.1033 0.336318,-0.135 0.139053,-0.033 0.297283,-0.047 0.496471,-0.047 z m 7.142766,0.1417 0.01601,0 0.512485,0.6276 -1.040986,0 0.512486,-0.6276 z"
       id="path3832"
       inkscape:connector-curvature="0" />
    <path
       style="fill:none;stroke:#ffffff;stroke-width:1px;stroke-linecap:butt;stroke-linejoin:miter;stroke-opacity:0.20091324"
       d="m 56.014518,65.003153 20,0"
       id="path3834"
       inkscape:connector-curvature="0"
       transform="translate(-1.0145179,957.35895)" />
    <path
       style="fill:none;stroke:#ffffff;stroke-width:1px;stroke-linecap:butt;stroke-linejoin:miter;stroke-opacity:0.20091324"
       d="m 56.014518,70.003153 20,0"
       id="path3836"
       inkscape:connector-curvature="0"
       transform="translate(-1.0145179,957.35895)" />
    <path
       style="fill:none;stroke:#ffffff;stroke-width:1px;stroke-linecap:butt;stroke-linejoin:miter;stroke-opacity:0.20091324"
       d="m 56.014518,75.003153 20,0"
       id="path3838"
       inkscape:connector-curvature="0"
       transform="translate(-1.0145179,957.35895)" />
  </g>
</svg>
