<?xml version="1.0" encoding="UTF-8" standalone="no"?>
<!-- Created with Inkscape (http://www.inkscape.org/) -->

<svg
   xmlns:dc="http://purl.org/dc/elements/1.1/"
   xmlns:cc="http://creativecommons.org/ns#"
   xmlns:rdf="http://www.w3.org/1999/02/22-rdf-syntax-ns#"
   xmlns:svg="http://www.w3.org/2000/svg"
   xmlns="http://www.w3.org/2000/svg"
   xmlns:sodipodi="http://sodipodi.sourceforge.net/DTD/sodipodi-0.dtd"
   xmlns:inkscape="http://www.inkscape.org/namespaces/inkscape"
   width="96"
   height="96.000053"
   id="svg2"
   version="1.1"
   inkscape:version="0.48.4 r9939"
   sodipodi:docname="catfish.svg">
  <defs
     id="defs4">
    <filter
       id="filter3174"
       color-interpolation-filters="sRGB">
      <feGaussianBlur
         stdDeviation="1.71"
         id="feGaussianBlur3176" />
    </filter>
    <linearGradient
       gradientTransform="scale(1.0058652,0.994169)"
       gradientUnits="userSpaceOnUse"
       id="ButtonShadow"
       y2="7.0165396"
       x2="45.447727"
       y1="92.539597"
       x1="45.447727">
      <stop
         offset="0"
         style="stop-color:#000000;stop-opacity:1"
         id="stop3750" />
      <stop
         offset="1"
         style="stop-color:#000000;stop-opacity:0.58823532"
         id="stop3752" />
    </linearGradient>
  </defs>
  <sodipodi:namedview
     id="base"
     pagecolor="#ffffff"
     bordercolor="#666666"
     borderopacity="1.0"
     inkscape:pageopacity="0.0"
     inkscape:pageshadow="2"
     inkscape:zoom="35.4375"
     inkscape:cx="-0.66313936"
     inkscape:cy="8.0001034"
     inkscape:document-units="px"
     inkscape:current-layer="layer1"
     showgrid="true"
     inkscape:snap-page="true"
     inkscape:snap-global="true"
     inkscape:snap-object-midpoints="true"
     inkscape:object-nodes="true"
     inkscape:window-width="1305"
     inkscape:window-height="744"
     inkscape:window-x="61"
     inkscape:window-y="24"
     inkscape:window-maximized="1"
     inkscape:snap-nodes="true"
     inkscape:snap-bbox="true"
     inkscape:object-paths="true"
     inkscape:snap-center="true"
     fit-margin-top="0"
     fit-margin-left="0"
     fit-margin-right="0"
     fit-margin-bottom="0"
     inkscape:snap-grids="true"
     inkscape:snap-to-guides="true">
    <inkscape:grid
       type="xygrid"
       id="grid2995"
       empspacing="5"
       visible="true"
       enabled="true"
       snapvisiblegridlinesonly="true"
       originx="1.0145179px"
       originy="0.9969px" />
  </sodipodi:namedview>
  <metadata
     id="metadata7">
    <rdf:RDF>
      <cc:Work
         rdf:about="">
        <dc:format>image/svg+xml</dc:format>
        <dc:type
           rdf:resource="http://purl.org/dc/dcmitype/StillImage" />
        <dc:title />
      </cc:Work>
    </rdf:RDF>
  </metadata>
  <g
     inkscape:label="Layer 1"
     inkscape:groupmode="layer"
     id="layer1"
     transform="translate(1.0145179,-957.35895)">
    <g
       id="layer2"
       style="display:none"
       transform="translate(68.37696,846.74396)">
      <rect
         width="86"
         height="85"
         rx="6"
         ry="6"
         x="5"
         y="7"
         id="rect3745"
         style="opacity:0.9;fill:url(#ButtonShadow);fill-opacity:1;fill-rule:nonzero;stroke:none;filter:url(#filter3174)" />
    </g>
    <path
       style="fill:#ffffff;fill-opacity:0;fill-rule:nonzero;stroke:none"
       d="m 27.087057,957.3589 c -8.082838,0 -17.5919609,0.9372 -22.5234488,6.1644 -4.93147742,5.2272 -5.5781261,14.4462 -5.5781261,21.9372 0,13.266 0,26.5314 0,39.7974 0,7.4904 0.64664868,16.71 5.5781261,21.9372 4.9314879,5.2272 14.4406108,6.1638 22.5234488,6.1638 13.265634,0 26.531262,0 39.796885,0 8.082798,0 17.591934,-0.9366 22.523412,-6.1638 4.93149,-5.2272 5.578128,-14.4468 5.578128,-21.9372 0,-13.266 0,-26.5314 0,-39.7974 0,-7.491 -0.646638,-16.71 -5.578128,-21.9372 -4.931478,-5.2272 -14.440614,-6.1644 -22.523412,-6.1644 -13.265623,0 -26.531251,0 -39.796885,0 z"
       id="path3763"
       inkscape:connector-curvature="0"
       sodipodi:nodetypes="csccsccsccscc" />
    <path
       style="fill:#cccccc;fill-opacity:1;fill-rule:evenodd;stroke:none"
       d="m 5.0792321,963.3901 0,84 83.9999999,0 0,-84 -83.9999999,0 z m 5.9999999,6 72,0 0,72 -72,0 0,-72 z"
       id="rect2993"
       inkscape:connector-curvature="0" />
    <path
       style="fill:#262626;fill-opacity:1;fill-rule:evenodd;stroke:none"
       d="m 83.079232,969.3901 0,72 -72,0 0,-72 z"
       id="rect2995"
       inkscape:connector-curvature="0"
       sodipodi:nodetypes="ccccc" />
    <path
       style="fill:#cccccc;fill-opacity:1;fill-rule:evenodd;stroke:none"
       d="m 55.985482,975.3592 c -11.597979,0 -21,9.40202 -21,21 0,11.598 9.402021,21 21,21 11.597983,0 21.000001,-9.402 21.000001,-21 0,-11.59798 -9.402018,-21 -21.000001,-21 z m 0,6 c 8.284279,0 15.000001,6.71572 15.000001,15 0,8.2843 -6.715722,15 -15.000001,15 -8.284279,0 -15,-6.7157 -15,-15 0,-8.28428 6.715721,-15 15,-15 z"
       id="path2996"
       inkscape:connector-curvature="0" />
    <path
       style="fill:#cccccc;fill-opacity:1;fill-rule:evenodd;stroke:none"
       d="m 17.07259,1029.3781 0,6 6,0 18,-18 -6,-6 z"
       id="rect3001"
       inkscape:connector-curvature="0"
       sodipodi:nodetypes="cccccc" />
    <rect
       style="fill:#cccccc;fill-opacity:1;fill-rule:evenodd;stroke:none"
       id="rect3004"
       width="6"
       height="6"
       x="47.07259"
       y="987.37811" />
  </g>
</svg>
