<?xml version="1.0" encoding="UTF-8" standalone="no"?>
<!-- Created with Inkscape (http://www.inkscape.org/) -->

<svg
   xmlns:dc="http://purl.org/dc/elements/1.1/"
   xmlns:cc="http://creativecommons.org/ns#"
   xmlns:rdf="http://www.w3.org/1999/02/22-rdf-syntax-ns#"
   xmlns:svg="http://www.w3.org/2000/svg"
   xmlns="http://www.w3.org/2000/svg"
   xmlns:sodipodi="http://sodipodi.sourceforge.net/DTD/sodipodi-0.dtd"
   xmlns:inkscape="http://www.inkscape.org/namespaces/inkscape"
   width="96"
   height="96"
   id="svg2"
   version="1.1"
   inkscape:version="0.48.4 r9939"
   sodipodi:docname="distribute-horizontal-equal.svg">
  <defs
     id="defs4" />
  <sodipodi:namedview
     id="base"
     pagecolor="#ffffff"
     bordercolor="#666666"
     borderopacity="1.0"
     inkscape:pageopacity="0.0"
     inkscape:pageshadow="2"
     inkscape:zoom="5.3494909"
     inkscape:cx="6.1669212"
     inkscape:cy="13.949435"
     inkscape:document-units="px"
     inkscape:current-layer="layer1"
     showgrid="false"
     inkscape:window-width="1305"
     inkscape:window-height="744"
     inkscape:window-x="61"
     inkscape:window-y="24"
     inkscape:window-maximized="1"
     fit-margin-top="0"
     fit-margin-left="0"
     fit-margin-right="0"
     fit-margin-bottom="0" />
  <metadata
     id="metadata7">
    <rdf:RDF>
      <cc:Work
         rdf:about="">
        <dc:format>image/svg+xml</dc:format>
        <dc:type
           rdf:resource="http://purl.org/dc/dcmitype/StillImage" />
        <dc:title />
      </cc:Work>
    </rdf:RDF>
  </metadata>
  <g
     inkscape:label="Capa 1"
     inkscape:groupmode="layer"
     id="layer1"
     transform="translate(0,-956.36218)">
    <rect
       style="fill:none;stroke:none"
       id="rect2987"
       width="96"
       height="96"
       x="0"
       y="956.36218" />
    <path
       sodipodi:nodetypes="sssssssss"
       inkscape:connector-curvature="0"
       id="path1620"
       d="m 11.703192,1034.7446 17.6128,0 c 0.609,0 1.0994,-0.4904 1.0994,-1.0994 l 0,-43.71538 c 0,-0.6092 -0.4904,-1.0994 -1.0994,-1.0994 l -17.6128,0 c -0.609,0 -1.0994,0.4902 -1.0994,1.0994 l 0,43.71538 c 0,0.609 0.4904,1.0994 1.0994,1.0994 z"
       style="fill:#4d4d4d;fill-opacity:1;stroke:none" />
    <path
       style="fill:#4d4d4d;fill-opacity:1;stroke:none"
       d="m 66.684008,1034.7446 17.6128,0 c 0.609,0 1.0994,-0.4904 1.0994,-1.0994 l 0,-43.71538 c 0,-0.6092 -0.4904,-1.0994 -1.0994,-1.0994 l -17.6128,0 c -0.609,0 -1.0994,0.4902 -1.0994,1.0994 l 0,43.71538 c 0,0.609 0.4904,1.0994 1.0994,1.0994 z"
       id="rect4054"
       inkscape:connector-curvature="0"
       sodipodi:nodetypes="sssssssss" />
    <rect
       style="fill:#5fbcd3;fill-opacity:1;stroke:none"
       id="rect4039"
       width="59.724022"
       height="4.1998992"
       x="981.92566"
       y="-65.58461"
       ry="0"
       transform="matrix(0,1,-1,0,0,0)" />
    <rect
       transform="matrix(0,1,-1,0,0,0)"
       ry="0"
       y="-34.615292"
       x="981.92566"
       height="4.1998992"
       width="59.724022"
       id="rect1618"
       style="fill:#5fbcd3;fill-opacity:1;stroke:none" />
    <path
       style="fill:#5fbcd3;fill-opacity:1;stroke:none"
       d="m 25.597142,967.07482 10.3125,5.9374 -10.3125,6 0,-3.875 -7.1875,0 0,-4.1874 7.1875,0 0,-3.875 z"
       id="path1629"
       inkscape:connector-curvature="0" />
    <path
       id="path1634"
       d="m 70.402858,967.07482 -10.3125,5.9374 10.3125,6 0,-3.875 7.1875,0 0,-4.1874 -7.1875,0 0,-3.875 z"
       style="fill:#5fbcd3;fill-opacity:1;stroke:none"
       inkscape:connector-curvature="0" />
  </g>
</svg>
