<?xml version="1.0" encoding="UTF-8" standalone="no"?>
<!-- Created with Inkscape (http://www.inkscape.org/) -->

<svg
   xmlns:dc="http://purl.org/dc/elements/1.1/"
   xmlns:cc="http://creativecommons.org/ns#"
   xmlns:rdf="http://www.w3.org/1999/02/22-rdf-syntax-ns#"
   xmlns:svg="http://www.w3.org/2000/svg"
   xmlns="http://www.w3.org/2000/svg"
   xmlns:sodipodi="http://sodipodi.sourceforge.net/DTD/sodipodi-0.dtd"
   xmlns:inkscape="http://www.inkscape.org/namespaces/inkscape"
   width="96"
   height="96"
   id="svg2"
   version="1.1"
   inkscape:version="0.48.4 r9939"
   sodipodi:docname="distribute-vertical-center.svg">
  <defs
     id="defs4" />
  <sodipodi:namedview
     id="base"
     pagecolor="#ffffff"
     bordercolor="#666666"
     borderopacity="1.0"
     inkscape:pageopacity="0.0"
     inkscape:pageshadow="2"
     inkscape:zoom="5.913695"
     inkscape:cx="9.0663268"
     inkscape:cy="41.496705"
     inkscape:document-units="px"
     inkscape:current-layer="layer1"
     showgrid="false"
     inkscape:window-width="1305"
     inkscape:window-height="744"
     inkscape:window-x="61"
     inkscape:window-y="24"
     inkscape:window-maximized="1"
     fit-margin-top="0"
     fit-margin-left="0"
     fit-margin-right="0"
     fit-margin-bottom="0" />
  <metadata
     id="metadata7">
    <rdf:RDF>
      <cc:Work
         rdf:about="">
        <dc:format>image/svg+xml</dc:format>
        <dc:type
           rdf:resource="http://purl.org/dc/dcmitype/StillImage" />
        <dc:title />
      </cc:Work>
    </rdf:RDF>
  </metadata>
  <g
     inkscape:label="Capa 1"
     inkscape:groupmode="layer"
     id="layer1"
     transform="translate(0,-956.36218)">
    <rect
       style="fill:none;stroke:none"
       id="rect2987"
       width="96"
       height="96"
       x="0"
       y="956.36218" />
    <g
       id="g1636"
       transform="matrix(0,2,-2,0,2107.3934,956.36222)">
      <path
         style="fill:#4d4d4d;fill-opacity:1;stroke:none"
         d="m 5.8515718,1044.8879 8.8064002,0 c 0.3045,0 0.5497,-0.2452 0.5497,-0.5497 l 0,-21.8577 c 0,-0.3046 -0.2452,-0.5497 -0.5497,-0.5497 l -8.8064002,0 c -0.3045,0 -0.5497,0.2451 -0.5497,0.5497 l 0,21.8577 c 0,0.3045 0.2452,0.5497 0.5497,0.5497 z"
         id="path1620"
         inkscape:connector-curvature="0"
         sodipodi:nodetypes="sssssssss" />
      <path
         sodipodi:nodetypes="sssssssss"
         inkscape:connector-curvature="0"
         id="rect4054"
         d="m 33.34198,1044.8879 8.8064,0 c 0.3045,0 0.5497,-0.2452 0.5497,-0.5497 l 0,-21.8577 c 0,-0.3046 -0.2452,-0.5497 -0.5497,-0.5497 l -8.8064,0 c -0.3045,0 -0.5497,0.2451 -0.5497,0.5497 l 0,21.8577 c 0,0.3045 0.2452,0.5497 0.5497,0.5497 z"
         style="fill:#4d4d4d;fill-opacity:1;stroke:none" />
      <rect
         transform="matrix(0,1,-1,0,0,0)"
         ry="0"
         y="-38.795155"
         x="1018.4784"
         height="2.0999496"
         width="29.862011"
         id="rect4039"
         style="fill:#5fbcd3;fill-opacity:1;stroke:none" />
      <rect
         style="fill:#5fbcd3;fill-opacity:1;stroke:none"
         id="rect1618"
         width="29.862011"
         height="2.0999496"
         x="1018.4784"
         y="-11.304747"
         ry="0"
         transform="matrix(0,1,-1,0,0,0)" />
      <path
         inkscape:connector-curvature="0"
         id="path1629"
         d="m 14.361047,1011.053 -5.15625,2.9687 5.15625,3 0,-1.9375 3.59375,0 0,-2.0937 -3.59375,0 0,-1.9375 z"
         style="fill:#5fbcd3;fill-opacity:1;stroke:none" />
      <path
         inkscape:connector-curvature="0"
         style="fill:#5fbcd3;fill-opacity:1;stroke:none"
         d="m 33.638905,1011.053 5.15625,2.9687 -5.15625,3 0,-1.9375 -3.59375,0 0,-2.0937 3.59375,0 0,-1.9375 z"
         id="path1634" />
    </g>
  </g>
</svg>
