<?xml version="1.0" encoding="UTF-8" standalone="no"?>
<!-- Created with Inkscape (http://www.inkscape.org/) -->

<svg
   xmlns:dc="http://purl.org/dc/elements/1.1/"
   xmlns:cc="http://creativecommons.org/ns#"
   xmlns:rdf="http://www.w3.org/1999/02/22-rdf-syntax-ns#"
   xmlns:svg="http://www.w3.org/2000/svg"
   xmlns="http://www.w3.org/2000/svg"
   xmlns:sodipodi="http://sodipodi.sourceforge.net/DTD/sodipodi-0.dtd"
   xmlns:inkscape="http://www.inkscape.org/namespaces/inkscape"
   width="96"
   height="96.000053"
   id="svg2"
   version="1.1"
   inkscape:version="0.48.4 r9939"
   sodipodi:docname="edit-find.svg">
  <defs
     id="defs4">
    <filter
       id="filter3174"
       color-interpolation-filters="sRGB">
      <feGaussianBlur
         stdDeviation="1.71"
         id="feGaussianBlur3176" />
    </filter>
    <linearGradient
       gradientTransform="scale(1.0058652,0.994169)"
       gradientUnits="userSpaceOnUse"
       id="ButtonShadow"
       y2="7.0165396"
       x2="45.447727"
       y1="92.539597"
       x1="45.447727">
      <stop
         offset="0"
         style="stop-color:#000000;stop-opacity:1"
         id="stop3750" />
      <stop
         offset="1"
         style="stop-color:#000000;stop-opacity:0.58823532"
         id="stop3752" />
    </linearGradient>
  </defs>
  <sodipodi:namedview
     id="base"
     pagecolor="#ffffff"
     bordercolor="#666666"
     borderopacity="1.0"
     inkscape:pageopacity="0.0"
     inkscape:pageshadow="2"
     inkscape:zoom="35.4375"
     inkscape:cx="6.683882"
     inkscape:cy="8.0001034"
     inkscape:document-units="px"
     inkscape:current-layer="layer1"
     showgrid="true"
     inkscape:snap-page="true"
     inkscape:snap-global="true"
     inkscape:snap-object-midpoints="true"
     inkscape:object-nodes="true"
     inkscape:window-width="1305"
     inkscape:window-height="744"
     inkscape:window-x="61"
     inkscape:window-y="24"
     inkscape:window-maximized="1"
     inkscape:snap-nodes="true"
     inkscape:snap-bbox="true"
     inkscape:object-paths="true"
     inkscape:snap-center="true"
     fit-margin-top="0"
     fit-margin-left="0"
     fit-margin-right="0"
     fit-margin-bottom="0"
     inkscape:snap-grids="true"
     inkscape:snap-to-guides="true">
    <inkscape:grid
       type="xygrid"
       id="grid2995"
       empspacing="5"
       visible="true"
       enabled="true"
       snapvisiblegridlinesonly="true"
       originx="1.0145179px"
       originy="0.9969px" />
  </sodipodi:namedview>
  <metadata
     id="metadata7">
    <rdf:RDF>
      <cc:Work
         rdf:about="">
        <dc:format>image/svg+xml</dc:format>
        <dc:type
           rdf:resource="http://purl.org/dc/dcmitype/StillImage" />
        <dc:title />
      </cc:Work>
    </rdf:RDF>
  </metadata>
  <g
     inkscape:label="Layer 1"
     inkscape:groupmode="layer"
     id="layer1"
     transform="translate(1.0145179,-957.35895)">
    <g
       id="layer2"
       style="display:none"
       transform="translate(68.37696,846.74396)">
      <rect
         width="86"
         height="85"
         rx="6"
         ry="6"
         x="5"
         y="7"
         id="rect3745"
         style="opacity:0.9;fill:url(#ButtonShadow);fill-opacity:1;fill-rule:nonzero;stroke:none;filter:url(#filter3174)" />
    </g>
    <path
       style="fill:#ffffff;fill-opacity:0;fill-rule:nonzero;stroke:none"
       d="m 27.087057,957.3589 c -8.082838,0 -17.5919607,0.9372 -22.5234488,6.1644 -4.93147742,5.2272 -5.5781261,14.4462 -5.5781261,21.9372 0,13.266 0,26.5314 0,39.7974 0,7.4904 0.64664868,16.71 5.5781261,21.9372 4.9314881,5.2272 14.4406108,6.1638 22.5234488,6.1638 13.265634,0 26.531262,0 39.796885,0 8.082798,0 17.591934,-0.9366 22.523412,-6.1638 4.93149,-5.2272 5.578128,-14.4468 5.578128,-21.9372 0,-13.266 0,-26.5314 0,-39.7974 0,-7.491 -0.646638,-16.71 -5.578128,-21.9372 -4.931478,-5.2272 -14.440614,-6.1644 -22.523412,-6.1644 -13.265623,0 -26.531251,0 -39.796885,0 z"
       id="path3763"
       inkscape:connector-curvature="0"
       sodipodi:nodetypes="csccsccsccscc" />
    <path
       style="fill:#cccccc;fill-opacity:1;fill-rule:evenodd;stroke:none"
       d="m 4.9854821,963.3589 0,84 83.9999999,0 0,-84 -83.9999999,0 z m 5.9999999,6 72,0 0,72 -72,0 0,-72 z"
       id="rect2993"
       inkscape:connector-curvature="0" />
    <rect
       style="fill:#262626;fill-opacity:1;fill-rule:evenodd;stroke:none"
       id="rect2995"
       width="72"
       height="72"
       x="11.072589"
       y="969.37787" />
    <path
       inkscape:connector-curvature="0"
       style="fill:#cccccc;fill-opacity:1;fill-rule:nonzero;stroke:none"
       d="m 57.514165,981.3841 c -3.471025,0 -6.937702,1.3242 -9.585992,3.972 -5.296579,5.2968 -5.296579,13.8756 0,19.1718 5.296581,5.2962 13.875402,5.2962 19.171985,0 5.296578,-5.2962 5.296578,-13.9014 0,-19.1988 -2.648294,-2.6478 -6.114968,-3.9486 -9.585993,-3.945 z m 0,3.5748 c 2.550806,0 5.097959,0.9936 7.043849,2.9394 3.891772,3.8922 3.891784,10.1958 0,14.088 -3.891785,3.891 -10.195925,3.891 -14.087699,0 -3.891777,-3.8916 -3.891787,-10.1958 0,-14.088 1.945892,-1.9458 4.493045,-2.9394 7.04385,-2.9394 z m -11.439636,18.5364 -1.297551,1.2978 2.859908,2.8866 1.324033,-1.3242 -2.88639,-2.8602 z m -2.356778,1.2978 c -0.500988,0 -1.017074,0.198 -1.403474,0.582 l -7.891231,7.8912 0.370728,0 a 3.311864,3.311864 0 0 1 2.648065,1.2984 3.311864,3.311864 0 0 1 2.621584,-1.2984 l 3.892654,0 3.124715,-3.1242 c 0.772798,-0.7728 0.772769,-2.0076 0,-2.7798 l -1.986049,-1.9872 c -0.386388,-0.39 -0.876003,-0.582 -1.376993,-0.582 z"
       id="rect3002" />
    <rect
       style="fill:#cccccc;fill-opacity:1;fill-rule:nonzero;stroke:none"
       id="rect2999"
       width="12"
       height="12.000472"
       x="23.07259"
       y="1017.3779" />
    <rect
       y="1017.3779"
       x="41.07259"
       height="12.000472"
       width="12"
       id="rect3011"
       style="fill:#cccccc;fill-opacity:1;fill-rule:nonzero;stroke:none" />
    <rect
       style="fill:#cccccc;fill-opacity:1;fill-rule:nonzero;stroke:none"
       id="rect3013"
       width="12"
       height="12.000472"
       x="59.07259"
       y="1017.3779" />
  </g>
</svg>
