<?xml version="1.0" encoding="UTF-8" standalone="no"?>
<!-- Created with Inkscape (http://www.inkscape.org/) -->

<svg
   xmlns:dc="http://purl.org/dc/elements/1.1/"
   xmlns:cc="http://creativecommons.org/ns#"
   xmlns:rdf="http://www.w3.org/1999/02/22-rdf-syntax-ns#"
   xmlns:svg="http://www.w3.org/2000/svg"
   xmlns="http://www.w3.org/2000/svg"
   xmlns:sodipodi="http://sodipodi.sourceforge.net/DTD/sodipodi-0.dtd"
   xmlns:inkscape="http://www.inkscape.org/namespaces/inkscape"
   width="96"
   height="96"
   id="svg2"
   version="1.1"
   inkscape:version="0.48.4 r9939"
   sodipodi:docname="insert-text.svg">
  <defs
     id="defs4" />
  <sodipodi:namedview
     id="base"
     pagecolor="#ffffff"
     bordercolor="#666666"
     borderopacity="1.0"
     inkscape:pageopacity="0.0"
     inkscape:pageshadow="2"
     inkscape:zoom="3.959798"
     inkscape:cx="-63.964418"
     inkscape:cy="25.561384"
     inkscape:document-units="px"
     inkscape:current-layer="layer1"
     showgrid="false"
     inkscape:window-width="1305"
     inkscape:window-height="744"
     inkscape:window-x="61"
     inkscape:window-y="24"
     inkscape:window-maximized="1"
     fit-margin-top="0"
     fit-margin-left="0"
     fit-margin-right="0"
     fit-margin-bottom="0" />
  <metadata
     id="metadata7">
    <rdf:RDF>
      <cc:Work
         rdf:about="">
        <dc:format>image/svg+xml</dc:format>
        <dc:type
           rdf:resource="http://purl.org/dc/dcmitype/StillImage" />
        <dc:title />
      </cc:Work>
    </rdf:RDF>
  </metadata>
  <g
     inkscape:label="Capa 1"
     inkscape:groupmode="layer"
     id="layer1"
     transform="translate(0,-956.36218)">
    <rect
       style="opacity:0.51999996;fill:none;stroke:none"
       id="rect2989"
       width="96"
       height="96"
       x="0"
       y="956.36218" />
    <path
       style="font-size:112px;font-style:normal;font-variant:normal;font-weight:normal;font-stretch:normal;line-height:125%;letter-spacing:0px;word-spacing:0px;fill:#000000;fill-opacity:1;stroke:none;font-family:DejaVu Sans;-inkscape-font-specification:DejaVu Sans"
       d="M 47.4375 7.46875 C 44.156221 7.4688127 40.807266 7.8333957 37.34375 8.5625 C 33.88019 9.2552693 30.307277 10.296935 26.625 11.71875 L 26.625 21.03125 C 29.687486 19.354218 32.869774 18.088594 36.1875 17.25 C 39.505184 16.411512 42.906222 16.000054 46.40625 16 C 51.911422 16.000054 56.192668 17.26047 59.21875 19.8125 C 62.281203 22.328173 63.812452 25.901086 63.8125 30.53125 L 63.8125 31.53125 L 49.6875 31.53125 C 40.536433 31.531289 33.66144 33.281287 29.03125 36.78125 C 24.437491 40.28128 22.124993 45.4844 22.125 52.375 C 22.124993 58.281262 23.97395 62.994799 27.65625 66.53125 C 31.374984 70.03125 36.354146 71.781248 42.625 71.78125 C 47.583301 71.781248 51.79163 70.906249 55.21875 69.15625 C 58.64579 67.369794 61.515579 64.625006 63.8125 60.90625 L 63.8125 70.1875 L 73.875 70.1875 L 73.875 35.25 C 73.874942 25.916711 71.687444 18.937551 67.3125 14.34375 C 62.937452 9.7500604 56.296834 7.4688127 47.4375 7.46875 z M 53.8125 39.40625 L 63.8125 39.40625 L 63.8125 41.65625 C 63.812452 48.218772 62.109328 53.463558 58.71875 57.4375 C 55.364543 61.375009 50.89059 63.343757 45.3125 63.34375 C 41.265599 63.343757 38.057269 62.328133 35.6875 60.25 C 33.354149 58.135429 32.187483 55.291682 32.1875 51.71875 C 32.187483 47.234398 33.770815 44.046901 36.90625 42.1875 C 40.041642 40.328155 45.682261 39.406281 53.8125 39.40625 z M 22.125 75.21875 L 35.0625 81.875 L 48 88.53125 L 60.9375 81.875 L 73.875 75.21875 L 48 75.21875 L 22.125 75.21875 z "
       transform="translate(0,956.36218)"
       id="text2985" />
  </g>
</svg>
