<?xml version="1.0" encoding="UTF-8" standalone="no"?>
<!-- Created with Inkscape (http://www.inkscape.org/) -->

<svg
   xmlns:dc="http://purl.org/dc/elements/1.1/"
   xmlns:cc="http://creativecommons.org/ns#"
   xmlns:rdf="http://www.w3.org/1999/02/22-rdf-syntax-ns#"
   xmlns:svg="http://www.w3.org/2000/svg"
   xmlns="http://www.w3.org/2000/svg"
   xmlns:xlink="http://www.w3.org/1999/xlink"
   xmlns:sodipodi="http://sodipodi.sourceforge.net/DTD/sodipodi-0.dtd"
   xmlns:inkscape="http://www.inkscape.org/namespaces/inkscape"
   width="96"
   height="96.000053"
   id="svg2"
   version="1.1"
   inkscape:version="0.48.4 r9939"
   sodipodi:docname="internet-radio-new.svg">
  <defs
     id="defs4">
    <filter
       id="filter3174"
       color-interpolation-filters="sRGB">
      <feGaussianBlur
         stdDeviation="1.71"
         id="feGaussianBlur3176" />
    </filter>
    <linearGradient
       gradientTransform="scale(1.0058652,0.994169)"
       gradientUnits="userSpaceOnUse"
       id="ButtonShadow"
       y2="7.0165396"
       x2="45.447727"
       y1="92.539597"
       x1="45.447727">
      <stop
         offset="0"
         style="stop-color:#000000;stop-opacity:1"
         id="stop3750" />
      <stop
         offset="1"
         style="stop-color:#000000;stop-opacity:0.58823532"
         id="stop3752" />
    </linearGradient>
    <linearGradient
       id="linearGradient3657">
      <stop
         id="stop3659"
         style="stop-color:#ffffff;stop-opacity:1"
         offset="0" />
      <stop
         id="stop3661"
         style="stop-color:#ffffff;stop-opacity:0"
         offset="1" />
    </linearGradient>
    <linearGradient
       inkscape:collect="always"
       xlink:href="#linearGradient3657"
       id="linearGradient3047"
       gradientUnits="userSpaceOnUse"
       gradientTransform="matrix(0,2.7,-2.7,0,36.688023,1015.7997)"
       x1="1"
       y1="11"
       x2="21"
       y2="11" />
    <linearGradient
       inkscape:collect="always"
       xlink:href="#linearGradient3657"
       id="linearGradient3049"
       gradientUnits="userSpaceOnUse"
       gradientTransform="matrix(0,2.7,-2.7,0,33.988023,1013.0997)"
       x1="4"
       y1="10"
       x2="18"
       y2="10" />
    <linearGradient
       inkscape:collect="always"
       xlink:href="#linearGradient3657"
       id="linearGradient3051"
       gradientUnits="userSpaceOnUse"
       gradientTransform="matrix(0,2.7,-2.7,0,31.288023,1010.3997)"
       x1="7"
       y1="9"
       x2="15"
       y2="9" />
  </defs>
  <sodipodi:namedview
     id="base"
     pagecolor="#ffffff"
     bordercolor="#666666"
     borderopacity="1.0"
     inkscape:pageopacity="0.0"
     inkscape:pageshadow="2"
     inkscape:zoom="28.62258"
     inkscape:cx="-6.4083348"
     inkscape:cy="9.3968306"
     inkscape:document-units="px"
     inkscape:current-layer="layer1"
     showgrid="true"
     inkscape:snap-page="true"
     inkscape:snap-global="true"
     inkscape:snap-object-midpoints="true"
     inkscape:object-nodes="true"
     inkscape:window-width="1305"
     inkscape:window-height="744"
     inkscape:window-x="61"
     inkscape:window-y="24"
     inkscape:window-maximized="1"
     inkscape:snap-nodes="true"
     inkscape:snap-bbox="true"
     inkscape:object-paths="true"
     inkscape:snap-center="true"
     fit-margin-top="0"
     fit-margin-left="0"
     fit-margin-right="0"
     fit-margin-bottom="0"
     inkscape:snap-grids="true"
     inkscape:snap-to-guides="true">
    <inkscape:grid
       type="xygrid"
       id="grid2995"
       empspacing="5"
       visible="true"
       enabled="true"
       snapvisiblegridlinesonly="true"
       originx="1.0145179px"
       originy="0.9969px" />
  </sodipodi:namedview>
  <metadata
     id="metadata7">
    <rdf:RDF>
      <cc:Work
         rdf:about="">
        <dc:format>image/svg+xml</dc:format>
        <dc:type
           rdf:resource="http://purl.org/dc/dcmitype/StillImage" />
        <dc:title />
      </cc:Work>
    </rdf:RDF>
  </metadata>
  <g
     inkscape:label="Layer 1"
     inkscape:groupmode="layer"
     id="layer1"
     transform="translate(1.0145179,-957.35895)">
    <g
       id="layer2"
       style="display:none"
       transform="translate(68.37696,846.74396)">
      <rect
         width="86"
         height="85"
         rx="6"
         ry="6"
         x="5"
         y="7"
         id="rect3745"
         style="opacity:0.9;fill:url(#ButtonShadow);fill-opacity:1;fill-rule:nonzero;stroke:none;filter:url(#filter3174)" />
    </g>
    <path
       style="fill:#ffffff;fill-opacity:0;fill-rule:nonzero;stroke:none"
       d="m 27.087057,957.3589 c -8.082838,0 -17.5919605,0.9372 -22.5234488,6.1644 -4.93147742,5.2272 -5.5781261,14.4462 -5.5781261,21.9372 0,13.266 0,26.5314 0,39.7974 0,7.4904 0.64664868,16.71 5.5781261,21.9372 4.9314883,5.2272 14.4406108,6.1638 22.5234488,6.1638 13.265634,0 26.531262,0 39.796885,0 8.082798,0 17.591934,-0.9366 22.523412,-6.1638 4.93149,-5.2272 5.578128,-14.4468 5.578128,-21.9372 0,-13.266 0,-26.5314 0,-39.7974 0,-7.491 -0.646638,-16.71 -5.578128,-21.9372 -4.931478,-5.2272 -14.440614,-6.1644 -22.523412,-6.1644 -13.265623,0 -26.531251,0 -39.796885,0 z"
       id="path3763"
       inkscape:connector-curvature="0"
       sodipodi:nodetypes="csccsccsccscc" />
    <path
       style="fill:#cccccc;fill-opacity:1;fill-rule:evenodd;stroke:none"
       d="m 10.985482,969.3589 0,72 72,0 0,-72 -72,0 z m 6,6 60,0 0,60 -60,0 0,-60 z"
       id="rect2998"
       inkscape:connector-curvature="0" />
    <path
       style="fill:#262626;fill-opacity:1;fill-rule:evenodd;stroke:none"
       d="m 76.985482,975.3589 0,60 -60,0 0,-60 z"
       id="rect2993"
       inkscape:connector-curvature="0"
       sodipodi:nodetypes="ccccc" />
    <g
       id="g3042"
       transform="matrix(1.0222233,0,0,1.0222233,39.92927,-63.836007)">
      <path
         d="m 33.988023,1045.4997 c 0,-14.9117 -12.088313,-27 -27,-27 -14.911687,0 -27,12.0883 -27,27 0,14.9117 12.088313,27 27,27 14.911687,0 27,-12.0883 27,-27 z m -2.7,0 c 0,3.596 -0.781099,7.0096 -2.182891,10.0803 -3.829798,8.3894 -12.292581,14.2197 -22.117109,14.2197 -13.42052,0 -24.3,-10.8795 -24.3,-24.3 0,-13.4205 10.87948,-24.3 24.3,-24.3 13.42052,0 24.3,10.8795 24.3,24.3 z"
         inkscape:connector-curvature="0"
         id="path2880"
         style="opacity:0.3;color:#000000;fill:url(#linearGradient3047);fill-opacity:1;stroke:none;stroke-width:1;marker:none;visibility:visible;display:inline;overflow:visible;enable-background:accumulate" />
      <path
         d="m 25.888023,1042.7997 c 0,-10.4382 -8.461819,-18.9 -18.9,-18.9 -10.438181,0 -18.9,8.4618 -18.9,18.9 0,10.4382 8.461819,18.9 18.9,18.9 10.438181,0 18.9,-8.4618 18.9,-18.9 z m -2.7,0 c 0,8.947 -7.252986,16.2 -16.2,16.2 -8.947014,0 -16.1999999,-7.253 -16.1999999,-16.2 0,-8.947 7.2529859,-16.2 16.1999999,-16.2 8.947014,0 16.2,7.253 16.2,16.2 z"
         inkscape:connector-curvature="0"
         id="path3665"
         style="opacity:0.3;color:#000000;fill:url(#linearGradient3049);fill-opacity:1;fill-rule:nonzero;stroke:none;stroke-width:1;marker:none;visibility:visible;display:inline;overflow:visible;enable-background:accumulate" />
      <path
         d="m 17.788023,1040.0997 c 0,-5.9646 -4.835325,-10.8 -10.8,-10.8 -5.964675,0 -10.8,4.8354 -10.8,10.8 0,5.9647 4.835325,10.8 10.8,10.8 5.964675,0 10.8,-4.8353 10.8,-10.8 z m -2.7,0 c 0,4.4735 -3.626494,8.1 -8.1,8.1 -4.473506,0 -8.1,-3.6265 -8.1,-8.1 0,-4.4735 3.626494,-8.1 8.1,-8.1 4.473506,0 8.1,3.6265 8.1,8.1 z"
         inkscape:connector-curvature="0"
         id="path3688"
         style="opacity:0.3;color:#000000;fill:url(#linearGradient3051);fill-opacity:1;fill-rule:nonzero;stroke:none;stroke-width:1;marker:none;visibility:visible;display:inline;overflow:visible;enable-background:accumulate" />
    </g>
    <path
       style="fill:#cccccc;fill-opacity:1;fill-rule:evenodd;stroke:none"
       d="m 35.07259,1035.3781 6,0 6,-18 6,18 6,0 -12.087108,-36.0189 z"
       id="rect3008"
       inkscape:connector-curvature="0"
       sodipodi:nodetypes="ccccccc" />
    <path
       sodipodi:type="arc"
       style="fill:#cccccc;fill-opacity:1;fill-rule:evenodd;stroke:none"
       id="path3011"
       sodipodi:cx="8.0145178"
       sodipodi:cy="87.003151"
       sodipodi:rx="1"
       sodipodi:ry="1"
       d="m 9.0145178,87.003151 a 1,1 0 1 1 -2,0 1,1 0 1 1 2,0 z"
       transform="matrix(6,0,0,6,-1.0145179,477.3592)" />
    <rect
       style="fill:#cccccc;fill-opacity:1;fill-rule:evenodd;stroke:none"
       id="rect3013"
       width="12"
       height="6"
       x="41.07259"
       y="1023.3781" />
  </g>
</svg>
