<?xml version="1.0" encoding="UTF-8" standalone="no"?>
<!-- Created with Inkscape (http://www.inkscape.org/) -->

<svg
   xmlns:dc="http://purl.org/dc/elements/1.1/"
   xmlns:cc="http://creativecommons.org/ns#"
   xmlns:rdf="http://www.w3.org/1999/02/22-rdf-syntax-ns#"
   xmlns:svg="http://www.w3.org/2000/svg"
   xmlns="http://www.w3.org/2000/svg"
   xmlns:sodipodi="http://sodipodi.sourceforge.net/DTD/sodipodi-0.dtd"
   xmlns:inkscape="http://www.inkscape.org/namespaces/inkscape"
   width="96"
   height="96"
   id="svg4141"
   version="1.1"
   inkscape:version="0.48.4 r9939"
   sodipodi:docname="iso-image-burn.svg">
  <defs
     id="defs4143">
    <style
       id="style2464"
       type="text/css" />
  </defs>
  <sodipodi:namedview
     id="base"
     pagecolor="#ffffff"
     bordercolor="#666666"
     borderopacity="1.0"
     inkscape:pageopacity="0.0"
     inkscape:pageshadow="2"
     inkscape:zoom="35.437501"
     inkscape:cx="3.0335094"
     inkscape:cy="7.9999826"
     inkscape:current-layer="g4079"
     showgrid="true"
     inkscape:grid-bbox="true"
     inkscape:document-units="px"
     inkscape:window-width="1305"
     inkscape:window-height="744"
     inkscape:window-x="61"
     inkscape:window-y="24"
     inkscape:window-maximized="1"
     inkscape:snap-page="true"
     inkscape:snap-bbox="true"
     fit-margin-top="0"
     fit-margin-left="0"
     fit-margin-right="0"
     fit-margin-bottom="0">
    <inkscape:grid
       type="xygrid"
       id="grid3007"
       empspacing="5"
       visible="true"
       enabled="true"
       snapvisiblegridlinesonly="true" />
  </sodipodi:namedview>
  <metadata
     id="metadata4146">
    <rdf:RDF>
      <cc:Work
         rdf:about="">
        <dc:format>image/svg+xml</dc:format>
        <dc:type
           rdf:resource="http://purl.org/dc/dcmitype/StillImage" />
        <dc:title />
      </cc:Work>
    </rdf:RDF>
  </metadata>
  <g
     id="layer1"
     inkscape:label="Layer 1"
     inkscape:groupmode="layer"
     transform="translate(-2.0528877e-6,47.999994)">
    <g
       id="g4079"
       transform="matrix(1.2902545,0,0,1.2902545,-10.176612,-1307.9718)">
      <rect
         style="fill:none;stroke:none"
         id="rect3332"
         width="74.403923"
         height="74.403923"
         x="7.8872919"
         y="976.52966" />
      <path
         inkscape:connector-curvature="0"
         id="path3009"
         d="m 45.080916,981.17933 c -17.970391,0 -32.544279,14.5776 -32.544279,32.55177 0,17.9742 14.573888,32.5524 32.544279,32.5524 17.970378,0 32.544271,-14.5782 32.544271,-32.5524 0,-17.97417 -14.573893,-32.55177 -32.544271,-32.55177 z m 0.0462,26.41737 c 3.42285,0 6.225066,2.8026 6.225066,6.2262 0,3.4236 -2.802216,6.1812 -6.225066,6.1812 -3.422856,0 -6.179292,-2.7576 -6.179292,-6.1812 0,-3.4236 2.756436,-6.2262 6.179292,-6.2262 z"
         style="fill:#cccccc;fill-opacity:1;stroke:none" />
      <path
         style="fill:#262626;fill-opacity:1;stroke:none"
         d="m 45.080916,985.81493 c -15.411325,0 -27.909821,12.5016 -27.909821,27.91617 0,15.4146 12.498496,27.9168 27.909821,27.9168 15.411312,0 27.909817,-12.5022 27.909817,-27.9168 0,-15.41457 -12.498505,-27.91617 -27.909817,-27.91617 z m 0.0396,22.65537 c 2.935422,0 5.33859,2.4036 5.33859,5.3394 0,2.9364 -2.403168,5.301 -5.33859,5.301 -2.935422,0 -5.299332,-2.3646 -5.299332,-5.301 0,-2.9358 2.36391,-5.3394 5.299332,-5.3394 z"
         id="path2985"
         inkscape:connector-curvature="0" />
      <path
         style="fill:#cccccc;fill-opacity:0.53424659;stroke:none"
         d="m 49.872132,1003.8629 8.779692,-13.91337 c 2.862054,1.6326 4.946304,3.5076 7.116481,6.0558 L 53.66439,1007.2319 c -1.174368,-1.5348 -2.483058,-2.586 -3.792258,-3.369 z"
         id="path3198"
         inkscape:connector-curvature="0"
         sodipodi:nodetypes="ccccc"
         inkscape:transform-center-x="-6.2156615"
         inkscape:transform-center-y="-7.4916662" />
      <path
         inkscape:transform-center-y="7.8513156"
         inkscape:transform-center-x="5.7219294"
         sodipodi:nodetypes="ccccc"
         inkscape:connector-curvature="0"
         id="path3987"
         d="m 40.900398,1024.6463 -7.783651,14.4948 c -2.969322,-1.4274 -5.1798,-3.1524 -7.5231,-5.5416 l 11.287903,-12.0474 c 1.27887,1.4484 2.658012,2.4054 4.018848,3.0942 z"
         style="fill:#757575;fill-opacity:0.53424659;stroke:none" />
      <path
         style="fill:#757575;fill-opacity:0.53424659;stroke:none"
         d="m 39.621846,1024.1507 -9.318031,13.5588 c -2.795868,-1.7436 -4.805088,-3.699 -6.873738,-6.33 l 12.53442,-10.7424 c 1.113349,1.5786 2.379847,2.6802 3.657349,3.5136 z"
         id="path3999"
         inkscape:connector-curvature="0"
         sodipodi:nodetypes="ccccc"
         inkscape:transform-center-x="6.4785132"
         inkscape:transform-center-y="7.275204" />
      <path
         inkscape:transform-center-y="6.1517413"
         inkscape:transform-center-x="7.5420599"
         sodipodi:nodetypes="ccccc"
         inkscape:connector-curvature="0"
         id="path4003"
         d="m 37.897812,1022.8409 -11.572375,11.6922 c -2.442834,-2.211 -4.073874,-4.4922 -5.64366,-7.4484 l 14.239188,-8.3508 c 0.816102,1.7496 1.867309,3.06 2.976847,4.107 z"
         style="fill:#757575;fill-opacity:0.53424659;stroke:none" />
      <path
         transform="matrix(1.3739993,0,0,1.3743187,9.8580117,976.60673)"
         d="m 33.214286,27.0625 a 7.5446429,7.5446429 0 1 1 -15.089286,0 7.5446429,7.5446429 0 1 1 15.089286,0 z"
         sodipodi:ry="7.5446429"
         sodipodi:rx="7.5446429"
         sodipodi:cy="27.0625"
         sodipodi:cx="25.669643"
         id="path3771"
         style="fill:none;stroke:#999999;stroke-width:1.60000002;stroke-miterlimit:4;stroke-opacity:1;stroke-dasharray:none"
         sodipodi:type="arc" />
      <path
         sodipodi:type="arc"
         style="fill:none;stroke:#999999;stroke-width:1.67762256;stroke-miterlimit:4;stroke-opacity:1;stroke-dasharray:none"
         id="path3773"
         sodipodi:cx="25.669643"
         sodipodi:cy="27.0625"
         sodipodi:rx="7.5446429"
         sodipodi:ry="7.5446429"
         d="m 33.214286,27.0625 a 7.5446429,7.5446429 0 1 1 -15.089286,0 7.5446429,7.5446429 0 1 1 15.089286,0 z"
         transform="matrix(0.87097485,0,0,0.87117735,22.770467,990.22313)" />
    </g>
  </g>
</svg>
