<?xml version="1.0" encoding="UTF-8" standalone="no"?>
<!-- Created with Inkscape (http://www.inkscape.org/) -->

<svg
   xmlns:dc="http://purl.org/dc/elements/1.1/"
   xmlns:cc="http://creativecommons.org/ns#"
   xmlns:rdf="http://www.w3.org/1999/02/22-rdf-syntax-ns#"
   xmlns:svg="http://www.w3.org/2000/svg"
   xmlns="http://www.w3.org/2000/svg"
   xmlns:sodipodi="http://sodipodi.sourceforge.net/DTD/sodipodi-0.dtd"
   xmlns:inkscape="http://www.inkscape.org/namespaces/inkscape"
   width="96"
   height="96"
   id="svg2"
   version="1.1"
   inkscape:version="0.48.4 r9939"
   sodipodi:docname="lock-broken.svg">
  <defs
     id="defs4" />
  <sodipodi:namedview
     id="base"
     pagecolor="#ffffff"
     bordercolor="#666666"
     borderopacity="1.0"
     inkscape:pageopacity="0.0"
     inkscape:pageshadow="2"
     inkscape:zoom="35.4375"
     inkscape:cx="3.005291"
     inkscape:cy="6.9318559"
     inkscape:document-units="px"
     inkscape:current-layer="layer1"
     showgrid="true"
     inkscape:window-width="1305"
     inkscape:window-height="744"
     inkscape:window-x="61"
     inkscape:window-y="24"
     inkscape:window-maximized="1"
     inkscape:snap-center="true"
     inkscape:snap-global="true"
     inkscape:snap-page="true"
     fit-margin-top="0"
     fit-margin-left="0"
     fit-margin-right="0"
     fit-margin-bottom="0"
     inkscape:snap-bbox="true">
    <inkscape:grid
       type="xygrid"
       id="grid2991"
       empspacing="5"
       visible="true"
       enabled="true"
       snapvisiblegridlinesonly="true" />
  </sodipodi:namedview>
  <metadata
     id="metadata7">
    <rdf:RDF>
      <cc:Work
         rdf:about="">
        <dc:format>image/svg+xml</dc:format>
        <dc:type
           rdf:resource="http://purl.org/dc/dcmitype/StillImage" />
        <dc:title />
      </cc:Work>
    </rdf:RDF>
  </metadata>
  <g
     inkscape:label="Capa 1"
     inkscape:groupmode="layer"
     id="layer1"
     transform="translate(0,-956.36218)">
    <rect
       style="fill:#ffffff;fill-opacity:0;fill-rule:nonzero;stroke:none"
       id="rect2990"
       width="96"
       height="96"
       x="0"
       y="956.36218" />
    <g
       id="g2995"
       inkscape:transform-center-x="-28.32834"
       inkscape:transform-center-y="-29.032217"
       transform="matrix(5.9333063,-0.89211918,0.89211918,5.9333063,-933.27972,-5183.3488)">
      <path
         sodipodi:nodetypes="ssccsssccss"
         inkscape:connector-curvature="0"
         id="rect2995"
         d="m 8,1037.3622 c -1.662,0 -3,1.338 -3,3 l 0,1 2,0 0,-1 c 0,-0.554 0.446,-1 1,-1 0.554,0 1,0.446 1,1 l 0,3 2,0 0,-3 c 0,-1.662 -1.338,-3 -3,-3 z"
         style="fill:#000000;fill-opacity:1;fill-rule:evenodd;stroke:none" />
      <path
         id="path2993"
         d="m 3,1043.3622 0,3 1,0 2,-1 1,1 2,-1 2,2 1,-1 1,0 0,-3 -10,0 z"
         style="fill:#cc0c00;fill-opacity:1;fill-rule:evenodd;stroke:none"
         inkscape:connector-curvature="0" />
    </g>
    <path
       style="fill:#cc0c00;fill-opacity:1;fill-rule:evenodd;stroke:none"
       d="m 36.435134,1017.8737 -12.455763,4.9854 -5.979381,-0.498 -0.994008,11.9586 59.793802,4.9704 0.994008,-11.9592 -5.979378,-0.498 -6.476388,5.4822 -10.96475,-12.9528 -12.455765,4.9854 -5.482377,-6.4764 z"
       id="rect2993"
       inkscape:connector-curvature="0"
       inkscape:transform-center-x="-29.399887"
       inkscape:transform-center-y="6.2185331" />
    <path
       style="fill:#000000;fill-opacity:0.47488589;fill-rule:evenodd;stroke:none"
       d="m 48,1010.3623 c -6.627417,0 -12,5.3724 -12,12 0,6.6276 5.372583,12 12,12 6.627417,0 12,-5.3724 12,-12 0,-6.6276 -5.372583,-12 -12,-12 z m 0,6 c 3.313708,0 6,2.6862 6,6 0,3.3138 -2.686292,6 -6,6 -3.313708,0 -6,-2.6862 -6,-6 0,-3.3138 2.686292,-6 6,-6 z"
       id="path3773"
       inkscape:connector-curvature="0" />
  </g>
</svg>
