<?xml version="1.0" encoding="UTF-8" standalone="no"?>
<!-- Created with Inkscape (http://www.inkscape.org/) -->

<svg
   xmlns:dc="http://purl.org/dc/elements/1.1/"
   xmlns:cc="http://creativecommons.org/ns#"
   xmlns:rdf="http://www.w3.org/1999/02/22-rdf-syntax-ns#"
   xmlns:svg="http://www.w3.org/2000/svg"
   xmlns="http://www.w3.org/2000/svg"
   xmlns:sodipodi="http://sodipodi.sourceforge.net/DTD/sodipodi-0.dtd"
   xmlns:inkscape="http://www.inkscape.org/namespaces/inkscape"
   width="96"
   height="96"
   id="svg2"
   version="1.1"
   inkscape:version="0.48.4 r9939"
   sodipodi:docname="lock-insecure.svg">
  <defs
     id="defs4" />
  <sodipodi:namedview
     id="base"
     pagecolor="#ffffff"
     bordercolor="#666666"
     borderopacity="1.0"
     inkscape:pageopacity="0.0"
     inkscape:pageshadow="2"
     inkscape:zoom="35.4375"
     inkscape:cx="3.005291"
     inkscape:cy="7.9999974"
     inkscape:document-units="px"
     inkscape:current-layer="layer1"
     showgrid="true"
     inkscape:window-width="1305"
     inkscape:window-height="744"
     inkscape:window-x="61"
     inkscape:window-y="24"
     inkscape:window-maximized="1"
     inkscape:snap-center="true"
     inkscape:snap-global="true"
     inkscape:snap-page="true"
     fit-margin-top="0"
     fit-margin-left="0"
     fit-margin-right="0"
     fit-margin-bottom="0"
     inkscape:snap-bbox="true">
    <inkscape:grid
       type="xygrid"
       id="grid2991"
       empspacing="5"
       visible="true"
       enabled="true"
       snapvisiblegridlinesonly="true" />
  </sodipodi:namedview>
  <metadata
     id="metadata7">
    <rdf:RDF>
      <cc:Work
         rdf:about="">
        <dc:format>image/svg+xml</dc:format>
        <dc:type
           rdf:resource="http://purl.org/dc/dcmitype/StillImage" />
        <dc:title />
      </cc:Work>
    </rdf:RDF>
  </metadata>
  <g
     inkscape:label="Capa 1"
     inkscape:groupmode="layer"
     id="layer1"
     transform="translate(0,-956.36218)">
    <rect
       style="fill:#ffffff;fill-opacity:0;fill-rule:nonzero;stroke:none"
       id="rect2990"
       width="96"
       height="96"
       x="0"
       y="956.36218" />
    <path
       style="fill:#000000;fill-opacity:1;fill-rule:evenodd;stroke:none"
       d="m 48,962.36217 c -9.972,0 -18,8.028 -18,18 l 0,6 12,0 0,-6 c 0,-3.324 2.676,-6 6,-6 3.324,0 6,2.676 6,6 l 0,18 12,0 0,-18 c 0,-9.972 -8.028,-18 -18,-18 z"
       id="rect2995"
       inkscape:connector-curvature="0"
       sodipodi:nodetypes="ssccsssccss" />
    <rect
       style="fill:#cc0c00;fill-opacity:1;fill-rule:evenodd;stroke:none"
       id="rect2993"
       width="60"
       height="36"
       x="18"
       y="998.36218" />
    <path
       style="fill:#000000;fill-opacity:0.47488589;fill-rule:evenodd;stroke:none"
       d="m 48,1004.3622 c -6.627417,0 -12,5.3726 -12,12 0,6.6274 5.372583,12 12,12 6.627417,0 12,-5.3726 12,-12 0,-6.6274 -5.372583,-12 -12,-12 z m 0,6 c 3.313708,0 6,2.6863 6,6 0,3.3137 -2.686292,6 -6,6 -3.313708,0 -6,-2.6863 -6,-6 0,-3.3137 2.686292,-6 6,-6 z"
       id="path3773"
       inkscape:connector-curvature="0" />
  </g>
</svg>
