<?xml version="1.0" encoding="UTF-8" standalone="no"?>
<!-- Created with Inkscape (http://www.inkscape.org/) -->

<svg
   xmlns:dc="http://purl.org/dc/elements/1.1/"
   xmlns:cc="http://creativecommons.org/ns#"
   xmlns:rdf="http://www.w3.org/1999/02/22-rdf-syntax-ns#"
   xmlns:svg="http://www.w3.org/2000/svg"
   xmlns="http://www.w3.org/2000/svg"
   xmlns:sodipodi="http://sodipodi.sourceforge.net/DTD/sodipodi-0.dtd"
   xmlns:inkscape="http://www.inkscape.org/namespaces/inkscape"
   width="96"
   height="96.000053"
   id="svg2"
   version="1.1"
   inkscape:version="0.48.4 r9939"
   sodipodi:docname="mail-unread.svg">
  <defs
     id="defs4">
    <filter
       id="filter3174"
       color-interpolation-filters="sRGB">
      <feGaussianBlur
         stdDeviation="1.71"
         id="feGaussianBlur3176" />
    </filter>
    <linearGradient
       gradientTransform="scale(1.0058652,0.994169)"
       gradientUnits="userSpaceOnUse"
       id="ButtonShadow"
       y2="7.0165396"
       x2="45.447727"
       y1="92.539597"
       x1="45.447727">
      <stop
         offset="0"
         style="stop-color:#000000;stop-opacity:1"
         id="stop3750" />
      <stop
         offset="1"
         style="stop-color:#000000;stop-opacity:0.58823532"
         id="stop3752" />
    </linearGradient>
  </defs>
  <sodipodi:namedview
     id="base"
     pagecolor="#ffffff"
     bordercolor="#666666"
     borderopacity="1.0"
     inkscape:pageopacity="0.0"
     inkscape:pageshadow="2"
     inkscape:zoom="35.4375"
     inkscape:cx="9.5128459"
     inkscape:cy="6.8713556"
     inkscape:document-units="px"
     inkscape:current-layer="layer1"
     showgrid="true"
     inkscape:snap-page="true"
     inkscape:snap-global="false"
     inkscape:snap-object-midpoints="true"
     inkscape:object-nodes="true"
     inkscape:window-width="1305"
     inkscape:window-height="744"
     inkscape:window-x="61"
     inkscape:window-y="24"
     inkscape:window-maximized="1"
     inkscape:snap-nodes="true"
     inkscape:snap-bbox="true"
     inkscape:object-paths="true"
     inkscape:snap-center="true"
     fit-margin-top="0"
     fit-margin-left="0"
     fit-margin-right="0"
     fit-margin-bottom="0"
     inkscape:snap-grids="true"
     inkscape:snap-to-guides="true">
    <inkscape:grid
       type="xygrid"
       id="grid2995"
       empspacing="5"
       visible="true"
       enabled="true"
       snapvisiblegridlinesonly="true"
       originx="1.0145179px"
       originy="0.9969px" />
  </sodipodi:namedview>
  <metadata
     id="metadata7">
    <rdf:RDF>
      <cc:Work
         rdf:about="">
        <dc:format>image/svg+xml</dc:format>
        <dc:type
           rdf:resource="http://purl.org/dc/dcmitype/StillImage" />
        <dc:title />
      </cc:Work>
    </rdf:RDF>
  </metadata>
  <g
     inkscape:label="Layer 1"
     inkscape:groupmode="layer"
     id="layer1"
     transform="translate(1.0145179,-957.35895)">
    <g
       id="layer2"
       style="display:none"
       transform="translate(68.37696,846.74396)">
      <rect
         width="86"
         height="85"
         rx="6"
         ry="6"
         x="5"
         y="7"
         id="rect3745"
         style="opacity:0.9;fill:url(#ButtonShadow);fill-opacity:1;fill-rule:nonzero;stroke:none;filter:url(#filter3174)" />
    </g>
    <path
       style="fill:#ffffff;fill-opacity:0;fill-rule:nonzero;stroke:none"
       d="m 27.087057,957.3589 c -8.082838,0 -17.5919597,0.9372 -22.5234488,6.1644 -4.93147742,5.2272 -5.5781261,14.4462 -5.5781261,21.9372 0,13.266 0,26.5314 0,39.7974 0,7.4904 0.64664868,16.71 5.5781261,21.9372 4.9314891,5.2272 14.4406108,6.1638 22.5234488,6.1638 13.265634,0 26.531262,0 39.796885,0 8.082798,0 17.591934,-0.9366 22.523412,-6.1638 4.93149,-5.2272 5.578128,-14.4468 5.578128,-21.9372 0,-13.266 0,-26.5314 0,-39.7974 0,-7.491 -0.646638,-16.71 -5.578128,-21.9372 -4.931478,-5.2272 -14.440614,-6.1644 -22.523412,-6.1644 -13.265623,0 -26.531251,0 -39.796885,0 z"
       id="path3763"
       inkscape:connector-curvature="0"
       sodipodi:nodetypes="csccsccsccscc" />
    <path
       style="fill:#cccccc;fill-opacity:1;fill-rule:evenodd;stroke:none"
       d="m 5.0792321,963.3901 0,84 83.9999999,0 0,-84 z"
       id="rect2993"
       inkscape:connector-curvature="0"
       sodipodi:nodetypes="ccccc" />
    <path
       style="fill:#262626;fill-opacity:1;fill-rule:evenodd;stroke:none"
       d="m 10.985482,969.3589 0.08711,6.0192 36,18 35.999998,-18 -0.08712,-6.0192 z m 0.08711,12.0192 -0.08711,59.9808 72,0 0.08712,-59.9808 -36,18 z"
       id="rect2995"
       inkscape:connector-curvature="0"
       sodipodi:nodetypes="cccccccccccc" />
    <path
       sodipodi:type="star"
       style="opacity:0.99176953;fill:#f9d616;fill-opacity:1;fill-rule:evenodd;stroke:none"
       id="path2996"
       sodipodi:sides="16"
       sodipodi:cx="-8.9854822"
       sodipodi:cy="86.003151"
       sodipodi:r1="5.6568542"
       sodipodi:r2="4.6129851"
       sodipodi:arg1="0.78539816"
       sodipodi:arg2="0.97536583"
       inkscape:flatsided="false"
       inkscape:rounded="0"
       inkscape:randomized="0"
       d="m -4.9854823,90.003151 -1.412737,-0.180877 -0.4224785,1.407129 -1.2359804,-0.70774 -0.928804,1.138342 -0.8710568,-1.126855 -1.293728,0.696253 -0.373522,-1.374418 -1.461693,0.148166 0.180877,-1.412737 -1.407129,-0.422479 0.707739,-1.23598 -1.138341,-0.928804 1.126855,-0.871057 -0.696253,-1.293727 1.374417,-0.373523 -0.148165,-1.461693 1.412737,0.180877 0.422478,-1.407129 1.2359807,0.707739 0.9288041,-1.138341 0.8710568,1.126855 1.2937275,-0.696253 0.3735228,1.374417 1.4616928,-0.148165 -0.1808767,1.412737 1.4071285,0.422479 -0.7077393,1.23598 1.1383417,0.928804 -1.126855,0.871057 0.6962527,1.293727 -1.3744174,0.373523 z"
       transform="matrix(3.251667,-1.2560892,1.018816,2.6374325,2.1398874,783.0313)" />
    <path
       style="font-size:3.09256363px;font-style:normal;font-variant:normal;font-weight:normal;font-stretch:normal;text-align:end;line-height:125%;letter-spacing:0px;word-spacing:0px;text-anchor:end;fill:#ff0000;fill-opacity:1;stroke:none;font-family:Andale Mono;-inkscape-font-specification:Andale Mono"
       d="m 48.632188,1023.4735 4.510442,7.4142 1.482873,-0.9024 -3.02827,-4.9776 0.105918,-0.066 6.099935,3.1092 1.694713,-1.0308 -4.510442,-7.4142 -1.588793,0.9666 3.028582,4.9782 -6.206167,-3.045 -1.588793,0.9666 z m 11.222082,-4.2156 c -0.41229,0.252 -0.676245,0.504 -0.931341,0.855 -0.244998,0.354 -0.477936,0.81 -0.566592,1.2156 -0.09178,0.402 -0.09434,0.7386 -0.0141,1.1694 0.07928,0.432 0.250614,0.8892 0.49728,1.2942 0.255708,0.42 0.582192,0.7632 0.92034,1.0362 0.34482,0.27 0.654675,0.42 1.045068,0.522 0.390396,0.108 0.807423,0.192 1.234037,0.12 0.426606,-0.072 0.866697,-0.24 1.292968,-0.498 0.614941,-0.372 1.074454,-0.8364 1.329967,-1.392 0.258618,-0.552 0.29739,-1.1862 0.115986,-1.956 l -1.271035,0.7728 c 0.05088,0.192 -0.04176,0.396 -0.16485,0.6834 -0.129318,0.276 -0.313104,0.48 -0.613582,0.6612 -0.419286,0.258 -0.79203,0.342 -1.146617,0.264 -0.360822,-0.09 -0.758214,-0.342 -1.068249,-0.8022 l 3.919022,-2.3838 c -0.227922,-0.438 -0.483084,-0.7758 -0.814416,-1.1004 -0.331734,-0.324 -0.661599,-0.6366 -1.068249,-0.8016 -0.400602,-0.168 -0.849533,-0.258 -1.298588,-0.228 -0.45468,0 -0.937683,0.282 -1.398888,0.564 z m 3.134034,-1.7658 4.980876,4.371 1.588788,-0.9666 -1.343316,-4.1166 3.249864,2.9568 1.482876,-0.9024 -1.591446,-6.4326 -1.482876,0.9018 1.196028,4.3518 -3.2085,-3.1272 -1.376952,0.8376 1.301946,4.287 -3.208495,-3.1272 -1.588793,0.9666 z m -2.491645,2.8218 c 0.363372,-0.222 0.747493,-0.288 1.040697,-0.198 0.300186,0.084 0.534768,0.318 0.833229,0.654 l -2.436148,1.482 c -0.0585,-0.114 -0.04128,-0.228 -0.08742,-0.384 -0.03912,-0.156 -0.06299,-0.378 -0.04698,-0.552 0.0261,-0.18 0.08294,-0.234 0.189906,-0.402 0.107706,-0.186 0.270066,-0.45 0.50766,-0.6 z"
       id="text2998"
       inkscape:connector-curvature="0" />
  </g>
</svg>
