<?xml version="1.0" encoding="UTF-8" standalone="no"?>
<!-- Created with Inkscape (http://www.inkscape.org/) -->

<svg
   xmlns:dc="http://purl.org/dc/elements/1.1/"
   xmlns:cc="http://creativecommons.org/ns#"
   xmlns:rdf="http://www.w3.org/1999/02/22-rdf-syntax-ns#"
   xmlns:svg="http://www.w3.org/2000/svg"
   xmlns="http://www.w3.org/2000/svg"
   xmlns:sodipodi="http://sodipodi.sourceforge.net/DTD/sodipodi-0.dtd"
   xmlns:inkscape="http://www.inkscape.org/namespaces/inkscape"
   width="96"
   height="96.000053"
   id="svg2"
   version="1.1"
   inkscape:version="0.48.4 r9939"
   sodipodi:docname="media-optical-burn (copy).svg">
  <defs
     id="defs4">
    <filter
       id="filter3174"
       color-interpolation-filters="sRGB">
      <feGaussianBlur
         stdDeviation="1.71"
         id="feGaussianBlur3176" />
    </filter>
    <linearGradient
       gradientTransform="scale(1.0058652,0.994169)"
       gradientUnits="userSpaceOnUse"
       id="ButtonShadow"
       y2="7.0165396"
       x2="45.447727"
       y1="92.539597"
       x1="45.447727">
      <stop
         offset="0"
         style="stop-color:#000000;stop-opacity:1"
         id="stop3750" />
      <stop
         offset="1"
         style="stop-color:#000000;stop-opacity:0.58823532"
         id="stop3752" />
    </linearGradient>
  </defs>
  <sodipodi:namedview
     id="base"
     pagecolor="#ffffff"
     bordercolor="#666666"
     borderopacity="1.0"
     inkscape:pageopacity="0.0"
     inkscape:pageshadow="2"
     inkscape:zoom="5.9062467"
     inkscape:cx="48"
     inkscape:cy="48.000027"
     inkscape:document-units="px"
     inkscape:current-layer="layer1"
     showgrid="true"
     inkscape:snap-page="true"
     inkscape:snap-global="false"
     inkscape:snap-object-midpoints="true"
     inkscape:object-nodes="true"
     inkscape:window-width="1305"
     inkscape:window-height="744"
     inkscape:window-x="61"
     inkscape:window-y="24"
     inkscape:window-maximized="1"
     inkscape:snap-nodes="true"
     inkscape:snap-bbox="true"
     inkscape:object-paths="true"
     inkscape:snap-center="true"
     fit-margin-top="0"
     fit-margin-left="0"
     fit-margin-right="0"
     fit-margin-bottom="0"
     inkscape:snap-grids="true"
     inkscape:snap-to-guides="true">
    <inkscape:grid
       type="xygrid"
       id="grid2995"
       empspacing="5"
       visible="true"
       enabled="true"
       snapvisiblegridlinesonly="true"
       originx="1.0145179px"
       originy="0.9969px" />
  </sodipodi:namedview>
  <metadata
     id="metadata7">
    <rdf:RDF>
      <cc:Work
         rdf:about="">
        <dc:format>image/svg+xml</dc:format>
        <dc:type
           rdf:resource="http://purl.org/dc/dcmitype/StillImage" />
        <dc:title />
      </cc:Work>
    </rdf:RDF>
  </metadata>
  <g
     inkscape:label="Layer 1"
     inkscape:groupmode="layer"
     id="layer1"
     transform="translate(1.0145179,-957.35895)">
    <g
       id="layer2"
       style="display:none"
       transform="translate(68.37696,846.74396)">
      <rect
         width="86"
         height="85"
         rx="6"
         ry="6"
         x="5"
         y="7"
         id="rect3745"
         style="opacity:0.9;fill:url(#ButtonShadow);fill-opacity:1;fill-rule:nonzero;stroke:none;filter:url(#filter3174)" />
    </g>
    <path
       style="fill:#ffffff;fill-opacity:0;fill-rule:nonzero;stroke:none"
       d="m 27.087057,957.3589 c -8.082838,0 -17.5919607,0.9372 -22.5234488,6.1644 -4.93147742,5.2272 -5.5781261,14.4462 -5.5781261,21.9372 0,13.266 0,26.5314 0,39.7974 0,7.4904 0.64664868,16.71 5.5781261,21.9372 4.9314881,5.2272 14.4406108,6.1638 22.5234488,6.1638 13.265634,0 26.531262,0 39.796885,0 8.082798,0 17.591934,-0.9366 22.523412,-6.1638 4.93149,-5.2272 5.578128,-14.4468 5.578128,-21.9372 0,-13.266 0,-26.5314 0,-39.7974 0,-7.491 -0.646638,-16.71 -5.578128,-21.9372 -4.931478,-5.2272 -14.440614,-6.1644 -22.523412,-6.1644 -13.265623,0 -26.531251,0 -39.796885,0 z"
       id="path3763"
       inkscape:connector-curvature="0"
       sodipodi:nodetypes="csccsccsccscc" />
    <path
       style="fill:#cccccc;fill-opacity:1;fill-rule:evenodd;stroke:none"
       d="m 5.0792321,963.3901 0,84 83.9999999,0 0,-84 -83.9999999,0 z m 5.9999999,6 72,0 0,72 -72,0 0,-72 z"
       id="rect2993"
       inkscape:connector-curvature="0" />
    <path
       style="fill:#262626;fill-opacity:1;fill-rule:evenodd;stroke:none"
       d="m 83.079232,969.3901 0,72 -72,0 0,-72 z"
       id="rect2995"
       inkscape:connector-curvature="0"
       sodipodi:nodetypes="ccccc" />
    <path
       style="fill:#cccccc;fill-opacity:1;fill-rule:evenodd;stroke:none"
       d="m 46.985482,975.3592 c -16.568542,0 -30,13.43146 -30,30 0,16.5685 13.431458,30 30,30 16.568545,0 30.000001,-13.4315 30.000001,-30 0,-16.56854 -13.431456,-30 -30.000001,-30 z m 0,18 c 6.627417,0 12,5.37259 12,12 0,6.6274 -5.372583,12 -12,12 -6.627416,0 -12,-5.3726 -12,-12 0,-6.62741 5.372584,-12 12,-12 z"
       id="path3002"
       inkscape:connector-curvature="0" />
    <path
       style="fill:#000000;fill-opacity:0.66210043;fill-rule:evenodd;stroke:none"
       d="m 62.735482,986.9842 c -4.837905,6.6852 -7.427736,13.6704 -3.1875,19.875 2.269722,3.321 0.43503,6.7968 -2.625,7.5 -0.903119,0.078 -0.95123,-0.5085 -1.6875,-0.5625 -5.409129,-0.3876 -7.242901,-3.5235 -5.8125,-8.0625 1.393571,-4.4221 -0.575979,-8.00851 -4.125,-11.625 -0.990633,-1.0098 -1.495057,-1.9686 -2.8125,-3 0.431742,2.0742 -0.05664,2.6436 0,4.125 0.281761,7.3661 -2.927049,9.5513 -6.9375,11.25 -3.396853,1.4382 -6.896993,3.1938 -7.875,10.5 -8.841032,-7.9056 -1.042632,-14.4279 0.9375,-23.4375 -2.565606,5.3652 -7.349168,5.9349 -11.0625,8.8125 -0.10809,1.035 -0.5625,1.9356 -0.5625,3 0,4.1418 0.919417,8.0358 2.4375,11.625 1.518083,3.5886 3.660534,6.8481 6.375,9.5625 2.714466,2.7144 5.97335,4.857 9.5625,6.375 3.589151,1.518 7.482865,2.4375 11.625,2.4375 4.142136,0 8.03585,-0.9195 11.625,-2.4375 3.589152,-1.518 6.848035,-3.6606 9.562501,-6.375 2.714466,-2.7144 4.856916,-5.9739 6.375,-9.5625 1.128066,-2.6676 1.562364,-5.6298 1.875,-8.625 -0.59838,-4.1172 -2.765814,-7.9596 -6.5625,-9.75 -5.22822,-2.466 -7.622143,-7.0578 -7.125001,-11.625 z"
       id="path3788"
       inkscape:connector-curvature="0" />
    <path
       style="fill:#cccccc;fill-opacity:0.42009133;fill-rule:evenodd;stroke:none"
       d="m 61.985482,995.7967 c -1.113036,5.4642 -0.278922,8.9439 2.437501,13.3125 1.937304,3.1158 -0.757104,10.9428 -6.187501,10.875 -5.124438,0.3916 -8.041493,-1.0502 -10.125,-3.1875 -0.981327,-1.0067 -2.194667,-1.9124 -2.625,-3.375 -1.095751,-3.7242 3.382851,-5.9736 0.5625,-13.125 0.09284,6.526 -4.445988,7.9449 -8.8125,10.5 -3.371172,1.9727 -6.657169,4.5699 -7.6875,11.25 -8.841032,-6.861 -9.855132,-11.3058 -7.875,-19.125 -1.876926,1.3319 -2.768007,3.9825 -3.9375,6.375 0.363213,2.6448 0.681624,5.3093 1.6875,7.6875 1.518083,3.5892 3.660534,6.848 6.375,9.5625 2.714466,2.7145 5.97335,4.8569 9.5625,6.375 3.589151,1.5181 7.482865,2.4375 11.625,2.4375 4.142136,0 8.03585,-0.9194 11.625,-2.4375 3.589152,-1.5181 6.848035,-3.6605 9.562501,-6.375 2.714466,-2.7145 4.856916,-5.9733 6.375,-9.5625 0.883686,-2.0893 1.107936,-4.4506 1.5,-6.75 -1.050264,-2.7946 -3.063516,-5.2841 -6.1875,-6.5625 -5.22822,-2.1402 -7.017643,-3.4026 -7.875001,-7.875 z"
       id="path3779"
       inkscape:connector-curvature="0" />
  </g>
</svg>
