<?xml version="1.0" encoding="UTF-8" standalone="no"?>
<!-- Created with Inkscape (http://www.inkscape.org/) -->

<svg
   xmlns:dc="http://purl.org/dc/elements/1.1/"
   xmlns:cc="http://creativecommons.org/ns#"
   xmlns:rdf="http://www.w3.org/1999/02/22-rdf-syntax-ns#"
   xmlns:svg="http://www.w3.org/2000/svg"
   xmlns="http://www.w3.org/2000/svg"
   xmlns:sodipodi="http://sodipodi.sourceforge.net/DTD/sodipodi-0.dtd"
   xmlns:inkscape="http://www.inkscape.org/namespaces/inkscape"
   width="96"
   height="96.000053"
   id="svg2"
   version="1.1"
   inkscape:version="0.48.4 r9939"
   sodipodi:docname="redo.svg">
  <defs
     id="defs4">
    <filter
       id="filter3174"
       color-interpolation-filters="sRGB">
      <feGaussianBlur
         stdDeviation="1.71"
         id="feGaussianBlur3176" />
    </filter>
    <linearGradient
       gradientTransform="scale(1.0058652,0.994169)"
       gradientUnits="userSpaceOnUse"
       id="ButtonShadow"
       y2="7.0165396"
       x2="45.447727"
       y1="92.539597"
       x1="45.447727">
      <stop
         offset="0"
         style="stop-color:#000000;stop-opacity:1"
         id="stop3750" />
      <stop
         offset="1"
         style="stop-color:#000000;stop-opacity:0.58823532"
         id="stop3752" />
    </linearGradient>
  </defs>
  <sodipodi:namedview
     id="base"
     pagecolor="#ffffff"
     bordercolor="#666666"
     borderopacity="1.0"
     inkscape:pageopacity="0.0"
     inkscape:pageshadow="2"
     inkscape:zoom="35.4375"
     inkscape:cx="12.613978"
     inkscape:cy="8.0001034"
     inkscape:document-units="px"
     inkscape:current-layer="layer1"
     showgrid="true"
     inkscape:snap-page="true"
     inkscape:snap-global="true"
     inkscape:snap-object-midpoints="true"
     inkscape:object-nodes="true"
     inkscape:window-width="1305"
     inkscape:window-height="744"
     inkscape:window-x="61"
     inkscape:window-y="24"
     inkscape:window-maximized="1"
     inkscape:snap-nodes="true"
     inkscape:snap-bbox="true"
     inkscape:object-paths="true"
     inkscape:snap-center="true"
     fit-margin-top="0"
     fit-margin-left="0"
     fit-margin-right="0"
     fit-margin-bottom="0"
     inkscape:snap-grids="true"
     inkscape:snap-to-guides="true">
    <inkscape:grid
       type="xygrid"
       id="grid2995"
       empspacing="5"
       visible="true"
       enabled="true"
       snapvisiblegridlinesonly="true"
       originx="1.0145179px"
       originy="0.9969px" />
  </sodipodi:namedview>
  <metadata
     id="metadata7">
    <rdf:RDF>
      <cc:Work
         rdf:about="">
        <dc:format>image/svg+xml</dc:format>
        <dc:type
           rdf:resource="http://purl.org/dc/dcmitype/StillImage" />
        <dc:title />
      </cc:Work>
    </rdf:RDF>
  </metadata>
  <g
     inkscape:label="Layer 1"
     inkscape:groupmode="layer"
     id="layer1"
     transform="translate(1.0145179,-957.35895)">
    <g
       id="layer2"
       style="display:none"
       transform="translate(68.37696,846.74396)">
      <rect
         width="86"
         height="85"
         rx="6"
         ry="6"
         x="5"
         y="7"
         id="rect3745"
         style="opacity:0.9;fill:url(#ButtonShadow);fill-opacity:1;fill-rule:nonzero;stroke:none;filter:url(#filter3174)" />
    </g>
    <path
       style="fill:#ffffff;fill-opacity:0;fill-rule:nonzero;stroke:none"
       d="m 27.087057,957.3589 c -8.082838,0 -17.591961,0.9372 -22.5234488,6.1644 -4.93147742,5.2272 -5.5781261,14.4462 -5.5781261,21.9372 0,13.266 0,26.5314 0,39.7974 0,7.4904 0.64664868,16.71 5.5781261,21.9372 4.9314878,5.2272 14.4406108,6.1638 22.5234488,6.1638 13.265634,0 26.531262,0 39.796885,0 8.082798,0 17.591934,-0.9366 22.523412,-6.1638 4.93149,-5.2272 5.578128,-14.4468 5.578128,-21.9372 0,-13.266 0,-26.5314 0,-39.7974 0,-7.491 -0.646638,-16.71 -5.578128,-21.9372 -4.931478,-5.2272 -14.440614,-6.1644 -22.523412,-6.1644 -13.265623,0 -26.531251,0 -39.796885,0 z"
       id="path3763"
       inkscape:connector-curvature="0"
       sodipodi:nodetypes="csccsccsccscc" />
    <rect
       style="fill:#cccccc;fill-opacity:1;fill-rule:evenodd;stroke:none"
       id="rect2993"
       width="72"
       height="72"
       x="11.072589"
       y="969.37787" />
    <rect
       style="fill:#262626;fill-opacity:1;fill-rule:evenodd;stroke:none"
       id="rect2995"
       width="60"
       height="60"
       x="17.07259"
       y="975.37787" />
    <path
       style="fill:#cccccc;fill-opacity:1;fill-rule:evenodd;stroke:none"
       d="m 40.985482,987.3592 c -6.648,-0.0102 -12,5.35199 -12,12 l 0,12 c 0,6.648 5.351993,12 12,12 l 24.087109,0.019 0,-6 -24.087109,-0.019 c -3.323998,-0 -6,-2.6759 -6,-6 l 0,-12 c 0,-3.32414 2.676,-6 6,-6 l 12.087108,0.0192 0,-6 z"
       id="rect3002"
       inkscape:connector-curvature="0"
       sodipodi:nodetypes="ssssccssssccs" />
    <path
       style="fill:#cccccc;fill-opacity:1;fill-rule:evenodd;stroke:none"
       d="m 53.07259,981.3781 0,17.9814 18,-8.9808 z"
       id="rect3012"
       inkscape:connector-curvature="0"
       sodipodi:nodetypes="cccc" />
  </g>
</svg>
