<?xml version="1.0" encoding="UTF-8" standalone="no"?>
<!-- Created with Inkscape (http://www.inkscape.org/) -->

<svg
   xmlns:dc="http://purl.org/dc/elements/1.1/"
   xmlns:cc="http://creativecommons.org/ns#"
   xmlns:rdf="http://www.w3.org/1999/02/22-rdf-syntax-ns#"
   xmlns:svg="http://www.w3.org/2000/svg"
   xmlns="http://www.w3.org/2000/svg"
   xmlns:xlink="http://www.w3.org/1999/xlink"
   xmlns:sodipodi="http://sodipodi.sourceforge.net/DTD/sodipodi-0.dtd"
   xmlns:inkscape="http://www.inkscape.org/namespaces/inkscape"
   width="96"
   height="96"
   id="svg2"
   version="1.1"
   inkscape:version="0.48.4 r9939"
   sodipodi:docname="00 folder_concept.svg">
  <defs
     id="defs4">
    <linearGradient
       inkscape:collect="always"
       xlink:href="#linearGradient4678"
       id="linearGradient4174"
       x1="25"
       y1="-4"
       x2="25"
       y2="106"
       gradientUnits="userSpaceOnUse" />
    <linearGradient
       id="linearGradient4678">
      <stop
         id="stop4680"
         offset="0"
         style="stop-color:#fcbf78;stop-opacity:1;" />
      <stop
         id="stop4682"
         offset="1"
         style="stop-color:#bf5d00;stop-opacity:1;" />
    </linearGradient>
  </defs>
  <sodipodi:namedview
     id="base"
     pagecolor="#ffffff"
     bordercolor="#666666"
     borderopacity="1.0"
     inkscape:pageopacity="0.0"
     inkscape:pageshadow="2"
     inkscape:zoom="6.0196816"
     inkscape:cx="47.235959"
     inkscape:cy="50.481641"
     inkscape:document-units="px"
     inkscape:current-layer="layer1"
     showgrid="true"
     inkscape:snap-page="true"
     inkscape:snap-global="true"
     inkscape:snap-center="true"
     inkscape:snap-object-midpoints="false"
     showguides="true"
     inkscape:guide-bbox="true"
     inkscape:snap-bbox="true"
     inkscape:object-paths="true"
     inkscape:object-nodes="true"
     inkscape:window-width="1305"
     inkscape:window-height="744"
     inkscape:window-x="61"
     inkscape:window-y="24"
     inkscape:window-maximized="1"
     inkscape:snap-midpoints="false"
     inkscape:snap-grids="true"
     inkscape:snap-to-guides="false">
    <inkscape:grid
       type="xygrid"
       id="grid3002"
       empspacing="5"
       visible="true"
       enabled="true"
       snapvisiblegridlinesonly="true" />
  </sodipodi:namedview>
  <metadata
     id="metadata7">
    <rdf:RDF>
      <cc:Work
         rdf:about="">
        <dc:format>image/svg+xml</dc:format>
        <dc:type
           rdf:resource="http://purl.org/dc/dcmitype/StillImage" />
        <dc:title />
      </cc:Work>
    </rdf:RDF>
  </metadata>
  <g
     inkscape:label="Layer 1"
     inkscape:groupmode="layer"
     id="layer1"
     transform="translate(0,-956.36218)">
    <rect
       style="fill:#ffffff;fill-opacity:0;fill-rule:nonzero;stroke:none"
       id="rect3775"
       width="96"
       height="96"
       x="0"
       y="956.36218"
       ry="0" />
    <path
       style="fill:#000000;fill-opacity:0.09589041;fill-rule:nonzero;stroke:none"
       d="m 3.353015,956.30662 c -1.884176,0 -3.4111555,1.43156 -3.4111555,3.19799 l 0,83.65949 c 0,1.7665 1.5269795,3.1981 3.4111555,3.1981 l 89.23583,0 c 1.884174,0 3.411155,-1.4316 3.411155,-3.1981 l 0,-83.65949 c 0,-1.76643 -1.526981,-3.19799 -3.411155,-3.19799 z"
       id="rect3772"
       inkscape:connector-curvature="0"
       sodipodi:nodetypes="sssssssss" />
    <path
       style="fill:#000000;fill-opacity:0.18721463;fill-rule:nonzero;stroke:none"
       d="m 1.0459761,1041.8066 0,7.4219 c 0,1.7392 1.461916,3.1337 3.2852054,3.1337 l 86.3836135,0 c 1.823288,0 3.285205,-1.3945 3.285205,-3.1337 l 0,-7.4219 -92.9540239,0 z"
       id="rect3785"
       inkscape:connector-curvature="0" />
    <path
       style="fill:#000000;fill-opacity:0.38356168;fill-rule:nonzero;stroke:none"
       d="m 1.0459761,1041.8066 0,5.3807 c 0,1.762 1.461916,3.1749 3.2852054,3.1749 l 86.3836135,0 c 1.823288,0 3.285205,-1.4129 3.285205,-3.1749 l 0,-5.3807 -92.9540239,0 z"
       id="rect3783"
       inkscape:connector-curvature="0" />
    <rect
       style="fill:#6c4012;fill-opacity:1;fill-rule:nonzero;stroke:none"
       id="rect2985-2"
       width="93"
       height="88.999962"
       x="0.9999969"
       y="957.36224"
       ry="3.1511383" />
    <rect
       style="fill:#fff5ec;fill-opacity:1;fill-rule:evenodd;stroke:none"
       id="rect4074"
       width="35"
       height="19.999998"
       x="50"
       y="962.36218" />
    <path
       style="fill:url(#linearGradient4174);fill-opacity:1;fill-rule:nonzero;stroke:none"
       d="M 4.15625,1 C 2.4105194,1 1,2.4105194 1,4.15625 l 0,82.6875 C 1,88.589481 2.4105194,90 4.15625,90 l 86.6875,0 C 92.589481,90 94,88.589481 94,86.84375 l 0,-62.701346 c 0,-1.74573 -1.410519,-3.157185 -3.15625,-3.15625 L 65,21 C 55,21 55,1 45,1 z"
       transform="translate(0,956.36218)"
       id="rect4154"
       inkscape:connector-curvature="0"
       sodipodi:nodetypes="ssssssssccs" />
    <path
       style="fill:#000000;fill-opacity:0.38356168;fill-rule:nonzero;stroke:none"
       d="m 1,1042.3622 0.045976,2.7457 c 0.03024,1.8058 1.461916,3.2543 3.2852054,3.2543 l 86.3836136,0 c 1.823288,0 3.285205,-1.4481 3.285205,-3.2543 l -0.04598,-2.7457 z"
       id="rect3781"
       inkscape:connector-curvature="0"
       sodipodi:nodetypes="csssscc" />
    <rect
       style="fill:#000000;fill-opacity:0.30000001;fill-rule:nonzero;stroke:none"
       id="rect3770"
       width="92.954033"
       height="2.000005"
       x="1.045976"
       y="1030.3622" />
    <path
       style="fill:#ffffff;fill-opacity:0.53881276;fill-rule:nonzero;stroke:none"
       d="M 4.15625 1 C 2.4105194 1 1 2.4105194 1 4.15625 L 1 6.15625 C 1 4.41052 2.4105194 3 4.15625 3 L 45 3 C 55 3 55 23 65 23 L 90.84375 23 C 92.589481 22.99907 94 24.41052 94 26.15625 L 94 24.15625 C 94 22.41052 92.589481 20.999065 90.84375 21 L 65 21 C 55 21 55 1 45 1 L 4.15625 1 z "
       transform="translate(0,956.36218)"
       id="path4193" />
    <rect
       y="-1028.3622"
       x="1"
       height="1.0000026"
       width="92.954033"
       id="rect4206"
       style="fill:#ffffff;fill-opacity:0.17808222;fill-rule:nonzero;stroke:none"
       transform="scale(1,-1)" />
    <path
       style="fill:#000000;fill-opacity:0.39215687;fill-rule:evenodd;stroke:none"
       d="M 27.5 36.84375 L 10 54.34375 L 15.84375 54.34375 L 15.84375 66 L 39.15625 66 L 39.15625 54.34375 L 45 54.34375 L 27.5 36.84375 z "
       transform="translate(0,956.36218)"
       id="rect4220" />
    <path
       style="fill:#000000;fill-opacity:0.39215687;fill-rule:evenodd;stroke:none"
       d="M 27.5 36.84375 L 10 54.34375 L 12 54.34375 L 27.5 38.84375 L 43 54.34375 L 45 54.34375 L 27.5 36.84375 z "
       transform="translate(0,956.36218)"
       id="path4226" />
    <path
       style="fill:#ffffff;fill-opacity:0.38356164;fill-rule:evenodd;stroke:none"
       d="M 10.84375,1010.6927 10,1011.5365 l 5.84375,0 0,-0.8438 -5,0 z m 28.3125,0 0,0.8438 5.84375,0 -0.84375,-0.8438 -5,0 z m -23.3125,11.6563 0,0.8437 23.3125,0 0,-0.8437 -23.3125,0 z"
       id="path4231"
       inkscape:connector-curvature="0" />
  </g>
</svg>
