<?xml version="1.0" encoding="UTF-8" standalone="no"?>
<!-- Created with Inkscape (http://www.inkscape.org/) -->

<svg
   xmlns:dc="http://purl.org/dc/elements/1.1/"
   xmlns:cc="http://creativecommons.org/ns#"
   xmlns:rdf="http://www.w3.org/1999/02/22-rdf-syntax-ns#"
   xmlns:svg="http://www.w3.org/2000/svg"
   xmlns="http://www.w3.org/2000/svg"
   xmlns:xlink="http://www.w3.org/1999/xlink"
   xmlns:sodipodi="http://sodipodi.sourceforge.net/DTD/sodipodi-0.dtd"
   xmlns:inkscape="http://www.inkscape.org/namespaces/inkscape"
   width="16.000002"
   height="16.000002"
   id="svg2"
   sodipodi:version="0.32"
   inkscape:version="0.48.4 r9939"
   version="1.0"
   sodipodi:docname="dialog-question-symbolic.svg"
   inkscape:output_extension="org.inkscape.output.svg.inkscape">
  <defs
     id="defs4">
    <linearGradient
       inkscape:collect="always"
       xlink:href="#linearGradient5132"
       id="linearGradient3045"
       gradientUnits="userSpaceOnUse"
       gradientTransform="matrix(0,-0.97239493,0.97239493,0,-168.85358,1062.8559)"
       x1="0"
       y1="64"
       x2="128"
       y2="64" />
    <linearGradient
       id="linearGradient5132">
      <stop
         id="stop5134"
         offset="0"
         style="stop-color:#0658b9;stop-opacity:1;" />
      <stop
         id="stop5136"
         offset="1"
         style="stop-color:#0098fa;stop-opacity:1;" />
    </linearGradient>
  </defs>
  <sodipodi:namedview
     id="base"
     pagecolor="#ffffff"
     bordercolor="#9a9a9a"
     borderopacity="1"
     inkscape:pageopacity="0.0"
     inkscape:pageshadow="2"
     inkscape:zoom="22.762856"
     inkscape:cx="9.955269"
     inkscape:cy="6.5299068"
     inkscape:document-units="px"
     inkscape:current-layer="layer3"
     showgrid="true"
     inkscape:showpageshadow="false"
     showguides="true"
     inkscape:guide-bbox="true"
     inkscape:window-width="1305"
     inkscape:window-height="744"
     inkscape:window-x="61"
     inkscape:window-y="24"
     inkscape:window-maximized="1"
     fit-margin-top="0"
     fit-margin-left="0"
     fit-margin-right="0"
     fit-margin-bottom="0">
    <sodipodi:guide
       orientation="1,0"
       position="15.202418,112.45923"
       id="guide2383" />
    <sodipodi:guide
       orientation="0,1"
       position="41.480564,128.45923"
       id="guide2385" />
    <sodipodi:guide
       orientation="1,0"
       position="143.20242,54.541348"
       id="guide2387" />
    <sodipodi:guide
       orientation="0,1"
       position="93.358709,0.4592288"
       id="guide2389" />
    <inkscape:grid
       type="xygrid"
       id="grid3672"
       visible="true"
       enabled="true"
       empspacing="5"
       snapvisiblegridlinesonly="true"
       originx="15.202418px"
       originy="0.4592288px" />
  </sodipodi:namedview>
  <metadata
     id="metadata7">
    <rdf:RDF>
      <cc:Work
         rdf:about="">
        <dc:format>image/svg+xml</dc:format>
        <dc:type
           rdf:resource="http://purl.org/dc/dcmitype/StillImage" />
        <dc:title />
      </cc:Work>
    </rdf:RDF>
  </metadata>
  <g
     inkscape:groupmode="layer"
     id="layer3"
     inkscape:label="Cross"
     style="display:inline"
     transform="translate(14.738157,-3.4592082)">
    <path
       style="fill:#999999;fill-opacity:1;stroke:none"
       d="m -10.053373,3.4592082 6.6304345,0 c 0.3367066,0 0.687261,0.010851 1.0380435,0.039106 0.3507824,0.028246 0.7044483,0.071292 1.0380434,0.1452513 0.3335952,0.073959 0.64963811,0.1757121 0.93478262,0.3128491 0.28514452,0.1371369 0.53913477,0.3129438 0.7445652,0.530726 0.20543078,0.2177823 0.36347426,0.4737375 0.48913043,0.7597763 0.12565617,0.2860388 0.21778245,0.6028637 0.28260865,0.927374 0.064826,0.3245103 0.1020592,0.6612181 0.125,0.9944131 0.022941,0.333195 0.032609,0.6599738 0.032609,0.9720667 l 0,6.6312973 c 0,0.31208 -0.00967,0.644451 -0.032609,0.977644 -0.022941,0.333193 -0.060174,0.669908 -0.125,0.994413 -0.064826,0.324505 -0.15695248,0.635745 -0.28260865,0.921797 -0.12565617,0.286033 -0.28369965,0.547575 -0.48913043,0.765354 -0.1027153,0.108907 -0.21757182,0.203584 -0.34239129,0.290502 -0.12481948,0.08692 -0.25960174,0.166078 -0.40217391,0.234637 -0.28514451,0.137135 -0.60118742,0.238892 -0.93478262,0.312849 -0.3335951,0.07396 -0.687261,0.122601 -1.0380434,0.150847 -0.3507825,0.02823 -0.7013371,0.0391 -1.0380435,0.0391 l -6.6304345,0 c -0.336707,0 -0.687261,-0.01091 -1.038044,-0.0391 -0.350783,-0.02825 -0.704449,-0.07689 -1.038043,-0.150847 -0.333595,-0.07396 -0.649639,-0.175714 -0.934783,-0.312849 -0.142572,-0.06856 -0.277355,-0.147718 -0.402174,-0.234637 -0.124819,-0.08692 -0.239676,-0.181595 -0.342391,-0.290502 -0.20543,-0.217779 -0.363475,-0.479321 -0.489131,-0.765354 -0.125655,-0.286052 -0.217782,-0.597292 -0.282608,-0.921797 -0.06483,-0.324505 -0.102059,-0.66122 -0.125,-0.994413 -0.02294,-0.333193 -0.03261,-0.665564 -0.03261,-0.977644 l 0,-6.6312973 c 0,-0.3120929 0.0097,-0.6388717 0.03261,-0.9720667 0.02294,-0.333195 0.06017,-0.6699028 0.125,-0.9944131 0.06483,-0.3245103 0.156953,-0.6413352 0.282608,-0.927374 0.125656,-0.2860388 0.283701,-0.541994 0.489131,-0.7597763 0.205431,-0.2177822 0.459421,-0.3935891 0.744565,-0.530726 0.285144,-0.137137 0.601188,-0.2388898 0.934783,-0.3128491 0.333594,-0.073959 0.68726,-0.1170055 1.038043,-0.1452513 0.350783,-0.028246 0.701337,-0.039106 1.038044,-0.039106 z"
       id="path3092"
       inkscape:connector-curvature="0" />
    <g
       style="font-size:69.23865509px;font-style:normal;font-variant:normal;font-weight:normal;font-stretch:normal;text-align:end;line-height:125%;letter-spacing:0px;word-spacing:0px;text-anchor:end;fill:#ffffff;fill-opacity:1;stroke:none;font-family:mry_KacstQurn;-inkscape-font-specification:mry_KacstQurn"
       id="text3034"
       transform="matrix(0.22113849,0,0,0.22731547,-17.463619,-216.76139)">
      <path
         d="m 65.28179,990.44778 c -3.4e-5,1.8482 -0.293036,3.50479 -0.879006,4.96976 -0.563499,1.46505 -1.419966,2.80609 -2.569404,4.02315 -1.149499,1.21711 -2.59197,2.34401 -4.327416,3.38081 -1.71296,1.0142 -3.718895,1.9947 -6.017812,2.9413 l -1.386126,6.2882 -4.225992,0 -1.386125,-8.5196 c 1.983383,-0.7888 3.606163,-1.7129 4.868343,-2.7722 1.262143,-1.08183 2.253841,-2.2313 2.975098,-3.44841 0.743753,-1.23959 1.250871,-2.53556 1.521357,-3.88791 0.270441,-1.35229 0.405672,-2.71587 0.405695,-4.09076 -2.3e-5,-1.10436 -0.101446,-2.10733 -0.304271,-3.00891 -0.20287,-0.92404 -0.52968,-1.71289 -0.98043,-2.36656 -0.428256,-0.67611 -0.991721,-1.1945 -1.690397,-1.55516 -0.676178,-0.36057 -1.487568,-0.54088 -2.434171,-0.54093 -1.036794,5e-5 -1.90453,0.2367 -2.603212,0.70997 -0.698712,0.47335 -1.262177,1.10443 -1.690396,1.89324 -0.428247,0.7889 -0.743788,1.71298 -0.946623,2.77225 -0.180321,1.05936 -0.270476,2.17502 -0.270463,3.34699 -1.419944,4e-5 -2.727183,-0.10139 -3.921721,-0.30427 -1.194554,-0.20281 -2.23133,-0.49581 -3.11033,-0.87901 -0.856472,-0.40566 -1.53263,-0.91277 -2.028476,-1.52136 -0.473314,-0.6085 -0.70997,-1.31846 -0.709967,-2.1299 -3e-6,-1.12688 0.292999,-2.17493 0.879006,-3.14413 0.586001,-0.99166 1.476275,-1.84812 2.670827,-2.56941 1.217079,-0.72118 2.749704,-1.28465 4.59788,-1.69039 1.848154,-0.42819 4.045668,-0.64231 6.592548,-0.64236 2.434151,5e-5 4.688011,0.29306 6.761587,0.87901 2.073527,0.56352 3.865346,1.39744 5.375462,2.50179 1.510057,1.0819 2.693333,2.41168 3.549833,3.98934 0.856434,1.57774 1.284668,3.36956 1.284702,5.37546 m -23.057013,32.42182 c -1.1e-5,-1.0593 0.14649,-1.9383 0.439503,-2.637 0.29299,-0.7213 0.687416,-1.296 1.183278,-1.7242 0.518375,-0.4283 1.126917,-0.7325 1.825628,-0.9128 0.698682,-0.1803 1.442456,-0.2705 2.231324,-0.2705 0.766296,0 1.487531,0.09 2.163708,0.2705 0.698678,0.1803 1.30722,0.4845 1.825629,0.9128 0.518367,0.4282 0.924062,1.0029 1.217086,1.7242 0.315518,0.6987 0.473288,1.5777 0.473311,2.637 -2.3e-5,1.0368 -0.157793,1.9045 -0.473311,2.6032 -0.293024,0.6987 -0.698719,1.2622 -1.217086,1.6904 -0.518409,0.4282 -1.126951,0.7325 -1.825629,0.9128 -0.676177,0.2029 -1.397412,0.3043 -2.163708,0.3043 -0.788868,0 -1.532642,-0.1014 -2.231324,-0.3043 -0.698711,-0.1803 -1.307253,-0.4846 -1.825628,-0.9128 -0.495862,-0.4282 -0.890288,-0.9917 -1.183278,-1.6904 -0.293013,-0.6987 -0.439514,-1.5664 -0.439503,-2.6032"
         style="font-weight:bold;fill:#ffffff;font-family:Droid Serif;-inkscape-font-specification:Droid Serif Bold"
         id="path3039"
         inkscape:connector-curvature="0" />
    </g>
  </g>
</svg>
