<?xml version="1.0" encoding="UTF-8" standalone="no"?>
<!-- Created with Inkscape (http://www.inkscape.org/) -->

<svg
   xmlns:dc="http://purl.org/dc/elements/1.1/"
   xmlns:cc="http://creativecommons.org/ns#"
   xmlns:rdf="http://www.w3.org/1999/02/22-rdf-syntax-ns#"
   xmlns:svg="http://www.w3.org/2000/svg"
   xmlns="http://www.w3.org/2000/svg"
   xmlns:xlink="http://www.w3.org/1999/xlink"
   xmlns:sodipodi="http://sodipodi.sourceforge.net/DTD/sodipodi-0.dtd"
   xmlns:inkscape="http://www.inkscape.org/namespaces/inkscape"
   width="96"
   height="96"
   id="svg2"
   version="1.1"
   inkscape:version="0.48.4 r9939"
   sodipodi:docname="edittrash.svg">
  <defs
     id="defs4">
    <linearGradient
       id="linearGradient3808">
      <stop
         style="stop-color:#08322f;stop-opacity:1;"
         offset="0"
         id="stop3810" />
      <stop
         id="stop3820"
         offset="0.04253741"
         style="stop-color:#1eb5ad;stop-opacity:1;" />
      <stop
         id="stop3818"
         offset="0.2039075"
         style="stop-color:#1a9e9a;stop-opacity:1;" />
      <stop
         id="stop3816"
         offset="0.95696795"
         style="stop-color:#1eb5a6;stop-opacity:1;" />
      <stop
         style="stop-color:#97eee0;stop-opacity:1;"
         offset="1"
         id="stop3812" />
    </linearGradient>
    <linearGradient
       id="linearGradient3779">
      <stop
         style="stop-color:#16837e;stop-opacity:1;"
         offset="0"
         id="stop3781" />
      <stop
         style="stop-color:#5ae4d9;stop-opacity:1;"
         offset="1"
         id="stop3783" />
    </linearGradient>
    <linearGradient
       inkscape:collect="always"
       id="linearGradient3924">
      <stop
         style="stop-color:#ffffff;stop-opacity:1;"
         offset="0"
         id="stop3926" />
      <stop
         style="stop-color:#ffffff;stop-opacity:0;"
         offset="1"
         id="stop3928" />
    </linearGradient>
    <linearGradient
       inkscape:collect="always"
       xlink:href="#linearGradient3924"
       id="linearGradient3930"
       x1="40"
       y1="51"
       x2="40"
       y2="-4"
       gradientUnits="userSpaceOnUse" />
    <linearGradient
       inkscape:collect="always"
       xlink:href="#linearGradient3779"
       id="linearGradient3785"
       x1="40"
       y1="947.36218"
       x2="40"
       y2="997.36218"
       gradientUnits="userSpaceOnUse"
       gradientTransform="matrix(1,0,0,-1,0,1943.7244)" />
    <linearGradient
       inkscape:collect="always"
       xlink:href="#linearGradient3808"
       id="linearGradient3814"
       x1="1.0459771"
       y1="1001.8622"
       x2="94.000002"
       y2="1001.8622"
       gradientUnits="userSpaceOnUse" />
    <linearGradient
       gradientTransform="translate(0.2222222,1.008344)"
       inkscape:collect="always"
       xlink:href="#linearGradient3888"
       id="linearGradient3894"
       x1="20"
       y1="974.36218"
       x2="20"
       y2="961.36218"
       gradientUnits="userSpaceOnUse" />
    <linearGradient
       inkscape:collect="always"
       id="linearGradient3888">
      <stop
         style="stop-color:#ffffff;stop-opacity:1;"
         offset="0"
         id="stop3890" />
      <stop
         style="stop-color:#ffffff;stop-opacity:0;"
         offset="1"
         id="stop3892" />
    </linearGradient>
    <linearGradient
       gradientTransform="translate(0.2222222,957.37052)"
       inkscape:collect="always"
       xlink:href="#linearGradient3870"
       id="linearGradient3876"
       x1="11"
       y1="8.328125"
       x2="29"
       y2="8.328125"
       gradientUnits="userSpaceOnUse" />
    <linearGradient
       id="linearGradient3870">
      <stop
         style="stop-color:#2b2b2b;stop-opacity:1;"
         offset="0"
         id="stop3872" />
      <stop
         id="stop3880"
         offset="0.11111111"
         style="stop-color:#bcb6b6;stop-opacity:1;" />
      <stop
         id="stop3878"
         offset="0.8888889"
         style="stop-color:#a8a8a8;stop-opacity:1;" />
      <stop
         style="stop-color:#393939;stop-opacity:1;"
         offset="1"
         id="stop3874" />
    </linearGradient>
  </defs>
  <sodipodi:namedview
     id="base"
     pagecolor="#ffffff"
     bordercolor="#666666"
     borderopacity="1.0"
     inkscape:pageopacity="0.0"
     inkscape:pageshadow="2"
     inkscape:zoom="5.90625"
     inkscape:cx="15.238095"
     inkscape:cy="51.770002"
     inkscape:document-units="px"
     inkscape:current-layer="layer1"
     showgrid="true"
     inkscape:snap-page="true"
     inkscape:snap-global="true"
     inkscape:snap-center="true"
     inkscape:snap-object-midpoints="false"
     showguides="true"
     inkscape:guide-bbox="true"
     inkscape:snap-bbox="true"
     inkscape:object-paths="true"
     inkscape:object-nodes="true"
     inkscape:window-width="1305"
     inkscape:window-height="744"
     inkscape:window-x="61"
     inkscape:window-y="24"
     inkscape:window-maximized="1"
     inkscape:snap-midpoints="true"
     inkscape:snap-grids="true"
     inkscape:snap-to-guides="false">
    <inkscape:grid
       type="xygrid"
       id="grid3002"
       empspacing="5"
       visible="true"
       enabled="true"
       snapvisiblegridlinesonly="true" />
  </sodipodi:namedview>
  <metadata
     id="metadata7">
    <rdf:RDF>
      <cc:Work
         rdf:about="">
        <dc:format>image/svg+xml</dc:format>
        <dc:type
           rdf:resource="http://purl.org/dc/dcmitype/StillImage" />
        <dc:title />
      </cc:Work>
    </rdf:RDF>
  </metadata>
  <g
     inkscape:label="Layer 1"
     inkscape:groupmode="layer"
     id="layer1"
     transform="translate(0,-956.36218)">
    <rect
       style="fill:#ffffff;fill-opacity:0;fill-rule:nonzero;stroke:none"
       id="rect3775"
       width="96"
       height="96"
       x="0"
       y="956.36218"
       ry="0" />
    <path
       style="fill:#000000;fill-opacity:0.09589041;fill-rule:nonzero;stroke:none"
       d="m 3.353015,956.30662 c -1.884176,0 -3.4111555,1.43156 -3.4111555,3.19799 l 0,83.65949 c 0,1.7665 1.5269795,3.1981 3.4111555,3.1981 l 89.23583,0 c 1.884174,0 3.411155,-1.4316 3.411155,-3.1981 l 0,-83.65949 c 0,-1.76643 -1.526981,-3.19799 -3.411155,-3.19799 z"
       id="rect3772"
       inkscape:connector-curvature="0"
       sodipodi:nodetypes="sssssssss" />
    <path
       style="fill:#000000;fill-opacity:0.18721463;fill-rule:nonzero;stroke:none"
       d="m 1.0459761,1041.8066 0,7.4219 c 0,1.7392 1.461916,3.1337 3.2852054,3.1337 l 86.3836135,0 c 1.823288,0 3.285205,-1.3945 3.285205,-3.1337 l 0,-7.4219 -92.9540239,0 z"
       id="rect3785"
       inkscape:connector-curvature="0" />
    <path
       style="fill:#000000;fill-opacity:0.38356168;fill-rule:nonzero;stroke:none"
       d="m 1.0459761,1041.8066 0,5.3807 c 0,1.762 1.461916,3.1749 3.2852054,3.1749 l 86.3836135,0 c 1.823288,0 3.285205,-1.4129 3.285205,-3.1749 l 0,-5.3807 -92.9540239,0 z"
       id="rect3783"
       inkscape:connector-curvature="0" />
    <path
       style="fill:#000000;fill-opacity:0.38356168;fill-rule:nonzero;stroke:none"
       d="m 1,1042.3622 0.045976,2.7457 c 0.03024,1.8058 1.461916,3.2543 3.2852054,3.2543 l 86.3836136,0 c 1.823288,0 3.285205,-1.4481 3.285205,-3.2543 l -0.04598,-2.7457 z"
       id="rect3781"
       inkscape:connector-curvature="0"
       sodipodi:nodetypes="csssscc" />
    <rect
       style="fill:url(#linearGradient3814);fill-opacity:1;fill-rule:nonzero;stroke:none"
       id="rect2985"
       width="92.954025"
       height="89"
       x="1.0459771"
       y="957.36218"
       ry="3.1511393" />
    <path
       id="path3876"
       d="m 1.03125,989.20593 0,1.99997 c 0,1.7458 1.4105189,3.1563 3.15625,3.1563 l 86.65625,0 c 1.745731,0 3.15625,-1.4105 3.15625,-3.1563 l 0,-1.99997 c 0,1.74577 -1.410519,3.15627 -3.15625,3.15627 l -86.65625,0 c -1.7457311,0 -3.15625,-1.4105 -3.15625,-3.15627 z"
       style="fill:#ffffff;fill-opacity:0.32876712;fill-rule:nonzero;stroke:none"
       inkscape:connector-curvature="0" />
    <path
       inkscape:connector-curvature="0"
       style="fill:#000000;fill-opacity:0.32876713;fill-rule:nonzero;stroke:none"
       d="m 1.03125,987.20593 0,2 c 0,1.74577 1.4105189,3.15627 3.15625,3.15627 l 86.65625,0 c 1.745731,0 3.15625,-1.4105 3.15625,-3.15627 l 0,-2 c 0,1.74573 -1.410519,3.15627 -3.15625,3.15627 l -86.65625,0 c -1.7457311,0 -3.15625,-1.41054 -3.15625,-3.15627 z"
       id="path3878" />
    <path
       style="fill:url(#linearGradient3785);fill-opacity:1;fill-rule:nonzero;stroke:none"
       d="m 1.03125,960.51843 0,22.6875 c 0,0.87287 0.3679316,1.68043 0.9375,2.25 0.5695684,0.56957 1.3458844,0.90625 2.21875,0.90625 l 86.65625,0 c 0.872866,0 1.680432,-0.33668 2.25,-0.90625 C 93.663318,984.88636 94,984.0788 94,983.20593 l 0,-22.6875 c 0,-1.74573 -1.410519,-3.15625 -3.15625,-3.15625 l -86.65625,0 c -1.7457311,0 -3.15625,1.41052 -3.15625,3.15625 z"
       id="rect3888"
       inkscape:connector-curvature="0" />
    <path
       style="fill:url(#linearGradient3930);fill-opacity:1;fill-rule:nonzero;stroke:none;opacity:0.63374486"
       d="M 4.1875 1 C 2.4417689 1 1.03125 2.4105189 1.03125 4.15625 L 1.03125 26.84375 C 1.03125 27.716616 1.3991816 28.524182 1.96875 29.09375 C 2.5383184 29.663318 3.3146344 30 4.1875 30 L 90.84375 30 C 91.716616 30 92.524182 29.663318 93.09375 29.09375 C 93.663318 28.524182 94 27.716616 94 26.84375 L 94 4.15625 C 94 2.4105189 92.589481 1 90.84375 1 L 4.1875 1 z M 4.1875 2.625 L 90.84375 2.625 C 91.712113 2.625 92.375 3.287887 92.375 4.15625 L 92.375 26.84375 C 92.375 27.297772 92.18967 27.68533 91.9375 27.9375 C 91.68533 28.18967 91.297772 28.375 90.84375 28.375 L 4.1875 28.375 C 3.7334789 28.375 3.398235 28.210735 3.125 27.9375 C 2.8517658 27.664266 2.65625 27.258896 2.65625 26.84375 L 2.65625 4.15625 C 2.65625 3.287887 3.319137 2.625 4.1875 2.625 z "
       transform="translate(0,956.36218)"
       id="path3915" />
    <path
       style="opacity:0.7078189;fill:#ffffff;fill-opacity:1;fill-rule:evenodd;stroke:none"
       d="m 51.753367,1007.0083 c -2.240148,0 -4.064071,1.5186 -4.064071,3.3783 0,1.8597 1.823923,3.3782 4.064071,3.3782 2.240149,0 4.064071,-1.5185 4.064071,-3.3782 0,-1.8597 -1.823922,-3.3783 -4.064071,-3.3783 z m -0.355606,7.7726 c -3.574902,0.041 -7.973256,1.2607 -11.4302,4.2672 12.905921,-3.2069 9.012047,5.8387 7.366129,14.4275 5.531108,-9.6209 9.20549,-9.6209 11.049193,0 0.178038,-8.7742 3.239321,-18.7375 -6.985122,-18.6947 z m -10.210978,4.8515 c -0.638246,0.5121 -1.378243,0.9525 -2.413042,1.1176 0.820983,0.8821 0.817479,1.622 1.092219,2.413 1.020988,-0.055 1.840258,-0.39 2.413042,-1.0922 -0.05273,-0.9481 -0.493949,-1.7383 -1.092219,-2.4384 z m 2.87025,2.2606 c -0.375204,0.1276 -0.771709,0.1976 -1.270022,0.1016 0.22786,0.5373 0.107328,0.8898 0.101601,1.2954 0.473783,0.1439 0.893185,0.1233 1.270023,-0.1016 0.13275,-0.4403 0.05496,-0.8778 -0.101602,-1.2954 z m -8.153542,1.9559 1.828831,9.6267 5.537297,0 1.854232,-9.6267 -9.22036,0 z"
       id="rect3831"
       inkscape:connector-curvature="0" />
    <path
       style="font-size:11px;font-style:normal;font-variant:normal;font-weight:normal;font-stretch:normal;text-align:end;line-height:125%;letter-spacing:0px;word-spacing:0px;text-anchor:end;fill:#ffffff;fill-opacity:1;stroke:none;font-family:Andale Mono;-inkscape-font-specification:Andale Mono"
       d="m 58.200119,999.00258 -2.52336,4.91932 0.605076,0.3168 2.043728,-3.9772 -0.437022,4.8023 0.23793,0.115 0.585249,0.3071 2.523362,-4.9192 -0.605077,-0.3168 -2.110784,4.1159 -0.01983,-0.012 0.48425,-4.95065 -0.198276,-0.0954 -0.585249,-0.30727 z m -2.790341,-0.95675 -0.879986,-0.25393 -3.065608,4.8773 0.691958,0.1876 0.818921,-1.3407 1.700491,0.4792 -0.04765,1.5665 0.68238,0.2074 0.0995,-5.72337 z m 9.296261,5.00477 -3.746438,4.0594 2.144515,1.9898 0.407681,-0.4388 -1.6359,-1.524 3.338757,-3.6206 -0.508615,-0.4658 z m -13.149931,-5.93727 -0.680374,-0.0598 -0.185986,2.25779 -1.893415,-0.18105 0.205816,-2.24827 -0.680373,-0.0597 -0.486469,5.512 0.660545,0.051 0.249696,-2.64289 1.873588,0.17151 -0.22987,2.65238 0.680372,0.06 0.48647,-5.51197 z m 3.172417,1.53267 0.01983,0.0115 -0.06101,2.7585 -1.423574,-0.3943 1.464747,-2.37374 z m 12.892417,7.2803 -4.215398,3.6126 0.440222,0.5062 4.205818,-3.5929 -0.430642,-0.5259 z m -20.943063,-9.04215 -0.689282,0.009 0.252717,5.55115 0.679034,-0.039 -0.242469,-5.52174 z m 22.444854,10.84365 -4.667206,2.9787 0.382076,0.5759 3.758939,-2.4147 0.01983,0.011 -2.82257,3.9188 0.140801,0.2147 0.362248,0.5664 4.667208,-2.9787 -0.382078,-0.5759 -3.866319,2.4852 -0.01983,-0.011 2.899872,-4.0281 -0.110722,-0.1759 -0.362249,-0.5662 z M 43.855701,997.20805 c -0.258093,-0.10231 -0.582684,-0.12507 -0.975779,-0.0552 -0.346027,0.0609 -0.604465,0.17715 -0.793317,0.32601 -0.189751,0.14369 -0.337675,0.30014 -0.42684,0.47855 -0.08408,0.17749 -0.135293,0.36428 -0.140343,0.54361 -0.006,0.17415 0.0033,0.32543 0.02584,0.45268 0.04406,0.24934 0.123882,0.44234 0.224795,0.59764 0.105998,0.1545 0.222753,0.27807 0.359573,0.36935 0.141008,0.0851 0.300368,0.15621 0.465615,0.20051 0.169435,0.038 0.345872,0.074 0.51351,0.1011 0.172726,0.028 0.340712,0.043 0.503262,0.072 0.166737,0.023 0.312793,0.076 0.445118,0.1417 0.136511,0.06 0.245586,0.1517 0.338408,0.2613 0.0979,0.1092 0.168789,0.247 0.202959,0.4404 0.02607,0.1476 0.02598,0.2877 -0.0043,0.4137 -0.02512,0.1252 -0.0718,0.2448 -0.14302,0.3467 -0.06703,0.095 -0.153711,0.1734 -0.262654,0.2399 -0.108953,0.067 -0.23016,0.1194 -0.362463,0.1428 -0.244255,0.044 -0.451083,0.025 -0.601062,-0.022 -0.150881,-0.052 -0.260256,-0.131 -0.347986,-0.2415 -0.08773,-0.1103 -0.16095,-0.2463 -0.20229,-0.3912 -0.04223,-0.15 -0.07751,-0.2891 -0.104493,-0.4417 l -0.668117,0.1173 c 0.05125,0.2901 0.125875,0.5452 0.217223,0.7653 0.09554,0.214 0.21248,0.386 0.361581,0.517 0.154188,0.1303 0.332152,0.2237 0.555172,0.2683 0.228107,0.044 0.516402,0.045 0.836987,-0.011 0.193364,-0.034 0.389091,-0.099 0.578557,-0.1852 0.194551,-0.087 0.355982,-0.2202 0.497242,-0.3711 0.141252,-0.1509 0.252543,-0.3293 0.317453,-0.5558 0.06999,-0.2275 0.06419,-0.5119 0.0085,-0.8275 -0.05845,-0.3307 -0.164791,-0.5782 -0.325272,-0.7441 -0.160486,-0.16574 -0.353844,-0.27414 -0.566091,-0.34679 -0.207162,-0.0736 -0.427196,-0.12714 -0.661882,-0.14864 -0.230501,-0.0276 -0.443882,-0.0713 -0.651636,-0.11909 -0.202666,-0.0483 -0.373604,-0.11495 -0.525096,-0.22933 -0.151493,-0.11495 -0.24823,-0.3029 -0.293187,-0.55729 -0.05125,-0.29003 -0.008,-0.52637 0.118508,-0.70087 0.130773,-0.18059 0.335733,-0.28232 0.625785,-0.33359 0.157746,-0.0276 0.278023,-0.0368 0.393875,0 0.120041,0.0264 0.235803,0.0782 0.317243,0.15335 0.08054,0.0701 0.1341,0.16553 0.181125,0.28313 0.05121,0.1115 0.08823,0.23025 0.113401,0.37267 l 0.687944,-0.10805 c -0.100089,-0.50706 -0.297396,-0.85928 -0.585706,-1.0655 -0.07103,-0.0529 -0.162148,-0.11036 -0.24818,-0.14438 z m 27.78119,15.79405 c -0.135019,-0.045 -0.27361,-0.072 -0.424621,-0.083 -0.302033,-0.022 -0.635924,0.011 -0.973773,0.092 -0.333035,0.084 -0.657723,0.184 -0.980675,0.3088 -0.347057,0.1341 -0.670613,0.2932 -0.978668,0.4566 -0.308058,0.1633 -0.572573,0.3445 -0.780392,0.5522 -0.201137,0.2106 -0.324738,0.4495 -0.394088,0.7144 -0.06935,0.265 -0.04926,0.5578 0.08111,0.8952 0.111734,0.2892 0.292133,0.5097 0.520871,0.6429 0.233555,0.1314 0.473562,0.1955 0.721366,0.1773 l -0.695517,0.2754 0.183801,0.48 2.674687,-1.031 -0.622473,-1.5969 -0.509496,0.1941 0.388099,1.019 c -0.173531,0.067 -0.368663,0.1262 -0.578558,0.1851 -0.20804,0.064 -0.391741,0.1023 -0.589475,0.1069 -0.19774,0.011 -0.393824,-0.022 -0.562746,-0.1012 -0.164104,-0.081 -0.275249,-0.2461 -0.360911,-0.4677 -0.08566,-0.2218 -0.117849,-0.4173 -0.05727,-0.5902 0.06541,-0.175 0.192902,-0.3407 0.357778,-0.4875 0.171557,-0.1438 0.383714,-0.278 0.634696,-0.4026 0.25766,-0.1217 0.533447,-0.2406 0.832303,-0.356 0.29885,-0.1154 0.575476,-0.1961 0.843219,-0.2774 0.274419,-0.078 0.527874,-0.1214 0.746759,-0.1283 0.225558,-0.012 0.421422,0.023 0.582573,0.1104 0.165961,0.085 0.275242,0.2461 0.360911,0.4678 0.06144,0.159 0.101526,0.3038 0.08466,0.4322 -0.01206,0.1265 -0.06606,0.2288 -0.13344,0.3269 -0.06552,0.1023 -0.147839,0.2117 -0.261986,0.2891 -0.107469,0.08 -0.230556,0.1302 -0.361793,0.1921 l 0.265119,0.6661 c 0.04338,-0.017 0.09816,-0.037 0.18602,-0.082 0.09454,-0.042 0.205145,-0.095 0.302979,-0.1716 0.104504,-0.074 0.185512,-0.1704 0.281814,-0.2796 0.09628,-0.1092 0.189103,-0.2441 0.240819,-0.3971 0.05839,-0.1501 0.0859,-0.3254 0.08152,-0.5232 -0.0025,-0.1929 -0.05186,-0.412 -0.146823,-0.6578 -0.137812,-0.3567 -0.338829,-0.6147 -0.581692,-0.7701 -0.119026,-0.079 -0.241704,-0.1373 -0.376723,-0.1821 z M 39.421497,998.48966 c -0.322915,-0.13725 -0.701923,-0.13093 -1.112565,0.0253 l -1.675523,0.63339 1.971241,5.18305 0.636702,-0.2548 -0.868433,-2.3026 0.862378,-0.3171 c 0.08213,-0.031 0.167451,-0.055 0.255083,-0.072 0.09063,-0.023 0.182939,-0.039 0.275579,-0.014 0.0908,0.021 0.181184,0.071 0.268008,0.1539 0.08981,0.077 0.169177,0.2173 0.251525,0.3905 l 0.355346,0.7831 c 0.02867,0.061 0.05738,0.14 0.09157,0.2154 0.03717,0.069 0.07897,0.1383 0.120973,0.2052 0.04016,0.062 0.07897,0.1058 0.120304,0.156 0.04133,0.051 0.07964,0.088 0.119636,0.1069 l 0.774156,-0.2862 c -0.04782,-0.012 -0.101722,-0.027 -0.148372,-0.047 -0.04183,-0.023 -0.09331,-0.068 -0.139462,-0.1163 -0.048,-0.054 -0.09147,-0.1284 -0.140801,-0.2147 -0.04934,-0.086 -0.09255,-0.1996 -0.152387,-0.3427 l -0.386092,-0.8712 c -0.09885,-0.2168 -0.232437,-0.3801 -0.420394,-0.4966 -0.183131,-0.1184 -0.405157,-0.1519 -0.641386,-0.09 0.136925,-0.091 0.232526,-0.1938 0.300972,-0.3192 0.0666,-0.1304 0.113309,-0.2855 0.132102,-0.4253 0.01696,-0.1446 0.01343,-0.27395 -0.0156,-0.42328 -0.0242,-0.15116 -0.07114,-0.31129 -0.124318,-0.4513 -0.15588,-0.41073 -0.387323,-0.67064 -0.710237,-0.80789 z m -0.415253,0.60638 c 0.214441,0.0839 0.390427,0.24462 0.489456,0.50544 0.09535,0.25129 0.133114,0.47422 0.107171,0.63872 -0.02112,0.1628 -0.08449,0.3011 -0.171758,0.4062 -0.08727,0.1046 -0.189949,0.1832 -0.311889,0.2406 -0.117111,0.055 -0.211858,0.087 -0.303648,0.1223 l -0.636703,0.2549 -0.70446,-1.83216 0.774158,-0.28634 c 0.304358,-0.11553 0.543234,-0.13404 0.757676,-0.0494 z m 34.570685,18.24276 -5.462564,0.9803 0.117416,0.6681 1.866896,-0.3208 0.872414,0.4214 -2.356988,1.9427 0.128333,0.7468 2.853559,-2.363 2.577589,1.2452 -0.14816,-0.7563 -2.973472,-1.3876 -0.01023,-0.03 2.643061,-0.4595 -0.107837,-0.6878 z m -38.489159,-17.42131 -2.451899,1.48101 2.871266,4.7377 2.529872,-1.5413 -0.312347,-0.5177 -1.943742,1.1886 -1.037513,-1.6996 1.767968,-1.0779 -0.312345,-0.5178 -1.76797,1.078 -0.896713,-1.4849 1.865769,-1.1284 -0.312346,-0.51771 z m 39.174949,22.22801 -3.890862,-0.046 c -0.57873,-0.012 -1.017519,0.1364 -1.314399,0.3921 -0.29688,0.2556 -0.460919,0.6545 -0.466039,1.2177 -0.0049,0.5426 0.147079,0.9533 0.459838,1.2248 0.317879,0.2768 0.753892,0.421 1.286118,0.4257 l 3.900442,0.026 0.01046,-0.6796 -3.900441,-0.026 c -0.387544,-0.012 -0.693678,-0.078 -0.899145,-0.2144 -0.200303,-0.1361 -0.299152,-0.3926 -0.295864,-0.7543 0.0031,-0.3411 0.103112,-0.5702 0.295618,-0.7131 0.197622,-0.1378 0.50474,-0.223 0.912952,-0.2192 l 3.890862,0.046 0.01046,-0.6797 z m -42.765231,-18.9981 c -0.177722,-0.084 -0.360792,-0.1184 -0.533338,-0.1103 -0.172083,10e-5 -0.332314,0.028 -0.491007,0.1046 -0.158689,0.078 -0.303393,0.182 -0.439096,0.3015 l -1.274956,1.1203 3.661239,4.1656 1.11901,-1.0001 c 0.434241,-0.3827 0.684338,-0.7689 0.752535,-1.1528 0.06865,-0.391 -0.08748,-0.8021 -0.459837,-1.2248 -0.225467,-0.2559 -0.454879,-0.4258 -0.735628,-0.5021 -0.276876,-0.079 -0.583911,-0.033 -0.894462,0.1304 l -0.01983,-0.011 c 0.06914,-0.1092 0.120595,-0.2235 0.14302,-0.3466 0.0263,-0.1265 0.03239,-0.2623 0.01447,-0.3843 -0.01405,-0.1254 -0.03873,-0.2462 -0.09357,-0.3631 -0.05484,-0.1171 -0.138792,-0.2092 -0.220779,-0.3024 -0.17764,-0.2016 -0.346174,-0.345 -0.527774,-0.4261 z m -0.415254,0.6064 c 0.157405,0.051 0.311334,0.153 0.457374,0.3188 0.140062,0.159 0.214908,0.3187 0.242614,0.4596 0.03158,0.1374 0.03166,0.2496 -0.0048,0.3645 -0.03267,0.1115 -0.09234,0.2045 -0.163517,0.2878 -0.06729,0.079 -0.120153,0.1614 -0.174434,0.2092 l -0.593703,0.5202 -1.21061,-1.3919 0.584123,-0.5004 c 0.255895,-0.2255 0.474225,-0.3254 0.685268,-0.3048 0.05373,0 0.125312,0.019 0.17778,0.037 z m 1.836184,1.7675 c 0.12805,0.06 0.261912,0.1665 0.388311,0.3099 0.08882,0.1012 0.156353,0.2052 0.211201,0.3221 0.05873,0.1138 0.09981,0.2224 0.103147,0.3434 0.0072,0.1176 -0.02806,0.2507 -0.08354,0.3753 -0.05548,0.1246 -0.135196,0.2387 -0.270897,0.3583 l -0.71066,0.6104 -1.380147,-1.5472 0.623107,-0.5304 c 0.112435,-0.099 0.236866,-0.1869 0.361124,-0.2413 0.12472,-0.062 0.23139,-0.094 0.363131,-0.093 0.128324,0 0.263745,0.03 0.395214,0.093 z m 41.119149,21.7978 -5.422272,-1.1279 -0.148585,0.6619 4.39525,0.9252 -4.755459,0.8328 -0.04589,0.2468 -0.148586,0.6619 5.422272,1.1279 0.148584,-0.6619 -4.533374,-0.9429 0.0095,-0.02 4.883336,-0.8443 0.04656,-0.1976 0.148584,-0.6619 z m -46.472783,-21.4984 -1.77174,2.2498 4.340484,3.4176 1.829885,-2.3197 -0.458042,-0.3679 -1.423541,1.7822 -1.553244,-1.2394 1.288092,-1.6033 -0.477869,-0.3776 -1.297673,1.623 -1.334471,-1.0849 1.335989,-1.7023 -0.47787,-0.3775 z m -2.631654,3.4728 -0.345522,0.6647 1.458366,2.9545 -0.0095,0.019 -2.371072,-1.2678 -0.316784,0.6051 4.880937,2.6027 0.316786,-0.6052 -1.65661,-0.8736 -0.425747,-0.8905 3.062117,-0.061 0.345523,-0.6645 -3.682338,0.079 -1.256075,-2.5633 z m 45.269777,22.1157 c -0.341877,-0.1468 -0.665179,-0.2621 -0.999622,-0.3606 -0.334445,-0.099 -0.663489,-0.1479 -0.957289,-0.1447 -0.291092,0.012 -0.539966,0.097 -0.774828,0.2371 -0.234861,0.141 -0.438732,0.365 -0.581446,0.6973 -0.122324,0.2849 -0.147909,0.5634 -0.07751,0.8186 0.07514,0.2571 0.222276,0.4545 0.412153,0.6148 l -0.0095,0.02 -0.693298,-0.286 -0.200495,0.4655 2.635064,1.1263 0.687699,-1.5752 -0.505269,-0.2196 -0.439308,1.0105 c -0.170938,-0.073 -0.363901,-0.1636 -0.555172,-0.2682 -0.193312,-0.1 -0.343016,-0.2227 -0.487449,-0.3578 -0.144434,-0.1351 -0.275385,-0.2838 -0.341085,-0.4582 -0.06095,-0.1724 -0.03275,-0.3635 0.06103,-0.5819 0.09378,-0.2184 0.223598,-0.3672 0.387854,-0.4485 0.169005,-0.079 0.368964,-0.1168 0.589476,-0.107 0.22322,0.017 0.464343,0.071 0.730944,0.1575 0.269308,0.093 0.556856,0.1871 0.851249,0.3135 0.294391,0.1263 0.564678,0.2637 0.812933,0.3928 0.250957,0.1358 0.445022,0.2672 0.606415,0.4152 0.164094,0.1549 0.287585,0.3323 0.341752,0.5075 0.05891,0.1771 0.03275,0.3634 -0.06103,0.5819 -0.06728,0.1566 -0.149241,0.2877 -0.251069,0.3679 -0.09709,0.082 -0.206089,0.1388 -0.322807,0.1618 -0.118762,0.028 -0.248612,0.012 -0.384296,-0.015 -0.13298,-0.017 -0.258188,-0.046 -0.395214,-0.093 l -0.296287,0.6638 c 0.04273,0.018 0.113562,0.046 0.207854,0.076 0.097,0.036 0.212248,0.051 0.335731,0.064 0.126189,0.021 0.258911,0.034 0.404125,0.024 0.145207,-0.011 0.287625,-0.061 0.431524,-0.1339 0.146601,-0.067 0.284142,-0.1666 0.419268,-0.3111 0.13308,-0.1396 0.272287,-0.334 0.376267,-0.5762 0.150863,-0.3515 0.180108,-0.6661 0.115164,-0.947 -0.0602,-0.279 -0.193649,-0.5263 -0.394332,-0.7531 -0.200694,-0.2268 -0.454976,-0.4355 -0.756796,-0.6101 -0.297078,-0.1726 -0.604187,-0.3335 -0.922318,-0.4702 z m -4.016029,2.3395 -0.385847,0.5961 1.010996,1.1977 -0.994693,1.4514 -1.464567,-0.512 -0.405674,0.5867 5.402901,1.8766 0.511716,-0.7554 -3.674832,-4.4411 z m 1.005219,2.222 1.782054,2.1326 -0.0095,0.02 -2.612561,-0.9198 0.840087,-1.2326 z m -39.941926,-18.5145 -5.412693,-1.1477 -0.148584,0.6619 2.222242,0.4622 -0.388278,1.8667 -2.212663,-0.4821 -0.158164,0.6817 5.412692,1.1478 0.148585,-0.6619 -2.617456,-0.5554 0.408105,-1.8571 2.607878,0.5752 0.138336,-0.6913 z m 36.415109,19.892 -0.485654,0.499 3.135683,3.178 -4.399052,-1.9297 -0.184684,0.1798 -0.495901,0.4695 3.894485,3.9359 0.495902,-0.4697 -3.255317,-3.2845 0.0095,-0.02 4.557674,2.0063 0.145696,-0.1497 0.476075,-0.4792 -3.894485,-3.9358 z m -37.173846,-16.2967 -5.575506,1.3659 -0.01736,0.8964 5.499363,1.7277 2.11e-4,-0.7092 -1.493304,-0.4524 0.04498,-1.7635 1.512006,-0.3456 0.02962,-0.7193 z m -0.0935,3.99 -0.579897,0.086 0.335764,2.2409 -4.875095,0.7261 0.107837,0.688 5.464571,-0.8326 -0.433351,-2.8996 -0.01983,-0.012 z m -2.027345,-2.7891 -0.02916,1.4776 -2.660458,-0.8207 0.0095,-0.019 2.68004,-0.6372 z m 2.505703,6.1015 -4.773247,3.1476 0.287624,0.8727 5.758426,-0.226 -0.226133,-0.6963 -1.564585,0.1 -0.564329,-1.6667 1.317958,-0.855 -0.235714,-0.6764 z m -1.570574,1.8335 0.472093,1.402 -2.77562,0.1263 2.303527,-1.5283 z m 3.004674,2.2343 -2.512051,1.4031 0.8379,1.5054 0.498579,-0.2728 -0.544713,-0.9479 c 0.162002,-0.092 0.348658,-0.1846 0.547814,-0.2733 0.196621,-0.093 0.393117,-0.172 0.588136,-0.205 0.195024,-0.033 0.383532,0 0.562077,0.052 0.174047,0.055 0.311784,0.1713 0.428635,0.3783 0.116854,0.2071 0.170817,0.3994 0.135905,0.5793 -0.03942,0.1824 -0.136573,0.3566 -0.278469,0.5258 -0.148931,0.1671 -0.333997,0.3502 -0.564294,0.5099 -0.237334,0.1577 -0.502731,0.2962 -0.78173,0.4538 -0.278993,0.1575 -0.538817,0.3052 -0.791979,0.4244 -0.260194,0.1173 -0.510026,0.1978 -0.725592,0.2364 -0.222597,0.037 -0.419392,0.022 -0.591483,-0.041 -0.17658,-0.061 -0.322025,-0.2007 -0.438884,-0.4077 -0.08382,-0.1485 -0.121756,-0.2727 -0.123649,-0.4021 -0.0064,-0.1271 0.0215,-0.2488 0.07396,-0.3556 0.04994,-0.1115 0.120578,-0.2153 0.22233,-0.3084 0.09472,-0.095 0.200555,-0.1802 0.321468,-0.2604 l -0.35334,-0.6353 c -0.0405,0.023 -0.104929,0.074 -0.185351,0.1305 -0.08746,0.055 -0.167353,0.1302 -0.253076,0.2201 -0.09276,0.087 -0.172255,0.1967 -0.251737,0.3186 -0.07947,0.122 -0.142719,0.2473 -0.171757,0.4062 -0.03606,0.1568 -0.02559,0.3466 0.0074,0.5415 0.03042,0.1905 0.105492,0.3976 0.235043,0.6271 0.187985,0.333 0.416017,0.5516 0.678822,0.6704 0.258316,0.1211 0.527414,0.1783 0.829414,0.1561 0.302008,-0.022 0.620543,-0.095 0.942358,-0.2295 0.317322,-0.1316 0.627939,-0.2856 0.929433,-0.4557 0.323998,-0.183 0.616847,-0.3871 0.898019,-0.5934 0.281176,-0.2061 0.514594,-0.4336 0.690165,-0.6692 0.168531,-0.2376 0.264683,-0.4901 0.29495,-0.7623 0.03027,-0.2722 -0.04074,-0.5487 -0.218562,-0.8638 -0.152415,-0.27 -0.342984,-0.4546 -0.588594,-0.5533 -0.250108,-0.097 -0.506871,-0.1225 -0.749435,-0.068 l 0.0095,-0.02 0.644944,-0.3732 -0.252194,-0.4398 z m 1.846677,3.2644 -3.274802,4.7028 0.590602,0.7012 5.276298,-2.3665 -0.470299,-0.5451 -1.42868,0.6793 -1.131301,-1.3536 0.888652,-1.2827 -0.45047,-0.5354 z m 3.716038,3.8495 c -0.102297,-0.06 -0.191345,-0.087 -0.287166,-0.1138 -0.194965,-0.049 -0.389818,-0.054 -0.561407,0 -0.175541,0.048 -0.337873,0.1377 -0.498579,0.2727 -0.164657,0.1316 -0.31645,0.2893 -0.476075,0.4791 l -2.539207,3.0286 0.518195,0.446 2.509799,-3.0182 c 0.123045,-0.1465 0.244561,-0.2684 0.349538,-0.3692 0.104974,-0.1012 0.219403,-0.1693 0.322136,-0.2112 0.102734,-0.043 0.20054,-0.045 0.304986,-0.024 0.101124,0.024 0.208835,0.083 0.327491,0.1826 0.177987,0.1497 0.253928,0.2936 0.242616,0.4596 -0.01859,0.1667 -0.09941,0.3376 -0.249062,0.5155 l -0.251737,0.3186 0.488118,0.407 0.310551,-0.3391 c 0.106412,-0.1266 0.186233,-0.2684 0.250399,-0.4169 0.05689,-0.1481 0.07524,-0.2966 0.07262,-0.4541 -0.0059,-0.1536 -0.04494,-0.2968 -0.124318,-0.4514 -0.08001,-0.1617 -0.202753,-0.3277 -0.38074,-0.4774 -0.108768,-0.092 -0.225864,-0.1729 -0.328158,-0.2319 z m -4.502419,-1.5638 0.970672,1.1293 -2.535224,1.1474 -0.01983,-0.011 1.584381,-2.267 z"
       id="text3024"
       inkscape:connector-curvature="0" />
    <path
       style="fill:#000000;fill-opacity:1;fill-rule:evenodd;stroke:none"
       d="m 13.378472,963.37052 c -1.209028,0 -2.15625,1.14496 -2.15625,2.65626 l 0,4.64843 c 0,1.51128 0.947222,2.69531 2.15625,2.69531 l 13.6875,0 c 1.209028,0 2.15625,-1.18403 2.15625,-2.69531 l 0,-4.64843 c 0,-1.5113 -0.947222,-2.65626 -2.15625,-2.65626 l -13.6875,0 z"
       id="rect3787"
       inkscape:connector-curvature="0" />
    <path
       inkscape:connector-curvature="0"
       style="fill:url(#linearGradient3876);fill-opacity:1;fill-rule:evenodd;stroke:none"
       d="m 13.378472,963.37052 c -1.209028,0 -2.15625,1.14495 -2.15625,2.65625 l 0,2 c 0,-1.5113 0.947222,-2.65625 2.15625,-2.65625 l 13.6875,0 c 1.209028,0 2.15625,1.14495 2.15625,2.65625 l 0,-2 c 0,-1.5113 -0.947222,-2.65625 -2.15625,-2.65625 l -13.6875,0 z"
       id="path3097" />
    <path
       style="font-size:medium;font-style:normal;font-variant:normal;font-weight:normal;font-stretch:normal;text-indent:0;text-align:start;text-decoration:none;line-height:normal;letter-spacing:normal;word-spacing:normal;text-transform:none;direction:ltr;block-progression:tb;writing-mode:lr-tb;text-anchor:start;baseline-shift:baseline;color:#000000;fill:url(#linearGradient3894);fill-opacity:1;fill-rule:evenodd;stroke:none;stroke-width:1;marker:none;visibility:visible;display:inline;overflow:visible;enable-background:accumulate;font-family:Sans;-inkscape-font-specification:Sans"
       d="m 13.378472,962.88334 c -1.524698,0 -2.65625,1.43603 -2.65625,3.15625 l 0,4.625 c 0,1.7202 1.120781,3.21875 2.65625,3.21875 l 13.6875,0 c 1.535469,0 2.65625,-1.49855 2.65625,-3.21875 l 0,-4.625 c 0,-1.72022 -1.131552,-3.15625 -2.65625,-3.15625 l -13.6875,0 z m 0,1 13.6875,0 c 0.893358,0 1.65625,0.85387 1.65625,2.15625 l 0,4.625 c 0,1.30236 -0.773663,2.21875 -1.65625,2.21875 l -13.6875,0 c -0.882587,0 -1.65625,-0.91639 -1.65625,-2.21875 l 0,-4.625 c 0,-1.30238 0.762892,-2.15625 1.65625,-2.15625 z"
       id="path3882"
       inkscape:connector-curvature="0" />
    <path
       style="fill:#ffffff;fill-opacity:1;stroke:none"
       d="m 59.336506,959.87638 1.193453,2.87102 c -0.643486,0.2537 -1.247669,0.54199 -1.795448,0.85396 l -4.247559,-1.41655 -1.802275,1.45967 3.36396,2.1265 c -0.343326,0.41004 -0.618406,0.83927 -0.840275,1.27964 l -4.837558,0.0805 -0.370804,1.8157 4.647095,0.80114 0.0045,0.0237 c 0.03659,0.45718 0.137665,0.91579 0.309608,1.37226 l -4.114988,1.54519 1.163075,1.68661 4.678633,-0.72818 c 0.414359,0.39393 0.88046,0.75802 1.390272,1.09298 0.0025,0.0237 0.0019,0.0237 0.0045,0.0237 l -2.303003,2.59796 2.383822,1.10363 3.468708,-2.06609 c 0.670168,0.20846 1.364356,0.38825 2.083871,0.52352 l 0.143178,2.95913 2.965352,0.22742 1.304078,-2.85184 c 0.747262,-0.0237 1.506075,-0.0877 2.25174,-0.19188 l 2.528386,2.52615 2.754628,-0.71234 -1.193451,-2.87101 c 0.64321,-0.25371 1.237508,-0.5394 1.784854,-0.85137 l 4.258152,1.41396 1.802277,-1.45968 -3.374556,-2.12389 c 0.343033,-0.41004 0.62945,-0.84165 0.850869,-1.28225 l 4.83762,-0.0805 L 85,969.80967 80.337842,969.00474 c -0.03694,-0.45742 -0.137439,-0.91579 -0.309597,-1.37226 l 4.125584,-1.54827 -1.163077,-1.68637 -4.689228,0.73055 c -0.414264,-0.3937 -0.880991,-0.75756 -1.390398,-1.09274 l 2.309159,-2.61851 -2.383821,-1.10388 -3.46871,2.06633 c -0.670016,-0.21082 -1.375042,-0.3854 -2.094463,-0.5209 l -0.132567,-2.96198 -2.965354,-0.22741 -1.31467,2.85467 c -0.746803,0.0237 -1.495763,0.0853 -2.241143,0.18951 l -2.528391,-2.52588 -2.754628,0.71207 z m 5.331774,5.37843 c 3.705821,-0.9582 7.973409,0.10423 9.538102,2.37238 1.564697,2.2691 -0.169016,4.88192 -3.874817,5.83988 -3.705823,0.95819 -7.984007,-0.10186 -9.5487,-2.36954 -1.56469,-2.26887 0.179595,-4.88477 3.885415,-5.84272 z"
       id="path3111"
       inkscape:connector-curvature="0" />
  </g>
</svg>
