<?xml version="1.0" encoding="UTF-8" standalone="no"?>
<!-- Created with Inkscape (http://www.inkscape.org/) -->

<svg
   xmlns:dc="http://purl.org/dc/elements/1.1/"
   xmlns:cc="http://creativecommons.org/ns#"
   xmlns:rdf="http://www.w3.org/1999/02/22-rdf-syntax-ns#"
   xmlns:svg="http://www.w3.org/2000/svg"
   xmlns="http://www.w3.org/2000/svg"
   xmlns:xlink="http://www.w3.org/1999/xlink"
   xmlns:sodipodi="http://sodipodi.sourceforge.net/DTD/sodipodi-0.dtd"
   xmlns:inkscape="http://www.inkscape.org/namespaces/inkscape"
   width="96"
   height="96"
   id="svg2"
   version="1.1"
   inkscape:version="0.48.4 r9939"
   sodipodi:docname="error.svg">
  <defs
     id="defs4">
    <linearGradient
       id="linearGradient3779">
      <stop
         style="stop-color:#ffffff;stop-opacity:1;"
         offset="0"
         id="stop3781" />
      <stop
         style="stop-color:#fed8d8;stop-opacity:1;"
         offset="1"
         id="stop3783" />
    </linearGradient>
    <linearGradient
       inkscape:collect="always"
       xlink:href="#linearGradient3779"
       id="linearGradient3785"
       x1="20"
       y1="11"
       x2="65"
       y2="66"
       gradientUnits="userSpaceOnUse" />
  </defs>
  <sodipodi:namedview
     id="base"
     pagecolor="#ffffff"
     bordercolor="#666666"
     borderopacity="1.0"
     inkscape:pageopacity="0.0"
     inkscape:pageshadow="2"
     inkscape:zoom="4.1763494"
     inkscape:cx="59.501606"
     inkscape:cy="64.490501"
     inkscape:document-units="px"
     inkscape:current-layer="layer1"
     showgrid="true"
     inkscape:snap-page="true"
     inkscape:snap-global="true"
     inkscape:snap-center="true"
     inkscape:snap-object-midpoints="false"
     showguides="true"
     inkscape:guide-bbox="true"
     inkscape:snap-bbox="true"
     inkscape:object-paths="true"
     inkscape:object-nodes="true"
     inkscape:window-width="1305"
     inkscape:window-height="744"
     inkscape:window-x="61"
     inkscape:window-y="24"
     inkscape:window-maximized="1"
     inkscape:snap-midpoints="false"
     inkscape:snap-grids="true"
     inkscape:snap-to-guides="false">
    <inkscape:grid
       type="xygrid"
       id="grid3002"
       empspacing="5"
       visible="true"
       enabled="true"
       snapvisiblegridlinesonly="true" />
  </sodipodi:namedview>
  <metadata
     id="metadata7">
    <rdf:RDF>
      <cc:Work
         rdf:about="">
        <dc:format>image/svg+xml</dc:format>
        <dc:type
           rdf:resource="http://purl.org/dc/dcmitype/StillImage" />
        <dc:title />
      </cc:Work>
    </rdf:RDF>
  </metadata>
  <g
     inkscape:label="Layer 1"
     inkscape:groupmode="layer"
     id="layer1"
     transform="translate(0,-956.36218)">
    <rect
       style="fill:#ffffff;fill-opacity:0;fill-rule:nonzero;stroke:none"
       id="rect3775"
       width="96"
       height="96"
       x="0"
       y="956.36218"
       ry="0" />
    <path
       style="fill:#000000;fill-opacity:0.09589041;fill-rule:nonzero;stroke:none"
       d="m 3.353015,956.30662 c -1.884176,0 -3.4111555,1.43156 -3.4111555,3.19799 l 0,83.65949 c 0,1.7665 1.5269795,3.1981 3.4111555,3.1981 l 89.23583,0 c 1.884174,0 3.411155,-1.4316 3.411155,-3.1981 l 0,-83.65949 c 0,-1.76643 -1.526981,-3.19799 -3.411155,-3.19799 z"
       id="rect3772"
       inkscape:connector-curvature="0"
       sodipodi:nodetypes="sssssssss" />
    <path
       style="fill:#000000;fill-opacity:0.18721463;fill-rule:nonzero;stroke:none"
       d="m 1.0459761,1041.8066 0,7.4219 c 0,1.7392 1.461916,3.1337 3.2852054,3.1337 l 86.3836135,0 c 1.823288,0 3.285205,-1.3945 3.285205,-3.1337 l 0,-7.4219 -92.9540239,0 z"
       id="rect3785"
       inkscape:connector-curvature="0" />
    <path
       style="fill:#000000;fill-opacity:0.38356168;fill-rule:nonzero;stroke:none"
       d="m 1.0459761,1041.8066 0,5.3807 c 0,1.762 1.461916,3.1749 3.2852054,3.1749 l 86.3836135,0 c 1.823288,0 3.285205,-1.4129 3.285205,-3.1749 l 0,-5.3807 -92.9540239,0 z"
       id="rect3783"
       inkscape:connector-curvature="0" />
    <rect
       style="fill:#e8112d;fill-opacity:1;fill-rule:nonzero;stroke:none"
       id="rect2985"
       width="92.954025"
       height="89"
       x="1.0459771"
       y="957.36218"
       ry="3.1511393" />
    <path
       style="fill:#000000;fill-opacity:0.38356168;fill-rule:nonzero;stroke:none"
       d="m 1,1042.3622 0.045976,2.7457 c 0.03024,1.8058 1.461916,3.2543 3.2852054,3.2543 l 86.3836136,0 c 1.823288,0 3.285205,-1.4481 3.285205,-3.2543 l -0.04598,-2.7457 z"
       id="rect3781"
       inkscape:connector-curvature="0"
       sodipodi:nodetypes="csssscc" />
    <rect
       style="fill:#ffffff;fill-opacity:0.30000001;fill-rule:nonzero;stroke:none"
       id="rect3770"
       width="92.954033"
       height="2.000005"
       x="1.045976"
       y="1040.3622" />
    <path
       style="opacity:0.99176953000000001;fill:#ffffff;fill-opacity:0.79452056;fill-rule:evenodd;stroke:none"
       d="M 47.5 11 C 29.550746 11 15 24.431458 15 41 C 15 41.338208 15.019219 41.664494 15.03125 42 C 15.608611 25.899328 29.917138 13 47.5 13 C 65.082862 13 79.391389 25.899328 79.96875 42 C 79.980781 41.664494 80 41.338208 80 41 C 80 24.431458 65.449254 11 47.5 11 z M 30.875 29.65625 L 29.84375 30.65625 L 39.40625 39.90625 L 40.4375 38.90625 L 30.875 29.65625 z M 64.15625 29.65625 L 54.5625 38.90625 L 55.59375 39.90625 L 65.1875 30.65625 L 64.15625 29.65625 z M 47.5 45.71875 L 36.90625 56 L 30.875 50.1875 L 29.84375 51.1875 L 36.90625 58 L 47.5 47.71875 L 58.125 58 L 65.1875 51.1875 L 64.15625 50.1875 L 58.125 56 L 47.5 45.71875 z "
       transform="translate(0,956.36218)"
       id="path3769" />
    <path
       style="opacity:0.99176953000000001;fill:#000000;fill-opacity:0.83561641;fill-rule:evenodd;stroke:none"
       d="M 36.90625 19.84375 L 29.84375 26.65625 L 30.875 27.65625 L 36.90625 21.84375 L 47.5 32.09375 L 58.125 21.84375 L 64.15625 27.65625 L 65.1875 26.65625 L 58.125 19.84375 L 47.5 30.09375 L 36.90625 19.84375 z M 39.40625 37.90625 L 29.84375 47.1875 L 30.875 48.1875 L 40.4375 38.90625 L 39.40625 37.90625 z M 55.59375 37.90625 L 54.5625 38.90625 L 64.15625 48.1875 L 65.1875 47.1875 L 55.59375 37.90625 z M 15.03125 40 C 15.019219 40.335506 15 40.661792 15 41 C 15 57.568542 29.550746 71 47.5 71 C 65.449254 71 80 57.568542 80 41 C 80 40.661792 79.980781 40.335506 79.96875 40 C 79.391389 56.100655 65.082862 69 47.5 69 C 29.917138 69 15.608611 56.100655 15.03125 40 z "
       transform="translate(0,956.36218)"
       id="path3774" />
    <path
       style="opacity:0.75308642000000003;fill:url(#linearGradient3785);fill-opacity:1;fill-rule:evenodd;stroke:none"
       d="M 47.5 11 C 29.550746 11 15 24.431458 15 41 C 15 57.568542 29.550746 71 47.5 71 C 65.449254 71 80 57.568542 80 41 C 80 24.431458 65.449254 11 47.5 11 z M 36.90625 21.84375 L 47.5 32.09375 L 58.125 21.84375 L 65.1875 28.65625 L 54.5625 38.90625 L 65.1875 49.1875 L 58.125 56 L 47.5 45.71875 L 36.90625 56 L 29.84375 49.1875 L 40.4375 38.90625 L 29.84375 28.65625 L 36.90625 21.84375 z "
       transform="translate(0,956.36218)"
       id="path2993" />
  </g>
</svg>
