<?xml version="1.0" encoding="UTF-8" standalone="no"?>
<!-- Created with Inkscape (http://www.inkscape.org/) -->

<svg
   xmlns:dc="http://purl.org/dc/elements/1.1/"
   xmlns:cc="http://creativecommons.org/ns#"
   xmlns:rdf="http://www.w3.org/1999/02/22-rdf-syntax-ns#"
   xmlns:svg="http://www.w3.org/2000/svg"
   xmlns="http://www.w3.org/2000/svg"
   xmlns:xlink="http://www.w3.org/1999/xlink"
   xmlns:sodipodi="http://sodipodi.sourceforge.net/DTD/sodipodi-0.dtd"
   xmlns:inkscape="http://www.inkscape.org/namespaces/inkscape"
   width="96"
   height="96"
   id="svg2"
   version="1.1"
   inkscape:version="0.48.4 r9939"
   sodipodi:docname="gpm-primary-060-charging.svg">
  <defs
     id="defs4">
    <linearGradient
       inkscape:collect="always"
       id="linearGradient3776">
      <stop
         style="stop-color:#0050f0;stop-opacity:1;"
         offset="0"
         id="stop3778" />
      <stop
         style="stop-color:#0050f0;stop-opacity:0;"
         offset="1"
         id="stop3780" />
    </linearGradient>
    <linearGradient
       id="linearGradient3818">
      <stop
         style="stop-color:#00ffeb;stop-opacity:1;"
         offset="0"
         id="stop3820" />
      <stop
         style="stop-color:#ff00de;stop-opacity:1;"
         offset="1"
         id="stop3822" />
    </linearGradient>
    <linearGradient
       id="linearGradient3800">
      <stop
         id="stop3802"
         offset="0"
         style="stop-color:#a2005f;stop-opacity:1;" />
      <stop
         style="stop-color:#0051ba;stop-opacity:0.74901961;"
         offset="0.56470591"
         id="stop3804" />
      <stop
         style="stop-color:#0023ba;stop-opacity:0.31538463;"
         offset="0.56470591"
         id="stop3806" />
      <stop
         id="stop3808"
         offset="1"
         style="stop-color:#036700;stop-opacity:1;" />
    </linearGradient>
    <linearGradient
       id="linearGradient3764">
      <stop
         style="stop-color:#07001c;stop-opacity:1;"
         offset="0"
         id="stop3766" />
      <stop
         style="stop-color:#36002f;stop-opacity:1;"
         offset="1"
         id="stop3768" />
    </linearGradient>
    <linearGradient
       inkscape:collect="always"
       xlink:href="#linearGradient3764"
       id="linearGradient3771"
       x1="0"
       y1="-1047.3622"
       x2="95"
       y2="-957.36218"
       gradientUnits="userSpaceOnUse" />
    <linearGradient
       inkscape:collect="always"
       xlink:href="#linearGradient3800"
       id="linearGradient3798"
       gradientUnits="userSpaceOnUse"
       x1="90"
       y1="997.36218"
       x2="5"
       y2="997.36218" />
    <linearGradient
       inkscape:collect="always"
       xlink:href="#linearGradient3818"
       id="linearGradient3824"
       x1="10"
       y1="997.86219"
       x2="85"
       y2="997.36218"
       gradientUnits="userSpaceOnUse" />
    <linearGradient
       inkscape:collect="always"
       xlink:href="#linearGradient3776"
       id="linearGradient3782"
       x1="45"
       y1="1012.3622"
       x2="45"
       y2="997.36218"
       gradientUnits="userSpaceOnUse" />
  </defs>
  <sodipodi:namedview
     id="base"
     pagecolor="#ffffff"
     bordercolor="#666666"
     borderopacity="1.0"
     inkscape:pageopacity="0.0"
     inkscape:pageshadow="2"
     inkscape:zoom="14.994747"
     inkscape:cx="46.899471"
     inkscape:cy="53.248677"
     inkscape:document-units="px"
     inkscape:current-layer="layer1"
     showgrid="true"
     inkscape:snap-page="true"
     inkscape:snap-global="true"
     inkscape:snap-center="true"
     inkscape:snap-object-midpoints="false"
     showguides="true"
     inkscape:guide-bbox="true"
     inkscape:snap-bbox="true"
     inkscape:object-paths="true"
     inkscape:object-nodes="true"
     inkscape:window-width="1305"
     inkscape:window-height="744"
     inkscape:window-x="61"
     inkscape:window-y="24"
     inkscape:window-maximized="1"
     inkscape:snap-midpoints="false"
     inkscape:snap-grids="true"
     inkscape:snap-to-guides="false">
    <inkscape:grid
       type="xygrid"
       id="grid3002"
       empspacing="5"
       visible="true"
       enabled="true"
       snapvisiblegridlinesonly="true" />
  </sodipodi:namedview>
  <metadata
     id="metadata7">
    <rdf:RDF>
      <cc:Work
         rdf:about="">
        <dc:format>image/svg+xml</dc:format>
        <dc:type
           rdf:resource="http://purl.org/dc/dcmitype/StillImage" />
        <dc:title />
      </cc:Work>
    </rdf:RDF>
  </metadata>
  <g
     inkscape:label="Layer 1"
     inkscape:groupmode="layer"
     id="layer1"
     transform="translate(0,-956.36218)">
    <rect
       style="fill:#ffffff;fill-opacity:0;fill-rule:nonzero;stroke:none"
       id="rect3775"
       width="96"
       height="96"
       x="0"
       y="956.36218"
       ry="0" />
    <path
       style="fill:#000000;fill-opacity:0.09589041;fill-rule:nonzero;stroke:none"
       d="m 3.353015,956.30662 c -1.884176,0 -3.4111555,1.43156 -3.4111555,3.19799 l 0,83.65949 c 0,1.7665 1.5269795,3.1981 3.4111555,3.1981 l 89.23583,0 c 1.884174,0 3.411155,-1.4316 3.411155,-3.1981 l 0,-83.65949 c 0,-1.76643 -1.526981,-3.19799 -3.411155,-3.19799 z"
       id="rect3772"
       inkscape:connector-curvature="0"
       sodipodi:nodetypes="sssssssss" />
    <path
       style="fill:#000000;fill-opacity:0.18721463;fill-rule:nonzero;stroke:none"
       d="m 1.0459761,1041.8066 0,7.4219 c 0,1.7392 1.461916,3.1337 3.2852054,3.1337 l 86.3836135,0 c 1.823288,0 3.285205,-1.3945 3.285205,-3.1337 l 0,-7.4219 -92.9540239,0 z"
       id="rect3785"
       inkscape:connector-curvature="0" />
    <path
       style="fill:#000000;fill-opacity:0.38356168;fill-rule:nonzero;stroke:none"
       d="m 1.0459761,1041.8066 0,5.3807 c 0,1.762 1.461916,3.1749 3.2852054,3.1749 l 86.3836135,0 c 1.823288,0 3.285205,-1.4129 3.285205,-3.1749 l 0,-5.3807 -92.9540239,0 z"
       id="rect3783"
       inkscape:connector-curvature="0" />
    <rect
       style="fill:url(#linearGradient3771);fill-opacity:1;fill-rule:nonzero;stroke:none"
       id="rect2985"
       width="92.954025"
       height="89"
       x="1.045977"
       y="-1046.3622"
       ry="3.1511393"
       transform="scale(1,-1)" />
    <path
       style="fill:#000000;fill-opacity:0.38356168;fill-rule:nonzero;stroke:none"
       d="m 1,1042.3622 0.045976,2.7457 c 0.03024,1.8058 1.461916,3.2543 3.2852054,3.2543 l 86.3836136,0 c 1.823288,0 3.285205,-1.4481 3.285205,-3.2543 l -0.04598,-2.7457 z"
       id="rect3781"
       inkscape:connector-curvature="0"
       sodipodi:nodetypes="csssscc" />
    <rect
       style="fill:#ffffff;fill-opacity:0.30000001;fill-rule:nonzero;stroke:none"
       id="rect3770"
       width="92.954033"
       height="2.000005"
       x="1.045976"
       y="1040.3622" />
    <rect
       style="fill:url(#linearGradient3782);fill-opacity:1;fill-rule:evenodd;stroke:none"
       id="rect3006"
       width="74.880447"
       height="25.000002"
       x="10.119553"
       y="985.36218"
       ry="11.999997" />
    <rect
       ry="11.999997"
       y="985.36218"
       x="10.119553"
       height="25.000002"
       width="74.880447"
       id="rect3031"
       style="fill:url(#linearGradient3798);fill-opacity:1;fill-rule:evenodd;stroke:none" />
    <path
       style="fill:url(#linearGradient3824);fill-opacity:1;fill-rule:evenodd;stroke:none"
       d="m 22.520984,985.36218 c -6.909289,0 -12.520984,5.59644 -12.520984,12.5 0,6.90362 5.611695,12.50002 12.520984,12.50002 6.909289,0 12.489914,-5.5964 12.489914,-12.50002 0,-6.90356 -5.580625,-12.5 -12.489914,-12.5 z m 50.270352,0 c -6.90929,0 -12.520984,5.59644 -12.520984,12.5 0,6.90362 5.611694,12.50002 12.520984,12.50002 6.909288,0 12.489914,-5.5964 12.489914,-12.50002 0,-6.90356 -5.580626,-12.5 -12.489914,-12.5 z m -50.270352,3 c 5.25106,0 9.507248,4.2533 9.507248,9.5 0,5.24682 -4.256188,9.50002 -9.507248,9.50002 -5.251059,0 -9.507248,-4.2532 -9.507248,-9.50002 0,-5.2467 4.256189,-9.5 9.507248,-9.5 z m 50.270352,0 c 5.251059,0 9.507248,4.2533 9.507248,9.5 0,5.24682 -4.256189,9.50002 -9.507248,9.50002 -5.251061,0 -9.507249,-4.2532 -9.507249,-9.50002 0,-5.2467 4.256188,-9.5 9.507249,-9.5 z m -51.792755,4 0,4 -4.007957,0 0,3.00002 4.007957,0 0,4 3.013736,0 0,-4 4.007957,0 0,-3.00002 -4.007957,0 0,-4 -3.013736,0 z m 46.262395,4 0,3.00002 11.02965,0 0,-3.00002 -11.02965,0 z"
       id="path2996"
       inkscape:connector-curvature="0" />
  </g>
</svg>
