<?xml version="1.0" encoding="UTF-8" standalone="no"?>
<!-- Created with Inkscape (http://www.inkscape.org/) -->

<svg
   xmlns:dc="http://purl.org/dc/elements/1.1/"
   xmlns:cc="http://creativecommons.org/ns#"
   xmlns:rdf="http://www.w3.org/1999/02/22-rdf-syntax-ns#"
   xmlns:svg="http://www.w3.org/2000/svg"
   xmlns="http://www.w3.org/2000/svg"
   xmlns:xlink="http://www.w3.org/1999/xlink"
   xmlns:sodipodi="http://sodipodi.sourceforge.net/DTD/sodipodi-0.dtd"
   xmlns:inkscape="http://www.inkscape.org/namespaces/inkscape"
   width="96"
   height="96"
   id="svg2"
   version="1.1"
   inkscape:version="0.48.4 r9939"
   sodipodi:docname="gpm-primary-charged.svg">
  <defs
     id="defs4">
    <linearGradient
       inkscape:collect="always"
       id="linearGradient3776">
      <stop
         style="stop-color:#0050f0;stop-opacity:1;"
         offset="0"
         id="stop3778" />
      <stop
         style="stop-color:#0050f0;stop-opacity:0;"
         offset="1"
         id="stop3780" />
    </linearGradient>
    <linearGradient
       id="linearGradient3800">
      <stop
         id="stop3802"
         offset="0"
         style="stop-color:#a2005f;stop-opacity:1;" />
      <stop
         style="stop-color:#0051ba;stop-opacity:0.74901961;"
         offset="0.94106066"
         id="stop3804" />
      <stop
         style="stop-color:#0023ba;stop-opacity:0.31538463;"
         offset="0.94117647"
         id="stop3806" />
      <stop
         id="stop3808"
         offset="1"
         style="stop-color:#036700;stop-opacity:1;" />
    </linearGradient>
    <linearGradient
       id="linearGradient3764">
      <stop
         style="stop-color:#07001c;stop-opacity:1;"
         offset="0"
         id="stop3766" />
      <stop
         style="stop-color:#36002f;stop-opacity:1;"
         offset="1"
         id="stop3768" />
    </linearGradient>
    <linearGradient
       inkscape:collect="always"
       xlink:href="#linearGradient3764"
       id="linearGradient3771"
       x1="0"
       y1="-1047.3622"
       x2="95"
       y2="-957.36218"
       gradientUnits="userSpaceOnUse" />
    <linearGradient
       inkscape:collect="always"
       xlink:href="#linearGradient3800"
       id="linearGradient3798"
       gradientUnits="userSpaceOnUse"
       x1="90"
       y1="997.36218"
       x2="5"
       y2="997.36218" />
    <linearGradient
       inkscape:collect="always"
       xlink:href="#linearGradient3776"
       id="linearGradient3782"
       x1="45"
       y1="1012.3622"
       x2="45"
       y2="997.36218"
       gradientUnits="userSpaceOnUse" />
  </defs>
  <sodipodi:namedview
     id="base"
     pagecolor="#ffffff"
     bordercolor="#666666"
     borderopacity="1.0"
     inkscape:pageopacity="0.0"
     inkscape:pageshadow="2"
     inkscape:zoom="5.90625"
     inkscape:cx="18.031746"
     inkscape:cy="48"
     inkscape:document-units="px"
     inkscape:current-layer="layer1"
     showgrid="true"
     inkscape:snap-page="true"
     inkscape:snap-global="false"
     inkscape:snap-center="true"
     inkscape:snap-object-midpoints="false"
     showguides="true"
     inkscape:guide-bbox="true"
     inkscape:snap-bbox="true"
     inkscape:object-paths="true"
     inkscape:object-nodes="true"
     inkscape:window-width="1305"
     inkscape:window-height="744"
     inkscape:window-x="61"
     inkscape:window-y="24"
     inkscape:window-maximized="1"
     inkscape:snap-midpoints="false"
     inkscape:snap-grids="true"
     inkscape:snap-to-guides="false">
    <inkscape:grid
       type="xygrid"
       id="grid3002"
       empspacing="5"
       visible="true"
       enabled="true"
       snapvisiblegridlinesonly="true" />
  </sodipodi:namedview>
  <metadata
     id="metadata7">
    <rdf:RDF>
      <cc:Work
         rdf:about="">
        <dc:format>image/svg+xml</dc:format>
        <dc:type
           rdf:resource="http://purl.org/dc/dcmitype/StillImage" />
        <dc:title />
      </cc:Work>
    </rdf:RDF>
  </metadata>
  <g
     inkscape:label="Layer 1"
     inkscape:groupmode="layer"
     id="layer1"
     transform="translate(0,-956.36218)">
    <rect
       style="fill:#ffffff;fill-opacity:0;fill-rule:nonzero;stroke:none"
       id="rect3775"
       width="96"
       height="96"
       x="0"
       y="956.36218"
       ry="0" />
    <path
       style="fill:#000000;fill-opacity:0.09589041;fill-rule:nonzero;stroke:none"
       d="m 3.353015,956.30662 c -1.884176,0 -3.4111555,1.43156 -3.4111555,3.19799 l 0,83.65949 c 0,1.7665 1.5269795,3.1981 3.4111555,3.1981 l 89.23583,0 c 1.884174,0 3.411155,-1.4316 3.411155,-3.1981 l 0,-83.65949 c 0,-1.76643 -1.526981,-3.19799 -3.411155,-3.19799 z"
       id="rect3772"
       inkscape:connector-curvature="0"
       sodipodi:nodetypes="sssssssss" />
    <path
       style="fill:#000000;fill-opacity:0.18721463;fill-rule:nonzero;stroke:none"
       d="m 1.0459761,1041.8066 0,7.4219 c 0,1.7392 1.461916,3.1337 3.2852054,3.1337 l 86.3836135,0 c 1.823288,0 3.285205,-1.3945 3.285205,-3.1337 l 0,-7.4219 -92.9540239,0 z"
       id="rect3785"
       inkscape:connector-curvature="0" />
    <path
       style="fill:#000000;fill-opacity:0.38356168;fill-rule:nonzero;stroke:none"
       d="m 1.0459761,1041.8066 0,5.3807 c 0,1.762 1.461916,3.1749 3.2852054,3.1749 l 86.3836135,0 c 1.823288,0 3.285205,-1.4129 3.285205,-3.1749 l 0,-5.3807 -92.9540239,0 z"
       id="rect3783"
       inkscape:connector-curvature="0" />
    <rect
       style="fill:url(#linearGradient3771);fill-opacity:1;fill-rule:nonzero;stroke:none"
       id="rect2985"
       width="92.954025"
       height="89"
       x="1.045977"
       y="-1046.3622"
       ry="3.1511393"
       transform="scale(1,-1)" />
    <path
       style="fill:#000000;fill-opacity:0.38356168;fill-rule:nonzero;stroke:none"
       d="m 1,1042.3622 0.045976,2.7457 c 0.03024,1.8058 1.461916,3.2543 3.2852054,3.2543 l 86.3836136,0 c 1.823288,0 3.285205,-1.4481 3.285205,-3.2543 l -0.04598,-2.7457 z"
       id="rect3781"
       inkscape:connector-curvature="0"
       sodipodi:nodetypes="csssscc" />
    <rect
       style="fill:#ffffff;fill-opacity:0.30000001;fill-rule:nonzero;stroke:none"
       id="rect3770"
       width="92.954033"
       height="2.000005"
       x="1.045976"
       y="1040.3622" />
    <rect
       style="fill:url(#linearGradient3782);fill-opacity:1;fill-rule:evenodd;stroke:none"
       id="rect3006"
       width="74.880447"
       height="25.000002"
       x="10.119553"
       y="985.36218"
       ry="11.999997" />
    <rect
       ry="11.999997"
       y="985.36218"
       x="10.119553"
       height="25.000002"
       width="74.880447"
       id="rect3031"
       style="fill:url(#linearGradient3798);fill-opacity:1;fill-rule:evenodd;stroke:none" />
    <path
       d="m 22.53125,982.6875 c -8.355485,0 -15.21875,6.82994 -15.21875,15.1875 0,8.3576 6.863276,15.1875 15.21875,15.1875 8.355474,0 15.15625,-6.8461 15.15625,-15.1875 0,-8.34139 -6.800765,-15.1875 -15.15625,-15.1875 z m 50.25,0 c -8.355485,0 -15.1875,6.83803 -15.1875,15.1875 0,8.3495 6.832025,15.1875 15.1875,15.1875 8.355473,0 15.1875,-6.838 15.1875,-15.1875 0,-8.34947 -6.832016,-15.1875 -15.1875,-15.1875 z m 0,8.375 c 2.187166,0 4.029403,1.05324 5.28125,2.625 l -10.5625,0 c 1.242958,-1.57312 3.092206,-2.625 5.28125,-2.625 z m -46.09375,1.53125 c 0.419983,0.32948 0.79413,0.67499 1.125,1.09375 l -1.125,0 0,-1.09375 z m -8.375,0.0312 0,1.0625 -1.0625,0 c 0.319565,-0.40123 0.66086,-0.74274 1.0625,-1.0625 z m -1.0625,9.4375 1.0625,0 0,1.0625 c -0.401639,-0.3198 -0.742936,-0.6613 -1.0625,-1.0625 z m 9.4375,0 1.125,0 c -0.330869,0.4188 -0.705018,0.7643 -1.125,1.0937 l 0,-1.0937 z m 40.8125,0 10.5625,0 c -1.251841,1.5717 -3.094064,2.625 -5.28125,2.625 -2.189064,0 -4.038298,-1.0519 -5.28125,-2.625 z"
       id="path3787"
       style="fill:#7aff00;fill-opacity:0.0787037;fill-rule:evenodd;stroke:none"
       inkscape:original="M 22.53125 985.375 C 15.621961 985.375 10 990.97144 10 997.875 C 10 1004.7786 15.621961 1010.375 22.53125 1010.375 C 29.440539 1010.375 35 1004.7786 35 997.875 C 35 990.97144 29.440539 985.375 22.53125 985.375 z M 72.78125 985.375 C 65.87196 985.375 60.28125 990.97144 60.28125 997.875 C 60.28125 1004.7786 65.87196 1010.375 72.78125 1010.375 C 79.690538 1010.375 85.28125 1004.7786 85.28125 997.875 C 85.28125 990.97144 79.690538 985.375 72.78125 985.375 z M 22.53125 988.375 C 27.78231 988.375 32.03125 992.6283 32.03125 997.875 C 32.03125 1003.1218 27.78231 1007.375 22.53125 1007.375 C 17.280191 1007.375 13 1003.1218 13 997.875 C 13 992.6283 17.280191 988.375 22.53125 988.375 z M 72.78125 988.375 C 78.032309 988.375 82.3125 992.6283 82.3125 997.875 C 82.3125 1003.1218 78.032309 1007.375 72.78125 1007.375 C 67.530189 1007.375 63.28125 1003.1218 63.28125 997.875 C 63.28125 992.6283 67.530189 988.375 72.78125 988.375 z M 21 992.375 L 21 996.375 L 17 996.375 L 17 999.375 L 21 999.375 L 21 1003.375 L 24 1003.375 L 24 999.375 L 28.03125 999.375 L 28.03125 996.375 L 24 996.375 L 24 992.375 L 21 992.375 z M 67.25 996.375 L 67.25 999.375 L 78.28125 999.375 L 78.28125 996.375 L 67.25 996.375 z "
       inkscape:radius="2.6781802"
       sodipodi:type="inkscape:offset" />
    <path
       sodipodi:type="inkscape:offset"
       inkscape:radius="1.9999969"
       inkscape:original="M 22.53125 985.375 C 15.621961 985.375 10 990.97144 10 997.875 C 10 1004.7786 15.621961 1010.375 22.53125 1010.375 C 29.440539 1010.375 35 1004.7786 35 997.875 C 35 990.97144 29.440539 985.375 22.53125 985.375 z M 72.78125 985.375 C 65.87196 985.375 60.28125 990.97144 60.28125 997.875 C 60.28125 1004.7786 65.87196 1010.375 72.78125 1010.375 C 79.690538 1010.375 85.28125 1004.7786 85.28125 997.875 C 85.28125 990.97144 79.690538 985.375 72.78125 985.375 z M 22.53125 988.375 C 27.78231 988.375 32.03125 992.6283 32.03125 997.875 C 32.03125 1003.1218 27.78231 1007.375 22.53125 1007.375 C 17.280191 1007.375 13 1003.1218 13 997.875 C 13 992.6283 17.280191 988.375 22.53125 988.375 z M 72.78125 988.375 C 78.032309 988.375 82.3125 992.6283 82.3125 997.875 C 82.3125 1003.1218 78.032309 1007.375 72.78125 1007.375 C 67.530189 1007.375 63.28125 1003.1218 63.28125 997.875 C 63.28125 992.6283 67.530189 988.375 72.78125 988.375 z M 21 992.375 L 21 996.375 L 17 996.375 L 17 999.375 L 21 999.375 L 21 1003.375 L 24 1003.375 L 24 999.375 L 28.03125 999.375 L 28.03125 996.375 L 24 996.375 L 24 992.375 L 21 992.375 z M 67.25 996.375 L 67.25 999.375 L 78.28125 999.375 L 78.28125 996.375 L 67.25 996.375 z "
       style="fill:#7aff00;fill-opacity:0.0787037;fill-rule:evenodd;stroke:none"
       id="path3785"
       d="M 22.53125,983.375 C 14.541979,983.375 8,989.88563 8,997.875 c 0,7.9894 6.541987,14.5 14.53125,14.5 7.989263,0 14.46875,-6.5227 14.46875,-14.5 0,-7.9773 -6.479479,-14.5 -14.46875,-14.5 z m 50.25,0 c -7.989272,0 -14.5,6.51667 -14.5,14.5 0,7.9834 6.510736,14.5 14.5,14.5 7.989263,0 14.5,-6.5166 14.5,-14.5 0,-7.98333 -6.51073,-14.5 -14.5,-14.5 z m 0,7 c 3.149622,0 5.810224,1.90128 6.9375,4.625 a 2.0001969,2.0001969 0 0 0 -1.4375,-0.625 l -11.03125,0 a 2.0001969,2.0001969 0 0 0 -1.34375,0.53125 c 1.141347,-2.67345 3.762501,-4.53125 6.875,-4.53125 z m -47.34375,0.59375 c 1.810225,0.75206 3.241624,2.16267 4,3.96875 a 2.0001969,2.0001969 0 0 0 -1.40625,-0.5625 l -2.03125,0 0,-2 a 2.0001969,2.0001969 0 0 0 -0.5625,-1.40625 z M 19.53125,991 A 2.0001969,2.0001969 0 0 0 19,992.375 l 0,2 -2,0 a 2.0001969,2.0001969 0 0 0 -1.40625,0.5625 c 0.751242,-1.77457 2.164661,-3.17414 3.9375,-3.9375 z m 60.75,6.71875 c 0.0012,0.055 0.03125,0.10097 0.03125,0.15625 0,0.0553 -0.03007,0.10126 -0.03125,0.15625 l 0,-0.3125 z m -0.5625,3.06245 c -1.133965,2.709 -3.798517,4.5938 -6.9375,4.5938 -3.103058,0 -5.728034,-1.8396 -6.875,-4.5 a 2.0001969,2.0001969 0 0 0 1.34375,0.5 l 11.03125,0 a 2.0001969,2.0001969 0 0 0 1.4375,-0.5938 z m -64.125,0.031 A 2.0001969,2.0001969 0 0 0 17,1001.375 l 2,0 0,2 a 2.0001969,2.0001969 0 0 0 0.53125,1.375 c -1.772841,-0.7633 -3.186262,-2.1629 -3.9375,-3.9375 z m 13.84375,0 c -0.758372,1.8061 -2.189772,3.2167 -4,3.9687 A 2.0001969,2.0001969 0 0 0 26,1003.375 l 0,-2 2.03125,0 a 2.0001969,2.0001969 0 0 0 1.40625,-0.5625 z" />
    <path
       d="m 22.53125,984.0625 c -7.614411,0 -13.84375,6.20001 -13.84375,13.8125 0,7.6125 6.229344,13.8125 13.84375,13.8125 7.614406,0 13.78125,-6.2079 13.78125,-13.8125 0,-7.6046 -6.166839,-13.8125 -13.78125,-13.8125 z m 50.25,0 c -7.614412,0 -13.8125,6.20396 -13.8125,13.8125 0,7.6086 6.198093,13.8125 13.8125,13.8125 7.614405,0 13.8125,-6.2039 13.8125,-13.8125 0,-7.60854 -6.19809,-13.8125 -13.8125,-13.8125 z m -50.25,5.625 c 4.545937,0 8.1875,3.64579 8.1875,8.1875 0,4.5418 -3.641546,8.1875 -8.1875,8.1875 -4.545953,0 -8.21875,-3.6509 -8.21875,-8.1875 0,-4.53653 3.672814,-8.1875 8.21875,-8.1875 z m 50.25,0 c 4.545936,0 8.21875,3.65097 8.21875,8.1875 0,4.5366 -3.672797,8.1875 -8.21875,8.1875 -4.545955,0 -8.1875,-3.6457 -8.1875,-8.1875 0,-4.54171 3.641562,-8.1875 8.1875,-8.1875 z m -51.90625,1.375 a 1.3059315,1.3059315 0 0 0 -1.1875,1.3125 l 0,2.6875 -2.6875,0 a 1.3059315,1.3059315 0 0 0 -1.3125,1.3125 l 0,3 A 1.3059315,1.3059315 0 0 0 17,1000.6875 l 2.6875,0 0,2.6875 A 1.3059315,1.3059315 0 0 0 21,1004.6875 l 3,0 a 1.3059315,1.3059315 0 0 0 1.3125,-1.3125 l 0,-2.6875 2.71875,0 a 1.3059315,1.3059315 0 0 0 1.3125,-1.3125 l 0,-3 a 1.3059315,1.3059315 0 0 0 -1.3125,-1.3125 l -2.71875,0 0,-2.6875 A 1.3059315,1.3059315 0 0 0 24,991.0625 l -3,0 a 1.3059315,1.3059315 0 0 0 -0.125,0 z m 46.25,4 a 1.3059315,1.3059315 0 0 0 -1.1875,1.3125 l 0,3 a 1.3059315,1.3059315 0 0 0 1.3125,1.3125 l 11.03125,0 a 1.3059315,1.3059315 0 0 0 1.3125,-1.3125 l 0,-3 a 1.3059315,1.3059315 0 0 0 -1.3125,-1.3125 l -11.03125,0 a 1.3059315,1.3059315 0 0 0 -0.125,0 z"
       id="path3783"
       style="fill:#7aff00;fill-opacity:0.2;fill-rule:evenodd;stroke:none"
       inkscape:original="M 22.53125 985.375 C 15.621961 985.375 10 990.97144 10 997.875 C 10 1004.7786 15.621961 1010.375 22.53125 1010.375 C 29.440539 1010.375 35 1004.7786 35 997.875 C 35 990.97144 29.440539 985.375 22.53125 985.375 z M 72.78125 985.375 C 65.87196 985.375 60.28125 990.97144 60.28125 997.875 C 60.28125 1004.7786 65.87196 1010.375 72.78125 1010.375 C 79.690538 1010.375 85.28125 1004.7786 85.28125 997.875 C 85.28125 990.97144 79.690538 985.375 72.78125 985.375 z M 22.53125 988.375 C 27.78231 988.375 32.03125 992.6283 32.03125 997.875 C 32.03125 1003.1218 27.78231 1007.375 22.53125 1007.375 C 17.280191 1007.375 13 1003.1218 13 997.875 C 13 992.6283 17.280191 988.375 22.53125 988.375 z M 72.78125 988.375 C 78.032309 988.375 82.3125 992.6283 82.3125 997.875 C 82.3125 1003.1218 78.032309 1007.375 72.78125 1007.375 C 67.530189 1007.375 63.28125 1003.1218 63.28125 997.875 C 63.28125 992.6283 67.530189 988.375 72.78125 988.375 z M 21 992.375 L 21 996.375 L 17 996.375 L 17 999.375 L 21 999.375 L 21 1003.375 L 24 1003.375 L 24 999.375 L 28.03125 999.375 L 28.03125 996.375 L 24 996.375 L 24 992.375 L 21 992.375 z M 67.25 996.375 L 67.25 999.375 L 78.28125 999.375 L 78.28125 996.375 L 67.25 996.375 z "
       inkscape:radius="1.3058009"
       sodipodi:type="inkscape:offset" />
    <path
       sodipodi:type="inkscape:offset"
       inkscape:radius="0.74973857"
       inkscape:original="M 22.53125 985.375 C 15.621961 985.375 10 990.97144 10 997.875 C 10 1004.7786 15.621961 1010.375 22.53125 1010.375 C 29.440539 1010.375 35 1004.7786 35 997.875 C 35 990.97144 29.440539 985.375 22.53125 985.375 z M 72.78125 985.375 C 65.87196 985.375 60.28125 990.97144 60.28125 997.875 C 60.28125 1004.7786 65.87196 1010.375 72.78125 1010.375 C 79.690538 1010.375 85.28125 1004.7786 85.28125 997.875 C 85.28125 990.97144 79.690538 985.375 72.78125 985.375 z M 22.53125 988.375 C 27.78231 988.375 32.03125 992.6283 32.03125 997.875 C 32.03125 1003.1218 27.78231 1007.375 22.53125 1007.375 C 17.280191 1007.375 13 1003.1218 13 997.875 C 13 992.6283 17.280191 988.375 22.53125 988.375 z M 72.78125 988.375 C 78.032309 988.375 82.3125 992.6283 82.3125 997.875 C 82.3125 1003.1218 78.032309 1007.375 72.78125 1007.375 C 67.530189 1007.375 63.28125 1003.1218 63.28125 997.875 C 63.28125 992.6283 67.530189 988.375 72.78125 988.375 z M 21 992.375 L 21 996.375 L 17 996.375 L 17 999.375 L 21 999.375 L 21 1003.375 L 24 1003.375 L 24 999.375 L 28.03125 999.375 L 28.03125 996.375 L 24 996.375 L 24 992.375 L 21 992.375 z M 67.25 996.375 L 67.25 999.375 L 78.28125 999.375 L 78.28125 996.375 L 67.25 996.375 z "
       style="fill:#7aff00;fill-opacity:0.2;fill-rule:evenodd;stroke:none"
       id="path3781"
       d="m 22.53125,984.625 c -7.314142,0 -13.28125,5.9394 -13.28125,13.25 0,7.3106 5.967111,13.25 13.28125,13.25 7.314139,0 13.21875,-5.9439 13.21875,-13.25 0,-7.30607 -5.904608,-13.25 -13.21875,-13.25 z m 50.25,0 c -7.314143,0 -13.25,5.94167 -13.25,13.25 0,7.3084 5.93586,13.25 13.25,13.25 7.314138,0 13.25,-5.9416 13.25,-13.25 0,-7.30833 -5.935859,-13.25 -13.25,-13.25 z m -50.25,4.5 c 4.846207,0 8.75,3.90807 8.75,8.75 0,4.842 -3.903784,8.75 -8.75,8.75 -4.846215,0 -8.78125,-3.9109 -8.78125,-8.75 0,-4.83895 3.935044,-8.75 8.78125,-8.75 z m 50.25,0 c 4.846206,0 8.78125,3.91105 8.78125,8.75 0,4.8391 -3.935035,8.75 -8.78125,8.75 -4.846217,0 -8.75,-3.908 -8.75,-8.75 0,-4.84193 3.903792,-8.75 8.75,-8.75 z m -51.9375,2.5 a 0.74981355,0.74981355 0 0 0 -0.59375,0.75 l 0,3.25 -3.25,0 a 0.74981355,0.74981355 0 0 0 -0.75,0.75 l 0,3 a 0.74981355,0.74981355 0 0 0 0.75,0.75 l 3.25,0 0,3.25 a 0.74981355,0.74981355 0 0 0 0.75,0.75 l 3,0 a 0.74981355,0.74981355 0 0 0 0.75,-0.75 l 0,-3.25 3.28125,0 a 0.74981355,0.74981355 0 0 0 0.75,-0.75 l 0,-3 a 0.74981355,0.74981355 0 0 0 -0.75,-0.75 l -3.28125,0 0,-3.25 A 0.74981355,0.74981355 0 0 0 24,991.625 l -3,0 a 0.74981355,0.74981355 0 0 0 -0.15625,0 z m 46.25,4 A 0.74981355,0.74981355 0 0 0 66.5,996.375 l 0,3 a 0.74981355,0.74981355 0 0 0 0.75,0.75 l 11.03125,0 a 0.74981355,0.74981355 0 0 0 0.75,-0.75 l 0,-3 a 0.74981355,0.74981355 0 0 0 -0.75,-0.75 l -11.03125,0 a 0.74981355,0.74981355 0 0 0 -0.15625,0 z" />
    <path
       style="fill:#82ff00;fill-opacity:1;fill-rule:evenodd;stroke:none"
       d="m 22.520984,985.36218 c -6.909289,0 -12.520984,5.59644 -12.520984,12.5 0,6.90362 5.611695,12.50002 12.520984,12.50002 6.909289,0 12.489914,-5.5964 12.489914,-12.50002 0,-6.90356 -5.580625,-12.5 -12.489914,-12.5 z m 50.270352,0 c -6.90929,0 -12.520984,5.59644 -12.520984,12.5 0,6.90362 5.611694,12.50002 12.520984,12.50002 6.909288,0 12.489914,-5.5964 12.489914,-12.50002 0,-6.90356 -5.580626,-12.5 -12.489914,-12.5 z m -50.270352,3 c 5.25106,0 9.507248,4.2533 9.507248,9.5 0,5.24682 -4.256188,9.50002 -9.507248,9.50002 -5.251059,0 -9.507248,-4.2532 -9.507248,-9.50002 0,-5.2467 4.256189,-9.5 9.507248,-9.5 z m 50.270352,0 c 5.251059,0 9.507248,4.2533 9.507248,9.5 0,5.24682 -4.256189,9.50002 -9.507248,9.50002 -5.251061,0 -9.507249,-4.2532 -9.507249,-9.50002 0,-5.2467 4.256188,-9.5 9.507249,-9.5 z m -51.792755,4 0,4 -4.007957,0 0,3.00002 4.007957,0 0,4 3.013736,0 0,-4 4.007957,0 0,-3.00002 -4.007957,0 0,-4 -3.013736,0 z m 46.262395,4 0,3.00002 11.02965,0 0,-3.00002 -11.02965,0 z"
       id="path2996"
       inkscape:connector-curvature="0" />
  </g>
</svg>
