<?xml version="1.0" encoding="UTF-8" standalone="no"?>
<!-- Created with Inkscape (http://www.inkscape.org/) -->

<svg
   xmlns:dc="http://purl.org/dc/elements/1.1/"
   xmlns:cc="http://creativecommons.org/ns#"
   xmlns:rdf="http://www.w3.org/1999/02/22-rdf-syntax-ns#"
   xmlns:svg="http://www.w3.org/2000/svg"
   xmlns="http://www.w3.org/2000/svg"
   xmlns:sodipodi="http://sodipodi.sourceforge.net/DTD/sodipodi-0.dtd"
   xmlns:inkscape="http://www.inkscape.org/namespaces/inkscape"
   width="96"
   height="96"
   id="svg2"
   version="1.1"
   inkscape:version="0.48.4 r9939"
   sodipodi:docname="gsm-3g-medium-secure.svg">
  <defs
     id="defs4" />
  <sodipodi:namedview
     id="base"
     pagecolor="#ffffff"
     bordercolor="#666666"
     borderopacity="1.0"
     inkscape:pageopacity="0.0"
     inkscape:pageshadow="2"
     inkscape:zoom="5.90625"
     inkscape:cx="18.201058"
     inkscape:cy="48"
     inkscape:document-units="px"
     inkscape:current-layer="layer1"
     showgrid="true"
     inkscape:snap-page="true"
     inkscape:snap-global="true"
     inkscape:snap-center="true"
     inkscape:snap-object-midpoints="false"
     showguides="true"
     inkscape:guide-bbox="true"
     inkscape:snap-bbox="true"
     inkscape:object-paths="true"
     inkscape:object-nodes="true"
     inkscape:window-width="1305"
     inkscape:window-height="744"
     inkscape:window-x="61"
     inkscape:window-y="24"
     inkscape:window-maximized="1"
     inkscape:snap-midpoints="false"
     inkscape:snap-grids="true"
     inkscape:snap-to-guides="false">
    <inkscape:grid
       type="xygrid"
       id="grid3002"
       empspacing="5"
       visible="true"
       enabled="true"
       snapvisiblegridlinesonly="true" />
  </sodipodi:namedview>
  <metadata
     id="metadata7">
    <rdf:RDF>
      <cc:Work
         rdf:about="">
        <dc:format>image/svg+xml</dc:format>
        <dc:type
           rdf:resource="http://purl.org/dc/dcmitype/StillImage" />
        <dc:title />
      </cc:Work>
    </rdf:RDF>
  </metadata>
  <g
     inkscape:label="Layer 1"
     inkscape:groupmode="layer"
     id="layer1"
     transform="translate(0,-956.36218)">
    <rect
       style="fill:#ffffff;fill-opacity:0;fill-rule:nonzero;stroke:none"
       id="rect3775"
       width="96"
       height="96"
       x="0"
       y="956.36212"
       ry="0" />
    <path
       style="fill:#000000;fill-opacity:0.09589042;fill-rule:nonzero;stroke:none"
       d="M 3.4090909,956.3622 C 1.5260553,956.3622 0,957.7926 0,959.5584 l 0,83.6076 c 0,1.7658 1.5260553,3.1962 3.4090909,3.1962 l 89.1818171,0 c 1.883034,0 3.409092,-1.4304 3.409092,-3.1962 l 0,-83.6076 c 0,-1.7658 -1.526058,-3.1962 -3.409092,-3.1962 z"
       id="rect3772"
       inkscape:connector-curvature="0"
       sodipodi:nodetypes="sssssssss" />
    <path
       style="fill:#000000;fill-opacity:0.18721463;fill-rule:nonzero;stroke:none"
       d="m 1.0459761,1041.8064 0,7.422 c 0,1.7394 1.461916,3.1338 3.2852054,3.1338 l 86.3836105,0 c 1.823292,0 3.28521,-1.3944 3.28521,-3.1338 l 0,-7.422 -92.9540259,0 z"
       id="rect3785"
       inkscape:connector-curvature="0" />
    <path
       style="fill:#000000;fill-opacity:0.38356168;fill-rule:nonzero;stroke:none"
       d="m 1.0459761,1041.8064 0,5.3808 c 0,1.7622 1.461916,3.1752 3.2852054,3.1752 l 86.3836105,0 c 1.823292,0 3.28521,-1.413 3.28521,-3.1752 l 0,-5.3808 -92.9540259,0 z"
       id="rect3783"
       inkscape:connector-curvature="0" />
    <rect
       style="fill:#00b760;fill-opacity:1;fill-rule:nonzero;stroke:none"
       id="rect2985"
       width="92.954025"
       height="89"
       x="1.0459771"
       y="957.36188"
       ry="3.1511393" />
    <rect
       style="fill:#ffffff;fill-opacity:0.19607843;fill-rule:evenodd;stroke:none"
       id="rect3768"
       width="6.0000014"
       height="29.999996"
       x="66"
       y="986.36212" />
    <rect
       style="fill:#ffffff;fill-opacity:0.19607843;fill-rule:evenodd;stroke:none"
       id="rect3771"
       width="6.0000014"
       height="24.000257"
       x="54"
       y="992.36212" />
    <rect
       style="fill:#ffffff;fill-opacity:1;fill-rule:evenodd;stroke:none"
       id="rect3773"
       width="6"
       height="18"
       x="42"
       y="998.36212" />
    <rect
       style="fill:#ffffff;fill-opacity:1;fill-rule:evenodd;stroke:none"
       id="rect3776"
       width="6"
       height="12.000015"
       x="30"
       y="1004.3621" />
    <rect
       style="fill:#ffffff;fill-opacity:1;fill-rule:evenodd;stroke:none"
       id="rect3778"
       width="6"
       height="6.0002594"
       x="18"
       y="1010.3621" />
    <path
       style="font-size:27.68602943px;font-style:normal;font-variant:normal;font-weight:bold;font-stretch:normal;text-align:end;line-height:125%;letter-spacing:0px;word-spacing:0px;text-anchor:end;fill:#000000;fill-opacity:0.43951613;stroke:none;font-family:Eurostile;-inkscape-font-specification:Eurostile Bold"
       d="m 19.597657,967.362 c -3.647499,0 -6.076275,0.336 -7.312501,1.0188 -1.236233,0.6714 -1.863283,2.034 -1.86328,4.0398 l 0,0.6324 4.605468,0 0,-0.492 c -7e-6,-1.1244 0.247116,-1.857 0.773438,-2.1426 0.526308,-0.294 1.812438,-0.42 3.832032,-0.42 2.227647,0 3.599189,0.12 4.11328,0.384 0.526302,0.258 0.773423,0.975 0.773437,2.1078 -1.4e-5,1.0158 -0.291408,1.644 -0.878905,1.8618 -0.575292,0.216 -2.183278,0.318 -4.851563,0.318 l -0.808594,-0.06 0,2.5644 0.808594,0 2.074219,0 c 1.640132,0 2.720283,0.126 3.234375,0.42 0.526296,0.294 0.808576,0.9036 0.808593,1.827 -1.7e-5,1.2084 -0.303648,1.9644 -0.878905,2.283 -0.563052,0.318 -1.901001,0.492 -4.042969,0.492 -2.337832,0 -3.807024,-0.162 -4.394532,-0.456 -0.57528,-0.294 -0.878913,-1.0296 -0.878906,-2.2134 -7e-6,-0.078 0.0016,-0.288 -0.03516,-0.6672 l -4.640625,0 -0.03516,0.9486 c -2.4e-6,1.9386 0.680432,3.273 2.039063,3.9696 1.370864,0.6966 3.939997,1.0188 7.734375,1.0188 3.867793,0 6.47052,-0.324 7.804687,-1.0188 1.33413,-0.6966 2.003884,-2.0526 2.003906,-4.0752 -2.2e-5,-2.274 -1.511919,-3.5322 -4.535156,-3.7584 l 0,-0.108 c 2.778439,-0.294 4.183573,-1.6296 4.183594,-4.005 -2.1e-5,-1.7202 -0.703369,-2.8746 -2.074219,-3.5124 -1.370887,-0.6378 -3.886637,-0.984 -7.558594,-0.984 z m 24.749999,0 c -3.402702,0 -5.822365,0.21 -7.242186,0.6324 -1.419833,0.42 -2.466391,1.2156 -3.164064,2.424 -0.563034,0.99 -0.84375,3.3714 -0.84375,7.131 0,2.946 0.701784,4.9098 2.109375,5.8668 1.407586,0.9564 4.280349,1.44 8.613282,1.44 4.724586,0 7.781976,-0.378 9.140624,-1.089 1.370846,-0.7218 2.039039,-2.3286 2.039063,-4.8126 l -0.07031,-3.4074 -11.039063,0 0,2.424 6.292968,0 0,0.7026 c -1.8e-5,1.4682 -0.37995,2.3808 -1.089843,2.775 -0.69769,0.396 -2.327032,0.6 -4.921875,0.6 -2.668309,0 -4.36327,-0.24 -5.097655,-0.7026 -0.734403,-0.468 -1.125006,-1.5282 -1.125,-3.2316 l -0.03516,-2.2128 0.03516,-1.7214 c -6e-6,-1.7376 0.35544,-2.8326 1.089843,-3.3024 0.746626,-0.468 2.519449,-0.7026 5.273437,-0.7026 2.533646,0 4.086686,0.108 4.710938,0.384 0.636457,0.27 1.004145,0.9834 1.089843,2.1078 l 4.816407,0 c -2.4e-5,-2.232 -0.636186,-3.6744 -1.933593,-4.3206 -1.297451,-0.6546 -4.193132,-0.984 -8.648439,-0.984 z"
       id="text3782"
       inkscape:connector-curvature="0" />
    <path
       style="fill:#000000;fill-opacity:0.43921569;fill-rule:evenodd;stroke:none"
       d="m 68.0625,1016.3622 c -4.432002,0 -8.0625,3.6306 -8.0625,8.0622 l 0,3.9378 -6,0 0,18 30,0 0,-18 -6,0 0,-3.9378 c 0,-4.4316 -3.630498,-8.0622 -8.0625,-8.0622 z m -2.0625,6 6,0 0,6 -6,0 z"
       id="rect2996"
       inkscape:connector-curvature="0"
       sodipodi:nodetypes="ssccccccsssccccc" />
    <path
       style="fill:#000000;fill-opacity:0.38356168;fill-rule:nonzero;stroke:none"
       d="m 1,1042.362 0.045978,2.7462 c 0.03024,1.8054 1.461916,3.2538 3.2852055,3.2538 l 86.3836145,0 c 1.823286,0 3.285204,-1.4478 3.285204,-3.2538 l -0.0462,-2.7462 z"
       id="rect3781"
       inkscape:connector-curvature="0"
       sodipodi:nodetypes="csssscc" />
    <rect
       style="fill:#ffffff;fill-opacity:0.3;fill-rule:nonzero;stroke:none"
       id="rect3770"
       width="92.954033"
       height="2.000005"
       x="1.045976"
       y="1040.3621" />
  </g>
</svg>
