<?xml version="1.0" encoding="UTF-8" standalone="no"?>
<!-- Created with Inkscape (http://www.inkscape.org/) -->

<svg
   xmlns:dc="http://purl.org/dc/elements/1.1/"
   xmlns:cc="http://creativecommons.org/ns#"
   xmlns:rdf="http://www.w3.org/1999/02/22-rdf-syntax-ns#"
   xmlns:svg="http://www.w3.org/2000/svg"
   xmlns="http://www.w3.org/2000/svg"
   xmlns:sodipodi="http://sodipodi.sourceforge.net/DTD/sodipodi-0.dtd"
   xmlns:inkscape="http://www.inkscape.org/namespaces/inkscape"
   width="96"
   height="96"
   id="svg2"
   version="1.1"
   inkscape:version="0.48.4 r9939"
   sodipodi:docname="image-missing.svg">
  <defs
     id="defs4" />
  <sodipodi:namedview
     id="base"
     pagecolor="#ffffff"
     bordercolor="#666666"
     borderopacity="1.0"
     inkscape:pageopacity="0.0"
     inkscape:pageshadow="2"
     inkscape:zoom="5.90625"
     inkscape:cx="42.585843"
     inkscape:cy="43.780544"
     inkscape:document-units="px"
     inkscape:current-layer="layer1"
     showgrid="true"
     inkscape:snap-page="false"
     inkscape:snap-global="true"
     inkscape:snap-center="false"
     inkscape:snap-object-midpoints="false"
     showguides="true"
     inkscape:guide-bbox="true"
     inkscape:snap-bbox="false"
     inkscape:object-paths="true"
     inkscape:object-nodes="true"
     inkscape:window-width="1305"
     inkscape:window-height="744"
     inkscape:window-x="61"
     inkscape:window-y="24"
     inkscape:window-maximized="1"
     inkscape:snap-midpoints="false"
     inkscape:snap-grids="false"
     inkscape:snap-to-guides="false"
     inkscape:snap-bbox-midpoints="true"
     fit-margin-top="0"
     fit-margin-left="0"
     fit-margin-right="0"
     fit-margin-bottom="0">
    <inkscape:grid
       type="xygrid"
       id="grid3002"
       empspacing="5"
       visible="true"
       enabled="true"
       snapvisiblegridlinesonly="true"
       originx="0px"
       originy="-1.7382813e-05px" />
  </sodipodi:namedview>
  <metadata
     id="metadata7">
    <rdf:RDF>
      <cc:Work
         rdf:about="">
        <dc:format>image/svg+xml</dc:format>
        <dc:type
           rdf:resource="http://purl.org/dc/dcmitype/StillImage" />
        <dc:title />
      </cc:Work>
    </rdf:RDF>
  </metadata>
  <g
     inkscape:label="Layer 1"
     inkscape:groupmode="layer"
     id="layer1"
     transform="translate(0,-956.36218)">
    <rect
       style="opacity:0.99176953;fill:#ffffff;fill-opacity:0;fill-rule:evenodd;stroke:none"
       id="rect3771"
       width="96"
       height="96"
       x="0"
       y="956.36218" />
    <path
       sodipodi:type="arc"
       style="opacity:0.99176953;fill:#000000;fill-opacity:0.18981485;fill-rule:evenodd;stroke:none"
       id="path3783"
       sodipodi:cx="8"
       sodipodi:cy="8"
       sodipodi:rx="8"
       sodipodi:ry="8"
       d="m 16,8 c 0,4.418278 -3.581722,8 -8,8 C 3.581722,16 0,12.418278 0,8 0,3.581722 3.581722,0 8,0 c 4.418278,0 8,3.581722 8,8 z"
       transform="matrix(5.25,0,0,5.25,6,963.72549)" />
    <path
       transform="matrix(5.25,0,0,5.25,6,965.08869)"
       d="m 16,8 c 0,4.418278 -3.581722,8 -8,8 C 3.581722,16 0,12.418278 0,8 0,3.581722 3.581722,0 8,0 c 4.418278,0 8,3.581722 8,8 z"
       sodipodi:ry="8"
       sodipodi:rx="8"
       sodipodi:cy="8"
       sodipodi:cx="8"
       id="path3785"
       style="opacity:0.99176953;fill:#000000;fill-opacity:0.18981485;fill-rule:evenodd;stroke:none"
       sodipodi:type="arc" />
    <path
       sodipodi:type="arc"
       style="opacity:0.99176953;fill:#000000;fill-opacity:0.18981485;fill-rule:evenodd;stroke:none"
       id="path3787"
       sodipodi:cx="8"
       sodipodi:cy="8"
       sodipodi:rx="8"
       sodipodi:ry="8"
       d="m 16,8 c 0,4.418278 -3.581722,8 -8,8 C 3.581722,16 0,12.418278 0,8 0,3.581722 3.581722,0 8,0 c 4.418278,0 8,3.581722 8,8 z"
       transform="matrix(5.25,0,0,5.25,6,966.45189)" />
    <path
       transform="matrix(5.25,0,0,5.25,6,962.3623)"
       d="m 16,8 c 0,4.418278 -3.581722,8 -8,8 C 3.581722,16 0,12.418278 0,8 0,3.581722 3.581722,0 8,0 c 4.418278,0 8,3.581722 8,8 z"
       sodipodi:ry="8"
       sodipodi:rx="8"
       sodipodi:cy="8"
       sodipodi:cx="8"
       id="path3769"
       style="opacity:0.99176953000000001;fill:#ce0005;fill-opacity:1;fill-rule:evenodd;stroke:none"
       sodipodi:type="arc" />
    <path
       sodipodi:type="arc"
       style="opacity:0.99176953;fill:#a6a6a6;fill-opacity:1;fill-rule:evenodd;stroke:none"
       id="path3791"
       sodipodi:cx="8"
       sodipodi:cy="8"
       sodipodi:rx="8"
       sodipodi:ry="8"
       d="m 16,8 c 0,4.418278 -3.581722,8 -8,8 C 3.581722,16 0,12.418278 0,8 0,3.581722 3.581722,0 8,0 c 4.418278,0 8,3.581722 8,8 z"
       transform="matrix(4.356408,0,0,4.356408,13.148736,969.51129)" />
    <path
       style="opacity:0.99176953;fill:#ffffff;fill-opacity:0.75;fill-rule:evenodd;stroke:none"
       d="m 48,969.48789 c -2.06997,0 -4.0291,0.216 -5.999898,0.564 l 0,4.3128 5.999898,0 0,-4.875 z m 0,4.8744 0,6 5.999899,0 0,-6 -5.999899,0 z m 5.999899,0 5.999897,0 0,-2.6238 c -1.934216,-0.717 -3.921371,-1.323 -5.999897,-1.6884 l 0,4.3122 z m 5.999897,0 0,6 5.999904,0 0,-5.8116 c -0.1224,-0.072 -0.2517,-0.108 -0.375,-0.186 l -5.624905,0 z m 5.999904,6 0,6.0012 5.999898,0 0,-6.0012 -5.999898,0 z m 5.999898,0 1.124976,0 c -0.36906,-0.384 -0.738624,-0.756 -1.124976,-1.125 l 0,1.125 z m 0,6.0012 0,5.9994 5.999892,0 0,-5.6256 c -0.0723,-0.12 -0.11376,-0.258 -0.1875,-0.372 l -5.812392,0 z m 5.999892,5.9994 0,6 4.312428,0 c -0.36498,-2.0784 -0.971568,-4.0662 -1.68747,-6 l -2.624958,0 z m 0,6 -5.999892,0 0,5.99941 5.999892,0 0,-5.99941 z m 0,5.99941 0,5.9994 4.312428,0 c 0.34608,-1.9704 0.5625,-3.9294 0.5625,-5.9994 l -4.874916,0 z m 0,5.9994 -5.999892,0 0,6 5.999892,0 0,-6 z m 0,6 0,5.6256 c 1.019514,-1.7412 1.91574,-3.7086 2.624958,-5.6256 l -2.624958,0 z m -5.999892,0 -5.999898,0 0,6.0006 5.999898,0 0,-6.0006 z m 0,6.0006 0,6 1.124976,0 c 1.771062,-1.854 3.356862,-3.792 4.687416,-6 l -5.812392,0 z m 0,6 -5.999898,0 0,5.8122 c 2.208588,-1.3308 4.145982,-2.916 5.999898,-4.6872 l 0,-1.125 z m -5.999898,0 0,-6 -5.999904,0 0,6 5.999904,0 z m -5.999904,0 -5.999897,0 0,6 5.999897,0 0,-6 z m 0,6 0,2.6238 c 1.916154,-0.7086 3.884478,-1.605 5.624904,-2.6238 l -5.624904,0 z m -5.999897,0 -5.999899,0 0,4.8744 c 2.069971,0 4.0291,-0.216 5.999899,-0.564 l 0,-4.3134 z m -5.999899,0 0,-6 -5.999898,0 0,6 5.999898,0 z m -5.999898,0 -5.999897,0 0,2.6238 c 1.934215,0.717 3.92137,1.323 5.999897,1.689 l 0,-4.3128 z m -5.999897,0 0,-6 -5.9999,0 0,5.8122 c 0.1224,0.072 0.25164,0.108 0.374994,0.186 l 5.624906,0 z m -5.9999,-6 0,-6 -5.999898,0 0,6 5.999898,0 z m -5.999898,0 -1.124979,0 c 0.369054,0.384 0.738628,0.756 1.124979,1.125 l 0,-1.125 z m 0,-6 0,-6.0006 -5.999898,0 0,5.6256 c 0.07229,0.12 0.11376,0.258 0.187494,0.372 l 5.812401,0 z m -5.999898,-6.0006 0,-6 -4.312426,0 c 0.364974,2.079 0.971569,4.0662 1.68747,6 l 2.624956,0 z m 0,-6 5.999898,0 0,-5.9994 -5.999898,0 0,5.9994 z m 0,-5.9994 0,-5.99941 -4.312426,0 c -0.346074,1.97041 -0.562494,3.92941 -0.562494,5.99941 l 4.874917,0 z m 0,-5.99941 5.999898,0 0,-6 -5.999898,0 0,6 z m 0,-6 0,-5.6256 c -1.01952,1.7412 -1.915744,3.7086 -2.624956,5.6256 l 2.624956,0 z m 5.999898,0 5.999898,0 0,-5.9994 -5.999898,0 0,5.9994 z m 0,-5.9994 0,-6.0012 -1.124979,0 c -1.771057,1.854 -3.356866,3.792 -4.687422,6.0012 l 5.812401,0 z m 0,-6.0012 5.999898,0 0,-5.8116 c -2.208598,1.3302 -4.145982,2.9154 -5.999898,4.6866 l 0,1.125 z m 5.999898,0 0,6.0012 5.9999,0 0,-6.0012 -5.9999,0 z m 5.9999,0 5.999897,0 0,-6 -5.999897,0 0,6 z m 0,-6 0,-2.6238 c -1.916153,0.7086 -3.884473,1.605 -5.624906,2.6238 l 5.624906,0 z m 5.999897,6 0,6.0012 5.999898,0 0,-6.0012 -5.999898,0 z M 48,986.36349 l 0,5.9994 5.999899,0 0,-5.9994 -5.999899,0 z m 5.999899,0 5.999897,0 0,-6.0012 -5.999897,0 0,6.0012 z m 5.999897,0 0,5.9994 5.999904,0 0,-5.9994 -5.999904,0 z m 5.999904,5.9994 0,6 5.999898,0 0,-6 -5.999898,0 z m 0,6 -5.999904,0 0,5.99941 5.999904,0 0,-5.99941 z m 0,5.99941 0,5.9994 5.999898,0 0,-5.9994 -5.999898,0 z m 0,5.9994 -5.999904,0 0,6 5.999904,0 0,-6 z m -5.999904,6 -5.999897,0 0,6.0006 5.999897,0 0,-6.0006 z m -5.999897,6.0006 -5.999899,0 0,6 5.999899,0 0,-6 z m -5.999899,0 0,-6.0006 -5.999898,0 0,6.0006 5.999898,0 z m -5.999898,0 -5.999897,0 0,6 5.999897,0 0,-6 z m -5.999897,0 0,-6.0006 -5.9999,0 0,6.0006 5.9999,0 z m -5.9999,-6.0006 0,-6 -5.999898,0 0,6 5.999898,0 z m 0,-6 5.9999,0 0,-5.9994 -5.9999,0 0,5.9994 z m 0,-5.9994 0,-5.99941 -5.999898,0 0,5.99941 5.999898,0 z m 0,-5.99941 5.9999,0 0,-6 -5.9999,0 0,6 z m 5.9999,-6 5.999897,0 0,-5.9994 -5.999897,0 0,5.9994 z m 5.999897,0 0,6 5.999898,0 0,-6 -5.999898,0 z m 5.999898,6 0,5.99941 5.999899,0 0,-5.99941 -5.999899,0 z m 5.999899,0 5.999897,0 0,-6 -5.999897,0 0,6 z m 0,5.99941 0,5.9994 5.999897,0 0,-5.9994 -5.999897,0 z m 0,5.9994 -5.999899,0 0,6 5.999899,0 0,-6 z m -5.999899,0 0,-5.9994 -5.999898,0 0,5.9994 5.999898,0 z m -5.999898,0 -5.999897,0 0,6 5.999897,0 0,-6 z m 0,-5.9994 0,-5.99941 -5.999897,0 0,5.99941 5.999897,0 z"
       id="path3817"
       inkscape:connector-curvature="0" />
    <rect
       style="fill:#000000;fill-opacity:1;fill-rule:evenodd;stroke:none"
       id="rect3767"
       width="5.9998999"
       height="5.9994001"
       x="24.000404"
       y="992.36469" />
    <rect
       style="fill:#000000;fill-opacity:1;fill-rule:evenodd;stroke:none"
       id="rect3769"
       width="5.999897"
       height="6.0012002"
       x="30.000305"
       y="986.36346" />
    <rect
       style="fill:#000000;fill-opacity:1;fill-rule:evenodd;stroke:none"
       id="rect3772"
       width="5.999897"
       height="5.9993997"
       x="36.000202"
       y="992.36469" />
    <rect
       style="fill:#000000;fill-opacity:1;fill-rule:evenodd;stroke:none"
       id="rect3774"
       width="5.999896"
       height="6.0000005"
       x="30.000305"
       y="998.36407" />
    <rect
       y="992.36292"
       x="53.999905"
       height="5.9994001"
       width="5.9998999"
       id="rect3776"
       style="fill:#000000;fill-opacity:1;fill-rule:evenodd;stroke:none" />
    <rect
       y="986.36169"
       x="59.999805"
       height="6.0012002"
       width="5.999897"
       id="rect3778"
       style="fill:#000000;fill-opacity:1;fill-rule:evenodd;stroke:none" />
    <rect
       y="992.36292"
       x="65.999702"
       height="5.9993997"
       width="5.999897"
       id="rect3780"
       style="fill:#000000;fill-opacity:1;fill-rule:evenodd;stroke:none" />
    <rect
       y="998.3623"
       x="59.999805"
       height="6.0000005"
       width="5.999896"
       id="rect3782"
       style="fill:#000000;fill-opacity:1;fill-rule:evenodd;stroke:none" />
    <rect
       style="fill:#000000;fill-opacity:1;fill-rule:evenodd;stroke:none"
       id="rect3784"
       width="5.999898"
       height="6.0005999"
       x="30.000301"
       y="1016.3617" />
    <rect
       style="fill:#000000;fill-opacity:1;fill-rule:evenodd;stroke:none"
       id="rect3786"
       width="5.9998999"
       height="6"
       x="36.000198"
       y="1010.3617" />
    <rect
       style="fill:#000000;fill-opacity:1;fill-rule:evenodd;stroke:none"
       id="rect3788"
       width="5.999896"
       height="5.9999995"
       x="42.000099"
       y="1010.3617" />
    <rect
       style="fill:#000000;fill-opacity:1;fill-rule:evenodd;stroke:none"
       id="rect3792"
       width="5.9998989"
       height="5.9999995"
       x="48"
       y="1010.3617" />
    <rect
       style="fill:#000000;fill-opacity:1;fill-rule:evenodd;stroke:none"
       id="rect3794"
       width="5.9998951"
       height="5.9999995"
       x="53.999901"
       y="1010.3617" />
    <rect
       style="fill:#000000;fill-opacity:1;fill-rule:evenodd;stroke:none"
       id="rect3796"
       width="5.9999042"
       height="6.0005999"
       x="59.999794"
       y="1016.3617" />
  </g>
</svg>
