<?xml version="1.0" encoding="UTF-8" standalone="no"?>
<!-- Created with Inkscape (http://www.inkscape.org/) -->

<svg
   xmlns:dc="http://purl.org/dc/elements/1.1/"
   xmlns:cc="http://creativecommons.org/ns#"
   xmlns:rdf="http://www.w3.org/1999/02/22-rdf-syntax-ns#"
   xmlns:svg="http://www.w3.org/2000/svg"
   xmlns="http://www.w3.org/2000/svg"
   xmlns:xlink="http://www.w3.org/1999/xlink"
   xmlns:sodipodi="http://sodipodi.sourceforge.net/DTD/sodipodi-0.dtd"
   xmlns:inkscape="http://www.inkscape.org/namespaces/inkscape"
   width="96"
   height="96"
   id="svg2"
   version="1.1"
   inkscape:version="0.48.4 r9939"
   sodipodi:docname="image-loading.svg">
  <defs
     id="defs4">
    <linearGradient
       id="linearGradient3793">
      <stop
         style="stop-color:#000000;stop-opacity:1;"
         offset="0"
         id="stop3795" />
      <stop
         style="stop-color:#595959;stop-opacity:1;"
         offset="1"
         id="stop3797" />
    </linearGradient>
    <linearGradient
       inkscape:collect="always"
       id="linearGradient3772">
      <stop
         style="stop-color:#000000;stop-opacity:1;"
         offset="0"
         id="stop3774" />
      <stop
         style="stop-color:#000000;stop-opacity:0;"
         offset="1"
         id="stop3776" />
    </linearGradient>
    <linearGradient
       inkscape:collect="always"
       xlink:href="#linearGradient3772"
       id="linearGradient3778"
       x1="50"
       y1="91.000015"
       x2="15"
       y2="46.000019"
       gradientUnits="userSpaceOnUse" />
    <radialGradient
       inkscape:collect="always"
       xlink:href="#linearGradient3793"
       id="radialGradient3801"
       cx="47.499985"
       cy="974.86218"
       fx="47.499985"
       fy="974.86218"
       r="27.5"
       gradientTransform="matrix(-1.6363638,6.0125599e-8,-5.8985267e-8,-0.8181813,147.72732,1799.9762)"
       gradientUnits="userSpaceOnUse" />
    <linearGradient
       inkscape:collect="always"
       xlink:href="#linearGradient3772"
       id="linearGradient3807"
       gradientUnits="userSpaceOnUse"
       x1="50"
       y1="91.000015"
       x2="15"
       y2="46.000019" />
    <linearGradient
       inkscape:collect="always"
       xlink:href="#linearGradient3772"
       id="linearGradient3810"
       gradientUnits="userSpaceOnUse"
       x1="50"
       y1="91.000015"
       x2="15"
       y2="46.000019"
       gradientTransform="matrix(0.54058777,-0.84128762,0.84128762,0.54058777,-18.330118,1018.7958)" />
  </defs>
  <sodipodi:namedview
     id="base"
     pagecolor="#ffffff"
     bordercolor="#666666"
     borderopacity="1.0"
     inkscape:pageopacity="0.0"
     inkscape:pageshadow="2"
     inkscape:zoom="28.141544"
     inkscape:cx="76.275132"
     inkscape:cy="26.328042"
     inkscape:document-units="px"
     inkscape:current-layer="layer1"
     showgrid="true"
     inkscape:snap-page="false"
     inkscape:snap-global="false"
     inkscape:snap-center="false"
     inkscape:snap-object-midpoints="false"
     showguides="true"
     inkscape:guide-bbox="true"
     inkscape:snap-bbox="true"
     inkscape:object-paths="true"
     inkscape:object-nodes="true"
     inkscape:window-width="1305"
     inkscape:window-height="744"
     inkscape:window-x="61"
     inkscape:window-y="24"
     inkscape:window-maximized="1"
     inkscape:snap-midpoints="false"
     inkscape:snap-grids="true"
     inkscape:snap-to-guides="false"
     inkscape:snap-bbox-midpoints="true"
     fit-margin-top="0"
     fit-margin-left="0"
     fit-margin-right="0"
     fit-margin-bottom="0">
    <inkscape:grid
       type="xygrid"
       id="grid3002"
       empspacing="5"
       visible="true"
       enabled="true"
       snapvisiblegridlinesonly="true"
       originx="0px"
       originy="-1.7382813e-05px" />
  </sodipodi:namedview>
  <metadata
     id="metadata7">
    <rdf:RDF>
      <cc:Work
         rdf:about="">
        <dc:format>image/svg+xml</dc:format>
        <dc:type
           rdf:resource="http://purl.org/dc/dcmitype/StillImage" />
        <dc:title />
      </cc:Work>
    </rdf:RDF>
  </metadata>
  <g
     inkscape:label="Layer 1"
     inkscape:groupmode="layer"
     id="layer1"
     transform="translate(0,-956.36218)">
    <rect
       style="opacity:0.99176953;fill:#ffffff;fill-opacity:0;fill-rule:evenodd;stroke:none"
       id="rect3771"
       width="96"
       height="96"
       x="0"
       y="956.36218" />
    <path
       sodipodi:type="arc"
       style="opacity:0.99176953;fill:#000000;fill-opacity:0.18981485;fill-rule:evenodd;stroke:none"
       id="path3783"
       sodipodi:cx="8"
       sodipodi:cy="8"
       sodipodi:rx="8"
       sodipodi:ry="8"
       d="m 16,8 c 0,4.418278 -3.581722,8 -8,8 C 3.581722,16 0,12.418278 0,8 0,3.581722 3.581722,0 8,0 c 4.418278,0 8,3.581722 8,8 z"
       transform="matrix(5.25,0,0,5.25,6,963.72549)" />
    <path
       transform="matrix(5.25,0,0,5.25,6,965.08869)"
       d="m 16,8 c 0,4.418278 -3.581722,8 -8,8 C 3.581722,16 0,12.418278 0,8 0,3.581722 3.581722,0 8,0 c 4.418278,0 8,3.581722 8,8 z"
       sodipodi:ry="8"
       sodipodi:rx="8"
       sodipodi:cy="8"
       sodipodi:cx="8"
       id="path3785"
       style="opacity:0.99176953;fill:#000000;fill-opacity:0.18981485;fill-rule:evenodd;stroke:none"
       sodipodi:type="arc" />
    <path
       sodipodi:type="arc"
       style="opacity:0.99176953;fill:#000000;fill-opacity:0.18981485;fill-rule:evenodd;stroke:none"
       id="path3787"
       sodipodi:cx="8"
       sodipodi:cy="8"
       sodipodi:rx="8"
       sodipodi:ry="8"
       d="m 16,8 c 0,4.418278 -3.581722,8 -8,8 C 3.581722,16 0,12.418278 0,8 0,3.581722 3.581722,0 8,0 c 4.418278,0 8,3.581722 8,8 z"
       transform="matrix(5.25,0,0,5.25,6,966.45189)" />
    <path
       transform="matrix(2.8380858,-4.41676,4.41676,2.8380858,-10.038764,1016.9917)"
       d="M 16,8 A 8,8 0 1 1 0,8 8,8 0 1 1 16,8 z"
       sodipodi:ry="8"
       sodipodi:rx="8"
       sodipodi:cy="8"
       sodipodi:cx="8"
       id="path3769"
       style="opacity:0.99176953;fill:#f77f00;fill-opacity:1;fill-rule:evenodd;stroke:none"
       sodipodi:type="arc" />
    <path
       inkscape:connector-curvature="0"
       style="fill:url(#linearGradient3810);fill-opacity:1;fill-rule:evenodd;stroke:none"
       d="m 23.713999,1038.4574 c 0.551499,0.3928 1.005477,0.8689 1.581215,1.2389 2.43931,1.5674 4.978165,2.8609 7.580776,3.8683 2.60261,1.0073 5.271601,1.716 7.959716,2.1802 2.688115,0.4641 5.393128,0.6537 8.088952,0.5917 2.695824,-0.062 5.376532,-0.3785 8.00227,-0.9499 2.625737,-0.5713 5.195524,-1.3975 7.673379,-2.4612 2.477855,-1.0638 4.859501,-2.3602 7.111677,-3.8994 2.252177,-1.5392 4.385355,-3.2929 6.334058,-5.2906 1.948702,-1.9977 3.720507,-4.2292 5.287939,-6.6685 0.369953,-0.5757 0.585042,-1.1975 0.923434,-1.7839 l -4.560365,0.8815 -1.4601,-4.7501 c -0.332263,0.5892 -0.526797,1.2245 -0.897144,1.8008 -1.301059,2.0248 -2.787673,3.8684 -4.405683,5.5268 -1.61801,1.6583 -3.369328,3.1188 -5.239579,4.3966 -1.870251,1.2778 -3.859853,2.3719 -5.917635,3.2551 -2.057781,0.8832 -4.182278,1.5659 -6.362878,2.0404 -2.180599,0.4745 -4.396678,0.7363 -6.635387,0.788 -2.238708,0.052 -4.503056,-0.1167 -6.735162,-0.5018 -2.232106,-0.3851 -4.431937,-0.9858 -6.592729,-1.8219 -2.160792,-0.836 -4.279083,-1.8952 -6.303851,-3.1963 -0.576351,-0.3703 -1.017254,-0.8673 -1.564321,-1.2652 z"
       id="rect2991"
       sodipodi:nodetypes="ccccsccssccccccssscscccc" />
    <path
       sodipodi:type="arc"
       style="opacity:0.99176953;fill:#a6a6a6;fill-opacity:1;fill-rule:evenodd;stroke:none"
       id="path3791"
       sodipodi:cx="8"
       sodipodi:cy="8"
       sodipodi:rx="8"
       sodipodi:ry="8"
       d="m 16,8 c 0,4.418278 -3.581722,8 -8,8 C 3.581722,16 0,12.418278 0,8 0,3.581722 3.581722,0 8,0 c 4.418278,0 8,3.581722 8,8 z"
       transform="matrix(4.356408,0,0,4.356408,13.148736,969.51129)" />
    <path
       style="opacity:0.99176953;fill:#ffffff;fill-opacity:0.75;fill-rule:evenodd;stroke:none"
       d="m 48,969.48789 c -2.06997,0 -4.0291,0.216 -5.999898,0.564 l 0,4.3128 5.999898,0 0,-4.875 z m 0,4.8744 0,6 5.999899,0 0,-6 -5.999899,0 z m 5.999899,0 5.999897,0 0,-2.6238 c -1.934216,-0.717 -3.921371,-1.323 -5.999897,-1.6884 l 0,4.3122 z m 5.999897,0 0,6 5.999904,0 0,-5.8116 c -0.1224,-0.072 -0.2517,-0.108 -0.375,-0.186 l -5.624905,0 z m 5.999904,6 0,6.0012 5.999898,0 0,-6.0012 -5.999898,0 z m 5.999898,0 1.124976,0 c -0.36906,-0.384 -0.738624,-0.756 -1.124976,-1.125 l 0,1.125 z m 0,6.0012 0,5.9994 5.999892,0 0,-5.6256 c -0.0723,-0.12 -0.11376,-0.258 -0.1875,-0.372 l -5.812392,0 z m 5.999892,5.9994 0,6 4.312428,0 c -0.36498,-2.0784 -0.971568,-4.0662 -1.68747,-6 l -2.624958,0 z m 0,6 -5.999892,0 0,5.99941 5.999892,0 0,-5.99941 z m 0,5.99941 0,5.9994 4.312428,0 c 0.34608,-1.9704 0.5625,-3.9294 0.5625,-5.9994 l -4.874916,0 z m 0,5.9994 -5.999892,0 0,6 5.999892,0 0,-6 z m 0,6 0,5.6256 c 1.019514,-1.7412 1.91574,-3.7086 2.624958,-5.6256 l -2.624958,0 z m -5.999892,0 -5.999898,0 0,6.0006 5.999898,0 0,-6.0006 z m 0,6.0006 0,6 1.124976,0 c 1.771062,-1.854 3.356862,-3.792 4.687416,-6 l -5.812392,0 z m 0,6 -5.999898,0 0,5.8122 c 2.208588,-1.3308 4.145982,-2.916 5.999898,-4.6872 l 0,-1.125 z m -5.999898,0 0,-6 -5.999904,0 0,6 5.999904,0 z m -5.999904,0 -5.999897,0 0,6 5.999897,0 0,-6 z m 0,6 0,2.6238 c 1.916154,-0.7086 3.884478,-1.605 5.624904,-2.6238 l -5.624904,0 z m -5.999897,0 -5.999899,0 0,4.8744 c 2.069971,0 4.0291,-0.216 5.999899,-0.564 l 0,-4.3134 z m -5.999899,0 0,-6 -5.999898,0 0,6 5.999898,0 z m -5.999898,0 -5.999897,0 0,2.6238 c 1.934215,0.717 3.92137,1.323 5.999897,1.689 l 0,-4.3128 z m -5.999897,0 0,-6 -5.9999,0 0,5.8122 c 0.1224,0.072 0.25164,0.108 0.374994,0.186 l 5.624906,0 z m -5.9999,-6 0,-6 -5.999898,0 0,6 5.999898,0 z m -5.999898,0 -1.124979,0 c 0.369054,0.384 0.738628,0.756 1.124979,1.125 l 0,-1.125 z m 0,-6 0,-6.0006 -5.999898,0 0,5.6256 c 0.07229,0.12 0.11376,0.258 0.187494,0.372 l 5.812401,0 z m -5.999898,-6.0006 0,-6 -4.312426,0 c 0.364974,2.079 0.971569,4.0662 1.68747,6 l 2.624956,0 z m 0,-6 5.999898,0 0,-5.9994 -5.999898,0 0,5.9994 z m 0,-5.9994 0,-5.99941 -4.312426,0 c -0.346074,1.97041 -0.562494,3.92941 -0.562494,5.99941 l 4.874917,0 z m 0,-5.99941 5.999898,0 0,-6 -5.999898,0 0,6 z m 0,-6 0,-5.6256 c -1.01952,1.7412 -1.915744,3.7086 -2.624956,5.6256 l 2.624956,0 z m 5.999898,0 5.999898,0 0,-5.9994 -5.999898,0 0,5.9994 z m 0,-5.9994 0,-6.0012 -1.124979,0 c -1.771057,1.854 -3.356866,3.792 -4.687422,6.0012 l 5.812401,0 z m 0,-6.0012 5.999898,0 0,-5.8116 c -2.208598,1.3302 -4.145982,2.9154 -5.999898,4.6866 l 0,1.125 z m 5.999898,0 0,6.0012 5.9999,0 0,-6.0012 -5.9999,0 z m 5.9999,0 5.999897,0 0,-6 -5.999897,0 0,6 z m 0,-6 0,-2.6238 c -1.916153,0.7086 -3.884473,1.605 -5.624906,2.6238 l 5.624906,0 z m 5.999897,6 0,6.0012 5.999898,0 0,-6.0012 -5.999898,0 z M 48,986.36349 l 0,5.9994 5.999899,0 0,-5.9994 -5.999899,0 z m 5.999899,0 5.999897,0 0,-6.0012 -5.999897,0 0,6.0012 z m 5.999897,0 0,5.9994 5.999904,0 0,-5.9994 -5.999904,0 z m 5.999904,5.9994 0,6 5.999898,0 0,-6 -5.999898,0 z m 0,6 -5.999904,0 0,5.99941 5.999904,0 0,-5.99941 z m 0,5.99941 0,5.9994 5.999898,0 0,-5.9994 -5.999898,0 z m 0,5.9994 -5.999904,0 0,6 5.999904,0 0,-6 z m -5.999904,6 -5.999897,0 0,6.0006 5.999897,0 0,-6.0006 z m -5.999897,6.0006 -5.999899,0 0,6 5.999899,0 0,-6 z m -5.999899,0 0,-6.0006 -5.999898,0 0,6.0006 5.999898,0 z m -5.999898,0 -5.999897,0 0,6 5.999897,0 0,-6 z m -5.999897,0 0,-6.0006 -5.9999,0 0,6.0006 5.9999,0 z m -5.9999,-6.0006 0,-6 -5.999898,0 0,6 5.999898,0 z m 0,-6 5.9999,0 0,-5.9994 -5.9999,0 0,5.9994 z m 0,-5.9994 0,-5.99941 -5.999898,0 0,5.99941 5.999898,0 z m 0,-5.99941 5.9999,0 0,-6 -5.9999,0 0,6 z m 5.9999,-6 5.999897,0 0,-5.9994 -5.999897,0 0,5.9994 z m 5.999897,0 0,6 5.999898,0 0,-6 -5.999898,0 z m 5.999898,6 0,5.99941 5.999899,0 0,-5.99941 -5.999899,0 z m 5.999899,0 5.999897,0 0,-6 -5.999897,0 0,6 z m 0,5.99941 0,5.9994 5.999897,0 0,-5.9994 -5.999897,0 z m 0,5.9994 -5.999899,0 0,6 5.999899,0 0,-6 z m -5.999899,0 0,-5.9994 -5.999898,0 0,5.9994 5.999898,0 z m -5.999898,0 -5.999897,0 0,6 5.999897,0 0,-6 z m 0,-5.9994 0,-5.99941 -5.999897,0 0,5.99941 5.999897,0 z"
       id="path3817"
       inkscape:connector-curvature="0" />
    <path
       style="fill:url(#radialGradient3801);fill-opacity:1;fill-rule:evenodd;stroke:none"
       d="m 70,997.36218 c 2.761424,0 5,2.23858 5,5.00002 0,2.7614 -2.238576,5 -5,5 -2.761424,0 -5,-2.2386 -5,-5 0,-2.76144 2.238576,-5.00002 5,-5.00002 z m -15,0 c 2.761424,0 5,2.23858 5,5.00002 0,2.7614 -2.238576,5 -5,5 -2.761424,0 -5,-2.2386 -5,-5 0,-2.76144 2.238576,-5.00002 5,-5.00002 z m -15,0 c 2.761424,0 5,2.23858 5,5.00002 0,2.7614 -2.238576,5 -5,5 -2.761424,0 -5,-2.2386 -5,-5 0,-2.76144 2.238576,-5.00002 5,-5.00002 z m -15,0 c 2.761424,0 5,2.23858 5,5.00002 0,2.7614 -2.238576,5 -5,5 -2.761424,0 -5,-2.2386 -5,-5 0,-2.76144 2.238576,-5.00002 5,-5.00002 z"
       id="path3784"
       inkscape:connector-curvature="0" />
  </g>
</svg>
