<?xml version="1.0" encoding="UTF-8" standalone="no"?>
<!-- Created with Inkscape (http://www.inkscape.org/) -->

<svg
   xmlns:dc="http://purl.org/dc/elements/1.1/"
   xmlns:cc="http://creativecommons.org/ns#"
   xmlns:rdf="http://www.w3.org/1999/02/22-rdf-syntax-ns#"
   xmlns:svg="http://www.w3.org/2000/svg"
   xmlns="http://www.w3.org/2000/svg"
   xmlns:xlink="http://www.w3.org/1999/xlink"
   xmlns:sodipodi="http://sodipodi.sourceforge.net/DTD/sodipodi-0.dtd"
   xmlns:inkscape="http://www.inkscape.org/namespaces/inkscape"
   width="96"
   height="96"
   id="svg2"
   version="1.1"
   inkscape:version="0.48.4 r9939"
   sodipodi:docname="indicator-messages-new.svg">
  <defs
     id="defs4">
    <linearGradient
       id="linearGradient3781">
      <stop
         style="stop-color:#f7c314;stop-opacity:1;"
         offset="0"
         id="stop3783" />
      <stop
         style="stop-color:#fffe00;stop-opacity:1;"
         offset="1"
         id="stop3785" />
    </linearGradient>
    <linearGradient
       inkscape:collect="always"
       xlink:href="#linearGradient3781"
       id="linearGradient3787"
       x1="-54.401958"
       y1="65.46534"
       x2="-57.640369"
       y2="-3.6754947"
       gradientUnits="userSpaceOnUse" />
  </defs>
  <sodipodi:namedview
     id="base"
     pagecolor="#ffffff"
     bordercolor="#666666"
     borderopacity="1.0"
     inkscape:pageopacity="0.0"
     inkscape:pageshadow="2"
     inkscape:zoom="5.90625"
     inkscape:cx="70.086109"
     inkscape:cy="48"
     inkscape:document-units="px"
     inkscape:current-layer="layer1"
     showgrid="true"
     inkscape:snap-page="true"
     inkscape:snap-global="false"
     inkscape:snap-center="true"
     inkscape:snap-object-midpoints="false"
     showguides="true"
     inkscape:guide-bbox="true"
     inkscape:snap-bbox="true"
     inkscape:object-paths="true"
     inkscape:object-nodes="true"
     inkscape:window-width="1305"
     inkscape:window-height="744"
     inkscape:window-x="61"
     inkscape:window-y="24"
     inkscape:window-maximized="1"
     inkscape:snap-midpoints="false"
     inkscape:snap-grids="true"
     inkscape:snap-to-guides="false">
    <inkscape:grid
       type="xygrid"
       id="grid3002"
       empspacing="5"
       visible="true"
       enabled="true"
       snapvisiblegridlinesonly="true" />
  </sodipodi:namedview>
  <metadata
     id="metadata7">
    <rdf:RDF>
      <cc:Work
         rdf:about="">
        <dc:format>image/svg+xml</dc:format>
        <dc:type
           rdf:resource="http://purl.org/dc/dcmitype/StillImage" />
        <dc:title />
      </cc:Work>
    </rdf:RDF>
  </metadata>
  <g
     inkscape:label="Layer 1"
     inkscape:groupmode="layer"
     id="layer1"
     transform="translate(0,-956.36218)">
    <rect
       style="fill:#ffffff;fill-opacity:0;fill-rule:nonzero;stroke:none"
       id="rect3775"
       width="96"
       height="96"
       x="0"
       y="956.36218"
       ry="0" />
    <path
       style="fill:#000000;fill-opacity:0.09589041;fill-rule:nonzero;stroke:none"
       d="m 3.353015,956.30662 c -1.884176,0 -3.4111555,1.43156 -3.4111555,3.19799 l 0,83.65949 c 0,1.7665 1.5269795,3.1981 3.4111555,3.1981 l 89.23583,0 c 1.884174,0 3.411155,-1.4316 3.411155,-3.1981 l 0,-83.65949 c 0,-1.76643 -1.526981,-3.19799 -3.411155,-3.19799 z"
       id="rect3772"
       inkscape:connector-curvature="0"
       sodipodi:nodetypes="sssssssss" />
    <path
       style="fill:#000000;fill-opacity:0.18721463;fill-rule:nonzero;stroke:none"
       d="m 1.0459761,1041.8066 0,7.4219 c 0,1.7392 1.461916,3.1337 3.2852054,3.1337 l 86.3836135,0 c 1.823288,0 3.285205,-1.3945 3.285205,-3.1337 l 0,-7.4219 -92.9540239,0 z"
       id="rect3785"
       inkscape:connector-curvature="0" />
    <path
       style="fill:#000000;fill-opacity:0.38356168;fill-rule:nonzero;stroke:none"
       d="m 1.0459761,1041.8066 0,5.3807 c 0,1.762 1.461916,3.1749 3.2852054,3.1749 l 86.3836135,0 c 1.823288,0 3.285205,-1.4129 3.285205,-3.1749 l 0,-5.3807 -92.9540239,0 z"
       id="rect3783"
       inkscape:connector-curvature="0" />
    <rect
       style="fill:#f7e8aa;fill-opacity:1;fill-rule:nonzero;stroke:none"
       id="rect2985-2"
       width="93"
       height="88.999962"
       x="0.9999969"
       y="957.36224"
       ry="3.1511383" />
    <g
       id="g3031"
       transform="matrix(1.1071429,0,0,1.0595241,51.845906,-54.106817)">
      <path
         inkscape:connector-curvature="0"
         id="path3059"
         d="m -31.581584,954.64465 -14.34375,14.34375 0,11.3125 7.28125,-7.28125 0,-11.09375 11.09375,0 7.28125,-7.28125 -11.3125,0 z m 39.59375,0 -7.28125,7.28125 11.3125,0 7.28125,-7.28125 -11.3125,0 z m 30.0625,9.53125 -7.28125,7.28125 0,11.3125 7.28125,-7.28125 0,-11.3125 z m -76.71875,37.125 -7.28125,7.2812 0,11.3125 7.28125,-7.2812 0,-11.3125 z m 76.71875,2.5 -7.28125,7.2812 0,11.3125 7.28125,-7.2812 0,-11.3125 z m -67.21875,27.5937 -7.25,7.25 11.3125,0 7.25,-7.25 -11.3125,0 z m 39.625,0 -7.25,7.25 11.3125,0 7.25,-7.25 -11.3125,0 z"
         style="fill:#212178;fill-opacity:1;fill-rule:nonzero;stroke:none" />
      <path
         inkscape:connector-curvature="0"
         id="path3034"
         d="m -42.956584,954.64465 c -0.823828,0 -1.55618,0.33743 -2.09375,0.875 -0.53757,0.53757 -0.875,1.26992 -0.875,2.09375 l 0,2.875 5.84375,-5.84375 -2.875,0 z m 31.1875,0 -7.28125,7.28125 11.3125,0 7.28125,-7.28125 -11.3125,0 z m 39.5625,0 -7.28125,7.28125 10.28125,0 0,1.0625 6.71875,-6.71875 c -0.133902,-0.23952 -0.120023,-0.55752 -0.3125,-0.75 -0.53757,-0.53757 -1.269922,-0.875 -2.09375,-0.875 l -7.3125,0 z m -66.4375,26.875 -7.28125,7.28125 0,11.3125 7.28125,-7.28125 0,-11.3125 z m 76.71875,2.46875 -7.28125,7.28125 0,11.31245 7.28125,-7.2812 0,-11.3125 z m -76.71875,37.0937 -7.28125,7.2813 0,7.3125 c 0,0.8239 0.33743,1.5561 0.875,2.0937 0.192477,0.1925 0.510483,0.1786 0.75,0.3125 l 6.6875,-6.6875 -1.03125,0 0,-10.3125 z m 76.71875,2.5 -7.28125,7.2813 0,0.5312 -0.53125,0 -7.25,7.25 11.3125,0 3.75,-3.75 0,-11.3125 z m -47.40625,7.8125 -7.25,7.25 11.3125,0 7.25,-7.25 -11.3125,0 z"
         style="fill:#d40000;fill-opacity:1;fill-rule:nonzero;stroke:none" />
    </g>
    <path
       sodipodi:type="star"
       style="fill:#000000;fill-opacity:0.46118721;fill-rule:evenodd;stroke:none"
       id="path3774"
       sodipodi:sides="12"
       sodipodi:cx="-60"
       sodipodi:cy="31"
       sodipodi:r1="32.015621"
       sodipodi:r2="24.019966"
       sodipodi:arg1="0.89605538"
       sodipodi:arg2="1.1578548"
       inkscape:flatsided="false"
       inkscape:rounded="0"
       inkscape:randomized="0"
       d="m -40,56 -10.360659,-2.999048 -4.818833,9.649683 -7.47307,-7.777581 -8.998073,5.947454 L -74.233713,50.34839 -85,51 l 2.999048,-10.360659 -9.649683,-4.818833 7.777581,-7.47307 -5.947454,-8.998073 L -79.34839,16.766287 -80,6.0000001 l 10.360659,2.999048 4.818833,-9.64968317 7.47307,7.77758147 8.998073,-5.9474545 L -45.766287,11.65161 -35,11 l -2.999048,10.360659 9.649683,4.818833 -7.777581,7.47307 5.947454,8.998073 -10.472118,2.583078 z"
       transform="matrix(1,0,0,0.80565564,122.32276,999.86307)" />
    <path
       style="font-size:42.26717377px;font-style:normal;font-variant:normal;font-weight:normal;font-stretch:normal;text-align:end;line-height:125%;letter-spacing:0px;word-spacing:0px;text-anchor:end;fill:#800000;fill-opacity:1;stroke:none;font-family:mry_KacstQurn;-inkscape-font-specification:mry_KacstQurn"
       d="m 36.005512,969.83308 c -2.847359,3e-5 -5.529271,0.50365 -8.075278,1.50477 -2.546049,0.98645 -4.797394,2.41049 -6.740803,4.28024 -1.898233,1.84038 -3.355386,3.95768 -4.379812,6.38692 -1.024449,2.42929 -1.539789,4.9781 -1.539778,7.65759 -1.1e-5,2.7826 0.496178,5.3956 1.505561,7.8249 1.009359,2.4145 2.485663,4.5466 4.414029,6.3869 1.928343,1.8404 4.133205,3.2229 6.603934,4.18 2.470685,0.9717 5.082871,1.4713 7.869975,1.4713 2.289896,0 4.560391,-0.3715 6.775022,-1.137 2.22963,-0.7508 4.275911,-1.8488 6.159109,-3.277 l -2.053037,-2.4412 c -1.566822,1.1926 -3.283687,2.109 -5.166809,2.7421 -1.868132,0.6479 -3.770897,0.9698 -5.714285,0.9698 -2.365274,0 -4.593383,-0.4275 -6.67237,-1.2373 -2.079031,-0.7951 -3.89293,-1.9466 -5.474765,-3.4777 -1.642134,-1.5606 -2.924345,-3.3707 -3.798118,-5.4171 -0.858728,-2.0466 -1.26605,-4.2468 -1.266039,-6.5877 -1.1e-5,-2.8415 0.658844,-5.46239 1.984602,-7.89166 1.340803,-2.44396 3.177937,-4.41702 5.5432,-5.91877 1.446246,-0.94223 3.019584,-1.63552 4.721984,-2.10668 1.702356,-0.48583 3.484841,-0.73564 5.337895,-0.73567 2.651462,3e-5 5.111953,0.50765 7.356716,1.53821 2.259753,1.0159 4.181669,2.48534 5.748503,4.414 0.964139,1.17785 1.654408,2.46161 2.121471,3.84552 0.482042,1.38397 0.752736,2.87211 0.75278,4.44746 -4.4e-5,2.60589 -0.63158,4.73789 -1.88195,6.38679 -1.235392,1.6343 -2.967311,2.5855 -5.16681,2.9094 l 0,-16.25159 -3.216423,0 0,2.90922 c -0.888884,-1.11891 -1.938713,-1.96319 -3.113773,-2.50796 -1.175125,-0.55944 -2.520154,-0.83595 -4.071856,-0.83597 -2.576184,2e-5 -4.703162,0.93513 -6.330197,2.77546 -1.627067,1.84041 -2.429449,4.21145 -2.429427,7.15604 -2.2e-5,2.9446 0.817427,5.3491 2.429427,7.1895 1.627035,1.8256 3.738947,2.742 6.330197,2.742 1.551702,0 2.911798,-0.2725 4.071856,-0.8025 1.17506,-0.5448 2.209823,-1.3743 3.113773,-2.508 l 0,3.3774 c 4.21824,-0.087 7.527593,-1.2398 9.923011,-3.4777 2.39533,-2.2379 3.59277,-5.2904 3.592814,-9.16247 -4.4e-5,-1.81087 -0.321302,-3.5568 -0.923867,-5.24994 -0.587596,-1.69309 -1.436447,-3.27209 -2.566296,-4.71495 -1.853076,-2.35562 -4.135834,-4.1697 -6.877673,-5.45062 -2.726849,-1.28085 -5.702679,-1.90601 -8.896493,-1.90604 z m -0.61591,13.24199 c 1.837933,3e-5 3.295085,0.61721 4.379812,1.83917 1.084671,1.20724 1.642396,2.82096 1.642428,4.88216 -3.2e-5,2.0905 -0.538607,3.7418 -1.608211,4.949 -1.054604,1.2073 -2.526812,1.8058 -4.379812,1.8058 -1.868122,0 -3.310197,-0.5797 -4.379812,-1.7724 -1.06966,-1.2073 -1.608235,-2.8771 -1.608212,-4.9824 -2.3e-5,-2.0759 0.538552,-3.7083 1.608212,-4.91565 1.084682,-1.20721 2.522673,-1.80565 4.345595,-1.80568 z"
       id="text3069"
       inkscape:connector-curvature="0" />
    <path
       transform="matrix(1,0,0,0.80565564,122.32276,997.86307)"
       d="m -40,56 -10.360659,-2.999048 -4.818833,9.649683 -7.47307,-7.777581 -8.998073,5.947454 L -74.233713,50.34839 -85,51 l 2.999048,-10.360659 -9.649683,-4.818833 7.777581,-7.47307 -5.947454,-8.998073 L -79.34839,16.766287 -80,6.0000001 l 10.360659,2.999048 4.818833,-9.64968317 7.47307,7.77758147 8.998073,-5.9474545 L -45.766287,11.65161 -35,11 l -2.999048,10.360659 9.649683,4.818833 -7.777581,7.47307 5.947454,8.998073 -10.472118,2.583078 z"
       inkscape:randomized="0"
       inkscape:rounded="0"
       inkscape:flatsided="false"
       sodipodi:arg2="1.1578548"
       sodipodi:arg1="0.89605538"
       sodipodi:r2="24.019966"
       sodipodi:r1="32.015621"
       sodipodi:cy="31"
       sodipodi:cx="-60"
       sodipodi:sides="12"
       id="path3772"
       style="fill:#000000;fill-opacity:0.46118721;fill-rule:evenodd;stroke:none"
       sodipodi:type="star" />
    <path
       sodipodi:type="star"
       style="fill:url(#linearGradient3787);fill-opacity:1;fill-rule:evenodd;stroke:none"
       id="path2996"
       sodipodi:sides="12"
       sodipodi:cx="-60"
       sodipodi:cy="31"
       sodipodi:r1="32.015621"
       sodipodi:r2="24.019966"
       sodipodi:arg1="0.89605538"
       sodipodi:arg2="1.1578548"
       inkscape:flatsided="false"
       inkscape:rounded="0"
       inkscape:randomized="0"
       d="m -40,56 -10.360659,-2.999048 -4.818833,9.649683 -7.47307,-7.777581 -8.998073,5.947454 L -74.233713,50.34839 -85,51 l 2.999048,-10.360659 -9.649683,-4.818833 7.777581,-7.47307 -5.947454,-8.998073 L -79.34839,16.766287 -80,6.0000001 l 10.360659,2.999048 4.818833,-9.64968317 7.47307,7.77758147 8.998073,-5.9474545 L -45.766287,11.65161 -35,11 l -2.999048,10.360659 9.649683,4.818833 -7.777581,7.47307 5.947454,8.998073 -10.472118,2.583078 z"
       transform="matrix(1,0,0,0.80565564,122.32276,995.86307)" />
    <path
       transform="matrix(0.77424613,0,0,0.62377576,108.77753,1001.5013)"
       d="m -40,56 -10.360659,-2.999048 -4.818833,9.649683 -7.47307,-7.777581 -8.998073,5.947454 L -74.233713,50.34839 -85,51 l 2.999048,-10.360659 -9.649683,-4.818833 7.777581,-7.47307 -5.947454,-8.998073 L -79.34839,16.766287 -80,6.0000001 l 10.360659,2.999048 4.818833,-9.64968317 7.47307,7.77758147 8.998073,-5.9474545 L -45.766287,11.65161 -35,11 l -2.999048,10.360659 9.649683,4.818833 -7.777581,7.47307 5.947454,8.998073 -10.472118,2.583078 z"
       inkscape:randomized="0"
       inkscape:rounded="0"
       inkscape:flatsided="false"
       sodipodi:arg2="1.1578548"
       sodipodi:arg1="0.89605538"
       sodipodi:r2="24.019966"
       sodipodi:r1="32.015621"
       sodipodi:cy="31"
       sodipodi:cx="-60"
       sodipodi:sides="12"
       id="path3770"
       style="fill:none;fill-opacity:1;fill-rule:evenodd;stroke:#000000;stroke-opacity:1;stroke-width:1.43895175;stroke-miterlimit:4;stroke-dasharray:5.755807,1.43895175;stroke-dashoffset:0"
       sodipodi:type="star" />
    <path
       style="font-size:16.99253845000000140px;font-style:normal;font-variant:normal;font-weight:normal;font-stretch:normal;text-align:end;line-height:125%;letter-spacing:0px;word-spacing:0px;text-anchor:end;fill:#000000;fill-opacity:1;stroke:none;font-family:Andale Mono;-inkscape-font-specification:Andale Mono"
       d="M 49.125 56.15625 L 49.125 71.71875 L 51.0625 71.71875 L 51.0625 61.3125 L 51.09375 61.3125 L 55.03125 71.71875 L 57.09375 71.71875 L 57.09375 56.15625 L 55.15625 56.15625 L 55.15625 66.59375 L 55.125 66.59375 L 51.1875 56.15625 L 49.125 56.15625 z M 61.5 60.15625 C 61.126358 60.213562 60.79279 60.364529 60.46875 60.59375 C 60.045509 60.8994 59.65236 61.336503 59.34375 61.875 C 59.035137 62.398962 58.823781 63.022296 58.65625 63.75 C 58.488717 64.47772 58.40625 65.24961 58.40625 66.09375 C 58.40625 66.967009 58.466285 67.772292 58.625 68.5 C 58.792531 69.227715 59.043955 69.851049 59.34375 70.375 C 59.643543 70.898954 60.005442 71.302666 60.4375 71.59375 C 60.869554 71.884835 61.337131 72.03125 61.875 72.03125 C 62.650933 72.03125 63.328311 71.752974 63.875 71.15625 C 64.421677 70.559527 64.829219 69.588993 65.09375 68.25 L 63.4375 68.25 C 63.375772 68.599305 63.210837 68.929809 62.9375 69.25 C 62.664154 69.555641 62.316647 69.718752 61.9375 69.71875 C 61.408448 69.718752 61.000906 69.482434 60.71875 69.03125 C 60.436588 68.565517 60.3077 67.833443 60.28125 66.84375 L 65.1875 66.84375 C 65.222763 65.970501 65.185937 65.14424 65.0625 64.34375 C 64.939048 63.543275 64.750903 62.813341 64.46875 62.1875 C 64.195402 61.561678 63.838301 61.082617 63.40625 60.71875 C 62.974189 60.340351 62.456949 60.156262 61.875 60.15625 C 61.744941 60.156253 61.624547 60.137146 61.5 60.15625 z M 65.6875 60.4375 L 67.84375 71.71875 L 69.78125 71.71875 L 70.96875 64.15625 L 71 64.15625 L 72.1875 71.71875 L 74.125 71.71875 L 76.28125 60.4375 L 74.34375 60.4375 L 73.09375 68.09375 L 73.0625 68.09375 L 71.90625 60.4375 L 70.09375 60.4375 L 68.9375 68.125 L 68.90625 68.125 L 67.65625 60.4375 L 65.6875 60.4375 z M 61.84375 62.46875 C 62.302255 62.468759 62.623308 62.68624 62.84375 63.09375 C 63.072999 63.501277 63.22432 64.089078 63.3125 64.875 L 60.28125 64.875 C 60.290065 64.656693 60.29966 64.401538 60.34375 64.125 C 60.396652 63.848477 60.47912 63.59118 60.59375 63.34375 C 60.717192 63.096336 60.868513 62.910106 61.0625 62.75 C 61.265299 62.575358 61.543952 62.468759 61.84375 62.46875 z "
       transform="translate(0,956.36218)"
       id="text3776" />
    <path
       style="fill:#000000;fill-opacity:0.38356168;fill-rule:nonzero;stroke:none"
       d="m 1,1042.3622 0.045976,2.7457 c 0.03024,1.8058 1.461916,3.2543 3.2852054,3.2543 l 86.3836136,0 c 1.823288,0 3.285205,-1.4481 3.285205,-3.2543 l -0.04598,-2.7457 z"
       id="rect3781"
       inkscape:connector-curvature="0"
       sodipodi:nodetypes="csssscc" />
    <rect
       style="fill:#ffffff;fill-opacity:0.30000001;fill-rule:nonzero;stroke:none"
       id="rect3770"
       width="92.954033"
       height="2.000005"
       x="1.045976"
       y="1040.3622" />
  </g>
</svg>
