<?xml version="1.0" encoding="UTF-8" standalone="no"?>
<!-- Created with Inkscape (http://www.inkscape.org/) -->

<svg
   xmlns:dc="http://purl.org/dc/elements/1.1/"
   xmlns:cc="http://creativecommons.org/ns#"
   xmlns:rdf="http://www.w3.org/1999/02/22-rdf-syntax-ns#"
   xmlns:svg="http://www.w3.org/2000/svg"
   xmlns="http://www.w3.org/2000/svg"
   xmlns:xlink="http://www.w3.org/1999/xlink"
   xmlns:sodipodi="http://sodipodi.sourceforge.net/DTD/sodipodi-0.dtd"
   xmlns:inkscape="http://www.inkscape.org/namespaces/inkscape"
   width="96"
   height="96"
   id="svg2"
   version="1.1"
   inkscape:version="0.48.4 r9939"
   sodipodi:docname="media-player-banshee-buffering.svg">
  <defs
     id="defs4">
    <linearGradient
       id="linearGradient3764">
      <stop
         style="stop-color:#f75d00;stop-opacity:1;"
         offset="0"
         id="stop3766" />
      <stop
         style="stop-color:#ffa03b;stop-opacity:1;"
         offset="1"
         id="stop3768" />
    </linearGradient>
    <linearGradient
       inkscape:collect="always"
       xlink:href="#linearGradient3764"
       id="linearGradient3770"
       x1="50"
       y1="1047.3622"
       x2="50"
       y2="962.36218"
       gradientUnits="userSpaceOnUse"
       gradientTransform="matrix(1.1065955,0,0,1.0595238,-5.5935968,-62.283407)" />
  </defs>
  <sodipodi:namedview
     id="base"
     pagecolor="#ffffff"
     bordercolor="#666666"
     borderopacity="1.0"
     inkscape:pageopacity="0.0"
     inkscape:pageshadow="2"
     inkscape:zoom="5.90625"
     inkscape:cx="43.234128"
     inkscape:cy="48"
     inkscape:document-units="px"
     inkscape:current-layer="layer1"
     showgrid="true"
     inkscape:snap-page="true"
     inkscape:snap-global="true"
     inkscape:snap-center="true"
     inkscape:snap-object-midpoints="false"
     showguides="true"
     inkscape:guide-bbox="true"
     inkscape:snap-bbox="true"
     inkscape:object-paths="true"
     inkscape:object-nodes="true"
     inkscape:window-width="1305"
     inkscape:window-height="744"
     inkscape:window-x="61"
     inkscape:window-y="24"
     inkscape:window-maximized="1"
     inkscape:snap-midpoints="true"
     inkscape:snap-grids="true"
     inkscape:snap-to-guides="false">
    <inkscape:grid
       type="xygrid"
       id="grid3002"
       empspacing="5"
       visible="true"
       enabled="true"
       snapvisiblegridlinesonly="true" />
  </sodipodi:namedview>
  <metadata
     id="metadata7">
    <rdf:RDF>
      <cc:Work
         rdf:about="">
        <dc:format>image/svg+xml</dc:format>
        <dc:type
           rdf:resource="http://purl.org/dc/dcmitype/StillImage" />
        <dc:title />
      </cc:Work>
    </rdf:RDF>
  </metadata>
  <g
     inkscape:label="Layer 1"
     inkscape:groupmode="layer"
     id="layer1"
     transform="translate(0,-956.36218)">
    <rect
       style="fill:#ffffff;fill-opacity:0;fill-rule:nonzero;stroke:none"
       id="rect3775"
       width="96"
       height="96"
       x="0"
       y="956.36218"
       ry="0" />
    <path
       style="fill:#000000;fill-opacity:0.09589041;fill-rule:nonzero;stroke:none"
       d="m 3.353015,956.30662 c -1.884176,0 -3.4111555,1.43156 -3.4111555,3.19799 l 0,83.65949 c 0,1.7665 1.5269795,3.1981 3.4111555,3.1981 l 89.23583,0 c 1.884174,0 3.411155,-1.4316 3.411155,-3.1981 l 0,-83.65949 c 0,-1.76643 -1.526981,-3.19799 -3.411155,-3.19799 z"
       id="rect3772"
       inkscape:connector-curvature="0"
       sodipodi:nodetypes="sssssssss" />
    <path
       style="fill:#000000;fill-opacity:0.18721463;fill-rule:nonzero;stroke:none"
       d="m 1.0459761,1041.8066 0,7.4219 c 0,1.7392 1.461916,3.1337 3.2852054,3.1337 l 86.3836135,0 c 1.823288,0 3.285205,-1.3945 3.285205,-3.1337 l 0,-7.4219 -92.9540239,0 z"
       id="rect3785"
       inkscape:connector-curvature="0" />
    <path
       style="fill:#000000;fill-opacity:0.38356168;fill-rule:nonzero;stroke:none"
       d="m 1.0459761,1041.8066 0,5.3807 c 0,1.762 1.461916,3.1749 3.2852054,3.1749 l 86.3836135,0 c 1.823288,0 3.285205,-1.4129 3.285205,-3.1749 l 0,-5.3807 -92.9540239,0 z"
       id="rect3783"
       inkscape:connector-curvature="0" />
    <rect
       style="fill:url(#linearGradient3770);fill-opacity:1;fill-rule:nonzero;stroke:none"
       id="rect2985"
       width="92.954025"
       height="89"
       x="1.045977"
       y="957.36218"
       ry="3.1511393" />
    <path
       style="fill:#000000;fill-opacity:0.38356168;fill-rule:nonzero;stroke:none"
       d="m 1,1042.3622 0.045976,2.7457 c 0.03024,1.8058 1.461916,3.2543 3.2852054,3.2543 l 86.3836136,0 c 1.823288,0 3.285205,-1.4481 3.285205,-3.2543 l -0.04598,-2.7457 z"
       id="rect3781"
       inkscape:connector-curvature="0"
       sodipodi:nodetypes="csssscc" />
    <rect
       style="fill:#ffffff;fill-opacity:0.10502283;fill-rule:nonzero;stroke:none"
       id="rect3770"
       width="92.954033"
       height="2.000005"
       x="1.045976"
       y="1040.3622" />
    <path
       style="fill:#ffffff;fill-opacity:0.1415525;fill-rule:nonzero;stroke:none"
       d="m 55,1007.3622 0,39 20,0 0,-39 -10,8 z"
       id="rect3786"
       inkscape:connector-curvature="0"
       sodipodi:nodetypes="cccccc" />
    <rect
       y="1002.3622"
       x="60"
       height="44.000004"
       width="10"
       id="rect3788"
       style="fill:#ffffff;fill-opacity:0.1415525;fill-rule:nonzero;stroke:none" />
    <path
       style="fill:#fdc399;fill-opacity:1;fill-rule:nonzero;stroke:none"
       d="m 40,972.36218 0,10 0,16.34372 c -1.468434,-0.847 -3.183001,-1.3437 -5,-1.3437 -5.522847,0 -10,4.4771 -10,10 0,5.5228 4.477153,10 10,10 5.522847,0 9.768188,-4.482 10,-10 l 0,-25.00002 25,0 0,16.34372 c -1.468434,-0.847 -3.183001,-1.3437 -5,-1.3437 -5.522847,0 -10,4.4771 -10,10 0,5.5228 4.477153,10 10,10 5.522847,0 10,-4.4772 10,-10 l 0,-25.00002 0,-10 -5,0 -25,0 z m -5,30.00002 c 2.761424,0 5,2.2386 5,5 0,2.7614 -2.238576,5 -5,5 -2.761424,0 -5,-2.2386 -5,-5 0,-2.7614 2.238576,-5 5,-5 z m 30,0 c 2.761424,0 5,2.2386 5,5 0,2.7614 -2.238576,5 -5,5 -2.761424,0 -5,-2.2386 -5,-5 0,-2.7614 2.238576,-5 5,-5 z"
       id="rect3771"
       inkscape:connector-curvature="0"
       sodipodi:nodetypes="cccsssscccsssscccccssssssssss" />
    <path
       style="fill:#000000;fill-opacity:0.15525115;fill-rule:evenodd;stroke:none"
       d="m 47.5,967.36218 c -17.949254,0 -32.5,14.55075 -32.5,32.5 0,17.94922 14.550746,32.50002 32.5,32.50002 17.949254,0 32.5,-14.5508 32.5,-32.50002 0,-17.94925 -14.550746,-32.5 -32.5,-32.5 z m 0,5 c 15.187831,0 27.5,12.31217 27.5,27.5 0,15.18782 -12.312169,27.50002 -27.5,27.50002 -15.187831,0 -27.5,-12.3122 -27.5,-27.50002 0,-15.18783 12.312169,-27.5 27.5,-27.5 z m 0,5 c -1.385,0 -2.5,1.39375 -2.5,3.125 l 0,18.75 c 0,0.11892 0.021,0.22836 0.03125,0.34375 -0.01069,0.0943 -0.03125,0.18403 -0.03125,0.28125 0,1.21192 0.85874,2.20512 2,2.43752 0.163037,0.033 0.326875,0.062 0.5,0.062 l 15,0 c 1.385,0 2.5,-1.115 2.5,-2.50002 0,-1.385 -1.115,-2.5 -2.5,-2.5 l -12.5,0 0,-16.875 c 0,-1.73125 -1.115,-3.125 -2.5,-3.125 z"
       id="path2997"
       inkscape:connector-curvature="0" />
  </g>
</svg>
