<?xml version="1.0" encoding="UTF-8" standalone="no"?>
<!-- Created with Inkscape (http://www.inkscape.org/) -->

<svg
   xmlns:dc="http://purl.org/dc/elements/1.1/"
   xmlns:cc="http://creativecommons.org/ns#"
   xmlns:rdf="http://www.w3.org/1999/02/22-rdf-syntax-ns#"
   xmlns:svg="http://www.w3.org/2000/svg"
   xmlns="http://www.w3.org/2000/svg"
   xmlns:sodipodi="http://sodipodi.sourceforge.net/DTD/sodipodi-0.dtd"
   xmlns:inkscape="http://www.inkscape.org/namespaces/inkscape"
   width="16"
   height="16"
   id="svg2"
   sodipodi:version="0.32"
   inkscape:version="0.48.4 r9939"
   version="1.0"
   sodipodi:docname="network-wireless-encrypted-symbolic.svg"
   inkscape:output_extension="org.inkscape.output.svg.inkscape">
  <defs
     id="defs4" />
  <sodipodi:namedview
     id="base"
     pagecolor="#ffffff"
     bordercolor="#e7e7e7"
     borderopacity="1"
     inkscape:pageopacity="0.0"
     inkscape:pageshadow="2"
     inkscape:zoom="16.769565"
     inkscape:cx="-2.5992665"
     inkscape:cy="6.1161914"
     inkscape:document-units="px"
     inkscape:current-layer="layer1"
     showgrid="true"
     inkscape:showpageshadow="false"
     showguides="true"
     inkscape:guide-bbox="true"
     inkscape:window-width="1305"
     inkscape:window-height="744"
     inkscape:window-x="61"
     inkscape:window-y="24"
     inkscape:window-maximized="1"
     inkscape:snap-global="true"
     inkscape:snap-page="true"
     inkscape:snap-bbox="true">
    <sodipodi:guide
       orientation="1,0"
       position="0,112"
       id="guide2383" />
    <sodipodi:guide
       orientation="0,1"
       position="78.156291,0"
       id="guide2389" />
    <inkscape:grid
       type="xygrid"
       id="grid3672"
       visible="true"
       enabled="true" />
    <sodipodi:guide
       orientation="1,0"
       position="22.008699,4.1542523"
       id="guide2950" />
    <sodipodi:guide
       orientation="0,1"
       position="11.22532,22.008699"
       id="guide2952" />
  </sodipodi:namedview>
  <metadata
     id="metadata7">
    <rdf:RDF>
      <cc:Work
         rdf:about="">
        <dc:format>image/svg+xml</dc:format>
        <dc:type
           rdf:resource="http://purl.org/dc/dcmitype/StillImage" />
        <dc:title />
      </cc:Work>
    </rdf:RDF>
  </metadata>
  <g
     inkscape:label="Calque 1"
     inkscape:groupmode="layer"
     id="layer1">
    <path
       inkscape:connector-curvature="0"
       id="path3112"
       d="M 8,0 C 4.881215,0 2.043833,1.3284273 0,3.5000001 l 1.352941,1.4375 C 3.056137,3.1278559 5.401014,2.0000001 8,2.0000001 c 2.598986,0 4.943864,1.1278558 6.647059,2.9375 L 16,3.5000001 C 13.956167,1.3284273 11.118784,0 8,0 z m 0,3.0000001 c -2.339088,0 -4.467124,0.9963203 -6,2.625 l 1.352942,1.4375 C 4.545178,5.7957492 6.18071,5.0000001 8,5.0000001 c 1.819291,0 3.454823,0.7957491 4.647059,2.0625 l 1.352942,-1.4375 c -1.532876,-1.6286797 -3.660912,-2.625 -6,-2.625 z m 0,3 c -1.559392,0 -2.978082,0.6642136 -4,1.75 l 1.323529,1.40625 C 6.004807,8.4323921 6.960405,8.0000001 8,8.0000001 c 1.039596,0 1.995192,0.432392 2.676472,1.15625 L 12,7.7500001 c -1.021915,-1.0857864 -2.440608,-1.75 -4,-1.75 z m 0,3 c -0.779695,0 -1.489041,0.332107 -2,0.8749998 L 8,12 10.000001,9.8749999 C 9.489042,9.3321071 8.779696,9.0000001 8,9.0000001 z"
       style="opacity:0.34999999999999998;color:#000000;fill:#999999;fill-opacity:1;fill-rule:nonzero;stroke:none;stroke-width:1.50000000000000000;marker:none;visibility:visible;display:inline;overflow:visible;enable-background:accumulate" />
    <path
       sodipodi:nodetypes="sscsssssssscsssccccc"
       id="path3114"
       d="m 11.625,9.0000001 c -0.346249,0 -0.759364,0.3058838 -0.624999,0.625 l 0,2.3749999 -0.375,0 c -0.34625,0 -0.625,0.27875 -0.625,0.625 l 0,2.75 c 0,0.34625 0.27875,0.625 0.625,0.625 l 4.75,0 c 0.34625,0 0.625,-0.27875 0.625,-0.625 l 0,-2.75 c 0,-0.34625 -0.27875,-0.625 -0.625,-0.625 l -0.375,0 0,-2.3749999 c 0,-0.34625 -0.27875,-0.625 -0.625,-0.625 z M 12,9.9999999 l 2.000001,0 0,2.0000001 L 12,12 z"
       style="color:#000000;fill:#999999;fill-opacity:1;fill-rule:nonzero;stroke:none;stroke-width:1;marker:none;visibility:visible;display:inline;overflow:visible;enable-background:accumulate"
       inkscape:connector-curvature="0" />
  </g>
</svg>
