<?xml version="1.0" encoding="UTF-8" standalone="no"?>
<!-- Created with Inkscape (http://www.inkscape.org/) -->

<svg
   xmlns:dc="http://purl.org/dc/elements/1.1/"
   xmlns:cc="http://creativecommons.org/ns#"
   xmlns:rdf="http://www.w3.org/1999/02/22-rdf-syntax-ns#"
   xmlns:svg="http://www.w3.org/2000/svg"
   xmlns="http://www.w3.org/2000/svg"
   xmlns:sodipodi="http://sodipodi.sourceforge.net/DTD/sodipodi-0.dtd"
   xmlns:inkscape="http://www.inkscape.org/namespaces/inkscape"
   width="96"
   height="96"
   id="svg2"
   version="1.1"
   inkscape:version="0.48.4 r9939"
   sodipodi:docname="notification-gsm-disconnected.svg">
  <defs
     id="defs4" />
  <sodipodi:namedview
     id="base"
     pagecolor="#ffffff"
     bordercolor="#666666"
     borderopacity="1.0"
     inkscape:pageopacity="0.0"
     inkscape:pageshadow="2"
     inkscape:zoom="5.90625"
     inkscape:cx="48"
     inkscape:cy="48"
     inkscape:document-units="px"
     inkscape:current-layer="layer1"
     showgrid="true"
     inkscape:snap-page="true"
     inkscape:snap-global="true"
     inkscape:snap-center="true"
     inkscape:snap-object-midpoints="false"
     showguides="true"
     inkscape:guide-bbox="true"
     inkscape:snap-bbox="true"
     inkscape:object-paths="true"
     inkscape:object-nodes="true"
     inkscape:window-width="1305"
     inkscape:window-height="744"
     inkscape:window-x="61"
     inkscape:window-y="24"
     inkscape:window-maximized="1"
     inkscape:snap-midpoints="false"
     inkscape:snap-grids="true"
     inkscape:snap-to-guides="false">
    <inkscape:grid
       type="xygrid"
       id="grid3002"
       empspacing="5"
       visible="true"
       enabled="true"
       snapvisiblegridlinesonly="true" />
  </sodipodi:namedview>
  <metadata
     id="metadata7">
    <rdf:RDF>
      <cc:Work
         rdf:about="">
        <dc:format>image/svg+xml</dc:format>
        <dc:type
           rdf:resource="http://purl.org/dc/dcmitype/StillImage" />
        <dc:title />
      </cc:Work>
    </rdf:RDF>
  </metadata>
  <g
     inkscape:label="Layer 1"
     inkscape:groupmode="layer"
     id="layer1"
     transform="translate(0,-956.36218)">
    <rect
       style="fill:#ffffff;fill-opacity:0;fill-rule:nonzero;stroke:none"
       id="rect3775"
       width="96"
       height="96"
       x="0"
       y="956.36212"
       ry="0" />
    <path
       style="fill:#000000;fill-opacity:0.09589042;fill-rule:nonzero;stroke:none"
       d="M 3.4090909,956.3622 C 1.5260553,956.3622 0,957.7926 0,959.5584 l 0,83.6076 c 0,1.7658 1.5260553,3.1962 3.4090909,3.1962 l 89.1818171,0 c 1.883034,0 3.409092,-1.4304 3.409092,-3.1962 l 0,-83.6076 c 0,-1.7658 -1.526058,-3.1962 -3.409092,-3.1962 z"
       id="rect3772"
       inkscape:connector-curvature="0"
       sodipodi:nodetypes="sssssssss" />
    <path
       style="fill:#000000;fill-opacity:0.18721463;fill-rule:nonzero;stroke:none"
       d="m 1.0459761,1041.8064 0,7.422 c 0,1.7394 1.461916,3.1338 3.2852054,3.1338 l 86.3836105,0 c 1.823292,0 3.28521,-1.3944 3.28521,-3.1338 l 0,-7.422 -92.9540259,0 z"
       id="rect3785"
       inkscape:connector-curvature="0" />
    <path
       style="fill:#000000;fill-opacity:0.38356168;fill-rule:nonzero;stroke:none"
       d="m 1.0459761,1041.8064 0,5.3808 c 0,1.7622 1.461916,3.1752 3.2852054,3.1752 l 86.3836105,0 c 1.823292,0 3.28521,-1.413 3.28521,-3.1752 l 0,-5.3808 -92.9540259,0 z"
       id="rect3783"
       inkscape:connector-curvature="0" />
    <rect
       style="fill:#00bce2;fill-opacity:1;fill-rule:nonzero;stroke:none"
       id="rect2985"
       width="92.954025"
       height="89"
       x="1.0459771"
       y="957.36188"
       ry="3.1511393" />
    <path
       style="fill:#000000;fill-opacity:0.38356168;fill-rule:nonzero;stroke:none"
       d="m 1,1042.362 0.045978,2.7462 c 0.03024,1.8054 1.461916,3.2538 3.2852055,3.2538 l 86.3836145,0 c 1.823286,0 3.285204,-1.4478 3.285204,-3.2538 l -0.0462,-2.7462 z"
       id="rect3781"
       inkscape:connector-curvature="0"
       sodipodi:nodetypes="csssscc" />
    <rect
       style="fill:#ffffff;fill-opacity:0.3;fill-rule:nonzero;stroke:none"
       id="rect3770"
       width="92.954033"
       height="2.000005"
       x="1.045976"
       y="1040.3621" />
    <path
       style="fill:#434343;fill-opacity:1;fill-rule:evenodd;stroke:none"
       d="m 26.999778,987.86219 10.500111,10.50001 -10.500111,10.5 10.500111,10.5 10.500111,-10.5 10.500112,10.5 10.500109,-10.5 -10.500109,-10.5 L 69.000221,987.86219 58.500112,977.36218 48,987.86219 37.499889,977.36218 26.999778,987.86219 z"
       id="rect3764"
       inkscape:connector-curvature="0" />
    <rect
       style="fill:#000000;fill-opacity:0.33789954;fill-rule:evenodd;stroke:none"
       id="rect3768"
       width="6.0000014"
       height="29.999996"
       x="66"
       y="986.36212" />
    <rect
       style="fill:#000000;fill-opacity:0.33789954;fill-rule:evenodd;stroke:none"
       id="rect3771"
       width="6.0000014"
       height="24.000257"
       x="54"
       y="992.36212" />
    <rect
       style="fill:#000000;fill-opacity:0.33789954;fill-rule:evenodd;stroke:none"
       id="rect3773"
       width="6"
       height="18"
       x="42"
       y="998.36212" />
    <rect
       style="fill:#000000;fill-opacity:0.33789954;fill-rule:evenodd;stroke:none"
       id="rect3776"
       width="6"
       height="12.000015"
       x="30"
       y="1004.3621" />
    <rect
       style="fill:#000000;fill-opacity:0.33789954;fill-rule:evenodd;stroke:none"
       id="rect3778"
       width="6"
       height="6.0002594"
       x="18"
       y="1010.3621" />
  </g>
</svg>
