<?xml version="1.0" encoding="UTF-8" standalone="no"?>
<!-- Created with Inkscape (http://www.inkscape.org/) -->

<svg
   xmlns:dc="http://purl.org/dc/elements/1.1/"
   xmlns:cc="http://creativecommons.org/ns#"
   xmlns:rdf="http://www.w3.org/1999/02/22-rdf-syntax-ns#"
   xmlns:svg="http://www.w3.org/2000/svg"
   xmlns="http://www.w3.org/2000/svg"
   xmlns:sodipodi="http://sodipodi.sourceforge.net/DTD/sodipodi-0.dtd"
   xmlns:inkscape="http://www.inkscape.org/namespaces/inkscape"
   width="96"
   height="96"
   id="svg2"
   version="1.1"
   inkscape:version="0.48.4 r9939"
   sodipodi:docname="system-devices-panel.svg">
  <defs
     id="defs4" />
  <sodipodi:namedview
     id="base"
     pagecolor="#ffffff"
     bordercolor="#666666"
     borderopacity="1.0"
     inkscape:pageopacity="0.0"
     inkscape:pageshadow="2"
     inkscape:zoom="5.90625"
     inkscape:cx="34.05819"
     inkscape:cy="48"
     inkscape:document-units="px"
     inkscape:current-layer="layer1"
     showgrid="true"
     inkscape:snap-page="true"
     inkscape:snap-global="true"
     inkscape:snap-center="true"
     inkscape:snap-object-midpoints="false"
     showguides="true"
     inkscape:guide-bbox="true"
     inkscape:snap-bbox="true"
     inkscape:object-paths="true"
     inkscape:object-nodes="true"
     inkscape:window-width="1305"
     inkscape:window-height="744"
     inkscape:window-x="61"
     inkscape:window-y="24"
     inkscape:window-maximized="1"
     inkscape:snap-midpoints="false"
     inkscape:snap-grids="true"
     inkscape:snap-to-guides="false">
    <inkscape:grid
       type="xygrid"
       id="grid3002"
       empspacing="5"
       visible="true"
       enabled="true"
       snapvisiblegridlinesonly="true" />
  </sodipodi:namedview>
  <metadata
     id="metadata7">
    <rdf:RDF>
      <cc:Work
         rdf:about="">
        <dc:format>image/svg+xml</dc:format>
        <dc:type
           rdf:resource="http://purl.org/dc/dcmitype/StillImage" />
        <dc:title />
      </cc:Work>
    </rdf:RDF>
  </metadata>
  <g
     inkscape:label="Layer 1"
     inkscape:groupmode="layer"
     id="layer1"
     transform="translate(0,-956.36218)">
    <rect
       style="fill:#ffffff;fill-opacity:0;fill-rule:nonzero;stroke:none"
       id="rect3775"
       width="96"
       height="96"
       x="0"
       y="956.36218"
       ry="0" />
    <path
       style="fill:#000000;fill-opacity:0.09589041;fill-rule:nonzero;stroke:none"
       d="m 3.353015,956.30662 c -1.884176,0 -3.4111555,1.43156 -3.4111555,3.19799 l 0,83.65949 c 0,1.7665 1.5269795,3.1981 3.4111555,3.1981 l 89.23583,0 c 1.884174,0 3.411155,-1.4316 3.411155,-3.1981 l 0,-83.65949 c 0,-1.76643 -1.526981,-3.19799 -3.411155,-3.19799 z"
       id="rect3772"
       inkscape:connector-curvature="0"
       sodipodi:nodetypes="sssssssss" />
    <path
       style="fill:#000000;fill-opacity:0.18721463;fill-rule:nonzero;stroke:none"
       d="m 1.0459761,1041.8066 0,7.4219 c 0,1.7392 1.461916,3.1337 3.2852054,3.1337 l 86.3836135,0 c 1.823288,0 3.285205,-1.3945 3.285205,-3.1337 l 0,-7.4219 -92.9540239,0 z"
       id="rect3785"
       inkscape:connector-curvature="0" />
    <path
       style="fill:#000000;fill-opacity:0.38356168;fill-rule:nonzero;stroke:none"
       d="m 1.0459761,1041.8066 0,5.3807 c 0,1.762 1.461916,3.1749 3.2852054,3.1749 l 86.3836135,0 c 1.823288,0 3.285205,-1.4129 3.285205,-3.1749 l 0,-5.3807 -92.9540239,0 z"
       id="rect3783"
       inkscape:connector-curvature="0" />
    <rect
       style="fill:#00a3dd;fill-opacity:1;fill-rule:nonzero;stroke:none"
       id="rect2985"
       width="92.954025"
       height="89"
       x="1.045977"
       y="957.36218"
       ry="3.1511393" />
    <path
       style="fill:#000000;fill-opacity:0.38356168;fill-rule:nonzero;stroke:none"
       d="m 1,1042.3622 0.045976,2.7457 c 0.03024,1.8058 1.461916,3.2543 3.2852054,3.2543 l 86.3836136,0 c 1.823288,0 3.285205,-1.4481 3.285205,-3.2543 l -0.04598,-2.7457 z"
       id="rect3781"
       inkscape:connector-curvature="0"
       sodipodi:nodetypes="csssscc" />
    <rect
       style="fill:#ffffff;fill-opacity:0.30000001;fill-rule:nonzero;stroke:none"
       id="rect3770"
       width="92.954033"
       height="2.000005"
       x="1.045976"
       y="1040.3622" />
    <path
       style="opacity:0.99176953000000001;fill:#bae0e2;fill-opacity:1;fill-rule:evenodd;stroke:none"
       d="m 36.129601,969.41339 c -6.663222,2.48025 -12.077281,6.97303 -15.761539,12.57154 l 4.370569,2.4161 c 3.04289,-4.48213 7.441814,-8.07885 12.783307,-10.15289 l -1.392337,-4.83475 z m 4.804727,-1.38369 1.392338,4.83475 c 5.626449,-1.08456 11.264547,-0.37835 16.225233,1.79887 l 2.416109,-4.37057 c -6.097568,-2.78148 -13.071902,-3.7066 -20.03368,-2.26305 z m -23.003756,18.36447 c -2.781484,6.09757 -3.706599,13.0719 -2.263055,20.03373 l 4.834757,-1.3924 c -1.084561,-5.62644 -0.378359,-11.26453 1.798867,-16.22522 l -4.370569,-2.41611 z m 47.446682,-13.66393 -2.416108,4.37057 c 4.482136,3.04289 8.078849,7.44181 10.152891,12.78331 l 4.834757,-1.39234 c -2.480251,-6.66322 -6.973037,-12.07728 -12.57154,-15.76154 z m -48.326048,38.50236 c 2.480251,6.6632 6.973037,12.0773 12.57154,15.7615 l 2.416108,-4.3706 c -4.482136,-3.0428 -8.078849,-7.4418 -10.152891,-12.7833 l -4.834757,1.3924 z m 57.44652,-16.54375 c 1.084561,5.62645 0.378359,11.26455 -1.798867,16.22525 l 4.370569,2.4161 c 2.781484,-6.0976 3.706599,-13.0719 2.263055,-20.03369 l -4.834757,1.39234 z m -38.049625,30.37215 -2.416109,4.3706 c 6.097568,2.7815 13.071902,3.7066 20.03368,2.2631 l -1.392338,-4.8348 c -5.626449,1.0846 -11.264547,0.3784 -16.225233,-1.7989 z m 33.813268,-9.7377 c -3.04289,4.4822 -7.441814,8.0789 -12.783307,10.1529 l 1.392337,4.8348 c 6.663222,-2.4803 12.077281,-6.9731 15.761539,-12.5716 l -4.370569,-2.4161 z"
       id="path2995"
       inkscape:connector-curvature="0" />
  </g>
</svg>
