<?xml version="1.0" encoding="UTF-8" standalone="no"?>
<!-- Created with Inkscape (http://www.inkscape.org/) -->

<svg
   xmlns:dc="http://purl.org/dc/elements/1.1/"
   xmlns:cc="http://creativecommons.org/ns#"
   xmlns:rdf="http://www.w3.org/1999/02/22-rdf-syntax-ns#"
   xmlns:svg="http://www.w3.org/2000/svg"
   xmlns="http://www.w3.org/2000/svg"
   xmlns:sodipodi="http://sodipodi.sourceforge.net/DTD/sodipodi-0.dtd"
   xmlns:inkscape="http://www.inkscape.org/namespaces/inkscape"
   width="16"
   height="16"
   id="svg2"
   sodipodi:version="0.32"
   inkscape:version="0.48.4 r9939"
   version="1.0"
   sodipodi:docname="weather-few-clouds-night-symbolic.svg"
   inkscape:output_extension="org.inkscape.output.svg.inkscape">
  <defs
     id="defs4" />
  <sodipodi:namedview
     id="base"
     pagecolor="#ffffff"
     bordercolor="#e7e7e7"
     borderopacity="1"
     inkscape:pageopacity="0.0"
     inkscape:pageshadow="2"
     inkscape:zoom="11.057786"
     inkscape:cx="12.312515"
     inkscape:cy="5.0540831"
     inkscape:document-units="px"
     inkscape:current-layer="layer1"
     showgrid="true"
     inkscape:showpageshadow="false"
     showguides="true"
     inkscape:guide-bbox="true"
     inkscape:window-width="1305"
     inkscape:window-height="744"
     inkscape:window-x="61"
     inkscape:window-y="24"
     inkscape:window-maximized="1"
     inkscape:snap-global="true">
    <sodipodi:guide
       orientation="1,0"
       position="0,112"
       id="guide2383" />
    <sodipodi:guide
       orientation="0,1"
       position="78.156291,0"
       id="guide2389" />
    <inkscape:grid
       type="xygrid"
       id="grid3672"
       visible="true"
       enabled="true" />
    <sodipodi:guide
       orientation="1,0"
       position="22.008699,4.1542523"
       id="guide2950" />
    <sodipodi:guide
       orientation="0,1"
       position="11.22532,22.008699"
       id="guide2952" />
  </sodipodi:namedview>
  <metadata
     id="metadata7">
    <rdf:RDF>
      <cc:Work
         rdf:about="">
        <dc:format>image/svg+xml</dc:format>
        <dc:type
           rdf:resource="http://purl.org/dc/dcmitype/StillImage" />
        <dc:title />
      </cc:Work>
    </rdf:RDF>
  </metadata>
  <g
     inkscape:label="Calque 1"
     inkscape:groupmode="layer"
     id="layer1">
    <path
       style="color:#000000;fill:#999999;fill-opacity:1;fill-rule:nonzero;stroke:none;stroke-width:1.50000000000000000;marker:none;visibility:visible;display:inline;overflow:visible;enable-background:accumulate"
       d="m 11,10 c 1.301321,0 2.39699,0.841652 2.8125,2 0.06184,-0.0058 0.12415,0 0.1875,0 1.104569,0 2,0.895431 2,2 0,1.104569 -0.895431,2 -2,2 l -3,0 -3.5,0 C 6.671573,16 6,15.328427 6,14.5 6,13.671573 6.671573,13 7.5,13 L 8,13 c 0,-1.656854 1.343146,-3 3,-3 z"
       id="path3115"
       inkscape:connector-curvature="0" />
    <path
       style="opacity:0.34999999999999998;color:#000000;fill:#999999;fill-opacity:1;fill-rule:nonzero;stroke:none;stroke-width:1.50000000000000000;marker:none;visibility:visible;display:inline;overflow:visible;enable-background:accumulate"
       d="M 7 1 C 3.686291 1 1 3.686291 1 7 C 1 9.8751648 3.0189633 12.258116 5.71875 12.84375 C 6.1094587 12.462797 6.6189809 12.208094 7.1875 12.125 C 7.3551319 11.403569 7.7012619 10.770536 8.1875 10.25 C 8.0298639 9.9021231 8.2509155 9.4502786 8.59375 9.28125 C 8.902398 9.107945 9.537088 9.1815303 9.28125 8.65625 C 9.106303 8.4165198 8.29109 8.3999998 8.71875 7.96875 C 9.119758 7.5910633 8.380033 7.46445 8.25 7.84375 C 7.89099 8.2586887 7.289252 8.3339372 6.78125 8.46875 C 6.51979 8.5759346 5.97084 8.4400607 6.34375 8.125 C 6.601079 8.182808 7.106718 8.0220803 6.84375 7.65625 C 6.365954 7.3209253 6.945108 6.9972826 7.28125 6.90625 C 7.32998 6.5777173 7.673484 6.55245 7.96875 6.59375 C 7.90469 6.4164427 7.61826 6.018318 8.09375 6.09375 C 8.670702 6.03743 8.47192 5.463684 8.5 5.09375 C 8.736438 4.733719 9.222947 4.788936 9.59375 4.78125 L 9.6875 4.84375 C 10.258382 4.87947 9.874079 5.541185 10.28125 5.75 C 10.88972 5.937331 10.34289 6.517428 10.46875 6.90625 C 11.045886 7.3620087 10.997228 6.1598287 11.46875 6.28125 C 11.859148 6.6445207 11.52825 7.2066966 11.53125 7.65625 C 11.560181 8.1635575 11.105295 8.5469865 11 9 C 11.553403 9 12.071969 9.1237984 12.53125 9.34375 C 12.834866 8.6259199 13 7.8284272 13 7 C 13 3.686291 10.313709 1 7 1 z M 5.375 2.90625 C 5.640845 3.205134 5.12783 3.828968 4.71875 3.65625 C 4.238458 3.273274 5.011458 2.884897 5.375 2.90625 z M 8.40625 3.03125 C 8.731109 3.07686 9.020775 3.232893 9.3125 3.375 C 9.767067 3.4713 9.807169 4.006288 10.0625 4.3125 C 10.359528 4.522356 10.790474 4.886828 10.59375 5.28125 C 10.363391 5.26779 10.256278 4.773235 9.9375 4.6875 C 9.674965 4.288997 8.942992 4.611457 8.875 4.09375 C 9.035803 3.612189 7.884612 3.485476 8.40625 3.03125 z M 6.90625 3.6875 C 7.099059 3.71222 7.280079 3.73152 7.46875 3.78125 C 8.057514 3.902904 8.297249 4.659672 8.0625 5.15625 C 7.848069 5.590878 7.271264 5.45425 6.96875 5.1875 C 6.512828 4.826143 6.199616 5.35422 6.03125 5.71875 C 5.814102 6.254171 5.291301 5.601076 5.03125 6 C 4.788201 6.470094 4.351443 5.926637 4.40625 5.65625 C 4.803015 5.72057 5.11594 5.303442 4.90625 4.9375 C 4.518767 4.575603 4.961804 4.231592 5.34375 4.15625 C 5.789664 3.787899 6.392604 3.888222 6.90625 3.6875 z M 4.1875 3.90625 C 4.793463 3.84771 4.511914 4.642284 4.375 4.96875 C 4.114579 5.276092 3.348738 5.611638 3.09375 5.125 C 3.07751 4.566147 3.635526 4.292959 3.96875 3.9375 C 4.0411 3.9375 4.11514 3.90525 4.1875 3.90625 z M 6.46875 5.40625 C 6.5218355 5.3872535 6.592461 5.3992667 6.65625 5.40625 C 6.957821 5.46128 7.452008 5.470336 7.53125 5.84375 C 7.55177 6.343841 6.837063 6.7025914 6.4375 6.40625 C 6.0065826 6.2501967 6.0971514 5.5392252 6.46875 5.40625 z M 3.90625 5.84375 C 3.95531 5.843964 3.99119 5.86327 4.03125 5.875 C 4.404502 6.2356247 3.795214 6.5823706 3.46875 6.40625 C 3.046263 6.113918 3.562824 5.842251 3.90625 5.84375 z M 7.875 8.40625 C 7.94811 8.393597 8.019362 8.4053303 8.09375 8.40625 C 8.462052 8.5781936 8.353115 9.229199 7.96875 9.3125 C 7.673566 9.791869 7.18829 9.450869 6.78125 9.40625 C 6.405426 9.784726 5.766843 9.847947 5.4375 9.34375 C 5.229454 8.8413007 5.932643 8.4850504 6.34375 8.65625 C 6.868846 8.8626181 7.36324 8.4948173 7.875 8.40625 z M 6.125 9.96875 C 6.240267 9.998 6.308756 10.107376 6.34375 10.21875 C 6.26521 10.765125 5.544103 9.924738 6.125 9.96875 z M 7.03125 9.96875 L 7.09375 10 L 7.21875 10.03125 C 7.821221 9.99503 7.563184 10.981306 7.0625 10.90625 C 6.640888 10.82416 6.512156 9.988573 7.03125 9.96875 z "
       id="path3891" />
    <path
       style="color:#000000;fill:#999999;fill-opacity:1;fill-rule:nonzero;stroke:none;stroke-width:1.50000000000000000;marker:none;visibility:visible;display:inline;overflow:visible;enable-background:accumulate"
       d="M 7 1 C 3.686291 1 1 3.686291 1 7 C 1 9.8751648 3.0189633 12.258116 5.71875 12.84375 C 6.1094587 12.462797 6.6189809 12.208094 7.1875 12.125 C 7.2263534 11.957788 7.2857116 11.784088 7.34375 11.625 C 7.2279291 11.633609 7.1180213 11.65625 7 11.65625 C 4.422671 11.65625 2.34375 9.577329 2.34375 7 C 2.34375 4.422671 4.422671 2.34375 7 2.34375 C 9.577329 2.34375 11.65625 4.422671 11.65625 7 C 11.65625 7.7251681 11.482639 8.3877654 11.1875 9 C 11.66996 9.0247682 12.12379 9.1486156 12.53125 9.34375 C 12.834866 8.6259199 13 7.8284272 13 7 C 13 3.686291 10.313709 1 7 1 z "
       id="path3098" />
  </g>
</svg>
