<?xml version="1.0" encoding="UTF-8" standalone="no"?>
<!-- Created with Inkscape (http://www.inkscape.org/) -->

<svg
   xmlns:dc="http://purl.org/dc/elements/1.1/"
   xmlns:cc="http://creativecommons.org/ns#"
   xmlns:rdf="http://www.w3.org/1999/02/22-rdf-syntax-ns#"
   xmlns:svg="http://www.w3.org/2000/svg"
   xmlns="http://www.w3.org/2000/svg"
   xmlns:xlink="http://www.w3.org/1999/xlink"
   xmlns:sodipodi="http://sodipodi.sourceforge.net/DTD/sodipodi-0.dtd"
   xmlns:inkscape="http://www.inkscape.org/namespaces/inkscape"
   width="96"
   height="96"
   id="svg2"
   version="1.1"
   inkscape:version="0.48.4 r9939"
   sodipodi:docname="weather-clouds-night.svg">
  <defs
     id="defs4">
    <linearGradient
       id="linearGradient3763">
      <stop
         style="stop-color:#ffe88f;stop-opacity:1;"
         offset="0"
         id="stop3765" />
      <stop
         style="stop-color:#ffd42a;stop-opacity:0.97692305;"
         offset="1"
         id="stop3767" />
    </linearGradient>
    <radialGradient
       inkscape:collect="always"
       xlink:href="#linearGradient3763"
       id="radialGradient3769"
       cx="-61.691616"
       cy="36.753101"
       fx="-61.691616"
       fy="36.753101"
       r="18.180531"
       gradientTransform="matrix(1,0,0,0.97196269,0,1.205257)"
       gradientUnits="userSpaceOnUse" />
    <linearGradient
       id="linearGradient3903">
      <stop
         style="stop-color:#ffffa3;stop-opacity:1;"
         offset="0"
         id="stop3905" />
      <stop
         style="stop-color:#999999;stop-opacity:1;"
         offset="1"
         id="stop3907" />
    </linearGradient>
    <linearGradient
       y2="1031.5928"
       x2="58.309101"
       y1="1018.6795"
       x1="58.278255"
       gradientTransform="matrix(0.87212565,0,0,0.87212565,16.548566,130.84778)"
       gradientUnits="userSpaceOnUse"
       id="linearGradient3132"
       xlink:href="#linearGradient3903"
       inkscape:collect="always" />
    <linearGradient
       inkscape:collect="always"
       xlink:href="#linearGradient3903"
       id="linearGradient3018"
       gradientUnits="userSpaceOnUse"
       gradientTransform="matrix(0.67146924,0,0,0.67146924,-16.091767,353.76654)"
       x1="58.278255"
       y1="1018.6795"
       x2="58.309101"
       y2="1031.5928" />
    <linearGradient
       inkscape:collect="always"
       xlink:href="#linearGradient3903"
       id="linearGradient3009"
       gradientUnits="userSpaceOnUse"
       gradientTransform="matrix(0.26763899,0,0,0.26763899,36.84537,770.30249)"
       x1="58.278255"
       y1="1018.6795"
       x2="58.309101"
       y2="1031.5928" />
    <linearGradient
       inkscape:collect="always"
       xlink:href="#linearGradient3903"
       id="linearGradient3013"
       gradientUnits="userSpaceOnUse"
       gradientTransform="matrix(0.34469547,0,0,0.34469547,-4.8211271,662.82158)"
       x1="58.278255"
       y1="1018.6795"
       x2="58.309101"
       y2="1031.5928" />
    <linearGradient
       inkscape:collect="always"
       xlink:href="#linearGradient3903"
       id="linearGradient3017"
       gradientUnits="userSpaceOnUse"
       gradientTransform="matrix(0.38443969,0,0,0.38443969,13.740425,621.82689)"
       x1="58.278255"
       y1="1018.6795"
       x2="58.309101"
       y2="1031.5928" />
    <linearGradient
       inkscape:collect="always"
       xlink:href="#linearGradient3903"
       id="linearGradient3021"
       gradientUnits="userSpaceOnUse"
       gradientTransform="matrix(0.38443969,0,0,0.38443969,57.740425,599.82689)"
       x1="58.278255"
       y1="1018.6795"
       x2="58.309101"
       y2="1031.5928" />
    <linearGradient
       inkscape:collect="always"
       xlink:href="#linearGradient3903"
       id="linearGradient3025"
       gradientUnits="userSpaceOnUse"
       gradientTransform="matrix(0.35795363,0,0,0.35795363,57.730359,677.14628)"
       x1="58.278255"
       y1="1018.6795"
       x2="58.309101"
       y2="1031.5928" />
  </defs>
  <sodipodi:namedview
     id="base"
     pagecolor="#ffffff"
     bordercolor="#666666"
     borderopacity="1.0"
     inkscape:pageopacity="0.0"
     inkscape:pageshadow="2"
     inkscape:zoom="5.90625"
     inkscape:cx="47.830688"
     inkscape:cy="48"
     inkscape:document-units="px"
     inkscape:current-layer="layer1"
     showgrid="true"
     inkscape:snap-page="false"
     inkscape:snap-global="true"
     inkscape:snap-center="true"
     inkscape:snap-object-midpoints="false"
     showguides="true"
     inkscape:guide-bbox="true"
     inkscape:snap-bbox="true"
     inkscape:object-paths="true"
     inkscape:object-nodes="false"
     inkscape:window-width="1305"
     inkscape:window-height="744"
     inkscape:window-x="61"
     inkscape:window-y="24"
     inkscape:window-maximized="1"
     inkscape:snap-midpoints="false"
     inkscape:snap-grids="true"
     inkscape:snap-to-guides="false"
     inkscape:snap-nodes="false">
    <inkscape:grid
       type="xygrid"
       id="grid3002"
       empspacing="5"
       visible="true"
       enabled="true"
       snapvisiblegridlinesonly="true" />
  </sodipodi:namedview>
  <metadata
     id="metadata7">
    <rdf:RDF>
      <cc:Work
         rdf:about="">
        <dc:format>image/svg+xml</dc:format>
        <dc:type
           rdf:resource="http://purl.org/dc/dcmitype/StillImage" />
        <dc:title />
      </cc:Work>
    </rdf:RDF>
  </metadata>
  <g
     inkscape:label="Layer 1"
     inkscape:groupmode="layer"
     id="layer1"
     transform="translate(0,-956.36218)">
    <rect
       style="fill:#ffffff;fill-opacity:0;fill-rule:nonzero;stroke:none"
       id="rect3775"
       width="96"
       height="96"
       x="0"
       y="956.36212"
       ry="0" />
    <path
       style="fill:#000000;fill-opacity:0.09589042;fill-rule:nonzero;stroke:none"
       d="M 3.4090909,956.3622 C 1.5260553,956.3622 0,957.7926 0,959.5584 l 0,83.6076 c 0,1.7658 1.5260553,3.1962 3.4090909,3.1962 l 89.1818171,0 c 1.883034,0 3.409092,-1.4304 3.409092,-3.1962 l 0,-83.6076 c 0,-1.7658 -1.526058,-3.1962 -3.409092,-3.1962 z"
       id="rect3772"
       inkscape:connector-curvature="0"
       sodipodi:nodetypes="sssssssss" />
    <path
       style="fill:#000000;fill-opacity:0.18721463;fill-rule:nonzero;stroke:none"
       d="m 1.0459761,1041.8064 0,7.422 c 0,1.7394 1.461916,3.1338 3.2852054,3.1338 l 86.3836105,0 c 1.823292,0 3.28521,-1.3944 3.28521,-3.1338 l 0,-7.422 -92.9540259,0 z"
       id="rect3785"
       inkscape:connector-curvature="0" />
    <path
       style="fill:#000000;fill-opacity:0.38356168;fill-rule:nonzero;stroke:none"
       d="m 1.0459761,1041.8064 0,5.3808 c 0,1.7622 1.461916,3.1752 3.2852054,3.1752 l 86.3836105,0 c 1.823292,0 3.28521,-1.413 3.28521,-3.1752 l 0,-5.3808 -92.9540259,0 z"
       id="rect3783"
       inkscape:connector-curvature="0" />
    <rect
       style="fill:#1d0021;fill-opacity:1;fill-rule:nonzero;stroke:none"
       id="rect2985"
       width="92.954025"
       height="89"
       x="1.045977"
       y="957.36188"
       ry="3.1511393" />
    <path
       sodipodi:type="arc"
       style="fill:#ffffff;fill-opacity:0.08333334;stroke:none"
       id="path3899"
       sodipodi:cx="-57.939823"
       sodipodi:cy="42.98761"
       sodipodi:rx="18.180531"
       sodipodi:ry="17.670797"
       d="m -39.759293,42.98761 c 0,9.759312 -8.1397,17.670797 -18.18053,17.670797 -10.04083,0 -18.180531,-7.911485 -18.180531,-17.670797 0,-9.759312 8.139701,-17.670797 18.180531,-17.670797 10.04083,0 18.18053,7.911485 18.18053,17.670797 z"
       transform="matrix(1.9031402,0,0,1.9031402,159.26762,912.0114)" />
    <path
       transform="matrix(1.7237867,0,0,1.7237867,148.8759,919.7214)"
       d="m -39.759293,42.98761 c 0,9.759312 -8.1397,17.670797 -18.18053,17.670797 -10.04083,0 -18.180531,-7.911485 -18.180531,-17.670797 0,-9.759312 8.139701,-17.670797 18.180531,-17.670797 10.04083,0 18.18053,7.911485 18.18053,17.670797 z"
       sodipodi:ry="17.670797"
       sodipodi:rx="18.180531"
       sodipodi:cy="42.98761"
       sodipodi:cx="-57.939823"
       id="path3897"
       style="fill:#ffffff;fill-opacity:0.08333334;stroke:none"
       sodipodi:type="arc" />
    <path
       sodipodi:type="arc"
       style="fill:#ffffff;fill-opacity:0.08333334;stroke:none"
       id="path3895"
       sodipodi:cx="-57.939823"
       sodipodi:cy="42.98761"
       sodipodi:rx="18.180531"
       sodipodi:ry="17.670797"
       d="m -39.759293,42.98761 c 0,9.759312 -8.1397,17.670797 -18.18053,17.670797 -10.04083,0 -18.180531,-7.911485 -18.180531,-17.670797 0,-9.759312 8.139701,-17.670797 18.180531,-17.670797 10.04083,0 18.18053,7.911485 18.18053,17.670797 z"
       transform="matrix(1.4647204,0,0,1.4647204,133.86564,930.858)" />
    <path
       transform="matrix(1.2455105,0,0,1.2455105,121.16467,940.2816)"
       d="m -39.759293,42.98761 c 0,9.759312 -8.1397,17.670797 -18.18053,17.670797 -10.04083,0 -18.180531,-7.911485 -18.180531,-17.670797 0,-9.759312 8.139701,-17.670797 18.180531,-17.670797 10.04083,0 18.18053,7.911485 18.18053,17.670797 z"
       sodipodi:ry="17.670797"
       sodipodi:rx="18.180531"
       sodipodi:cy="42.98761"
       sodipodi:cx="-57.939823"
       id="path3893"
       style="fill:#ffffff;fill-opacity:0.08333334;stroke:none"
       sodipodi:type="arc" />
    <path
       sodipodi:type="arc"
       style="fill:url(#radialGradient3769);fill-opacity:1;stroke:none"
       id="path3891"
       sodipodi:cx="-57.939823"
       sodipodi:cy="42.98761"
       sodipodi:rx="18.180531"
       sodipodi:ry="17.670797"
       d="m -39.759293,42.98761 c 0,9.759312 -8.1397,17.670797 -18.18053,17.670797 -10.04083,0 -18.180531,-7.911485 -18.180531,-17.670797 0,-9.759312 8.139701,-17.670797 18.180531,-17.670797 10.04083,0 18.18053,7.911485 18.18053,17.670797 z"
       transform="matrix(1.066157,0,0,1.066157,110.77295,947.991)" />
    <path
       inkscape:connector-curvature="0"
       id="path3016"
       d="m 23.299265,1020.1002 c -4.707739,0.24 -8.459526,4.1766 -8.459526,8.9928 0,0.747 0.110658,1.4658 0.28059,2.16 -0.193134,0 -0.392262,0 -0.589224,0 -4.128481,0 -7.4634608,3.3906 -7.4634608,7.5612 0,4.1706 3.3349798,7.548 7.4634608,7.548 l 21.815184,0 0,0 c 3.117426,0 5.653711,-2.5608 5.653711,-5.7102 0,-2.1054 -1.139279,-3.9366 -2.819841,-4.9242 0.140604,-0.552 0.224466,-1.1172 0.224466,-1.7112 0,-3.7878 -3.040728,-6.8604 -6.790063,-6.8604 -0.06226,0 -0.120516,0 -0.182376,0 -0.889471,-4.023 -4.433223,-7.0284 -8.683987,-7.0284 -0.15378,0 -0.297072,0 -0.448932,0 z"
       style="fill:url(#linearGradient3018);fill-opacity:1;stroke:none" />
    <path
       transform="matrix(1.066157,0,0,1.066157,110.77295,947.991)"
       d="m -39.759293,42.98761 c 0,9.759312 -8.1397,17.670797 -18.18053,17.670797 -10.04083,0 -18.180531,-7.911485 -18.180531,-17.670797 0,-9.759312 8.139701,-17.670797 18.180531,-17.670797 10.04083,0 18.18053,7.911485 18.18053,17.670797 z"
       sodipodi:ry="17.670797"
       sodipodi:rx="18.180531"
       sodipodi:cy="42.98761"
       sodipodi:cx="-57.939823"
       id="path3774"
       style="fill:#000000;fill-opacity:0.2962963;stroke:none"
       sodipodi:type="arc" />
    <path
       style="fill:url(#linearGradient3132);fill-opacity:1;stroke:none"
       d="m 67.71089,996.30255 c -6.114559,0.31759 -10.9875,5.42465 -10.9875,11.68025 0,0.971 0.143731,1.9045 0.364434,2.8062 -0.250852,0 -0.50948,-0.057 -0.765298,-0.057 -5.362204,0.01 -9.693781,4.4101 -9.693781,9.8269 0,5.4173 4.331577,9.803 9.69378,9.803 l 28.334251,0 0,0 c 4.04901,0 7.343224,-3.3257 7.343224,-7.416 0,-2.7353 -1.479732,-5.1133 -3.662504,-6.3956 0.182619,-0.7146 0.291567,-1.4519 0.291567,-2.2232 0,-4.9199 -3.949392,-8.9103 -8.819157,-8.9103 -0.08082,0 -0.156531,0 -0.236838,0 -1.155271,-5.2262 -5.758009,-9.1293 -11.279033,-9.1293 -0.19969,0 -0.385826,0 -0.583089,0 z"
       id="path3880"
       inkscape:connector-curvature="0" />
    <path
       style="fill:url(#linearGradient3009);fill-opacity:1;stroke:none"
       d="m 52.546128,1035.8945 c -1.876444,0.096 -3.371858,1.6647 -3.371858,3.5844 0,0.2978 0.04411,0.5843 0.11184,0.861 -0.07698,0 -0.156351,0 -0.234858,0 -1.645559,0 -2.974839,1.3514 -2.974839,3.0138 0,1.6623 1.32928,3.0085 2.974839,3.0085 l 8.695251,0 0,0 c 1.242567,0 2.253497,-1.0207 2.253497,-2.276 0,-0.8392 -0.454102,-1.5691 -1.123952,-1.9627 0.05604,-0.2201 0.08947,-0.4453 0.08947,-0.6821 0,-1.5098 -1.211995,-2.7345 -2.706432,-2.7345 -0.02482,0 -0.04804,0 -0.07269,0 -0.354532,-1.6035 -1.767026,-2.8014 -3.461326,-2.8014 -0.0613,0 -0.118409,0 -0.178938,0 z"
       id="path3007"
       inkscape:connector-curvature="0" />
    <path
       style="fill:url(#linearGradient3013);fill-opacity:1;stroke:none"
       d="m 15.400068,1004.8808 c -2.416695,0.1231 -4.342657,2.144 -4.342657,4.6164 0,0.3834 0.0568,0.7524 0.14404,1.1088 -0.09914,0 -0.201366,0 -0.302476,0 -2.1193352,0 -3.8313308,1.7406 -3.8313308,3.8815 0,2.1409 1.7119956,3.8747 3.8313308,3.8747 l 11.198719,0 0,0 c 1.600316,0 2.902306,-1.3146 2.902306,-2.9313 0,-1.0808 -0.584843,-2.0209 -1.447552,-2.5278 0.07218,-0.2834 0.115229,-0.5735 0.115229,-0.8784 0,-1.9445 -1.560944,-3.5218 -3.485646,-3.5218 -0.03196,0 -0.06187,0 -0.09362,0 -0.456605,-2.0652 -2.275773,-3.608 -4.457882,-3.608 -0.07894,0 -0.152501,0 -0.230457,0 z"
       id="path3011"
       inkscape:connector-curvature="0" />
    <path
       inkscape:connector-curvature="0"
       id="path3015"
       d="m 36.293173,1003.3264 c -2.695346,0.1373 -4.843376,2.3912 -4.843376,5.1486 0,0.4277 0.06335,0.8392 0.160648,1.2367 -0.110571,0 -0.224584,0 -0.337352,0 -2.3637,0 -4.273093,1.9413 -4.273093,4.329 0,2.3878 1.909393,4.3215 4.273093,4.3215 l 12.489958,0 0,0 c 1.784836,0 3.236949,-1.4662 3.236949,-3.2693 0,-1.2054 -0.652277,-2.2539 -1.614458,-2.8192 0.0805,-0.3161 0.128515,-0.6397 0.128515,-0.9797 0,-2.1687 -1.740925,-3.9279 -3.887549,-3.9279 -0.03565,0 -0.069,0 -0.104415,0 -0.509253,-2.3033 -2.538175,-4.024 -4.971887,-4.024 -0.08804,0 -0.170084,0 -0.257029,0 z"
       style="fill:url(#linearGradient3017);fill-opacity:1;stroke:none" />
    <path
       style="fill:url(#linearGradient3021);fill-opacity:1;stroke:none"
       d="m 80.293173,981.3264 c -2.695346,0.1373 -4.843376,2.3912 -4.843376,5.1486 0,0.4277 0.06335,0.8392 0.160648,1.2367 -0.110571,0 -0.224584,0 -0.337352,0 -2.3637,0 -4.273093,1.9413 -4.273093,4.329 0,2.3878 1.909393,4.3215 4.273093,4.3215 l 12.489958,0 0,0 C 89.547887,996.3622 91,994.896 91,993.0929 c 0,-1.2054 -0.652277,-2.2539 -1.614458,-2.8192 0.0805,-0.3161 0.128515,-0.6397 0.128515,-0.9797 0,-2.1687 -1.740925,-3.9279 -3.887549,-3.9279 -0.03565,0 -0.069,0 -0.104415,0 -0.509253,-2.3033 -2.538175,-4.024 -4.971887,-4.024 -0.08804,0 -0.170084,0 -0.257029,0 z"
       id="path3019"
       inkscape:connector-curvature="0" />
    <path
       inkscape:connector-curvature="0"
       id="path3023"
       d="m 78.72933,1032.3622 c -2.509649,0.1284 -4.50969,2.2264 -4.50969,4.7939 0,0.3983 0.05899,0.7815 0.149581,1.1516 -0.102957,0 -0.209112,0 -0.314111,0 -2.200852,0 -3.978697,1.8074 -3.978697,4.0308 0,2.2232 1.777845,4.0237 3.978697,4.0237 l 11.629459,0 0,0 c 1.66187,0 3.013938,-1.3651 3.013938,-3.044 0,-1.1224 -0.607338,-2.0986 -1.503229,-2.625 0.07495,-0.2944 0.119662,-0.5956 0.119662,-0.9123 0,-2.0193 -1.620982,-3.6573 -3.619716,-3.6573 -0.0332,0 -0.06425,0 -0.09722,0 -0.474169,-2.1446 -2.363308,-3.7467 -4.629349,-3.7467 -0.08199,0 -0.158366,0 -0.239321,0 z"
       style="fill:url(#linearGradient3025);fill-opacity:1;stroke:none" />
    <path
       style="fill:#000000;fill-opacity:0.38356168;fill-rule:nonzero;stroke:none"
       d="m 1,1042.362 0.045978,2.7462 c 0.03024,1.8054 1.461916,3.2538 3.2852055,3.2538 l 86.3836145,0 c 1.823286,0 3.285204,-1.4478 3.285204,-3.2538 l -0.0462,-2.7462 z"
       id="rect3781"
       inkscape:connector-curvature="0"
       sodipodi:nodetypes="csssscc" />
    <rect
       style="fill:#ffffff;fill-opacity:0.3;fill-rule:nonzero;stroke:none"
       id="rect3770"
       width="92.954033"
       height="2.000005"
       x="1.045976"
       y="1040.3621" />
  </g>
</svg>
