<?xml version="1.0" encoding="UTF-8" standalone="no"?>
<!-- Created with Inkscape (http://www.inkscape.org/) -->

<svg
   xmlns:dc="http://purl.org/dc/elements/1.1/"
   xmlns:cc="http://creativecommons.org/ns#"
   xmlns:rdf="http://www.w3.org/1999/02/22-rdf-syntax-ns#"
   xmlns:svg="http://www.w3.org/2000/svg"
   xmlns="http://www.w3.org/2000/svg"
   xmlns:xlink="http://www.w3.org/1999/xlink"
   xmlns:sodipodi="http://sodipodi.sourceforge.net/DTD/sodipodi-0.dtd"
   xmlns:inkscape="http://www.inkscape.org/namespaces/inkscape"
   width="96"
   height="96"
   id="svg2"
   version="1.1"
   inkscape:version="0.48.4 r9939"
   sodipodi:docname="weather-shower-scattered.svg">
  <defs
     id="defs4">
    <linearGradient
       id="linearGradient3903">
      <stop
         style="stop-color:#ffffff;stop-opacity:1;"
         offset="0"
         id="stop3905" />
      <stop
         style="stop-color:#ffffff;stop-opacity:0;"
         offset="1"
         id="stop3907" />
    </linearGradient>
    <linearGradient
       y2="1031.8136"
       x2="58.750706"
       y1="977.16882"
       x1="59.161461"
       gradientTransform="matrix(1.4341039,0,0,1.4341039,-39.463177,-460.17108)"
       gradientUnits="userSpaceOnUse"
       id="linearGradient3114"
       xlink:href="#linearGradient3903"
       inkscape:collect="always" />
  </defs>
  <sodipodi:namedview
     id="base"
     pagecolor="#ffffff"
     bordercolor="#666666"
     borderopacity="1.0"
     inkscape:pageopacity="0.0"
     inkscape:pageshadow="2"
     inkscape:zoom="5.90625"
     inkscape:cx="44.021164"
     inkscape:cy="36.346201"
     inkscape:document-units="px"
     inkscape:current-layer="layer1"
     showgrid="true"
     inkscape:snap-page="true"
     inkscape:snap-global="false"
     inkscape:snap-center="true"
     inkscape:snap-object-midpoints="false"
     showguides="true"
     inkscape:guide-bbox="true"
     inkscape:snap-bbox="true"
     inkscape:object-paths="true"
     inkscape:object-nodes="true"
     inkscape:window-width="1305"
     inkscape:window-height="744"
     inkscape:window-x="61"
     inkscape:window-y="24"
     inkscape:window-maximized="1"
     inkscape:snap-midpoints="false"
     inkscape:snap-grids="true"
     inkscape:snap-to-guides="false">
    <inkscape:grid
       type="xygrid"
       id="grid3002"
       empspacing="5"
       visible="true"
       enabled="true"
       snapvisiblegridlinesonly="true" />
  </sodipodi:namedview>
  <metadata
     id="metadata7">
    <rdf:RDF>
      <cc:Work
         rdf:about="">
        <dc:format>image/svg+xml</dc:format>
        <dc:type
           rdf:resource="http://purl.org/dc/dcmitype/StillImage" />
        <dc:title />
      </cc:Work>
    </rdf:RDF>
  </metadata>
  <g
     inkscape:label="Layer 1"
     inkscape:groupmode="layer"
     id="layer1"
     transform="translate(0,-956.36218)">
    <rect
       style="fill:#ffffff;fill-opacity:0;fill-rule:nonzero;stroke:none"
       id="rect3775"
       width="96"
       height="96"
       x="0"
       y="956.36212"
       ry="0" />
    <path
       style="fill:#000000;fill-opacity:0.09589042;fill-rule:nonzero;stroke:none"
       d="M 3.4090909,956.3622 C 1.5260553,956.3622 0,957.7926 0,959.5584 l 0,83.6076 c 0,1.7658 1.5260553,3.1962 3.4090909,3.1962 l 89.1818171,0 c 1.883034,0 3.409092,-1.4304 3.409092,-3.1962 l 0,-83.6076 c 0,-1.7658 -1.526058,-3.1962 -3.409092,-3.1962 z"
       id="rect3772"
       inkscape:connector-curvature="0"
       sodipodi:nodetypes="sssssssss" />
    <path
       style="fill:#000000;fill-opacity:0.18721463;fill-rule:nonzero;stroke:none"
       d="m 1.0459761,1041.8064 0,7.422 c 0,1.7394 1.461916,3.1338 3.2852054,3.1338 l 86.3836105,0 c 1.823292,0 3.28521,-1.3944 3.28521,-3.1338 l 0,-7.422 -92.9540259,0 z"
       id="rect3785"
       inkscape:connector-curvature="0" />
    <path
       style="fill:#000000;fill-opacity:0.38356168;fill-rule:nonzero;stroke:none"
       d="m 1.0459761,1041.8064 0,5.3808 c 0,1.7622 1.461916,3.1752 3.2852054,3.1752 l 86.3836105,0 c 1.823292,0 3.28521,-1.413 3.28521,-3.1752 l 0,-5.3808 -92.9540259,0 z"
       id="rect3783"
       inkscape:connector-curvature="0" />
    <rect
       style="fill:#372e37;fill-opacity:1;fill-rule:nonzero;stroke:none"
       id="rect2985"
       width="92.954025"
       height="89"
       x="1.045977"
       y="957.36188"
       ry="3.1511393" />
    <path
       inkscape:connector-curvature="0"
       id="path3883"
       d="m 44.667006,962.9628 c -10.054644,0.516 -18.067598,8.9214 -18.067598,19.2066 0,1.596 0.236322,3.1314 0.599268,4.614 -0.412494,-0.06 -0.837775,-0.06 -1.25844,-0.06 -8.817487,0 -15.9402376,7.2432 -15.9402376,16.1508 0,8.9076 7.1227506,16.1196 15.9402376,16.1196 l 46.592208,0 0,-0.06 c 6.658104,0 12.07503,-5.4684 12.07503,-12.1944 0,-4.497 -2.43324,-8.4078 -6.02253,-10.5174 0.3003,-1.1742 0.4794,-2.3868 0.4794,-3.6552 0,-8.0892 -6.494298,-14.652 -14.502018,-14.652 -0.13296,0 -0.2574,0.06 -0.38952,0.06 -1.899708,-8.5926 -9.468341,-15.0114 -18.546999,-15.0114 -0.328458,0 -0.634477,-0.06 -0.958815,0 z"
       style="fill:url(#linearGradient3114);fill-opacity:1;stroke:none" />
    <path
       style="fill:#bdbabd;fill-opacity:1;fill-rule:evenodd;stroke:none"
       d="m 37.44609,1010.3829 c 0,0 -3.808006,5.5039 -4.159925,6.7461 -0.351792,1.2418 0.369705,2.2487 1.611632,2.2487 1.241925,0 2.533986,-1.0069 2.885778,-2.2487 0.351918,-1.2422 -0.337485,-6.7461 -0.337485,-6.7461 z m 17.989644,0 c 0,0 -3.808007,5.5039 -4.159926,6.7461 -0.263845,0.9314 0.09781,1.7666 0.808185,2.108 0.236788,0.1124 0.492965,0.1394 0.803447,0.1394 1.241926,0 2.533987,-1.007 2.885779,-2.2487 0.351918,-1.2422 -0.337486,-6.7461 -0.337486,-6.7461 z m 17.989643,0 c 0,0 -3.808007,5.5039 -4.159925,6.7461 -0.263863,0.9314 0.09782,1.7666 0.808185,2.108 0.236788,0.1124 0.492965,0.1394 0.803449,0.1394 1.241924,0 2.533985,-1.007 2.885777,-2.2487 0.351922,-1.2422 -0.337486,-6.7461 -0.337486,-6.7461 z m -47.522402,8.9948 c 0,0 -3.808006,5.504 -4.159926,6.7462 -0.351792,1.2417 0.369706,2.2487 1.611632,2.2487 1.241926,0 2.533987,-1.007 2.885779,-2.2487 0.351918,-1.2422 -0.337486,-6.7462 -0.337486,-6.7462 z m 17.989643,0 c 0,0 -3.808006,5.504 -4.159925,6.7462 -0.351792,1.2417 0.369705,2.2487 1.611632,2.2487 1.241925,0 2.533986,-1.007 2.885778,-2.2487 0.351918,-1.2422 -0.337485,-6.7462 -0.337485,-6.7462 z m 17.989646,0 c 0,0 -3.808009,5.504 -4.159928,6.7462 -0.351792,1.2417 0.36971,2.2487 1.611632,2.2487 1.241924,0 2.533985,-1.007 2.885777,-2.2487 0.351923,-1.2422 -0.337485,-6.7462 -0.337485,-6.7462 z m -28.258614,4.4974 c 0,0 -3.808006,5.504 -4.159926,6.7462 -0.351792,1.2417 0.369706,2.2487 1.611633,2.2487 1.241925,0 2.533986,-1.007 2.885778,-2.2487 0.351918,-1.2422 -0.337486,-6.7462 -0.337486,-6.7462 z m 17.989644,0 c 0,0 -3.808007,5.504 -4.159926,6.7462 -0.351792,1.2417 0.369705,2.2487 1.611632,2.2487 1.241925,0 2.533987,-1.007 2.885779,-2.2487 0.351917,-1.2422 -0.337486,-6.7462 -0.337486,-6.7462 z m 17.989644,0 c 0,0 -3.808007,5.504 -4.159925,6.7462 -0.351788,1.2417 0.369687,2.2487 1.611629,2.2487 1.241924,0 2.533989,-1.007 2.885781,-2.2487 0.351923,-1.2422 -0.337485,-6.7462 -0.337485,-6.7462 z m -47.522403,8.9949 c 0,0 -3.808007,5.5039 -4.159926,6.7461 -0.351792,1.2417 0.369706,2.2487 1.611632,2.2487 1.241926,0 2.533987,-1.007 2.885779,-2.2487 0.351918,-1.2422 -0.337486,-6.7461 -0.337486,-6.7461 z m 17.989643,0 c 0,0 -3.808006,5.5039 -4.159926,6.7461 -0.351792,1.2417 0.369706,2.2487 1.611633,2.2487 1.241925,0 2.533986,-1.007 2.885778,-2.2487 0.351918,-1.2422 -0.337486,-6.7461 -0.337486,-6.7461 z m 17.989644,0 c 0,0 -3.808007,5.5039 -4.159926,6.7461 -0.351792,1.2417 0.369709,2.2487 1.611632,2.2487 1.241924,0 2.533987,-1.007 2.885779,-2.2487 0.351917,-1.2422 -0.337486,-6.7461 -0.337486,-6.7461 z m -28.258612,4.4974 c 0,0 -3.808006,5.5039 -4.159926,6.7461 -0.351792,1.2417 0.369705,2.2487 1.611632,2.2487 1.241926,0 2.533987,-1.007 2.885779,-2.2487 0.351918,-1.2422 -0.337486,-6.7461 -0.337486,-6.7461 z m 17.989643,0 c 0,0 -3.808006,5.5039 -4.159925,6.7461 -0.351792,1.2417 0.369705,2.2487 1.611632,2.2487 1.241925,0 2.533986,-1.007 2.885778,-2.2487 0.351918,-1.2422 -0.337485,-6.7461 -0.337485,-6.7461 z m 17.989645,0 c 0,0 -3.808007,5.5039 -4.159929,6.7461 -0.351788,1.2417 0.369732,2.2487 1.611633,2.2487 1.241924,0 2.533986,-1.007 2.885778,-2.2487 0.351922,-1.2422 -0.337486,-6.7461 -0.337486,-6.7461 z"
       id="path3001"
       inkscape:connector-curvature="0"
       inkscape:transform-center-y="17.989077"
       inkscape:transform-center-x="5.0910966" />
    <path
       style="fill:#fffbff;fill-opacity:1;fill-rule:evenodd;stroke:none"
       d="m 37.44609,1010.3829 c 0,0 -3.817555,5.5039 -4.169474,6.7461 -0.138204,0.4878 -0.0893,0.9432 0.07027,1.3118 0.564594,-1.4752 4.099202,-6.5588 4.099202,-6.5588 0,0 0.315893,2.688 0.398209,4.7317 0.148108,-1.7898 -0.398209,-6.2308 -0.398209,-6.2308 z m 17.989644,0 c 0,0 -3.817555,5.5039 -4.169475,6.7461 -0.137419,0.4851 -0.09256,0.935 0.07027,1.3118 0.564595,-1.4752 4.099203,-6.5588 4.099203,-6.5588 0,0 0.315892,2.688 0.398208,4.7317 0.148109,-1.7898 -0.398208,-6.2308 -0.398208,-6.2308 z m 17.989643,0 c 0,0 -3.817557,5.5039 -4.169474,6.7461 -0.137429,0.4851 -0.09256,0.935 0.07027,1.3118 0.564593,-1.4752 4.099202,-6.5588 4.099202,-6.5588 0,0 0.315893,2.688 0.398208,4.7317 0.148111,-1.7898 -0.398208,-6.2308 -0.398208,-6.2308 z m -47.527326,8.9948 c 0,0 -3.794131,5.504 -4.146051,6.7461 -0.141731,0.5003 -0.100266,0.9616 0.07027,1.3352 0.543305,-1.4522 4.075779,-6.5821 4.075779,-6.5821 0,0 0.330143,2.5668 0.421632,4.5911 0.103801,-1.8857 -0.421632,-6.0903 -0.421632,-6.0903 z m 17.989643,0 c 0,0 -3.794131,5.504 -4.14605,6.7461 -0.141732,0.5003 -0.100266,0.9616 0.07027,1.3352 0.543305,-1.4522 4.075778,-6.5821 4.075778,-6.5821 0,0 0.330143,2.5668 0.421633,4.5911 0.103801,-1.8857 -0.421633,-6.0903 -0.421633,-6.0903 z m 17.989644,0 c 0,0 -3.794131,5.504 -4.146051,6.7461 -0.141731,0.5003 -0.100267,0.9616 0.07027,1.3352 0.543306,-1.4522 4.075779,-6.5821 4.075779,-6.5821 0,0 0.330143,2.5668 0.421632,4.5911 0.103803,-1.8857 -0.421632,-6.0903 -0.421632,-6.0903 z m -28.249362,4.4974 c 0,0 -3.817555,5.504 -4.169475,6.7461 -0.141731,0.5003 -0.100266,0.9617 0.07027,1.3352 0.543306,-1.4521 4.099203,-6.5821 4.099203,-6.5821 0,0 0.315892,2.688 0.398208,4.7316 0.148109,-1.7898 -0.398208,-6.2308 -0.398208,-6.2308 z m 17.989643,0 c 0,0 -3.817555,5.504 -4.169474,6.7461 -0.141732,0.5003 -0.100266,0.9617 0.07027,1.3352 0.543305,-1.4521 4.099202,-6.5821 4.099202,-6.5821 0,0 0.315893,2.688 0.398209,4.7316 0.148108,-1.7898 -0.398209,-6.2308 -0.398209,-6.2308 z m 17.989644,0 c 0,0 -3.817557,5.504 -4.169475,6.7461 -0.14173,0.5003 -0.100264,0.9617 0.07027,1.3352 0.543304,-1.4521 4.099203,-6.5821 4.099203,-6.5821 0,0 0.315893,2.688 0.398208,4.7316 0.148111,-1.7898 -0.398208,-6.2308 -0.398208,-6.2308 z m -47.527326,8.9949 c 0,0 -3.817556,5.5039 -4.169475,6.7461 -0.138204,0.4878 -0.0893,0.9432 0.07027,1.3117 0.564594,-1.4752 4.099203,-6.5587 4.099203,-6.5587 0,0 0.334633,2.6267 0.421632,4.6614 0.124856,-1.8416 -0.421632,-6.1605 -0.421632,-6.1605 z m 17.989643,0 c 0,0 -3.817555,5.5039 -4.169475,6.7461 -0.138203,0.4878 -0.0893,0.9432 0.07027,1.3117 0.564595,-1.4752 4.099203,-6.5587 4.099203,-6.5587 0,0 0.334633,2.6267 0.421632,4.6614 0.124857,-1.8416 -0.421632,-6.1605 -0.421632,-6.1605 z m 17.989643,0 c 0,0 -3.817555,5.5039 -4.169474,6.7461 -0.138204,0.4878 -0.0893,0.9432 0.07027,1.3117 0.564594,-1.4752 4.099202,-6.5587 4.099202,-6.5587 0,0 0.334633,2.6267 0.421633,4.6614 0.124856,-1.8416 -0.421633,-6.1605 -0.421633,-6.1605 z m -28.249361,4.4974 c 0,0 -3.817556,5.5039 -4.169475,6.7461 -0.141731,0.5003 -0.100266,0.9616 0.07027,1.3351 0.543305,-1.4521 4.099203,-6.5821 4.099203,-6.5821 0,0 0.315892,2.688 0.398208,4.7317 0.148109,-1.7898 -0.398208,-6.2308 -0.398208,-6.2308 z m 17.989643,0 c 0,0 -3.817555,5.5039 -4.169475,6.7461 -0.141731,0.5003 -0.100266,0.9616 0.07027,1.3351 0.543306,-1.4521 4.099203,-6.5821 4.099203,-6.5821 0,0 0.315892,2.688 0.398208,4.7317 0.148109,-1.7898 -0.398208,-6.2308 -0.398208,-6.2308 z m 17.989643,0 c 0,0 -3.817552,5.5039 -4.169474,6.7461 -0.14173,0.5003 -0.10027,0.9616 0.07027,1.3351 0.543307,-1.4521 4.099202,-6.5821 4.099202,-6.5821 0,0 0.315893,2.688 0.398209,4.7317 0.148111,-1.7898 -0.398209,-6.2308 -0.398209,-6.2308 z"
       id="path3037"
       inkscape:connector-curvature="0" />
    <path
       style="fill:#000000;fill-opacity:0.38356168;fill-rule:nonzero;stroke:none"
       d="m 1,1042.362 0.045978,2.7462 c 0.03024,1.8054 1.461916,3.2538 3.2852055,3.2538 l 86.3836165,0 c 1.823286,0 3.285204,-1.4478 3.285204,-3.2538 l -0.0462,-2.7462 z"
       id="rect3781"
       inkscape:connector-curvature="0"
       sodipodi:nodetypes="csssscc" />
    <rect
       style="fill:#ffffff;fill-opacity:0.3;fill-rule:nonzero;stroke:none"
       id="rect3770"
       width="92.954033"
       height="2.000005"
       x="1.045976"
       y="1040.3621" />
  </g>
</svg>
