<?xml version="1.0" encoding="UTF-8" standalone="no"?>
<!-- Created with Inkscape (http://www.inkscape.org/) -->

<svg
   xmlns:dc="http://purl.org/dc/elements/1.1/"
   xmlns:cc="http://creativecommons.org/ns#"
   xmlns:rdf="http://www.w3.org/1999/02/22-rdf-syntax-ns#"
   xmlns:svg="http://www.w3.org/2000/svg"
   xmlns="http://www.w3.org/2000/svg"
   xmlns:sodipodi="http://sodipodi.sourceforge.net/DTD/sodipodi-0.dtd"
   xmlns:inkscape="http://www.inkscape.org/namespaces/inkscape"
   width="16"
   height="16"
   id="svg2"
   sodipodi:version="0.32"
   inkscape:version="0.48.4 r9939"
   version="1.0"
   sodipodi:docname="weather-few-clouds-symbolic.svg"
   inkscape:output_extension="org.inkscape.output.svg.inkscape">
  <defs
     id="defs4" />
  <sodipodi:namedview
     id="base"
     pagecolor="#ffffff"
     bordercolor="#e7e7e7"
     borderopacity="1"
     inkscape:pageopacity="0.0"
     inkscape:pageshadow="2"
     inkscape:zoom="7.1805393"
     inkscape:cx="13.99397"
     inkscape:cy="2.2385234"
     inkscape:document-units="px"
     inkscape:current-layer="layer1"
     showgrid="true"
     inkscape:showpageshadow="false"
     showguides="true"
     inkscape:guide-bbox="true"
     inkscape:window-width="1305"
     inkscape:window-height="744"
     inkscape:window-x="61"
     inkscape:window-y="24"
     inkscape:window-maximized="1"
     inkscape:snap-global="true">
    <sodipodi:guide
       orientation="1,0"
       position="0,112"
       id="guide2383" />
    <inkscape:grid
       type="xygrid"
       id="grid3672"
       visible="true"
       enabled="true" />
    <sodipodi:guide
       orientation="1,0"
       position="22.008699,4.1542523"
       id="guide2950" />
    <sodipodi:guide
       orientation="0,1"
       position="11.22532,22.008699"
       id="guide2952" />
  </sodipodi:namedview>
  <metadata
     id="metadata7">
    <rdf:RDF>
      <cc:Work
         rdf:about="">
        <dc:format>image/svg+xml</dc:format>
        <dc:type
           rdf:resource="http://purl.org/dc/dcmitype/StillImage" />
        <dc:title />
      </cc:Work>
    </rdf:RDF>
  </metadata>
  <g
     inkscape:label="Calque 1"
     inkscape:groupmode="layer"
     id="layer1">
    <path
       style="color:#000000;fill:#999999;fill-opacity:1;fill-rule:nonzero;stroke:none;stroke-width:1.50000000000000000;marker:none;visibility:visible;display:inline;overflow:visible;enable-background:accumulate"
       d="m 11,10 c 1.301321,0 2.39699,0.841652 2.8125,2 0.06184,-0.0058 0.12415,0 0.1875,0 1.104569,0 2,0.895431 2,2 0,1.104569 -0.895431,2 -2,2 l -3,0 -3.5,0 C 6.671573,16 6,15.328427 6,14.5 6,13.671573 6.671573,13 7.5,13 L 8,13 c 0,-1.656854 1.343146,-3 3,-3 z"
       id="path3115"
       inkscape:connector-curvature="0" />
    <path
       style="color:#000000;fill:#999999;fill-opacity:1;fill-rule:nonzero;stroke:none;stroke-width:1;marker:none;visibility:visible;display:inline;overflow:visible;enable-background:accumulate"
       d="M 6.625,0 C 6.625,0 6.4670989,2.7769489 5.75,3.125 5.0329011,3.4730511 2.8125,1.75 2.8125,1.75 c 0,0 1.3038758,2.5373311 0.8125,3.15625 -0.4913758,0.6189189 -3.25,0.28125 -3.25,0.28125 0,0 2.3259736,1.4730732 2.28125,2.3125 C 2.6115261,8.3394268 0,9.375 0,9.375 c 0,0 2.7502209,0.1846294 3.125,0.875 0.3747791,0.690371 -1.375,2.9375 -1.375,2.9375 0,0 2.510603,-1.303876 3.15625,-0.8125 C 5.1197212,12.537464 5.2076817,12.960991 5.25,13.4375 5.6190845,12.735157 6.3534691,12.245878 7.1875,12.125 7.5997138,10.351151 9.1068175,9 11,9 c 1.32059,0 2.390428,0.7148349 3.09375,1.71875 0.783396,0.0035 1.53125,0.09375 1.53125,0.09375 0,0 -2.325979,-1.5799856 -2.28125,-2.3125 C 13.388474,7.7674856 16,6.625 16,6.625 16,6.625 13.223051,6.4938271 12.875,5.75 12.526949,5.0061729 14.25,2.8125 14.25,2.8125 c 0,0 -2.590787,1.2504196 -3.15625,0.8125 -0.565463,-0.4379196 -0.28125,-3.25 -0.28125,-3.25 0,0 -1.5265294,2.3527018 -2.3125,2.28125 C 7.7140294,2.5847981 6.625,0 6.625,0 z"
       id="path4639"
       inkscape:connector-curvature="0"
       sodipodi:nodetypes="cscscscscsccsccscscscsc" />
  </g>
</svg>
