<?xml version="1.0" encoding="UTF-8" standalone="no"?>
<!-- Created with Inkscape (http://www.inkscape.org/) -->

<svg
   xmlns:dc="http://purl.org/dc/elements/1.1/"
   xmlns:cc="http://creativecommons.org/ns#"
   xmlns:rdf="http://www.w3.org/1999/02/22-rdf-syntax-ns#"
   xmlns:svg="http://www.w3.org/2000/svg"
   xmlns="http://www.w3.org/2000/svg"
   xmlns:sodipodi="http://sodipodi.sourceforge.net/DTD/sodipodi-0.dtd"
   xmlns:inkscape="http://www.inkscape.org/namespaces/inkscape"
   width="16"
   height="16"
   id="svg2"
   sodipodi:version="0.32"
   inkscape:version="0.48.4 r9939"
   version="1.0"
   sodipodi:docname="weather-clouds-symbolic.svg"
   inkscape:output_extension="org.inkscape.output.svg.inkscape">
  <defs
     id="defs4" />
  <sodipodi:namedview
     id="base"
     pagecolor="#ffffff"
     bordercolor="#e7e7e7"
     borderopacity="1"
     inkscape:pageopacity="0.0"
     inkscape:pageshadow="2"
     inkscape:zoom="9.3814006"
     inkscape:cx="-3.5024367"
     inkscape:cy="-5.6432958"
     inkscape:document-units="px"
     inkscape:current-layer="layer1"
     showgrid="true"
     inkscape:showpageshadow="false"
     showguides="true"
     inkscape:guide-bbox="true"
     inkscape:window-width="1305"
     inkscape:window-height="744"
     inkscape:window-x="61"
     inkscape:window-y="24"
     inkscape:window-maximized="1"
     inkscape:snap-global="true">
    <sodipodi:guide
       orientation="1,0"
       position="0,112"
       id="guide2383" />
    <sodipodi:guide
       orientation="0,1"
       position="78.156291,0"
       id="guide2389" />
    <inkscape:grid
       type="xygrid"
       id="grid3672"
       visible="true"
       enabled="true" />
    <sodipodi:guide
       orientation="1,0"
       position="22.008699,4.1542523"
       id="guide2950" />
    <sodipodi:guide
       orientation="0,1"
       position="11.22532,22.008699"
       id="guide2952" />
  </sodipodi:namedview>
  <metadata
     id="metadata7">
    <rdf:RDF>
      <cc:Work
         rdf:about="">
        <dc:format>image/svg+xml</dc:format>
        <dc:type
           rdf:resource="http://purl.org/dc/dcmitype/StillImage" />
        <dc:title />
      </cc:Work>
    </rdf:RDF>
  </metadata>
  <g
     inkscape:label="Calque 1"
     inkscape:groupmode="layer"
     id="layer1">
    <path
       style="color:#000000;fill:#999999;fill-opacity:1;fill-rule:nonzero;stroke:none;stroke-width:1;marker:none;visibility:visible;display:inline;overflow:visible;enable-background:accumulate"
       d="M 8,8 C 6.1231155,8 4.5562934,9.2876389 4.125,11.03125 2.92405,11.2138 2,12.248066 2,13.5 2,14.880712 3.1192881,16 4.5,16 l 9,0 C 14.880712,16 16,14.880712 16,13.5 16,12.291877 15.139208,11.295616 14,11.0625 14.00065,11.041541 14,11.021117 14,11 14,9.8954305 13.104569,9 12,9 11.620084,9 11.271258,9.1285643 10.96875,9.3125 10.236762,8.5026407 9.1776106,8 8,8 z"
       id="path3805"
       sodipodi:nodetypes="ccsccscsscc"
       inkscape:connector-curvature="0" />
    <path
       style="color:#000000;fill:#999999;fill-opacity:1;fill-rule:nonzero;stroke:none;stroke-width:1;marker:none;visibility:visible;display:inline;overflow:visible;enable-background:accumulate"
       d="M 6.625,0 C 6.625,0 6.4670988,2.7769489 5.75,3.125 5.0329011,3.473051 2.8125,1.75 2.8125,1.75 c 0,0 1.3038758,2.5373311 0.8125,3.15625 -0.4913758,0.6189189 -3.25,0.28125 -3.25,0.28125 0,0 2.325974,1.4730732 2.28125,2.3125 C 2.6115262,8.3394268 0,9.375 0,9.375 c 0,0 2.7502208,0.1846298 3.125,0.875 0.028108,0.05178 0.056637,0.11969 0.0625,0.1875 0.043396,-0.01859 0.080891,-0.04533 0.125,-0.0625 C 3.9889186,8.415255 5.8216637,7 8,7 9.2149688,7 10.285234,7.5216812 11.15625,8.25 11.432356,8.1554735 11.673621,8 12,8 12.510004,8 12.977002,8.1346806 13.375,8.375 13.639021,7.6441314 16,6.625 16,6.625 16,6.625 13.223051,6.4938271 12.875,5.75 12.526949,5.0061728 14.25,2.8125 14.25,2.8125 c 0,0 -2.590788,1.2504196 -3.15625,0.8125 -0.565463,-0.4379196 -0.28125,-3.25 -0.28125,-3.25 0,0 -1.5265295,2.352702 -2.3125,2.28125 C 7.7140294,2.5847981 6.625,0 6.625,0 z"
       id="path4639"
       inkscape:connector-curvature="0"
       sodipodi:nodetypes="cscscscsccscsccscscsc" />
  </g>
</svg>
