<?xml version="1.0" encoding="UTF-8" standalone="no"?>
<!-- Created with Inkscape (http://www.inkscape.org/) -->

<svg
   xmlns:dc="http://purl.org/dc/elements/1.1/"
   xmlns:cc="http://creativecommons.org/ns#"
   xmlns:rdf="http://www.w3.org/1999/02/22-rdf-syntax-ns#"
   xmlns:svg="http://www.w3.org/2000/svg"
   xmlns="http://www.w3.org/2000/svg"
   xmlns:xlink="http://www.w3.org/1999/xlink"
   xmlns:sodipodi="http://sodipodi.sourceforge.net/DTD/sodipodi-0.dtd"
   xmlns:inkscape="http://www.inkscape.org/namespaces/inkscape"
   width="96"
   height="96"
   id="svg2"
   version="1.1"
   inkscape:version="0.48.4 r9939"
   sodipodi:docname="weather-clear-night.svg">
  <defs
     id="defs4">
    <linearGradient
       id="linearGradient3763">
      <stop
         style="stop-color:#ffe88f;stop-opacity:1;"
         offset="0"
         id="stop3765" />
      <stop
         style="stop-color:#ffd42a;stop-opacity:0.97692305;"
         offset="1"
         id="stop3767" />
    </linearGradient>
    <radialGradient
       inkscape:collect="always"
       xlink:href="#linearGradient3763"
       id="radialGradient3769"
       cx="-61.691616"
       cy="36.753101"
       fx="-61.691616"
       fy="36.753101"
       r="18.180531"
       gradientTransform="matrix(1,0,0,0.97196269,0,1.205257)"
       gradientUnits="userSpaceOnUse" />
    <filter
       color-interpolation-filters="sRGB"
       inkscape:collect="always"
       id="filter3888"
       x="-0.65948009"
       width="2.3189602"
       y="-0.81649917"
       height="2.6329982">
      <feGaussianBlur
         inkscape:collect="always"
         stdDeviation="0.74380734"
         id="feGaussianBlur3890" />
    </filter>
  </defs>
  <sodipodi:namedview
     id="base"
     pagecolor="#ffffff"
     bordercolor="#666666"
     borderopacity="1.0"
     inkscape:pageopacity="0.0"
     inkscape:pageshadow="2"
     inkscape:zoom="5.90625"
     inkscape:cx="33.188641"
     inkscape:cy="48"
     inkscape:document-units="px"
     inkscape:current-layer="layer1"
     showgrid="true"
     inkscape:snap-page="false"
     inkscape:snap-global="true"
     inkscape:snap-center="true"
     inkscape:snap-object-midpoints="false"
     showguides="true"
     inkscape:guide-bbox="true"
     inkscape:snap-bbox="true"
     inkscape:object-paths="true"
     inkscape:object-nodes="false"
     inkscape:window-width="1305"
     inkscape:window-height="744"
     inkscape:window-x="61"
     inkscape:window-y="24"
     inkscape:window-maximized="1"
     inkscape:snap-midpoints="false"
     inkscape:snap-grids="true"
     inkscape:snap-to-guides="false"
     inkscape:snap-nodes="false">
    <inkscape:grid
       type="xygrid"
       id="grid3002"
       empspacing="5"
       visible="true"
       enabled="true"
       snapvisiblegridlinesonly="true" />
  </sodipodi:namedview>
  <metadata
     id="metadata7">
    <rdf:RDF>
      <cc:Work
         rdf:about="">
        <dc:format>image/svg+xml</dc:format>
        <dc:type
           rdf:resource="http://purl.org/dc/dcmitype/StillImage" />
        <dc:title />
      </cc:Work>
    </rdf:RDF>
  </metadata>
  <g
     inkscape:label="Layer 1"
     inkscape:groupmode="layer"
     id="layer1"
     transform="translate(0,-956.36218)">
    <rect
       style="fill:#ffffff;fill-opacity:0;fill-rule:nonzero;stroke:none"
       id="rect3775"
       width="96"
       height="96"
       x="0"
       y="956.36212"
       ry="0" />
    <path
       style="fill:#000000;fill-opacity:0.09589042;fill-rule:nonzero;stroke:none"
       d="M 3.4090909,956.3622 C 1.5260553,956.3622 0,957.7926 0,959.5584 l 0,83.6076 c 0,1.7658 1.5260553,3.1962 3.4090909,3.1962 l 89.1818171,0 c 1.883034,0 3.409092,-1.4304 3.409092,-3.1962 l 0,-83.6076 c 0,-1.7658 -1.526058,-3.1962 -3.409092,-3.1962 z"
       id="rect3772"
       inkscape:connector-curvature="0"
       sodipodi:nodetypes="sssssssss" />
    <path
       style="fill:#000000;fill-opacity:0.18721463;fill-rule:nonzero;stroke:none"
       d="m 1.0459761,1041.8064 0,7.422 c 0,1.7394 1.461916,3.1338 3.2852054,3.1338 l 86.3836105,0 c 1.823292,0 3.28521,-1.3944 3.28521,-3.1338 l 0,-7.422 -92.9540259,0 z"
       id="rect3785"
       inkscape:connector-curvature="0" />
    <path
       style="fill:#000000;fill-opacity:0.38356168;fill-rule:nonzero;stroke:none"
       d="m 1.0459761,1041.8064 0,5.3808 c 0,1.7622 1.461916,3.1752 3.2852054,3.1752 l 86.3836105,0 c 1.823292,0 3.28521,-1.413 3.28521,-3.1752 l 0,-5.3808 -92.9540259,0 z"
       id="rect3783"
       inkscape:connector-curvature="0" />
    <rect
       style="fill:#1d0021;fill-opacity:1;fill-rule:nonzero;stroke:none"
       id="rect2985"
       width="92.954025"
       height="89"
       x="1.045977"
       y="957.36188"
       ry="3.1511393" />
    <path
       sodipodi:type="arc"
       style="fill:#ffffff;fill-opacity:0.08333334;stroke:none"
       id="path3899"
       sodipodi:cx="-57.939823"
       sodipodi:cy="42.98761"
       sodipodi:rx="18.180531"
       sodipodi:ry="17.670797"
       d="m -39.759293,42.98761 c 0,9.759312 -8.1397,17.670797 -18.18053,17.670797 -10.04083,0 -18.180531,-7.911485 -18.180531,-17.670797 0,-9.759312 8.139701,-17.670797 18.180531,-17.670797 10.04083,0 18.18053,7.911485 18.18053,17.670797 z"
       transform="matrix(1.9031402,0,0,1.9031402,159.26762,912.0114)" />
    <path
       transform="matrix(1.7237867,0,0,1.7237867,148.8759,919.7214)"
       d="m -39.759293,42.98761 c 0,9.759312 -8.1397,17.670797 -18.18053,17.670797 -10.04083,0 -18.180531,-7.911485 -18.180531,-17.670797 0,-9.759312 8.139701,-17.670797 18.180531,-17.670797 10.04083,0 18.18053,7.911485 18.18053,17.670797 z"
       sodipodi:ry="17.670797"
       sodipodi:rx="18.180531"
       sodipodi:cy="42.98761"
       sodipodi:cx="-57.939823"
       id="path3897"
       style="fill:#ffffff;fill-opacity:0.08333334;stroke:none"
       sodipodi:type="arc" />
    <path
       sodipodi:type="arc"
       style="fill:#ffffff;fill-opacity:0.08333334;stroke:none"
       id="path3895"
       sodipodi:cx="-57.939823"
       sodipodi:cy="42.98761"
       sodipodi:rx="18.180531"
       sodipodi:ry="17.670797"
       d="m -39.759293,42.98761 c 0,9.759312 -8.1397,17.670797 -18.18053,17.670797 -10.04083,0 -18.180531,-7.911485 -18.180531,-17.670797 0,-9.759312 8.139701,-17.670797 18.180531,-17.670797 10.04083,0 18.18053,7.911485 18.18053,17.670797 z"
       transform="matrix(1.4647204,0,0,1.4647204,133.86564,930.858)" />
    <path
       transform="matrix(1.2455105,0,0,1.2455105,121.16467,940.2816)"
       d="m -39.759293,42.98761 c 0,9.759312 -8.1397,17.670797 -18.18053,17.670797 -10.04083,0 -18.180531,-7.911485 -18.180531,-17.670797 0,-9.759312 8.139701,-17.670797 18.180531,-17.670797 10.04083,0 18.18053,7.911485 18.18053,17.670797 z"
       sodipodi:ry="17.670797"
       sodipodi:rx="18.180531"
       sodipodi:cy="42.98761"
       sodipodi:cx="-57.939823"
       id="path3893"
       style="fill:#ffffff;fill-opacity:0.08333334;stroke:none"
       sodipodi:type="arc" />
    <path
       sodipodi:type="arc"
       style="fill:url(#radialGradient3769);fill-opacity:1;stroke:none"
       id="path3891"
       sodipodi:cx="-57.939823"
       sodipodi:cy="42.98761"
       sodipodi:rx="18.180531"
       sodipodi:ry="17.670797"
       d="m -39.759293,42.98761 c 0,9.759312 -8.1397,17.670797 -18.18053,17.670797 -10.04083,0 -18.180531,-7.911485 -18.180531,-17.670797 0,-9.759312 8.139701,-17.670797 18.180531,-17.670797 10.04083,0 18.18053,7.911485 18.18053,17.670797 z"
       transform="matrix(1.066157,0,0,1.066157,110.77295,947.991)" />
    <path
       style="fill:#000000;fill-opacity:0.38356168;fill-rule:nonzero;stroke:none"
       d="m 1,1042.362 0.045978,2.7462 c 0.03024,1.8054 1.461916,3.2538 3.2852055,3.2538 l 86.3836145,0 c 1.823286,0 3.285204,-1.4478 3.285204,-3.2538 l -0.0462,-2.7462 z"
       id="rect3781"
       inkscape:connector-curvature="0"
       sodipodi:nodetypes="csssscc" />
    <rect
       style="fill:#ffffff;fill-opacity:0.3;fill-rule:nonzero;stroke:none"
       id="rect3770"
       width="92.954033"
       height="2.000005"
       x="1.045976"
       y="1040.3621" />
    <path
       transform="matrix(1.066157,0,0,1.066157,110.77295,947.991)"
       d="m -39.759293,42.98761 c 0,9.759312 -8.1397,17.670797 -18.18053,17.670797 -10.04083,0 -18.180531,-7.911485 -18.180531,-17.670797 0,-9.759312 8.139701,-17.670797 18.180531,-17.670797 10.04083,0 18.18053,7.911485 18.18053,17.670797 z"
       sodipodi:ry="17.670797"
       sodipodi:rx="18.180531"
       sodipodi:cy="42.98761"
       sodipodi:cx="-57.939823"
       id="path3774"
       style="fill:#000000;fill-opacity:0.11111112;stroke:none"
       sodipodi:type="arc" />
    <path
       sodipodi:type="arc"
       style="fill:#ffffff;fill-opacity:1;fill-rule:nonzero;stroke:none;filter:url(#filter3888)"
       id="path3862"
       sodipodi:cx="5.6219945"
       sodipodi:cy="17.963875"
       sodipodi:rx="1.3534431"
       sodipodi:ry="1.0931656"
       d="m 6.9754376,17.963875 a 1.3534431,1.0931656 0 1 1 -2.7068863,0 1.3534431,1.0931656 0 1 1 2.7068863,0 z"
       transform="matrix(1.9712843,0,0,2.1603196,68.917451,928.55447)" />
    <path
       transform="matrix(1.9712843,0,0,2.1603196,68.917451,978.55447)"
       d="m 6.9754376,17.963875 a 1.3534431,1.0931656 0 1 1 -2.7068863,0 1.3534431,1.0931656 0 1 1 2.7068863,0 z"
       sodipodi:ry="1.0931656"
       sodipodi:rx="1.3534431"
       sodipodi:cy="17.963875"
       sodipodi:cx="5.6219945"
       id="path3892"
       style="fill:#ffffff;fill-opacity:1;fill-rule:nonzero;stroke:none;filter:url(#filter3888)"
       sodipodi:type="arc" />
    <path
       sodipodi:type="arc"
       style="fill:#ffffff;fill-opacity:1;fill-rule:nonzero;stroke:none;filter:url(#filter3888)"
       id="path3894"
       sodipodi:cx="5.6219945"
       sodipodi:cy="17.963875"
       sodipodi:rx="1.3534431"
       sodipodi:ry="1.0931656"
       d="m 6.9754376,17.963875 a 1.3534431,1.0931656 0 1 1 -2.7068863,0 1.3534431,1.0931656 0 1 1 2.7068863,0 z"
       transform="matrix(1.1869484,0,0,1.3007703,83.326983,963.99531)" />
    <path
       transform="matrix(1.1869484,0,0,1.3007703,8.3269826,943.99531)"
       d="m 6.9754376,17.963875 a 1.3534431,1.0931656 0 1 1 -2.7068863,0 1.3534431,1.0931656 0 1 1 2.7068863,0 z"
       sodipodi:ry="1.0931656"
       sodipodi:rx="1.3534431"
       sodipodi:cy="17.963875"
       sodipodi:cx="5.6219945"
       id="path3896"
       style="fill:#ffffff;fill-opacity:1;fill-rule:nonzero;stroke:none;filter:url(#filter3888)"
       sodipodi:type="arc" />
    <path
       sodipodi:type="arc"
       style="fill:#ffffff;fill-opacity:1;fill-rule:nonzero;stroke:none;filter:url(#filter3888)"
       id="path3898"
       sodipodi:cx="5.6219945"
       sodipodi:cy="17.963875"
       sodipodi:rx="1.3534431"
       sodipodi:ry="1.0931656"
       d="m 6.9754376,17.963875 a 1.3534431,1.0931656 0 1 1 -2.7068863,0 1.3534431,1.0931656 0 1 1 2.7068863,0 z"
       transform="matrix(1.1869484,0,0,1.3007703,57.697928,1005.7671)" />
    <path
       transform="matrix(1.3661003,0,0,1.4971019,64.225323,1002.1248)"
       d="m 6.9754376,17.963875 a 1.3534431,1.0931656 0 1 1 -2.7068863,0 1.3534431,1.0931656 0 1 1 2.7068863,0 z"
       sodipodi:ry="1.0931656"
       sodipodi:rx="1.3534431"
       sodipodi:cy="17.963875"
       sodipodi:cx="5.6219945"
       id="path3900"
       style="fill:#ffffff;fill-opacity:1;fill-rule:nonzero;stroke:none;filter:url(#filter3888)"
       sodipodi:type="arc" />
    <path
       sodipodi:type="arc"
       style="fill:#ffffff;fill-opacity:1;fill-rule:nonzero;stroke:none;filter:url(#filter3888)"
       id="path3902"
       sodipodi:cx="5.6219945"
       sodipodi:cy="17.963875"
       sodipodi:rx="1.3534431"
       sodipodi:ry="1.0931656"
       d="m 6.9754376,17.963875 a 1.3534431,1.0931656 0 1 1 -2.7068863,0 1.3534431,1.0931656 0 1 1 2.7068863,0 z"
       transform="matrix(1.3661003,0,0,1.4971019,15.644102,1005.2737)" />
    <path
       transform="matrix(1.5800101,0,0,1.7315244,1.1171919,996.25729)"
       d="m 6.9754376,17.963875 a 1.3534431,1.0931656 0 1 1 -2.7068863,0 1.3534431,1.0931656 0 1 1 2.7068863,0 z"
       sodipodi:ry="1.0931656"
       sodipodi:rx="1.3534431"
       sodipodi:cy="17.963875"
       sodipodi:cx="5.6219945"
       id="path3904"
       style="fill:#ffffff;fill-opacity:1;fill-rule:nonzero;stroke:none;filter:url(#filter3888)"
       sodipodi:type="arc" />
    <path
       sodipodi:type="arc"
       style="fill:#ffffff;fill-opacity:1;fill-rule:nonzero;stroke:none;filter:url(#filter3888)"
       id="path3906"
       sodipodi:cx="5.6219945"
       sodipodi:cy="17.963875"
       sodipodi:rx="1.3534431"
       sodipodi:ry="1.0931656"
       d="m 6.9754376,17.963875 a 1.3534431,1.0931656 0 1 1 -2.7068863,0 1.3534431,1.0931656 0 1 1 2.7068863,0 z"
       transform="matrix(0.97393241,0,0,1.0673272,71.946629,1007.0341)" />
    <path
       transform="matrix(1.1869484,0,0,1.3007703,3.3269826,983.99531)"
       d="m 6.9754376,17.963875 a 1.3534431,1.0931656 0 1 1 -2.7068863,0 1.3534431,1.0931656 0 1 1 2.7068863,0 z"
       sodipodi:ry="1.0931656"
       sodipodi:rx="1.3534431"
       sodipodi:cy="17.963875"
       sodipodi:cx="5.6219945"
       id="path3834"
       style="fill:#ffffff;fill-opacity:1;fill-rule:nonzero;stroke:none;filter:url(#filter3888)"
       sodipodi:type="arc" />
  </g>
</svg>
