<?xml version="1.0" encoding="UTF-8" standalone="no"?>
<!-- Created with Inkscape (http://www.inkscape.org/) -->

<svg
   xmlns:dc="http://purl.org/dc/elements/1.1/"
   xmlns:cc="http://creativecommons.org/ns#"
   xmlns:rdf="http://www.w3.org/1999/02/22-rdf-syntax-ns#"
   xmlns:svg="http://www.w3.org/2000/svg"
   xmlns="http://www.w3.org/2000/svg"
   xmlns:sodipodi="http://sodipodi.sourceforge.net/DTD/sodipodi-0.dtd"
   xmlns:inkscape="http://www.inkscape.org/namespaces/inkscape"
   width="16"
   height="16"
   id="svg2"
   sodipodi:version="0.32"
   inkscape:version="0.48.4 r9939"
   version="1.0"
   sodipodi:docname="weather-showers-symbolic.svg"
   inkscape:output_extension="org.inkscape.output.svg.inkscape">
  <defs
     id="defs4" />
  <sodipodi:namedview
     id="base"
     pagecolor="#ffffff"
     bordercolor="#e7e7e7"
     borderopacity="1"
     inkscape:pageopacity="0.0"
     inkscape:pageshadow="2"
     inkscape:zoom="6.6733585"
     inkscape:cx="-33.124689"
     inkscape:cy="6.3106338"
     inkscape:document-units="px"
     inkscape:current-layer="layer1"
     showgrid="true"
     inkscape:showpageshadow="false"
     showguides="true"
     inkscape:guide-bbox="true"
     inkscape:window-width="1305"
     inkscape:window-height="744"
     inkscape:window-x="61"
     inkscape:window-y="24"
     inkscape:window-maximized="1"
     inkscape:snap-global="true">
    <sodipodi:guide
       orientation="1,0"
       position="0,112"
       id="guide2383" />
    <sodipodi:guide
       orientation="0,1"
       position="78.156291,0"
       id="guide2389" />
    <inkscape:grid
       type="xygrid"
       id="grid3672"
       visible="true"
       enabled="true" />
    <sodipodi:guide
       orientation="1,0"
       position="22.008699,4.1542523"
       id="guide2950" />
    <sodipodi:guide
       orientation="0,1"
       position="11.22532,22.008699"
       id="guide2952" />
  </sodipodi:namedview>
  <metadata
     id="metadata7">
    <rdf:RDF>
      <cc:Work
         rdf:about="">
        <dc:format>image/svg+xml</dc:format>
        <dc:type
           rdf:resource="http://purl.org/dc/dcmitype/StillImage" />
        <dc:title />
      </cc:Work>
    </rdf:RDF>
  </metadata>
  <g
     inkscape:label="Calque 1"
     inkscape:groupmode="layer"
     id="layer1">
    <path
       style="color:#000000;fill:#999999;fill-opacity:1;fill-rule:nonzero;stroke:none;stroke-width:1;marker:none;visibility:visible;display:inline;overflow:visible;enable-background:accumulate"
       d="M 7,1 C 5.1231155,1 3.5562934,2.287639 3.125,4.03125 1.92405,4.2138 1,5.248066 1,6.5 1,7.880712 2.1192881,9 3.5,9 l 9,0 C 13.880712,9 15,7.880712 15,6.5 15,5.291877 14.139208,4.295616 13,4.0625 13.00065,4.04154 13,4.02112 13,4 13,2.895431 12.104569,2 11,2 10.620084,2 10.271258,2.128564 9.96875,2.3125 9.2367617,1.502641 8.1776106,1 7,1 z"
       id="path3888"
       sodipodi:nodetypes="ccsccscsscc" />
    <path
       style="color:#000000;fill:#999999;fill-opacity:1;fill-rule:nonzero;stroke:none;stroke-width:1;marker:none;visibility:visible;display:inline;overflow:visible;enable-background:accumulate"
       d="M 1.9934531,14.784453 C 1.8208886,15.083344 1.4446389,15.129248 1.2107095,14.994189 0.97678,14.85913 0.8311316,14.505621 1.000974,14.211445 1.1708157,13.91727 2.0672983,13.510533 2.0672983,13.510533 c 0,0 0.098719,0.97503 -0.073848,1.27392 z"
       id="path3880"
       inkscape:connector-curvature="0"
       sodipodi:nodetypes="zszcz"
       inkscape:transform-center-y="-0.20465155"
       inkscape:transform-center-x="-0.011284306" />
    <path
       inkscape:transform-center-x="-0.011284306"
       inkscape:transform-center-y="-0.20465155"
       sodipodi:nodetypes="zszcz"
       inkscape:connector-curvature="0"
       id="path3882"
       d="M 2.9934531,12.784453 C 2.8208886,13.083344 2.4446389,13.129248 2.2107095,12.994189 1.97678,12.85913 1.8311316,12.505621 2.000974,12.211445 2.1708157,11.91727 3.067298,11.510533 3.067298,11.510533 c 0,0 0.09872,0.97503 -0.073848,1.27392 z"
       style="color:#000000;fill:#999999;fill-opacity:1;fill-rule:nonzero;stroke:none;stroke-width:1;marker:none;visibility:visible;display:inline;overflow:visible;enable-background:accumulate" />
    <path
       style="color:#000000;fill:#999999;fill-opacity:1;fill-rule:nonzero;stroke:none;stroke-width:1;marker:none;visibility:visible;display:inline;overflow:visible;enable-background:accumulate"
       d="M 3.993453,10.784453 C 3.820889,11.083344 3.444639,11.129248 3.21071,10.994189 2.97678,10.85913 2.8311316,10.505621 3.000974,10.211445 3.170816,9.91727 4.067298,9.510533 4.067298,9.510533 c 0,0 0.09872,0.97503 -0.07385,1.27392 z"
       id="path3884"
       inkscape:connector-curvature="0"
       sodipodi:nodetypes="zszcz"
       inkscape:transform-center-y="-0.20465155"
       inkscape:transform-center-x="-0.011284306" />
    <path
       inkscape:transform-center-x="-0.011284306"
       inkscape:transform-center-y="-0.20465155"
       sodipodi:nodetypes="zszcz"
       inkscape:connector-curvature="0"
       id="path3110"
       d="M 3.9934531,14.784453 C 3.8208886,15.083344 3.4446389,15.129248 3.2107095,14.994189 2.97678,14.85913 2.8311316,14.505621 3.000974,14.211445 3.1708157,13.91727 4.0672983,13.510533 4.0672983,13.510533 c 0,0 0.098719,0.97503 -0.073848,1.27392 z"
       style="color:#000000;fill:#999999;fill-opacity:1;fill-rule:nonzero;stroke:none;stroke-width:1;marker:none;visibility:visible;display:inline;overflow:visible;enable-background:accumulate" />
    <path
       style="color:#000000;fill:#999999;fill-opacity:1;fill-rule:nonzero;stroke:none;stroke-width:1;marker:none;visibility:visible;display:inline;overflow:visible;enable-background:accumulate"
       d="M 4.9934531,12.784453 C 4.8208886,13.083344 4.4446389,13.129248 4.2107095,12.994189 3.97678,12.85913 3.8311316,12.505621 4.000974,12.211445 4.1708157,11.91727 5.067298,11.510533 5.067298,11.510533 c 0,0 0.09872,0.97503 -0.073848,1.27392 z"
       id="path3112"
       inkscape:connector-curvature="0"
       sodipodi:nodetypes="zszcz"
       inkscape:transform-center-y="-0.20465155"
       inkscape:transform-center-x="-0.011284306" />
    <path
       inkscape:transform-center-x="-0.011284306"
       inkscape:transform-center-y="-0.20465155"
       sodipodi:nodetypes="zszcz"
       inkscape:connector-curvature="0"
       id="path3114"
       d="M 5.993453,10.784453 C 5.820889,11.083344 5.444639,11.129248 5.21071,10.994189 4.97678,10.85913 4.8311316,10.505621 5.000974,10.211445 5.170816,9.91727 6.067298,9.510533 6.067298,9.510533 c 0,0 0.09872,0.97503 -0.07385,1.27392 z"
       style="color:#000000;fill:#999999;fill-opacity:1;fill-rule:nonzero;stroke:none;stroke-width:1;marker:none;visibility:visible;display:inline;overflow:visible;enable-background:accumulate" />
    <path
       style="color:#000000;fill:#999999;fill-opacity:1;fill-rule:nonzero;stroke:none;stroke-width:1;marker:none;visibility:visible;display:inline;overflow:visible;enable-background:accumulate"
       d="M 5.9934531,14.784453 C 5.8208886,15.083344 5.4446389,15.129248 5.2107095,14.994189 4.97678,14.85913 4.8311316,14.505621 5.000974,14.211445 5.1708157,13.91727 6.0672983,13.510533 6.0672983,13.510533 c 0,0 0.098719,0.97503 -0.073848,1.27392 z"
       id="path3116"
       inkscape:connector-curvature="0"
       sodipodi:nodetypes="zszcz"
       inkscape:transform-center-y="-0.20465155"
       inkscape:transform-center-x="-0.011284306" />
    <path
       inkscape:transform-center-x="-0.011284306"
       inkscape:transform-center-y="-0.20465155"
       sodipodi:nodetypes="zszcz"
       inkscape:connector-curvature="0"
       id="path3118"
       d="M 6.9934531,12.784453 C 6.8208886,13.083344 6.4446389,13.129248 6.2107095,12.994189 5.97678,12.85913 5.8311316,12.505621 6.000974,12.211445 6.1708157,11.91727 7.067298,11.510533 7.067298,11.510533 c 0,0 0.09872,0.97503 -0.073848,1.27392 z"
       style="color:#000000;fill:#999999;fill-opacity:1;fill-rule:nonzero;stroke:none;stroke-width:1;marker:none;visibility:visible;display:inline;overflow:visible;enable-background:accumulate" />
    <path
       style="color:#000000;fill:#999999;fill-opacity:1;fill-rule:nonzero;stroke:none;stroke-width:1;marker:none;visibility:visible;display:inline;overflow:visible;enable-background:accumulate"
       d="M 7.993453,10.784453 C 7.820889,11.083344 7.444639,11.129248 7.21071,10.994189 6.97678,10.85913 6.8311316,10.505621 7.000974,10.211445 7.170816,9.91727 8.067298,9.510533 8.067298,9.510533 c 0,0 0.09872,0.97503 -0.07385,1.27392 z"
       id="path3120"
       inkscape:connector-curvature="0"
       sodipodi:nodetypes="zszcz"
       inkscape:transform-center-y="-0.20465155"
       inkscape:transform-center-x="-0.011284306" />
    <path
       inkscape:transform-center-x="-0.011284306"
       inkscape:transform-center-y="-0.20465155"
       sodipodi:nodetypes="zszcz"
       inkscape:connector-curvature="0"
       id="path3122"
       d="M 7.9934531,14.784453 C 7.8208886,15.083344 7.4446389,15.129248 7.2107095,14.994189 6.97678,14.85913 6.8311316,14.505621 7.000974,14.211445 7.1708157,13.91727 8.0672983,13.510533 8.0672983,13.510533 c 0,0 0.098719,0.97503 -0.073848,1.27392 z"
       style="color:#000000;fill:#999999;fill-opacity:1;fill-rule:nonzero;stroke:none;stroke-width:1;marker:none;visibility:visible;display:inline;overflow:visible;enable-background:accumulate" />
    <path
       style="color:#000000;fill:#999999;fill-opacity:1;fill-rule:nonzero;stroke:none;stroke-width:1;marker:none;visibility:visible;display:inline;overflow:visible;enable-background:accumulate"
       d="M 8.9934531,12.784453 C 8.8208886,13.083344 8.4446389,13.129248 8.2107095,12.994189 7.97678,12.85913 7.8311316,12.505621 8.000974,12.211445 8.1708157,11.91727 9.067298,11.510533 9.067298,11.510533 c 0,0 0.09872,0.97503 -0.073848,1.27392 z"
       id="path3124"
       inkscape:connector-curvature="0"
       sodipodi:nodetypes="zszcz"
       inkscape:transform-center-y="-0.20465155"
       inkscape:transform-center-x="-0.011284306" />
    <path
       inkscape:transform-center-x="-0.011284306"
       inkscape:transform-center-y="-0.20465155"
       sodipodi:nodetypes="zszcz"
       inkscape:connector-curvature="0"
       id="path3126"
       d="M 9.993453,10.784453 C 9.820889,11.083344 9.444639,11.129248 9.21071,10.994189 8.97678,10.85913 8.8311316,10.505621 9.000974,10.211445 9.170816,9.91727 10.067298,9.510533 10.067298,9.510533 c 0,0 0.09872,0.97503 -0.07385,1.27392 z"
       style="color:#000000;fill:#999999;fill-opacity:1;fill-rule:nonzero;stroke:none;stroke-width:1;marker:none;visibility:visible;display:inline;overflow:visible;enable-background:accumulate" />
    <path
       style="color:#000000;fill:#999999;fill-opacity:1;fill-rule:nonzero;stroke:none;stroke-width:1;marker:none;visibility:visible;display:inline;overflow:visible;enable-background:accumulate"
       d="M 9.993453,14.784453 C 9.820889,15.083344 9.444639,15.129248 9.21071,14.994189 8.97678,14.85913 8.8311316,14.505621 9.000974,14.211445 c 0.169842,-0.294175 1.066324,-0.700912 1.066324,-0.700912 0,0 0.09872,0.97503 -0.07385,1.27392 z"
       id="path3128"
       inkscape:connector-curvature="0"
       sodipodi:nodetypes="zszcz"
       inkscape:transform-center-y="-0.20465155"
       inkscape:transform-center-x="-0.011284306" />
    <path
       inkscape:transform-center-x="-0.011284306"
       inkscape:transform-center-y="-0.20465155"
       sodipodi:nodetypes="zszcz"
       inkscape:connector-curvature="0"
       id="path3130"
       d="m 10.993453,12.784453 c -0.172564,0.298891 -0.548814,0.344795 -0.782743,0.209736 -0.23393,-0.135059 -0.379578,-0.488568 -0.209736,-0.782744 0.169842,-0.294175 1.066324,-0.700912 1.066324,-0.700912 0,0 0.09872,0.97503 -0.07385,1.27392 z"
       style="color:#000000;fill:#999999;fill-opacity:1;fill-rule:nonzero;stroke:none;stroke-width:1;marker:none;visibility:visible;display:inline;overflow:visible;enable-background:accumulate" />
    <path
       style="color:#000000;fill:#999999;fill-opacity:1;fill-rule:nonzero;stroke:none;stroke-width:1;marker:none;visibility:visible;display:inline;overflow:visible;enable-background:accumulate"
       d="m 11.993453,10.784453 c -0.172564,0.298891 -0.548814,0.344795 -0.782743,0.209736 -0.23393,-0.135059 -0.379578,-0.488568 -0.209736,-0.782744 0.169842,-0.294175 1.066324,-0.700912 1.066324,-0.700912 0,0 0.09872,0.97503 -0.07385,1.27392 z"
       id="path3132"
       inkscape:connector-curvature="0"
       sodipodi:nodetypes="zszcz"
       inkscape:transform-center-y="-0.20465155"
       inkscape:transform-center-x="-0.011284306" />
  </g>
</svg>
