<?xml version="1.0" encoding="UTF-8" standalone="no"?>
<!-- Created with Inkscape (http://www.inkscape.org/) -->

<svg
   xmlns:dc="http://purl.org/dc/elements/1.1/"
   xmlns:cc="http://creativecommons.org/ns#"
   xmlns:rdf="http://www.w3.org/1999/02/22-rdf-syntax-ns#"
   xmlns:svg="http://www.w3.org/2000/svg"
   xmlns="http://www.w3.org/2000/svg"
   xmlns:xlink="http://www.w3.org/1999/xlink"
   xmlns:sodipodi="http://sodipodi.sourceforge.net/DTD/sodipodi-0.dtd"
   xmlns:inkscape="http://www.inkscape.org/namespaces/inkscape"
   width="96"
   height="96"
   id="svg2"
   version="1.1"
   inkscape:version="0.48.4 r9939"
   sodipodi:docname="weather-showers.svg">
  <defs
     id="defs4">
    <linearGradient
       id="linearGradient3903">
      <stop
         style="stop-color:#ffffff;stop-opacity:1;"
         offset="0"
         id="stop3905" />
      <stop
         style="stop-color:#999999;stop-opacity:1;"
         offset="1"
         id="stop3907" />
    </linearGradient>
    <linearGradient
       y2="1033.7698"
       x2="58.896133"
       y1="977.16882"
       x1="59.161461"
       gradientTransform="matrix(1.4341039,0,0,1.4341039,-39.463177,-460.17108)"
       gradientUnits="userSpaceOnUse"
       id="linearGradient3114"
       xlink:href="#linearGradient3903"
       inkscape:collect="always" />
  </defs>
  <sodipodi:namedview
     id="base"
     pagecolor="#ffffff"
     bordercolor="#666666"
     borderopacity="1.0"
     inkscape:pageopacity="0.0"
     inkscape:pageshadow="2"
     inkscape:zoom="5.90625"
     inkscape:cx="26.455446"
     inkscape:cy="45.936576"
     inkscape:document-units="px"
     inkscape:current-layer="layer1"
     showgrid="true"
     inkscape:snap-page="true"
     inkscape:snap-global="true"
     inkscape:snap-center="true"
     inkscape:snap-object-midpoints="false"
     showguides="true"
     inkscape:guide-bbox="true"
     inkscape:snap-bbox="true"
     inkscape:object-paths="true"
     inkscape:object-nodes="true"
     inkscape:window-width="1305"
     inkscape:window-height="744"
     inkscape:window-x="61"
     inkscape:window-y="24"
     inkscape:window-maximized="1"
     inkscape:snap-midpoints="false"
     inkscape:snap-grids="true"
     inkscape:snap-to-guides="false">
    <inkscape:grid
       type="xygrid"
       id="grid3002"
       empspacing="5"
       visible="true"
       enabled="true"
       snapvisiblegridlinesonly="true" />
  </sodipodi:namedview>
  <metadata
     id="metadata7">
    <rdf:RDF>
      <cc:Work
         rdf:about="">
        <dc:format>image/svg+xml</dc:format>
        <dc:type
           rdf:resource="http://purl.org/dc/dcmitype/StillImage" />
        <dc:title />
      </cc:Work>
    </rdf:RDF>
  </metadata>
  <g
     inkscape:label="Layer 1"
     inkscape:groupmode="layer"
     id="layer1"
     transform="translate(0,-956.36218)">
    <rect
       style="fill:#ffffff;fill-opacity:0;fill-rule:nonzero;stroke:none"
       id="rect3775"
       width="96"
       height="96"
       x="0"
       y="956.36212"
       ry="0" />
    <path
       style="fill:#000000;fill-opacity:0.09589042;fill-rule:nonzero;stroke:none"
       d="M 3.4090909,956.3622 C 1.5260553,956.3622 0,957.7926 0,959.5584 l 0,83.6076 c 0,1.7658 1.5260553,3.1962 3.4090909,3.1962 l 89.1818171,0 c 1.883034,0 3.409092,-1.4304 3.409092,-3.1962 l 0,-83.6076 c 0,-1.7658 -1.526058,-3.1962 -3.409092,-3.1962 z"
       id="rect3772"
       inkscape:connector-curvature="0"
       sodipodi:nodetypes="sssssssss" />
    <path
       style="fill:#000000;fill-opacity:0.18721463;fill-rule:nonzero;stroke:none"
       d="m 1.0459761,1041.8064 0,7.422 c 0,1.7394 1.461916,3.1338 3.2852054,3.1338 l 86.3836105,0 c 1.823292,0 3.28521,-1.3944 3.28521,-3.1338 l 0,-7.422 -92.9540259,0 z"
       id="rect3785"
       inkscape:connector-curvature="0" />
    <path
       style="fill:#000000;fill-opacity:0.38356168;fill-rule:nonzero;stroke:none"
       d="m 1.0459761,1041.8064 0,5.3808 c 0,1.7622 1.461916,3.1752 3.2852054,3.1752 l 86.3836105,0 c 1.823292,0 3.28521,-1.413 3.28521,-3.1752 l 0,-5.3808 -92.9540259,0 z"
       id="rect3783"
       inkscape:connector-curvature="0" />
    <rect
       style="fill:#372e37;fill-opacity:1;fill-rule:nonzero;stroke:none"
       id="rect2985"
       width="92.954025"
       height="89"
       x="1.045977"
       y="957.36188"
       ry="3.1511393" />
    <path
       inkscape:connector-curvature="0"
       id="path3883"
       d="m 44.667006,962.9628 c -10.054644,0.516 -18.067598,8.9214 -18.067598,19.2066 0,1.596 0.236322,3.1314 0.599268,4.614 -0.412494,-0.06 -0.837775,-0.06 -1.25844,-0.06 -8.817487,0 -15.9402376,7.2432 -15.9402376,16.1508 0,8.9076 7.1227506,16.1196 15.9402376,16.1196 l 46.592208,0 0,-0.06 c 6.658104,0 12.07503,-5.4684 12.07503,-12.1944 0,-4.497 -2.43324,-8.4078 -6.02253,-10.5174 0.3003,-1.1742 0.4794,-2.3868 0.4794,-3.6552 0,-8.0892 -6.494298,-14.652 -14.502018,-14.652 -0.13296,0 -0.2574,0.06 -0.38952,0.06 -1.899708,-8.5926 -9.468341,-15.0114 -18.546999,-15.0114 -0.328458,0 -0.634477,-0.06 -0.958815,0 z"
       style="fill:url(#linearGradient3114);fill-opacity:1.0;stroke:none" />
    <path
       style="fill:#ffffff;fill-opacity:0.8425926;stroke:none"
       d="M 44.65625 6.59375 C 34.601606 7.10975 26.59375 15.5273 26.59375 25.8125 C 26.59375 26.138203 26.637498 26.460528 26.65625 26.78125 C 27.173469 16.973534 34.941759 9.0922935 44.65625 8.59375 C 44.980588 8.53375 45.296542 8.59375 45.625 8.59375 C 54.703658 8.59375 62.287792 15.0324 64.1875 23.625 C 64.31962 23.625 64.42954 23.5625 64.5625 23.5625 C 72.215892 23.5625 78.491278 29.563512 79.03125 37.15625 C 79.052733 36.845853 79.0625 36.53585 79.0625 36.21875 C 79.0625 28.12955 72.57022 21.5625 64.5625 21.5625 C 64.42954 21.5625 64.31962 21.625 64.1875 21.625 C 62.287792 13.0324 54.703658 6.59375 45.625 6.59375 C 45.296542 6.59375 44.980588 6.53375 44.65625 6.59375 z M 25.9375 30.375 C 17.120013 30.375 10 37.5924 10 46.5 C 10 46.836248 10.042493 47.168881 10.0625 47.5 C 10.581746 39.066173 17.459241 32.375 25.9375 32.375 C 26.358165 32.375 26.775006 32.34625 27.1875 32.40625 C 27.023141 31.734859 26.883488 31.068771 26.78125 30.375 C 26.498626 30.356583 26.221265 30.375 25.9375 30.375 z M 78.9375 40.09375 C 78.855332 40.69165 78.741386 41.29773 78.59375 41.875 C 81.864065 43.797123 84.177647 47.193815 84.5625 51.1875 C 84.58008 50.918842 84.59375 50.648087 84.59375 50.375 C 84.59375 46.027278 82.33208 42.24764 78.9375 40.09375 z "
       transform="translate(0,956.36218)"
       id="path3795" />
    <path
       style="fill:#ffffff;fill-opacity:0.07305936;fill-rule:evenodd;stroke:none"
       d="M 1.03125 81.15625 L 1.03125 86.84375 C 1.03125 87.716616 1.3991816 88.524182 1.96875 89.09375 C 2.5383184 89.663318 3.3146344 90 4.1875 90 L 61.125 90 L 80 56 L 15 56 L 1.03125 81.15625 z "
       id="rect2997"
       transform="translate(0,956.36218)" />
    <path
       style="fill:#ffffff;fill-opacity:0.07305936;fill-rule:evenodd;stroke:none"
       d="M 6.125 90 L 41.125 90 L 60 56 L 25 56 L 6.125 90 z "
       id="path3768"
       transform="translate(0,956.36218)" />
    <path
       style="fill:#ffffff;fill-opacity:0.07305936;fill-rule:evenodd;stroke:none"
       d="M 26.125 90 L 41.125 90 L 60 56 L 45 56 L 26.125 90 z "
       id="path3770"
       transform="translate(0,956.36218)" />
    <path
       style="fill:#ffffff;fill-opacity:0.07305936;fill-rule:evenodd;stroke:none"
       d="M 31.125 90 L 41.125 90 L 60 56 L 50 56 L 31.125 90 z "
       id="path3772"
       transform="translate(0,956.36218)" />
    <path
       style="fill:#000000;fill-opacity:0.38356168;fill-rule:nonzero;stroke:none"
       d="m 1,1042.362 0.045978,2.7462 c 0.03024,1.8054 1.461916,3.2538 3.2852055,3.2538 l 86.3836165,0 c 1.823286,0 3.285204,-1.4478 3.285204,-3.2538 l -0.0462,-2.7462 z"
       id="rect3781"
       inkscape:connector-curvature="0"
       sodipodi:nodetypes="csssscc" />
    <rect
       style="fill:#ffffff;fill-opacity:0.3;fill-rule:nonzero;stroke:none"
       id="rect3770"
       width="92.954033"
       height="2.000005"
       x="1.045976"
       y="1040.3621" />
    <path
       style="fill:#080808;fill-opacity:0.89351849;stroke:none"
       d="m 26.65625,983.14343 c -0.01811,0.34342 -0.0625,0.6833 -0.0625,1.03125 0,0.87326 0.06397,1.72425 0.1875,2.5625 0.136349,0.009 0.272009,0.0117 0.40625,0.0312 -0.288878,-1.18004 -0.458116,-2.37413 -0.53125,-3.625 z m 52.375,10.46875 c -0.06833,0.89752 -0.219959,1.7744 -0.4375,2.625 0.119147,0.07 0.227198,0.1448 0.34375,0.21875 0.08497,-0.61826 0.125,-1.23018 0.125,-1.875 0,-0.32639 -0.01043,-0.64766 -0.03125,-0.96875 z M 10.0625,1003.8622 c -0.02078,0.3374 -0.0625,0.6573 -0.0625,1 0,8.9076 7.120013,16.125 15.9375,16.125 l 46.59375,0 0,-0.062 c 6.658104,0 12.0625,-5.4615 12.0625,-12.1875 0,-0.3997 0.0063,-0.798 -0.03125,-1.1875 -0.415408,6.3483 -5.643476,11.375 -12.03125,11.375 l 0,0.062 -46.59375,0 c -8.484641,0 -15.364997,-6.6844 -15.875,-15.125 z"
       id="path3804"
       inkscape:connector-curvature="0" />
  </g>
</svg>
