<?xml version="1.0" encoding="UTF-8" standalone="no"?>
<!-- Created with Inkscape (http://www.inkscape.org/) -->

<svg
   xmlns:dc="http://purl.org/dc/elements/1.1/"
   xmlns:cc="http://creativecommons.org/ns#"
   xmlns:rdf="http://www.w3.org/1999/02/22-rdf-syntax-ns#"
   xmlns:svg="http://www.w3.org/2000/svg"
   xmlns="http://www.w3.org/2000/svg"
   xmlns:sodipodi="http://sodipodi.sourceforge.net/DTD/sodipodi-0.dtd"
   xmlns:inkscape="http://www.inkscape.org/namespaces/inkscape"
   width="16"
   height="16"
   id="svg2"
   sodipodi:version="0.32"
   inkscape:version="0.48.4 r9939"
   version="1.0"
   sodipodi:docname="weather-fog-symbolic.svg"
   inkscape:output_extension="org.inkscape.output.svg.inkscape">
  <defs
     id="defs4" />
  <sodipodi:namedview
     id="base"
     pagecolor="#ffffff"
     bordercolor="#e7e7e7"
     borderopacity="1"
     inkscape:pageopacity="0.0"
     inkscape:pageshadow="2"
     inkscape:zoom="5.1230632"
     inkscape:cx="-26.365583"
     inkscape:cy="6.3737332"
     inkscape:document-units="px"
     inkscape:current-layer="layer1"
     showgrid="true"
     inkscape:showpageshadow="false"
     showguides="true"
     inkscape:guide-bbox="true"
     inkscape:window-width="1305"
     inkscape:window-height="744"
     inkscape:window-x="61"
     inkscape:window-y="24"
     inkscape:window-maximized="1"
     inkscape:snap-global="true">
    <sodipodi:guide
       orientation="1,0"
       position="0,112"
       id="guide2383" />
    <sodipodi:guide
       orientation="0,1"
       position="78.156291,0"
       id="guide2389" />
    <inkscape:grid
       type="xygrid"
       id="grid3672"
       visible="true"
       enabled="true" />
    <sodipodi:guide
       orientation="1,0"
       position="22.008699,4.1542523"
       id="guide2950" />
    <sodipodi:guide
       orientation="0,1"
       position="11.22532,22.008699"
       id="guide2952" />
  </sodipodi:namedview>
  <metadata
     id="metadata7">
    <rdf:RDF>
      <cc:Work
         rdf:about="">
        <dc:format>image/svg+xml</dc:format>
        <dc:type
           rdf:resource="http://purl.org/dc/dcmitype/StillImage" />
        <dc:title />
      </cc:Work>
    </rdf:RDF>
  </metadata>
  <g
     inkscape:label="Calque 1"
     inkscape:groupmode="layer"
     id="layer1">
    <path
       style="font-size:medium;font-style:normal;font-variant:normal;font-weight:normal;font-stretch:normal;text-indent:0;text-align:start;text-decoration:none;line-height:normal;letter-spacing:normal;word-spacing:normal;text-transform:none;direction:ltr;block-progression:tb;writing-mode:lr-tb;text-anchor:start;color:#000000;fill:#999999;fill-opacity:1;stroke:none;stroke-width:1.50000000000000000;marker:none;visibility:visible;display:inline;overflow:visible;enable-background:accumulate;font-family:Abandoned Bitplane;-inkscape-font-specification:Abandoned Bitplane"
       d="m 10.395798,10.060106 c -0.8331473,0.127953 -1.7447594,0.454863 -2.6883364,1.160161 -3.2444836,2.425162 -5.5446948,0.07251 -5.5446948,0.07251 a 0.67215143,0.87020774 0 1 0 -0.7840982,1.377691 c 0,0 3.161279,2.942504 7.0008773,0.07251 3.1669471,-2.367206 5.5446941,-0.03626 5.5446941,-0.03626 a 0.683653,0.88509836 0 0 0 0.784099,-1.450201 c 0,0 -1.813097,-1.5802737 -4.312541,-1.196416 z"
       id="path2960" />
    <path
       id="path3746"
       d="M 10.395798,6.060106 C 9.5626507,6.188059 8.6510386,6.514969 7.7074616,7.220267 4.462978,9.645429 2.1627668,7.292777 2.1627668,7.292777 A 0.67215143,0.87020774 0 1 0 1.3786686,8.670468 c 0,0 3.161279,2.942504 7.0008773,0.07251 C 11.546493,6.375772 13.92424,8.706718 13.92424,8.706718 a 0.683653,0.88509836 0 0 0 0.784099,-1.450201 c 0,0 -1.813097,-1.5802737 -4.312541,-1.196416 z"
       style="font-size:medium;font-style:normal;font-variant:normal;font-weight:normal;font-stretch:normal;text-indent:0;text-align:start;text-decoration:none;line-height:normal;letter-spacing:normal;word-spacing:normal;text-transform:none;direction:ltr;block-progression:tb;writing-mode:lr-tb;text-anchor:start;color:#000000;fill:#999999;fill-opacity:1;stroke:none;stroke-width:1.50000000000000000;marker:none;visibility:visible;display:inline;overflow:visible;enable-background:accumulate;font-family:Abandoned Bitplane;-inkscape-font-specification:Abandoned Bitplane" />
    <path
       style="font-size:medium;font-style:normal;font-variant:normal;font-weight:normal;font-stretch:normal;text-indent:0;text-align:start;text-decoration:none;line-height:normal;letter-spacing:normal;word-spacing:normal;text-transform:none;direction:ltr;block-progression:tb;writing-mode:lr-tb;text-anchor:start;color:#000000;fill:#999999;fill-opacity:1;stroke:none;stroke-width:1.50000000000000000;marker:none;visibility:visible;display:inline;overflow:visible;enable-background:accumulate;font-family:Abandoned Bitplane;-inkscape-font-specification:Abandoned Bitplane"
       d="M 10.395798,2.060106 C 9.5626507,2.188059 8.6510386,2.514969 7.7074616,3.220267 4.462978,5.645429 2.1627668,3.292777 2.1627668,3.292777 A 0.67215143,0.87020774 0 1 0 1.3786686,4.670468 c 0,0 3.161279,2.942504 7.0008773,0.07251 C 11.546493,2.375772 13.92424,4.706718 13.92424,4.706718 a 0.683653,0.88509836 0 0 0 0.784099,-1.450201 c 0,0 -1.813097,-1.5802737 -4.312541,-1.196416 z"
       id="path3748" />
  </g>
</svg>
